<?xml version="1.0" encoding="UTF-8"?>
<svg xmlns="http://www.w3.org/2000/svg" viewBox="0 0 512 512" width="512" height="512"><path fill="#000" d="M235,11h42v1h-42zM225,12h61v1h-61zM218,13h76v1h-76zM212,14h88v1h-88zM207,15h98v1h-98zM203,16h107v1h-107zM198,17h116v1h-116zM194,18h124v1h-124zM191,19h130v1h-130zM187,20h138v1h-138zM184,21h144v1h-144zM180,22h152v1h-152zM177,23h158v1h-158zM175,24h163v1h-163zM172,25h168v1h-168zM169,26h174v1h-174zM167,27h178v1h-178zM164,28h184v1h-184zM162,29h189v1h-189zM159,30h194v1h-194zM157,31h198v1h-198zM155,32h202v1h-202zM153,33h206v1h-206zM150,34h212v1h-212zM148,35h216v1h-216zM146,36h220v1h-220zM144,37h224v1h-224zM142,38h228v1h-228zM140,39h232v1h-232zM139,40h234v1h-234zM137,41h238v1h-238zM135,42h242v1h-242zM133,43h246v1h-246zM132,44h248v1h-248zM130,45h252v1h-252zM128,46h256v1h-256zM127,47h258v1h-258zM125,48h262v1h-262zM124,49h264v1h-264zM122,50h268v1h-268zM120,51h272v1h-272zM119,52h274v1h-274zM117,53h278v1h-278zM116,54h280v1h-280zM115,55h282v1h-282zM113,56h286v1h-286zM112,57h288v1h-288zM110,58h292v1h-292zM109,59h294v1h-294zM108,60h296v1h-296zM106,61h146v1h-146zM260,61h146v1h-146zM105,62h131v1h-131zM277,62h130v1h-130zM104,63h123v1h-123zM285,63h123v1h-123zM103,64h118v1h-118zM291,64h118v1h-118zM101,65h115v1h-115zM296,65h115v1h-115zM100,66h112v1h-112zM300,66h112v1h-112zM99,67h108v1h-108zM305,67h108v1h-108zM98,68h106v1h-106zM308,68h106v1h-106zM97,69h103v1h-103zM312,69h103v1h-103zM96,70h101v1h-101zM315,70h102v1h-102zM94,71h100v1h-100zM318,71h100v1h-100zM93,72h98v1h-98zM321,72h98v1h-98zM92,73h96v1h-96zM324,73h96v1h-96zM91,74h95v1h-95zM326,74h95v1h-95zM90,75h93v1h-93zM329,75h93v1h-93zM89,76h92v1h-92zM331,76h92v1h-92zM88,77h91v1h-91zM334,77h90v1h-90zM87,78h89v1h-89zM336,78h89v1h-89zM86,79h88v1h-88zM338,79h88v1h-88zM85,80h87v1h-87zM340,80h87v1h-87zM84,81h86v1h-86zM342,81h86v1h-86zM83,82h85v1h-85zM344,82h85v1h-85zM82,83h84v1h-84zM346,83h84v1h-84zM81,84h83v1h-83zM348,84h83v1h-83zM80,85h82v1h-82zM350,85h82v1h-82zM79,86h82v1h-82zM352,86h81v1h-81zM78,87h81v1h-81zM353,87h81v1h-81zM77,88h80v1h-80zM355,88h80v1h-80zM76,89h79v1h-79zM357,89h79v1h-79zM75,90h79v1h-79zM358,90h79v1h-79zM74,91h78v1h-78zM360,91h78v1h-78zM73,92h78v1h-78zM361,92h78v1h-78zM72,93h77v1h-77zM363,93h77v1h-77zM71,94h76v1h-76zM365,94h76v1h-76zM70,95h76v1h-76zM366,95h76v1h-76zM70,96h75v1h-75zM367,96h75v1h-75zM69,97h74v1h-74zM369,97h74v1h-74zM68,98h74v1h-74zM370,98h74v1h-74zM67,99h73v1h-73zM372,99h73v1h-73zM66,100h73v1h-73zM373,100h73v1h-73zM65,101h73v1h-73zM374,101h73v1h-73zM65,102h72v1h-72zM375,102h72v1h-72zM64,103h71v1h-71zM377,103h71v1h-71zM63,104h71v1h-71zM378,104h71v1h-71zM62,105h71v1h-71zM379,105h71v1h-71zM61,106h71v1h-71zM380,106h71v1h-71zM61,107h69v1h-69zM382,107h69v1h-69zM60,108h69v1h-69zM383,108h69v1h-69zM59,109h69v1h-69zM384,109h69v1h-69zM58,110h69v1h-69zM385,110h69v1h-69zM58,111h68v1h-68zM386,111h68v1h-68zM57,112h68v1h-68zM387,112h68v1h-68zM56,113h68v1h-68zM388,113h68v1h-68zM56,114h67v1h-67zM389,114h67v1h-67zM55,115h67v1h-67zM390,115h67v1h-67zM54,116h66v1h-66zM392,116h66v1h-66zM53,117h66v1h-66zM393,117h66v1h-66zM53,118h65v1h-65zM394,118h65v1h-65zM52,119h65v1h-65zM395,119h65v1h-65zM51,120h65v1h-65zM396,120h65v1h-65zM51,121h65v1h-65zM397,121h64v1h-64zM50,122h65v1h-65zM397,122h65v1h-65zM50,123h64v1h-64zM398,123h64v1h-64zM49,124h64v1h-64zM399,124h64v1h-64zM48,125h64v1h-64zM400,125h64v1h-64zM48,126h63v1h-63zM401,126h63v1h-63zM47,127h63v1h-63zM402,127h63v1h-63zM46,128h63v1h-63zM403,128h63v1h-63zM46,129h62v1h-62zM404,129h62v1h-62zM45,130h62v1h-62zM405,130h62v1h-62zM45,131h62v1h-62zM405,131h62v1h-62zM44,132h62v1h-62zM406,132h62v1h-62zM43,133h62v1h-62zM250,133h12v1h-12zM407,133h62v1h-62zM43,134h61v1h-61zM247,134h18v1h-18zM408,134h61v1h-61zM42,135h61v1h-61zM244,135h24v1h-24zM409,135h61v1h-61zM42,136h61v1h-61zM243,136h26v1h-26zM409,136h61v1h-61zM41,137h61v1h-61zM241,137h30v1h-30zM410,137h61v1h-61zM41,138h60v1h-60zM240,138h32v1h-32zM411,138h60v1h-60zM40,139h60v1h-60zM238,139h36v1h-36zM412,139h60v1h-60zM39,140h60v1h-60zM237,140h38v1h-38zM413,140h59v1h-59zM39,141h60v1h-60zM236,141h40v1h-40zM413,141h60v1h-60zM38,142h60v1h-60zM236,142h41v1h-41zM414,142h60v1h-60zM38,143h59v1h-59zM235,143h42v1h-42zM415,143h59v1h-59zM37,144h60v1h-60zM234,144h44v1h-44zM415,144h60v1h-60zM37,145h59v1h-59zM233,145h46v1h-46zM416,145h59v1h-59zM36,146h59v1h-59zM233,146h46v1h-46zM417,146h59v1h-59zM36,147h58v1h-58zM232,147h48v1h-48zM418,147h58v1h-58zM35,148h59v1h-59zM232,148h48v1h-48zM418,148h59v1h-59zM35,149h58v1h-58zM231,149h50v1h-50zM419,149h58v1h-58zM34,150h59v1h-59zM231,150h50v1h-50zM419,150h59v1h-59zM34,151h58v1h-58zM231,151h50v1h-50zM420,151h58v1h-58zM34,152h57v1h-57zM230,152h52v1h-52zM421,152h57v1h-57zM33,153h58v1h-58zM230,153h52v1h-52zM421,153h58v1h-58zM33,154h57v1h-57zM230,154h52v1h-52zM422,154h57v1h-57zM32,155h57v1h-57zM230,155h52v1h-52zM423,155h57v1h-57zM32,156h57v1h-57zM230,156h52v1h-52zM423,156h57v1h-57zM31,157h57v1h-57zM229,157h54v1h-54zM424,157h57v1h-57zM31,158h57v1h-57zM229,158h54v1h-54zM424,158h57v1h-57zM30,159h57v1h-57zM229,159h54v1h-54zM425,159h57v1h-57zM30,160h56v1h-56zM229,160h54v1h-54zM425,160h57v1h-57zM30,161h56v1h-56zM229,161h54v1h-54zM426,161h56v1h-56zM29,162h56v1h-56zM229,162h54v1h-54zM427,162h56v1h-56zM29,163h56v1h-56zM229,163h54v1h-54zM427,163h56v1h-56zM28,164h56v1h-56zM230,164h52v1h-52zM428,164h56v1h-56zM28,165h56v1h-56zM230,165h52v1h-52zM428,165h56v1h-56zM28,166h55v1h-55zM230,166h52v1h-52zM429,166h55v1h-55zM27,167h56v1h-56zM230,167h52v1h-52zM429,167h56v1h-56zM27,168h55v1h-55zM230,168h52v1h-52zM430,168h55v1h-55zM26,169h56v1h-56zM230,169h52v1h-52zM430,169h56v1h-56zM26,170h55v1h-55zM230,170h52v1h-52zM431,170h55v1h-55zM26,171h55v1h-55zM230,171h52v1h-52zM431,171h55v1h-55zM25,172h55v1h-55zM230,172h52v1h-52zM432,172h55v1h-55zM25,173h55v1h-55zM230,173h52v1h-52zM432,173h55v1h-55zM25,174h54v1h-54zM230,174h52v1h-52zM433,174h54v1h-54zM24,175h55v1h-55zM230,175h52v1h-52zM433,175h55v1h-55zM24,176h54v1h-54zM230,176h52v1h-52zM434,176h54v1h-54zM23,177h55v1h-55zM230,177h52v1h-52zM434,177h54v1h-54zM23,178h55v1h-55zM230,178h52v1h-52zM435,178h54v1h-54zM23,179h54v1h-54zM230,179h52v1h-52zM435,179h54v1h-54zM22,180h55v1h-55zM230,180h52v1h-52zM435,180h54v1h-54zM22,181h54v1h-54zM230,181h52v1h-52zM436,181h54v1h-54zM22,182h54v1h-54zM230,182h52v1h-52zM436,182h54v1h-54zM22,183h53v1h-53zM230,183h52v1h-52zM437,183h53v1h-53zM21,184h54v1h-54zM230,184h52v1h-52zM437,184h54v1h-54zM21,185h54v1h-54zM230,185h52v1h-52zM437,185h54v1h-54zM21,186h53v1h-53zM230,186h52v1h-52zM438,186h53v1h-53zM20,187h54v1h-54zM231,187h50v1h-50zM438,187h54v1h-54zM20,188h53v1h-53zM231,188h50v1h-50zM439,188h53v1h-53zM20,189h53v1h-53zM231,189h50v1h-50zM439,189h53v1h-53zM20,190h53v1h-53zM231,190h50v1h-50zM439,190h53v1h-53zM19,191h53v1h-53zM231,191h50v1h-50zM440,191h53v1h-53zM19,192h53v1h-53zM231,192h50v1h-50zM440,192h53v1h-53zM19,193h53v1h-53zM231,193h50v1h-50zM440,193h53v1h-53zM18,194h53v1h-53zM231,194h50v1h-50zM441,194h53v1h-53zM18,195h53v1h-53zM231,195h50v1h-50zM441,195h53v1h-53zM18,196h53v1h-53zM231,196h50v1h-50zM441,196h53v1h-53zM18,197h52v1h-52zM231,197h50v1h-50zM442,197h52v1h-52zM17,198h53v1h-53zM231,198h50v1h-50zM442,198h53v1h-53zM17,199h53v1h-53zM231,199h50v1h-50zM442,199h53v1h-53zM17,200h52v1h-52zM231,200h50v1h-50zM443,200h52v1h-52zM17,201h52v1h-52zM231,201h50v1h-50zM443,201h52v1h-52zM16,202h53v1h-53zM231,202h50v1h-50zM443,202h53v1h-53zM16,203h53v1h-53zM231,203h50v1h-50zM443,203h53v1h-53zM16,204h52v1h-52zM231,204h50v1h-50zM444,204h52v1h-52zM16,205h52v1h-52zM231,205h50v1h-50zM444,205h52v1h-52zM16,206h52v1h-52zM231,206h50v1h-50zM444,206h52v1h-52zM15,207h52v1h-52zM231,207h50v1h-50zM444,207h53v1h-53zM15,208h52v1h-52zM231,208h50v1h-50zM445,208h52v1h-52zM15,209h52v1h-52zM231,209h50v1h-50zM445,209h52v1h-52zM15,210h52v1h-52zM232,210h48v1h-48zM445,210h52v1h-52zM15,211h52v1h-52zM232,211h48v1h-48zM445,211h52v1h-52zM14,212h52v1h-52zM232,212h48v1h-48zM446,212h52v1h-52zM14,213h52v1h-52zM232,213h48v1h-48zM446,213h52v1h-52zM14,214h52v1h-52zM232,214h48v1h-48zM446,214h52v1h-52zM14,215h52v1h-52zM232,215h48v1h-48zM446,215h52v1h-52zM14,216h51v1h-51zM232,216h48v1h-48zM447,216h51v1h-51zM14,217h51v1h-51zM232,217h48v1h-48zM447,217h51v1h-51zM13,218h52v1h-52zM232,218h48v1h-48zM447,218h52v1h-52zM13,219h52v1h-52zM232,219h48v1h-48zM447,219h52v1h-52zM13,220h52v1h-52zM232,220h48v1h-48zM447,220h52v1h-52zM13,221h51v1h-51zM232,221h48v1h-48zM447,221h52v1h-52zM13,222h51v1h-51zM232,222h48v1h-48zM448,222h51v1h-51zM13,223h51v1h-51zM232,223h48v1h-48zM448,223h51v1h-51zM13,224h51v1h-51zM232,224h48v1h-48zM448,224h51v1h-51zM12,225h52v1h-52zM232,225h48v1h-48zM448,225h51v1h-51zM12,226h52v1h-52zM232,226h48v1h-48zM448,226h52v1h-52zM12,227h51v1h-51zM232,227h48v1h-48zM449,227h51v1h-51zM12,228h51v1h-51zM232,228h48v1h-48zM449,228h51v1h-51zM12,229h51v1h-51zM232,229h48v1h-48zM449,229h51v1h-51zM12,230h51v1h-51zM232,230h48v1h-48zM449,230h51v1h-51zM12,231h51v1h-51zM232,231h48v1h-48zM449,231h51v1h-51zM12,232h51v1h-51zM233,232h47v1h-47zM449,232h51v1h-51zM12,233h51v1h-51zM233,233h46v1h-46zM449,233h51v1h-51zM12,234h51v1h-51zM233,234h46v1h-46zM449,234h51v1h-51zM11,235h51v1h-51zM233,235h46v1h-46zM450,235h51v1h-51zM11,236h51v1h-51zM233,236h46v1h-46zM450,236h51v1h-51zM11,237h51v1h-51zM233,237h46v1h-46zM450,237h51v1h-51zM11,238h51v1h-51zM233,238h46v1h-46zM450,238h51v1h-51zM11,239h51v1h-51zM233,239h46v1h-46zM450,239h51v1h-51zM11,240h51v1h-51zM233,240h46v1h-46zM450,240h51v1h-51zM11,241h51v1h-51zM233,241h46v1h-46zM450,241h51v1h-51zM11,242h51v1h-51zM233,242h46v1h-46zM450,242h51v1h-51zM11,243h51v1h-51zM233,243h46v1h-46zM450,243h51v1h-51zM11,244h51v1h-51zM233,244h46v1h-46zM450,244h51v1h-51zM11,245h51v1h-51zM233,245h46v1h-46zM450,245h51v1h-51zM11,246h51v1h-51zM233,246h46v1h-46zM450,246h51v1h-51zM11,247h51v1h-51zM233,247h46v1h-46zM450,247h51v1h-51zM11,248h51v1h-51zM233,248h46v1h-46zM450,248h51v1h-51zM11,249h51v1h-51zM233,249h46v1h-46zM450,249h51v1h-51zM11,250h51v1h-51zM233,250h46v1h-46zM450,250h51v1h-51zM11,251h50v1h-50zM233,251h46v1h-46zM450,251h51v1h-51zM11,252h50v1h-50zM233,252h46v1h-46zM451,252h50v1h-50zM11,253h50v1h-50zM233,253h46v1h-46zM451,253h50v1h-50zM11,254h50v1h-50zM233,254h46v1h-46zM451,254h50v1h-50zM11,255h50v1h-50zM234,255h44v1h-44zM451,255h50v1h-50zM11,256h50v1h-50zM234,256h44v1h-44zM451,256h50v1h-50zM11,257h50v1h-50zM234,257h44v1h-44zM451,257h50v1h-50zM11,258h50v1h-50zM234,258h44v1h-44zM451,258h50v1h-50zM11,259h50v1h-50zM234,259h44v1h-44zM451,259h50v1h-50zM11,260h50v1h-50zM234,260h44v1h-44zM450,260h51v1h-51zM11,261h51v1h-51zM234,261h44v1h-44zM450,261h51v1h-51zM11,262h51v1h-51zM234,262h44v1h-44zM450,262h51v1h-51zM11,263h51v1h-51zM234,263h44v1h-44zM450,263h51v1h-51zM11,264h51v1h-51zM234,264h44v1h-44zM450,264h51v1h-51zM11,265h51v1h-51zM234,265h44v1h-44zM450,265h51v1h-51zM11,266h51v1h-51zM234,266h44v1h-44zM450,266h51v1h-51zM11,267h51v1h-51zM234,267h44v1h-44zM450,267h51v1h-51zM11,268h51v1h-51zM234,268h44v1h-44zM450,268h51v1h-51zM11,269h51v1h-51zM234,269h44v1h-44zM450,269h51v1h-51zM11,270h51v1h-51zM234,270h44v1h-44zM450,270h51v1h-51zM11,271h51v1h-51zM234,271h44v1h-44zM450,271h51v1h-51zM11,272h51v1h-51zM234,272h44v1h-44zM450,272h51v1h-51zM11,273h51v1h-51zM234,273h44v1h-44zM450,273h51v1h-51zM11,274h51v1h-51zM234,274h44v1h-44zM450,274h51v1h-51zM11,275h51v1h-51zM234,275h44v1h-44zM450,275h51v1h-51zM11,276h51v1h-51zM234,276h44v1h-44zM450,276h51v1h-51zM12,277h51v1h-51zM234,277h44v1h-44zM449,277h51v1h-51zM12,278h51v1h-51zM235,278h42v1h-42zM449,278h51v1h-51zM12,279h51v1h-51zM235,279h42v1h-42zM449,279h51v1h-51zM12,280h51v1h-51zM235,280h42v1h-42zM449,280h51v1h-51zM12,281h51v1h-51zM235,281h42v1h-42zM449,281h51v1h-51zM12,282h51v1h-51zM235,282h42v1h-42zM449,282h51v1h-51zM12,283h51v1h-51zM235,283h42v1h-42zM449,283h51v1h-51zM12,284h51v1h-51zM235,284h42v1h-42zM449,284h51v1h-51zM12,285h52v1h-52zM235,285h42v1h-42zM448,285h52v1h-52zM12,286h52v1h-52zM235,286h42v1h-42zM448,286h51v1h-51zM13,287h51v1h-51zM235,287h42v1h-42zM448,287h51v1h-51zM13,288h51v1h-51zM235,288h42v1h-42zM448,288h51v1h-51zM13,289h51v1h-51zM235,289h42v1h-42zM448,289h51v1h-51zM13,290h51v1h-51zM235,290h42v1h-42zM447,290h52v1h-52zM13,291h52v1h-52zM235,291h42v1h-42zM447,291h52v1h-52zM13,292h52v1h-52zM235,292h42v1h-42zM447,292h52v1h-52zM13,293h52v1h-52zM235,293h42v1h-42zM447,293h52v1h-52zM14,294h51v1h-51zM235,294h42v1h-42zM447,294h51v1h-51zM14,295h51v1h-51zM235,295h42v1h-42zM447,295h51v1h-51zM14,296h52v1h-52zM235,296h42v1h-42zM446,296h52v1h-52zM14,297h52v1h-52zM235,297h42v1h-42zM446,297h52v1h-52zM14,298h52v1h-52zM235,298h42v1h-42zM446,298h52v1h-52zM14,299h52v1h-52zM235,299h42v1h-42zM446,299h52v1h-52zM15,300h52v1h-52zM235,300h42v1h-42zM445,300h52v1h-52zM15,301h52v1h-52zM236,301h40v1h-40zM445,301h52v1h-52zM15,302h52v1h-52zM236,302h40v1h-40zM445,302h52v1h-52zM15,303h52v1h-52zM236,303h40v1h-40zM445,303h52v1h-52zM15,304h52v1h-52zM236,304h40v1h-40zM444,304h53v1h-53zM16,305h52v1h-52zM236,305h40v1h-40zM444,305h52v1h-52zM16,306h52v1h-52zM236,306h40v1h-40zM444,306h52v1h-52zM16,307h52v1h-52zM236,307h40v1h-40zM444,307h52v1h-52zM16,308h53v1h-53zM236,308h40v1h-40zM443,308h53v1h-53zM16,309h53v1h-53zM236,309h40v1h-40zM443,309h52v1h-52zM17,310h52v1h-52zM236,310h40v1h-40zM443,310h52v1h-52zM17,311h52v1h-52zM236,311h40v1h-40zM443,311h52v1h-52zM17,312h53v1h-53zM236,312h40v1h-40zM442,312h53v1h-53zM17,313h53v1h-53zM236,313h40v1h-40zM442,313h53v1h-53zM18,314h52v1h-52zM236,314h40v1h-40zM442,314h52v1h-52zM18,315h53v1h-53zM236,315h40v1h-40zM441,315h53v1h-53zM18,316h53v1h-53zM236,316h40v1h-40zM441,316h53v1h-53zM18,317h53v1h-53zM236,317h40v1h-40zM441,317h53v1h-53zM19,318h53v1h-53zM236,318h40v1h-40zM440,318h53v1h-53zM19,319h53v1h-53zM236,319h40v1h-40zM440,319h53v1h-53zM19,320h53v1h-53zM236,320h40v1h-40zM440,320h53v1h-53zM20,321h53v1h-53zM237,321h38v1h-38zM439,321h53v1h-53zM20,322h53v1h-53zM237,322h38v1h-38zM439,322h53v1h-53zM20,323h53v1h-53zM238,323h36v1h-36zM439,323h53v1h-53zM20,324h54v1h-54zM238,324h36v1h-36zM438,324h54v1h-54zM21,325h53v1h-53zM239,325h34v1h-34zM438,325h53v1h-53zM21,326h54v1h-54zM241,326h30v1h-30zM437,326h54v1h-54zM21,327h54v1h-54zM437,327h54v1h-54zM22,328h53v1h-53zM437,328h53v1h-53zM22,329h54v1h-54zM436,329h54v1h-54zM22,330h54v1h-54zM436,330h54v1h-54zM22,331h55v1h-55zM435,331h54v1h-54zM23,332h54v1h-54zM435,332h54v1h-54zM23,333h55v1h-55zM434,333h55v1h-55zM23,334h55v1h-55zM434,334h54v1h-54zM24,335h54v1h-54zM434,335h54v1h-54zM24,336h55v1h-55zM433,336h55v1h-55zM25,337h54v1h-54zM433,337h54v1h-54zM25,338h55v1h-55zM432,338h55v1h-55zM25,339h55v1h-55zM251,339h10v1h-10zM432,339h55v1h-55zM26,340h55v1h-55zM248,340h16v1h-16zM431,340h55v1h-55zM26,341h55v1h-55zM245,341h22v1h-22zM431,341h55v1h-55zM26,342h56v1h-56zM244,342h24v1h-24zM430,342h56v1h-56zM27,343h55v1h-55zM242,343h28v1h-28zM430,343h55v1h-55zM27,344h56v1h-56zM241,344h30v1h-30zM429,344h56v1h-56zM28,345h55v1h-55zM240,345h32v1h-32zM429,345h55v1h-55zM28,346h56v1h-56zM239,346h34v1h-34zM428,346h56v1h-56zM28,347h56v1h-56zM238,347h36v1h-36zM428,347h56v1h-56zM29,348h56v1h-56zM237,348h38v1h-38zM427,348h56v1h-56zM29,349h56v1h-56zM237,349h38v1h-38zM427,349h56v1h-56zM30,350h56v1h-56zM236,350h40v1h-40zM426,350h56v1h-56zM30,351h57v1h-57zM235,351h42v1h-42zM425,351h57v1h-57zM30,352h57v1h-57zM235,352h42v1h-42zM425,352h57v1h-57zM31,353h57v1h-57zM235,353h42v1h-42zM424,353h57v1h-57zM31,354h57v1h-57zM234,354h44v1h-44zM424,354h57v1h-57zM32,355h57v1h-57zM234,355h44v1h-44zM423,355h57v1h-57zM32,356h57v1h-57zM234,356h44v1h-44zM423,356h57v1h-57zM33,357h57v1h-57zM233,357h46v1h-46zM422,357h57v1h-57zM33,358h58v1h-58zM233,358h46v1h-46zM421,358h58v1h-58zM34,359h57v1h-57zM233,359h46v1h-46zM421,359h57v1h-57zM34,360h58v1h-58zM233,360h46v1h-46zM420,360h58v1h-58zM34,361h59v1h-59zM233,361h46v1h-46zM419,361h59v1h-59zM35,362h58v1h-58zM233,362h46v1h-46zM419,362h58v1h-58zM35,363h59v1h-59zM233,363h46v1h-46zM418,363h59v1h-59zM36,364h58v1h-58zM233,364h46v1h-46zM417,364h59v1h-59zM36,365h59v1h-59zM233,365h46v1h-46zM417,365h59v1h-59zM37,366h59v1h-59zM233,366h46v1h-46zM416,366h59v1h-59zM37,367h60v1h-60zM234,367h44v1h-44zM415,367h60v1h-60zM38,368h59v1h-59zM234,368h44v1h-44zM415,368h59v1h-59zM38,369h60v1h-60zM234,369h44v1h-44zM414,369h60v1h-60zM39,370h60v1h-60zM234,370h44v1h-44zM413,370h60v1h-60zM39,371h60v1h-60zM235,371h42v1h-42zM413,371h59v1h-59zM40,372h60v1h-60zM235,372h42v1h-42zM412,372h60v1h-60zM41,373h60v1h-60zM236,373h40v1h-40zM411,373h60v1h-60zM41,374h61v1h-61zM237,374h38v1h-38zM410,374h61v1h-61zM42,375h61v1h-61zM237,375h38v1h-38zM409,375h61v1h-61zM42,376h61v1h-61zM238,376h36v1h-36zM409,376h61v1h-61zM43,377h61v1h-61zM239,377h34v1h-34zM408,377h61v1h-61zM43,378h62v1h-62zM240,378h32v1h-32zM407,378h62v1h-62zM44,379h62v1h-62zM241,379h30v1h-30zM406,379h62v1h-62zM45,380h62v1h-62zM242,380h28v1h-28zM405,380h62v1h-62zM45,381h62v1h-62zM244,381h24v1h-24zM405,381h62v1h-62zM46,382h62v1h-62zM245,382h22v1h-22zM404,382h62v1h-62zM46,383h63v1h-63zM247,383h18v1h-18zM403,383h63v1h-63zM47,384h63v1h-63zM251,384h10v1h-10zM402,384h63v1h-63zM48,385h63v1h-63zM401,385h63v1h-63zM48,386h64v1h-64zM400,386h64v1h-64zM49,387h64v1h-64zM399,387h64v1h-64zM50,388h64v1h-64zM398,388h64v1h-64zM50,389h65v1h-65zM397,389h65v1h-65zM51,390h65v1h-65zM396,390h65v1h-65zM51,391h65v1h-65zM396,391h65v1h-65zM52,392h65v1h-65zM395,392h65v1h-65zM53,393h65v1h-65zM394,393h65v1h-65zM53,394h66v1h-66zM393,394h66v1h-66zM54,395h66v1h-66zM392,395h66v1h-66zM55,396h67v1h-67zM390,396h67v1h-67zM56,397h67v1h-67zM389,397h67v1h-67zM56,398h68v1h-68zM388,398h68v1h-68zM57,399h68v1h-68zM387,399h68v1h-68zM58,400h68v1h-68zM386,400h68v1h-68zM58,401h69v1h-69zM385,401h69v1h-69zM59,402h69v1h-69zM384,402h69v1h-69zM60,403h69v1h-69zM383,403h69v1h-69zM61,404h69v1h-69zM382,404h69v1h-69zM62,405h70v1h-70zM380,405h70v1h-70zM62,406h71v1h-71zM379,406h71v1h-71zM63,407h71v1h-71zM378,407h71v1h-71zM64,408h71v1h-71zM377,408h71v1h-71zM65,409h72v1h-72zM375,409h72v1h-72zM65,410h73v1h-73zM374,410h73v1h-73zM66,411h73v1h-73zM373,411h73v1h-73zM67,412h73v1h-73zM372,412h73v1h-73zM68,413h74v1h-74zM370,413h74v1h-74zM69,414h74v1h-74zM369,414h74v1h-74zM70,415h75v1h-75zM367,415h75v1h-75zM71,416h75v1h-75zM366,416h75v1h-75zM71,417h77v1h-77zM364,417h77v1h-77zM72,418h77v1h-77zM363,418h77v1h-77zM73,419h78v1h-78zM361,419h78v1h-78zM74,420h78v1h-78zM360,420h78v1h-78zM75,421h79v1h-79zM358,421h79v1h-79zM76,422h79v1h-79zM357,422h79v1h-79zM77,423h80v1h-80zM355,423h80v1h-80zM78,424h81v1h-81zM353,424h81v1h-81zM79,425h82v1h-82zM352,425h81v1h-81zM80,426h82v1h-82zM350,426h82v1h-82zM81,427h83v1h-83zM348,427h83v1h-83zM82,428h84v1h-84zM346,428h84v1h-84zM83,429h85v1h-85zM344,429h85v1h-85zM84,430h86v1h-86zM342,430h86v1h-86zM85,431h87v1h-87zM340,431h87v1h-87zM86,432h88v1h-88zM338,432h88v1h-88zM87,433h89v1h-89zM336,433h89v1h-89zM88,434h91v1h-91zM333,434h91v1h-91zM89,435h92v1h-92zM331,435h92v1h-92zM90,436h93v1h-93zM329,436h93v1h-93zM91,437h95v1h-95zM326,437h95v1h-95zM92,438h96v1h-96zM324,438h96v1h-96zM93,439h98v1h-98zM321,439h98v1h-98zM94,440h100v1h-100zM318,440h100v1h-100zM96,441h101v1h-101zM315,441h102v1h-102zM97,442h103v1h-103zM312,442h103v1h-103zM98,443h106v1h-106zM308,443h106v1h-106zM99,444h108v1h-108zM304,444h109v1h-109zM100,445h112v1h-112zM300,445h112v1h-112zM101,446h115v1h-115zM296,446h115v1h-115zM103,447h119v1h-119zM291,447h118v1h-118zM104,448h123v1h-123zM285,448h123v1h-123zM105,449h131v1h-131zM277,449h130v1h-130zM106,450h146v1h-146zM260,450h145v1h-145zM108,451h296v1h-296zM109,452h294v1h-294zM110,453h292v1h-292zM112,454h288v1h-288zM113,455h286v1h-286zM115,456h282v1h-282zM116,457h280v1h-280zM117,458h278v1h-278zM119,459h274v1h-274zM120,460h272v1h-272zM122,461h268v1h-268zM124,462h264v1h-264zM125,463h262v1h-262zM127,464h258v1h-258zM128,465h256v1h-256zM130,466h252v1h-252zM132,467h248v1h-248zM133,468h246v1h-246zM135,469h242v1h-242zM137,470h238v1h-238zM139,471h234v1h-234zM141,472h230v1h-230zM142,473h228v1h-228zM144,474h224v1h-224zM146,475h220v1h-220zM148,476h216v1h-216zM150,477h212v1h-212zM153,478h206v1h-206zM155,479h202v1h-202zM157,480h198v1h-198zM159,481h194v1h-194zM162,482h189v1h-189zM164,483h184v1h-184zM167,484h178v1h-178zM169,485h174v1h-174zM172,486h168v1h-168zM175,487h162v1h-162zM178,488h156v1h-156zM181,489h150v1h-150zM184,490h144v1h-144zM187,491h138v1h-138zM191,492h130v1h-130zM194,493h124v1h-124zM198,494h116v1h-116zM203,495h107v1h-107zM207,496h98v1h-98zM212,497h88v1h-88zM218,498h76v1h-76zM226,499h60v1h-60zM235,500h42v1h-42z"/></svg>