<?xml version="1.0" encoding="UTF-8"?>
<svg xmlns="http://www.w3.org/2000/svg" viewBox="0 0 512 512" width="512" height="512"><path fill="#000" d="M79,64h354v1h-354zM77,65h358v1h-358zM75,66h362v1h-362zM73,67h366v1h-366zM72,68h368v1h-368zM71,69h370v1h-370zM70,70h372v1h-372zM69,71h374v1h-374zM68,72h376v1h-376zM67,73h378v1h-378zM67,74h378v1h-378zM66,75h380v1h-380zM66,76h380v1h-380zM65,77h382v1h-382zM65,78h382v1h-382zM64,79h384v1h-384zM64,80h384v1h-384zM64,81h384v1h-384zM64,82h384v1h-384zM64,83h384v1h-384zM64,84h384v1h-384zM64,85h384v1h-384zM64,86h384v1h-384zM64,87h384v1h-384zM64,88h384v1h-384zM64,89h384v1h-384zM64,90h384v1h-384zM65,91h382v1h-382zM65,92h382v1h-382zM65,93h382v1h-382zM66,94h380v1h-380zM66,95h380v1h-380zM67,96h378v1h-378zM67,97h378v1h-378zM68,98h376v1h-376zM69,99h374v1h-374zM70,100h372v1h-372zM71,101h370v1h-370zM72,102h368v1h-368zM74,103h365v1h-365zM75,104h362v1h-362zM77,105h358v1h-358zM81,106h350v1h-350zM209,149h222v1h-222zM205,150h230v1h-230zM203,151h234v1h-234zM202,152h237v1h-237zM200,153h240v1h-240zM199,154h242v1h-242zM198,155h244v1h-244zM197,156h246v1h-246zM196,157h248v1h-248zM195,158h250v1h-250zM195,159h250v1h-250zM194,160h252v1h-252zM194,161h252v1h-252zM193,162h254v1h-254zM193,163h254v1h-254zM193,164h254v1h-254zM192,165h256v1h-256zM192,166h256v1h-256zM192,167h256v1h-256zM192,168h256v1h-256zM192,169h256v1h-256zM192,170h256v1h-256zM192,171h256v1h-256zM192,172h256v1h-256zM192,173h256v1h-256zM192,174h256v1h-256zM192,175h256v1h-256zM192,176h256v1h-256zM193,177h254v1h-254zM193,178h254v1h-254zM194,179h252v1h-252zM194,180h252v1h-252zM195,181h250v1h-250zM195,182h250v1h-250zM196,183h248v1h-248zM197,184h246v1h-246zM198,185h244v1h-244zM199,186h242v1h-242zM200,187h240v1h-240zM201,188h238v1h-238zM203,189h234v1h-234zM205,190h230v1h-230zM207,191h226v1h-226zM82,234h348v1h-348zM78,235h356v1h-356zM76,236h360v1h-360zM74,237h364v1h-364zM73,238h366v1h-366zM71,239h370v1h-370zM70,240h372v1h-372zM69,241h374v1h-374zM68,242h376v1h-376zM68,243h376v1h-376zM67,244h378v1h-378zM66,245h380v1h-380zM66,246h380v1h-380zM65,247h382v1h-382zM65,248h382v1h-382zM65,249h382v1h-382zM64,250h384v1h-384zM64,251h384v1h-384zM64,252h384v1h-384zM64,253h384v1h-384zM64,254h384v1h-384zM64,255h384v1h-384zM64,256h384v1h-384zM64,257h384v1h-384zM64,258h384v1h-384zM64,259h384v1h-384zM64,260h384v1h-384zM64,261h384v1h-384zM65,262h382v1h-382zM65,263h382v1h-382zM65,264h382v1h-382zM66,265h380v1h-380zM66,266h380v1h-380zM67,267h378v1h-378zM68,268h376v1h-376zM68,269h376v1h-376zM69,270h374v1h-374zM70,271h372v1h-372zM71,272h370v1h-370zM73,273h366v1h-366zM74,274h364v1h-364zM76,275h360v1h-360zM78,276h356v1h-356zM82,277h348v1h-348zM207,320h226v1h-226zM205,321h230v1h-230zM203,322h234v1h-234zM201,323h238v1h-238zM200,324h240v1h-240zM199,325h242v1h-242zM198,326h244v1h-244zM197,327h246v1h-246zM196,328h248v1h-248zM195,329h250v1h-250zM195,330h250v1h-250zM194,331h252v1h-252zM194,332h252v1h-252zM193,333h254v1h-254zM193,334h254v1h-254zM192,335h256v1h-256zM192,336h256v1h-256zM192,337h256v1h-256zM192,338h256v1h-256zM192,339h256v1h-256zM192,340h256v1h-256zM192,341h256v1h-256zM192,342h256v1h-256zM192,343h256v1h-256zM192,344h256v1h-256zM192,345h256v1h-256zM192,346h256v1h-256zM193,347h254v1h-254zM193,348h254v1h-254zM193,349h254v1h-254zM194,350h252v1h-252zM194,351h252v1h-252zM195,352h250v1h-250zM195,353h250v1h-250zM196,354h248v1h-248zM197,355h246v1h-246zM198,356h244v1h-244zM199,357h242v1h-242zM200,358h240v1h-240zM202,359h237v1h-237zM203,360h234v1h-234zM205,361h230v1h-230zM209,362h222v1h-222zM294,405h137v1h-137zM291,406h144v1h-144zM288,407h149v1h-149zM287,408h152v1h-152zM285,409h155v1h-155zM284,410h157v1h-157zM283,411h159v1h-159zM282,412h161v1h-161zM281,413h163v1h-163zM281,414h164v1h-164zM280,415h165v1h-165zM279,416h167v1h-167zM279,417h167v1h-167zM279,418h168v1h-168zM278,419h169v1h-169zM278,420h169v1h-169zM278,421h170v1h-170zM277,422h171v1h-171zM277,423h171v1h-171zM277,424h171v1h-171zM277,425h171v1h-171zM277,426h171v1h-171zM277,427h171v1h-171zM277,428h171v1h-171zM277,429h171v1h-171zM277,430h171v1h-171zM278,431h170v1h-170zM278,432h170v1h-170zM278,433h169v1h-169zM278,434h169v1h-169zM279,435h167v1h-167zM279,436h167v1h-167zM280,437h165v1h-165zM280,438h165v1h-165zM281,439h163v1h-163zM282,440h161v1h-161zM283,441h159v1h-159zM284,442h157v1h-157zM285,443h155v1h-155zM286,444h153v1h-153zM288,445h149v1h-149zM290,446h145v1h-145zM293,447h140v1h-140z"/></svg>