<?xml version="1.0" encoding="UTF-8"?>
<svg xmlns="http://www.w3.org/2000/svg" viewBox="0 0 512 512" width="512" height="512"><path fill="#000" d="M79,64h354v1h-354zM77,65h358v1h-358zM75,66h362v1h-362zM73,67h366v1h-366zM72,68h368v1h-368zM71,69h370v1h-370zM70,70h372v1h-372zM69,71h374v1h-374zM68,72h376v1h-376zM67,73h378v1h-378zM67,74h378v1h-378zM66,75h380v1h-380zM66,76h380v1h-380zM65,77h382v1h-382zM65,78h382v1h-382zM64,79h384v1h-384zM64,80h384v1h-384zM64,81h384v1h-384zM64,82h384v1h-384zM64,83h384v1h-384zM64,84h384v1h-384zM64,85h384v1h-384zM64,86h384v1h-384zM64,87h384v1h-384zM64,88h384v1h-384zM64,89h384v1h-384zM64,90h384v1h-384zM65,91h382v1h-382zM65,92h382v1h-382zM65,93h382v1h-382zM66,94h380v1h-380zM66,95h380v1h-380zM67,96h378v1h-378zM67,97h378v1h-378zM68,98h376v1h-376zM69,99h374v1h-374zM70,100h372v1h-372zM71,101h370v1h-370zM72,102h368v1h-368zM74,103h365v1h-365zM75,104h362v1h-362zM77,105h358v1h-358zM81,106h350v1h-350zM81,149h222v1h-222zM77,150h230v1h-230zM75,151h234v1h-234zM74,152h237v1h-237zM72,153h240v1h-240zM71,154h242v1h-242zM70,155h244v1h-244zM69,156h246v1h-246zM68,157h248v1h-248zM67,158h250v1h-250zM67,159h250v1h-250zM66,160h252v1h-252zM66,161h252v1h-252zM65,162h254v1h-254zM65,163h254v1h-254zM65,164h254v1h-254zM64,165h256v1h-256zM64,166h256v1h-256zM64,167h256v1h-256zM64,168h256v1h-256zM64,169h256v1h-256zM64,170h256v1h-256zM64,171h256v1h-256zM64,172h256v1h-256zM64,173h256v1h-256zM64,174h256v1h-256zM64,175h256v1h-256zM64,176h256v1h-256zM65,177h254v1h-254zM65,178h254v1h-254zM66,179h252v1h-252zM66,180h252v1h-252zM67,181h250v1h-250zM67,182h250v1h-250zM68,183h248v1h-248zM69,184h246v1h-246zM70,185h244v1h-244zM71,186h242v1h-242zM72,187h240v1h-240zM73,188h238v1h-238zM75,189h234v1h-234zM77,190h230v1h-230zM79,191h226v1h-226zM82,234h348v1h-348zM78,235h356v1h-356zM76,236h360v1h-360zM74,237h364v1h-364zM73,238h366v1h-366zM71,239h370v1h-370zM70,240h372v1h-372zM69,241h374v1h-374zM68,242h376v1h-376zM68,243h376v1h-376zM67,244h378v1h-378zM66,245h380v1h-380zM66,246h380v1h-380zM65,247h382v1h-382zM65,248h382v1h-382zM65,249h382v1h-382zM64,250h384v1h-384zM64,251h384v1h-384zM64,252h384v1h-384zM64,253h384v1h-384zM64,254h384v1h-384zM64,255h384v1h-384zM64,256h384v1h-384zM64,257h384v1h-384zM64,258h384v1h-384zM64,259h384v1h-384zM64,260h384v1h-384zM64,261h384v1h-384zM65,262h382v1h-382zM65,263h382v1h-382zM65,264h382v1h-382zM66,265h380v1h-380zM66,266h380v1h-380zM67,267h378v1h-378zM68,268h376v1h-376zM68,269h376v1h-376zM69,270h374v1h-374zM70,271h372v1h-372zM71,272h370v1h-370zM73,273h366v1h-366zM74,274h364v1h-364zM76,275h360v1h-360zM78,276h356v1h-356zM82,277h348v1h-348zM79,320h226v1h-226zM77,321h230v1h-230zM75,322h234v1h-234zM73,323h238v1h-238zM72,324h240v1h-240zM71,325h242v1h-242zM70,326h244v1h-244zM69,327h246v1h-246zM68,328h248v1h-248zM67,329h250v1h-250zM67,330h250v1h-250zM66,331h252v1h-252zM66,332h252v1h-252zM65,333h254v1h-254zM65,334h254v1h-254zM64,335h256v1h-256zM64,336h256v1h-256zM64,337h256v1h-256zM64,338h256v1h-256zM64,339h256v1h-256zM64,340h256v1h-256zM64,341h256v1h-256zM64,342h256v1h-256zM64,343h256v1h-256zM64,344h256v1h-256zM64,345h256v1h-256zM64,346h256v1h-256zM65,347h254v1h-254zM65,348h254v1h-254zM65,349h254v1h-254zM66,350h252v1h-252zM66,351h252v1h-252zM67,352h250v1h-250zM67,353h250v1h-250zM68,354h248v1h-248zM69,355h246v1h-246zM70,356h244v1h-244zM71,357h242v1h-242zM72,358h240v1h-240zM74,359h237v1h-237zM75,360h234v1h-234zM77,361h230v1h-230zM81,362h222v1h-222zM81,405h137v1h-137zM77,406h144v1h-144zM75,407h148v1h-148zM74,408h151v1h-151zM72,409h155v1h-155zM71,410h157v1h-157zM70,411h159v1h-159zM69,412h161v1h-161zM68,413h163v1h-163zM67,414h164v1h-164zM67,415h165v1h-165zM66,416h166v1h-166zM66,417h167v1h-167zM65,418h168v1h-168zM65,419h169v1h-169zM65,420h169v1h-169zM64,421h170v1h-170zM64,422h171v1h-171zM64,423h171v1h-171zM64,424h171v1h-171zM64,425h171v1h-171zM64,426h171v1h-171zM64,427h171v1h-171zM64,428h171v1h-171zM64,429h171v1h-171zM64,430h171v1h-171zM64,431h170v1h-170zM64,432h170v1h-170zM65,433h169v1h-169zM65,434h169v1h-169zM66,435h167v1h-167zM66,436h167v1h-167zM67,437h165v1h-165zM67,438h164v1h-164zM68,439h163v1h-163zM69,440h161v1h-161zM70,441h159v1h-159zM71,442h157v1h-157zM72,443h155v1h-155zM73,444h153v1h-153zM75,445h149v1h-149zM77,446h145v1h-145zM79,447h140v1h-140z"/></svg>