<?xml version="1.0" encoding="UTF-8"?>
<svg xmlns="http://www.w3.org/2000/svg" viewBox="0 0 512 512" width="512" height="512"><path fill="#000" d="M78,64h356v1h-356zM76,65h360v1h-360zM74,66h364v1h-364zM72,67h367v1h-367zM71,68h370v1h-370zM70,69h372v1h-372zM69,70h374v1h-374zM68,71h376v1h-376zM67,72h377v1h-377zM67,73h378v1h-378zM66,74h380v1h-380zM66,75h380v1h-380zM65,76h382v1h-382zM65,77h382v1h-382zM64,78h384v1h-384zM64,79h384v1h-384zM64,80h384v1h-384zM64,81h384v1h-384zM64,82h384v1h-384zM64,83h384v1h-384zM64,84h384v1h-384zM64,85h384v1h-384zM64,86h384v1h-384zM64,87h384v1h-384zM64,88h384v1h-384zM64,89h384v1h-384zM64,90h384v1h-384zM64,91h384v1h-384zM65,92h382v1h-382zM65,93h382v1h-382zM65,94h382v1h-382zM66,95h380v1h-380zM66,96h380v1h-380zM67,97h378v1h-378zM68,98h376v1h-376zM69,99h374v1h-374zM69,100h374v1h-374zM70,101h372v1h-372zM72,102h368v1h-368zM73,103h366v1h-366zM75,104h362v1h-362zM77,105h358v1h-358zM80,106h352v1h-352zM80,149h352v1h-352zM77,150h358v1h-358zM75,151h362v1h-362zM73,152h366v1h-366zM72,153h368v1h-368zM70,154h372v1h-372zM69,155h374v1h-374zM69,156h374v1h-374zM68,157h376v1h-376zM67,158h378v1h-378zM66,159h380v1h-380zM66,160h380v1h-380zM65,161h382v1h-382zM65,162h382v1h-382zM65,163h382v1h-382zM64,164h384v1h-384zM64,165h384v1h-384zM64,166h384v1h-384zM64,167h384v1h-384zM64,168h384v1h-384zM64,169h384v1h-384zM64,170h384v1h-384zM64,171h384v1h-384zM64,172h384v1h-384zM64,173h384v1h-384zM64,174h384v1h-384zM64,175h384v1h-384zM64,176h384v1h-384zM65,177h383v1h-383zM65,178h382v1h-382zM65,179h382v1h-382zM66,180h380v1h-380zM66,181h380v1h-380zM67,182h378v1h-378zM68,183h376v1h-376zM68,184h376v1h-376zM69,185h374v1h-374zM70,186h372v1h-372zM71,187h370v1h-370zM73,188h366v1h-366zM74,189h364v1h-364zM76,190h360v1h-360zM79,191h354v1h-354zM81,234h350v1h-350zM78,235h356v1h-356zM75,236h362v1h-362zM73,237h366v1h-366zM72,238h368v1h-368zM71,239h370v1h-370zM70,240h372v1h-372zM69,241h374v1h-374zM68,242h376v1h-376zM67,243h378v1h-378zM67,244h378v1h-378zM66,245h380v1h-380zM66,246h380v1h-380zM65,247h382v1h-382zM65,248h382v1h-382zM64,249h384v1h-384zM64,250h384v1h-384zM64,251h384v1h-384zM64,252h384v1h-384zM64,253h384v1h-384zM64,254h384v1h-384zM64,255h384v1h-384zM64,256h384v1h-384zM64,257h384v1h-384zM64,258h384v1h-384zM64,259h384v1h-384zM64,260h384v1h-384zM64,261h384v1h-384zM64,262h384v1h-384zM65,263h382v1h-382zM65,264h382v1h-382zM66,265h380v1h-380zM66,266h380v1h-380zM67,267h378v1h-378zM67,268h378v1h-378zM68,269h376v1h-376zM69,270h374v1h-374zM70,271h372v1h-372zM71,272h370v1h-370zM72,273h368v1h-368zM74,274h364v1h-364zM75,275h362v1h-362zM78,276h356v1h-356zM81,277h350v1h-350zM78,320h356v1h-356zM76,321h360v1h-360zM74,322h364v1h-364zM72,323h367v1h-367zM71,324h370v1h-370zM70,325h372v1h-372zM69,326h374v1h-374zM68,327h376v1h-376zM67,328h377v1h-377zM67,329h378v1h-378zM66,330h380v1h-380zM66,331h380v1h-380zM65,332h382v1h-382zM65,333h382v1h-382zM64,334h384v1h-384zM64,335h384v1h-384zM64,336h384v1h-384zM64,337h384v1h-384zM64,338h384v1h-384zM64,339h384v1h-384zM64,340h384v1h-384zM64,341h384v1h-384zM64,342h384v1h-384zM64,343h384v1h-384zM64,344h384v1h-384zM64,345h384v1h-384zM64,346h384v1h-384zM64,347h384v1h-384zM65,348h382v1h-382zM65,349h382v1h-382zM65,350h382v1h-382zM66,351h380v1h-380zM66,352h380v1h-380zM67,353h378v1h-378zM68,354h376v1h-376zM69,355h374v1h-374zM69,356h374v1h-374zM70,357h372v1h-372zM72,358h368v1h-368zM73,359h366v1h-366zM75,360h362v1h-362zM77,361h358v1h-358zM80,362h352v1h-352zM80,405h352v1h-352zM77,406h358v1h-358zM75,407h362v1h-362zM73,408h366v1h-366zM72,409h368v1h-368zM70,410h372v1h-372zM69,411h374v1h-374zM69,412h374v1h-374zM68,413h376v1h-376zM67,414h378v1h-378zM66,415h380v1h-380zM66,416h380v1h-380zM65,417h382v1h-382zM65,418h382v1h-382zM65,419h382v1h-382zM64,420h384v1h-384zM64,421h384v1h-384zM64,422h384v1h-384zM64,423h384v1h-384zM64,424h384v1h-384zM64,425h384v1h-384zM64,426h384v1h-384zM64,427h384v1h-384zM64,428h384v1h-384zM64,429h384v1h-384zM64,430h384v1h-384zM64,431h384v1h-384zM64,432h384v1h-384zM65,433h383v1h-383zM65,434h382v1h-382zM65,435h382v1h-382zM66,436h380v1h-380zM66,437h380v1h-380zM67,438h378v1h-378zM68,439h376v1h-376zM68,440h376v1h-376zM69,441h374v1h-374zM70,442h372v1h-372zM71,443h370v1h-370zM73,444h366v1h-366zM74,445h364v1h-364zM76,446h360v1h-360zM79,447h354v1h-354z"/></svg>