<?xml version="1.0" encoding="UTF-8"?>
<svg xmlns="http://www.w3.org/2000/svg" viewBox="0 0 512 512" width="512" height="512"><path fill="#000" d="M79,64h354v1h-354zM77,65h358v1h-358zM75,66h362v1h-362zM73,67h366v1h-366zM72,68h368v1h-368zM71,69h370v1h-370zM70,70h372v1h-372zM69,71h374v1h-374zM68,72h376v1h-376zM67,73h378v1h-378zM67,74h378v1h-378zM66,75h380v1h-380zM66,76h380v1h-380zM65,77h382v1h-382zM65,78h382v1h-382zM64,79h384v1h-384zM64,80h384v1h-384zM64,81h384v1h-384zM64,82h384v1h-384zM64,83h384v1h-384zM64,84h384v1h-384zM64,85h384v1h-384zM64,86h384v1h-384zM64,87h384v1h-384zM64,88h384v1h-384zM64,89h384v1h-384zM64,90h384v1h-384zM65,91h382v1h-382zM65,92h382v1h-382zM65,93h382v1h-382zM66,94h380v1h-380zM66,95h380v1h-380zM67,96h378v1h-378zM67,97h378v1h-378zM68,98h376v1h-376zM69,99h374v1h-374zM70,100h372v1h-372zM71,101h370v1h-370zM72,102h368v1h-368zM74,103h365v1h-365zM75,104h362v1h-362zM77,105h358v1h-358zM81,106h350v1h-350zM145,149h222v1h-222zM141,150h230v1h-230zM139,151h234v1h-234zM138,152h237v1h-237zM136,153h240v1h-240zM135,154h242v1h-242zM134,155h244v1h-244zM133,156h246v1h-246zM132,157h248v1h-248zM131,158h250v1h-250zM131,159h250v1h-250zM130,160h252v1h-252zM130,161h252v1h-252zM129,162h254v1h-254zM129,163h254v1h-254zM129,164h254v1h-254zM128,165h256v1h-256zM128,166h256v1h-256zM128,167h256v1h-256zM128,168h256v1h-256zM128,169h256v1h-256zM128,170h256v1h-256zM128,171h256v1h-256zM128,172h256v1h-256zM128,173h256v1h-256zM128,174h256v1h-256zM128,175h256v1h-256zM128,176h256v1h-256zM129,177h254v1h-254zM129,178h254v1h-254zM130,179h252v1h-252zM130,180h252v1h-252zM131,181h250v1h-250zM131,182h250v1h-250zM132,183h248v1h-248zM133,184h246v1h-246zM134,185h244v1h-244zM135,186h242v1h-242zM136,187h240v1h-240zM137,188h238v1h-238zM139,189h234v1h-234zM141,190h230v1h-230zM143,191h226v1h-226zM82,234h348v1h-348zM78,235h356v1h-356zM76,236h360v1h-360zM74,237h364v1h-364zM73,238h366v1h-366zM71,239h370v1h-370zM70,240h372v1h-372zM69,241h374v1h-374zM68,242h376v1h-376zM68,243h376v1h-376zM67,244h378v1h-378zM66,245h380v1h-380zM66,246h380v1h-380zM65,247h382v1h-382zM65,248h382v1h-382zM65,249h382v1h-382zM64,250h384v1h-384zM64,251h384v1h-384zM64,252h384v1h-384zM64,253h384v1h-384zM64,254h384v1h-384zM64,255h384v1h-384zM64,256h384v1h-384zM64,257h384v1h-384zM64,258h384v1h-384zM64,259h384v1h-384zM64,260h384v1h-384zM64,261h384v1h-384zM65,262h382v1h-382zM65,263h382v1h-382zM65,264h382v1h-382zM66,265h380v1h-380zM66,266h380v1h-380zM67,267h378v1h-378zM68,268h376v1h-376zM68,269h376v1h-376zM69,270h374v1h-374zM70,271h372v1h-372zM71,272h370v1h-370zM73,273h366v1h-366zM74,274h364v1h-364zM76,275h360v1h-360zM78,276h356v1h-356zM82,277h348v1h-348zM143,320h226v1h-226zM141,321h230v1h-230zM139,322h234v1h-234zM137,323h238v1h-238zM136,324h240v1h-240zM135,325h242v1h-242zM134,326h244v1h-244zM133,327h246v1h-246zM132,328h248v1h-248zM131,329h250v1h-250zM131,330h250v1h-250zM130,331h252v1h-252zM130,332h252v1h-252zM129,333h254v1h-254zM129,334h254v1h-254zM128,335h256v1h-256zM128,336h256v1h-256zM128,337h256v1h-256zM128,338h256v1h-256zM128,339h256v1h-256zM128,340h256v1h-256zM128,341h256v1h-256zM128,342h256v1h-256zM128,343h256v1h-256zM128,344h256v1h-256zM128,345h256v1h-256zM128,346h256v1h-256zM129,347h254v1h-254zM129,348h254v1h-254zM129,349h254v1h-254zM130,350h252v1h-252zM130,351h252v1h-252zM131,352h250v1h-250zM131,353h250v1h-250zM132,354h248v1h-248zM133,355h246v1h-246zM134,356h244v1h-244zM135,357h242v1h-242zM136,358h240v1h-240zM138,359h237v1h-237zM139,360h234v1h-234zM141,361h230v1h-230zM145,362h222v1h-222zM187,405h138v1h-138zM184,406h144v1h-144zM182,407h148v1h-148zM180,408h152v1h-152zM179,409h154v1h-154zM178,410h156v1h-156zM176,411h160v1h-160zM176,412h160v1h-160zM175,413h162v1h-162zM174,414h164v1h-164zM173,415h166v1h-166zM173,416h166v1h-166zM172,417h168v1h-168zM172,418h168v1h-168zM172,419h168v1h-168zM171,420h170v1h-170zM171,421h170v1h-170zM171,422h170v1h-170zM171,423h170v1h-170zM170,424h172v1h-172zM170,425h172v1h-172zM170,426h172v1h-172zM170,427h172v1h-172zM170,428h172v1h-172zM170,429h171v1h-171zM171,430h170v1h-170zM171,431h170v1h-170zM171,432h170v1h-170zM171,433h170v1h-170zM172,434h168v1h-168zM172,435h168v1h-168zM173,436h166v1h-166zM173,437h166v1h-166zM174,438h164v1h-164zM175,439h162v1h-162zM175,440h162v1h-162zM176,441h160v1h-160zM177,442h158v1h-158zM178,443h156v1h-156zM180,444h152v1h-152zM181,445h150v1h-150zM183,446h146v1h-146zM186,447h140v1h-140z"/></svg>