<?xml version="1.0" encoding="UTF-8"?>
<svg xmlns="http://www.w3.org/2000/svg" viewBox="0 0 512 512" width="512" height="512"><path fill="#000" d="M98,16h61v1h-61zM354,16h61v1h-61zM83,17h90v1h-90zM339,17h90v1h-90zM72,18h113v1h-113zM328,18h113v1h-113zM65,19h126v1h-126zM321,19h126v1h-126zM61,20h134v1h-134zM317,20h134v1h-134zM58,21h140v1h-140zM314,21h140v1h-140zM55,22h146v1h-146zM311,22h146v1h-146zM53,23h150v1h-150zM309,23h150v1h-150zM51,24h154v1h-154zM307,24h154v1h-154zM49,25h158v1h-158zM305,25h158v1h-158zM47,26h162v1h-162zM303,26h162v1h-162zM45,27h166v1h-166zM301,27h166v1h-166zM44,28h168v1h-168zM300,28h168v1h-168zM42,29h172v1h-172zM298,29h172v1h-172zM41,30h174v1h-174zM297,30h174v1h-174zM40,31h176v1h-176zM296,31h176v1h-176zM39,32h179v1h-179zM295,32h179v1h-179zM37,33h182v1h-182zM293,33h182v1h-182zM36,34h184v1h-184zM292,34h184v1h-184zM35,35h186v1h-186zM291,35h186v1h-186zM34,36h188v1h-188zM290,36h188v1h-188zM33,37h190v1h-190zM289,37h190v1h-190zM32,38h192v1h-192zM288,38h192v1h-192zM31,39h194v1h-194zM287,39h194v1h-194zM31,40h195v1h-195zM287,40h195v1h-195zM30,41h196v1h-196zM286,41h196v1h-196zM29,42h198v1h-198zM285,42h198v1h-198zM28,43h200v1h-200zM284,43h200v1h-200zM27,44h202v1h-202zM283,44h202v1h-202zM27,45h202v1h-202zM283,45h202v1h-202zM26,46h204v1h-204zM282,46h204v1h-204zM25,47h206v1h-206zM281,47h206v1h-206zM25,48h206v1h-206zM281,48h206v1h-206zM24,49h208v1h-208zM280,49h208v1h-208zM24,50h208v1h-208zM280,50h208v1h-208zM23,51h210v1h-210zM279,51h210v1h-210zM23,52h210v1h-210zM279,52h210v1h-210zM22,53h212v1h-212zM278,53h212v1h-212zM22,54h212v1h-212zM278,54h212v1h-212zM21,55h214v1h-214zM277,55h214v1h-214zM21,56h214v1h-214zM277,56h214v1h-214zM20,57h216v1h-216zM276,57h216v1h-216zM20,58h216v1h-216zM276,58h216v1h-216zM20,59h216v1h-216zM276,59h216v1h-216zM19,60h218v1h-218zM275,60h218v1h-218zM19,61h218v1h-218zM275,61h218v1h-218zM19,62h218v1h-218zM275,62h218v1h-218zM18,63h220v1h-220zM274,63h220v1h-220zM18,64h220v1h-220zM274,64h220v1h-220zM18,65h220v1h-220zM274,65h220v1h-220zM17,66h222v1h-222zM273,66h222v1h-222zM17,67h222v1h-222zM273,67h222v1h-222zM17,68h222v1h-222zM273,68h222v1h-222zM17,69h222v1h-222zM273,69h222v1h-222zM17,70h222v1h-222zM273,70h222v1h-222zM16,71h224v1h-224zM272,71h224v1h-224zM16,72h224v1h-224zM272,72h224v1h-224zM16,73h224v1h-224zM272,73h224v1h-224zM16,74h224v1h-224zM272,74h224v1h-224zM16,75h224v1h-224zM272,75h224v1h-224zM16,76h224v1h-224zM272,76h224v1h-224zM16,77h224v1h-224zM272,77h224v1h-224zM16,78h224v1h-224zM272,78h224v1h-224zM16,79h224v1h-224zM272,79h224v1h-224zM16,80h224v1h-224zM272,80h224v1h-224zM16,81h224v1h-224zM272,81h224v1h-224zM16,82h224v1h-224zM272,82h224v1h-224zM16,83h224v1h-224zM272,83h224v1h-224zM16,84h224v1h-224zM272,84h224v1h-224zM16,85h224v1h-224zM272,85h224v1h-224zM16,86h224v1h-224zM272,86h224v1h-224zM16,87h224v1h-224zM272,87h224v1h-224zM16,88h224v1h-224zM272,88h224v1h-224zM16,89h224v1h-224zM272,89h224v1h-224zM16,90h224v1h-224zM272,90h224v1h-224zM16,91h224v1h-224zM272,91h224v1h-224zM16,92h224v1h-224zM272,92h224v1h-224zM16,93h224v1h-224zM272,93h224v1h-224zM16,94h224v1h-224zM272,94h224v1h-224zM16,95h224v1h-224zM272,95h224v1h-224zM16,96h224v1h-224zM272,96h224v1h-224zM16,97h224v1h-224zM272,97h224v1h-224zM16,98h224v1h-224zM272,98h224v1h-224zM16,99h224v1h-224zM272,99h224v1h-224zM16,100h224v1h-224zM272,100h224v1h-224zM16,101h224v1h-224zM272,101h224v1h-224zM16,102h224v1h-224zM272,102h224v1h-224zM16,103h224v1h-224zM272,103h224v1h-224zM16,104h224v1h-224zM272,104h224v1h-224zM16,105h224v1h-224zM272,105h224v1h-224zM16,106h224v1h-224zM272,106h224v1h-224zM16,107h224v1h-224zM272,107h224v1h-224zM16,108h224v1h-224zM272,108h224v1h-224zM16,109h224v1h-224zM272,109h224v1h-224zM16,110h224v1h-224zM272,110h224v1h-224zM16,111h224v1h-224zM272,111h224v1h-224zM16,112h224v1h-224zM272,112h224v1h-224zM16,113h224v1h-224zM272,113h224v1h-224zM16,114h224v1h-224zM272,114h224v1h-224zM16,115h224v1h-224zM272,115h224v1h-224zM16,116h224v1h-224zM272,116h224v1h-224zM16,117h224v1h-224zM272,117h224v1h-224zM16,118h224v1h-224zM272,118h224v1h-224zM16,119h224v1h-224zM272,119h224v1h-224zM16,120h224v1h-224zM272,120h224v1h-224zM16,121h224v1h-224zM272,121h224v1h-224zM16,122h224v1h-224zM272,122h224v1h-224zM16,123h224v1h-224zM272,123h224v1h-224zM16,124h224v1h-224zM272,124h224v1h-224zM16,125h224v1h-224zM272,125h224v1h-224zM16,126h224v1h-224zM272,126h224v1h-224zM16,127h224v1h-224zM272,127h224v1h-224zM16,128h224v1h-224zM272,128h224v1h-224zM16,129h224v1h-224zM272,129h224v1h-224zM16,130h224v1h-224zM272,130h224v1h-224zM16,131h224v1h-224zM272,131h224v1h-224zM16,132h224v1h-224zM272,132h224v1h-224zM16,133h224v1h-224zM272,133h224v1h-224zM16,134h224v1h-224zM272,134h224v1h-224zM16,135h224v1h-224zM272,135h224v1h-224zM16,136h224v1h-224zM272,136h224v1h-224zM16,137h224v1h-224zM272,137h224v1h-224zM16,138h224v1h-224zM272,138h224v1h-224zM16,139h224v1h-224zM272,139h224v1h-224zM16,140h224v1h-224zM272,140h224v1h-224zM16,141h224v1h-224zM272,141h224v1h-224zM16,142h224v1h-224zM272,142h224v1h-224zM16,143h224v1h-224zM272,143h224v1h-224zM16,144h224v1h-224zM272,144h224v1h-224zM16,145h224v1h-224zM272,145h224v1h-224zM16,146h224v1h-224zM272,146h224v1h-224zM16,147h224v1h-224zM272,147h224v1h-224zM16,148h224v1h-224zM272,148h224v1h-224zM16,149h224v1h-224zM272,149h224v1h-224zM16,150h224v1h-224zM272,150h224v1h-224zM16,151h224v1h-224zM272,151h224v1h-224zM16,152h224v1h-224zM272,152h224v1h-224zM16,153h224v1h-224zM272,153h224v1h-224zM16,154h224v1h-224zM272,154h224v1h-224zM16,155h224v1h-224zM272,155h224v1h-224zM16,156h224v1h-224zM272,156h224v1h-224zM16,157h224v1h-224zM272,157h224v1h-224zM16,158h224v1h-224zM272,158h224v1h-224zM16,159h224v1h-224zM272,159h224v1h-224zM16,160h224v1h-224zM272,160h224v1h-224zM16,161h224v1h-224zM272,161h224v1h-224zM16,162h224v1h-224zM272,162h224v1h-224zM16,163h224v1h-224zM272,163h224v1h-224zM16,164h224v1h-224zM272,164h224v1h-224zM16,165h224v1h-224zM272,165h224v1h-224zM16,166h224v1h-224zM272,166h224v1h-224zM16,167h224v1h-224zM272,167h224v1h-224zM16,168h224v1h-224zM272,168h224v1h-224zM16,169h224v1h-224zM272,169h224v1h-224zM16,170h224v1h-224zM272,170h224v1h-224zM16,171h224v1h-224zM272,171h224v1h-224zM16,172h224v1h-224zM272,172h224v1h-224zM16,173h224v1h-224zM272,173h224v1h-224zM16,174h224v1h-224zM272,174h224v1h-224zM16,175h224v1h-224zM272,175h224v1h-224zM16,176h224v1h-224zM272,176h224v1h-224zM16,177h224v1h-224zM272,177h224v1h-224zM16,178h224v1h-224zM272,178h224v1h-224zM16,179h224v1h-224zM272,179h224v1h-224zM16,180h224v1h-224zM272,180h224v1h-224zM16,181h224v1h-224zM272,181h224v1h-224zM16,182h224v1h-224zM272,182h224v1h-224zM16,183h224v1h-224zM272,183h224v1h-224zM16,184h224v1h-224zM272,184h224v1h-224zM17,185h222v1h-222zM273,185h222v1h-222zM17,186h222v1h-222zM273,186h222v1h-222zM17,187h222v1h-222zM273,187h222v1h-222zM17,188h222v1h-222zM273,188h222v1h-222zM17,189h222v1h-222zM273,189h222v1h-222zM18,190h220v1h-220zM274,190h220v1h-220zM18,191h220v1h-220zM274,191h220v1h-220zM18,192h220v1h-220zM274,192h220v1h-220zM19,193h218v1h-218zM275,193h218v1h-218zM19,194h218v1h-218zM275,194h218v1h-218zM19,195h218v1h-218zM275,195h218v1h-218zM20,196h216v1h-216zM276,196h216v1h-216zM20,197h216v1h-216zM276,197h216v1h-216zM20,198h216v1h-216zM276,198h216v1h-216zM21,199h214v1h-214zM277,199h214v1h-214zM21,200h214v1h-214zM277,200h214v1h-214zM22,201h212v1h-212zM278,201h212v1h-212zM22,202h212v1h-212zM278,202h212v1h-212zM23,203h210v1h-210zM279,203h210v1h-210zM23,204h210v1h-210zM279,204h210v1h-210zM24,205h208v1h-208zM280,205h208v1h-208zM24,206h208v1h-208zM280,206h208v1h-208zM25,207h206v1h-206zM281,207h206v1h-206zM26,208h205v1h-205zM282,208h205v1h-205zM26,209h204v1h-204zM282,209h204v1h-204zM27,210h202v1h-202zM283,210h202v1h-202zM27,211h202v1h-202zM283,211h202v1h-202zM28,212h200v1h-200zM284,212h200v1h-200zM29,213h198v1h-198zM285,213h198v1h-198zM30,214h196v1h-196zM286,214h196v1h-196zM31,215h194v1h-194zM287,215h194v1h-194zM31,216h194v1h-194zM287,216h194v1h-194zM32,217h192v1h-192zM288,217h192v1h-192zM33,218h190v1h-190zM289,218h190v1h-190zM34,219h188v1h-188zM290,219h188v1h-188zM35,220h186v1h-186zM291,220h186v1h-186zM36,221h184v1h-184zM292,221h184v1h-184zM38,222h181v1h-181zM294,222h181v1h-181zM39,223h178v1h-178zM295,223h178v1h-178zM40,224h176v1h-176zM296,224h176v1h-176zM41,225h174v1h-174zM297,225h174v1h-174zM43,226h171v1h-171zM299,226h171v1h-171zM44,227h168v1h-168zM300,227h168v1h-168zM46,228h165v1h-165zM302,228h165v1h-165zM47,229h162v1h-162zM303,229h162v1h-162zM49,230h158v1h-158zM305,230h158v1h-158zM51,231h154v1h-154zM307,231h154v1h-154zM53,232h150v1h-150zM309,232h150v1h-150zM56,233h145v1h-145zM312,233h145v1h-145zM58,234h140v1h-140zM314,234h140v1h-140zM62,235h133v1h-133zM318,235h133v1h-133zM66,236h124v1h-124zM322,236h124v1h-124zM73,237h111v1h-111zM329,237h111v1h-111zM84,238h88v1h-88zM340,238h88v1h-88zM99,239h59v1h-59zM355,239h59v1h-59zM98,272h61v1h-61zM354,272h61v1h-61zM83,273h90v1h-90zM339,273h90v1h-90zM72,274h113v1h-113zM328,274h113v1h-113zM65,275h126v1h-126zM321,275h126v1h-126zM61,276h134v1h-134zM317,276h134v1h-134zM58,277h140v1h-140zM314,277h140v1h-140zM55,278h146v1h-146zM311,278h146v1h-146zM53,279h150v1h-150zM309,279h150v1h-150zM51,280h154v1h-154zM307,280h154v1h-154zM49,281h158v1h-158zM305,281h158v1h-158zM47,282h162v1h-162zM303,282h162v1h-162zM45,283h166v1h-166zM301,283h166v1h-166zM44,284h168v1h-168zM300,284h168v1h-168zM42,285h172v1h-172zM298,285h172v1h-172zM41,286h174v1h-174zM297,286h174v1h-174zM40,287h176v1h-176zM296,287h176v1h-176zM39,288h179v1h-179zM295,288h179v1h-179zM37,289h182v1h-182zM293,289h182v1h-182zM36,290h184v1h-184zM292,290h184v1h-184zM35,291h186v1h-186zM291,291h186v1h-186zM34,292h188v1h-188zM290,292h188v1h-188zM33,293h190v1h-190zM289,293h190v1h-190zM32,294h192v1h-192zM288,294h192v1h-192zM31,295h194v1h-194zM287,295h194v1h-194zM31,296h195v1h-195zM287,296h195v1h-195zM30,297h196v1h-196zM286,297h196v1h-196zM29,298h198v1h-198zM285,298h198v1h-198zM28,299h200v1h-200zM284,299h200v1h-200zM27,300h202v1h-202zM283,300h202v1h-202zM27,301h202v1h-202zM283,301h202v1h-202zM26,302h204v1h-204zM282,302h204v1h-204zM25,303h206v1h-206zM281,303h206v1h-206zM25,304h206v1h-206zM281,304h206v1h-206zM24,305h208v1h-208zM280,305h208v1h-208zM24,306h208v1h-208zM280,306h208v1h-208zM23,307h210v1h-210zM279,307h210v1h-210zM23,308h210v1h-210zM279,308h210v1h-210zM22,309h212v1h-212zM278,309h212v1h-212zM22,310h212v1h-212zM278,310h212v1h-212zM21,311h214v1h-214zM277,311h214v1h-214zM21,312h214v1h-214zM277,312h214v1h-214zM20,313h216v1h-216zM276,313h216v1h-216zM20,314h216v1h-216zM276,314h216v1h-216zM20,315h216v1h-216zM276,315h216v1h-216zM19,316h218v1h-218zM275,316h218v1h-218zM19,317h218v1h-218zM275,317h218v1h-218zM19,318h218v1h-218zM275,318h218v1h-218zM18,319h220v1h-220zM274,319h220v1h-220zM18,320h220v1h-220zM274,320h220v1h-220zM18,321h220v1h-220zM274,321h220v1h-220zM17,322h222v1h-222zM273,322h222v1h-222zM17,323h222v1h-222zM273,323h222v1h-222zM17,324h222v1h-222zM273,324h222v1h-222zM17,325h222v1h-222zM273,325h222v1h-222zM17,326h222v1h-222zM273,326h222v1h-222zM16,327h224v1h-224zM272,327h224v1h-224zM16,328h224v1h-224zM272,328h224v1h-224zM16,329h224v1h-224zM272,329h224v1h-224zM16,330h224v1h-224zM272,330h224v1h-224zM16,331h224v1h-224zM272,331h224v1h-224zM16,332h224v1h-224zM272,332h224v1h-224zM16,333h224v1h-224zM272,333h224v1h-224zM16,334h224v1h-224zM272,334h224v1h-224zM16,335h224v1h-224zM272,335h224v1h-224zM16,336h224v1h-224zM272,336h224v1h-224zM16,337h224v1h-224zM272,337h224v1h-224zM16,338h224v1h-224zM272,338h224v1h-224zM16,339h224v1h-224zM272,339h224v1h-224zM16,340h224v1h-224zM272,340h224v1h-224zM16,341h224v1h-224zM272,341h224v1h-224zM16,342h224v1h-224zM272,342h224v1h-224zM16,343h224v1h-224zM272,343h224v1h-224zM16,344h224v1h-224zM272,344h224v1h-224zM16,345h224v1h-224zM272,345h224v1h-224zM16,346h224v1h-224zM272,346h224v1h-224zM16,347h224v1h-224zM272,347h224v1h-224zM16,348h224v1h-224zM272,348h224v1h-224zM16,349h224v1h-224zM272,349h224v1h-224zM16,350h224v1h-224zM272,350h224v1h-224zM16,351h224v1h-224zM272,351h224v1h-224zM16,352h224v1h-224zM272,352h224v1h-224zM16,353h224v1h-224zM272,353h224v1h-224zM16,354h224v1h-224zM272,354h224v1h-224zM16,355h224v1h-224zM272,355h224v1h-224zM16,356h224v1h-224zM272,356h224v1h-224zM16,357h224v1h-224zM272,357h224v1h-224zM16,358h224v1h-224zM272,358h224v1h-224zM16,359h224v1h-224zM272,359h224v1h-224zM16,360h224v1h-224zM272,360h224v1h-224zM16,361h224v1h-224zM272,361h224v1h-224zM16,362h224v1h-224zM272,362h224v1h-224zM16,363h224v1h-224zM272,363h224v1h-224zM16,364h224v1h-224zM272,364h224v1h-224zM16,365h224v1h-224zM272,365h224v1h-224zM16,366h224v1h-224zM272,366h224v1h-224zM16,367h224v1h-224zM272,367h224v1h-224zM16,368h224v1h-224zM272,368h224v1h-224zM16,369h224v1h-224zM272,369h224v1h-224zM16,370h224v1h-224zM272,370h224v1h-224zM16,371h224v1h-224zM272,371h224v1h-224zM16,372h224v1h-224zM272,372h224v1h-224zM16,373h224v1h-224zM272,373h224v1h-224zM16,374h224v1h-224zM272,374h224v1h-224zM16,375h224v1h-224zM272,375h224v1h-224zM16,376h224v1h-224zM272,376h224v1h-224zM16,377h224v1h-224zM272,377h224v1h-224zM16,378h224v1h-224zM272,378h224v1h-224zM16,379h224v1h-224zM272,379h224v1h-224zM16,380h224v1h-224zM272,380h224v1h-224zM16,381h224v1h-224zM272,381h224v1h-224zM16,382h224v1h-224zM272,382h224v1h-224zM16,383h224v1h-224zM272,383h224v1h-224zM16,384h224v1h-224zM272,384h224v1h-224zM16,385h224v1h-224zM272,385h224v1h-224zM16,386h224v1h-224zM272,386h224v1h-224zM16,387h224v1h-224zM272,387h224v1h-224zM16,388h224v1h-224zM272,388h224v1h-224zM16,389h224v1h-224zM272,389h224v1h-224zM16,390h224v1h-224zM272,390h224v1h-224zM16,391h224v1h-224zM272,391h224v1h-224zM16,392h224v1h-224zM272,392h224v1h-224zM16,393h224v1h-224zM272,393h224v1h-224zM16,394h224v1h-224zM272,394h224v1h-224zM16,395h224v1h-224zM272,395h224v1h-224zM16,396h224v1h-224zM272,396h224v1h-224zM16,397h224v1h-224zM272,397h224v1h-224zM16,398h224v1h-224zM272,398h224v1h-224zM16,399h224v1h-224zM272,399h224v1h-224zM16,400h224v1h-224zM272,400h224v1h-224zM16,401h224v1h-224zM272,401h224v1h-224zM16,402h224v1h-224zM272,402h224v1h-224zM16,403h224v1h-224zM272,403h224v1h-224zM16,404h224v1h-224zM272,404h224v1h-224zM16,405h224v1h-224zM272,405h224v1h-224zM16,406h224v1h-224zM272,406h224v1h-224zM16,407h224v1h-224zM272,407h224v1h-224zM16,408h224v1h-224zM272,408h224v1h-224zM16,409h224v1h-224zM272,409h224v1h-224zM16,410h224v1h-224zM272,410h224v1h-224zM16,411h224v1h-224zM272,411h224v1h-224zM16,412h224v1h-224zM272,412h224v1h-224zM16,413h224v1h-224zM272,413h224v1h-224zM16,414h224v1h-224zM272,414h224v1h-224zM16,415h224v1h-224zM272,415h224v1h-224zM16,416h224v1h-224zM272,416h224v1h-224zM16,417h224v1h-224zM272,417h224v1h-224zM16,418h224v1h-224zM272,418h224v1h-224zM16,419h224v1h-224zM272,419h224v1h-224zM16,420h224v1h-224zM272,420h224v1h-224zM16,421h224v1h-224zM272,421h224v1h-224zM16,422h224v1h-224zM272,422h224v1h-224zM16,423h224v1h-224zM272,423h224v1h-224zM16,424h224v1h-224zM272,424h224v1h-224zM16,425h224v1h-224zM272,425h224v1h-224zM16,426h224v1h-224zM272,426h224v1h-224zM16,427h224v1h-224zM272,427h224v1h-224zM16,428h224v1h-224zM272,428h224v1h-224zM16,429h224v1h-224zM272,429h224v1h-224zM16,430h224v1h-224zM272,430h224v1h-224zM16,431h224v1h-224zM272,431h224v1h-224zM16,432h224v1h-224zM272,432h224v1h-224zM16,433h224v1h-224zM272,433h224v1h-224zM16,434h224v1h-224zM272,434h224v1h-224zM16,435h224v1h-224zM272,435h224v1h-224zM16,436h224v1h-224zM272,436h224v1h-224zM16,437h224v1h-224zM272,437h224v1h-224zM16,438h224v1h-224zM272,438h224v1h-224zM16,439h224v1h-224zM272,439h224v1h-224zM16,440h224v1h-224zM272,440h224v1h-224zM17,441h222v1h-222zM273,441h222v1h-222zM17,442h222v1h-222zM273,442h222v1h-222zM17,443h222v1h-222zM273,443h222v1h-222zM17,444h222v1h-222zM273,444h222v1h-222zM17,445h222v1h-222zM273,445h222v1h-222zM18,446h220v1h-220zM274,446h220v1h-220zM18,447h220v1h-220zM274,447h220v1h-220zM18,448h220v1h-220zM274,448h220v1h-220zM19,449h218v1h-218zM275,449h218v1h-218zM19,450h218v1h-218zM275,450h218v1h-218zM19,451h218v1h-218zM275,451h218v1h-218zM20,452h216v1h-216zM276,452h216v1h-216zM20,453h216v1h-216zM276,453h216v1h-216zM20,454h216v1h-216zM276,454h216v1h-216zM21,455h214v1h-214zM277,455h214v1h-214zM21,456h214v1h-214zM277,456h214v1h-214zM22,457h212v1h-212zM278,457h212v1h-212zM22,458h212v1h-212zM278,458h212v1h-212zM23,459h210v1h-210zM279,459h210v1h-210zM23,460h210v1h-210zM279,460h210v1h-210zM24,461h208v1h-208zM280,461h208v1h-208zM24,462h208v1h-208zM280,462h208v1h-208zM25,463h206v1h-206zM281,463h206v1h-206zM26,464h205v1h-205zM282,464h205v1h-205zM26,465h204v1h-204zM282,465h204v1h-204zM27,466h202v1h-202zM283,466h202v1h-202zM27,467h202v1h-202zM283,467h202v1h-202zM28,468h200v1h-200zM284,468h200v1h-200zM29,469h198v1h-198zM285,469h198v1h-198zM30,470h196v1h-196zM286,470h196v1h-196zM31,471h194v1h-194zM287,471h194v1h-194zM31,472h194v1h-194zM287,472h194v1h-194zM32,473h192v1h-192zM288,473h192v1h-192zM33,474h190v1h-190zM289,474h190v1h-190zM34,475h188v1h-188zM290,475h188v1h-188zM35,476h186v1h-186zM291,476h186v1h-186zM36,477h184v1h-184zM292,477h184v1h-184zM38,478h181v1h-181zM294,478h181v1h-181zM39,479h178v1h-178zM295,479h178v1h-178zM40,480h176v1h-176zM296,480h176v1h-176zM41,481h174v1h-174zM297,481h174v1h-174zM43,482h171v1h-171zM299,482h171v1h-171zM44,483h168v1h-168zM300,483h168v1h-168zM46,484h165v1h-165zM302,484h165v1h-165zM47,485h162v1h-162zM303,485h162v1h-162zM49,486h158v1h-158zM305,486h158v1h-158zM51,487h154v1h-154zM307,487h154v1h-154zM53,488h150v1h-150zM309,488h150v1h-150zM56,489h145v1h-145zM312,489h145v1h-145zM58,490h140v1h-140zM314,490h140v1h-140zM62,491h133v1h-133zM318,491h133v1h-133zM66,492h124v1h-124zM322,492h124v1h-124zM73,493h111v1h-111zM329,493h111v1h-111zM84,494h88v1h-88zM340,494h88v1h-88zM99,495h59v1h-59zM355,495h59v1h-59z"/></svg>