<?xml version="1.0" encoding="UTF-8"?>
<svg xmlns="http://www.w3.org/2000/svg" viewBox="0 0 512 512" width="512" height="512"><path fill="#000" d="M170,42h5v1h-5zM165,43h15v1h-15zM163,44h19v1h-19zM161,45h23v1h-23zM160,46h25v1h-25zM158,47h29v1h-29zM157,48h31v1h-31zM156,49h33v1h-33zM155,50h34v1h-34zM154,51h36v1h-36zM153,52h38v1h-38zM152,53h39v1h-39zM151,54h41v1h-41zM150,55h42v1h-42zM149,56h44v1h-44zM148,57h45v1h-45zM147,58h46v1h-46zM146,59h48v1h-48zM145,60h49v1h-49zM144,61h50v1h-50zM143,62h51v1h-51zM142,63h52v1h-52zM141,64h53v1h-53zM140,65h54v1h-54zM139,66h55v1h-55zM138,67h56v1h-56zM137,68h57v1h-57zM136,69h57v1h-57zM135,70h58v1h-58zM134,71h59v1h-59zM133,72h59v1h-59zM132,73h60v1h-60zM131,74h60v1h-60zM130,75h61v1h-61zM129,76h61v1h-61zM128,77h61v1h-61zM127,78h62v1h-62zM126,79h62v1h-62zM125,80h62v1h-62zM124,81h62v1h-62zM123,82h62v1h-62zM122,83h62v1h-62zM121,84h62v1h-62zM120,85h62v1h-62zM119,86h62v1h-62zM118,87h62v1h-62zM117,88h62v1h-62zM116,89h62v1h-62zM115,90h62v1h-62zM114,91h62v1h-62zM113,92h62v1h-62zM112,93h62v1h-62zM111,94h62v1h-62zM110,95h62v1h-62zM109,96h62v1h-62zM108,97h62v1h-62zM107,98h62v1h-62zM106,99h61v1h-61zM105,100h61v1h-61zM104,101h61v1h-61zM103,102h61v1h-61zM102,103h61v1h-61zM101,104h61v1h-61zM100,105h61v1h-61zM99,106h61v1h-61zM98,107h61v1h-61zM97,108h61v1h-61zM96,109h61v1h-61zM95,110h61v1h-61zM94,111h61v1h-61zM93,112h61v1h-61zM92,113h61v1h-61zM91,114h61v1h-61zM90,115h61v1h-61zM89,116h61v1h-61zM88,117h61v1h-61zM87,118h61v1h-61zM86,119h61v1h-61zM85,120h61v1h-61zM84,121h61v1h-61zM83,122h61v1h-61zM82,123h61v1h-61zM81,124h61v1h-61zM80,125h62v1h-62zM79,126h63v1h-63zM78,127h64v1h-64zM77,128h65v1h-65zM76,129h218v1h-218zM75,130h227v1h-227zM74,131h234v1h-234zM73,132h240v1h-240zM72,133h245v1h-245zM71,134h250v1h-250zM70,135h255v1h-255zM69,136h259v1h-259zM68,137h263v1h-263zM67,138h267v1h-267zM67,139h270v1h-270zM66,140h273v1h-273zM66,141h276v1h-276zM65,142h279v1h-279zM65,143h282v1h-282zM64,144h285v1h-285zM64,145h287v1h-287zM64,146h289v1h-289zM64,147h291v1h-291zM64,148h293v1h-293zM64,149h295v1h-295zM64,150h297v1h-297zM64,151h299v1h-299zM64,152h300v1h-300zM64,153h302v1h-302zM64,154h303v1h-303zM64,155h305v1h-305zM65,156h306v1h-306zM65,157h307v1h-307zM65,158h309v1h-309zM66,159h309v1h-309zM66,160h310v1h-310zM67,161h311v1h-311zM67,162h312v1h-312zM68,163h313v1h-313zM69,164h313v1h-313zM70,165h313v1h-313zM71,166h313v1h-313zM72,167h314v1h-314zM73,168h314v1h-314zM74,169h314v1h-314zM75,170h314v1h-314zM76,171h314v1h-314zM77,172h66v1h-66zM287,172h105v1h-105zM78,173h65v1h-65zM296,173h97v1h-97zM79,174h64v1h-64zM302,174h92v1h-92zM80,175h63v1h-63zM306,175h89v1h-89zM81,176h62v1h-62zM310,176h86v1h-86zM82,177h62v1h-62zM314,177h83v1h-83zM83,178h62v1h-62zM317,178h81v1h-81zM84,179h62v1h-62zM320,179h79v1h-79zM85,180h62v1h-62zM323,180h77v1h-77zM86,181h62v1h-62zM325,181h76v1h-76zM87,182h62v1h-62zM328,182h74v1h-74zM88,183h62v1h-62zM330,183h73v1h-73zM89,184h62v1h-62zM332,184h72v1h-72zM90,185h62v1h-62zM334,185h71v1h-71zM91,186h62v1h-62zM336,186h69v1h-69zM92,187h62v1h-62zM338,187h68v1h-68zM93,188h62v1h-62zM340,188h67v1h-67zM94,189h62v1h-62zM342,189h66v1h-66zM95,190h62v1h-62zM343,190h66v1h-66zM96,191h62v1h-62zM345,191h65v1h-65zM97,192h62v1h-62zM346,192h65v1h-65zM98,193h62v1h-62zM348,193h63v1h-63zM99,194h62v1h-62zM349,194h63v1h-63zM100,195h62v1h-62zM351,195h62v1h-62zM101,196h62v1h-62zM352,196h62v1h-62zM102,197h62v1h-62zM354,197h60v1h-60zM103,198h62v1h-62zM355,198h60v1h-60zM104,199h62v1h-62zM356,199h60v1h-60zM105,200h62v1h-62zM358,200h59v1h-59zM106,201h62v1h-62zM359,201h58v1h-58zM107,202h62v1h-62zM360,202h58v1h-58zM108,203h62v1h-62zM361,203h58v1h-58zM109,204h62v1h-62zM362,204h57v1h-57zM110,205h62v1h-62zM363,205h57v1h-57zM111,206h62v1h-62zM364,206h57v1h-57zM112,207h62v1h-62zM365,207h56v1h-56zM113,208h62v1h-62zM367,208h55v1h-55zM114,209h62v1h-62zM368,209h55v1h-55zM115,210h62v1h-62zM369,210h54v1h-54zM116,211h62v1h-62zM370,211h54v1h-54zM117,212h62v1h-62zM370,212h55v1h-55zM118,213h62v1h-62zM371,213h54v1h-54zM119,214h62v1h-62zM372,214h54v1h-54zM120,215h62v1h-62zM373,215h53v1h-53zM121,216h62v1h-62zM374,216h53v1h-53zM122,217h62v1h-62zM375,217h52v1h-52zM123,218h62v1h-62zM376,218h52v1h-52zM124,219h62v1h-62zM377,219h51v1h-51zM125,220h62v1h-62zM377,220h52v1h-52zM126,221h62v1h-62zM378,221h52v1h-52zM127,222h62v1h-62zM379,222h51v1h-51zM128,223h62v1h-62zM380,223h51v1h-51zM129,224h61v1h-61zM380,224h51v1h-51zM130,225h61v1h-61zM381,225h51v1h-51zM131,226h61v1h-61zM382,226h50v1h-50zM132,227h60v1h-60zM383,227h49v1h-49zM133,228h60v1h-60zM383,228h50v1h-50zM134,229h59v1h-59zM384,229h49v1h-49zM135,230h58v1h-58zM385,230h49v1h-49zM136,231h58v1h-58zM385,231h49v1h-49zM137,232h57v1h-57zM386,232h49v1h-49zM138,233h56v1h-56zM387,233h48v1h-48zM139,234h55v1h-55zM387,234h49v1h-49zM140,235h54v1h-54zM388,235h48v1h-48zM141,236h53v1h-53zM388,236h48v1h-48zM142,237h52v1h-52zM389,237h48v1h-48zM143,238h51v1h-51zM389,238h48v1h-48zM144,239h50v1h-50zM390,239h48v1h-48zM145,240h49v1h-49zM390,240h48v1h-48zM146,241h48v1h-48zM391,241h47v1h-47zM147,242h46v1h-46zM391,242h48v1h-48zM148,243h45v1h-45zM392,243h47v1h-47zM149,244h44v1h-44zM392,244h47v1h-47zM151,245h41v1h-41zM393,245h47v1h-47zM152,246h40v1h-40zM393,246h47v1h-47zM153,247h38v1h-38zM394,247h46v1h-46zM154,248h37v1h-37zM394,248h47v1h-47zM155,249h35v1h-35zM395,249h46v1h-46zM156,250h33v1h-33zM395,250h46v1h-46zM157,251h31v1h-31zM396,251h46v1h-46zM158,252h29v1h-29zM396,252h46v1h-46zM159,253h27v1h-27zM396,253h46v1h-46zM160,254h25v1h-25zM397,254h45v1h-45zM162,255h21v1h-21zM397,255h46v1h-46zM164,256h17v1h-17zM398,256h45v1h-45zM166,257h13v1h-13zM398,257h45v1h-45zM398,258h45v1h-45zM399,259h45v1h-45zM399,260h45v1h-45zM399,261h45v1h-45zM400,262h44v1h-44zM400,263h45v1h-45zM400,264h45v1h-45zM400,265h45v1h-45zM401,266h44v1h-44zM401,267h44v1h-44zM401,268h45v1h-45zM401,269h45v1h-45zM402,270h44v1h-44zM402,271h44v1h-44zM402,272h44v1h-44zM402,273h44v1h-44zM403,274h44v1h-44zM403,275h44v1h-44zM403,276h44v1h-44zM403,277h44v1h-44zM403,278h44v1h-44zM403,279h44v1h-44zM404,280h43v1h-43zM404,281h43v1h-43zM404,282h44v1h-44zM404,283h44v1h-44zM404,284h44v1h-44zM404,285h44v1h-44zM404,286h44v1h-44zM404,287h44v1h-44zM404,288h44v1h-44zM405,289h43v1h-43zM405,290h43v1h-43zM405,291h43v1h-43zM405,292h43v1h-43zM405,293h43v1h-43zM405,294h43v1h-43zM405,295h43v1h-43zM405,296h43v1h-43zM405,297h43v1h-43zM405,298h43v1h-43zM405,299h43v1h-43zM405,300h43v1h-43zM405,301h43v1h-43zM405,302h43v1h-43zM405,303h43v1h-43zM405,304h43v1h-43zM405,305h43v1h-43zM405,306h43v1h-43zM405,307h43v1h-43zM405,308h43v1h-43zM404,309h44v1h-44zM404,310h44v1h-44zM404,311h44v1h-44zM404,312h44v1h-44zM404,313h44v1h-44zM404,314h44v1h-44zM404,315h44v1h-44zM404,316h43v1h-43zM404,317h43v1h-43zM403,318h44v1h-44zM403,319h44v1h-44zM403,320h44v1h-44zM403,321h44v1h-44zM403,322h44v1h-44zM403,323h44v1h-44zM402,324h44v1h-44zM402,325h44v1h-44zM402,326h44v1h-44zM402,327h44v1h-44zM401,328h45v1h-45zM401,329h45v1h-45zM401,330h44v1h-44zM401,331h44v1h-44zM400,332h45v1h-45zM400,333h45v1h-45zM400,334h45v1h-45zM400,335h44v1h-44zM399,336h45v1h-45zM399,337h45v1h-45zM399,338h45v1h-45zM398,339h45v1h-45zM398,340h45v1h-45zM398,341h45v1h-45zM397,342h46v1h-46zM397,343h45v1h-45zM397,344h45v1h-45zM396,345h46v1h-46zM396,346h46v1h-46zM395,347h46v1h-46zM395,348h46v1h-46zM394,349h47v1h-47zM394,350h46v1h-46zM394,351h46v1h-46zM393,352h47v1h-47zM393,353h46v1h-46zM392,354h47v1h-47zM392,355h47v1h-47zM391,356h47v1h-47zM391,357h47v1h-47zM390,358h48v1h-48zM390,359h47v1h-47zM389,360h48v1h-48zM388,361h48v1h-48zM388,362h48v1h-48zM387,363h49v1h-49zM387,364h48v1h-48zM386,365h49v1h-49zM385,366h49v1h-49zM385,367h49v1h-49zM384,368h50v1h-50zM384,369h49v1h-49zM383,370h50v1h-50zM382,371h50v1h-50zM381,372h51v1h-51zM381,373h50v1h-50zM380,374h51v1h-51zM379,375h51v1h-51zM378,376h52v1h-52zM378,377h51v1h-51zM377,378h52v1h-52zM376,379h52v1h-52zM375,380h53v1h-53zM374,381h53v1h-53zM374,382h52v1h-52zM373,383h53v1h-53zM372,384h53v1h-53zM371,385h54v1h-54zM370,386h54v1h-54zM369,387h55v1h-55zM368,388h55v1h-55zM367,389h55v1h-55zM366,390h56v1h-56zM365,391h56v1h-56zM364,392h56v1h-56zM363,393h57v1h-57zM361,394h58v1h-58zM360,395h58v1h-58zM359,396h59v1h-59zM358,397h59v1h-59zM357,398h59v1h-59zM355,399h60v1h-60zM354,400h61v1h-61zM353,401h61v1h-61zM351,402h62v1h-62zM350,403h62v1h-62zM349,404h63v1h-63zM347,405h64v1h-64zM345,406h65v1h-65zM344,407h65v1h-65zM342,408h66v1h-66zM340,409h68v1h-68zM339,410h68v1h-68zM337,411h69v1h-69zM335,412h70v1h-70zM333,413h71v1h-71zM331,414h72v1h-72zM328,415h74v1h-74zM326,416h75v1h-75zM324,417h76v1h-76zM321,418h78v1h-78zM318,419h80v1h-80zM315,420h82v1h-82zM312,421h84v1h-84zM308,422h87v1h-87zM304,423h90v1h-90zM298,424h95v1h-95zM291,425h101v1h-101zM82,426h309v1h-309zM78,427h312v1h-312zM76,428h312v1h-312zM74,429h313v1h-313zM73,430h313v1h-313zM71,431h314v1h-314zM70,432h314v1h-314zM69,433h313v1h-313zM68,434h313v1h-313zM68,435h312v1h-312zM67,436h311v1h-311zM66,437h311v1h-311zM66,438h310v1h-310zM65,439h309v1h-309zM65,440h308v1h-308zM65,441h306v1h-306zM64,442h306v1h-306zM64,443h304v1h-304zM64,444h302v1h-302zM64,445h301v1h-301zM64,446h299v1h-299zM64,447h297v1h-297zM64,448h296v1h-296zM64,449h294v1h-294zM64,450h292v1h-292zM64,451h290v1h-290zM64,452h288v1h-288zM64,453h286v1h-286zM65,454h282v1h-282zM65,455h280v1h-280zM65,456h278v1h-278zM66,457h274v1h-274zM66,458h272v1h-272zM67,459h268v1h-268zM68,460h264v1h-264zM68,461h261v1h-261zM69,462h257v1h-257zM70,463h252v1h-252zM71,464h248v1h-248zM73,465h241v1h-241zM74,466h236v1h-236zM76,467h228v1h-228zM78,468h219v1h-219zM82,469h203v1h-203z"/></svg>