<?xml version="1.0" encoding="UTF-8"?>
<svg xmlns="http://www.w3.org/2000/svg" viewBox="0 0 512 512" width="512" height="512"><path fill="#000" d="M337,42h5v1h-5zM332,43h15v1h-15zM330,44h19v1h-19zM328,45h23v1h-23zM327,46h25v1h-25zM325,47h29v1h-29zM324,48h31v1h-31zM323,49h33v1h-33zM323,50h34v1h-34zM322,51h36v1h-36zM321,52h38v1h-38zM321,53h39v1h-39zM320,54h41v1h-41zM320,55h42v1h-42zM319,56h44v1h-44zM319,57h45v1h-45zM319,58h46v1h-46zM318,59h48v1h-48zM318,60h49v1h-49zM318,61h50v1h-50zM318,62h51v1h-51zM318,63h52v1h-52zM318,64h53v1h-53zM318,65h54v1h-54zM318,66h55v1h-55zM318,67h56v1h-56zM318,68h57v1h-57zM319,69h57v1h-57zM319,70h58v1h-58zM319,71h59v1h-59zM320,72h59v1h-59zM320,73h60v1h-60zM321,74h60v1h-60zM321,75h61v1h-61zM322,76h61v1h-61zM323,77h61v1h-61zM323,78h62v1h-62zM324,79h62v1h-62zM325,80h62v1h-62zM326,81h62v1h-62zM327,82h62v1h-62zM328,83h62v1h-62zM329,84h62v1h-62zM330,85h62v1h-62zM331,86h62v1h-62zM332,87h62v1h-62zM333,88h62v1h-62zM334,89h62v1h-62zM335,90h62v1h-62zM336,91h62v1h-62zM337,92h62v1h-62zM338,93h62v1h-62zM339,94h62v1h-62zM340,95h62v1h-62zM341,96h62v1h-62zM343,97h61v1h-61zM344,98h61v1h-61zM345,99h61v1h-61zM346,100h61v1h-61zM347,101h61v1h-61zM348,102h61v1h-61zM349,103h61v1h-61zM350,104h61v1h-61zM351,105h61v1h-61zM352,106h61v1h-61zM353,107h61v1h-61zM354,108h61v1h-61zM355,109h61v1h-61zM356,110h61v1h-61zM357,111h61v1h-61zM358,112h61v1h-61zM359,113h61v1h-61zM360,114h61v1h-61zM361,115h61v1h-61zM362,116h61v1h-61zM363,117h61v1h-61zM364,118h61v1h-61zM365,119h61v1h-61zM366,120h61v1h-61zM367,121h61v1h-61zM368,122h61v1h-61zM369,123h61v1h-61zM370,124h61v1h-61zM370,125h62v1h-62zM370,126h63v1h-63zM370,127h64v1h-64zM370,128h65v1h-65zM218,129h218v1h-218zM210,130h227v1h-227zM204,131h234v1h-234zM199,132h240v1h-240zM195,133h245v1h-245zM191,134h250v1h-250zM187,135h255v1h-255zM184,136h259v1h-259zM181,137h263v1h-263zM178,138h267v1h-267zM175,139h270v1h-270zM172,140h274v1h-274zM170,141h276v1h-276zM168,142h279v1h-279zM165,143h282v1h-282zM163,144h285v1h-285zM161,145h287v1h-287zM159,146h289v1h-289zM157,147h291v1h-291zM155,148h293v1h-293zM153,149h295v1h-295zM151,150h297v1h-297zM150,151h298v1h-298zM148,152h300v1h-300zM146,153h302v1h-302zM144,154h304v1h-304zM143,155h305v1h-305zM141,156h306v1h-306zM140,157h307v1h-307zM138,158h309v1h-309zM137,159h309v1h-309zM135,160h311v1h-311zM134,161h311v1h-311zM133,162h312v1h-312zM131,163h313v1h-313zM130,164h313v1h-313zM129,165h313v1h-313zM128,166h313v1h-313zM126,167h314v1h-314zM125,168h314v1h-314zM124,169h314v1h-314zM123,170h314v1h-314zM122,171h314v1h-314zM120,172h105v1h-105zM369,172h66v1h-66zM119,173h97v1h-97zM369,173h65v1h-65zM118,174h92v1h-92zM369,174h64v1h-64zM117,175h89v1h-89zM369,175h63v1h-63zM116,176h86v1h-86zM369,176h62v1h-62zM115,177h83v1h-83zM368,177h62v1h-62zM114,178h81v1h-81zM367,178h62v1h-62zM113,179h79v1h-79zM366,179h62v1h-62zM112,180h77v1h-77zM365,180h62v1h-62zM111,181h76v1h-76zM364,181h62v1h-62zM110,182h74v1h-74zM363,182h62v1h-62zM109,183h73v1h-73zM362,183h62v1h-62zM108,184h72v1h-72zM361,184h62v1h-62zM107,185h71v1h-71zM360,185h62v1h-62zM107,186h69v1h-69zM359,186h62v1h-62zM106,187h68v1h-68zM358,187h62v1h-62zM105,188h67v1h-67zM357,188h62v1h-62zM104,189h67v1h-67zM356,189h62v1h-62zM103,190h66v1h-66zM355,190h62v1h-62zM102,191h65v1h-65zM354,191h62v1h-62zM101,192h65v1h-65zM353,192h62v1h-62zM101,193h63v1h-63zM352,193h62v1h-62zM100,194h63v1h-63zM351,194h62v1h-62zM99,195h62v1h-62zM350,195h62v1h-62zM98,196h62v1h-62zM349,196h62v1h-62zM97,197h61v1h-61zM348,197h62v1h-62zM97,198h60v1h-60zM347,198h62v1h-62zM96,199h60v1h-60zM346,199h62v1h-62zM95,200h59v1h-59zM345,200h62v1h-62zM95,201h58v1h-58zM344,201h62v1h-62zM94,202h58v1h-58zM343,202h62v1h-62zM93,203h58v1h-58zM342,203h62v1h-62zM93,204h57v1h-57zM341,204h62v1h-62zM92,205h57v1h-57zM340,205h62v1h-62zM91,206h57v1h-57zM339,206h62v1h-62zM91,207h56v1h-56zM338,207h62v1h-62zM90,208h55v1h-55zM337,208h62v1h-62zM89,209h55v1h-55zM336,209h62v1h-62zM89,210h54v1h-54zM335,210h62v1h-62zM88,211h55v1h-55zM334,211h62v1h-62zM87,212h55v1h-55zM333,212h62v1h-62zM87,213h54v1h-54zM332,213h62v1h-62zM86,214h54v1h-54zM331,214h62v1h-62zM86,215h53v1h-53zM330,215h62v1h-62zM85,216h53v1h-53zM329,216h62v1h-62zM85,217h52v1h-52zM328,217h62v1h-62zM84,218h52v1h-52zM327,218h62v1h-62zM84,219h51v1h-51zM326,219h62v1h-62zM83,220h52v1h-52zM325,220h62v1h-62zM82,221h52v1h-52zM324,221h62v1h-62zM82,222h51v1h-51zM323,222h62v1h-62zM81,223h51v1h-51zM322,223h62v1h-62zM81,224h51v1h-51zM322,224h61v1h-61zM80,225h51v1h-51zM321,225h61v1h-61zM80,226h50v1h-50zM320,226h61v1h-61zM80,227h49v1h-49zM320,227h60v1h-60zM79,228h50v1h-50zM319,228h60v1h-60zM79,229h49v1h-49zM319,229h59v1h-59zM78,230h49v1h-49zM319,230h58v1h-58zM78,231h49v1h-49zM318,231h58v1h-58zM77,232h49v1h-49zM318,232h57v1h-57zM77,233h48v1h-48zM318,233h56v1h-56zM76,234h49v1h-49zM318,234h55v1h-55zM76,235h48v1h-48zM318,235h54v1h-54zM76,236h48v1h-48zM318,236h53v1h-53zM75,237h48v1h-48zM318,237h52v1h-52zM75,238h48v1h-48zM318,238h51v1h-51zM74,239h48v1h-48zM318,239h50v1h-50zM74,240h48v1h-48zM318,240h49v1h-49zM74,241h47v1h-47zM318,241h48v1h-48zM73,242h47v1h-47zM319,242h46v1h-46zM73,243h47v1h-47zM319,243h45v1h-45zM73,244h46v1h-46zM319,244h44v1h-44zM72,245h47v1h-47zM320,245h42v1h-42zM72,246h47v1h-47zM320,246h40v1h-40zM72,247h46v1h-46zM321,247h38v1h-38zM71,248h47v1h-47zM321,248h37v1h-37zM71,249h46v1h-46zM322,249h35v1h-35zM71,250h46v1h-46zM323,250h33v1h-33zM70,251h46v1h-46zM324,251h31v1h-31zM70,252h46v1h-46zM325,252h29v1h-29zM70,253h46v1h-46zM326,253h27v1h-27zM70,254h45v1h-45zM327,254h25v1h-25zM69,255h46v1h-46zM329,255h21v1h-21zM69,256h45v1h-45zM331,256h17v1h-17zM69,257h45v1h-45zM333,257h13v1h-13zM69,258h45v1h-45zM68,259h45v1h-45zM68,260h45v1h-45zM68,261h45v1h-45zM68,262h44v1h-44zM67,263h45v1h-45zM67,264h45v1h-45zM67,265h45v1h-45zM67,266h44v1h-44zM67,267h44v1h-44zM66,268h45v1h-45zM66,269h45v1h-45zM66,270h44v1h-44zM66,271h44v1h-44zM66,272h44v1h-44zM66,273h44v1h-44zM65,274h44v1h-44zM65,275h44v1h-44zM65,276h44v1h-44zM65,277h44v1h-44zM65,278h44v1h-44zM65,279h44v1h-44zM65,280h43v1h-43zM65,281h43v1h-43zM64,282h44v1h-44zM64,283h44v1h-44zM64,284h44v1h-44zM64,285h44v1h-44zM64,286h44v1h-44zM64,287h44v1h-44zM64,288h44v1h-44zM64,289h43v1h-43zM64,290h43v1h-43zM64,291h43v1h-43zM64,292h43v1h-43zM64,293h43v1h-43zM64,294h43v1h-43zM64,295h43v1h-43zM64,296h43v1h-43zM64,297h43v1h-43zM64,298h43v1h-43zM64,299h43v1h-43zM64,300h43v1h-43zM64,301h43v1h-43zM64,302h43v1h-43zM64,303h43v1h-43zM64,304h43v1h-43zM64,305h43v1h-43zM64,306h43v1h-43zM64,307h43v1h-43zM64,308h43v1h-43zM64,309h44v1h-44zM64,310h44v1h-44zM64,311h44v1h-44zM64,312h44v1h-44zM64,313h44v1h-44zM64,314h44v1h-44zM64,315h44v1h-44zM64,316h44v1h-44zM65,317h43v1h-43zM65,318h44v1h-44zM65,319h44v1h-44zM65,320h44v1h-44zM65,321h44v1h-44zM65,322h44v1h-44zM65,323h44v1h-44zM66,324h44v1h-44zM66,325h44v1h-44zM66,326h44v1h-44zM66,327h44v1h-44zM66,328h45v1h-45zM66,329h45v1h-45zM67,330h44v1h-44zM67,331h44v1h-44zM67,332h45v1h-45zM67,333h45v1h-45zM67,334h45v1h-45zM68,335h44v1h-44zM68,336h45v1h-45zM68,337h45v1h-45zM68,338h45v1h-45zM68,339h46v1h-46zM69,340h45v1h-45zM69,341h45v1h-45zM69,342h46v1h-46zM70,343h45v1h-45zM70,344h45v1h-45zM70,345h46v1h-46zM70,346h46v1h-46zM71,347h46v1h-46zM71,348h46v1h-46zM71,349h47v1h-47zM72,350h46v1h-46zM72,351h46v1h-46zM72,352h47v1h-47zM73,353h46v1h-46zM73,354h47v1h-47zM73,355h47v1h-47zM74,356h47v1h-47zM74,357h47v1h-47zM74,358h48v1h-48zM75,359h47v1h-47zM75,360h48v1h-48zM76,361h48v1h-48zM76,362h48v1h-48zM76,363h49v1h-49zM77,364h48v1h-48zM77,365h49v1h-49zM78,366h49v1h-49zM78,367h49v1h-49zM78,368h50v1h-50zM79,369h49v1h-49zM79,370h50v1h-50zM80,371h50v1h-50zM80,372h51v1h-51zM81,373h50v1h-50zM81,374h51v1h-51zM82,375h51v1h-51zM82,376h52v1h-52zM83,377h51v1h-51zM83,378h52v1h-52zM84,379h52v1h-52zM84,380h53v1h-53zM85,381h53v1h-53zM86,382h52v1h-52zM86,383h53v1h-53zM87,384h53v1h-53zM87,385h54v1h-54zM88,386h54v1h-54zM88,387h55v1h-55zM89,388h55v1h-55zM90,389h55v1h-55zM90,390h56v1h-56zM91,391h56v1h-56zM92,392h56v1h-56zM92,393h57v1h-57zM93,394h57v1h-57zM94,395h58v1h-58zM94,396h59v1h-59zM95,397h59v1h-59zM96,398h59v1h-59zM97,399h60v1h-60zM97,400h61v1h-61zM98,401h61v1h-61zM99,402h62v1h-62zM100,403h62v1h-62zM100,404h63v1h-63zM101,405h64v1h-64zM102,406h65v1h-65zM103,407h65v1h-65zM104,408h66v1h-66zM104,409h68v1h-68zM105,410h68v1h-68zM106,411h69v1h-69zM107,412h70v1h-70zM108,413h71v1h-71zM109,414h72v1h-72zM110,415h74v1h-74zM111,416h75v1h-75zM112,417h77v1h-77zM113,418h78v1h-78zM114,419h80v1h-80zM115,420h82v1h-82zM116,421h84v1h-84zM117,422h87v1h-87zM118,423h91v1h-91zM119,424h95v1h-95zM120,425h101v1h-101zM121,426h309v1h-309zM122,427h312v1h-312zM123,428h313v1h-313zM125,429h313v1h-313zM126,430h313v1h-313zM127,431h314v1h-314zM128,432h314v1h-314zM130,433h313v1h-313zM131,434h313v1h-313zM132,435h312v1h-312zM134,436h311v1h-311zM135,437h311v1h-311zM136,438h310v1h-310zM138,439h309v1h-309zM139,440h308v1h-308zM141,441h306v1h-306zM142,442h306v1h-306zM144,443h304v1h-304zM146,444h302v1h-302zM147,445h301v1h-301zM149,446h299v1h-299zM151,447h297v1h-297zM152,448h296v1h-296zM154,449h294v1h-294zM156,450h292v1h-292zM158,451h290v1h-290zM160,452h288v1h-288zM162,453h286v1h-286zM165,454h282v1h-282zM167,455h280v1h-280zM169,456h278v1h-278zM172,457h274v1h-274zM174,458h272v1h-272zM177,459h268v1h-268zM180,460h264v1h-264zM183,461h261v1h-261zM186,462h257v1h-257zM189,463h253v1h-253zM193,464h248v1h-248zM198,465h241v1h-241zM202,466h236v1h-236zM208,467h228v1h-228zM215,468h219v1h-219zM227,469h203v1h-203z"/></svg>