<?xml version="1.0" encoding="UTF-8"?>
<svg xmlns="http://www.w3.org/2000/svg" viewBox="0 0 512 512" width="512" height="512"><path fill="#000" d="M104,42h196v1h-196zM100,43h210v1h-210zM97,44h219v1h-219zM95,45h225v1h-225zM94,46h230v1h-230zM93,47h234v1h-234zM91,48h239v1h-239zM91,49h242v1h-242zM90,50h245v1h-245zM89,51h249v1h-249zM88,52h252v1h-252zM88,53h254v1h-254zM87,54h257v1h-257zM87,55h259v1h-259zM86,56h262v1h-262zM86,57h264v1h-264zM86,58h265v1h-265zM85,59h268v1h-268zM85,60h270v1h-270zM85,61h271v1h-271zM85,62h273v1h-273zM85,63h274v1h-274zM85,64h275v1h-275zM85,65h277v1h-277zM85,66h278v1h-278zM85,67h279v1h-279zM85,68h280v1h-280zM86,69h281v1h-281zM86,70h282v1h-282zM86,71h283v1h-283zM87,72h283v1h-283zM87,73h284v1h-284zM88,74h284v1h-284zM88,75h285v1h-285zM89,76h285v1h-285zM90,77h285v1h-285zM91,78h285v1h-285zM91,79h286v1h-286zM93,80h285v1h-285zM94,81h285v1h-285zM95,82h284v1h-284zM97,83h283v1h-283zM100,84h281v1h-281zM104,85h278v1h-278zM128,86h43v1h-43zM304,86h79v1h-79zM128,87h43v1h-43zM309,87h74v1h-74zM128,88h43v1h-43zM313,88h71v1h-71zM128,89h43v1h-43zM316,89h69v1h-69zM128,90h43v1h-43zM319,90h66v1h-66zM128,91h43v1h-43zM321,91h65v1h-65zM128,92h43v1h-43zM323,92h64v1h-64zM128,93h43v1h-43zM325,93h63v1h-63zM128,94h43v1h-43zM327,94h61v1h-61zM128,95h43v1h-43zM329,95h60v1h-60zM128,96h43v1h-43zM330,96h59v1h-59zM128,97h43v1h-43zM332,97h58v1h-58zM128,98h43v1h-43zM333,98h58v1h-58zM128,99h43v1h-43zM335,99h56v1h-56zM128,100h43v1h-43zM336,100h56v1h-56zM128,101h43v1h-43zM337,101h55v1h-55zM128,102h43v1h-43zM338,102h55v1h-55zM128,103h43v1h-43zM340,103h53v1h-53zM128,104h43v1h-43zM341,104h53v1h-53zM128,105h43v1h-43zM342,105h52v1h-52zM128,106h43v1h-43zM343,106h52v1h-52zM128,107h43v1h-43zM344,107h51v1h-51zM128,108h43v1h-43zM345,108h51v1h-51zM128,109h43v1h-43zM345,109h51v1h-51zM128,110h43v1h-43zM346,110h51v1h-51zM128,111h43v1h-43zM347,111h50v1h-50zM128,112h43v1h-43zM348,112h49v1h-49zM128,113h43v1h-43zM349,113h49v1h-49zM128,114h43v1h-43zM349,114h49v1h-49zM128,115h43v1h-43zM350,115h49v1h-49zM128,116h43v1h-43zM351,116h48v1h-48zM128,117h43v1h-43zM351,117h48v1h-48zM128,118h43v1h-43zM352,118h48v1h-48zM128,119h43v1h-43zM353,119h47v1h-47zM128,120h43v1h-43zM353,120h47v1h-47zM128,121h43v1h-43zM354,121h47v1h-47zM128,122h43v1h-43zM354,122h47v1h-47zM128,123h43v1h-43zM355,123h46v1h-46zM128,124h43v1h-43zM355,124h47v1h-47zM128,125h43v1h-43zM356,125h46v1h-46zM128,126h43v1h-43zM356,126h46v1h-46zM128,127h43v1h-43zM357,127h45v1h-45zM128,128h43v1h-43zM357,128h46v1h-46zM128,129h43v1h-43zM358,129h45v1h-45zM128,130h43v1h-43zM358,130h45v1h-45zM128,131h43v1h-43zM358,131h45v1h-45zM128,132h43v1h-43zM359,132h45v1h-45zM128,133h43v1h-43zM359,133h45v1h-45zM128,134h43v1h-43zM359,134h45v1h-45zM128,135h43v1h-43zM360,135h44v1h-44zM128,136h43v1h-43zM360,136h44v1h-44zM128,137h43v1h-43zM360,137h44v1h-44zM128,138h43v1h-43zM360,138h45v1h-45zM128,139h43v1h-43zM361,139h44v1h-44zM128,140h43v1h-43zM361,140h44v1h-44zM128,141h43v1h-43zM361,141h44v1h-44zM128,142h43v1h-43zM361,142h44v1h-44zM128,143h43v1h-43zM361,143h44v1h-44zM128,144h43v1h-43zM362,144h43v1h-43zM128,145h43v1h-43zM362,145h43v1h-43zM128,146h43v1h-43zM362,146h43v1h-43zM128,147h43v1h-43zM362,147h43v1h-43zM128,148h43v1h-43zM362,148h44v1h-44zM128,149h43v1h-43zM362,149h44v1h-44zM128,150h43v1h-43zM362,150h44v1h-44zM128,151h43v1h-43zM362,151h44v1h-44zM128,152h43v1h-43zM362,152h44v1h-44zM128,153h43v1h-43zM362,153h44v1h-44zM128,154h43v1h-43zM362,154h44v1h-44zM128,155h43v1h-43zM362,155h44v1h-44zM128,156h43v1h-43zM362,156h44v1h-44zM128,157h43v1h-43zM362,157h44v1h-44zM128,158h43v1h-43zM362,158h44v1h-44zM128,159h43v1h-43zM362,159h44v1h-44zM128,160h43v1h-43zM362,160h44v1h-44zM128,161h43v1h-43zM362,161h43v1h-43zM128,162h43v1h-43zM362,162h43v1h-43zM128,163h43v1h-43zM362,163h43v1h-43zM128,164h43v1h-43zM362,164h43v1h-43zM128,165h43v1h-43zM361,165h44v1h-44zM128,166h43v1h-43zM361,166h44v1h-44zM128,167h43v1h-43zM361,167h44v1h-44zM128,168h43v1h-43zM361,168h44v1h-44zM128,169h43v1h-43zM361,169h44v1h-44zM128,170h43v1h-43zM360,170h45v1h-45zM128,171h43v1h-43zM360,171h44v1h-44zM128,172h43v1h-43zM360,172h44v1h-44zM128,173h43v1h-43zM360,173h44v1h-44zM128,174h43v1h-43zM359,174h45v1h-45zM128,175h43v1h-43zM359,175h45v1h-45zM128,176h43v1h-43zM359,176h44v1h-44zM128,177h43v1h-43zM358,177h45v1h-45zM128,178h43v1h-43zM358,178h45v1h-45zM128,179h43v1h-43zM358,179h45v1h-45zM128,180h43v1h-43zM357,180h46v1h-46zM128,181h43v1h-43zM357,181h45v1h-45zM128,182h43v1h-43zM356,182h46v1h-46zM128,183h43v1h-43zM356,183h46v1h-46zM128,184h43v1h-43zM355,184h47v1h-47zM128,185h43v1h-43zM355,185h46v1h-46zM128,186h43v1h-43zM354,186h47v1h-47zM128,187h43v1h-43zM354,187h47v1h-47zM128,188h43v1h-43zM353,188h47v1h-47zM128,189h43v1h-43zM353,189h47v1h-47zM128,190h43v1h-43zM352,190h48v1h-48zM128,191h43v1h-43zM352,191h47v1h-47zM128,192h43v1h-43zM351,192h48v1h-48zM128,193h43v1h-43zM350,193h49v1h-49zM128,194h43v1h-43zM350,194h48v1h-48zM128,195h43v1h-43zM349,195h49v1h-49zM128,196h43v1h-43zM348,196h49v1h-49zM128,197h43v1h-43zM347,197h50v1h-50zM128,198h43v1h-43zM347,198h50v1h-50zM128,199h43v1h-43zM346,199h50v1h-50zM128,200h43v1h-43zM345,200h51v1h-51zM128,201h43v1h-43zM344,201h51v1h-51zM128,202h43v1h-43zM343,202h52v1h-52zM128,203h43v1h-43zM342,203h52v1h-52zM128,204h43v1h-43zM341,204h53v1h-53zM128,205h43v1h-43zM340,205h53v1h-53zM128,206h43v1h-43zM339,206h54v1h-54zM128,207h43v1h-43zM338,207h54v1h-54zM128,208h43v1h-43zM336,208h56v1h-56zM128,209h43v1h-43zM335,209h56v1h-56zM128,210h43v1h-43zM334,210h56v1h-56zM128,211h43v1h-43zM332,211h58v1h-58zM128,212h43v1h-43zM331,212h58v1h-58zM128,213h43v1h-43zM329,213h60v1h-60zM128,214h43v1h-43zM328,214h60v1h-60zM128,215h43v1h-43zM326,215h61v1h-61zM128,216h43v1h-43zM324,216h63v1h-63zM128,217h43v1h-43zM322,217h64v1h-64zM128,218h43v1h-43zM319,218h66v1h-66zM128,219h43v1h-43zM317,219h68v1h-68zM128,220h43v1h-43zM314,220h70v1h-70zM128,221h43v1h-43zM310,221h73v1h-73zM128,222h43v1h-43zM306,222h76v1h-76zM128,223h43v1h-43zM297,223h85v1h-85zM128,224h253v1h-253zM128,225h252v1h-252zM128,226h251v1h-251zM128,227h250v1h-250zM128,228h249v1h-249zM128,229h248v1h-248zM128,230h247v1h-247zM128,231h247v1h-247zM128,232h246v1h-246zM128,233h245v1h-245zM128,234h244v1h-244zM128,235h243v1h-243zM128,236h242v1h-242zM128,237h240v1h-240zM128,238h240v1h-240zM128,239h240v1h-240zM128,240h240v1h-240zM128,241h240v1h-240zM128,242h241v1h-241zM128,243h243v1h-243zM128,244h244v1h-244zM128,245h246v1h-246zM128,246h247v1h-247zM128,247h249v1h-249zM128,248h250v1h-250zM128,249h251v1h-251zM128,250h252v1h-252zM128,251h254v1h-254zM128,252h255v1h-255zM128,253h256v1h-256zM128,254h257v1h-257zM128,255h258v1h-258zM128,256h259v1h-259zM128,257h260v1h-260zM128,258h262v1h-262zM128,259h263v1h-263zM128,260h264v1h-264zM128,261h265v1h-265zM128,262h265v1h-265zM128,263h266v1h-266zM128,264h267v1h-267zM128,265h268v1h-268zM128,266h269v1h-269zM128,267h43v1h-43zM312,267h86v1h-86zM128,268h43v1h-43zM319,268h80v1h-80zM128,269h43v1h-43zM324,269h76v1h-76zM128,270h43v1h-43zM327,270h73v1h-73zM128,271h43v1h-43zM330,271h71v1h-71zM128,272h43v1h-43zM333,272h69v1h-69zM128,273h43v1h-43zM335,273h68v1h-68zM128,274h43v1h-43zM338,274h65v1h-65zM128,275h43v1h-43zM340,275h64v1h-64zM128,276h43v1h-43zM342,276h63v1h-63zM128,277h43v1h-43zM343,277h63v1h-63zM128,278h43v1h-43zM345,278h61v1h-61zM128,279h43v1h-43zM347,279h60v1h-60zM128,280h43v1h-43zM348,280h60v1h-60zM128,281h43v1h-43zM350,281h58v1h-58zM128,282h43v1h-43zM351,282h58v1h-58zM128,283h43v1h-43zM352,283h57v1h-57zM128,284h43v1h-43zM354,284h56v1h-56zM128,285h43v1h-43zM355,285h56v1h-56zM128,286h43v1h-43zM356,286h55v1h-55zM128,287h43v1h-43zM357,287h55v1h-55zM128,288h43v1h-43zM358,288h54v1h-54zM128,289h43v1h-43zM359,289h54v1h-54zM128,290h43v1h-43zM360,290h53v1h-53zM128,291h43v1h-43zM361,291h53v1h-53zM128,292h43v1h-43zM362,292h52v1h-52zM128,293h43v1h-43zM363,293h52v1h-52zM128,294h43v1h-43zM364,294h51v1h-51zM128,295h43v1h-43zM365,295h51v1h-51zM128,296h43v1h-43zM366,296h50v1h-50zM128,297h43v1h-43zM367,297h50v1h-50zM128,298h43v1h-43zM367,298h50v1h-50zM128,299h43v1h-43zM368,299h50v1h-50zM128,300h43v1h-43zM369,300h49v1h-49zM128,301h43v1h-43zM370,301h48v1h-48zM128,302h43v1h-43zM370,302h49v1h-49zM128,303h43v1h-43zM371,303h48v1h-48zM128,304h43v1h-43zM371,304h49v1h-49zM128,305h43v1h-43zM372,305h48v1h-48zM128,306h43v1h-43zM373,306h47v1h-47zM128,307h43v1h-43zM373,307h48v1h-48zM128,308h43v1h-43zM374,308h47v1h-47zM128,309h43v1h-43zM374,309h47v1h-47zM128,310h43v1h-43zM375,310h47v1h-47zM128,311h43v1h-43zM375,311h47v1h-47zM128,312h43v1h-43zM376,312h46v1h-46zM128,313h43v1h-43zM376,313h46v1h-46zM128,314h43v1h-43zM377,314h46v1h-46zM128,315h43v1h-43zM377,315h46v1h-46zM128,316h43v1h-43zM378,316h45v1h-45zM128,317h43v1h-43zM378,317h45v1h-45zM128,318h43v1h-43zM378,318h46v1h-46zM128,319h43v1h-43zM379,319h45v1h-45zM128,320h43v1h-43zM379,320h45v1h-45zM128,321h43v1h-43zM380,321h44v1h-44zM128,322h43v1h-43zM380,322h45v1h-45zM128,323h43v1h-43zM380,323h45v1h-45zM128,324h43v1h-43zM380,324h45v1h-45zM128,325h43v1h-43zM381,325h44v1h-44zM128,326h43v1h-43zM381,326h44v1h-44zM128,327h43v1h-43zM381,327h44v1h-44zM128,328h43v1h-43zM382,328h44v1h-44zM128,329h43v1h-43zM382,329h44v1h-44zM128,330h43v1h-43zM382,330h44v1h-44zM128,331h43v1h-43zM382,331h44v1h-44zM128,332h43v1h-43zM382,332h44v1h-44zM128,333h43v1h-43zM383,333h43v1h-43zM128,334h43v1h-43zM383,334h43v1h-43zM128,335h43v1h-43zM383,335h43v1h-43zM128,336h43v1h-43zM383,336h44v1h-44zM128,337h43v1h-43zM383,337h44v1h-44zM128,338h43v1h-43zM383,338h44v1h-44zM128,339h43v1h-43zM383,339h44v1h-44zM128,340h43v1h-43zM383,340h44v1h-44zM128,341h43v1h-43zM383,341h44v1h-44zM128,342h43v1h-43zM384,342h43v1h-43zM128,343h43v1h-43zM384,343h43v1h-43zM128,344h43v1h-43zM384,344h43v1h-43zM128,345h43v1h-43zM384,345h43v1h-43zM128,346h43v1h-43zM384,346h43v1h-43zM128,347h43v1h-43zM384,347h43v1h-43zM128,348h43v1h-43zM384,348h43v1h-43zM128,349h43v1h-43zM384,349h43v1h-43zM128,350h43v1h-43zM384,350h43v1h-43zM128,351h43v1h-43zM383,351h44v1h-44zM128,352h43v1h-43zM383,352h44v1h-44zM128,353h43v1h-43zM383,353h44v1h-44zM128,354h43v1h-43zM383,354h44v1h-44zM128,355h43v1h-43zM383,355h44v1h-44zM128,356h43v1h-43zM383,356h44v1h-44zM128,357h43v1h-43zM383,357h44v1h-44zM128,358h43v1h-43zM383,358h43v1h-43zM128,359h43v1h-43zM383,359h43v1h-43zM128,360h43v1h-43zM382,360h44v1h-44zM128,361h43v1h-43zM382,361h44v1h-44zM128,362h43v1h-43zM382,362h44v1h-44zM128,363h43v1h-43zM382,363h44v1h-44zM128,364h43v1h-43zM382,364h44v1h-44zM128,365h43v1h-43zM381,365h45v1h-45zM128,366h43v1h-43zM381,366h44v1h-44zM128,367h43v1h-43zM381,367h44v1h-44zM128,368h43v1h-43zM381,368h44v1h-44zM128,369h43v1h-43zM380,369h45v1h-45zM128,370h43v1h-43zM380,370h45v1h-45zM128,371h43v1h-43zM380,371h45v1h-45zM128,372h43v1h-43zM379,372h45v1h-45zM128,373h43v1h-43zM379,373h45v1h-45zM128,374h43v1h-43zM379,374h45v1h-45zM128,375h43v1h-43zM378,375h46v1h-46zM128,376h43v1h-43zM378,376h45v1h-45zM128,377h43v1h-43zM377,377h46v1h-46zM128,378h43v1h-43zM377,378h46v1h-46zM128,379h43v1h-43zM377,379h46v1h-46zM128,380h43v1h-43zM376,380h46v1h-46zM128,381h43v1h-43zM376,381h46v1h-46zM128,382h43v1h-43zM375,382h47v1h-47zM128,383h43v1h-43zM375,383h46v1h-46zM128,384h43v1h-43zM374,384h47v1h-47zM128,385h43v1h-43zM373,385h48v1h-48zM128,386h43v1h-43zM373,386h47v1h-47zM128,387h43v1h-43zM372,387h48v1h-48zM128,388h43v1h-43zM372,388h48v1h-48zM128,389h43v1h-43zM371,389h48v1h-48zM128,390h43v1h-43zM370,390h49v1h-49zM128,391h43v1h-43zM370,391h49v1h-49zM128,392h43v1h-43zM369,392h49v1h-49zM128,393h43v1h-43zM368,393h50v1h-50zM128,394h43v1h-43zM368,394h49v1h-49zM128,395h43v1h-43zM367,395h50v1h-50zM128,396h43v1h-43zM366,396h50v1h-50zM128,397h43v1h-43zM365,397h51v1h-51zM128,398h43v1h-43zM364,398h52v1h-52zM128,399h43v1h-43zM363,399h52v1h-52zM128,400h43v1h-43zM363,400h52v1h-52zM128,401h43v1h-43zM362,401h52v1h-52zM128,402h43v1h-43zM361,402h53v1h-53zM128,403h43v1h-43zM360,403h53v1h-53zM128,404h43v1h-43zM359,404h54v1h-54zM128,405h43v1h-43zM358,405h54v1h-54zM128,406h43v1h-43zM356,406h55v1h-55zM128,407h43v1h-43zM355,407h56v1h-56zM128,408h43v1h-43zM354,408h56v1h-56zM128,409h43v1h-43zM353,409h57v1h-57zM128,410h43v1h-43zM352,410h57v1h-57zM128,411h43v1h-43zM350,411h58v1h-58zM128,412h43v1h-43zM349,412h59v1h-59zM128,413h43v1h-43zM347,413h60v1h-60zM128,414h43v1h-43zM346,414h61v1h-61zM128,415h43v1h-43zM344,415h62v1h-62zM128,416h43v1h-43zM342,416h63v1h-63zM128,417h43v1h-43zM340,417h65v1h-65zM128,418h43v1h-43zM338,418h66v1h-66zM128,419h43v1h-43zM336,419h67v1h-67zM128,420h43v1h-43zM334,420h68v1h-68zM128,421h43v1h-43zM331,421h71v1h-71zM128,422h43v1h-43zM328,422h73v1h-73zM128,423h43v1h-43zM325,423h75v1h-75zM128,424h43v1h-43zM321,424h78v1h-78zM128,425h43v1h-43zM315,425h83v1h-83zM104,426h293v1h-293zM100,427h297v1h-297zM97,428h299v1h-299zM95,429h300v1h-300zM94,430h300v1h-300zM93,431h300v1h-300zM91,432h301v1h-301zM91,433h300v1h-300zM90,434h300v1h-300zM89,435h300v1h-300zM88,436h300v1h-300zM88,437h299v1h-299zM87,438h299v1h-299zM87,439h298v1h-298zM86,440h297v1h-297zM86,441h296v1h-296zM86,442h295v1h-295zM85,443h295v1h-295zM85,444h293v1h-293zM85,445h292v1h-292zM85,446h291v1h-291zM85,447h289v1h-289zM85,448h288v1h-288zM85,449h286v1h-286zM85,450h285v1h-285zM85,451h283v1h-283zM85,452h282v1h-282zM86,453h279v1h-279zM86,454h277v1h-277zM86,455h275v1h-275zM87,456h272v1h-272zM87,457h270v1h-270zM88,458h267v1h-267zM88,459h265v1h-265zM89,460h262v1h-262zM90,461h258v1h-258zM91,462h254v1h-254zM91,463h251v1h-251zM93,464h246v1h-246zM94,465h242v1h-242zM95,466h237v1h-237zM97,467h230v1h-230zM100,468h221v1h-221zM104,469h207v1h-207z"/></svg>