<?xml version="1.0" encoding="UTF-8"?>
<svg xmlns="http://www.w3.org/2000/svg" viewBox="0 0 512 512" width="512" height="512"><path fill="#000" d="M154,16h125v1h-125zM148,17h138v1h-138zM143,18h148v1h-148zM139,19h156v1h-156zM135,20h164v1h-164zM132,21h170v1h-170zM129,22h176v1h-176zM127,23h181v1h-181zM124,24h187v1h-187zM122,25h191v1h-191zM120,26h196v1h-196zM118,27h200v1h-200zM116,28h204v1h-204zM114,29h208v1h-208zM112,30h212v1h-212zM110,31h216v1h-216zM109,32h219v1h-219zM107,33h222v1h-222zM106,34h225v1h-225zM104,35h229v1h-229zM103,36h231v1h-231zM101,37h235v1h-235zM100,38h237v1h-237zM99,39h240v1h-240zM98,40h242v1h-242zM96,41h245v1h-245zM95,42h248v1h-248zM94,43h250v1h-250zM93,44h252v1h-252zM92,45h254v1h-254zM91,46h256v1h-256zM90,47h259v1h-259zM89,48h75v1h-75zM268,48h82v1h-82zM88,49h67v1h-67zM279,49h72v1h-72zM87,50h63v1h-63zM284,50h68v1h-68zM86,51h60v1h-60zM288,51h65v1h-65zM85,52h58v1h-58zM292,52h62v1h-62zM84,53h56v1h-56zM295,53h60v1h-60zM83,54h54v1h-54zM298,54h58v1h-58zM82,55h53v1h-53zM300,55h57v1h-57zM81,56h52v1h-52zM303,56h55v1h-55zM81,57h50v1h-50zM305,57h54v1h-54zM80,58h49v1h-49zM307,58h53v1h-53zM79,59h48v1h-48zM309,59h52v1h-52zM78,60h48v1h-48zM311,60h50v1h-50zM77,61h47v1h-47zM312,61h50v1h-50zM77,62h46v1h-46zM314,62h49v1h-49zM76,63h45v1h-45zM316,63h48v1h-48zM75,64h45v1h-45zM317,64h48v1h-48zM75,65h44v1h-44zM319,65h47v1h-47zM74,66h43v1h-43zM320,66h46v1h-46zM73,67h43v1h-43zM321,67h46v1h-46zM73,68h42v1h-42zM323,68h45v1h-45zM72,69h42v1h-42zM324,69h44v1h-44zM71,70h42v1h-42zM325,70h44v1h-44zM71,71h41v1h-41zM326,71h44v1h-44zM70,72h41v1h-41zM327,72h44v1h-44zM70,73h40v1h-40zM329,73h42v1h-42zM69,74h40v1h-40zM330,74h42v1h-42zM69,75h39v1h-39zM331,75h42v1h-42zM68,76h39v1h-39zM332,76h41v1h-41zM68,77h38v1h-38zM333,77h41v1h-41zM67,78h39v1h-39zM334,78h40v1h-40zM67,79h38v1h-38zM335,79h40v1h-40zM66,80h38v1h-38zM335,80h41v1h-41zM66,81h37v1h-37zM336,81h40v1h-40zM65,82h38v1h-38zM337,82h40v1h-40zM65,83h37v1h-37zM338,83h39v1h-39zM64,84h37v1h-37zM339,84h39v1h-39zM64,85h37v1h-37zM340,85h38v1h-38zM64,86h36v1h-36zM340,86h39v1h-39zM63,87h36v1h-36zM341,87h38v1h-38zM63,88h36v1h-36zM342,88h38v1h-38zM62,89h36v1h-36zM343,89h37v1h-37zM62,90h36v1h-36zM343,90h38v1h-38zM62,91h35v1h-35zM344,91h37v1h-37zM61,92h36v1h-36zM345,92h37v1h-37zM61,93h35v1h-35zM345,93h37v1h-37zM61,94h35v1h-35zM346,94h36v1h-36zM60,95h35v1h-35zM346,95h37v1h-37zM60,96h35v1h-35zM347,96h36v1h-36zM60,97h34v1h-34zM348,97h36v1h-36zM60,98h34v1h-34zM348,98h36v1h-36zM59,99h35v1h-35zM349,99h35v1h-35zM59,100h34v1h-34zM349,100h36v1h-36zM59,101h34v1h-34zM350,101h35v1h-35zM59,102h34v1h-34zM350,102h35v1h-35zM58,103h34v1h-34zM351,103h35v1h-35zM58,104h34v1h-34zM351,104h35v1h-35zM58,105h34v1h-34zM352,105h34v1h-34zM58,106h33v1h-33zM352,106h35v1h-35zM58,107h33v1h-33zM352,107h35v1h-35zM57,108h34v1h-34zM353,108h34v1h-34zM57,109h34v1h-34zM353,109h35v1h-35zM57,110h33v1h-33zM354,110h34v1h-34zM57,111h33v1h-33zM354,111h34v1h-34zM57,112h33v1h-33zM354,112h34v1h-34zM57,113h33v1h-33zM355,113h34v1h-34zM56,114h34v1h-34zM355,114h34v1h-34zM56,115h33v1h-33zM355,115h34v1h-34zM56,116h33v1h-33zM356,116h33v1h-33zM56,117h33v1h-33zM356,117h34v1h-34zM56,118h33v1h-33zM356,118h34v1h-34zM56,119h33v1h-33zM356,119h34v1h-34zM56,120h33v1h-33zM357,120h33v1h-33zM56,121h33v1h-33zM357,121h33v1h-33zM56,122h33v1h-33zM357,122h34v1h-34zM56,123h33v1h-33zM357,123h34v1h-34zM56,124h32v1h-32zM358,124h33v1h-33zM56,125h32v1h-32zM358,125h33v1h-33zM56,126h32v1h-32zM358,126h33v1h-33zM56,127h32v1h-32zM358,127h33v1h-33zM56,128h32v1h-32zM358,128h33v1h-33zM56,129h32v1h-32zM359,129h33v1h-33zM56,130h32v1h-32zM359,130h33v1h-33zM56,131h32v1h-32zM359,131h33v1h-33zM56,132h32v1h-32zM359,132h33v1h-33zM56,133h32v1h-32zM359,133h33v1h-33zM56,134h32v1h-32zM359,134h33v1h-33zM56,135h32v1h-32zM359,135h33v1h-33zM56,136h32v1h-32zM359,136h33v1h-33zM56,137h32v1h-32zM359,137h33v1h-33zM56,138h32v1h-32zM359,138h33v1h-33zM56,139h32v1h-32zM359,139h33v1h-33zM56,140h32v1h-32zM360,140h32v1h-32zM56,141h32v1h-32zM360,141h32v1h-32zM56,142h32v1h-32zM360,142h32v1h-32zM56,143h32v1h-32zM360,143h32v1h-32zM56,144h32v1h-32zM360,144h32v1h-32zM56,145h32v1h-32zM360,145h32v1h-32zM56,146h32v1h-32zM360,146h32v1h-32zM56,147h32v1h-32zM360,147h32v1h-32zM56,148h32v1h-32zM359,148h33v1h-33zM56,149h32v1h-32zM359,149h33v1h-33zM56,150h32v1h-32zM359,150h33v1h-33zM56,151h32v1h-32zM359,151h33v1h-33zM56,152h32v1h-32zM359,152h33v1h-33zM56,153h32v1h-32zM359,153h33v1h-33zM56,154h32v1h-32zM359,154h33v1h-33zM56,155h32v1h-32zM359,155h33v1h-33zM56,156h32v1h-32zM359,156h33v1h-33zM56,157h32v1h-32zM359,157h33v1h-33zM56,158h32v1h-32zM359,158h33v1h-33zM56,159h32v1h-32zM358,159h33v1h-33zM56,160h32v1h-32zM358,160h33v1h-33zM56,161h32v1h-32zM358,161h33v1h-33zM56,162h32v1h-32zM358,162h33v1h-33zM56,163h32v1h-32zM358,163h33v1h-33zM56,164h32v1h-32zM357,164h34v1h-34zM56,165h32v1h-32zM357,165h34v1h-34zM56,166h32v1h-32zM357,166h33v1h-33zM56,167h32v1h-32zM357,167h33v1h-33zM56,168h32v1h-32zM356,168h34v1h-34zM56,169h32v1h-32zM356,169h34v1h-34zM56,170h32v1h-32zM356,170h34v1h-34zM56,171h32v1h-32zM356,171h33v1h-33zM56,172h32v1h-32zM355,172h34v1h-34zM56,173h32v1h-32zM355,173h34v1h-34zM56,174h32v1h-32zM355,174h34v1h-34zM56,175h32v1h-32zM354,175h34v1h-34zM56,176h32v1h-32zM354,176h34v1h-34zM56,177h32v1h-32zM354,177h34v1h-34zM56,178h32v1h-32zM353,178h35v1h-35zM56,179h32v1h-32zM353,179h34v1h-34zM56,180h32v1h-32zM352,180h35v1h-35zM56,181h32v1h-32zM352,181h35v1h-35zM56,182h32v1h-32zM352,182h34v1h-34zM56,183h32v1h-32zM351,183h35v1h-35zM56,184h32v1h-32zM351,184h35v1h-35zM56,185h32v1h-32zM350,185h35v1h-35zM56,186h32v1h-32zM350,186h35v1h-35zM56,187h32v1h-32zM349,187h36v1h-36zM56,188h32v1h-32zM349,188h35v1h-35zM56,189h32v1h-32zM348,189h36v1h-36zM56,190h32v1h-32zM348,190h36v1h-36zM56,191h32v1h-32zM347,191h36v1h-36zM56,192h32v1h-32zM346,192h37v1h-37zM56,193h32v1h-32zM346,193h36v1h-36zM56,194h32v1h-32zM345,194h37v1h-37zM56,195h32v1h-32zM345,195h37v1h-37zM56,196h32v1h-32zM344,196h37v1h-37zM56,197h32v1h-32zM343,197h38v1h-38zM56,198h32v1h-32zM343,198h37v1h-37zM56,199h32v1h-32zM342,199h38v1h-38zM56,200h32v1h-32zM341,200h38v1h-38zM56,201h32v1h-32zM340,201h39v1h-39zM56,202h32v1h-32zM340,202h38v1h-38zM56,203h32v1h-32zM339,203h39v1h-39zM56,204h32v1h-32zM338,204h39v1h-39zM56,205h32v1h-32zM337,205h40v1h-40zM56,206h32v1h-32zM336,206h40v1h-40zM56,207h32v1h-32zM335,207h41v1h-41zM56,208h32v1h-32zM335,208h40v1h-40zM56,209h32v1h-32zM334,209h40v1h-40zM56,210h32v1h-32zM333,210h41v1h-41zM56,211h32v1h-32zM332,211h41v1h-41zM56,212h32v1h-32zM331,212h42v1h-42zM56,213h32v1h-32zM330,213h42v1h-42zM56,214h32v1h-32zM329,214h42v1h-42zM56,215h32v1h-32zM327,215h44v1h-44zM56,216h32v1h-32zM326,216h44v1h-44zM56,217h32v1h-32zM325,217h44v1h-44zM56,218h32v1h-32zM324,218h44v1h-44zM56,219h32v1h-32zM323,219h45v1h-45zM56,220h32v1h-32zM321,220h46v1h-46zM56,221h32v1h-32zM320,221h46v1h-46zM56,222h32v1h-32zM319,222h47v1h-47zM56,223h32v1h-32zM317,223h48v1h-48zM56,224h32v1h-32zM316,224h48v1h-48zM56,225h32v1h-32zM314,225h49v1h-49zM56,226h32v1h-32zM312,226h50v1h-50zM56,227h32v1h-32zM311,227h50v1h-50zM56,228h32v1h-32zM309,228h52v1h-52zM56,229h32v1h-32zM307,229h53v1h-53zM56,230h32v1h-32zM305,230h54v1h-54zM56,231h32v1h-32zM303,231h55v1h-55zM56,232h32v1h-32zM300,232h57v1h-57zM56,233h32v1h-32zM298,233h58v1h-58zM56,234h32v1h-32zM295,234h60v1h-60zM56,235h32v1h-32zM292,235h62v1h-62zM56,236h32v1h-32zM288,236h65v1h-65zM56,237h32v1h-32zM284,237h68v1h-68zM56,238h32v1h-32zM279,238h73v1h-73zM56,239h32v1h-32zM268,239h84v1h-84zM56,240h296v1h-296zM56,241h296v1h-296zM56,242h299v1h-299zM56,243h303v1h-303zM56,244h307v1h-307zM56,245h310v1h-310zM56,246h314v1h-314zM56,247h316v1h-316zM56,248h319v1h-319zM56,249h321v1h-321zM56,250h324v1h-324zM56,251h326v1h-326zM56,252h328v1h-328zM56,253h330v1h-330zM56,254h332v1h-332zM56,255h334v1h-334zM56,256h336v1h-336zM56,257h337v1h-337zM56,258h339v1h-339zM56,259h341v1h-341zM56,260h342v1h-342zM56,261h344v1h-344zM56,262h345v1h-345zM56,263h347v1h-347zM56,264h348v1h-348zM56,265h349v1h-349zM56,266h351v1h-351zM56,267h352v1h-352zM56,268h353v1h-353zM56,269h354v1h-354zM56,270h355v1h-355zM56,271h357v1h-357zM56,272h32v1h-32zM332,272h82v1h-82zM56,273h32v1h-32zM343,273h72v1h-72zM56,274h32v1h-32zM348,274h68v1h-68zM56,275h32v1h-32zM352,275h65v1h-65zM56,276h32v1h-32zM356,276h62v1h-62zM56,277h32v1h-32zM359,277h60v1h-60zM56,278h32v1h-32zM362,278h58v1h-58zM56,279h32v1h-32zM364,279h57v1h-57zM56,280h32v1h-32zM367,280h55v1h-55zM56,281h32v1h-32zM369,281h54v1h-54zM56,282h32v1h-32zM371,282h53v1h-53zM56,283h32v1h-32zM373,283h52v1h-52zM56,284h32v1h-32zM375,284h50v1h-50zM56,285h32v1h-32zM376,285h50v1h-50zM56,286h32v1h-32zM378,286h49v1h-49zM56,287h32v1h-32zM380,287h48v1h-48zM56,288h32v1h-32zM381,288h48v1h-48zM56,289h32v1h-32zM383,289h47v1h-47zM56,290h32v1h-32zM384,290h46v1h-46zM56,291h32v1h-32zM385,291h46v1h-46zM56,292h32v1h-32zM387,292h45v1h-45zM56,293h32v1h-32zM388,293h45v1h-45zM56,294h32v1h-32zM389,294h44v1h-44zM56,295h32v1h-32zM390,295h44v1h-44zM56,296h32v1h-32zM391,296h44v1h-44zM56,297h32v1h-32zM393,297h42v1h-42zM56,298h32v1h-32zM394,298h42v1h-42zM56,299h32v1h-32zM395,299h42v1h-42zM56,300h32v1h-32zM396,300h41v1h-41zM56,301h32v1h-32zM397,301h41v1h-41zM56,302h32v1h-32zM398,302h40v1h-40zM56,303h32v1h-32zM399,303h40v1h-40zM56,304h32v1h-32zM399,304h41v1h-41zM56,305h32v1h-32zM400,305h40v1h-40zM56,306h32v1h-32zM401,306h40v1h-40zM56,307h32v1h-32zM402,307h39v1h-39zM56,308h32v1h-32zM403,308h39v1h-39zM56,309h32v1h-32zM404,309h38v1h-38zM56,310h32v1h-32zM404,310h39v1h-39zM56,311h32v1h-32zM405,311h38v1h-38zM56,312h32v1h-32zM406,312h38v1h-38zM56,313h32v1h-32zM407,313h37v1h-37zM56,314h32v1h-32zM407,314h38v1h-38zM56,315h32v1h-32zM408,315h37v1h-37zM56,316h32v1h-32zM409,316h37v1h-37zM56,317h32v1h-32zM409,317h37v1h-37zM56,318h32v1h-32zM410,318h36v1h-36zM56,319h32v1h-32zM410,319h37v1h-37zM56,320h32v1h-32zM411,320h36v1h-36zM56,321h32v1h-32zM412,321h36v1h-36zM56,322h32v1h-32zM412,322h36v1h-36zM56,323h32v1h-32zM413,323h35v1h-35zM56,324h32v1h-32zM413,324h36v1h-36zM56,325h32v1h-32zM414,325h35v1h-35zM56,326h32v1h-32zM414,326h35v1h-35zM56,327h32v1h-32zM415,327h35v1h-35zM56,328h32v1h-32zM415,328h35v1h-35zM56,329h32v1h-32zM416,329h34v1h-34zM56,330h32v1h-32zM416,330h35v1h-35zM56,331h32v1h-32zM416,331h35v1h-35zM56,332h32v1h-32zM417,332h34v1h-34zM56,333h32v1h-32zM417,333h35v1h-35zM56,334h32v1h-32zM418,334h34v1h-34zM56,335h32v1h-32zM418,335h34v1h-34zM56,336h32v1h-32zM418,336h34v1h-34zM56,337h32v1h-32zM419,337h34v1h-34zM56,338h32v1h-32zM419,338h34v1h-34zM56,339h32v1h-32zM419,339h34v1h-34zM56,340h32v1h-32zM420,340h33v1h-33zM56,341h32v1h-32zM420,341h34v1h-34zM56,342h32v1h-32zM420,342h34v1h-34zM56,343h32v1h-32zM420,343h34v1h-34zM56,344h32v1h-32zM421,344h33v1h-33zM56,345h32v1h-32zM421,345h33v1h-33zM56,346h32v1h-32zM421,346h34v1h-34zM56,347h32v1h-32zM421,347h34v1h-34zM56,348h32v1h-32zM422,348h33v1h-33zM56,349h32v1h-32zM422,349h33v1h-33zM56,350h32v1h-32zM422,350h33v1h-33zM56,351h32v1h-32zM422,351h33v1h-33zM56,352h32v1h-32zM422,352h33v1h-33zM56,353h32v1h-32zM423,353h33v1h-33zM56,354h32v1h-32zM423,354h33v1h-33zM56,355h32v1h-32zM423,355h33v1h-33zM56,356h32v1h-32zM423,356h33v1h-33zM56,357h32v1h-32zM423,357h33v1h-33zM56,358h32v1h-32zM423,358h33v1h-33zM56,359h32v1h-32zM423,359h33v1h-33zM56,360h32v1h-32zM423,360h33v1h-33zM56,361h32v1h-32zM423,361h33v1h-33zM56,362h32v1h-32zM423,362h33v1h-33zM56,363h32v1h-32zM423,363h33v1h-33zM56,364h32v1h-32zM424,364h32v1h-32zM56,365h32v1h-32zM424,365h32v1h-32zM56,366h32v1h-32zM424,366h32v1h-32zM56,367h32v1h-32zM424,367h32v1h-32zM56,368h32v1h-32zM424,368h32v1h-32zM56,369h32v1h-32zM424,369h32v1h-32zM56,370h32v1h-32zM424,370h32v1h-32zM56,371h32v1h-32zM424,371h32v1h-32zM56,372h32v1h-32zM423,372h33v1h-33zM56,373h32v1h-32zM423,373h33v1h-33zM56,374h32v1h-32zM423,374h33v1h-33zM56,375h32v1h-32zM423,375h33v1h-33zM56,376h32v1h-32zM423,376h33v1h-33zM56,377h32v1h-32zM423,377h33v1h-33zM56,378h32v1h-32zM423,378h33v1h-33zM56,379h32v1h-32zM423,379h33v1h-33zM56,380h32v1h-32zM423,380h33v1h-33zM56,381h32v1h-32zM423,381h33v1h-33zM56,382h32v1h-32zM423,382h33v1h-33zM56,383h32v1h-32zM422,383h33v1h-33zM56,384h32v1h-32zM422,384h33v1h-33zM56,385h32v1h-32zM422,385h33v1h-33zM56,386h32v1h-32zM422,386h33v1h-33zM56,387h32v1h-32zM422,387h33v1h-33zM56,388h33v1h-33zM421,388h34v1h-34zM56,389h33v1h-33zM421,389h34v1h-34zM56,390h33v1h-33zM421,390h33v1h-33zM56,391h33v1h-33zM421,391h33v1h-33zM56,392h33v1h-33zM420,392h34v1h-34zM56,393h33v1h-33zM420,393h34v1h-34zM56,394h33v1h-33zM420,394h34v1h-34zM56,395h33v1h-33zM420,395h33v1h-33zM56,396h33v1h-33zM419,396h34v1h-34zM56,397h34v1h-34zM419,397h34v1h-34zM57,398h33v1h-33zM419,398h34v1h-34zM57,399h33v1h-33zM418,399h34v1h-34zM57,400h33v1h-33zM418,400h34v1h-34zM57,401h33v1h-33zM418,401h34v1h-34zM57,402h34v1h-34zM417,402h35v1h-35zM57,403h34v1h-34zM417,403h34v1h-34zM58,404h33v1h-33zM416,404h35v1h-35zM58,405h33v1h-33zM416,405h35v1h-35zM58,406h34v1h-34zM416,406h34v1h-34zM58,407h34v1h-34zM415,407h35v1h-35zM58,408h34v1h-34zM415,408h35v1h-35zM59,409h34v1h-34zM414,409h35v1h-35zM59,410h34v1h-34zM414,410h35v1h-35zM59,411h34v1h-34zM413,411h36v1h-36zM59,412h35v1h-35zM413,412h35v1h-35zM60,413h34v1h-34zM412,413h36v1h-36zM60,414h34v1h-34zM412,414h36v1h-36zM60,415h35v1h-35zM411,415h36v1h-36zM60,416h35v1h-35zM410,416h37v1h-37zM61,417h35v1h-35zM410,417h36v1h-36zM61,418h35v1h-35zM409,418h37v1h-37zM61,419h36v1h-36zM409,419h37v1h-37zM62,420h35v1h-35zM408,420h37v1h-37zM62,421h36v1h-36zM407,421h38v1h-38zM62,422h36v1h-36zM407,422h37v1h-37zM63,423h36v1h-36zM406,423h38v1h-38zM63,424h36v1h-36zM405,424h38v1h-38zM64,425h36v1h-36zM404,425h39v1h-39zM64,426h37v1h-37zM404,426h38v1h-38zM64,427h37v1h-37zM403,427h39v1h-39zM65,428h37v1h-37zM402,428h39v1h-39zM65,429h38v1h-38zM401,429h40v1h-40zM66,430h37v1h-37zM400,430h40v1h-40zM66,431h38v1h-38zM399,431h41v1h-41zM67,432h38v1h-38zM399,432h40v1h-40zM67,433h39v1h-39zM398,433h40v1h-40zM68,434h38v1h-38zM397,434h41v1h-41zM68,435h39v1h-39zM396,435h41v1h-41zM69,436h39v1h-39zM395,436h42v1h-42zM69,437h40v1h-40zM394,437h42v1h-42zM70,438h40v1h-40zM393,438h42v1h-42zM70,439h41v1h-41zM391,439h44v1h-44zM71,440h41v1h-41zM390,440h44v1h-44zM71,441h42v1h-42zM389,441h44v1h-44zM72,442h42v1h-42zM388,442h44v1h-44zM73,443h42v1h-42zM387,443h45v1h-45zM73,444h43v1h-43zM385,444h46v1h-46zM74,445h43v1h-43zM384,445h46v1h-46zM75,446h44v1h-44zM383,446h47v1h-47zM75,447h45v1h-45zM381,447h48v1h-48zM76,448h45v1h-45zM380,448h48v1h-48zM77,449h46v1h-46zM378,449h49v1h-49zM77,450h47v1h-47zM376,450h50v1h-50zM78,451h48v1h-48zM375,451h50v1h-50zM79,452h48v1h-48zM373,452h52v1h-52zM80,453h49v1h-49zM371,453h53v1h-53zM81,454h50v1h-50zM369,454h54v1h-54zM81,455h52v1h-52zM367,455h55v1h-55zM82,456h53v1h-53zM364,456h57v1h-57zM83,457h54v1h-54zM362,457h58v1h-58zM84,458h56v1h-56zM359,458h60v1h-60zM85,459h58v1h-58zM356,459h62v1h-62zM86,460h60v1h-60zM352,460h65v1h-65zM87,461h63v1h-63zM348,461h68v1h-68zM88,462h67v1h-67zM343,462h72v1h-72zM89,463h75v1h-75zM332,463h82v1h-82zM90,464h323v1h-323zM91,465h320v1h-320zM92,466h318v1h-318zM93,467h316v1h-316zM94,468h314v1h-314zM95,469h312v1h-312zM96,470h309v1h-309zM98,471h306v1h-306zM99,472h303v1h-303zM100,473h301v1h-301zM101,474h299v1h-299zM103,475h295v1h-295zM104,476h293v1h-293zM106,477h289v1h-289zM107,478h286v1h-286zM109,479h283v1h-283zM110,480h280v1h-280zM112,481h276v1h-276zM114,482h272v1h-272zM116,483h268v1h-268zM118,484h264v1h-264zM120,485h260v1h-260zM122,486h255v1h-255zM124,487h251v1h-251zM127,488h245v1h-245zM129,489h240v1h-240zM132,490h234v1h-234zM135,491h228v1h-228zM139,492h220v1h-220zM143,493h212v1h-212zM148,494h202v1h-202zM154,495h189v1h-189z"/></svg>