<?xml version="1.0" encoding="UTF-8"?>
<svg xmlns="http://www.w3.org/2000/svg" viewBox="0 0 512 512" width="512" height="512"><path fill="#000" d="M247,42h18v1h-18zM233,43h46v1h-46zM226,44h61v1h-61zM219,45h74v1h-74zM214,46h84v1h-84zM209,47h94v1h-94zM205,48h102v1h-102zM201,49h110v1h-110zM197,50h118v1h-118zM194,51h124v1h-124zM191,52h130v1h-130zM188,53h136v1h-136zM185,54h142v1h-142zM182,55h148v1h-148zM179,56h154v1h-154zM177,57h158v1h-158zM174,58h164v1h-164zM172,59h168v1h-168zM170,60h172v1h-172zM167,61h178v1h-178zM165,62h182v1h-182zM163,63h186v1h-186zM161,64h190v1h-190zM159,65h194v1h-194zM157,66h198v1h-198zM155,67h202v1h-202zM153,68h206v1h-206zM152,69h208v1h-208zM150,70h212v1h-212zM148,71h216v1h-216zM146,72h220v1h-220zM145,73h222v1h-222zM143,74h226v1h-226zM142,75h228v1h-228zM140,76h232v1h-232zM139,77h234v1h-234zM137,78h238v1h-238zM136,79h240v1h-240zM134,80h244v1h-244zM133,81h246v1h-246zM131,82h250v1h-250zM130,83h252v1h-252zM128,84h256v1h-256zM127,85h258v1h-258zM126,86h114v1h-114zM272,86h114v1h-114zM125,87h106v1h-106zM281,87h106v1h-106zM123,88h102v1h-102zM287,88h102v1h-102zM122,89h98v1h-98zM292,89h98v1h-98zM121,90h95v1h-95zM296,90h95v1h-95zM120,91h92v1h-92zM300,91h92v1h-92zM118,92h90v1h-90zM304,92h90v1h-90zM117,93h88v1h-88zM307,93h88v1h-88zM116,94h86v1h-86zM310,94h86v1h-86zM115,95h84v1h-84zM313,95h84v1h-84zM114,96h82v1h-82zM316,96h82v1h-82zM113,97h81v1h-81zM318,97h81v1h-81zM112,98h79v1h-79zM321,98h79v1h-79zM111,99h78v1h-78zM323,99h78v1h-78zM109,100h78v1h-78zM325,100h78v1h-78zM108,101h76v1h-76zM328,101h76v1h-76zM107,102h75v1h-75zM330,102h75v1h-75zM106,103h74v1h-74zM332,103h74v1h-74zM105,104h73v1h-73zM334,104h73v1h-73zM104,105h72v1h-72zM336,105h72v1h-72zM103,106h71v1h-71zM338,106h71v1h-71zM102,107h71v1h-71zM339,107h71v1h-71zM101,108h70v1h-70zM341,108h70v1h-70zM101,109h68v1h-68zM343,109h69v1h-69zM100,110h67v1h-67zM345,110h67v1h-67zM99,111h67v1h-67zM346,111h67v1h-67zM98,112h66v1h-66zM348,112h66v1h-66zM97,113h66v1h-66zM349,113h66v1h-66zM96,114h65v1h-65zM351,114h65v1h-65zM95,115h65v1h-65zM352,115h65v1h-65zM94,116h64v1h-64zM354,116h64v1h-64zM93,117h64v1h-64zM355,117h64v1h-64zM92,118h64v1h-64zM356,118h64v1h-64zM92,119h62v1h-62zM358,119h62v1h-62zM91,120h62v1h-62zM359,120h62v1h-62zM90,121h62v1h-62zM360,121h62v1h-62zM89,122h61v1h-61zM362,122h61v1h-61zM88,123h61v1h-61zM363,123h61v1h-61zM88,124h60v1h-60zM364,124h60v1h-60zM87,125h60v1h-60zM365,125h60v1h-60zM86,126h59v1h-59zM367,126h59v1h-59zM85,127h59v1h-59zM368,127h59v1h-59zM84,128h59v1h-59zM369,128h58v1h-58zM84,129h58v1h-58zM370,129h58v1h-58zM83,130h58v1h-58zM371,130h58v1h-58zM82,131h58v1h-58zM372,131h58v1h-58zM82,132h57v1h-57zM373,132h57v1h-57zM81,133h57v1h-57zM374,133h57v1h-57zM80,134h57v1h-57zM375,134h57v1h-57zM80,135h56v1h-56zM376,135h56v1h-56zM79,136h56v1h-56zM377,136h56v1h-56zM78,137h56v1h-56zM378,137h56v1h-56zM78,138h55v1h-55zM379,138h55v1h-55zM77,139h55v1h-55zM380,139h55v1h-55zM76,140h55v1h-55zM381,140h55v1h-55zM76,141h54v1h-54zM382,141h54v1h-54zM75,142h54v1h-54zM383,142h54v1h-54zM74,143h54v1h-54zM384,143h54v1h-54zM74,144h53v1h-53zM385,144h53v1h-53zM73,145h53v1h-53zM386,145h53v1h-53zM72,146h54v1h-54zM386,146h54v1h-54zM72,147h53v1h-53zM387,147h53v1h-53zM71,148h53v1h-53zM388,148h53v1h-53zM71,149h52v1h-52zM358,149h9v1h-9zM389,149h52v1h-52zM70,150h52v1h-52zM355,150h16v1h-16zM390,150h52v1h-52zM70,151h52v1h-52zM353,151h20v1h-20zM390,151h52v1h-52zM69,152h52v1h-52zM351,152h23v1h-23zM391,152h52v1h-52zM68,153h52v1h-52zM349,153h27v1h-27zM392,153h52v1h-52zM68,154h51v1h-51zM348,154h29v1h-29zM393,154h51v1h-51zM67,155h52v1h-52zM347,155h31v1h-31zM393,155h52v1h-52zM67,156h51v1h-51zM346,156h33v1h-33zM394,156h51v1h-51zM66,157h51v1h-51zM345,157h35v1h-35zM395,157h51v1h-51zM66,158h50v1h-50zM345,158h36v1h-36zM396,158h50v1h-50zM65,159h51v1h-51zM344,159h37v1h-37zM396,159h51v1h-51zM65,160h50v1h-50zM343,160h39v1h-39zM397,160h50v1h-50zM64,161h50v1h-50zM342,161h40v1h-40zM398,161h50v1h-50zM64,162h50v1h-50zM341,162h42v1h-42zM398,162h50v1h-50zM63,163h50v1h-50zM340,163h43v1h-43zM399,163h50v1h-50zM63,164h49v1h-49zM339,164h44v1h-44zM400,164h49v1h-49zM62,165h50v1h-50zM338,165h46v1h-46zM400,165h50v1h-50zM62,166h49v1h-49zM338,166h46v1h-46zM401,166h49v1h-49zM61,167h49v1h-49zM337,167h47v1h-47zM402,167h48v1h-48zM61,168h49v1h-49zM336,168h48v1h-48zM402,168h49v1h-49zM61,169h48v1h-48zM335,169h49v1h-49zM403,169h48v1h-48zM60,170h49v1h-49zM334,170h50v1h-50zM403,170h49v1h-49zM60,171h48v1h-48zM333,171h51v1h-51zM404,171h48v1h-48zM59,172h49v1h-49zM332,172h52v1h-52zM404,172h49v1h-49zM59,173h48v1h-48zM332,173h52v1h-52zM405,173h48v1h-48zM58,174h48v1h-48zM331,174h53v1h-53zM406,174h48v1h-48zM58,175h48v1h-48zM330,175h54v1h-54zM406,175h48v1h-48zM58,176h47v1h-47zM329,176h55v1h-55zM407,176h47v1h-47zM57,177h48v1h-48zM328,177h55v1h-55zM407,177h48v1h-48zM57,178h47v1h-47zM327,178h56v1h-56zM408,178h47v1h-47zM56,179h48v1h-48zM326,179h56v1h-56zM408,179h48v1h-48zM56,180h47v1h-47zM325,180h57v1h-57zM409,180h47v1h-47zM56,181h47v1h-47zM325,181h56v1h-56zM409,181h47v1h-47zM55,182h47v1h-47zM324,182h57v1h-57zM410,182h47v1h-47zM55,183h47v1h-47zM323,183h57v1h-57zM410,183h47v1h-47zM55,184h46v1h-46zM322,184h57v1h-57zM411,184h46v1h-46zM54,185h47v1h-47zM321,185h58v1h-58zM411,185h47v1h-47zM54,186h47v1h-47zM320,186h58v1h-58zM411,186h47v1h-47zM54,187h46v1h-46zM319,187h58v1h-58zM412,187h46v1h-46zM53,188h47v1h-47zM319,188h57v1h-57zM412,188h47v1h-47zM53,189h46v1h-46zM318,189h57v1h-57zM413,189h46v1h-46zM53,190h46v1h-46zM317,190h57v1h-57zM413,190h46v1h-46zM52,191h46v1h-46zM316,191h57v1h-57zM414,191h46v1h-46zM52,192h46v1h-46zM315,192h57v1h-57zM414,192h46v1h-46zM52,193h46v1h-46zM314,193h58v1h-58zM414,193h46v1h-46zM51,194h46v1h-46zM313,194h58v1h-58zM415,194h46v1h-46zM51,195h46v1h-46zM312,195h58v1h-58zM415,195h46v1h-46zM51,196h45v1h-45zM312,196h57v1h-57zM416,196h45v1h-45zM50,197h46v1h-46zM311,197h57v1h-57zM416,197h46v1h-46zM50,198h46v1h-46zM310,198h57v1h-57zM416,198h46v1h-46zM50,199h45v1h-45zM309,199h57v1h-57zM417,199h45v1h-45zM50,200h45v1h-45zM308,200h58v1h-58zM417,200h45v1h-45zM49,201h46v1h-46zM307,201h58v1h-58zM417,201h46v1h-46zM49,202h45v1h-45zM306,202h58v1h-58zM418,202h45v1h-45zM49,203h45v1h-45zM306,203h57v1h-57zM418,203h45v1h-45zM49,204h45v1h-45zM305,204h57v1h-57zM418,204h45v1h-45zM48,205h45v1h-45zM304,205h57v1h-57zM419,205h45v1h-45zM48,206h45v1h-45zM303,206h57v1h-57zM419,206h45v1h-45zM48,207h45v1h-45zM302,207h58v1h-58zM419,207h45v1h-45zM48,208h44v1h-44zM301,208h58v1h-58zM420,208h44v1h-44zM47,209h45v1h-45zM300,209h58v1h-58zM420,209h45v1h-45zM47,210h45v1h-45zM300,210h57v1h-57zM420,210h45v1h-45zM47,211h45v1h-45zM299,211h57v1h-57zM420,211h45v1h-45zM47,212h44v1h-44zM298,212h57v1h-57zM421,212h44v1h-44zM47,213h44v1h-44zM297,213h57v1h-57zM421,213h44v1h-44zM46,214h45v1h-45zM296,214h57v1h-57zM421,214h45v1h-45zM46,215h45v1h-45zM295,215h58v1h-58zM421,215h45v1h-45zM46,216h44v1h-44zM294,216h58v1h-58zM422,216h44v1h-44zM46,217h44v1h-44zM293,217h58v1h-58zM422,217h44v1h-44zM46,218h44v1h-44zM293,218h57v1h-57zM422,218h44v1h-44zM45,219h45v1h-45zM292,219h57v1h-57zM422,219h45v1h-45zM45,220h44v1h-44zM291,220h57v1h-57zM423,220h44v1h-44zM45,221h44v1h-44zM290,221h57v1h-57zM423,221h44v1h-44zM45,222h44v1h-44zM289,222h58v1h-58zM423,222h44v1h-44zM45,223h44v1h-44zM288,223h58v1h-58zM423,223h44v1h-44zM45,224h44v1h-44zM287,224h58v1h-58zM423,224h44v1h-44zM44,225h44v1h-44zM287,225h57v1h-57zM424,225h44v1h-44zM44,226h44v1h-44zM286,226h57v1h-57zM424,226h44v1h-44zM44,227h44v1h-44zM285,227h57v1h-57zM424,227h44v1h-44zM44,228h44v1h-44zM284,228h57v1h-57zM424,228h44v1h-44zM44,229h44v1h-44zM283,229h57v1h-57zM424,229h44v1h-44zM44,230h44v1h-44zM282,230h58v1h-58zM424,230h44v1h-44zM44,231h43v1h-43zM281,231h58v1h-58zM424,231h44v1h-44zM44,232h43v1h-43zM280,232h58v1h-58zM425,232h43v1h-43zM43,233h44v1h-44zM280,233h57v1h-57zM425,233h44v1h-44zM43,234h44v1h-44zM279,234h57v1h-57zM425,234h44v1h-44zM43,235h44v1h-44zM278,235h57v1h-57zM425,235h44v1h-44zM43,236h44v1h-44zM277,236h57v1h-57zM425,236h44v1h-44zM43,237h44v1h-44zM276,237h58v1h-58zM425,237h44v1h-44zM43,238h44v1h-44zM275,238h58v1h-58zM425,238h44v1h-44zM43,239h44v1h-44zM274,239h58v1h-58zM425,239h44v1h-44zM43,240h43v1h-43zM274,240h57v1h-57zM426,240h43v1h-43zM43,241h43v1h-43zM273,241h57v1h-57zM426,241h43v1h-43zM43,242h43v1h-43zM272,242h57v1h-57zM426,242h43v1h-43zM43,243h43v1h-43zM271,243h57v1h-57zM426,243h43v1h-43zM43,244h43v1h-43zM270,244h57v1h-57zM426,244h43v1h-43zM43,245h43v1h-43zM269,245h58v1h-58zM426,245h43v1h-43zM43,246h43v1h-43zM268,246h58v1h-58zM426,246h43v1h-43zM42,247h44v1h-44zM267,247h58v1h-58zM426,247h43v1h-43zM42,248h44v1h-44zM267,248h57v1h-57zM426,248h44v1h-44zM42,249h44v1h-44zM143,249h13v1h-13zM266,249h57v1h-57zM426,249h44v1h-44zM42,250h44v1h-44zM140,250h18v1h-18zM265,250h57v1h-57zM426,250h44v1h-44zM42,251h44v1h-44zM138,251h22v1h-22zM264,251h57v1h-57zM426,251h44v1h-44zM42,252h44v1h-44zM137,252h25v1h-25zM263,252h58v1h-58zM426,252h44v1h-44zM42,253h44v1h-44zM136,253h27v1h-27zM262,253h58v1h-58zM426,253h44v1h-44zM42,254h44v1h-44zM134,254h30v1h-30zM261,254h58v1h-58zM426,254h44v1h-44zM42,255h44v1h-44zM133,255h32v1h-32zM261,255h57v1h-57zM426,255h44v1h-44zM42,256h44v1h-44zM133,256h33v1h-33zM260,256h57v1h-57zM426,256h44v1h-44zM42,257h44v1h-44zM132,257h35v1h-35zM259,257h57v1h-57zM426,257h44v1h-44zM42,258h44v1h-44zM131,258h37v1h-37zM258,258h57v1h-57zM426,258h44v1h-44zM42,259h44v1h-44zM130,259h39v1h-39zM257,259h57v1h-57zM426,259h44v1h-44zM42,260h44v1h-44zM130,260h40v1h-40zM256,260h58v1h-58zM426,260h44v1h-44zM42,261h44v1h-44zM129,261h42v1h-42zM255,261h58v1h-58zM426,261h44v1h-44zM42,262h44v1h-44zM129,262h43v1h-43zM255,262h57v1h-57zM426,262h44v1h-44zM42,263h44v1h-44zM129,263h44v1h-44zM254,263h57v1h-57zM426,263h44v1h-44zM42,264h44v1h-44zM128,264h46v1h-46zM253,264h57v1h-57zM426,264h43v1h-43zM43,265h43v1h-43zM128,265h47v1h-47zM252,265h57v1h-57zM426,265h43v1h-43zM43,266h43v1h-43zM128,266h47v1h-47zM251,266h57v1h-57zM426,266h43v1h-43zM43,267h43v1h-43zM128,267h48v1h-48zM250,267h58v1h-58zM426,267h43v1h-43zM43,268h43v1h-43zM128,268h49v1h-49zM249,268h58v1h-58zM426,268h43v1h-43zM43,269h43v1h-43zM128,269h50v1h-50zM248,269h58v1h-58zM426,269h43v1h-43zM43,270h43v1h-43zM128,270h51v1h-51zM248,270h57v1h-57zM426,270h43v1h-43zM43,271h43v1h-43zM128,271h52v1h-52zM247,271h57v1h-57zM426,271h43v1h-43zM43,272h44v1h-44zM128,272h53v1h-53zM246,272h57v1h-57zM425,272h44v1h-44zM43,273h44v1h-44zM128,273h54v1h-54zM245,273h57v1h-57zM425,273h44v1h-44zM43,274h44v1h-44zM128,274h55v1h-55zM244,274h58v1h-58zM425,274h44v1h-44zM43,275h44v1h-44zM128,275h56v1h-56zM243,275h58v1h-58zM425,275h44v1h-44zM43,276h44v1h-44zM129,276h56v1h-56zM242,276h58v1h-58zM425,276h44v1h-44zM43,277h44v1h-44zM129,277h57v1h-57zM242,277h57v1h-57zM425,277h44v1h-44zM43,278h44v1h-44zM129,278h58v1h-58zM241,278h57v1h-57zM425,278h44v1h-44zM44,279h43v1h-43zM130,279h57v1h-57zM240,279h57v1h-57zM425,279h43v1h-43zM44,280h43v1h-43zM130,280h58v1h-58zM239,280h57v1h-57zM424,280h44v1h-44zM44,281h44v1h-44zM131,281h58v1h-58zM238,281h57v1h-57zM424,281h44v1h-44zM44,282h44v1h-44zM131,282h59v1h-59zM237,282h58v1h-58zM424,282h44v1h-44zM44,283h44v1h-44zM132,283h59v1h-59zM236,283h58v1h-58zM424,283h44v1h-44zM44,284h44v1h-44zM133,284h59v1h-59zM235,284h58v1h-58zM424,284h44v1h-44zM44,285h44v1h-44zM134,285h59v1h-59zM235,285h57v1h-57zM424,285h44v1h-44zM44,286h44v1h-44zM135,286h59v1h-59zM234,286h57v1h-57zM423,286h45v1h-45zM45,287h44v1h-44zM136,287h59v1h-59zM233,287h57v1h-57zM423,287h44v1h-44zM45,288h44v1h-44zM137,288h59v1h-59zM232,288h57v1h-57zM423,288h44v1h-44zM45,289h44v1h-44zM138,289h59v1h-59zM231,289h58v1h-58zM423,289h44v1h-44zM45,290h44v1h-44zM139,290h59v1h-59zM230,290h58v1h-58zM423,290h44v1h-44zM45,291h44v1h-44zM139,291h60v1h-60zM229,291h58v1h-58zM423,291h44v1h-44zM45,292h45v1h-45zM140,292h59v1h-59zM229,292h57v1h-57zM422,292h45v1h-45zM46,293h44v1h-44zM141,293h59v1h-59zM228,293h57v1h-57zM422,293h44v1h-44zM46,294h44v1h-44zM142,294h59v1h-59zM227,294h57v1h-57zM422,294h44v1h-44zM46,295h44v1h-44zM143,295h59v1h-59zM226,295h57v1h-57zM422,295h44v1h-44zM46,296h45v1h-45zM144,296h59v1h-59zM225,296h57v1h-57zM421,296h45v1h-45zM46,297h45v1h-45zM145,297h59v1h-59zM224,297h58v1h-58zM421,297h45v1h-45zM47,298h44v1h-44zM146,298h59v1h-59zM223,298h58v1h-58zM421,298h44v1h-44zM47,299h44v1h-44zM147,299h59v1h-59zM222,299h58v1h-58zM421,299h44v1h-44zM47,300h45v1h-45zM148,300h59v1h-59zM222,300h57v1h-57zM420,300h45v1h-45zM47,301h45v1h-45zM149,301h59v1h-59zM221,301h57v1h-57zM420,301h45v1h-45zM47,302h45v1h-45zM150,302h59v1h-59zM220,302h57v1h-57zM420,302h45v1h-45zM48,303h44v1h-44zM151,303h59v1h-59zM219,303h57v1h-57zM420,303h44v1h-44zM48,304h45v1h-45zM151,304h60v1h-60zM218,304h58v1h-58zM419,304h45v1h-45zM48,305h45v1h-45zM152,305h59v1h-59zM217,305h58v1h-58zM419,305h45v1h-45zM48,306h45v1h-45zM153,306h121v1h-121zM419,306h45v1h-45zM49,307h45v1h-45zM154,307h119v1h-119zM418,307h45v1h-45zM49,308h45v1h-45zM155,308h117v1h-117zM418,308h45v1h-45zM49,309h45v1h-45zM156,309h115v1h-115zM418,309h45v1h-45zM49,310h46v1h-46zM157,310h113v1h-113zM417,310h46v1h-46zM50,311h45v1h-45zM158,311h111v1h-111zM417,311h45v1h-45zM50,312h45v1h-45zM159,312h110v1h-110zM417,312h45v1h-45zM50,313h46v1h-46zM160,313h108v1h-108zM416,313h46v1h-46zM50,314h46v1h-46zM161,314h106v1h-106zM416,314h46v1h-46zM51,315h45v1h-45zM162,315h104v1h-104zM416,315h45v1h-45zM51,316h46v1h-46zM163,316h102v1h-102zM415,316h46v1h-46zM51,317h46v1h-46zM163,317h101v1h-101zM415,317h46v1h-46zM52,318h46v1h-46zM164,318h99v1h-99zM414,318h46v1h-46zM52,319h46v1h-46zM165,319h98v1h-98zM414,319h46v1h-46zM52,320h46v1h-46zM166,320h96v1h-96zM414,320h46v1h-46zM53,321h46v1h-46zM167,321h94v1h-94zM413,321h46v1h-46zM53,322h46v1h-46zM168,322h92v1h-92zM413,322h46v1h-46zM53,323h47v1h-47zM169,323h90v1h-90zM412,323h47v1h-47zM54,324h46v1h-46zM170,324h88v1h-88zM412,324h46v1h-46zM54,325h47v1h-47zM171,325h86v1h-86zM411,325h47v1h-47zM54,326h47v1h-47zM172,326h85v1h-85zM411,326h47v1h-47zM55,327h46v1h-46zM173,327h83v1h-83zM411,327h46v1h-46zM55,328h47v1h-47zM174,328h81v1h-81zM410,328h47v1h-47zM55,329h47v1h-47zM175,329h79v1h-79zM410,329h47v1h-47zM56,330h47v1h-47zM175,330h78v1h-78zM409,330h47v1h-47zM56,331h47v1h-47zM176,331h76v1h-76zM409,331h47v1h-47zM56,332h48v1h-48zM177,332h74v1h-74zM408,332h48v1h-48zM57,333h47v1h-47zM178,333h72v1h-72zM408,333h47v1h-47zM57,334h48v1h-48zM179,334h71v1h-71zM407,334h48v1h-48zM58,335h47v1h-47zM180,335h69v1h-69zM407,335h47v1h-47zM58,336h48v1h-48zM181,336h67v1h-67zM406,336h48v1h-48zM58,337h48v1h-48zM182,337h65v1h-65zM406,337h48v1h-48zM59,338h48v1h-48zM183,338h63v1h-63zM405,338h48v1h-48zM59,339h49v1h-49zM184,339h61v1h-61zM404,339h49v1h-49zM60,340h48v1h-48zM185,340h59v1h-59zM404,340h48v1h-48zM60,341h49v1h-49zM186,341h58v1h-58zM403,341h49v1h-49zM61,342h48v1h-48zM187,342h56v1h-56zM403,342h48v1h-48zM61,343h49v1h-49zM187,343h55v1h-55zM402,343h49v1h-49zM61,344h49v1h-49zM188,344h53v1h-53zM402,344h48v1h-48zM62,345h49v1h-49zM189,345h51v1h-51zM401,345h49v1h-49zM62,346h50v1h-50zM190,346h49v1h-49zM400,346h50v1h-50zM63,347h49v1h-49zM191,347h47v1h-47zM400,347h49v1h-49zM63,348h50v1h-50zM192,348h45v1h-45zM399,348h50v1h-50zM64,349h50v1h-50zM193,349h44v1h-44zM398,349h50v1h-50zM64,350h50v1h-50zM194,350h42v1h-42zM398,350h50v1h-50zM65,351h50v1h-50zM195,351h40v1h-40zM397,351h50v1h-50zM65,352h51v1h-51zM196,352h38v1h-38zM396,352h51v1h-51zM66,353h50v1h-50zM197,353h36v1h-36zM396,353h50v1h-50zM66,354h51v1h-51zM198,354h34v1h-34zM395,354h51v1h-51zM67,355h51v1h-51zM199,355h32v1h-32zM394,355h51v1h-51zM67,356h52v1h-52zM199,356h31v1h-31zM393,356h52v1h-52zM68,357h51v1h-51zM201,357h28v1h-28zM393,357h51v1h-51zM68,358h52v1h-52zM202,358h26v1h-26zM392,358h52v1h-52zM69,359h52v1h-52zM203,359h24v1h-24zM391,359h52v1h-52zM70,360h52v1h-52zM205,360h20v1h-20zM390,360h52v1h-52zM70,361h52v1h-52zM207,361h16v1h-16zM390,361h52v1h-52zM71,362h52v1h-52zM210,362h10v1h-10zM389,362h52v1h-52zM71,363h53v1h-53zM388,363h53v1h-53zM72,364h53v1h-53zM387,364h53v1h-53zM72,365h54v1h-54zM386,365h54v1h-54zM73,366h53v1h-53zM386,366h53v1h-53zM74,367h53v1h-53zM385,367h53v1h-53zM74,368h54v1h-54zM384,368h54v1h-54zM75,369h54v1h-54zM383,369h54v1h-54zM76,370h54v1h-54zM382,370h54v1h-54zM76,371h55v1h-55zM381,371h55v1h-55zM77,372h55v1h-55zM380,372h55v1h-55zM78,373h55v1h-55zM379,373h55v1h-55zM78,374h56v1h-56zM378,374h56v1h-56zM79,375h56v1h-56zM377,375h56v1h-56zM80,376h56v1h-56zM376,376h56v1h-56zM80,377h57v1h-57zM375,377h57v1h-57zM81,378h57v1h-57zM374,378h57v1h-57zM82,379h57v1h-57zM373,379h57v1h-57zM82,380h58v1h-58zM372,380h58v1h-58zM83,381h58v1h-58zM371,381h58v1h-58zM84,382h58v1h-58zM370,382h58v1h-58zM84,383h59v1h-59zM369,383h58v1h-58zM85,384h59v1h-59zM368,384h59v1h-59zM86,385h59v1h-59zM367,385h59v1h-59zM87,386h60v1h-60zM365,386h60v1h-60zM88,387h60v1h-60zM364,387h60v1h-60zM88,388h61v1h-61zM363,388h61v1h-61zM89,389h61v1h-61zM362,389h61v1h-61zM90,390h62v1h-62zM360,390h62v1h-62zM91,391h62v1h-62zM359,391h62v1h-62zM92,392h62v1h-62zM358,392h62v1h-62zM92,393h64v1h-64zM356,393h64v1h-64zM93,394h64v1h-64zM355,394h64v1h-64zM94,395h64v1h-64zM354,395h64v1h-64zM95,396h65v1h-65zM352,396h65v1h-65zM96,397h65v1h-65zM351,397h65v1h-65zM97,398h66v1h-66zM349,398h66v1h-66zM98,399h66v1h-66zM348,399h66v1h-66zM99,400h67v1h-67zM346,400h67v1h-67zM100,401h67v1h-67zM345,401h67v1h-67zM101,402h68v1h-68zM343,402h69v1h-69zM101,403h70v1h-70zM341,403h70v1h-70zM102,404h71v1h-71zM339,404h71v1h-71zM103,405h71v1h-71zM338,405h71v1h-71zM104,406h72v1h-72zM336,406h72v1h-72zM105,407h73v1h-73zM334,407h73v1h-73zM106,408h74v1h-74zM332,408h74v1h-74zM107,409h75v1h-75zM330,409h75v1h-75zM108,410h76v1h-76zM328,410h76v1h-76zM109,411h78v1h-78zM325,411h77v1h-77zM111,412h78v1h-78zM323,412h78v1h-78zM112,413h79v1h-79zM321,413h79v1h-79zM113,414h81v1h-81zM318,414h81v1h-81zM114,415h82v1h-82zM316,415h82v1h-82zM115,416h84v1h-84zM313,416h84v1h-84zM116,417h86v1h-86zM310,417h86v1h-86zM117,418h88v1h-88zM307,418h88v1h-88zM118,419h90v1h-90zM304,419h90v1h-90zM120,420h92v1h-92zM300,420h92v1h-92zM121,421h95v1h-95zM296,421h95v1h-95zM122,422h98v1h-98zM292,422h98v1h-98zM123,423h102v1h-102zM287,423h102v1h-102zM125,424h107v1h-107zM280,424h107v1h-107zM126,425h114v1h-114zM272,425h114v1h-114zM127,426h258v1h-258zM129,427h254v1h-254zM130,428h252v1h-252zM131,429h250v1h-250zM133,430h246v1h-246zM134,431h244v1h-244zM136,432h240v1h-240zM137,433h238v1h-238zM139,434h234v1h-234zM140,435h232v1h-232zM142,436h228v1h-228zM143,437h226v1h-226zM145,438h222v1h-222zM147,439h219v1h-219zM148,440h216v1h-216zM150,441h212v1h-212zM152,442h208v1h-208zM153,443h206v1h-206zM155,444h202v1h-202zM157,445h198v1h-198zM159,446h194v1h-194zM161,447h190v1h-190zM163,448h186v1h-186zM165,449h182v1h-182zM168,450h176v1h-176zM170,451h172v1h-172zM172,452h168v1h-168zM174,453h164v1h-164zM177,454h158v1h-158zM179,455h154v1h-154zM182,456h148v1h-148zM185,457h142v1h-142zM188,458h136v1h-136zM191,459h130v1h-130zM194,460h124v1h-124zM197,461h118v1h-118zM201,462h110v1h-110zM205,463h102v1h-102zM209,464h94v1h-94zM214,465h84v1h-84zM219,466h74v1h-74zM226,467h61v1h-61zM233,468h46v1h-46zM247,469h18v1h-18z"/></svg>