<?xml version="1.0" encoding="UTF-8"?>
<svg xmlns="http://www.w3.org/2000/svg" viewBox="0 0 512 512" width="512" height="512"><path fill="#000" d="M247,32h34v1h-34zM240,33h48v1h-48zM234,34h60v1h-60zM229,35h70v1h-70zM225,36h78v1h-78zM221,37h86v1h-86zM217,38h94v1h-94zM214,39h100v1h-100zM211,40h106v1h-106zM209,41h110v1h-110zM206,42h116v1h-116zM203,43h122v1h-122zM201,44h126v1h-126zM199,45h130v1h-130zM197,46h134v1h-134zM194,47h140v1h-140zM192,48h144v1h-144zM190,49h148v1h-148zM188,50h152v1h-152zM187,51h154v1h-154zM185,52h158v1h-158zM183,53h162v1h-162zM181,54h166v1h-166zM180,55h168v1h-168zM178,56h172v1h-172zM177,57h174v1h-174zM175,58h178v1h-178zM174,59h180v1h-180zM172,60h184v1h-184zM171,61h186v1h-186zM169,62h190v1h-190zM168,63h192v1h-192zM167,64h92v1h-92zM269,64h92v1h-92zM165,65h82v1h-82zM281,65h82v1h-82zM164,66h77v1h-77zM287,66h77v1h-77zM163,67h73v1h-73zM292,67h73v1h-73zM162,68h70v1h-70zM296,68h70v1h-70zM161,69h67v1h-67zM300,69h67v1h-67zM159,70h66v1h-66zM303,70h66v1h-66zM158,71h64v1h-64zM306,71h64v1h-64zM157,72h62v1h-62zM309,72h62v1h-62zM156,73h61v1h-61zM311,73h61v1h-61zM155,74h59v1h-59zM314,74h59v1h-59zM154,75h58v1h-58zM316,75h58v1h-58zM153,76h57v1h-57zM318,76h57v1h-57zM152,77h56v1h-56zM320,77h56v1h-56zM151,78h55v1h-55zM322,78h55v1h-55zM150,79h54v1h-54zM324,79h54v1h-54zM149,80h53v1h-53zM326,80h53v1h-53zM148,81h52v1h-52zM328,81h52v1h-52zM147,82h51v1h-51zM330,82h51v1h-51zM146,83h51v1h-51zM331,83h51v1h-51zM145,84h50v1h-50zM333,84h50v1h-50zM144,85h50v1h-50zM334,85h50v1h-50zM143,86h49v1h-49zM336,86h49v1h-49zM142,87h49v1h-49zM337,87h49v1h-49zM142,88h47v1h-47zM339,88h47v1h-47zM141,89h47v1h-47zM340,89h47v1h-47zM140,90h47v1h-47zM341,90h47v1h-47zM139,91h46v1h-46zM343,91h46v1h-46zM138,92h46v1h-46zM344,92h46v1h-46zM137,93h46v1h-46zM345,93h46v1h-46zM137,94h45v1h-45zM346,94h45v1h-45zM136,95h44v1h-44zM347,95h45v1h-45zM135,96h44v1h-44zM349,96h44v1h-44zM134,97h44v1h-44zM350,97h44v1h-44zM134,98h43v1h-43zM351,98h43v1h-43zM133,99h43v1h-43zM352,99h43v1h-43zM132,100h43v1h-43zM353,100h43v1h-43zM132,101h42v1h-42zM354,101h42v1h-42zM131,102h42v1h-42zM355,102h42v1h-42zM130,103h42v1h-42zM356,103h42v1h-42zM130,104h41v1h-41zM357,104h41v1h-41zM129,105h41v1h-41zM358,105h41v1h-41zM128,106h41v1h-41zM359,106h41v1h-41zM128,107h40v1h-40zM360,107h40v1h-40zM127,108h40v1h-40zM361,108h40v1h-40zM126,109h41v1h-41zM361,109h41v1h-41zM126,110h40v1h-40zM362,110h40v1h-40zM125,111h40v1h-40zM363,111h40v1h-40zM125,112h39v1h-39zM364,112h39v1h-39zM124,113h39v1h-39zM365,113h39v1h-39zM124,114h39v1h-39zM365,114h39v1h-39zM123,115h39v1h-39zM366,115h39v1h-39zM123,116h38v1h-38zM367,116h38v1h-38zM122,117h38v1h-38zM368,117h38v1h-38zM121,118h39v1h-39zM368,118h39v1h-39zM121,119h38v1h-38zM369,119h38v1h-38zM120,120h38v1h-38zM370,120h38v1h-38zM120,121h38v1h-38zM370,121h38v1h-38zM119,122h38v1h-38zM371,122h38v1h-38zM119,123h37v1h-37zM372,123h37v1h-37zM118,124h38v1h-38zM372,124h37v1h-37zM118,125h37v1h-37zM373,125h37v1h-37zM118,126h36v1h-36zM374,126h36v1h-36zM117,127h37v1h-37zM374,127h37v1h-37zM117,128h36v1h-36zM375,128h36v1h-36zM116,129h37v1h-37zM375,129h37v1h-37zM116,130h36v1h-36zM376,130h36v1h-36zM115,131h37v1h-37zM376,131h37v1h-37zM115,132h36v1h-36zM377,132h36v1h-36zM115,133h36v1h-36zM377,133h36v1h-36zM114,134h36v1h-36zM378,134h36v1h-36zM114,135h36v1h-36zM378,135h36v1h-36zM113,136h36v1h-36zM379,136h35v1h-35zM113,137h36v1h-36zM379,137h36v1h-36zM113,138h35v1h-35zM380,138h35v1h-35zM112,139h36v1h-36zM380,139h36v1h-36zM112,140h35v1h-35zM381,140h35v1h-35zM112,141h35v1h-35zM381,141h35v1h-35zM111,142h35v1h-35zM382,142h35v1h-35zM111,143h35v1h-35zM382,143h35v1h-35zM111,144h34v1h-34zM382,144h35v1h-35zM111,145h34v1h-34zM383,145h34v1h-34zM110,146h35v1h-35zM383,146h35v1h-35zM110,147h34v1h-34zM384,147h34v1h-34zM109,148h35v1h-35zM384,148h34v1h-34zM106,149h38v1h-38zM384,149h35v1h-35zM103,150h40v1h-40zM385,150h34v1h-34zM100,151h43v1h-43zM385,151h34v1h-34zM97,152h46v1h-46zM385,152h34v1h-34zM95,153h47v1h-47zM386,153h34v1h-34zM92,154h50v1h-50zM386,154h34v1h-34zM90,155h52v1h-52zM386,155h36v1h-36zM88,156h53v1h-53zM387,156h37v1h-37zM86,157h55v1h-55zM387,157h39v1h-39zM84,158h57v1h-57zM387,158h41v1h-41zM82,159h59v1h-59zM387,159h43v1h-43zM80,160h60v1h-60zM388,160h44v1h-44zM79,161h61v1h-61zM388,161h45v1h-45zM77,162h63v1h-63zM388,162h47v1h-47zM75,163h65v1h-65zM388,163h49v1h-49zM74,164h65v1h-65zM389,164h49v1h-49zM72,165h67v1h-67zM389,165h51v1h-51zM71,166h68v1h-68zM389,166h52v1h-52zM69,167h70v1h-70zM389,167h54v1h-54zM68,168h70v1h-70zM389,168h55v1h-55zM67,169h71v1h-71zM390,169h55v1h-55zM65,170h72v1h-72zM390,170h57v1h-57zM64,171h72v1h-72zM390,171h58v1h-58zM63,172h73v1h-73zM391,172h58v1h-58zM62,173h73v1h-73zM391,173h59v1h-59zM60,174h74v1h-74zM391,174h60v1h-60zM59,175h73v1h-73zM392,175h61v1h-61zM58,176h73v1h-73zM393,176h61v1h-61zM57,177h71v1h-71zM394,177h61v1h-61zM56,178h68v1h-68zM395,178h61v1h-61zM55,179h65v1h-65zM396,179h61v1h-61zM54,180h62v1h-62zM397,180h61v1h-61zM53,181h60v1h-60zM399,181h60v1h-60zM52,182h58v1h-58zM402,182h58v1h-58zM51,183h57v1h-57zM404,183h57v1h-57zM50,184h55v1h-55zM407,184h55v1h-55zM49,185h54v1h-54zM409,185h54v1h-54zM48,186h53v1h-53zM411,186h53v1h-53zM47,187h52v1h-52zM413,187h52v1h-52zM47,188h50v1h-50zM415,188h50v1h-50zM46,189h50v1h-50zM416,189h50v1h-50zM45,190h49v1h-49zM418,190h49v1h-49zM44,191h48v1h-48zM420,191h48v1h-48zM43,192h48v1h-48zM421,192h48v1h-48zM42,193h47v1h-47zM423,193h47v1h-47zM42,194h46v1h-46zM424,194h46v1h-46zM41,195h46v1h-46zM425,195h46v1h-46zM40,196h45v1h-45zM427,196h45v1h-45zM39,197h45v1h-45zM428,197h45v1h-45zM39,198h44v1h-44zM429,198h44v1h-44zM38,199h44v1h-44zM430,199h44v1h-44zM37,200h44v1h-44zM432,200h43v1h-43zM37,201h42v1h-42zM433,201h42v1h-42zM36,202h42v1h-42zM434,202h42v1h-42zM35,203h42v1h-42zM435,203h42v1h-42zM35,204h41v1h-41zM436,204h41v1h-41zM34,205h41v1h-41zM437,205h41v1h-41zM34,206h40v1h-40zM438,206h40v1h-40zM33,207h40v1h-40zM439,207h40v1h-40zM32,208h41v1h-41zM439,208h41v1h-41zM32,209h40v1h-40zM440,209h40v1h-40zM31,210h40v1h-40zM441,210h40v1h-40zM31,211h39v1h-39zM442,211h39v1h-39zM30,212h39v1h-39zM443,212h39v1h-39zM30,213h38v1h-38zM444,213h38v1h-38zM29,214h39v1h-39zM444,214h39v1h-39zM29,215h38v1h-38zM445,215h38v1h-38zM28,216h38v1h-38zM446,216h38v1h-38zM28,217h37v1h-37zM447,217h37v1h-37zM27,218h38v1h-38zM447,218h38v1h-38zM27,219h37v1h-37zM448,219h37v1h-37zM26,220h37v1h-37zM449,220h37v1h-37zM26,221h37v1h-37zM449,221h37v1h-37zM26,222h36v1h-36zM450,222h36v1h-36zM25,223h37v1h-37zM450,223h37v1h-37zM25,224h36v1h-36zM451,224h36v1h-36zM24,225h36v1h-36zM452,225h36v1h-36zM24,226h36v1h-36zM452,226h36v1h-36zM24,227h35v1h-35zM453,227h35v1h-35zM23,228h36v1h-36zM453,228h36v1h-36zM23,229h35v1h-35zM454,229h35v1h-35zM22,230h36v1h-36zM454,230h36v1h-36zM22,231h35v1h-35zM455,231h35v1h-35zM22,232h35v1h-35zM455,232h35v1h-35zM22,233h34v1h-34zM456,233h34v1h-34zM21,234h35v1h-35zM456,234h35v1h-35zM21,235h35v1h-35zM456,235h35v1h-35zM21,236h34v1h-34zM457,236h34v1h-34zM20,237h35v1h-35zM457,237h35v1h-35zM20,238h34v1h-34zM458,238h34v1h-34zM20,239h34v1h-34zM458,239h34v1h-34zM20,240h34v1h-34zM458,240h34v1h-34zM19,241h34v1h-34zM459,241h34v1h-34zM19,242h34v1h-34zM459,242h34v1h-34zM19,243h34v1h-34zM459,243h34v1h-34zM19,244h33v1h-33zM460,244h33v1h-33zM18,245h34v1h-34zM460,245h34v1h-34zM18,246h34v1h-34zM460,246h34v1h-34zM18,247h34v1h-34zM460,247h34v1h-34zM18,248h33v1h-33zM461,248h33v1h-33zM18,249h33v1h-33zM461,249h33v1h-33zM17,250h34v1h-34zM461,250h34v1h-34zM17,251h34v1h-34zM461,251h34v1h-34zM17,252h33v1h-33zM462,252h33v1h-33zM17,253h33v1h-33zM462,253h33v1h-33zM17,254h33v1h-33zM462,254h33v1h-33zM17,255h33v1h-33zM462,255h33v1h-33zM17,256h33v1h-33zM462,256h33v1h-33zM16,257h33v1h-33zM463,257h33v1h-33zM16,258h33v1h-33zM463,258h33v1h-33zM16,259h33v1h-33zM463,259h33v1h-33zM16,260h33v1h-33zM463,260h33v1h-33zM16,261h33v1h-33zM463,261h33v1h-33zM16,262h33v1h-33zM463,262h33v1h-33zM16,263h33v1h-33zM463,263h33v1h-33zM16,264h33v1h-33zM463,264h33v1h-33zM16,265h33v1h-33zM463,265h33v1h-33zM16,266h33v1h-33zM463,266h33v1h-33zM16,267h32v1h-32zM463,267h33v1h-33zM16,268h32v1h-32zM464,268h32v1h-32zM16,269h32v1h-32zM464,269h32v1h-32zM16,270h32v1h-32zM464,270h32v1h-32zM16,271h32v1h-32zM464,271h32v1h-32zM16,272h32v1h-32zM464,272h32v1h-32zM16,273h32v1h-32zM464,273h32v1h-32zM16,274h32v1h-32zM464,274h32v1h-32zM16,275h32v1h-32zM464,275h32v1h-32zM16,276h32v1h-32zM463,276h33v1h-33zM16,277h33v1h-33zM463,277h33v1h-33zM16,278h33v1h-33zM463,278h33v1h-33zM16,279h33v1h-33zM463,279h33v1h-33zM16,280h33v1h-33zM463,280h33v1h-33zM16,281h33v1h-33zM463,281h33v1h-33zM16,282h33v1h-33zM463,282h33v1h-33zM16,283h33v1h-33zM463,283h33v1h-33zM16,284h33v1h-33zM463,284h33v1h-33zM16,285h33v1h-33zM463,285h33v1h-33zM16,286h33v1h-33zM463,286h33v1h-33zM17,287h33v1h-33zM462,287h33v1h-33zM17,288h33v1h-33zM251,288h10v1h-10zM462,288h33v1h-33zM17,289h33v1h-33zM248,289h16v1h-16zM462,289h33v1h-33zM17,290h33v1h-33zM247,290h18v1h-18zM462,290h33v1h-33zM17,291h33v1h-33zM245,291h22v1h-22zM462,291h33v1h-33zM17,292h34v1h-34zM244,292h24v1h-24zM461,292h34v1h-34zM17,293h34v1h-34zM243,293h26v1h-26zM461,293h34v1h-34zM18,294h33v1h-33zM242,294h28v1h-28zM461,294h33v1h-33zM18,295h33v1h-33zM241,295h30v1h-30zM461,295h33v1h-33zM18,296h34v1h-34zM240,296h32v1h-32zM460,296h34v1h-34zM18,297h34v1h-34zM239,297h34v1h-34zM460,297h34v1h-34zM18,298h34v1h-34zM238,298h36v1h-36zM460,298h34v1h-34zM19,299h33v1h-33zM237,299h38v1h-38zM460,299h33v1h-33zM19,300h34v1h-34zM236,300h40v1h-40zM459,300h34v1h-34zM19,301h34v1h-34zM235,301h42v1h-42zM459,301h34v1h-34zM19,302h34v1h-34zM234,302h44v1h-44zM459,302h34v1h-34zM20,303h34v1h-34zM233,303h46v1h-46zM458,303h34v1h-34zM20,304h34v1h-34zM232,304h48v1h-48zM458,304h34v1h-34zM20,305h34v1h-34zM231,305h50v1h-50zM458,305h34v1h-34zM20,306h35v1h-35zM230,306h52v1h-52zM457,306h35v1h-35zM21,307h34v1h-34zM229,307h54v1h-54zM457,307h34v1h-34zM21,308h35v1h-35zM228,308h56v1h-56zM456,308h35v1h-35zM21,309h35v1h-35zM227,309h58v1h-58zM456,309h35v1h-35zM22,310h34v1h-34zM226,310h60v1h-60zM456,310h34v1h-34zM22,311h35v1h-35zM225,311h62v1h-62zM455,311h35v1h-35zM22,312h35v1h-35zM224,312h64v1h-64zM455,312h35v1h-35zM23,313h35v1h-35zM223,313h66v1h-66zM454,313h35v1h-35zM23,314h35v1h-35zM222,314h68v1h-68zM454,314h35v1h-35zM23,315h36v1h-36zM221,315h70v1h-70zM453,315h36v1h-36zM24,316h35v1h-35zM220,316h72v1h-72zM453,316h35v1h-35zM24,317h36v1h-36zM219,317h74v1h-74zM452,317h36v1h-36zM24,318h36v1h-36zM218,318h76v1h-76zM452,318h36v1h-36zM25,319h36v1h-36zM217,319h78v1h-78zM451,319h36v1h-36zM25,320h37v1h-37zM216,320h80v1h-80zM450,320h37v1h-37zM26,321h36v1h-36zM215,321h82v1h-82zM450,321h36v1h-36zM26,322h37v1h-37zM214,322h84v1h-84zM449,322h37v1h-37zM26,323h37v1h-37zM213,323h86v1h-86zM449,323h37v1h-37zM27,324h37v1h-37zM212,324h88v1h-88zM448,324h37v1h-37zM27,325h38v1h-38zM211,325h90v1h-90zM447,325h38v1h-38zM28,326h37v1h-37zM210,326h92v1h-92zM447,326h37v1h-37zM28,327h38v1h-38zM209,327h94v1h-94zM446,327h38v1h-38zM29,328h38v1h-38zM208,328h96v1h-96zM445,328h38v1h-38zM29,329h39v1h-39zM207,329h98v1h-98zM444,329h39v1h-39zM30,330h38v1h-38zM206,330h100v1h-100zM444,330h38v1h-38zM30,331h39v1h-39zM205,331h102v1h-102zM443,331h39v1h-39zM31,332h39v1h-39zM204,332h104v1h-104zM442,332h39v1h-39zM31,333h40v1h-40zM203,333h106v1h-106zM441,333h40v1h-40zM32,334h40v1h-40zM202,334h108v1h-108zM440,334h40v1h-40zM32,335h41v1h-41zM201,335h110v1h-110zM439,335h41v1h-41zM33,336h40v1h-40zM200,336h112v1h-112zM439,336h40v1h-40zM34,337h40v1h-40zM199,337h114v1h-114zM438,337h40v1h-40zM34,338h41v1h-41zM198,338h116v1h-116zM437,338h41v1h-41zM35,339h41v1h-41zM197,339h118v1h-118zM436,339h41v1h-41zM35,340h42v1h-42zM196,340h120v1h-120zM435,340h42v1h-42zM36,341h42v1h-42zM195,341h122v1h-122zM434,341h42v1h-42zM37,342h42v1h-42zM194,342h124v1h-124zM433,342h42v1h-42zM37,343h44v1h-44zM193,343h126v1h-126zM431,343h44v1h-44zM38,344h44v1h-44zM192,344h128v1h-128zM430,344h44v1h-44zM39,345h44v1h-44zM191,345h130v1h-130zM429,345h44v1h-44zM39,346h45v1h-45zM190,346h132v1h-132zM428,346h44v1h-44zM40,347h45v1h-45zM189,347h134v1h-134zM427,347h45v1h-45zM41,348h46v1h-46zM188,348h47v1h-47zM240,348h32v1h-32zM277,348h47v1h-47zM425,348h46v1h-46zM42,349h46v1h-46zM187,349h47v1h-47zM240,349h32v1h-32zM278,349h47v1h-47zM424,349h46v1h-46zM42,350h47v1h-47zM186,350h47v1h-47zM240,350h32v1h-32zM279,350h47v1h-47zM423,350h47v1h-47zM43,351h48v1h-48zM185,351h47v1h-47zM240,351h32v1h-32zM280,351h47v1h-47zM421,351h48v1h-48zM44,352h48v1h-48zM184,352h47v1h-47zM240,352h32v1h-32zM281,352h47v1h-47zM420,352h48v1h-48zM45,353h49v1h-49zM183,353h47v1h-47zM240,353h32v1h-32zM282,353h47v1h-47zM418,353h49v1h-49zM46,354h50v1h-50zM182,354h47v1h-47zM240,354h32v1h-32zM283,354h47v1h-47zM416,354h50v1h-50zM47,355h50v1h-50zM181,355h47v1h-47zM240,355h32v1h-32zM284,355h47v1h-47zM415,355h50v1h-50zM47,356h52v1h-52zM180,356h47v1h-47zM240,356h32v1h-32zM285,356h47v1h-47zM413,356h52v1h-52zM48,357h53v1h-53zM179,357h47v1h-47zM240,357h32v1h-32zM286,357h47v1h-47zM411,357h53v1h-53zM49,358h54v1h-54zM179,358h46v1h-46zM240,358h32v1h-32zM287,358h46v1h-46zM409,358h54v1h-54zM50,359h55v1h-55zM178,359h46v1h-46zM240,359h32v1h-32zM288,359h46v1h-46zM407,359h55v1h-55zM51,360h57v1h-57zM177,360h46v1h-46zM240,360h32v1h-32zM289,360h46v1h-46zM404,360h57v1h-57zM52,361h58v1h-58zM177,361h45v1h-45zM240,361h32v1h-32zM290,361h45v1h-45zM402,361h58v1h-58zM53,362h60v1h-60zM177,362h44v1h-44zM240,362h32v1h-32zM291,362h44v1h-44zM399,362h60v1h-60zM54,363h62v1h-62zM176,363h44v1h-44zM240,363h32v1h-32zM292,363h44v1h-44zM396,363h62v1h-62zM55,364h65v1h-65zM176,364h43v1h-43zM240,364h32v1h-32zM293,364h43v1h-43zM392,364h65v1h-65zM56,365h68v1h-68zM176,365h42v1h-42zM240,365h32v1h-32zM294,365h42v1h-42zM388,365h68v1h-68zM57,366h72v1h-72zM176,366h41v1h-41zM240,366h32v1h-32zM295,366h41v1h-41zM383,366h72v1h-72zM58,367h82v1h-82zM176,367h40v1h-40zM240,367h32v1h-32zM296,367h40v1h-40zM372,367h82v1h-82zM59,368h90v1h-90zM176,368h39v1h-39zM240,368h32v1h-32zM297,368h39v1h-39zM363,368h90v1h-90zM61,369h91v1h-91zM176,369h38v1h-38zM240,369h32v1h-32zM298,369h38v1h-38zM360,369h91v1h-91zM62,370h91v1h-91zM176,370h37v1h-37zM240,370h32v1h-32zM299,370h37v1h-37zM359,370h91v1h-91zM63,371h91v1h-91zM176,371h36v1h-36zM240,371h32v1h-32zM300,371h36v1h-36zM357,371h92v1h-92zM64,372h92v1h-92zM176,372h35v1h-35zM240,372h32v1h-32zM301,372h35v1h-35zM356,372h92v1h-92zM65,373h91v1h-91zM177,373h33v1h-33zM240,373h32v1h-32zM302,373h33v1h-33zM355,373h92v1h-92zM67,374h90v1h-90zM177,374h32v1h-32zM240,374h32v1h-32zM303,374h32v1h-32zM355,374h90v1h-90zM68,375h90v1h-90zM177,375h31v1h-31zM240,375h32v1h-32zM304,375h31v1h-31zM354,375h90v1h-90zM70,376h88v1h-88zM178,376h29v1h-29zM240,376h32v1h-32zM305,376h29v1h-29zM353,376h89v1h-89zM71,377h88v1h-88zM179,377h27v1h-27zM240,377h32v1h-32zM306,377h27v1h-27zM353,377h88v1h-88zM72,378h87v1h-87zM179,378h26v1h-26zM240,378h32v1h-32zM307,378h26v1h-26zM353,378h87v1h-87zM74,379h86v1h-86zM180,379h24v1h-24zM240,379h32v1h-32zM308,379h24v1h-24zM352,379h86v1h-86zM75,380h85v1h-85zM181,380h22v1h-22zM240,380h32v1h-32zM309,380h22v1h-22zM352,380h85v1h-85zM77,381h83v1h-83zM183,381h18v1h-18zM240,381h32v1h-32zM311,381h18v1h-18zM352,381h83v1h-83zM79,382h81v1h-81zM184,382h16v1h-16zM240,382h32v1h-32zM312,382h16v1h-16zM352,382h81v1h-81zM80,383h80v1h-80zM187,383h10v1h-10zM240,383h32v1h-32zM315,383h10v1h-10zM352,383h80v1h-80zM82,384h78v1h-78zM240,384h32v1h-32zM352,384h78v1h-78zM84,385h76v1h-76zM240,385h32v1h-32zM352,385h76v1h-76zM86,386h74v1h-74zM240,386h32v1h-32zM352,386h74v1h-74zM88,387h72v1h-72zM240,387h32v1h-32zM352,387h72v1h-72zM90,388h70v1h-70zM240,388h32v1h-32zM352,388h70v1h-70zM92,389h67v1h-67zM240,389h32v1h-32zM353,389h67v1h-67zM95,390h64v1h-64zM240,390h32v1h-32zM353,390h64v1h-64zM97,391h62v1h-62zM240,391h32v1h-32zM353,391h62v1h-62zM100,392h58v1h-58zM240,392h32v1h-32zM354,392h58v1h-58zM103,393h54v1h-54zM240,393h32v1h-32zM355,393h54v1h-54zM106,394h50v1h-50zM240,394h32v1h-32zM356,394h50v1h-50zM109,395h47v1h-47zM240,395h32v1h-32zM356,395h47v1h-47zM113,396h41v1h-41zM240,396h32v1h-32zM358,396h41v1h-41zM117,397h36v1h-36zM240,397h32v1h-32zM359,397h36v1h-36zM122,398h30v1h-30zM240,398h32v1h-32zM361,398h29v1h-29zM129,399h20v1h-20zM240,399h32v1h-32zM363,399h20v1h-20zM240,400h32v1h-32zM240,401h32v1h-32zM240,402h32v1h-32zM240,403h32v1h-32zM240,404h32v1h-32zM240,405h32v1h-32zM240,406h32v1h-32zM240,407h32v1h-32zM240,408h32v1h-32zM240,409h32v1h-32zM240,410h32v1h-32zM240,411h32v1h-32zM240,412h32v1h-32zM240,413h32v1h-32zM240,414h32v1h-32zM240,415h32v1h-32zM240,416h32v1h-32zM240,417h32v1h-32zM240,418h32v1h-32zM240,419h32v1h-32zM240,420h32v1h-32zM240,421h32v1h-32zM240,422h32v1h-32zM240,423h32v1h-32zM240,424h32v1h-32zM240,425h32v1h-32zM240,426h32v1h-32zM240,427h32v1h-32zM240,428h32v1h-32zM240,429h32v1h-32zM240,430h32v1h-32zM240,431h32v1h-32zM240,432h32v1h-32zM240,433h32v1h-32zM240,434h32v1h-32zM240,435h32v1h-32zM240,436h32v1h-32zM240,437h32v1h-32zM240,438h32v1h-32zM240,439h32v1h-32zM240,440h32v1h-32zM240,441h32v1h-32zM240,442h32v1h-32zM240,443h32v1h-32zM240,444h32v1h-32zM240,445h32v1h-32zM240,446h32v1h-32zM240,447h32v1h-32zM240,448h32v1h-32zM240,449h32v1h-32zM240,450h32v1h-32zM240,451h32v1h-32zM240,452h32v1h-32zM240,453h32v1h-32zM240,454h32v1h-32zM240,455h32v1h-32zM240,456h32v1h-32zM240,457h32v1h-32zM240,458h32v1h-32zM240,459h32v1h-32zM240,460h32v1h-32zM240,461h32v1h-32zM240,462h32v1h-32zM240,463h32v1h-32zM240,464h32v1h-32zM240,465h32v1h-32zM240,466h32v1h-32zM240,467h32v1h-32zM240,468h32v1h-32zM241,469h30v1h-30zM241,470h30v1h-30zM241,471h30v1h-30zM242,472h28v1h-28zM243,473h26v1h-26zM244,474h24v1h-24zM244,475h24v1h-24zM246,476h20v1h-20zM247,477h18v1h-18zM249,478h15v1h-15zM251,479h10v1h-10z"/></svg>