<?xml version="1.0" encoding="UTF-8"?>
<svg xmlns="http://www.w3.org/2000/svg" viewBox="0 0 512 512" width="512" height="512"><path fill="#000" d="M247,72h34v1h-34zM240,73h48v1h-48zM234,74h60v1h-60zM229,75h70v1h-70zM225,76h78v1h-78zM221,77h86v1h-86zM217,78h94v1h-94zM214,79h100v1h-100zM211,80h106v1h-106zM209,81h110v1h-110zM206,82h116v1h-116zM203,83h122v1h-122zM201,84h126v1h-126zM199,85h130v1h-130zM197,86h134v1h-134zM194,87h140v1h-140zM192,88h144v1h-144zM190,89h148v1h-148zM188,90h152v1h-152zM187,91h154v1h-154zM185,92h158v1h-158zM183,93h162v1h-162zM181,94h166v1h-166zM180,95h168v1h-168zM178,96h172v1h-172zM177,97h174v1h-174zM175,98h178v1h-178zM174,99h180v1h-180zM172,100h184v1h-184zM171,101h186v1h-186zM169,102h190v1h-190zM168,103h192v1h-192zM167,104h92v1h-92zM269,104h92v1h-92zM165,105h82v1h-82zM281,105h82v1h-82zM164,106h77v1h-77zM287,106h77v1h-77zM163,107h73v1h-73zM292,107h73v1h-73zM162,108h70v1h-70zM296,108h70v1h-70zM161,109h67v1h-67zM300,109h67v1h-67zM159,110h66v1h-66zM303,110h66v1h-66zM158,111h64v1h-64zM306,111h64v1h-64zM157,112h62v1h-62zM309,112h62v1h-62zM156,113h61v1h-61zM311,113h61v1h-61zM155,114h59v1h-59zM314,114h59v1h-59zM154,115h58v1h-58zM316,115h58v1h-58zM153,116h57v1h-57zM318,116h57v1h-57zM152,117h56v1h-56zM320,117h56v1h-56zM151,118h55v1h-55zM322,118h55v1h-55zM150,119h54v1h-54zM324,119h54v1h-54zM149,120h53v1h-53zM326,120h53v1h-53zM148,121h52v1h-52zM328,121h52v1h-52zM147,122h51v1h-51zM330,122h51v1h-51zM146,123h51v1h-51zM331,123h51v1h-51zM145,124h50v1h-50zM333,124h50v1h-50zM144,125h50v1h-50zM334,125h50v1h-50zM143,126h49v1h-49zM336,126h49v1h-49zM142,127h49v1h-49zM337,127h49v1h-49zM142,128h47v1h-47zM339,128h47v1h-47zM141,129h47v1h-47zM340,129h47v1h-47zM140,130h47v1h-47zM341,130h47v1h-47zM139,131h46v1h-46zM343,131h46v1h-46zM138,132h46v1h-46zM344,132h46v1h-46zM137,133h46v1h-46zM345,133h46v1h-46zM137,134h45v1h-45zM346,134h45v1h-45zM136,135h44v1h-44zM347,135h45v1h-45zM135,136h44v1h-44zM349,136h44v1h-44zM134,137h44v1h-44zM350,137h44v1h-44zM134,138h43v1h-43zM351,138h43v1h-43zM133,139h43v1h-43zM352,139h43v1h-43zM132,140h43v1h-43zM353,140h43v1h-43zM132,141h42v1h-42zM354,141h42v1h-42zM131,142h42v1h-42zM355,142h42v1h-42zM130,143h42v1h-42zM356,143h42v1h-42zM130,144h41v1h-41zM357,144h41v1h-41zM129,145h41v1h-41zM358,145h41v1h-41zM128,146h41v1h-41zM359,146h41v1h-41zM128,147h40v1h-40zM360,147h40v1h-40zM127,148h40v1h-40zM361,148h40v1h-40zM126,149h41v1h-41zM361,149h41v1h-41zM126,150h40v1h-40zM362,150h40v1h-40zM125,151h40v1h-40zM363,151h40v1h-40zM125,152h39v1h-39zM364,152h39v1h-39zM124,153h39v1h-39zM365,153h39v1h-39zM124,154h39v1h-39zM365,154h39v1h-39zM123,155h39v1h-39zM366,155h39v1h-39zM123,156h38v1h-38zM367,156h38v1h-38zM122,157h38v1h-38zM368,157h38v1h-38zM121,158h39v1h-39zM368,158h39v1h-39zM121,159h38v1h-38zM369,159h38v1h-38zM120,160h38v1h-38zM370,160h38v1h-38zM120,161h38v1h-38zM370,161h38v1h-38zM119,162h38v1h-38zM371,162h38v1h-38zM119,163h37v1h-37zM372,163h37v1h-37zM118,164h38v1h-38zM372,164h37v1h-37zM118,165h37v1h-37zM373,165h37v1h-37zM118,166h36v1h-36zM374,166h36v1h-36zM117,167h37v1h-37zM374,167h37v1h-37zM117,168h36v1h-36zM375,168h36v1h-36zM116,169h37v1h-37zM375,169h37v1h-37zM116,170h36v1h-36zM376,170h36v1h-36zM115,171h37v1h-37zM376,171h37v1h-37zM115,172h36v1h-36zM377,172h36v1h-36zM115,173h36v1h-36zM377,173h36v1h-36zM114,174h36v1h-36zM378,174h36v1h-36zM114,175h36v1h-36zM378,175h36v1h-36zM113,176h36v1h-36zM379,176h35v1h-35zM113,177h36v1h-36zM379,177h36v1h-36zM113,178h35v1h-35zM380,178h35v1h-35zM112,179h36v1h-36zM380,179h36v1h-36zM112,180h35v1h-35zM381,180h35v1h-35zM112,181h35v1h-35zM381,181h35v1h-35zM111,182h35v1h-35zM382,182h35v1h-35zM111,183h35v1h-35zM382,183h35v1h-35zM111,184h34v1h-34zM382,184h35v1h-35zM111,185h34v1h-34zM383,185h34v1h-34zM110,186h35v1h-35zM383,186h35v1h-35zM110,187h34v1h-34zM384,187h34v1h-34zM109,188h35v1h-35zM384,188h34v1h-34zM106,189h38v1h-38zM384,189h35v1h-35zM103,190h40v1h-40zM385,190h34v1h-34zM100,191h43v1h-43zM385,191h34v1h-34zM97,192h46v1h-46zM385,192h34v1h-34zM95,193h47v1h-47zM386,193h34v1h-34zM92,194h50v1h-50zM386,194h34v1h-34zM90,195h52v1h-52zM386,195h36v1h-36zM88,196h53v1h-53zM387,196h37v1h-37zM86,197h55v1h-55zM387,197h39v1h-39zM84,198h57v1h-57zM387,198h41v1h-41zM82,199h59v1h-59zM387,199h43v1h-43zM80,200h60v1h-60zM388,200h44v1h-44zM79,201h61v1h-61zM388,201h45v1h-45zM77,202h63v1h-63zM388,202h47v1h-47zM75,203h65v1h-65zM388,203h49v1h-49zM74,204h65v1h-65zM389,204h49v1h-49zM72,205h67v1h-67zM389,205h51v1h-51zM71,206h68v1h-68zM389,206h52v1h-52zM69,207h70v1h-70zM389,207h54v1h-54zM68,208h70v1h-70zM389,208h55v1h-55zM67,209h71v1h-71zM390,209h55v1h-55zM65,210h72v1h-72zM390,210h57v1h-57zM64,211h72v1h-72zM390,211h58v1h-58zM63,212h73v1h-73zM391,212h58v1h-58zM62,213h73v1h-73zM391,213h59v1h-59zM60,214h74v1h-74zM391,214h60v1h-60zM59,215h73v1h-73zM392,215h61v1h-61zM58,216h73v1h-73zM393,216h61v1h-61zM57,217h71v1h-71zM394,217h61v1h-61zM56,218h68v1h-68zM395,218h61v1h-61zM55,219h65v1h-65zM396,219h61v1h-61zM54,220h62v1h-62zM397,220h61v1h-61zM53,221h60v1h-60zM399,221h60v1h-60zM52,222h58v1h-58zM402,222h58v1h-58zM51,223h57v1h-57zM404,223h57v1h-57zM50,224h55v1h-55zM407,224h55v1h-55zM49,225h54v1h-54zM409,225h54v1h-54zM48,226h53v1h-53zM411,226h53v1h-53zM47,227h52v1h-52zM413,227h52v1h-52zM47,228h50v1h-50zM415,228h50v1h-50zM46,229h50v1h-50zM416,229h50v1h-50zM45,230h49v1h-49zM418,230h49v1h-49zM44,231h48v1h-48zM420,231h48v1h-48zM43,232h48v1h-48zM307,232h10v1h-10zM421,232h48v1h-48zM42,233h47v1h-47zM304,233h16v1h-16zM423,233h47v1h-47zM42,234h46v1h-46zM303,234h18v1h-18zM424,234h46v1h-46zM41,235h46v1h-46zM301,235h22v1h-22zM425,235h46v1h-46zM40,236h45v1h-45zM300,236h24v1h-24zM427,236h45v1h-45zM39,237h45v1h-45zM299,237h26v1h-26zM428,237h45v1h-45zM39,238h44v1h-44zM298,238h27v1h-27zM429,238h44v1h-44zM38,239h44v1h-44zM298,239h28v1h-28zM430,239h44v1h-44zM37,240h44v1h-44zM297,240h30v1h-30zM432,240h43v1h-43zM37,241h42v1h-42zM296,241h31v1h-31zM433,241h42v1h-42zM36,242h42v1h-42zM295,242h32v1h-32zM434,242h42v1h-42zM35,243h42v1h-42zM294,243h34v1h-34zM435,243h42v1h-42zM35,244h41v1h-41zM293,244h35v1h-35zM436,244h41v1h-41zM34,245h41v1h-41zM292,245h36v1h-36zM437,245h41v1h-41zM34,246h40v1h-40zM291,246h37v1h-37zM438,246h40v1h-40zM33,247h40v1h-40zM290,247h38v1h-38zM439,247h40v1h-40zM32,248h41v1h-41zM289,248h39v1h-39zM439,248h41v1h-41zM32,249h40v1h-40zM288,249h40v1h-40zM440,249h40v1h-40zM31,250h40v1h-40zM287,250h41v1h-41zM441,250h40v1h-40zM31,251h39v1h-39zM286,251h42v1h-42zM442,251h39v1h-39zM30,252h39v1h-39zM285,252h43v1h-43zM443,252h39v1h-39zM30,253h38v1h-38zM284,253h43v1h-43zM444,253h38v1h-38zM29,254h39v1h-39zM283,254h44v1h-44zM444,254h39v1h-39zM29,255h38v1h-38zM282,255h45v1h-45zM445,255h38v1h-38zM28,256h38v1h-38zM281,256h45v1h-45zM446,256h38v1h-38zM28,257h37v1h-37zM280,257h45v1h-45zM447,257h37v1h-37zM27,258h38v1h-38zM279,258h46v1h-46zM447,258h38v1h-38zM27,259h37v1h-37zM278,259h46v1h-46zM448,259h37v1h-37zM26,260h37v1h-37zM277,260h46v1h-46zM449,260h37v1h-37zM26,261h37v1h-37zM277,261h45v1h-45zM449,261h37v1h-37zM26,262h36v1h-36zM276,262h45v1h-45zM450,262h36v1h-36zM25,263h37v1h-37zM275,263h45v1h-45zM450,263h37v1h-37zM25,264h36v1h-36zM274,264h45v1h-45zM451,264h36v1h-36zM24,265h36v1h-36zM273,265h45v1h-45zM452,265h36v1h-36zM24,266h36v1h-36zM272,266h45v1h-45zM452,266h36v1h-36zM24,267h35v1h-35zM271,267h45v1h-45zM453,267h35v1h-35zM23,268h36v1h-36zM270,268h45v1h-45zM453,268h36v1h-36zM23,269h35v1h-35zM269,269h45v1h-45zM454,269h35v1h-35zM22,270h36v1h-36zM268,270h45v1h-45zM454,270h36v1h-36zM22,271h35v1h-35zM267,271h45v1h-45zM455,271h35v1h-35zM22,272h35v1h-35zM266,272h45v1h-45zM455,272h35v1h-35zM22,273h34v1h-34zM265,273h45v1h-45zM456,273h34v1h-34zM21,274h35v1h-35zM197,274h6v1h-6zM264,274h45v1h-45zM456,274h35v1h-35zM21,275h35v1h-35zM193,275h14v1h-14zM263,275h45v1h-45zM456,275h35v1h-35zM21,276h34v1h-34zM192,276h16v1h-16zM262,276h45v1h-45zM457,276h34v1h-34zM20,277h35v1h-35zM190,277h20v1h-20zM261,277h45v1h-45zM457,277h35v1h-35zM20,278h34v1h-34zM189,278h22v1h-22zM260,278h46v1h-46zM458,278h34v1h-34zM20,279h34v1h-34zM188,279h24v1h-24zM259,279h46v1h-46zM458,279h34v1h-34zM20,280h34v1h-34zM187,280h26v1h-26zM258,280h46v1h-46zM458,280h34v1h-34zM19,281h34v1h-34zM186,281h28v1h-28zM257,281h46v1h-46zM459,281h34v1h-34zM19,282h34v1h-34zM186,282h29v1h-29zM257,282h45v1h-45zM459,282h34v1h-34zM19,283h34v1h-34zM185,283h31v1h-31zM256,283h45v1h-45zM459,283h34v1h-34zM19,284h33v1h-33zM185,284h32v1h-32zM255,284h45v1h-45zM460,284h33v1h-33zM18,285h34v1h-34zM184,285h34v1h-34zM254,285h45v1h-45zM460,285h34v1h-34zM18,286h34v1h-34zM184,286h35v1h-35zM253,286h45v1h-45zM460,286h34v1h-34zM18,287h34v1h-34zM184,287h36v1h-36zM252,287h45v1h-45zM460,287h34v1h-34zM18,288h33v1h-33zM184,288h37v1h-37zM251,288h45v1h-45zM461,288h33v1h-33zM18,289h33v1h-33zM184,289h38v1h-38zM250,289h45v1h-45zM461,289h33v1h-33zM17,290h34v1h-34zM184,290h39v1h-39zM249,290h45v1h-45zM461,290h34v1h-34zM17,291h34v1h-34zM184,291h40v1h-40zM248,291h45v1h-45zM461,291h34v1h-34zM17,292h33v1h-33zM184,292h41v1h-41zM247,292h45v1h-45zM462,292h33v1h-33zM17,293h33v1h-33zM184,293h41v1h-41zM246,293h45v1h-45zM462,293h33v1h-33zM17,294h33v1h-33zM184,294h42v1h-42zM245,294h45v1h-45zM462,294h33v1h-33zM17,295h33v1h-33zM184,295h43v1h-43zM244,295h45v1h-45zM462,295h33v1h-33zM17,296h33v1h-33zM185,296h43v1h-43zM243,296h45v1h-45zM462,296h33v1h-33zM16,297h33v1h-33zM185,297h44v1h-44zM242,297h45v1h-45zM463,297h33v1h-33zM16,298h33v1h-33zM186,298h44v1h-44zM241,298h46v1h-46zM463,298h33v1h-33zM16,299h33v1h-33zM186,299h45v1h-45zM240,299h46v1h-46zM463,299h33v1h-33zM16,300h33v1h-33zM187,300h45v1h-45zM239,300h46v1h-46zM463,300h33v1h-33zM16,301h33v1h-33zM188,301h45v1h-45zM238,301h46v1h-46zM463,301h33v1h-33zM16,302h33v1h-33zM189,302h94v1h-94zM463,302h33v1h-33zM16,303h33v1h-33zM190,303h92v1h-92zM463,303h33v1h-33zM16,304h33v1h-33zM191,304h90v1h-90zM463,304h33v1h-33zM16,305h33v1h-33zM192,305h88v1h-88zM463,305h33v1h-33zM16,306h33v1h-33zM193,306h86v1h-86zM463,306h33v1h-33zM16,307h32v1h-32zM194,307h84v1h-84zM463,307h33v1h-33zM16,308h32v1h-32zM195,308h82v1h-82zM464,308h32v1h-32zM16,309h32v1h-32zM196,309h80v1h-80zM464,309h32v1h-32zM16,310h32v1h-32zM196,310h79v1h-79zM464,310h32v1h-32zM16,311h32v1h-32zM197,311h77v1h-77zM464,311h32v1h-32zM16,312h32v1h-32zM198,312h75v1h-75zM464,312h32v1h-32zM16,313h32v1h-32zM199,313h73v1h-73zM464,313h32v1h-32zM16,314h32v1h-32zM200,314h71v1h-71zM464,314h32v1h-32zM16,315h32v1h-32zM201,315h69v1h-69zM464,315h32v1h-32zM16,316h32v1h-32zM202,316h67v1h-67zM463,316h33v1h-33zM16,317h33v1h-33zM203,317h65v1h-65zM463,317h33v1h-33zM16,318h33v1h-33zM204,318h63v1h-63zM463,318h33v1h-33zM16,319h33v1h-33zM205,319h61v1h-61zM463,319h33v1h-33zM16,320h33v1h-33zM206,320h60v1h-60zM463,320h33v1h-33zM16,321h33v1h-33zM207,321h58v1h-58zM463,321h33v1h-33zM16,322h33v1h-33zM208,322h56v1h-56zM463,322h33v1h-33zM16,323h33v1h-33zM209,323h54v1h-54zM463,323h33v1h-33zM16,324h33v1h-33zM210,324h52v1h-52zM463,324h33v1h-33zM16,325h33v1h-33zM211,325h50v1h-50zM463,325h33v1h-33zM16,326h33v1h-33zM212,326h48v1h-48zM463,326h33v1h-33zM17,327h33v1h-33zM213,327h46v1h-46zM462,327h33v1h-33zM17,328h33v1h-33zM214,328h44v1h-44zM462,328h33v1h-33zM17,329h33v1h-33zM215,329h42v1h-42zM462,329h33v1h-33zM17,330h33v1h-33zM216,330h40v1h-40zM462,330h33v1h-33zM17,331h33v1h-33zM216,331h39v1h-39zM462,331h33v1h-33zM17,332h34v1h-34zM217,332h37v1h-37zM461,332h34v1h-34zM17,333h34v1h-34zM218,333h35v1h-35zM461,333h34v1h-34zM18,334h33v1h-33zM219,334h33v1h-33zM461,334h33v1h-33zM18,335h33v1h-33zM220,335h31v1h-31zM461,335h33v1h-33zM18,336h34v1h-34zM221,336h29v1h-29zM460,336h34v1h-34zM18,337h34v1h-34zM222,337h27v1h-27zM460,337h34v1h-34zM18,338h34v1h-34zM223,338h25v1h-25zM460,338h34v1h-34zM19,339h33v1h-33zM224,339h23v1h-23zM460,339h33v1h-33zM19,340h34v1h-34zM225,340h21v1h-21zM459,340h34v1h-34zM19,341h34v1h-34zM227,341h18v1h-18zM459,341h34v1h-34zM19,342h34v1h-34zM228,342h15v1h-15zM459,342h34v1h-34zM20,343h34v1h-34zM231,343h10v1h-10zM458,343h34v1h-34zM20,344h34v1h-34zM458,344h34v1h-34zM20,345h34v1h-34zM458,345h34v1h-34zM20,346h35v1h-35zM457,346h35v1h-35zM21,347h34v1h-34zM457,347h34v1h-34zM21,348h35v1h-35zM456,348h35v1h-35zM21,349h35v1h-35zM456,349h35v1h-35zM22,350h34v1h-34zM456,350h34v1h-34zM22,351h35v1h-35zM455,351h35v1h-35zM22,352h35v1h-35zM455,352h35v1h-35zM23,353h35v1h-35zM454,353h35v1h-35zM23,354h35v1h-35zM454,354h35v1h-35zM23,355h36v1h-36zM453,355h36v1h-36zM24,356h35v1h-35zM453,356h35v1h-35zM24,357h36v1h-36zM452,357h36v1h-36zM24,358h36v1h-36zM452,358h36v1h-36zM25,359h36v1h-36zM451,359h36v1h-36zM25,360h37v1h-37zM450,360h37v1h-37zM26,361h36v1h-36zM450,361h36v1h-36zM26,362h37v1h-37zM449,362h37v1h-37zM26,363h37v1h-37zM449,363h37v1h-37zM27,364h37v1h-37zM448,364h37v1h-37zM27,365h38v1h-38zM447,365h38v1h-38zM28,366h37v1h-37zM447,366h37v1h-37zM28,367h38v1h-38zM446,367h38v1h-38zM29,368h38v1h-38zM445,368h38v1h-38zM29,369h39v1h-39zM444,369h39v1h-39zM30,370h38v1h-38zM444,370h38v1h-38zM30,371h39v1h-39zM443,371h39v1h-39zM31,372h39v1h-39zM442,372h39v1h-39zM31,373h40v1h-40zM441,373h40v1h-40zM32,374h40v1h-40zM440,374h40v1h-40zM32,375h41v1h-41zM439,375h41v1h-41zM33,376h40v1h-40zM439,376h40v1h-40zM34,377h40v1h-40zM438,377h40v1h-40zM34,378h41v1h-41zM437,378h41v1h-41zM35,379h41v1h-41zM436,379h41v1h-41zM35,380h42v1h-42zM435,380h42v1h-42zM36,381h42v1h-42zM434,381h42v1h-42zM37,382h42v1h-42zM433,382h42v1h-42zM37,383h44v1h-44zM431,383h44v1h-44zM38,384h44v1h-44zM430,384h44v1h-44zM39,385h44v1h-44zM429,385h44v1h-44zM39,386h45v1h-45zM428,386h44v1h-44zM40,387h45v1h-45zM427,387h45v1h-45zM41,388h46v1h-46zM425,388h46v1h-46zM42,389h46v1h-46zM424,389h46v1h-46zM42,390h47v1h-47zM423,390h47v1h-47zM43,391h48v1h-48zM421,391h48v1h-48zM44,392h48v1h-48zM420,392h48v1h-48zM45,393h49v1h-49zM418,393h49v1h-49zM46,394h50v1h-50zM416,394h50v1h-50zM47,395h50v1h-50zM415,395h50v1h-50zM47,396h52v1h-52zM413,396h52v1h-52zM48,397h53v1h-53zM411,397h53v1h-53zM49,398h54v1h-54zM409,398h54v1h-54zM50,399h55v1h-55zM407,399h55v1h-55zM51,400h57v1h-57zM404,400h57v1h-57zM52,401h58v1h-58zM402,401h58v1h-58zM53,402h60v1h-60zM399,402h60v1h-60zM54,403h62v1h-62zM396,403h62v1h-62zM55,404h65v1h-65zM392,404h65v1h-65zM56,405h68v1h-68zM388,405h68v1h-68zM57,406h72v1h-72zM383,406h72v1h-72zM58,407h82v1h-82zM372,407h82v1h-82zM59,408h394v1h-394zM61,409h390v1h-390zM62,410h388v1h-388zM63,411h386v1h-386zM64,412h384v1h-384zM66,413h381v1h-381zM67,414h378v1h-378zM68,415h376v1h-376zM70,416h372v1h-372zM71,417h370v1h-370zM72,418h368v1h-368zM74,419h364v1h-364zM75,420h362v1h-362zM77,421h358v1h-358zM79,422h354v1h-354zM80,423h352v1h-352zM82,424h348v1h-348zM84,425h344v1h-344zM86,426h340v1h-340zM88,427h336v1h-336zM90,428h332v1h-332zM92,429h328v1h-328zM95,430h322v1h-322zM97,431h318v1h-318zM100,432h312v1h-312zM103,433h306v1h-306zM106,434h300v1h-300zM109,435h294v1h-294zM113,436h286v1h-286zM117,437h278v1h-278zM122,438h268v1h-268zM129,439h254v1h-254z"/></svg>