<?xml version="1.0" encoding="UTF-8"?>
<svg xmlns="http://www.w3.org/2000/svg" viewBox="0 0 512 512" width="512" height="512"><path fill="#000" d="M299,16h10v1h-10zM296,17h16v1h-16zM295,18h18v1h-18zM294,19h21v1h-21zM292,20h24v1h-24zM291,21h25v1h-25zM291,22h26v1h-26zM290,23h28v1h-28zM289,24h29v1h-29zM289,25h30v1h-30zM289,26h30v1h-30zM288,27h32v1h-32zM288,28h32v1h-32zM288,29h32v1h-32zM288,30h32v1h-32zM287,31h33v1h-33zM287,32h33v1h-33zM287,33h33v1h-33zM287,34h33v1h-33zM287,35h33v1h-33zM286,36h34v1h-34zM286,37h34v1h-34zM286,38h33v1h-33zM286,39h33v1h-33zM285,40h34v1h-34zM285,41h34v1h-34zM285,42h33v1h-33zM285,43h33v1h-33zM285,44h33v1h-33zM284,45h34v1h-34zM284,46h34v1h-34zM284,47h33v1h-33zM284,48h33v1h-33zM284,49h33v1h-33zM283,50h34v1h-34zM283,51h34v1h-34zM283,52h33v1h-33zM283,53h33v1h-33zM282,54h34v1h-34zM282,55h34v1h-34zM282,56h33v1h-33zM282,57h33v1h-33zM282,58h33v1h-33zM281,59h34v1h-34zM281,60h34v1h-34zM281,61h33v1h-33zM281,62h33v1h-33zM281,63h33v1h-33zM280,64h34v1h-34zM280,65h34v1h-34zM280,66h33v1h-33zM280,67h33v1h-33zM279,68h34v1h-34zM279,69h34v1h-34zM279,70h33v1h-33zM279,71h33v1h-33zM279,72h33v1h-33zM278,73h34v1h-34zM278,74h34v1h-34zM278,75h33v1h-33zM278,76h33v1h-33zM278,77h33v1h-33zM277,78h34v1h-34zM277,79h34v1h-34zM277,80h33v1h-33zM277,81h33v1h-33zM276,82h34v1h-34zM276,83h34v1h-34zM276,84h33v1h-33zM276,85h33v1h-33zM276,86h33v1h-33zM275,87h34v1h-34zM275,88h34v1h-34zM275,89h33v1h-33zM275,90h33v1h-33zM275,91h33v1h-33zM274,92h34v1h-34zM274,93h34v1h-34zM274,94h33v1h-33zM274,95h33v1h-33zM273,96h34v1h-34zM273,97h34v1h-34zM273,98h33v1h-33zM273,99h33v1h-33zM273,100h33v1h-33zM272,101h34v1h-34zM272,102h34v1h-34zM272,103h33v1h-33zM272,104h33v1h-33zM272,105h33v1h-33zM271,106h34v1h-34zM271,107h34v1h-34zM271,108h33v1h-33zM271,109h33v1h-33zM270,110h34v1h-34zM270,111h34v1h-34zM270,112h33v1h-33zM270,113h33v1h-33zM270,114h33v1h-33zM269,115h34v1h-34zM269,116h34v1h-34zM269,117h33v1h-33zM269,118h33v1h-33zM269,119h33v1h-33zM268,120h34v1h-34zM268,121h34v1h-34zM268,122h33v1h-33zM268,123h33v1h-33zM267,124h34v1h-34zM267,125h34v1h-34zM267,126h33v1h-33zM267,127h33v1h-33zM267,128h33v1h-33zM266,129h34v1h-34zM266,130h34v1h-34zM266,131h33v1h-33zM266,132h33v1h-33zM266,133h33v1h-33zM265,134h34v1h-34zM265,135h34v1h-34zM265,136h33v1h-33zM265,137h33v1h-33zM264,138h34v1h-34zM264,139h34v1h-34zM264,140h33v1h-33zM264,141h33v1h-33zM264,142h33v1h-33zM263,143h34v1h-34zM123,144h10v1h-10zM263,144h34v1h-34zM379,144h10v1h-10zM120,145h16v1h-16zM263,145h33v1h-33zM376,145h16v1h-16zM119,146h18v1h-18zM263,146h33v1h-33zM375,146h18v1h-18zM117,147h22v1h-22zM263,147h33v1h-33zM373,147h22v1h-22zM116,148h24v1h-24zM262,148h34v1h-34zM372,148h24v1h-24zM115,149h26v1h-26zM262,149h34v1h-34zM371,149h26v1h-26zM114,150h27v1h-27zM262,150h33v1h-33zM371,150h27v1h-27zM113,151h29v1h-29zM262,151h33v1h-33zM370,151h29v1h-29zM112,152h31v1h-31zM261,152h34v1h-34zM369,152h31v1h-31zM111,153h32v1h-32zM261,153h34v1h-34zM369,153h32v1h-32zM110,154h33v1h-33zM261,154h33v1h-33zM369,154h33v1h-33zM109,155h35v1h-35zM261,155h33v1h-33zM368,155h35v1h-35zM108,156h36v1h-36zM261,156h33v1h-33zM368,156h36v1h-36zM107,157h37v1h-37zM260,157h34v1h-34zM368,157h37v1h-37zM106,158h38v1h-38zM260,158h34v1h-34zM368,158h38v1h-38zM105,159h39v1h-39zM260,159h33v1h-33zM368,159h39v1h-39zM104,160h40v1h-40zM260,160h33v1h-33zM368,160h40v1h-40zM103,161h41v1h-41zM260,161h33v1h-33zM368,161h41v1h-41zM102,162h42v1h-42zM259,162h34v1h-34zM368,162h42v1h-42zM101,163h43v1h-43zM259,163h34v1h-34zM368,163h43v1h-43zM100,164h44v1h-44zM259,164h33v1h-33zM368,164h44v1h-44zM99,165h44v1h-44zM259,165h33v1h-33zM369,165h44v1h-44zM98,166h45v1h-45zM258,166h34v1h-34zM369,166h45v1h-45zM97,167h46v1h-46zM258,167h34v1h-34zM369,167h46v1h-46zM96,168h46v1h-46zM258,168h33v1h-33zM370,168h46v1h-46zM95,169h46v1h-46zM258,169h33v1h-33zM371,169h46v1h-46zM94,170h47v1h-47zM258,170h33v1h-33zM371,170h47v1h-47zM93,171h47v1h-47zM257,171h34v1h-34zM372,171h47v1h-47zM92,172h47v1h-47zM257,172h34v1h-34zM373,172h47v1h-47zM91,173h47v1h-47zM257,173h33v1h-33zM374,173h47v1h-47zM90,174h47v1h-47zM257,174h33v1h-33zM375,174h47v1h-47zM89,175h47v1h-47zM257,175h33v1h-33zM376,175h47v1h-47zM88,176h47v1h-47zM256,176h34v1h-34zM377,176h47v1h-47zM87,177h47v1h-47zM256,177h34v1h-34zM378,177h47v1h-47zM86,178h47v1h-47zM256,178h33v1h-33zM379,178h47v1h-47zM85,179h47v1h-47zM256,179h33v1h-33zM380,179h47v1h-47zM84,180h47v1h-47zM255,180h34v1h-34zM381,180h47v1h-47zM83,181h47v1h-47zM255,181h34v1h-34zM382,181h47v1h-47zM82,182h47v1h-47zM255,182h33v1h-33zM383,182h47v1h-47zM81,183h47v1h-47zM255,183h33v1h-33zM384,183h47v1h-47zM80,184h47v1h-47zM255,184h33v1h-33zM385,184h47v1h-47zM79,185h47v1h-47zM254,185h34v1h-34zM386,185h47v1h-47zM78,186h47v1h-47zM254,186h34v1h-34zM387,186h47v1h-47zM77,187h47v1h-47zM254,187h33v1h-33zM388,187h47v1h-47zM76,188h47v1h-47zM254,188h33v1h-33zM389,188h47v1h-47zM75,189h47v1h-47zM254,189h33v1h-33zM390,189h47v1h-47zM74,190h47v1h-47zM253,190h34v1h-34zM391,190h47v1h-47zM73,191h47v1h-47zM253,191h34v1h-34zM392,191h47v1h-47zM72,192h47v1h-47zM253,192h33v1h-33zM393,192h47v1h-47zM71,193h47v1h-47zM253,193h33v1h-33zM394,193h47v1h-47zM70,194h47v1h-47zM252,194h34v1h-34zM395,194h47v1h-47zM69,195h47v1h-47zM252,195h34v1h-34zM396,195h47v1h-47zM68,196h47v1h-47zM252,196h33v1h-33zM397,196h47v1h-47zM67,197h47v1h-47zM252,197h33v1h-33zM398,197h47v1h-47zM66,198h47v1h-47zM252,198h33v1h-33zM399,198h47v1h-47zM65,199h47v1h-47zM251,199h34v1h-34zM400,199h47v1h-47zM64,200h47v1h-47zM251,200h34v1h-34zM401,200h47v1h-47zM63,201h47v1h-47zM251,201h33v1h-33zM402,201h47v1h-47zM62,202h47v1h-47zM251,202h33v1h-33zM403,202h47v1h-47zM61,203h47v1h-47zM251,203h33v1h-33zM404,203h47v1h-47zM60,204h47v1h-47zM250,204h34v1h-34zM405,204h47v1h-47zM59,205h47v1h-47zM250,205h34v1h-34zM406,205h47v1h-47zM58,206h47v1h-47zM250,206h33v1h-33zM407,206h47v1h-47zM57,207h47v1h-47zM250,207h33v1h-33zM408,207h47v1h-47zM56,208h47v1h-47zM249,208h34v1h-34zM409,208h47v1h-47zM55,209h47v1h-47zM249,209h34v1h-34zM410,209h47v1h-47zM54,210h47v1h-47zM249,210h33v1h-33zM411,210h47v1h-47zM53,211h47v1h-47zM249,211h33v1h-33zM412,211h47v1h-47zM52,212h47v1h-47zM249,212h33v1h-33zM413,212h47v1h-47zM51,213h47v1h-47zM248,213h34v1h-34zM414,213h47v1h-47zM50,214h47v1h-47zM248,214h34v1h-34zM415,214h47v1h-47zM49,215h47v1h-47zM248,215h33v1h-33zM416,215h47v1h-47zM48,216h47v1h-47zM248,216h33v1h-33zM417,216h47v1h-47zM47,217h47v1h-47zM248,217h33v1h-33zM418,217h47v1h-47zM46,218h47v1h-47zM247,218h34v1h-34zM419,218h47v1h-47zM45,219h47v1h-47zM247,219h34v1h-34zM420,219h47v1h-47zM44,220h47v1h-47zM247,220h33v1h-33zM421,220h47v1h-47zM43,221h47v1h-47zM247,221h33v1h-33zM422,221h47v1h-47zM42,222h47v1h-47zM246,222h34v1h-34zM423,222h47v1h-47zM41,223h47v1h-47zM246,223h34v1h-34zM424,223h47v1h-47zM40,224h47v1h-47zM246,224h33v1h-33zM425,224h47v1h-47zM39,225h47v1h-47zM246,225h33v1h-33zM426,225h47v1h-47zM38,226h47v1h-47zM246,226h33v1h-33zM427,226h47v1h-47zM37,227h47v1h-47zM245,227h34v1h-34zM428,227h47v1h-47zM36,228h47v1h-47zM245,228h34v1h-34zM429,228h47v1h-47zM35,229h47v1h-47zM245,229h33v1h-33zM430,229h47v1h-47zM34,230h47v1h-47zM245,230h33v1h-33zM431,230h47v1h-47zM33,231h47v1h-47zM245,231h33v1h-33zM432,231h47v1h-47zM32,232h47v1h-47zM244,232h34v1h-34zM433,232h47v1h-47zM31,233h47v1h-47zM244,233h34v1h-34zM434,233h47v1h-47zM30,234h47v1h-47zM244,234h33v1h-33zM435,234h47v1h-47zM29,235h47v1h-47zM244,235h33v1h-33zM436,235h47v1h-47zM28,236h47v1h-47zM243,236h34v1h-34zM437,236h47v1h-47zM27,237h47v1h-47zM243,237h34v1h-34zM438,237h47v1h-47zM26,238h47v1h-47zM243,238h33v1h-33zM439,238h47v1h-47zM25,239h47v1h-47zM243,239h33v1h-33zM440,239h47v1h-47zM24,240h47v1h-47zM243,240h33v1h-33zM441,240h47v1h-47zM23,241h47v1h-47zM242,241h34v1h-34zM442,241h47v1h-47zM22,242h47v1h-47zM242,242h34v1h-34zM443,242h47v1h-47zM21,243h47v1h-47zM242,243h33v1h-33zM444,243h47v1h-47zM20,244h47v1h-47zM242,244h33v1h-33zM445,244h47v1h-47zM19,245h47v1h-47zM242,245h33v1h-33zM446,245h47v1h-47zM19,246h46v1h-46zM241,246h34v1h-34zM447,246h46v1h-46zM18,247h46v1h-46zM241,247h34v1h-34zM448,247h46v1h-46zM17,248h46v1h-46zM241,248h33v1h-33zM449,248h46v1h-46zM17,249h45v1h-45zM241,249h33v1h-33zM450,249h45v1h-45zM17,250h44v1h-44zM240,250h34v1h-34zM451,250h44v1h-44zM16,251h44v1h-44zM240,251h34v1h-34zM452,251h44v1h-44zM16,252h43v1h-43zM240,252h33v1h-33zM453,252h43v1h-43zM16,253h42v1h-42zM240,253h33v1h-33zM454,253h42v1h-42zM16,254h42v1h-42zM240,254h33v1h-33zM454,254h42v1h-42zM16,255h42v1h-42zM239,255h34v1h-34zM454,255h42v1h-42zM16,256h42v1h-42zM239,256h34v1h-34zM454,256h42v1h-42zM16,257h42v1h-42zM239,257h33v1h-33zM454,257h42v1h-42zM16,258h42v1h-42zM239,258h33v1h-33zM454,258h42v1h-42zM16,259h43v1h-43zM239,259h33v1h-33zM453,259h43v1h-43zM16,260h44v1h-44zM238,260h34v1h-34zM452,260h44v1h-44zM17,261h44v1h-44zM238,261h34v1h-34zM451,261h44v1h-44zM17,262h45v1h-45zM238,262h33v1h-33zM450,262h45v1h-45zM17,263h46v1h-46zM238,263h33v1h-33zM449,263h46v1h-46zM18,264h46v1h-46zM237,264h34v1h-34zM448,264h46v1h-46zM19,265h46v1h-46zM237,265h34v1h-34zM447,265h46v1h-46zM19,266h47v1h-47zM237,266h33v1h-33zM446,266h47v1h-47zM20,267h47v1h-47zM237,267h33v1h-33zM445,267h47v1h-47zM21,268h47v1h-47zM237,268h33v1h-33zM444,268h47v1h-47zM22,269h47v1h-47zM236,269h34v1h-34zM443,269h47v1h-47zM23,270h47v1h-47zM236,270h34v1h-34zM442,270h47v1h-47zM24,271h47v1h-47zM236,271h33v1h-33zM441,271h47v1h-47zM25,272h47v1h-47zM236,272h33v1h-33zM440,272h47v1h-47zM26,273h47v1h-47zM236,273h33v1h-33zM439,273h47v1h-47zM27,274h47v1h-47zM235,274h34v1h-34zM438,274h47v1h-47zM28,275h47v1h-47zM235,275h34v1h-34zM437,275h47v1h-47zM29,276h47v1h-47zM235,276h33v1h-33zM436,276h47v1h-47zM30,277h47v1h-47zM235,277h33v1h-33zM435,277h47v1h-47zM31,278h47v1h-47zM234,278h34v1h-34zM434,278h47v1h-47zM32,279h47v1h-47zM234,279h34v1h-34zM433,279h47v1h-47zM33,280h47v1h-47zM234,280h33v1h-33zM432,280h47v1h-47zM34,281h47v1h-47zM234,281h33v1h-33zM431,281h47v1h-47zM35,282h47v1h-47zM234,282h33v1h-33zM430,282h47v1h-47zM36,283h47v1h-47zM233,283h34v1h-34zM429,283h47v1h-47zM37,284h47v1h-47zM233,284h34v1h-34zM428,284h47v1h-47zM38,285h47v1h-47zM233,285h33v1h-33zM427,285h47v1h-47zM39,286h47v1h-47zM233,286h33v1h-33zM426,286h47v1h-47zM40,287h47v1h-47zM233,287h33v1h-33zM425,287h47v1h-47zM41,288h47v1h-47zM232,288h34v1h-34zM424,288h47v1h-47zM42,289h47v1h-47zM232,289h34v1h-34zM423,289h47v1h-47zM43,290h47v1h-47zM232,290h33v1h-33zM422,290h47v1h-47zM44,291h47v1h-47zM232,291h33v1h-33zM421,291h47v1h-47zM45,292h47v1h-47zM231,292h34v1h-34zM420,292h47v1h-47zM46,293h47v1h-47zM231,293h34v1h-34zM419,293h47v1h-47zM47,294h47v1h-47zM231,294h33v1h-33zM418,294h47v1h-47zM48,295h47v1h-47zM231,295h33v1h-33zM417,295h47v1h-47zM49,296h47v1h-47zM231,296h33v1h-33zM416,296h47v1h-47zM50,297h47v1h-47zM230,297h34v1h-34zM415,297h47v1h-47zM51,298h47v1h-47zM230,298h34v1h-34zM414,298h47v1h-47zM52,299h47v1h-47zM230,299h33v1h-33zM413,299h47v1h-47zM53,300h47v1h-47zM230,300h33v1h-33zM412,300h47v1h-47zM54,301h47v1h-47zM230,301h33v1h-33zM411,301h47v1h-47zM55,302h47v1h-47zM229,302h34v1h-34zM410,302h47v1h-47zM56,303h47v1h-47zM229,303h34v1h-34zM409,303h47v1h-47zM57,304h47v1h-47zM229,304h33v1h-33zM408,304h47v1h-47zM58,305h47v1h-47zM229,305h33v1h-33zM407,305h47v1h-47zM59,306h47v1h-47zM228,306h34v1h-34zM406,306h47v1h-47zM60,307h47v1h-47zM228,307h34v1h-34zM405,307h47v1h-47zM61,308h47v1h-47zM228,308h33v1h-33zM404,308h47v1h-47zM62,309h47v1h-47zM228,309h33v1h-33zM403,309h47v1h-47zM63,310h47v1h-47zM228,310h33v1h-33zM402,310h47v1h-47zM64,311h47v1h-47zM227,311h34v1h-34zM401,311h47v1h-47zM65,312h47v1h-47zM227,312h34v1h-34zM400,312h47v1h-47zM66,313h47v1h-47zM227,313h33v1h-33zM399,313h47v1h-47zM67,314h47v1h-47zM227,314h33v1h-33zM398,314h47v1h-47zM68,315h47v1h-47zM227,315h33v1h-33zM397,315h47v1h-47zM69,316h47v1h-47zM226,316h34v1h-34zM396,316h47v1h-47zM70,317h47v1h-47zM226,317h34v1h-34zM395,317h47v1h-47zM71,318h47v1h-47zM226,318h33v1h-33zM394,318h47v1h-47zM72,319h47v1h-47zM226,319h33v1h-33zM393,319h47v1h-47zM73,320h47v1h-47zM225,320h34v1h-34zM392,320h47v1h-47zM74,321h47v1h-47zM225,321h34v1h-34zM391,321h47v1h-47zM75,322h47v1h-47zM225,322h33v1h-33zM390,322h47v1h-47zM76,323h47v1h-47zM225,323h33v1h-33zM389,323h47v1h-47zM77,324h47v1h-47zM225,324h33v1h-33zM388,324h47v1h-47zM78,325h47v1h-47zM224,325h34v1h-34zM387,325h47v1h-47zM79,326h47v1h-47zM224,326h34v1h-34zM386,326h47v1h-47zM80,327h47v1h-47zM224,327h33v1h-33zM385,327h47v1h-47zM81,328h47v1h-47zM224,328h33v1h-33zM384,328h47v1h-47zM82,329h47v1h-47zM224,329h33v1h-33zM383,329h47v1h-47zM83,330h47v1h-47zM223,330h34v1h-34zM382,330h47v1h-47zM84,331h47v1h-47zM223,331h34v1h-34zM381,331h47v1h-47zM85,332h47v1h-47zM223,332h33v1h-33zM380,332h47v1h-47zM86,333h47v1h-47zM223,333h33v1h-33zM379,333h47v1h-47zM87,334h47v1h-47zM222,334h34v1h-34zM378,334h47v1h-47zM88,335h47v1h-47zM222,335h34v1h-34zM377,335h47v1h-47zM89,336h47v1h-47zM222,336h33v1h-33zM376,336h47v1h-47zM90,337h47v1h-47zM222,337h33v1h-33zM375,337h47v1h-47zM91,338h47v1h-47zM222,338h33v1h-33zM374,338h47v1h-47zM92,339h47v1h-47zM221,339h34v1h-34zM373,339h47v1h-47zM93,340h47v1h-47zM221,340h34v1h-34zM372,340h47v1h-47zM94,341h47v1h-47zM221,341h33v1h-33zM371,341h47v1h-47zM95,342h46v1h-46zM221,342h33v1h-33zM371,342h46v1h-46zM96,343h46v1h-46zM221,343h33v1h-33zM370,343h46v1h-46zM97,344h46v1h-46zM220,344h34v1h-34zM369,344h46v1h-46zM98,345h45v1h-45zM220,345h34v1h-34zM369,345h45v1h-45zM99,346h44v1h-44zM220,346h33v1h-33zM369,346h44v1h-44zM100,347h44v1h-44zM220,347h33v1h-33zM368,347h44v1h-44zM101,348h43v1h-43zM219,348h34v1h-34zM368,348h43v1h-43zM102,349h42v1h-42zM219,349h34v1h-34zM368,349h42v1h-42zM103,350h41v1h-41zM219,350h33v1h-33zM368,350h41v1h-41zM104,351h40v1h-40zM219,351h33v1h-33zM368,351h40v1h-40zM105,352h39v1h-39zM219,352h33v1h-33zM368,352h39v1h-39zM106,353h38v1h-38zM218,353h34v1h-34zM368,353h38v1h-38zM107,354h37v1h-37zM218,354h34v1h-34zM368,354h37v1h-37zM108,355h36v1h-36zM218,355h33v1h-33zM368,355h36v1h-36zM109,356h35v1h-35zM218,356h33v1h-33zM368,356h35v1h-35zM110,357h33v1h-33zM218,357h33v1h-33zM369,357h33v1h-33zM111,358h32v1h-32zM217,358h34v1h-34zM369,358h32v1h-32zM112,359h31v1h-31zM217,359h34v1h-34zM369,359h31v1h-31zM113,360h29v1h-29zM217,360h33v1h-33zM370,360h29v1h-29zM114,361h27v1h-27zM217,361h33v1h-33zM371,361h27v1h-27zM115,362h26v1h-26zM216,362h34v1h-34zM371,362h26v1h-26zM116,363h24v1h-24zM216,363h34v1h-34zM372,363h24v1h-24zM117,364h22v1h-22zM216,364h33v1h-33zM373,364h22v1h-22zM119,365h18v1h-18zM216,365h33v1h-33zM375,365h18v1h-18zM120,366h16v1h-16zM216,366h33v1h-33zM376,366h16v1h-16zM123,367h10v1h-10zM215,367h34v1h-34zM379,367h10v1h-10zM215,368h34v1h-34zM215,369h33v1h-33zM215,370h33v1h-33zM215,371h33v1h-33zM214,372h34v1h-34zM214,373h34v1h-34zM214,374h33v1h-33zM214,375h33v1h-33zM213,376h34v1h-34zM213,377h34v1h-34zM213,378h33v1h-33zM213,379h33v1h-33zM213,380h33v1h-33zM212,381h34v1h-34zM212,382h34v1h-34zM212,383h33v1h-33zM212,384h33v1h-33zM212,385h33v1h-33zM211,386h34v1h-34zM211,387h34v1h-34zM211,388h33v1h-33zM211,389h33v1h-33zM210,390h34v1h-34zM210,391h34v1h-34zM210,392h33v1h-33zM210,393h33v1h-33zM210,394h33v1h-33zM209,395h34v1h-34zM209,396h34v1h-34zM209,397h33v1h-33zM209,398h33v1h-33zM209,399h33v1h-33zM208,400h34v1h-34zM208,401h34v1h-34zM208,402h33v1h-33zM208,403h33v1h-33zM207,404h34v1h-34zM207,405h34v1h-34zM207,406h33v1h-33zM207,407h33v1h-33zM207,408h33v1h-33zM206,409h34v1h-34zM206,410h34v1h-34zM206,411h33v1h-33zM206,412h33v1h-33zM206,413h33v1h-33zM205,414h34v1h-34zM205,415h34v1h-34zM205,416h33v1h-33zM205,417h33v1h-33zM204,418h34v1h-34zM204,419h34v1h-34zM204,420h33v1h-33zM204,421h33v1h-33zM204,422h33v1h-33zM203,423h34v1h-34zM203,424h34v1h-34zM203,425h33v1h-33zM203,426h33v1h-33zM203,427h33v1h-33zM202,428h34v1h-34zM202,429h34v1h-34zM202,430h33v1h-33zM202,431h33v1h-33zM201,432h34v1h-34zM201,433h34v1h-34zM201,434h33v1h-33zM201,435h33v1h-33zM201,436h33v1h-33zM200,437h34v1h-34zM200,438h34v1h-34zM200,439h33v1h-33zM200,440h33v1h-33zM200,441h33v1h-33zM199,442h34v1h-34zM199,443h34v1h-34zM199,444h33v1h-33zM199,445h33v1h-33zM198,446h34v1h-34zM198,447h34v1h-34zM198,448h33v1h-33zM198,449h33v1h-33zM198,450h33v1h-33zM197,451h34v1h-34zM197,452h34v1h-34zM197,453h33v1h-33zM197,454h33v1h-33zM197,455h33v1h-33zM196,456h34v1h-34zM196,457h34v1h-34zM196,458h33v1h-33zM196,459h33v1h-33zM195,460h34v1h-34zM195,461h34v1h-34zM195,462h33v1h-33zM195,463h33v1h-33zM195,464h33v1h-33zM194,465h34v1h-34zM194,466h34v1h-34zM194,467h33v1h-33zM194,468h33v1h-33zM194,469h33v1h-33zM193,470h34v1h-34zM193,471h34v1h-34zM193,472h33v1h-33zM193,473h33v1h-33zM192,474h34v1h-34zM192,475h34v1h-34zM192,476h33v1h-33zM192,477h33v1h-33zM192,478h33v1h-33zM192,479h33v1h-33zM192,480h33v1h-33zM192,481h32v1h-32zM192,482h32v1h-32zM192,483h32v1h-32zM192,484h32v1h-32zM193,485h30v1h-30zM193,486h30v1h-30zM193,487h30v1h-30zM194,488h28v1h-28zM195,489h26v1h-26zM196,490h25v1h-25zM196,491h24v1h-24zM198,492h20v1h-20zM199,493h18v1h-18zM200,494h15v1h-15zM203,495h10v1h-10z"/></svg>