<?xml version="1.0" encoding="UTF-8"?>
<svg xmlns="http://www.w3.org/2000/svg" viewBox="0 0 512 512" width="512" height="512"><path fill="#000" d="M235,16h41v1h-41zM226,17h60v1h-60zM219,18h74v1h-74zM213,19h86v1h-86zM208,20h96v1h-96zM203,21h106v1h-106zM199,22h114v1h-114zM195,23h122v1h-122zM191,24h130v1h-130zM188,25h136v1h-136zM185,26h142v1h-142zM181,27h150v1h-150zM179,28h155v1h-155zM176,29h160v1h-160zM173,30h166v1h-166zM170,31h172v1h-172zM168,32h176v1h-176zM165,33h182v1h-182zM163,34h186v1h-186zM160,35h192v1h-192zM158,36h196v1h-196zM156,37h200v1h-200zM154,38h204v1h-204zM152,39h208v1h-208zM150,40h212v1h-212zM148,41h216v1h-216zM146,42h220v1h-220zM144,43h224v1h-224zM142,44h228v1h-228zM140,45h232v1h-232zM138,46h236v1h-236zM136,47h240v1h-240zM135,48h115v1h-115zM262,48h115v1h-115zM133,49h102v1h-102zM277,49h102v1h-102zM131,50h96v1h-96zM285,50h96v1h-96zM130,51h90v1h-90zM292,51h90v1h-90zM128,52h87v1h-87zM297,52h87v1h-87zM127,53h83v1h-83zM302,53h83v1h-83zM125,54h81v1h-81zM306,54h81v1h-81zM123,55h79v1h-79zM310,55h79v1h-79zM122,56h77v1h-77zM314,56h76v1h-76zM120,57h75v1h-75zM317,57h74v1h-74zM119,58h73v1h-73zM320,58h73v1h-73zM118,59h71v1h-71zM323,59h71v1h-71zM116,60h70v1h-70zM326,60h70v1h-70zM115,61h68v1h-68zM329,61h68v1h-68zM113,62h68v1h-68zM331,62h68v1h-68zM112,63h66v1h-66zM334,63h66v1h-66zM111,64h65v1h-65zM248,64h16v1h-16zM336,64h65v1h-65zM109,65h64v1h-64zM244,65h24v1h-24zM339,65h64v1h-64zM108,66h63v1h-63zM241,66h30v1h-30zM341,66h63v1h-63zM107,67h62v1h-62zM239,67h34v1h-34zM343,67h62v1h-62zM106,68h61v1h-61zM237,68h38v1h-38zM345,68h61v1h-61zM104,69h61v1h-61zM235,69h42v1h-42zM347,69h61v1h-61zM103,70h60v1h-60zM233,70h46v1h-46zM349,70h60v1h-60zM102,71h59v1h-59zM232,71h48v1h-48zM351,71h59v1h-59zM101,72h58v1h-58zM231,72h50v1h-50zM353,72h58v1h-58zM100,73h57v1h-57zM230,73h52v1h-52zM355,73h57v1h-57zM98,74h57v1h-57zM229,74h54v1h-54zM357,74h57v1h-57zM97,75h56v1h-56zM227,75h58v1h-58zM359,75h56v1h-56zM96,76h56v1h-56zM227,76h59v1h-59zM360,76h56v1h-56zM95,77h55v1h-55zM226,77h60v1h-60zM362,77h55v1h-55zM94,78h54v1h-54zM225,78h62v1h-62zM364,78h54v1h-54zM93,79h54v1h-54zM224,79h64v1h-64zM365,79h54v1h-54zM92,80h53v1h-53zM223,80h66v1h-66zM367,80h53v1h-53zM91,81h53v1h-53zM222,81h68v1h-68zM368,81h53v1h-53zM90,82h52v1h-52zM222,82h68v1h-68zM370,82h52v1h-52zM89,83h51v1h-51zM221,83h70v1h-70zM372,83h51v1h-51zM88,84h51v1h-51zM221,84h70v1h-70zM373,84h51v1h-51zM87,85h51v1h-51zM220,85h72v1h-72zM374,85h51v1h-51zM86,86h50v1h-50zM220,86h72v1h-72zM376,86h50v1h-50zM85,87h50v1h-50zM219,87h74v1h-74zM377,87h50v1h-50zM84,88h49v1h-49zM219,88h74v1h-74zM379,88h49v1h-49zM83,89h49v1h-49zM218,89h76v1h-76zM380,89h49v1h-49zM82,90h49v1h-49zM218,90h76v1h-76zM381,90h49v1h-49zM81,91h48v1h-48zM218,91h76v1h-76zM383,91h48v1h-48zM80,92h48v1h-48zM217,92h78v1h-78zM384,92h48v1h-48zM79,93h48v1h-48zM217,93h78v1h-78zM385,93h48v1h-48zM78,94h48v1h-48zM217,94h78v1h-78zM386,94h48v1h-48zM77,95h47v1h-47zM217,95h78v1h-78zM388,95h47v1h-47zM76,96h47v1h-47zM216,96h80v1h-80zM389,96h47v1h-47zM75,97h47v1h-47zM216,97h36v1h-36zM260,97h36v1h-36zM390,97h47v1h-47zM74,98h47v1h-47zM216,98h35v1h-35zM261,98h35v1h-35zM391,98h47v1h-47zM74,99h46v1h-46zM216,99h34v1h-34zM262,99h34v1h-34zM392,99h46v1h-46zM73,100h45v1h-45zM216,100h33v1h-33zM263,100h33v1h-33zM394,100h45v1h-45zM72,101h45v1h-45zM216,101h33v1h-33zM263,101h33v1h-33zM395,101h45v1h-45zM71,102h45v1h-45zM216,102h33v1h-33zM263,102h33v1h-33zM396,102h45v1h-45zM70,103h45v1h-45zM216,103h33v1h-33zM263,103h33v1h-33zM397,103h45v1h-45zM69,104h45v1h-45zM216,104h33v1h-33zM263,104h33v1h-33zM398,104h45v1h-45zM69,105h44v1h-44zM216,105h33v1h-33zM263,105h33v1h-33zM399,105h44v1h-44zM68,106h44v1h-44zM216,106h33v1h-33zM263,106h33v1h-33zM400,106h44v1h-44zM67,107h44v1h-44zM216,107h33v1h-33zM263,107h33v1h-33zM401,107h44v1h-44zM66,108h44v1h-44zM143,108h11v1h-11zM216,108h34v1h-34zM262,108h34v1h-34zM358,108h11v1h-11zM402,108h44v1h-44zM65,109h44v1h-44zM138,109h21v1h-21zM216,109h35v1h-35zM261,109h35v1h-35zM353,109h21v1h-21zM403,109h44v1h-44zM65,110h43v1h-43zM135,110h27v1h-27zM216,110h36v1h-36zM260,110h36v1h-36zM350,110h27v1h-27zM404,110h43v1h-43zM64,111h43v1h-43zM132,111h33v1h-33zM216,111h80v1h-80zM347,111h33v1h-33zM405,111h43v1h-43zM63,112h43v1h-43zM130,112h37v1h-37zM217,112h78v1h-78zM345,112h37v1h-37zM406,112h43v1h-43zM62,113h43v1h-43zM128,113h41v1h-41zM217,113h78v1h-78zM343,113h40v1h-40zM407,113h43v1h-43zM62,114h42v1h-42zM127,114h43v1h-43zM217,114h78v1h-78zM342,114h43v1h-43zM408,114h42v1h-42zM61,115h42v1h-42zM125,115h47v1h-47zM217,115h78v1h-78zM340,115h47v1h-47zM409,115h42v1h-42zM60,116h42v1h-42zM124,116h49v1h-49zM218,116h76v1h-76zM339,116h49v1h-49zM410,116h42v1h-42zM60,117h41v1h-41zM123,117h51v1h-51zM218,117h76v1h-76zM338,117h51v1h-51zM411,117h41v1h-41zM59,118h41v1h-41zM122,118h53v1h-53zM218,118h76v1h-76zM337,118h53v1h-53zM412,118h41v1h-41zM58,119h42v1h-42zM121,119h56v1h-56zM219,119h74v1h-74zM335,119h57v1h-57zM412,119h42v1h-42zM57,120h42v1h-42zM119,120h59v1h-59zM219,120h74v1h-74zM334,120h58v1h-58zM413,120h41v1h-41zM57,121h41v1h-41zM119,121h59v1h-59zM220,121h72v1h-72zM334,121h59v1h-59zM414,121h41v1h-41zM56,122h41v1h-41zM118,122h61v1h-61zM220,122h72v1h-72zM333,122h61v1h-61zM415,122h41v1h-41zM55,123h41v1h-41zM117,123h63v1h-63zM221,123h70v1h-70zM332,123h63v1h-63zM416,123h41v1h-41zM55,124h40v1h-40zM116,124h65v1h-65zM221,124h70v1h-70zM331,124h65v1h-65zM417,124h40v1h-40zM54,125h41v1h-41zM115,125h67v1h-67zM222,125h68v1h-68zM330,125h67v1h-67zM417,125h41v1h-41zM54,126h40v1h-40zM115,126h67v1h-67zM222,126h67v1h-67zM330,126h67v1h-67zM418,126h40v1h-40zM53,127h40v1h-40zM114,127h69v1h-69zM223,127h66v1h-66zM329,127h69v1h-69zM419,127h40v1h-40zM52,128h40v1h-40zM114,128h70v1h-70zM224,128h64v1h-64zM328,128h71v1h-71zM420,128h40v1h-40zM52,129h39v1h-39zM113,129h71v1h-71zM225,129h62v1h-62zM328,129h71v1h-71zM421,129h39v1h-39zM51,130h40v1h-40zM112,130h73v1h-73zM226,130h60v1h-60zM327,130h73v1h-73zM421,130h40v1h-40zM50,131h40v1h-40zM112,131h73v1h-73zM227,131h59v1h-59zM327,131h73v1h-73zM422,131h40v1h-40zM50,132h39v1h-39zM111,132h75v1h-75zM227,132h58v1h-58zM326,132h75v1h-75zM423,132h39v1h-39zM49,133h39v1h-39zM111,133h75v1h-75zM229,133h54v1h-54zM326,133h75v1h-75zM424,133h39v1h-39zM49,134h39v1h-39zM111,134h75v1h-75zM230,134h52v1h-52zM326,134h75v1h-75zM424,134h39v1h-39zM48,135h39v1h-39zM110,135h77v1h-77zM231,135h50v1h-50zM325,135h77v1h-77zM425,135h39v1h-39zM47,136h39v1h-39zM110,136h77v1h-77zM232,136h48v1h-48zM325,136h77v1h-77zM426,136h39v1h-39zM47,137h39v1h-39zM110,137h77v1h-77zM233,137h45v1h-45zM325,137h77v1h-77zM426,137h39v1h-39zM46,138h39v1h-39zM109,138h79v1h-79zM235,138h42v1h-42zM324,138h79v1h-79zM427,138h39v1h-39zM46,139h38v1h-38zM109,139h79v1h-79zM237,139h38v1h-38zM324,139h79v1h-79zM428,139h38v1h-38zM45,140h38v1h-38zM109,140h79v1h-79zM239,140h34v1h-34zM324,140h79v1h-79zM429,140h38v1h-38zM45,141h38v1h-38zM109,141h37v1h-37zM151,141h37v1h-37zM241,141h30v1h-30zM324,141h37v1h-37zM366,141h37v1h-37zM429,141h38v1h-38zM44,142h38v1h-38zM109,142h35v1h-35zM153,142h35v1h-35zM244,142h24v1h-24zM324,142h35v1h-35zM368,142h35v1h-35zM430,142h38v1h-38zM44,143h38v1h-38zM108,143h35v1h-35zM154,143h35v1h-35zM248,143h16v1h-16zM323,143h35v1h-35zM369,143h35v1h-35zM430,143h38v1h-38zM43,144h38v1h-38zM108,144h34v1h-34zM155,144h34v1h-34zM323,144h34v1h-34zM370,144h34v1h-34zM431,144h38v1h-38zM43,145h37v1h-37zM108,145h34v1h-34zM156,145h33v1h-33zM323,145h33v1h-33zM370,145h34v1h-34zM432,145h37v1h-37zM42,146h38v1h-38zM108,146h33v1h-33zM156,146h33v1h-33zM323,146h33v1h-33zM371,146h33v1h-33zM432,146h38v1h-38zM42,147h37v1h-37zM108,147h33v1h-33zM156,147h33v1h-33zM323,147h33v1h-33zM371,147h33v1h-33zM433,147h37v1h-37zM41,148h37v1h-37zM108,148h33v1h-33zM156,148h33v1h-33zM323,148h33v1h-33zM371,148h33v1h-33zM434,148h37v1h-37zM41,149h37v1h-37zM108,149h33v1h-33zM156,149h33v1h-33zM323,149h33v1h-33zM371,149h33v1h-33zM434,149h37v1h-37zM40,150h37v1h-37zM108,150h33v1h-33zM156,150h33v1h-33zM323,150h33v1h-33zM371,150h33v1h-33zM435,150h37v1h-37zM40,151h37v1h-37zM108,151h34v1h-34zM156,151h33v1h-33zM323,151h33v1h-33zM370,151h34v1h-34zM435,151h37v1h-37zM39,152h37v1h-37zM108,152h34v1h-34zM155,152h34v1h-34zM323,152h34v1h-34zM370,152h34v1h-34zM436,152h37v1h-37zM39,153h36v1h-36zM108,153h35v1h-35zM154,153h35v1h-35zM323,153h35v1h-35zM369,153h35v1h-35zM437,153h36v1h-36zM38,154h37v1h-37zM109,154h35v1h-35zM153,154h35v1h-35zM324,154h35v1h-35zM368,154h35v1h-35zM437,154h37v1h-37zM38,155h36v1h-36zM109,155h36v1h-36zM152,155h36v1h-36zM324,155h36v1h-36zM367,155h36v1h-36zM438,155h36v1h-36zM37,156h37v1h-37zM109,156h79v1h-79zM324,156h79v1h-79zM438,156h37v1h-37zM37,157h36v1h-36zM109,157h79v1h-79zM324,157h79v1h-79zM439,157h36v1h-36zM36,158h37v1h-37zM109,158h79v1h-79zM324,158h79v1h-79zM439,158h37v1h-37zM36,159h36v1h-36zM110,159h77v1h-77zM325,159h77v1h-77zM440,159h36v1h-36zM35,160h37v1h-37zM110,160h77v1h-77zM325,160h77v1h-77zM440,160h37v1h-37zM35,161h36v1h-36zM110,161h77v1h-77zM325,161h77v1h-77zM441,161h36v1h-36zM35,162h36v1h-36zM111,162h75v1h-75zM326,162h75v1h-75zM441,162h36v1h-36zM34,163h36v1h-36zM111,163h75v1h-75zM326,163h75v1h-75zM442,163h36v1h-36zM34,164h36v1h-36zM111,164h75v1h-75zM326,164h75v1h-75zM442,164h36v1h-36zM33,165h36v1h-36zM112,165h73v1h-73zM327,165h73v1h-73zM443,165h36v1h-36zM33,166h36v1h-36zM112,166h73v1h-73zM327,166h73v1h-73zM443,166h36v1h-36zM33,167h35v1h-35zM113,167h71v1h-71zM328,167h71v1h-71zM444,167h35v1h-35zM32,168h36v1h-36zM113,168h71v1h-71zM328,168h71v1h-71zM444,168h36v1h-36zM32,169h35v1h-35zM114,169h69v1h-69zM329,169h69v1h-69zM445,169h35v1h-35zM31,170h36v1h-36zM115,170h67v1h-67zM330,170h67v1h-67zM445,170h36v1h-36zM31,171h35v1h-35zM115,171h67v1h-67zM330,171h67v1h-67zM446,171h35v1h-35zM31,172h35v1h-35zM116,172h65v1h-65zM331,172h65v1h-65zM446,172h35v1h-35zM30,173h35v1h-35zM117,173h63v1h-63zM332,173h63v1h-63zM447,173h35v1h-35zM30,174h35v1h-35zM118,174h61v1h-61zM333,174h61v1h-61zM447,174h35v1h-35zM30,175h35v1h-35zM119,175h59v1h-59zM334,175h59v1h-59zM447,175h35v1h-35zM29,176h35v1h-35zM119,176h59v1h-59zM334,176h59v1h-59zM448,176h35v1h-35zM29,177h35v1h-35zM120,177h57v1h-57zM335,177h57v1h-57zM448,177h35v1h-35zM29,178h34v1h-34zM122,178h53v1h-53zM337,178h53v1h-53zM449,178h35v1h-35zM28,179h35v1h-35zM123,179h51v1h-51zM338,179h51v1h-51zM449,179h35v1h-35zM28,180h35v1h-35zM124,180h49v1h-49zM339,180h49v1h-49zM449,180h35v1h-35zM27,181h35v1h-35zM125,181h47v1h-47zM340,181h47v1h-47zM450,181h34v1h-34zM27,182h35v1h-35zM127,182h43v1h-43zM342,182h43v1h-43zM450,182h35v1h-35zM27,183h34v1h-34zM128,183h41v1h-41zM343,183h41v1h-41zM451,183h34v1h-34zM27,184h34v1h-34zM130,184h37v1h-37zM345,184h37v1h-37zM451,184h34v1h-34zM26,185h35v1h-35zM132,185h33v1h-33zM347,185h33v1h-33zM451,185h35v1h-35zM26,186h34v1h-34zM135,186h27v1h-27zM350,186h27v1h-27zM452,186h34v1h-34zM26,187h34v1h-34zM138,187h21v1h-21zM353,187h21v1h-21zM452,187h34v1h-34zM25,188h35v1h-35zM143,188h11v1h-11zM358,188h11v1h-11zM452,188h35v1h-35zM25,189h34v1h-34zM453,189h34v1h-34zM25,190h34v1h-34zM453,190h34v1h-34zM24,191h35v1h-35zM453,191h35v1h-35zM24,192h34v1h-34zM454,192h34v1h-34zM24,193h34v1h-34zM454,193h34v1h-34zM24,194h34v1h-34zM454,194h34v1h-34zM23,195h34v1h-34zM455,195h34v1h-34zM23,196h34v1h-34zM455,196h34v1h-34zM23,197h34v1h-34zM455,197h34v1h-34zM23,198h34v1h-34zM455,198h34v1h-34zM22,199h34v1h-34zM456,199h34v1h-34zM22,200h34v1h-34zM456,200h34v1h-34zM22,201h34v1h-34zM456,201h34v1h-34zM22,202h33v1h-33zM457,202h33v1h-33zM21,203h34v1h-34zM457,203h34v1h-34zM21,204h34v1h-34zM457,204h34v1h-34zM21,205h34v1h-34zM457,205h34v1h-34zM21,206h33v1h-33zM458,206h33v1h-33zM21,207h33v1h-33zM458,207h33v1h-33zM20,208h34v1h-34zM458,208h34v1h-34zM20,209h34v1h-34zM458,209h34v1h-34zM20,210h33v1h-33zM459,210h33v1h-33zM20,211h33v1h-33zM459,211h33v1h-33zM20,212h33v1h-33zM459,212h33v1h-33zM19,213h34v1h-34zM459,213h34v1h-34zM19,214h34v1h-34zM459,214h34v1h-34zM19,215h33v1h-33zM460,215h33v1h-33zM19,216h33v1h-33zM96,216h16v1h-16zM460,216h33v1h-33zM19,217h33v1h-33zM92,217h24v1h-24zM460,217h33v1h-33zM19,218h33v1h-33zM89,218h30v1h-30zM460,218h33v1h-33zM18,219h34v1h-34zM87,219h34v1h-34zM460,219h34v1h-34zM18,220h33v1h-33zM85,220h38v1h-38zM461,220h33v1h-33zM18,221h33v1h-33zM83,221h42v1h-42zM461,221h33v1h-33zM18,222h33v1h-33zM81,222h46v1h-46zM461,222h33v1h-33zM18,223h33v1h-33zM80,223h48v1h-48zM461,223h33v1h-33zM18,224h33v1h-33zM79,224h50v1h-50zM461,224h33v1h-33zM18,225h33v1h-33zM78,225h52v1h-52zM461,225h33v1h-33zM17,226h34v1h-34zM77,226h54v1h-54zM462,226h33v1h-33zM17,227h33v1h-33zM75,227h58v1h-58zM462,227h33v1h-33zM17,228h33v1h-33zM75,228h59v1h-59zM462,228h33v1h-33zM17,229h33v1h-33zM74,229h60v1h-60zM462,229h33v1h-33zM17,230h33v1h-33zM73,230h62v1h-62zM462,230h33v1h-33zM17,231h33v1h-33zM72,231h64v1h-64zM462,231h33v1h-33zM17,232h33v1h-33zM71,232h66v1h-66zM462,232h33v1h-33zM17,233h33v1h-33zM70,233h68v1h-68zM462,233h33v1h-33zM17,234h33v1h-33zM70,234h68v1h-68zM462,234h33v1h-33zM16,235h33v1h-33zM69,235h70v1h-70zM463,235h32v1h-32zM16,236h33v1h-33zM69,236h70v1h-70zM463,236h33v1h-33zM16,237h33v1h-33zM68,237h72v1h-72zM463,237h33v1h-33zM16,238h33v1h-33zM68,238h72v1h-72zM463,238h33v1h-33zM16,239h33v1h-33zM67,239h74v1h-74zM463,239h33v1h-33zM16,240h33v1h-33zM67,240h74v1h-74zM251,240h245v1h-245zM16,241h33v1h-33zM66,241h76v1h-76zM248,241h248v1h-248zM16,242h33v1h-33zM66,242h76v1h-76zM247,242h249v1h-249zM16,243h33v1h-33zM66,243h76v1h-76zM245,243h251v1h-251zM16,244h33v1h-33zM65,244h78v1h-78zM244,244h252v1h-252zM16,245h33v1h-33zM65,245h78v1h-78zM243,245h253v1h-253zM16,246h33v1h-33zM65,246h78v1h-78zM243,246h253v1h-253zM16,247h33v1h-33zM65,247h78v1h-78zM242,247h254v1h-254zM16,248h33v1h-33zM64,248h80v1h-80zM241,248h255v1h-255zM16,249h33v1h-33zM64,249h36v1h-36zM108,249h36v1h-36zM241,249h255v1h-255zM16,250h32v1h-32zM64,250h35v1h-35zM109,250h35v1h-35zM241,250h255v1h-255zM16,251h32v1h-32zM64,251h34v1h-34zM110,251h34v1h-34zM240,251h256v1h-256zM16,252h32v1h-32zM64,252h33v1h-33zM111,252h33v1h-33zM240,252h256v1h-256zM16,253h32v1h-32zM64,253h33v1h-33zM111,253h33v1h-33zM240,253h256v1h-256zM16,254h32v1h-32zM64,254h33v1h-33zM111,254h33v1h-33zM240,254h256v1h-256zM16,255h32v1h-32zM64,255h33v1h-33zM111,255h33v1h-33zM240,255h256v1h-256zM16,256h32v1h-32zM64,256h33v1h-33zM111,256h33v1h-33zM240,256h256v1h-256zM16,257h32v1h-32zM64,257h33v1h-33zM111,257h33v1h-33zM240,257h256v1h-256zM16,258h32v1h-32zM64,258h33v1h-33zM111,258h33v1h-33zM240,258h256v1h-256zM16,259h32v1h-32zM64,259h33v1h-33zM111,259h33v1h-33zM240,259h256v1h-256zM16,260h32v1h-32zM64,260h34v1h-34zM110,260h34v1h-34zM240,260h256v1h-256zM16,261h32v1h-32zM64,261h35v1h-35zM109,261h35v1h-35zM240,261h255v1h-255zM16,262h33v1h-33zM64,262h36v1h-36zM108,262h36v1h-36zM240,262h255v1h-255zM16,263h33v1h-33zM64,263h80v1h-80zM240,263h255v1h-255zM16,264h33v1h-33zM65,264h78v1h-78zM240,264h254v1h-254zM16,265h33v1h-33zM65,265h78v1h-78zM240,265h253v1h-253zM16,266h33v1h-33zM65,266h78v1h-78zM240,266h253v1h-253zM16,267h33v1h-33zM65,267h78v1h-78zM240,267h252v1h-252zM16,268h33v1h-33zM66,268h76v1h-76zM240,268h251v1h-251zM16,269h33v1h-33zM66,269h76v1h-76zM240,269h249v1h-249zM16,270h33v1h-33zM66,270h76v1h-76zM240,270h248v1h-248zM16,271h33v1h-33zM67,271h74v1h-74zM240,271h245v1h-245zM16,272h33v1h-33zM67,272h74v1h-74zM240,272h32v1h-32zM16,273h33v1h-33zM68,273h72v1h-72zM240,273h32v1h-32zM16,274h33v1h-33zM68,274h72v1h-72zM240,274h32v1h-32zM16,275h33v1h-33zM69,275h70v1h-70zM240,275h32v1h-32zM17,276h32v1h-32zM69,276h70v1h-70zM240,276h32v1h-32zM17,277h33v1h-33zM70,277h68v1h-68zM240,277h32v1h-32zM17,278h33v1h-33zM70,278h67v1h-67zM240,278h32v1h-32zM17,279h33v1h-33zM71,279h66v1h-66zM240,279h32v1h-32zM17,280h33v1h-33zM72,280h64v1h-64zM240,280h32v1h-32zM17,281h33v1h-33zM73,281h62v1h-62zM240,281h32v1h-32zM17,282h33v1h-33zM74,282h60v1h-60zM240,282h32v1h-32zM17,283h33v1h-33zM75,283h59v1h-59zM240,283h32v1h-32zM17,284h33v1h-33zM75,284h58v1h-58zM240,284h32v1h-32zM17,285h33v1h-33zM77,285h54v1h-54zM240,285h32v1h-32zM18,286h33v1h-33zM78,286h52v1h-52zM240,286h32v1h-32zM18,287h33v1h-33zM79,287h50v1h-50zM240,287h32v1h-32zM18,288h33v1h-33zM80,288h48v1h-48zM240,288h32v1h-32zM18,289h33v1h-33zM81,289h45v1h-45zM240,289h32v1h-32zM18,290h33v1h-33zM83,290h42v1h-42zM240,290h32v1h-32zM18,291h33v1h-33zM85,291h38v1h-38zM240,291h32v1h-32zM18,292h34v1h-34zM87,292h34v1h-34zM240,292h32v1h-32zM19,293h33v1h-33zM89,293h30v1h-30zM240,293h32v1h-32zM19,294h33v1h-33zM92,294h24v1h-24zM240,294h32v1h-32zM19,295h33v1h-33zM96,295h16v1h-16zM240,295h32v1h-32zM19,296h33v1h-33zM240,296h32v1h-32zM19,297h34v1h-34zM240,297h32v1h-32zM19,298h34v1h-34zM240,298h32v1h-32zM20,299h33v1h-33zM240,299h32v1h-32zM20,300h33v1h-33zM240,300h32v1h-32zM20,301h33v1h-33zM240,301h32v1h-32zM20,302h34v1h-34zM240,302h32v1h-32zM20,303h34v1h-34zM240,303h32v1h-32zM21,304h33v1h-33zM240,304h32v1h-32zM21,305h33v1h-33zM240,305h32v1h-32zM21,306h34v1h-34zM240,306h32v1h-32zM21,307h34v1h-34zM240,307h32v1h-32zM21,308h34v1h-34zM240,308h32v1h-32zM22,309h33v1h-33zM240,309h32v1h-32zM22,310h34v1h-34zM240,310h32v1h-32zM22,311h34v1h-34zM240,311h32v1h-32zM22,312h34v1h-34zM240,312h32v1h-32zM23,313h33v1h-33zM240,313h32v1h-32zM23,314h34v1h-34zM240,314h32v1h-32zM23,315h34v1h-34zM240,315h32v1h-32zM23,316h34v1h-34zM240,316h32v1h-32zM24,317h34v1h-34zM240,317h32v1h-32zM24,318h34v1h-34zM240,318h32v1h-32zM24,319h34v1h-34zM240,319h32v1h-32zM24,320h35v1h-35zM240,320h32v1h-32zM25,321h34v1h-34zM240,321h32v1h-32zM25,322h34v1h-34zM240,322h32v1h-32zM25,323h35v1h-35zM143,323h11v1h-11zM240,323h32v1h-32zM26,324h34v1h-34zM138,324h21v1h-21zM240,324h32v1h-32zM26,325h34v1h-34zM135,325h27v1h-27zM240,325h32v1h-32zM26,326h35v1h-35zM132,326h33v1h-33zM240,326h32v1h-32zM27,327h34v1h-34zM130,327h37v1h-37zM240,327h32v1h-32zM27,328h34v1h-34zM128,328h41v1h-41zM240,328h32v1h-32zM27,329h35v1h-35zM127,329h43v1h-43zM240,329h32v1h-32zM27,330h35v1h-35zM125,330h47v1h-47zM240,330h32v1h-32zM28,331h35v1h-35zM124,331h49v1h-49zM240,331h32v1h-32zM28,332h35v1h-35zM123,332h51v1h-51zM240,332h32v1h-32zM29,333h34v1h-34zM122,333h53v1h-53zM240,333h32v1h-32zM29,334h35v1h-35zM120,334h57v1h-57zM240,334h32v1h-32zM29,335h35v1h-35zM119,335h59v1h-59zM240,335h32v1h-32zM30,336h35v1h-35zM119,336h59v1h-59zM240,336h32v1h-32zM30,337h35v1h-35zM118,337h61v1h-61zM240,337h32v1h-32zM30,338h35v1h-35zM117,338h63v1h-63zM240,338h32v1h-32zM31,339h35v1h-35zM116,339h65v1h-65zM240,339h32v1h-32zM31,340h35v1h-35zM115,340h67v1h-67zM240,340h32v1h-32zM31,341h36v1h-36zM115,341h67v1h-67zM240,341h32v1h-32zM32,342h35v1h-35zM114,342h69v1h-69zM240,342h32v1h-32zM32,343h36v1h-36zM113,343h71v1h-71zM240,343h32v1h-32zM33,344h35v1h-35zM113,344h71v1h-71zM240,344h32v1h-32zM33,345h36v1h-36zM112,345h73v1h-73zM240,345h32v1h-32zM33,346h36v1h-36zM112,346h73v1h-73zM240,346h32v1h-32zM34,347h36v1h-36zM111,347h75v1h-75zM240,347h32v1h-32zM34,348h36v1h-36zM111,348h75v1h-75zM240,348h32v1h-32zM35,349h36v1h-36zM111,349h75v1h-75zM240,349h32v1h-32zM35,350h36v1h-36zM110,350h77v1h-77zM240,350h32v1h-32zM35,351h37v1h-37zM110,351h77v1h-77zM240,351h32v1h-32zM36,352h36v1h-36zM110,352h77v1h-77zM240,352h32v1h-32zM36,353h37v1h-37zM109,353h79v1h-79zM240,353h32v1h-32zM37,354h36v1h-36zM109,354h79v1h-79zM240,354h32v1h-32zM37,355h37v1h-37zM109,355h79v1h-79zM240,355h32v1h-32zM38,356h36v1h-36zM109,356h36v1h-36zM152,356h36v1h-36zM240,356h32v1h-32zM38,357h37v1h-37zM109,357h35v1h-35zM153,357h35v1h-35zM240,357h32v1h-32zM39,358h36v1h-36zM108,358h35v1h-35zM154,358h35v1h-35zM240,358h32v1h-32zM39,359h37v1h-37zM108,359h34v1h-34zM155,359h34v1h-34zM240,359h32v1h-32zM40,360h37v1h-37zM108,360h34v1h-34zM156,360h33v1h-33zM240,360h32v1h-32zM40,361h37v1h-37zM108,361h33v1h-33zM156,361h33v1h-33zM240,361h32v1h-32zM41,362h37v1h-37zM108,362h33v1h-33zM156,362h33v1h-33zM240,362h32v1h-32zM41,363h37v1h-37zM108,363h33v1h-33zM156,363h33v1h-33zM240,363h32v1h-32zM42,364h37v1h-37zM108,364h33v1h-33zM156,364h33v1h-33zM240,364h32v1h-32zM42,365h38v1h-38zM108,365h33v1h-33zM156,365h33v1h-33zM240,365h32v1h-32zM43,366h37v1h-37zM108,366h34v1h-34zM156,366h33v1h-33zM240,366h32v1h-32zM43,367h38v1h-38zM108,367h34v1h-34zM155,367h34v1h-34zM240,367h32v1h-32zM44,368h38v1h-38zM108,368h35v1h-35zM154,368h35v1h-35zM240,368h32v1h-32zM44,369h38v1h-38zM109,369h35v1h-35zM153,369h35v1h-35zM240,369h32v1h-32zM45,370h38v1h-38zM109,370h37v1h-37zM151,370h37v1h-37zM240,370h32v1h-32zM45,371h38v1h-38zM109,371h79v1h-79zM240,371h32v1h-32zM46,372h38v1h-38zM109,372h79v1h-79zM240,372h32v1h-32zM46,373h39v1h-39zM109,373h79v1h-79zM240,373h32v1h-32zM47,374h39v1h-39zM110,374h77v1h-77zM240,374h32v1h-32zM47,375h39v1h-39zM110,375h77v1h-77zM240,375h32v1h-32zM48,376h39v1h-39zM110,376h77v1h-77zM240,376h32v1h-32zM49,377h39v1h-39zM111,377h75v1h-75zM240,377h32v1h-32zM49,378h39v1h-39zM111,378h75v1h-75zM240,378h32v1h-32zM50,379h39v1h-39zM112,379h74v1h-74zM240,379h32v1h-32zM50,380h40v1h-40zM112,380h73v1h-73zM240,380h32v1h-32zM51,381h40v1h-40zM112,381h73v1h-73zM240,381h32v1h-32zM52,382h39v1h-39zM113,382h71v1h-71zM240,382h32v1h-32zM52,383h40v1h-40zM114,383h70v1h-70zM240,383h32v1h-32zM53,384h40v1h-40zM114,384h69v1h-69zM240,384h32v1h-32zM54,385h40v1h-40zM115,385h67v1h-67zM240,385h32v1h-32zM54,386h41v1h-41zM115,386h67v1h-67zM240,386h32v1h-32zM55,387h40v1h-40zM116,387h65v1h-65zM240,387h32v1h-32zM55,388h41v1h-41zM117,388h63v1h-63zM240,388h32v1h-32zM56,389h41v1h-41zM118,389h61v1h-61zM240,389h32v1h-32zM57,390h41v1h-41zM119,390h59v1h-59zM240,390h32v1h-32zM58,391h41v1h-41zM120,391h58v1h-58zM240,391h32v1h-32zM58,392h42v1h-42zM121,392h56v1h-56zM240,392h32v1h-32zM59,393h41v1h-41zM122,393h53v1h-53zM240,393h32v1h-32zM60,394h41v1h-41zM123,394h51v1h-51zM240,394h32v1h-32zM60,395h42v1h-42zM124,395h49v1h-49zM240,395h32v1h-32zM61,396h42v1h-42zM125,396h47v1h-47zM240,396h32v1h-32zM62,397h42v1h-42zM127,397h43v1h-43zM240,397h32v1h-32zM63,398h42v1h-42zM129,398h40v1h-40zM240,398h32v1h-32zM63,399h43v1h-43zM130,399h37v1h-37zM240,399h32v1h-32zM64,400h43v1h-43zM132,400h33v1h-33zM240,400h32v1h-32zM65,401h43v1h-43zM135,401h27v1h-27zM240,401h32v1h-32zM65,402h44v1h-44zM138,402h21v1h-21zM240,402h32v1h-32zM66,403h44v1h-44zM143,403h11v1h-11zM240,403h32v1h-32zM67,404h44v1h-44zM240,404h32v1h-32zM68,405h44v1h-44zM240,405h32v1h-32zM69,406h44v1h-44zM240,406h32v1h-32zM69,407h45v1h-45zM240,407h32v1h-32zM70,408h45v1h-45zM240,408h32v1h-32zM71,409h45v1h-45zM240,409h32v1h-32zM72,410h45v1h-45zM240,410h32v1h-32zM73,411h45v1h-45zM240,411h32v1h-32zM74,412h46v1h-46zM240,412h32v1h-32zM74,413h47v1h-47zM240,413h32v1h-32zM75,414h47v1h-47zM240,414h32v1h-32zM76,415h47v1h-47zM240,415h32v1h-32zM77,416h47v1h-47zM240,416h32v1h-32zM78,417h48v1h-48zM240,417h32v1h-32zM79,418h48v1h-48zM240,418h32v1h-32zM80,419h48v1h-48zM240,419h32v1h-32zM81,420h48v1h-48zM240,420h32v1h-32zM82,421h49v1h-49zM240,421h32v1h-32zM83,422h49v1h-49zM240,422h32v1h-32zM84,423h49v1h-49zM240,423h32v1h-32zM85,424h50v1h-50zM240,424h32v1h-32zM86,425h50v1h-50zM240,425h32v1h-32zM87,426h51v1h-51zM240,426h32v1h-32zM88,427h51v1h-51zM240,427h32v1h-32zM89,428h51v1h-51zM240,428h32v1h-32zM90,429h52v1h-52zM240,429h32v1h-32zM91,430h53v1h-53zM240,430h32v1h-32zM92,431h53v1h-53zM240,431h32v1h-32zM93,432h54v1h-54zM240,432h32v1h-32zM94,433h54v1h-54zM240,433h32v1h-32zM95,434h55v1h-55zM240,434h32v1h-32zM96,435h56v1h-56zM240,435h32v1h-32zM97,436h56v1h-56zM240,436h32v1h-32zM98,437h57v1h-57zM240,437h32v1h-32zM100,438h57v1h-57zM240,438h32v1h-32zM101,439h58v1h-58zM240,439h32v1h-32zM102,440h59v1h-59zM240,440h32v1h-32zM103,441h60v1h-60zM240,441h32v1h-32zM104,442h61v1h-61zM240,442h32v1h-32zM106,443h61v1h-61zM240,443h32v1h-32zM107,444h62v1h-62zM240,444h32v1h-32zM108,445h63v1h-63zM240,445h32v1h-32zM109,446h65v1h-65zM240,446h32v1h-32zM111,447h65v1h-65zM240,447h32v1h-32zM112,448h66v1h-66zM240,448h32v1h-32zM113,449h68v1h-68zM240,449h32v1h-32zM115,450h68v1h-68zM240,450h32v1h-32zM116,451h70v1h-70zM240,451h32v1h-32zM118,452h71v1h-71zM240,452h32v1h-32zM119,453h73v1h-73zM240,453h32v1h-32zM121,454h74v1h-74zM240,454h32v1h-32zM122,455h77v1h-77zM240,455h32v1h-32zM123,456h79v1h-79zM240,456h32v1h-32zM125,457h81v1h-81zM240,457h32v1h-32zM127,458h83v1h-83zM240,458h32v1h-32zM128,459h87v1h-87zM240,459h32v1h-32zM130,460h90v1h-90zM240,460h32v1h-32zM131,461h96v1h-96zM240,461h32v1h-32zM133,462h102v1h-102zM240,462h32v1h-32zM135,463h137v1h-137zM136,464h136v1h-136zM138,465h134v1h-134zM140,466h132v1h-132zM142,467h130v1h-130zM144,468h128v1h-128zM146,469h126v1h-126zM148,470h124v1h-124zM150,471h122v1h-122zM152,472h120v1h-120zM154,473h118v1h-118zM156,474h116v1h-116zM158,475h114v1h-114zM160,476h112v1h-112zM163,477h109v1h-109zM165,478h107v1h-107zM168,479h104v1h-104zM170,480h102v1h-102zM173,481h99v1h-99zM176,482h96v1h-96zM178,483h94v1h-94zM182,484h90v1h-90zM185,485h86v1h-86zM188,486h83v1h-83zM191,487h80v1h-80zM195,488h75v1h-75zM199,489h70v1h-70zM203,490h65v1h-65zM208,491h60v1h-60zM213,492h53v1h-53zM219,493h46v1h-46zM226,494h38v1h-38zM236,495h25v1h-25z"/></svg>