<?xml version="1.0" encoding="UTF-8"?>
<svg xmlns="http://www.w3.org/2000/svg" viewBox="0 0 512 512" width="512" height="512"><path fill="#000" d="M169,16h142v1h-142zM162,17h154v1h-154zM157,18h163v1h-163zM153,19h170v1h-170zM149,20h177v1h-177zM146,21h182v1h-182zM143,22h187v1h-187zM140,23h192v1h-192zM137,24h197v1h-197zM135,25h200v1h-200zM132,26h205v1h-205zM130,27h208v1h-208zM128,28h212v1h-212zM126,29h215v1h-215zM124,30h218v1h-218zM122,31h221v1h-221zM120,32h225v1h-225zM119,33h227v1h-227zM117,34h230v1h-230zM115,35h233v1h-233zM114,36h235v1h-235zM112,37h238v1h-238zM111,38h240v1h-240zM109,39h243v1h-243zM108,40h245v1h-245zM107,41h247v1h-247zM105,42h250v1h-250zM104,43h252v1h-252zM103,44h254v1h-254zM102,45h256v1h-256zM101,46h259v1h-259zM99,47h262v1h-262zM98,48h82v1h-82zM296,48h66v1h-66zM97,49h72v1h-72zM296,49h67v1h-67zM96,50h68v1h-68zM296,50h68v1h-68zM95,51h65v1h-65zM296,51h69v1h-69zM94,52h62v1h-62zM296,52h70v1h-70zM93,53h60v1h-60zM296,53h71v1h-71zM92,54h58v1h-58zM296,54h72v1h-72zM91,55h57v1h-57zM296,55h73v1h-73zM90,56h55v1h-55zM296,56h74v1h-74zM89,57h54v1h-54zM296,57h75v1h-75zM88,58h53v1h-53zM296,58h76v1h-76zM87,59h52v1h-52zM296,59h77v1h-77zM87,60h50v1h-50zM296,60h79v1h-79zM86,61h50v1h-50zM296,61h80v1h-80zM85,62h49v1h-49zM296,62h81v1h-81zM84,63h48v1h-48zM296,63h82v1h-82zM83,64h48v1h-48zM296,64h83v1h-83zM82,65h47v1h-47zM296,65h84v1h-84zM82,66h46v1h-46zM296,66h32v1h-32zM333,66h48v1h-48zM81,67h46v1h-46zM296,67h32v1h-32zM334,67h48v1h-48zM80,68h45v1h-45zM296,68h32v1h-32zM335,68h48v1h-48zM79,69h45v1h-45zM296,69h32v1h-32zM336,69h48v1h-48zM79,70h44v1h-44zM296,70h32v1h-32zM337,70h48v1h-48zM78,71h44v1h-44zM296,71h32v1h-32zM338,71h48v1h-48zM77,72h44v1h-44zM296,72h32v1h-32zM339,72h48v1h-48zM77,73h42v1h-42zM296,73h32v1h-32zM340,73h48v1h-48zM76,74h42v1h-42zM296,74h32v1h-32zM342,74h48v1h-48zM75,75h42v1h-42zM296,75h32v1h-32zM343,75h48v1h-48zM75,76h41v1h-41zM296,76h32v1h-32zM344,76h48v1h-48zM74,77h41v1h-41zM296,77h32v1h-32zM345,77h48v1h-48zM74,78h40v1h-40zM296,78h32v1h-32zM346,78h48v1h-48zM73,79h40v1h-40zM296,79h32v1h-32zM347,79h48v1h-48zM72,80h41v1h-41zM296,80h32v1h-32zM348,80h48v1h-48zM72,81h40v1h-40zM296,81h32v1h-32zM349,81h48v1h-48zM71,82h40v1h-40zM296,82h32v1h-32zM350,82h48v1h-48zM71,83h39v1h-39zM296,83h32v1h-32zM351,83h48v1h-48zM70,84h39v1h-39zM296,84h32v1h-32zM352,84h48v1h-48zM70,85h38v1h-38zM296,85h32v1h-32zM353,85h48v1h-48zM69,86h39v1h-39zM296,86h32v1h-32zM354,86h48v1h-48zM69,87h38v1h-38zM296,87h32v1h-32zM355,87h48v1h-48zM68,88h38v1h-38zM296,88h32v1h-32zM357,88h48v1h-48zM68,89h37v1h-37zM296,89h32v1h-32zM358,89h48v1h-48zM67,90h38v1h-38zM296,90h32v1h-32zM359,90h48v1h-48zM67,91h37v1h-37zM296,91h32v1h-32zM360,91h48v1h-48zM66,92h37v1h-37zM296,92h32v1h-32zM361,92h48v1h-48zM66,93h37v1h-37zM296,93h32v1h-32zM362,93h48v1h-48zM66,94h36v1h-36zM296,94h32v1h-32zM363,94h48v1h-48zM65,95h37v1h-37zM296,95h32v1h-32zM364,95h48v1h-48zM65,96h36v1h-36zM296,96h32v1h-32zM365,96h48v1h-48zM64,97h36v1h-36zM296,97h32v1h-32zM366,97h48v1h-48zM64,98h36v1h-36zM296,98h33v1h-33zM367,98h48v1h-48zM64,99h35v1h-35zM296,99h33v1h-33zM368,99h48v1h-48zM63,100h36v1h-36zM296,100h33v1h-33zM369,100h48v1h-48zM63,101h35v1h-35zM296,101h33v1h-33zM370,101h48v1h-48zM63,102h35v1h-35zM296,102h33v1h-33zM372,102h48v1h-48zM62,103h35v1h-35zM296,103h33v1h-33zM373,103h48v1h-48zM62,104h35v1h-35zM296,104h34v1h-34zM374,104h48v1h-48zM62,105h34v1h-34zM296,105h34v1h-34zM375,105h48v1h-48zM61,106h35v1h-35zM296,106h34v1h-34zM376,106h48v1h-48zM61,107h35v1h-35zM297,107h34v1h-34zM377,107h48v1h-48zM61,108h34v1h-34zM297,108h34v1h-34zM378,108h48v1h-48zM60,109h35v1h-35zM297,109h34v1h-34zM379,109h48v1h-48zM60,110h34v1h-34zM297,110h35v1h-35zM380,110h48v1h-48zM60,111h34v1h-34zM298,111h34v1h-34zM381,111h48v1h-48zM60,112h34v1h-34zM298,112h35v1h-35zM382,112h48v1h-48zM59,113h34v1h-34zM298,113h36v1h-36zM383,113h48v1h-48zM59,114h34v1h-34zM298,114h36v1h-36zM384,114h48v1h-48zM59,115h34v1h-34zM299,115h36v1h-36zM385,115h48v1h-48zM59,116h33v1h-33zM299,116h37v1h-37zM387,116h48v1h-48zM58,117h34v1h-34zM299,117h38v1h-38zM388,117h48v1h-48zM58,118h34v1h-34zM300,118h38v1h-38zM389,118h48v1h-48zM58,119h34v1h-34zM300,119h39v1h-39zM390,119h48v1h-48zM58,120h33v1h-33zM300,120h40v1h-40zM391,120h48v1h-48zM58,121h33v1h-33zM301,121h40v1h-40zM392,121h48v1h-48zM57,122h34v1h-34zM301,122h42v1h-42zM393,122h47v1h-47zM57,123h34v1h-34zM302,123h42v1h-42zM394,123h47v1h-47zM57,124h33v1h-33zM302,124h44v1h-44zM394,124h48v1h-48zM57,125h33v1h-33zM303,125h46v1h-46zM394,125h49v1h-49zM57,126h33v1h-33zM303,126h49v1h-49zM394,126h50v1h-50zM57,127h33v1h-33zM304,127h54v1h-54zM394,127h50v1h-50zM57,128h33v1h-33zM304,128h141v1h-141zM56,129h33v1h-33zM305,129h141v1h-141zM56,130h33v1h-33zM306,130h140v1h-140zM56,131h33v1h-33zM306,131h141v1h-141zM56,132h33v1h-33zM307,132h141v1h-141zM56,133h33v1h-33zM308,133h140v1h-140zM56,134h33v1h-33zM308,134h141v1h-141zM56,135h33v1h-33zM309,135h140v1h-140zM56,136h33v1h-33zM310,136h140v1h-140zM56,137h33v1h-33zM311,137h139v1h-139zM56,138h33v1h-33zM312,138h139v1h-139zM56,139h32v1h-32zM313,139h138v1h-138zM56,140h32v1h-32zM314,140h138v1h-138zM56,141h32v1h-32zM314,141h138v1h-138zM56,142h32v1h-32zM316,142h136v1h-136zM56,143h32v1h-32zM317,143h136v1h-136zM56,144h32v1h-32zM318,144h135v1h-135zM56,145h32v1h-32zM319,145h134v1h-134zM56,146h32v1h-32zM320,146h134v1h-134zM56,147h32v1h-32zM322,147h132v1h-132zM56,148h32v1h-32zM323,148h131v1h-131zM56,149h32v1h-32zM324,149h130v1h-130zM56,150h32v1h-32zM326,150h129v1h-129zM56,151h32v1h-32zM328,151h127v1h-127zM56,152h32v1h-32zM329,152h126v1h-126zM56,153h32v1h-32zM331,153h124v1h-124zM56,154h32v1h-32zM333,154h123v1h-123zM56,155h32v1h-32zM336,155h120v1h-120zM56,156h32v1h-32zM338,156h118v1h-118zM56,157h32v1h-32zM341,157h115v1h-115zM56,158h32v1h-32zM345,158h111v1h-111zM56,159h32v1h-32zM349,159h107v1h-107zM56,160h32v1h-32zM424,160h32v1h-32zM56,161h32v1h-32zM424,161h32v1h-32zM56,162h32v1h-32zM424,162h32v1h-32zM56,163h32v1h-32zM424,163h32v1h-32zM56,164h32v1h-32zM424,164h32v1h-32zM56,165h32v1h-32zM424,165h32v1h-32zM56,166h32v1h-32zM424,166h32v1h-32zM56,167h32v1h-32zM424,167h32v1h-32zM56,168h32v1h-32zM424,168h32v1h-32zM56,169h32v1h-32zM424,169h32v1h-32zM56,170h32v1h-32zM424,170h32v1h-32zM56,171h32v1h-32zM424,171h32v1h-32zM56,172h32v1h-32zM424,172h32v1h-32zM56,173h32v1h-32zM424,173h32v1h-32zM56,174h32v1h-32zM424,174h32v1h-32zM56,175h32v1h-32zM424,175h32v1h-32zM56,176h32v1h-32zM424,176h32v1h-32zM56,177h32v1h-32zM424,177h32v1h-32zM56,178h32v1h-32zM424,178h32v1h-32zM56,179h32v1h-32zM424,179h32v1h-32zM56,180h32v1h-32zM424,180h32v1h-32zM56,181h32v1h-32zM424,181h32v1h-32zM56,182h32v1h-32zM424,182h32v1h-32zM56,183h32v1h-32zM424,183h32v1h-32zM56,184h32v1h-32zM251,184h10v1h-10zM424,184h32v1h-32zM56,185h32v1h-32zM248,185h16v1h-16zM424,185h32v1h-32zM56,186h32v1h-32zM247,186h18v1h-18zM424,186h32v1h-32zM56,187h32v1h-32zM245,187h21v1h-21zM424,187h32v1h-32zM56,188h32v1h-32zM244,188h24v1h-24zM424,188h32v1h-32zM56,189h32v1h-32zM243,189h25v1h-25zM424,189h32v1h-32zM56,190h32v1h-32zM243,190h26v1h-26zM424,190h32v1h-32zM56,191h32v1h-32zM242,191h28v1h-28zM424,191h32v1h-32zM56,192h32v1h-32zM241,192h29v1h-29zM424,192h32v1h-32zM56,193h32v1h-32zM241,193h30v1h-30zM424,193h32v1h-32zM56,194h32v1h-32zM241,194h30v1h-30zM424,194h32v1h-32zM56,195h32v1h-32zM240,195h32v1h-32zM424,195h32v1h-32zM56,196h32v1h-32zM240,196h32v1h-32zM424,196h32v1h-32zM56,197h32v1h-32zM240,197h32v1h-32zM424,197h32v1h-32zM56,198h32v1h-32zM240,198h32v1h-32zM424,198h32v1h-32zM56,199h32v1h-32zM240,199h32v1h-32zM424,199h32v1h-32zM56,200h32v1h-32zM240,200h32v1h-32zM424,200h32v1h-32zM56,201h32v1h-32zM240,201h32v1h-32zM424,201h32v1h-32zM56,202h32v1h-32zM240,202h32v1h-32zM424,202h32v1h-32zM56,203h32v1h-32zM240,203h32v1h-32zM424,203h32v1h-32zM56,204h32v1h-32zM240,204h32v1h-32zM424,204h32v1h-32zM56,205h32v1h-32zM240,205h32v1h-32zM424,205h32v1h-32zM56,206h32v1h-32zM240,206h32v1h-32zM424,206h32v1h-32zM56,207h32v1h-32zM240,207h32v1h-32zM424,207h32v1h-32zM56,208h32v1h-32zM240,208h32v1h-32zM424,208h32v1h-32zM56,209h32v1h-32zM240,209h32v1h-32zM424,209h32v1h-32zM56,210h32v1h-32zM240,210h32v1h-32zM424,210h32v1h-32zM56,211h32v1h-32zM240,211h32v1h-32zM424,211h32v1h-32zM56,212h32v1h-32zM240,212h32v1h-32zM424,212h32v1h-32zM56,213h32v1h-32zM240,213h32v1h-32zM424,213h32v1h-32zM56,214h32v1h-32zM240,214h32v1h-32zM424,214h32v1h-32zM56,215h32v1h-32zM240,215h32v1h-32zM424,215h32v1h-32zM56,216h32v1h-32zM240,216h32v1h-32zM424,216h32v1h-32zM56,217h32v1h-32zM240,217h32v1h-32zM424,217h32v1h-32zM56,218h32v1h-32zM240,218h32v1h-32zM424,218h32v1h-32zM56,219h32v1h-32zM240,219h32v1h-32zM424,219h32v1h-32zM56,220h32v1h-32zM240,220h32v1h-32zM424,220h32v1h-32zM56,221h32v1h-32zM240,221h32v1h-32zM424,221h32v1h-32zM56,222h32v1h-32zM240,222h32v1h-32zM424,222h32v1h-32zM56,223h32v1h-32zM240,223h32v1h-32zM424,223h32v1h-32zM56,224h32v1h-32zM240,224h32v1h-32zM424,224h32v1h-32zM56,225h32v1h-32zM240,225h32v1h-32zM424,225h32v1h-32zM56,226h32v1h-32zM240,226h32v1h-32zM424,226h32v1h-32zM56,227h32v1h-32zM240,227h32v1h-32zM424,227h32v1h-32zM56,228h32v1h-32zM240,228h32v1h-32zM424,228h32v1h-32zM56,229h32v1h-32zM240,229h32v1h-32zM424,229h32v1h-32zM56,230h32v1h-32zM240,230h32v1h-32zM424,230h32v1h-32zM56,231h32v1h-32zM240,231h32v1h-32zM424,231h32v1h-32zM56,232h32v1h-32zM240,232h32v1h-32zM424,232h32v1h-32zM56,233h32v1h-32zM240,233h32v1h-32zM424,233h32v1h-32zM56,234h32v1h-32zM240,234h32v1h-32zM424,234h32v1h-32zM56,235h32v1h-32zM240,235h32v1h-32zM424,235h32v1h-32zM56,236h32v1h-32zM240,236h32v1h-32zM424,236h32v1h-32zM56,237h32v1h-32zM240,237h32v1h-32zM424,237h32v1h-32zM56,238h32v1h-32zM240,238h32v1h-32zM424,238h32v1h-32zM56,239h32v1h-32zM240,239h32v1h-32zM424,239h32v1h-32zM56,240h32v1h-32zM240,240h32v1h-32zM424,240h32v1h-32zM56,241h32v1h-32zM240,241h32v1h-32zM424,241h32v1h-32zM56,242h32v1h-32zM240,242h32v1h-32zM424,242h32v1h-32zM56,243h32v1h-32zM240,243h32v1h-32zM424,243h32v1h-32zM56,244h32v1h-32zM240,244h32v1h-32zM424,244h32v1h-32zM56,245h32v1h-32zM240,245h32v1h-32zM424,245h32v1h-32zM56,246h32v1h-32zM240,246h32v1h-32zM424,246h32v1h-32zM56,247h32v1h-32zM240,247h32v1h-32zM424,247h32v1h-32zM56,248h32v1h-32zM240,248h32v1h-32zM424,248h32v1h-32zM56,249h32v1h-32zM240,249h32v1h-32zM424,249h32v1h-32zM56,250h32v1h-32zM240,250h32v1h-32zM424,250h32v1h-32zM56,251h32v1h-32zM240,251h32v1h-32zM424,251h32v1h-32zM56,252h32v1h-32zM240,252h32v1h-32zM424,252h32v1h-32zM56,253h32v1h-32zM240,253h32v1h-32zM424,253h32v1h-32zM56,254h32v1h-32zM240,254h32v1h-32zM424,254h32v1h-32zM56,255h32v1h-32zM240,255h32v1h-32zM424,255h32v1h-32zM56,256h32v1h-32zM179,256h154v1h-154zM424,256h32v1h-32zM56,257h32v1h-32zM176,257h160v1h-160zM424,257h32v1h-32zM56,258h32v1h-32zM175,258h162v1h-162zM424,258h32v1h-32zM56,259h32v1h-32zM173,259h165v1h-165zM424,259h32v1h-32zM56,260h32v1h-32zM172,260h168v1h-168zM424,260h32v1h-32zM56,261h32v1h-32zM171,261h169v1h-169zM424,261h32v1h-32zM56,262h32v1h-32zM171,262h170v1h-170zM424,262h32v1h-32zM56,263h32v1h-32zM170,263h172v1h-172zM424,263h32v1h-32zM56,264h32v1h-32zM169,264h173v1h-173zM424,264h32v1h-32zM56,265h32v1h-32zM169,265h174v1h-174zM424,265h32v1h-32zM56,266h32v1h-32zM169,266h174v1h-174zM424,266h32v1h-32zM56,267h32v1h-32zM168,267h176v1h-176zM424,267h32v1h-32zM56,268h32v1h-32zM168,268h176v1h-176zM424,268h32v1h-32zM56,269h32v1h-32zM168,269h176v1h-176zM424,269h32v1h-32zM56,270h32v1h-32zM168,270h176v1h-176zM424,270h32v1h-32zM56,271h32v1h-32zM168,271h176v1h-176zM424,271h32v1h-32zM56,272h32v1h-32zM168,272h176v1h-176zM424,272h32v1h-32zM56,273h32v1h-32zM168,273h176v1h-176zM424,273h32v1h-32zM56,274h32v1h-32zM168,274h176v1h-176zM424,274h32v1h-32zM56,275h32v1h-32zM168,275h176v1h-176zM424,275h32v1h-32zM56,276h32v1h-32zM168,276h176v1h-176zM424,276h32v1h-32zM56,277h32v1h-32zM169,277h174v1h-174zM424,277h32v1h-32zM56,278h32v1h-32zM169,278h174v1h-174zM424,278h32v1h-32zM56,279h32v1h-32zM169,279h174v1h-174zM424,279h32v1h-32zM56,280h32v1h-32zM170,280h172v1h-172zM424,280h32v1h-32zM56,281h32v1h-32zM171,281h170v1h-170zM424,281h32v1h-32zM56,282h32v1h-32zM172,282h168v1h-168zM424,282h32v1h-32zM56,283h32v1h-32zM172,283h168v1h-168zM424,283h32v1h-32zM56,284h32v1h-32zM174,284h164v1h-164zM424,284h32v1h-32zM56,285h32v1h-32zM175,285h162v1h-162zM424,285h32v1h-32zM56,286h32v1h-32zM177,286h159v1h-159zM424,286h32v1h-32zM56,287h32v1h-32zM179,287h154v1h-154zM424,287h32v1h-32zM56,288h32v1h-32zM240,288h32v1h-32zM424,288h32v1h-32zM56,289h32v1h-32zM240,289h32v1h-32zM424,289h32v1h-32zM56,290h32v1h-32zM240,290h32v1h-32zM424,290h32v1h-32zM56,291h32v1h-32zM240,291h32v1h-32zM424,291h32v1h-32zM56,292h32v1h-32zM240,292h32v1h-32zM424,292h32v1h-32zM56,293h32v1h-32zM240,293h32v1h-32zM424,293h32v1h-32zM56,294h32v1h-32zM240,294h32v1h-32zM424,294h32v1h-32zM56,295h32v1h-32zM240,295h32v1h-32zM424,295h32v1h-32zM56,296h32v1h-32zM240,296h32v1h-32zM424,296h32v1h-32zM56,297h32v1h-32zM240,297h32v1h-32zM424,297h32v1h-32zM56,298h32v1h-32zM240,298h32v1h-32zM424,298h32v1h-32zM56,299h32v1h-32zM240,299h32v1h-32zM424,299h32v1h-32zM56,300h32v1h-32zM240,300h32v1h-32zM424,300h32v1h-32zM56,301h32v1h-32zM240,301h32v1h-32zM424,301h32v1h-32zM56,302h32v1h-32zM240,302h32v1h-32zM424,302h32v1h-32zM56,303h32v1h-32zM240,303h32v1h-32zM424,303h32v1h-32zM56,304h32v1h-32zM240,304h32v1h-32zM424,304h32v1h-32zM56,305h32v1h-32zM240,305h32v1h-32zM424,305h32v1h-32zM56,306h32v1h-32zM240,306h32v1h-32zM424,306h32v1h-32zM56,307h32v1h-32zM240,307h32v1h-32zM424,307h32v1h-32zM56,308h32v1h-32zM240,308h32v1h-32zM424,308h32v1h-32zM56,309h32v1h-32zM240,309h32v1h-32zM424,309h32v1h-32zM56,310h32v1h-32zM240,310h32v1h-32zM424,310h32v1h-32zM56,311h32v1h-32zM240,311h32v1h-32zM424,311h32v1h-32zM56,312h32v1h-32zM240,312h32v1h-32zM424,312h32v1h-32zM56,313h32v1h-32zM240,313h32v1h-32zM424,313h32v1h-32zM56,314h32v1h-32zM240,314h32v1h-32zM424,314h32v1h-32zM56,315h32v1h-32zM240,315h32v1h-32zM424,315h32v1h-32zM56,316h32v1h-32zM240,316h32v1h-32zM424,316h32v1h-32zM56,317h32v1h-32zM240,317h32v1h-32zM424,317h32v1h-32zM56,318h32v1h-32zM240,318h32v1h-32zM424,318h32v1h-32zM56,319h32v1h-32zM240,319h32v1h-32zM424,319h32v1h-32zM56,320h32v1h-32zM240,320h32v1h-32zM424,320h32v1h-32zM56,321h32v1h-32zM240,321h32v1h-32zM424,321h32v1h-32zM56,322h32v1h-32zM240,322h32v1h-32zM424,322h32v1h-32zM56,323h32v1h-32zM240,323h32v1h-32zM424,323h32v1h-32zM56,324h32v1h-32zM240,324h32v1h-32zM424,324h32v1h-32zM56,325h32v1h-32zM240,325h32v1h-32zM424,325h32v1h-32zM56,326h32v1h-32zM240,326h32v1h-32zM424,326h32v1h-32zM56,327h32v1h-32zM240,327h32v1h-32zM424,327h32v1h-32zM56,328h32v1h-32zM240,328h32v1h-32zM424,328h32v1h-32zM56,329h32v1h-32zM240,329h32v1h-32zM424,329h32v1h-32zM56,330h32v1h-32zM240,330h32v1h-32zM424,330h32v1h-32zM56,331h32v1h-32zM240,331h32v1h-32zM424,331h32v1h-32zM56,332h32v1h-32zM240,332h32v1h-32zM424,332h32v1h-32zM56,333h32v1h-32zM240,333h32v1h-32zM424,333h32v1h-32zM56,334h32v1h-32zM240,334h32v1h-32zM424,334h32v1h-32zM56,335h32v1h-32zM240,335h32v1h-32zM424,335h32v1h-32zM56,336h32v1h-32zM240,336h32v1h-32zM424,336h32v1h-32zM56,337h32v1h-32zM240,337h32v1h-32zM424,337h32v1h-32zM56,338h32v1h-32zM240,338h32v1h-32zM424,338h32v1h-32zM56,339h32v1h-32zM240,339h32v1h-32zM424,339h32v1h-32zM56,340h32v1h-32zM240,340h32v1h-32zM424,340h32v1h-32zM56,341h32v1h-32zM240,341h32v1h-32zM424,341h32v1h-32zM56,342h32v1h-32zM240,342h32v1h-32zM424,342h32v1h-32zM56,343h32v1h-32zM240,343h32v1h-32zM424,343h32v1h-32zM56,344h32v1h-32zM240,344h32v1h-32zM424,344h32v1h-32zM56,345h32v1h-32zM240,345h32v1h-32zM424,345h32v1h-32zM56,346h32v1h-32zM240,346h32v1h-32zM424,346h32v1h-32zM56,347h32v1h-32zM240,347h32v1h-32zM424,347h32v1h-32zM56,348h32v1h-32zM240,348h32v1h-32zM424,348h32v1h-32zM56,349h32v1h-32zM241,349h30v1h-30zM424,349h32v1h-32zM56,350h32v1h-32zM241,350h30v1h-30zM424,350h32v1h-32zM56,351h32v1h-32zM241,351h30v1h-30zM424,351h32v1h-32zM56,352h32v1h-32zM242,352h28v1h-28zM424,352h32v1h-32zM56,353h32v1h-32zM243,353h26v1h-26zM424,353h32v1h-32zM56,354h32v1h-32zM244,354h24v1h-24zM424,354h32v1h-32zM56,355h32v1h-32zM244,355h24v1h-24zM424,355h32v1h-32zM56,356h32v1h-32zM246,356h20v1h-20zM424,356h32v1h-32zM56,357h32v1h-32zM247,357h18v1h-18zM424,357h32v1h-32zM56,358h32v1h-32zM249,358h15v1h-15zM424,358h32v1h-32zM56,359h32v1h-32zM251,359h10v1h-10zM424,359h32v1h-32zM56,360h32v1h-32zM424,360h32v1h-32zM56,361h32v1h-32zM424,361h32v1h-32zM56,362h32v1h-32zM424,362h32v1h-32zM56,363h32v1h-32zM424,363h32v1h-32zM56,364h32v1h-32zM424,364h32v1h-32zM56,365h32v1h-32zM424,365h32v1h-32zM56,366h32v1h-32zM424,366h32v1h-32zM56,367h32v1h-32zM424,367h32v1h-32zM56,368h32v1h-32zM424,368h32v1h-32zM56,369h32v1h-32zM424,369h32v1h-32zM56,370h32v1h-32zM424,370h32v1h-32zM56,371h32v1h-32zM424,371h32v1h-32zM56,372h32v1h-32zM423,372h33v1h-33zM56,373h33v1h-33zM423,373h33v1h-33zM56,374h33v1h-33zM423,374h33v1h-33zM56,375h33v1h-33zM423,375h33v1h-33zM56,376h33v1h-33zM423,376h33v1h-33zM56,377h33v1h-33zM423,377h33v1h-33zM56,378h33v1h-33zM423,378h33v1h-33zM56,379h33v1h-33zM423,379h33v1h-33zM56,380h33v1h-33zM423,380h33v1h-33zM56,381h33v1h-33zM423,381h33v1h-33zM56,382h33v1h-33zM423,382h33v1h-33zM57,383h33v1h-33zM422,383h33v1h-33zM57,384h33v1h-33zM422,384h33v1h-33zM57,385h33v1h-33zM422,385h33v1h-33zM57,386h33v1h-33zM422,386h33v1h-33zM57,387h33v1h-33zM422,387h33v1h-33zM57,388h34v1h-34zM421,388h34v1h-34zM57,389h34v1h-34zM421,389h34v1h-34zM58,390h33v1h-33zM421,390h33v1h-33zM58,391h33v1h-33zM421,391h33v1h-33zM58,392h34v1h-34zM420,392h34v1h-34zM58,393h34v1h-34zM420,393h34v1h-34zM58,394h34v1h-34zM420,394h34v1h-34zM59,395h33v1h-33zM420,395h33v1h-33zM59,396h34v1h-34zM419,396h34v1h-34zM59,397h34v1h-34zM419,397h34v1h-34zM59,398h34v1h-34zM419,398h34v1h-34zM60,399h34v1h-34zM418,399h34v1h-34zM60,400h34v1h-34zM418,400h34v1h-34zM60,401h34v1h-34zM418,401h34v1h-34zM60,402h35v1h-35zM417,402h35v1h-35zM61,403h34v1h-34zM417,403h34v1h-34zM61,404h35v1h-35zM416,404h35v1h-35zM61,405h35v1h-35zM416,405h35v1h-35zM62,406h34v1h-34zM416,406h34v1h-34zM62,407h35v1h-35zM415,407h35v1h-35zM62,408h35v1h-35zM415,408h35v1h-35zM63,409h35v1h-35zM414,409h35v1h-35zM63,410h35v1h-35zM414,410h35v1h-35zM63,411h36v1h-36zM413,411h36v1h-36zM64,412h35v1h-35zM413,412h35v1h-35zM64,413h36v1h-36zM412,413h36v1h-36zM64,414h36v1h-36zM412,414h36v1h-36zM65,415h36v1h-36zM411,415h36v1h-36zM65,416h37v1h-37zM410,416h37v1h-37zM66,417h36v1h-36zM410,417h36v1h-36zM66,418h37v1h-37zM409,418h37v1h-37zM66,419h37v1h-37zM409,419h37v1h-37zM67,420h37v1h-37zM408,420h37v1h-37zM67,421h38v1h-38zM407,421h38v1h-38zM68,422h37v1h-37zM407,422h37v1h-37zM68,423h38v1h-38zM406,423h38v1h-38zM69,424h38v1h-38zM405,424h38v1h-38zM69,425h39v1h-39zM404,425h39v1h-39zM70,426h38v1h-38zM404,426h38v1h-38zM70,427h39v1h-39zM403,427h39v1h-39zM71,428h39v1h-39zM402,428h39v1h-39zM71,429h40v1h-40zM401,429h40v1h-40zM72,430h40v1h-40zM400,430h40v1h-40zM72,431h41v1h-41zM399,431h41v1h-41zM73,432h40v1h-40zM399,432h40v1h-40zM74,433h40v1h-40zM398,433h40v1h-40zM74,434h41v1h-41zM397,434h41v1h-41zM75,435h41v1h-41zM396,435h41v1h-41zM75,436h42v1h-42zM395,436h42v1h-42zM76,437h42v1h-42zM394,437h42v1h-42zM77,438h42v1h-42zM393,438h42v1h-42zM77,439h44v1h-44zM391,439h44v1h-44zM78,440h44v1h-44zM390,440h44v1h-44zM79,441h44v1h-44zM389,441h44v1h-44zM79,442h45v1h-45zM388,442h44v1h-44zM80,443h45v1h-45zM387,443h45v1h-45zM81,444h46v1h-46zM385,444h46v1h-46zM82,445h46v1h-46zM384,445h46v1h-46zM82,446h47v1h-47zM383,446h47v1h-47zM83,447h48v1h-48zM381,447h48v1h-48zM84,448h48v1h-48zM380,448h48v1h-48zM85,449h49v1h-49zM378,449h49v1h-49zM86,450h50v1h-50zM376,450h50v1h-50zM87,451h50v1h-50zM375,451h50v1h-50zM87,452h52v1h-52zM373,452h52v1h-52zM88,453h53v1h-53zM371,453h53v1h-53zM89,454h54v1h-54zM369,454h54v1h-54zM90,455h55v1h-55zM367,455h55v1h-55zM91,456h57v1h-57zM364,456h57v1h-57zM92,457h58v1h-58zM362,457h58v1h-58zM93,458h60v1h-60zM359,458h60v1h-60zM94,459h62v1h-62zM356,459h62v1h-62zM95,460h65v1h-65zM352,460h65v1h-65zM96,461h68v1h-68zM348,461h68v1h-68zM97,462h72v1h-72zM343,462h72v1h-72zM98,463h82v1h-82zM332,463h82v1h-82zM99,464h314v1h-314zM101,465h310v1h-310zM102,466h308v1h-308zM103,467h306v1h-306zM104,468h304v1h-304zM106,469h301v1h-301zM107,470h298v1h-298zM108,471h296v1h-296zM110,472h292v1h-292zM111,473h290v1h-290zM112,474h288v1h-288zM114,475h284v1h-284zM115,476h282v1h-282zM117,477h278v1h-278zM119,478h274v1h-274zM120,479h272v1h-272zM122,480h268v1h-268zM124,481h264v1h-264zM126,482h260v1h-260zM128,483h256v1h-256zM130,484h252v1h-252zM132,485h248v1h-248zM135,486h242v1h-242zM137,487h238v1h-238zM140,488h232v1h-232zM143,489h226v1h-226zM146,490h220v1h-220zM149,491h214v1h-214zM153,492h206v1h-206zM157,493h198v1h-198zM162,494h188v1h-188zM169,495h174v1h-174z"/></svg>