<?xml version="1.0" encoding="UTF-8"?>
<svg xmlns="http://www.w3.org/2000/svg" viewBox="0 0 512 512" width="512" height="512"><path fill="#000" d="M253,42h6v1h-6zM249,43h14v1h-14zM247,44h18v1h-18zM245,45h22v1h-22zM243,46h26v1h-26zM242,47h28v1h-28zM241,48h30v1h-30zM240,49h32v1h-32zM239,50h34v1h-34zM238,51h36v1h-36zM238,52h36v1h-36zM237,53h38v1h-38zM237,54h38v1h-38zM236,55h40v1h-40zM236,56h40v1h-40zM235,57h42v1h-42zM235,58h42v1h-42zM235,59h42v1h-42zM235,60h42v1h-42zM234,61h44v1h-44zM234,62h44v1h-44zM234,63h44v1h-44zM234,64h44v1h-44zM234,65h44v1h-44zM234,66h44v1h-44zM234,67h44v1h-44zM234,68h44v1h-44zM234,69h44v1h-44zM234,70h44v1h-44zM234,71h44v1h-44zM234,72h44v1h-44zM234,73h44v1h-44zM234,74h44v1h-44zM234,75h44v1h-44zM234,76h44v1h-44zM234,77h44v1h-44zM234,78h44v1h-44zM234,79h44v1h-44zM234,80h44v1h-44zM234,81h44v1h-44zM234,82h44v1h-44zM234,83h44v1h-44zM234,84h44v1h-44zM234,85h44v1h-44zM234,86h44v1h-44zM234,87h44v1h-44zM234,88h44v1h-44zM234,89h44v1h-44zM234,90h44v1h-44zM234,91h44v1h-44zM234,92h44v1h-44zM234,93h44v1h-44zM234,94h44v1h-44zM234,95h44v1h-44zM234,96h44v1h-44zM234,97h44v1h-44zM234,98h44v1h-44zM234,99h44v1h-44zM234,100h44v1h-44zM234,101h44v1h-44zM234,102h44v1h-44zM234,103h44v1h-44zM234,104h44v1h-44zM234,105h44v1h-44zM234,106h44v1h-44zM234,107h44v1h-44zM234,108h44v1h-44zM234,109h44v1h-44zM234,110h44v1h-44zM234,111h44v1h-44zM234,112h44v1h-44zM234,113h44v1h-44zM234,114h44v1h-44zM234,115h44v1h-44zM234,116h44v1h-44zM234,117h44v1h-44zM234,118h44v1h-44zM234,119h44v1h-44zM234,120h44v1h-44zM234,121h44v1h-44zM234,122h44v1h-44zM234,123h44v1h-44zM234,124h44v1h-44zM234,125h44v1h-44zM234,126h44v1h-44zM234,127h44v1h-44zM234,128h44v1h-44zM234,129h44v1h-44zM234,130h44v1h-44zM234,131h44v1h-44zM234,132h44v1h-44zM234,133h44v1h-44zM234,134h44v1h-44zM234,135h44v1h-44zM234,136h44v1h-44zM234,137h44v1h-44zM234,138h44v1h-44zM234,139h44v1h-44zM234,140h44v1h-44zM234,141h44v1h-44zM234,142h44v1h-44zM234,143h44v1h-44zM234,144h44v1h-44zM234,145h44v1h-44zM234,146h44v1h-44zM234,147h44v1h-44zM234,148h44v1h-44zM234,149h44v1h-44zM234,150h44v1h-44zM234,151h44v1h-44zM234,152h44v1h-44zM234,153h44v1h-44zM234,154h44v1h-44zM234,155h44v1h-44zM234,156h44v1h-44zM234,157h44v1h-44zM234,158h44v1h-44zM234,159h44v1h-44zM234,160h44v1h-44zM234,161h44v1h-44zM234,162h44v1h-44zM234,163h44v1h-44zM234,164h44v1h-44zM234,165h44v1h-44zM234,166h44v1h-44zM234,167h44v1h-44zM234,168h44v1h-44zM234,169h44v1h-44zM234,170h44v1h-44zM234,171h44v1h-44zM234,172h44v1h-44zM234,173h44v1h-44zM234,174h44v1h-44zM234,175h44v1h-44zM234,176h44v1h-44zM234,177h44v1h-44zM234,178h44v1h-44zM234,179h44v1h-44zM234,180h44v1h-44zM234,181h44v1h-44zM234,182h44v1h-44zM234,183h44v1h-44zM234,184h44v1h-44zM234,185h44v1h-44zM234,186h44v1h-44zM234,187h44v1h-44zM234,188h44v1h-44zM234,189h44v1h-44zM234,190h44v1h-44zM234,191h44v1h-44zM234,192h44v1h-44zM234,193h44v1h-44zM234,194h44v1h-44zM234,195h44v1h-44zM234,196h44v1h-44zM234,197h44v1h-44zM234,198h44v1h-44zM234,199h44v1h-44zM234,200h44v1h-44zM234,201h44v1h-44zM234,202h44v1h-44zM234,203h44v1h-44zM234,204h44v1h-44zM234,205h44v1h-44zM234,206h44v1h-44zM234,207h44v1h-44zM234,208h44v1h-44zM234,209h44v1h-44zM234,210h44v1h-44zM234,211h44v1h-44zM234,212h44v1h-44zM123,213h10v1h-10zM234,213h44v1h-44zM379,213h10v1h-10zM120,214h16v1h-16zM234,214h44v1h-44zM376,214h16v1h-16zM118,215h20v1h-20zM234,215h44v1h-44zM374,215h20v1h-20zM116,216h24v1h-24zM234,216h44v1h-44zM372,216h24v1h-24zM115,217h26v1h-26zM234,217h44v1h-44zM371,217h26v1h-26zM114,218h28v1h-28zM234,218h44v1h-44zM370,218h28v1h-28zM112,219h32v1h-32zM234,219h44v1h-44zM368,219h32v1h-32zM112,220h33v1h-33zM234,220h44v1h-44zM367,220h33v1h-33zM111,221h35v1h-35zM234,221h44v1h-44zM366,221h35v1h-35zM110,222h37v1h-37zM234,222h44v1h-44zM365,222h37v1h-37zM109,223h39v1h-39zM234,223h44v1h-44zM364,223h39v1h-39zM109,224h40v1h-40zM234,224h44v1h-44zM363,224h40v1h-40zM108,225h42v1h-42zM234,225h44v1h-44zM362,225h42v1h-42zM108,226h43v1h-43zM234,226h44v1h-44zM361,226h43v1h-43zM108,227h44v1h-44zM234,227h44v1h-44zM360,227h44v1h-44zM107,228h46v1h-46zM234,228h44v1h-44zM359,228h46v1h-46zM107,229h47v1h-47zM234,229h44v1h-44zM358,229h47v1h-47zM107,230h48v1h-48zM234,230h44v1h-44zM357,230h48v1h-48zM107,231h49v1h-49zM234,231h44v1h-44zM356,231h49v1h-49zM106,232h51v1h-51zM234,232h44v1h-44zM355,232h51v1h-51zM106,233h52v1h-52zM234,233h44v1h-44zM354,233h52v1h-52zM106,234h53v1h-53zM234,234h44v1h-44zM353,234h53v1h-53zM106,235h54v1h-54zM234,235h44v1h-44zM352,235h54v1h-54zM106,236h55v1h-55zM234,236h44v1h-44zM351,236h55v1h-55zM106,237h56v1h-56zM234,237h44v1h-44zM350,237h55v1h-55zM107,238h56v1h-56zM234,238h44v1h-44zM349,238h56v1h-56zM107,239h57v1h-57zM234,239h44v1h-44zM348,239h57v1h-57zM107,240h58v1h-58zM234,240h44v1h-44zM347,240h58v1h-58zM107,241h59v1h-59zM234,241h44v1h-44zM346,241h59v1h-59zM108,242h59v1h-59zM234,242h44v1h-44zM345,242h59v1h-59zM108,243h60v1h-60zM234,243h44v1h-44zM344,243h60v1h-60zM109,244h60v1h-60zM234,244h44v1h-44zM343,244h60v1h-60zM109,245h61v1h-61zM234,245h44v1h-44zM342,245h61v1h-61zM110,246h61v1h-61zM234,246h44v1h-44zM341,246h61v1h-61zM111,247h61v1h-61zM234,247h44v1h-44zM340,247h61v1h-61zM111,248h62v1h-62zM234,248h44v1h-44zM339,248h62v1h-62zM112,249h62v1h-62zM234,249h44v1h-44zM338,249h62v1h-62zM113,250h62v1h-62zM234,250h44v1h-44zM337,250h62v1h-62zM114,251h62v1h-62zM234,251h44v1h-44zM336,251h62v1h-62zM115,252h62v1h-62zM234,252h44v1h-44zM335,252h62v1h-62zM116,253h62v1h-62zM234,253h44v1h-44zM334,253h62v1h-62zM117,254h62v1h-62zM234,254h44v1h-44zM333,254h62v1h-62zM118,255h62v1h-62zM234,255h44v1h-44zM332,255h62v1h-62zM119,256h62v1h-62zM234,256h44v1h-44zM331,256h62v1h-62zM120,257h62v1h-62zM234,257h44v1h-44zM330,257h62v1h-62zM121,258h62v1h-62zM234,258h44v1h-44zM329,258h62v1h-62zM122,259h62v1h-62zM234,259h44v1h-44zM328,259h62v1h-62zM123,260h62v1h-62zM234,260h44v1h-44zM327,260h62v1h-62zM124,261h62v1h-62zM234,261h44v1h-44zM326,261h62v1h-62zM125,262h62v1h-62zM234,262h44v1h-44zM325,262h62v1h-62zM126,263h62v1h-62zM234,263h44v1h-44zM324,263h62v1h-62zM127,264h62v1h-62zM234,264h44v1h-44zM323,264h62v1h-62zM128,265h62v1h-62zM234,265h44v1h-44zM322,265h62v1h-62zM129,266h62v1h-62zM234,266h44v1h-44zM321,266h62v1h-62zM130,267h62v1h-62zM234,267h44v1h-44zM320,267h62v1h-62zM131,268h62v1h-62zM234,268h44v1h-44zM319,268h62v1h-62zM132,269h62v1h-62zM234,269h44v1h-44zM318,269h62v1h-62zM133,270h62v1h-62zM234,270h44v1h-44zM317,270h62v1h-62zM134,271h62v1h-62zM234,271h44v1h-44zM316,271h62v1h-62zM135,272h62v1h-62zM234,272h44v1h-44zM315,272h62v1h-62zM136,273h62v1h-62zM234,273h44v1h-44zM314,273h62v1h-62zM137,274h62v1h-62zM234,274h44v1h-44zM313,274h62v1h-62zM138,275h62v1h-62zM234,275h44v1h-44zM312,275h62v1h-62zM139,276h62v1h-62zM234,276h44v1h-44zM311,276h62v1h-62zM140,277h62v1h-62zM234,277h44v1h-44zM310,277h62v1h-62zM141,278h62v1h-62zM234,278h44v1h-44zM309,278h62v1h-62zM142,279h62v1h-62zM234,279h44v1h-44zM308,279h62v1h-62zM143,280h62v1h-62zM234,280h44v1h-44zM307,280h62v1h-62zM144,281h62v1h-62zM234,281h44v1h-44zM306,281h62v1h-62zM145,282h62v1h-62zM234,282h44v1h-44zM305,282h62v1h-62zM146,283h62v1h-62zM234,283h44v1h-44zM304,283h62v1h-62zM147,284h62v1h-62zM234,284h44v1h-44zM303,284h62v1h-62zM148,285h62v1h-62zM234,285h44v1h-44zM302,285h62v1h-62zM149,286h62v1h-62zM234,286h44v1h-44zM301,286h62v1h-62zM150,287h62v1h-62zM234,287h44v1h-44zM300,287h62v1h-62zM151,288h62v1h-62zM234,288h44v1h-44zM299,288h62v1h-62zM152,289h62v1h-62zM234,289h44v1h-44zM298,289h62v1h-62zM153,290h62v1h-62zM234,290h44v1h-44zM297,290h62v1h-62zM154,291h62v1h-62zM234,291h44v1h-44zM296,291h62v1h-62zM155,292h62v1h-62zM234,292h44v1h-44zM295,292h62v1h-62zM156,293h62v1h-62zM234,293h44v1h-44zM294,293h62v1h-62zM157,294h62v1h-62zM234,294h44v1h-44zM293,294h62v1h-62zM158,295h62v1h-62zM234,295h44v1h-44zM292,295h62v1h-62zM159,296h62v1h-62zM234,296h44v1h-44zM291,296h62v1h-62zM160,297h62v1h-62zM234,297h44v1h-44zM290,297h62v1h-62zM161,298h62v1h-62zM234,298h44v1h-44zM289,298h62v1h-62zM162,299h62v1h-62zM234,299h44v1h-44zM288,299h62v1h-62zM163,300h62v1h-62zM234,300h44v1h-44zM287,300h62v1h-62zM164,301h62v1h-62zM234,301h44v1h-44zM286,301h62v1h-62zM165,302h62v1h-62zM234,302h44v1h-44zM285,302h62v1h-62zM166,303h62v1h-62zM234,303h44v1h-44zM284,303h62v1h-62zM167,304h62v1h-62zM234,304h44v1h-44zM283,304h62v1h-62zM168,305h176v1h-176zM169,306h174v1h-174zM170,307h172v1h-172zM171,308h170v1h-170zM172,309h168v1h-168zM173,310h166v1h-166zM174,311h164v1h-164zM175,312h162v1h-162zM176,313h160v1h-160zM177,314h158v1h-158zM178,315h156v1h-156zM179,316h154v1h-154zM180,317h152v1h-152zM181,318h150v1h-150zM182,319h148v1h-148zM183,320h146v1h-146zM184,321h144v1h-144zM185,322h142v1h-142zM186,323h140v1h-140zM187,324h138v1h-138zM188,325h136v1h-136zM189,326h134v1h-134zM190,327h132v1h-132zM191,328h130v1h-130zM192,329h128v1h-128zM193,330h126v1h-126zM194,331h124v1h-124zM195,332h122v1h-122zM196,333h120v1h-120zM197,334h118v1h-118zM198,335h116v1h-116zM199,336h114v1h-114zM200,337h112v1h-112zM201,338h110v1h-110zM202,339h108v1h-108zM203,340h106v1h-106zM204,341h104v1h-104zM205,342h102v1h-102zM206,343h100v1h-100zM207,344h98v1h-98zM208,345h96v1h-96zM209,346h94v1h-94zM210,347h92v1h-92zM211,348h90v1h-90zM212,349h88v1h-88zM213,350h86v1h-86zM214,351h84v1h-84zM215,352h82v1h-82zM216,353h80v1h-80zM217,354h78v1h-78zM218,355h76v1h-76zM219,356h74v1h-74zM220,357h72v1h-72zM221,358h70v1h-70zM222,359h68v1h-68zM223,360h66v1h-66zM224,361h64v1h-64zM225,362h62v1h-62zM226,363h60v1h-60zM227,364h58v1h-58zM228,365h56v1h-56zM229,366h54v1h-54zM230,367h52v1h-52zM231,368h50v1h-50zM232,369h48v1h-48zM233,370h46v1h-46zM234,371h44v1h-44zM235,372h42v1h-42zM236,373h40v1h-40zM237,374h38v1h-38zM238,375h36v1h-36zM239,376h34v1h-34zM240,377h32v1h-32zM241,378h30v1h-30zM242,379h28v1h-28zM244,380h24v1h-24zM245,381h22v1h-22zM247,382h18v1h-18zM250,383h12v1h-12zM61,426h390v1h-390zM57,427h398v1h-398zM55,428h402v1h-402zM53,429h406v1h-406zM51,430h410v1h-410zM50,431h412v1h-412zM49,432h414v1h-414zM48,433h416v1h-416zM47,434h418v1h-418zM46,435h420v1h-420zM46,436h420v1h-420zM45,437h422v1h-422zM45,438h422v1h-422zM44,439h424v1h-424zM44,440h424v1h-424zM43,441h426v1h-426zM43,442h426v1h-426zM43,443h426v1h-426zM43,444h426v1h-426zM42,445h428v1h-428zM42,446h428v1h-428zM42,447h428v1h-428zM42,448h428v1h-428zM42,449h428v1h-428zM42,450h428v1h-428zM43,451h426v1h-426zM43,452h426v1h-426zM43,453h426v1h-426zM43,454h426v1h-426zM44,455h424v1h-424zM44,456h424v1h-424zM45,457h422v1h-422zM45,458h422v1h-422zM46,459h420v1h-420zM46,460h420v1h-420zM47,461h418v1h-418zM48,462h416v1h-416zM49,463h414v1h-414zM50,464h412v1h-412zM51,465h410v1h-410zM53,466h406v1h-406zM55,467h402v1h-402zM57,468h398v1h-398zM61,469h390v1h-390z"/></svg>