<?xml version="1.0" encoding="UTF-8"?>
<svg xmlns="http://www.w3.org/2000/svg" viewBox="0 0 512 512" width="512" height="512"><path fill="#000" d="M237,96h38v1h-38zM228,97h56v1h-56zM222,98h68v1h-68zM216,99h80v1h-80zM212,100h89v1h-89zM207,101h98v1h-98zM203,102h106v1h-106zM199,103h114v1h-114zM196,104h120v1h-120zM193,105h126v1h-126zM190,106h132v1h-132zM187,107h138v1h-138zM184,108h144v1h-144zM181,109h150v1h-150zM179,110h154v1h-154zM176,111h160v1h-160zM174,112h164v1h-164zM172,113h168v1h-168zM169,114h174v1h-174zM167,115h178v1h-178zM165,116h182v1h-182zM163,117h186v1h-186zM161,118h190v1h-190zM159,119h194v1h-194zM157,120h198v1h-198zM156,121h200v1h-200zM154,122h204v1h-204zM152,123h208v1h-208zM150,124h212v1h-212zM149,125h214v1h-214zM147,126h218v1h-218zM145,127h222v1h-222zM144,128h107v1h-107zM261,128h107v1h-107zM142,129h94v1h-94zM275,129h95v1h-95zM141,130h88v1h-88zM283,130h88v1h-88zM139,131h84v1h-84zM289,131h84v1h-84zM138,132h80v1h-80zM294,132h80v1h-80zM136,133h78v1h-78zM298,133h78v1h-78zM135,134h75v1h-75zM302,134h75v1h-75zM134,135h72v1h-72zM306,135h72v1h-72zM132,136h71v1h-71zM309,136h71v1h-71zM131,137h69v1h-69zM312,137h69v1h-69zM130,138h67v1h-67zM315,138h67v1h-67zM128,139h67v1h-67zM318,139h66v1h-66zM127,140h65v1h-65zM320,140h65v1h-65zM126,141h63v1h-63zM323,141h63v1h-63zM125,142h62v1h-62zM325,142h62v1h-62zM123,143h62v1h-62zM327,143h62v1h-62zM122,144h60v1h-60zM330,144h60v1h-60zM121,145h59v1h-59zM332,145h59v1h-59zM120,146h58v1h-58zM334,146h58v1h-58zM119,147h57v1h-57zM336,147h57v1h-57zM118,148h56v1h-56zM338,148h56v1h-56zM116,149h57v1h-57zM339,149h56v1h-56zM115,150h56v1h-56zM341,150h56v1h-56zM114,151h55v1h-55zM343,151h55v1h-55zM113,152h54v1h-54zM345,152h54v1h-54zM112,153h54v1h-54zM346,153h54v1h-54zM111,154h53v1h-53zM348,154h53v1h-53zM110,155h52v1h-52zM350,155h52v1h-52zM109,156h52v1h-52zM351,156h52v1h-52zM108,157h51v1h-51zM353,157h51v1h-51zM107,158h51v1h-51zM354,158h51v1h-51zM106,159h50v1h-50zM356,159h50v1h-50zM105,160h50v1h-50zM243,160h26v1h-26zM357,160h50v1h-50zM104,161h49v1h-49zM237,161h38v1h-38zM359,161h49v1h-49zM103,162h49v1h-49zM233,162h47v1h-47zM360,162h49v1h-49zM102,163h49v1h-49zM229,163h54v1h-54zM361,163h49v1h-49zM101,164h49v1h-49zM226,164h60v1h-60zM362,164h49v1h-49zM100,165h48v1h-48zM223,165h66v1h-66zM364,165h48v1h-48zM99,166h48v1h-48zM220,166h72v1h-72zM365,166h48v1h-48zM98,167h48v1h-48zM218,167h76v1h-76zM366,167h48v1h-48zM97,168h48v1h-48zM216,168h80v1h-80zM367,168h48v1h-48zM96,169h47v1h-47zM213,169h85v1h-85zM369,169h47v1h-47zM95,170h47v1h-47zM212,170h88v1h-88zM370,170h47v1h-47zM94,171h47v1h-47zM210,171h92v1h-92zM371,171h47v1h-47zM93,172h47v1h-47zM208,172h96v1h-96zM372,172h47v1h-47zM92,173h47v1h-47zM206,173h100v1h-100zM373,173h47v1h-47zM91,174h47v1h-47zM205,174h102v1h-102zM374,174h47v1h-47zM90,175h47v1h-47zM203,175h106v1h-106zM375,175h47v1h-47zM89,176h47v1h-47zM202,176h108v1h-108zM376,176h47v1h-47zM88,177h47v1h-47zM200,177h112v1h-112zM377,177h47v1h-47zM87,178h46v1h-46zM199,178h114v1h-114zM379,178h46v1h-46zM86,179h46v1h-46zM197,179h118v1h-118zM380,179h46v1h-46zM85,180h46v1h-46zM196,180h120v1h-120zM381,180h46v1h-46zM84,181h46v1h-46zM195,181h122v1h-122zM382,181h46v1h-46zM83,182h46v1h-46zM194,182h124v1h-124zM383,182h46v1h-46zM82,183h46v1h-46zM193,183h126v1h-126zM384,183h46v1h-46zM81,184h46v1h-46zM191,184h130v1h-130zM385,184h46v1h-46zM80,185h46v1h-46zM190,185h132v1h-132zM386,185h46v1h-46zM79,186h46v1h-46zM189,186h134v1h-134zM387,186h46v1h-46zM78,187h46v1h-46zM188,187h136v1h-136zM388,187h46v1h-46zM77,188h46v1h-46zM187,188h138v1h-138zM389,188h46v1h-46zM76,189h46v1h-46zM186,189h140v1h-140zM390,189h46v1h-46zM75,190h46v1h-46zM185,190h142v1h-142zM391,190h46v1h-46zM74,191h46v1h-46zM184,191h144v1h-144zM392,191h46v1h-46zM73,192h46v1h-46zM184,192h68v1h-68zM260,192h68v1h-68zM393,192h46v1h-46zM72,193h46v1h-46zM183,193h61v1h-61zM268,193h61v1h-61zM394,193h46v1h-46zM71,194h46v1h-46zM182,194h58v1h-58zM272,194h58v1h-58zM395,194h46v1h-46zM70,195h46v1h-46zM181,195h55v1h-55zM276,195h55v1h-55zM396,195h46v1h-46zM69,196h46v1h-46zM180,196h53v1h-53zM279,196h53v1h-53zM397,196h46v1h-46zM68,197h46v1h-46zM179,197h52v1h-52zM281,197h52v1h-52zM398,197h46v1h-46zM67,198h46v1h-46zM179,198h50v1h-50zM283,198h50v1h-50zM399,198h46v1h-46zM66,199h46v1h-46zM178,199h49v1h-49zM285,199h49v1h-49zM400,199h46v1h-46zM65,200h46v1h-46zM177,200h48v1h-48zM287,200h48v1h-48zM401,200h46v1h-46zM64,201h46v1h-46zM177,201h46v1h-46zM289,201h46v1h-46zM402,201h46v1h-46zM63,202h46v1h-46zM176,202h46v1h-46zM290,202h46v1h-46zM403,202h46v1h-46zM62,203h46v1h-46zM175,203h45v1h-45zM292,203h45v1h-45zM404,203h46v1h-46zM61,204h46v1h-46zM175,204h44v1h-44zM293,204h44v1h-44zM405,204h46v1h-46zM60,205h46v1h-46zM174,205h43v1h-43zM295,205h43v1h-43zM406,205h46v1h-46zM59,206h46v1h-46zM173,206h43v1h-43zM296,206h43v1h-43zM407,206h46v1h-46zM58,207h46v1h-46zM173,207h42v1h-42zM297,207h42v1h-42zM408,207h46v1h-46zM57,208h46v1h-46zM172,208h42v1h-42zM298,208h42v1h-42zM409,208h46v1h-46zM56,209h46v1h-46zM172,209h41v1h-41zM299,209h41v1h-41zM410,209h46v1h-46zM55,210h46v1h-46zM171,210h41v1h-41zM300,210h41v1h-41zM411,210h46v1h-46zM54,211h46v1h-46zM171,211h40v1h-40zM301,211h40v1h-40zM412,211h46v1h-46zM53,212h46v1h-46zM170,212h40v1h-40zM302,212h40v1h-40zM413,212h46v1h-46zM52,213h46v1h-46zM169,213h40v1h-40zM303,213h39v1h-39zM414,213h46v1h-46zM51,214h46v1h-46zM169,214h39v1h-39zM304,214h39v1h-39zM415,214h46v1h-46zM50,215h46v1h-46zM169,215h38v1h-38zM305,215h38v1h-38zM416,215h46v1h-46zM49,216h46v1h-46zM168,216h38v1h-38zM306,216h38v1h-38zM417,216h46v1h-46zM48,217h46v1h-46zM168,217h37v1h-37zM307,217h37v1h-37zM418,217h46v1h-46zM47,218h46v1h-46zM167,218h38v1h-38zM307,218h38v1h-38zM419,218h46v1h-46zM46,219h46v1h-46zM167,219h37v1h-37zM308,219h37v1h-37zM420,219h46v1h-46zM45,220h46v1h-46zM166,220h37v1h-37zM309,220h37v1h-37zM421,220h46v1h-46zM44,221h46v1h-46zM166,221h37v1h-37zM309,221h37v1h-37zM422,221h46v1h-46zM43,222h46v1h-46zM166,222h36v1h-36zM310,222h36v1h-36zM423,222h46v1h-46zM42,223h46v1h-46zM165,223h36v1h-36zM311,223h36v1h-36zM424,223h46v1h-46zM41,224h46v1h-46zM165,224h36v1h-36zM311,224h36v1h-36zM425,224h46v1h-46zM40,225h46v1h-46zM165,225h35v1h-35zM312,225h35v1h-35zM426,225h46v1h-46zM39,226h46v1h-46zM164,226h36v1h-36zM312,226h36v1h-36zM427,226h47v1h-47zM38,227h46v1h-46zM164,227h35v1h-35zM313,227h35v1h-35zM428,227h47v1h-47zM36,228h47v1h-47zM164,228h35v1h-35zM313,228h35v1h-35zM429,228h47v1h-47zM35,229h47v1h-47zM163,229h35v1h-35zM314,229h35v1h-35zM430,229h47v1h-47zM34,230h47v1h-47zM163,230h35v1h-35zM314,230h35v1h-35zM431,230h47v1h-47zM33,231h47v1h-47zM163,231h34v1h-34zM315,231h34v1h-34zM432,231h47v1h-47zM32,232h47v1h-47zM163,232h34v1h-34zM315,232h34v1h-34zM433,232h47v1h-47zM31,233h47v1h-47zM162,233h34v1h-34zM316,233h34v1h-34zM434,233h47v1h-47zM30,234h47v1h-47zM162,234h34v1h-34zM316,234h34v1h-34zM435,234h47v1h-47zM29,235h47v1h-47zM162,235h34v1h-34zM316,235h34v1h-34zM436,235h47v1h-47zM28,236h47v1h-47zM162,236h33v1h-33zM317,236h33v1h-33zM437,236h47v1h-47zM27,237h47v1h-47zM161,237h34v1h-34zM317,237h34v1h-34zM438,237h47v1h-47zM26,238h47v1h-47zM161,238h34v1h-34zM317,238h34v1h-34zM439,238h47v1h-47zM25,239h47v1h-47zM161,239h34v1h-34zM317,239h34v1h-34zM440,239h47v1h-47zM24,240h47v1h-47zM161,240h33v1h-33zM318,240h33v1h-33zM441,240h47v1h-47zM23,241h47v1h-47zM161,241h33v1h-33zM318,241h33v1h-33zM442,241h47v1h-47zM22,242h47v1h-47zM161,242h33v1h-33zM318,242h33v1h-33zM443,242h47v1h-47zM21,243h47v1h-47zM160,243h34v1h-34zM318,243h34v1h-34zM444,243h47v1h-47zM20,244h47v1h-47zM160,244h33v1h-33zM319,244h33v1h-33zM445,244h47v1h-47zM19,245h47v1h-47zM160,245h33v1h-33zM319,245h33v1h-33zM446,245h47v1h-47zM19,246h46v1h-46zM160,246h33v1h-33zM319,246h33v1h-33zM447,246h46v1h-46zM18,247h46v1h-46zM160,247h33v1h-33zM319,247h33v1h-33zM448,247h46v1h-46zM17,248h46v1h-46zM160,248h33v1h-33zM319,248h33v1h-33zM449,248h46v1h-46zM17,249h45v1h-45zM160,249h33v1h-33zM319,249h33v1h-33zM450,249h45v1h-45zM17,250h44v1h-44zM160,250h33v1h-33zM319,250h33v1h-33zM451,250h44v1h-44zM16,251h44v1h-44zM160,251h33v1h-33zM319,251h33v1h-33zM452,251h44v1h-44zM16,252h43v1h-43zM160,252h32v1h-32zM320,252h32v1h-32zM453,252h43v1h-43zM16,253h42v1h-42zM160,253h32v1h-32zM320,253h32v1h-32zM454,253h42v1h-42zM16,254h42v1h-42zM160,254h32v1h-32zM320,254h32v1h-32zM454,254h42v1h-42zM16,255h42v1h-42zM160,255h32v1h-32zM320,255h32v1h-32zM454,255h42v1h-42zM16,256h42v1h-42zM160,256h32v1h-32zM320,256h32v1h-32zM454,256h42v1h-42zM16,257h42v1h-42zM160,257h32v1h-32zM320,257h32v1h-32zM454,257h42v1h-42zM16,258h42v1h-42zM160,258h32v1h-32zM320,258h32v1h-32zM454,258h42v1h-42zM16,259h43v1h-43zM160,259h32v1h-32zM320,259h32v1h-32zM453,259h43v1h-43zM16,260h44v1h-44zM160,260h33v1h-33zM319,260h33v1h-33zM452,260h44v1h-44zM17,261h44v1h-44zM160,261h33v1h-33zM319,261h33v1h-33zM451,261h44v1h-44zM17,262h45v1h-45zM160,262h33v1h-33zM319,262h33v1h-33zM450,262h45v1h-45zM17,263h46v1h-46zM160,263h33v1h-33zM319,263h33v1h-33zM449,263h46v1h-46zM18,264h46v1h-46zM160,264h33v1h-33zM319,264h33v1h-33zM448,264h46v1h-46zM19,265h46v1h-46zM160,265h33v1h-33zM319,265h33v1h-33zM447,265h46v1h-46zM19,266h47v1h-47zM160,266h33v1h-33zM319,266h33v1h-33zM446,266h47v1h-47zM20,267h47v1h-47zM160,267h33v1h-33zM319,267h33v1h-33zM445,267h47v1h-47zM21,268h47v1h-47zM160,268h34v1h-34zM318,268h34v1h-34zM444,268h47v1h-47zM22,269h47v1h-47zM161,269h33v1h-33zM318,269h33v1h-33zM443,269h47v1h-47zM23,270h47v1h-47zM161,270h33v1h-33zM318,270h33v1h-33zM442,270h47v1h-47zM24,271h47v1h-47zM161,271h33v1h-33zM318,271h33v1h-33zM441,271h47v1h-47zM25,272h47v1h-47zM161,272h34v1h-34zM317,272h34v1h-34zM440,272h47v1h-47zM26,273h47v1h-47zM161,273h34v1h-34zM317,273h34v1h-34zM439,273h47v1h-47zM27,274h47v1h-47zM161,274h34v1h-34zM317,274h34v1h-34zM438,274h47v1h-47zM28,275h47v1h-47zM162,275h33v1h-33zM317,275h33v1h-33zM437,275h47v1h-47zM29,276h47v1h-47zM162,276h34v1h-34zM316,276h34v1h-34zM436,276h47v1h-47zM30,277h47v1h-47zM162,277h34v1h-34zM316,277h34v1h-34zM435,277h47v1h-47zM31,278h47v1h-47zM162,278h34v1h-34zM316,278h34v1h-34zM434,278h47v1h-47zM32,279h47v1h-47zM163,279h34v1h-34zM315,279h34v1h-34zM433,279h47v1h-47zM33,280h47v1h-47zM163,280h34v1h-34zM315,280h34v1h-34zM432,280h47v1h-47zM34,281h47v1h-47zM163,281h35v1h-35zM314,281h35v1h-35zM431,281h47v1h-47zM35,282h47v1h-47zM163,282h35v1h-35zM314,282h35v1h-35zM430,282h47v1h-47zM37,283h46v1h-46zM164,283h35v1h-35zM313,283h35v1h-35zM429,283h47v1h-47zM38,284h46v1h-46zM164,284h35v1h-35zM313,284h35v1h-35zM428,284h47v1h-47zM39,285h46v1h-46zM164,285h36v1h-36zM312,285h36v1h-36zM427,285h46v1h-46zM40,286h46v1h-46zM165,286h35v1h-35zM312,286h35v1h-35zM426,286h46v1h-46zM41,287h46v1h-46zM165,287h36v1h-36zM311,287h36v1h-36zM425,287h46v1h-46zM42,288h46v1h-46zM165,288h36v1h-36zM311,288h36v1h-36zM424,288h46v1h-46zM43,289h46v1h-46zM166,289h36v1h-36zM310,289h36v1h-36zM423,289h46v1h-46zM44,290h46v1h-46zM166,290h37v1h-37zM309,290h37v1h-37zM422,290h46v1h-46zM45,291h46v1h-46zM166,291h37v1h-37zM309,291h37v1h-37zM421,291h46v1h-46zM46,292h46v1h-46zM167,292h37v1h-37zM308,292h37v1h-37zM420,292h46v1h-46zM47,293h46v1h-46zM167,293h38v1h-38zM307,293h38v1h-38zM419,293h46v1h-46zM48,294h46v1h-46zM168,294h37v1h-37zM307,294h37v1h-37zM418,294h46v1h-46zM49,295h46v1h-46zM168,295h38v1h-38zM306,295h38v1h-38zM417,295h46v1h-46zM50,296h46v1h-46zM169,296h38v1h-38zM305,296h38v1h-38zM416,296h46v1h-46zM51,297h46v1h-46zM169,297h39v1h-39zM304,297h39v1h-39zM415,297h46v1h-46zM52,298h46v1h-46zM169,298h40v1h-40zM303,298h39v1h-39zM414,298h46v1h-46zM53,299h46v1h-46zM170,299h40v1h-40zM302,299h40v1h-40zM413,299h46v1h-46zM54,300h46v1h-46zM171,300h40v1h-40zM301,300h40v1h-40zM412,300h46v1h-46zM55,301h46v1h-46zM171,301h41v1h-41zM300,301h41v1h-41zM411,301h46v1h-46zM56,302h46v1h-46zM172,302h41v1h-41zM299,302h41v1h-41zM410,302h46v1h-46zM57,303h46v1h-46zM172,303h42v1h-42zM298,303h42v1h-42zM409,303h46v1h-46zM58,304h46v1h-46zM173,304h42v1h-42zM297,304h42v1h-42zM408,304h46v1h-46zM59,305h46v1h-46zM173,305h43v1h-43zM296,305h43v1h-43zM407,305h46v1h-46zM60,306h46v1h-46zM174,306h43v1h-43zM295,306h43v1h-43zM406,306h46v1h-46zM61,307h46v1h-46zM175,307h44v1h-44zM293,307h44v1h-44zM405,307h46v1h-46zM62,308h46v1h-46zM175,308h45v1h-45zM292,308h45v1h-45zM404,308h46v1h-46zM63,309h46v1h-46zM176,309h46v1h-46zM290,309h46v1h-46zM403,309h46v1h-46zM64,310h46v1h-46zM177,310h46v1h-46zM289,310h46v1h-46zM402,310h46v1h-46zM65,311h46v1h-46zM177,311h48v1h-48zM287,311h48v1h-48zM401,311h46v1h-46zM66,312h46v1h-46zM178,312h49v1h-49zM285,312h49v1h-49zM400,312h46v1h-46zM67,313h46v1h-46zM179,313h50v1h-50zM283,313h50v1h-50zM399,313h46v1h-46zM68,314h46v1h-46zM179,314h52v1h-52zM281,314h52v1h-52zM398,314h46v1h-46zM69,315h46v1h-46zM180,315h54v1h-54zM279,315h53v1h-53zM397,315h46v1h-46zM70,316h46v1h-46zM181,316h55v1h-55zM276,316h55v1h-55zM396,316h46v1h-46zM71,317h46v1h-46zM182,317h58v1h-58zM272,317h58v1h-58zM395,317h46v1h-46zM72,318h46v1h-46zM183,318h61v1h-61zM268,318h61v1h-61zM394,318h46v1h-46zM73,319h46v1h-46zM184,319h68v1h-68zM260,319h68v1h-68zM393,319h46v1h-46zM74,320h46v1h-46zM184,320h144v1h-144zM392,320h46v1h-46zM75,321h46v1h-46zM185,321h142v1h-142zM391,321h46v1h-46zM76,322h46v1h-46zM186,322h140v1h-140zM390,322h46v1h-46zM77,323h46v1h-46zM187,323h138v1h-138zM389,323h46v1h-46zM78,324h46v1h-46zM188,324h136v1h-136zM388,324h46v1h-46zM79,325h46v1h-46zM189,325h134v1h-134zM387,325h46v1h-46zM80,326h46v1h-46zM190,326h132v1h-132zM386,326h46v1h-46zM81,327h46v1h-46zM191,327h130v1h-130zM385,327h46v1h-46zM82,328h46v1h-46zM193,328h126v1h-126zM384,328h46v1h-46zM83,329h46v1h-46zM194,329h124v1h-124zM383,329h46v1h-46zM84,330h46v1h-46zM195,330h122v1h-122zM382,330h46v1h-46zM85,331h46v1h-46zM196,331h120v1h-120zM381,331h46v1h-46zM86,332h46v1h-46zM197,332h118v1h-118zM380,332h46v1h-46zM87,333h46v1h-46zM199,333h114v1h-114zM379,333h46v1h-46zM88,334h47v1h-47zM200,334h112v1h-112zM377,334h47v1h-47zM89,335h47v1h-47zM202,335h108v1h-108zM376,335h47v1h-47zM90,336h47v1h-47zM203,336h106v1h-106zM375,336h47v1h-47zM91,337h47v1h-47zM205,337h102v1h-102zM374,337h47v1h-47zM92,338h47v1h-47zM206,338h100v1h-100zM373,338h47v1h-47zM93,339h47v1h-47zM208,339h96v1h-96zM372,339h47v1h-47zM94,340h47v1h-47zM210,340h92v1h-92zM371,340h47v1h-47zM95,341h47v1h-47zM212,341h88v1h-88zM370,341h47v1h-47zM96,342h47v1h-47zM214,342h84v1h-84zM369,342h47v1h-47zM97,343h48v1h-48zM216,343h80v1h-80zM367,343h48v1h-48zM98,344h48v1h-48zM218,344h76v1h-76zM366,344h48v1h-48zM99,345h48v1h-48zM220,345h72v1h-72zM365,345h48v1h-48zM100,346h48v1h-48zM223,346h66v1h-66zM364,346h48v1h-48zM101,347h49v1h-49zM226,347h60v1h-60zM362,347h49v1h-49zM102,348h49v1h-49zM229,348h54v1h-54zM361,348h49v1h-49zM103,349h49v1h-49zM233,349h46v1h-46zM360,349h49v1h-49zM104,350h49v1h-49zM237,350h38v1h-38zM359,350h49v1h-49zM105,351h50v1h-50zM243,351h26v1h-26zM357,351h50v1h-50zM106,352h50v1h-50zM356,352h50v1h-50zM107,353h51v1h-51zM354,353h51v1h-51zM108,354h51v1h-51zM353,354h51v1h-51zM109,355h52v1h-52zM351,355h52v1h-52zM110,356h52v1h-52zM350,356h52v1h-52zM111,357h53v1h-53zM348,357h53v1h-53zM112,358h54v1h-54zM346,358h54v1h-54zM113,359h54v1h-54zM345,359h54v1h-54zM114,360h55v1h-55zM343,360h55v1h-55zM115,361h56v1h-56zM341,361h56v1h-56zM117,362h56v1h-56zM339,362h56v1h-56zM118,363h56v1h-56zM338,363h56v1h-56zM119,364h57v1h-57zM336,364h57v1h-57zM120,365h58v1h-58zM334,365h58v1h-58zM121,366h59v1h-59zM332,366h59v1h-59zM122,367h60v1h-60zM330,367h60v1h-60zM123,368h62v1h-62zM327,368h62v1h-62zM125,369h62v1h-62zM325,369h62v1h-62zM126,370h63v1h-63zM323,370h63v1h-63zM127,371h65v1h-65zM320,371h65v1h-65zM128,372h67v1h-67zM317,372h67v1h-67zM130,373h67v1h-67zM315,373h67v1h-67zM131,374h69v1h-69zM312,374h69v1h-69zM132,375h71v1h-71zM309,375h71v1h-71zM134,376h72v1h-72zM306,376h72v1h-72zM135,377h75v1h-75zM302,377h75v1h-75zM136,378h78v1h-78zM298,378h78v1h-78zM138,379h80v1h-80zM294,379h80v1h-80zM139,380h84v1h-84zM289,380h84v1h-84zM141,381h88v1h-88zM283,381h88v1h-88zM142,382h95v1h-95zM275,382h95v1h-95zM144,383h108v1h-108zM260,383h108v1h-108zM145,384h222v1h-222zM147,385h218v1h-218zM149,386h214v1h-214zM150,387h212v1h-212zM152,388h208v1h-208zM154,389h204v1h-204zM156,390h200v1h-200zM157,391h198v1h-198zM159,392h194v1h-194zM161,393h190v1h-190zM163,394h186v1h-186zM165,395h182v1h-182zM167,396h178v1h-178zM169,397h174v1h-174zM172,398h168v1h-168zM174,399h164v1h-164zM176,400h160v1h-160zM179,401h154v1h-154zM181,402h150v1h-150zM184,403h144v1h-144zM187,404h138v1h-138zM190,405h132v1h-132zM193,406h126v1h-126zM196,407h120v1h-120zM199,408h114v1h-114zM203,409h106v1h-106zM207,410h98v1h-98zM212,411h89v1h-89zM216,412h80v1h-80zM222,413h68v1h-68zM229,414h55v1h-55zM237,415h38v1h-38z"/></svg>