<?xml version="1.0" encoding="UTF-8"?>
<svg xmlns="http://www.w3.org/2000/svg" viewBox="0 0 512 512" width="512" height="512"><path fill="#000" d="M317,42h6v1h-6zM313,43h14v1h-14zM311,44h18v1h-18zM309,45h22v1h-22zM307,46h26v1h-26zM306,47h28v1h-28zM305,48h30v1h-30zM304,49h32v1h-32zM303,50h34v1h-34zM301,51h37v1h-37zM300,52h38v1h-38zM299,53h40v1h-40zM298,54h41v1h-41zM297,55h43v1h-43zM296,56h44v1h-44zM295,57h46v1h-46zM294,58h47v1h-47zM293,59h48v1h-48zM292,60h49v1h-49zM290,61h52v1h-52zM289,62h53v1h-53zM288,63h54v1h-54zM287,64h55v1h-55zM286,65h56v1h-56zM285,66h57v1h-57zM284,67h57v1h-57zM283,68h58v1h-58zM282,69h59v1h-59zM281,70h60v1h-60zM279,71h62v1h-62zM278,72h62v1h-62zM277,73h63v1h-63zM276,74h64v1h-64zM275,75h65v1h-65zM274,76h65v1h-65zM273,77h66v1h-66zM272,78h67v1h-67zM271,79h68v1h-68zM270,80h68v1h-68zM268,81h70v1h-70zM267,82h71v1h-71zM266,83h72v1h-72zM265,84h72v1h-72zM264,85h73v1h-73zM263,86h74v1h-74zM262,87h75v1h-75zM261,88h75v1h-75zM260,89h76v1h-76zM259,90h77v1h-77zM257,91h79v1h-79zM256,92h79v1h-79zM255,93h80v1h-80zM254,94h81v1h-81zM253,95h82v1h-82zM252,96h82v1h-82zM251,97h83v1h-83zM250,98h84v1h-84zM249,99h85v1h-85zM248,100h85v1h-85zM246,101h87v1h-87zM245,102h88v1h-88zM244,103h89v1h-89zM243,104h89v1h-89zM242,105h90v1h-90zM241,106h91v1h-91zM240,107h92v1h-92zM239,108h92v1h-92zM238,109h93v1h-93zM237,110h94v1h-94zM235,111h96v1h-96zM234,112h96v1h-96zM233,113h97v1h-97zM232,114h98v1h-98zM231,115h99v1h-99zM230,116h99v1h-99zM229,117h100v1h-100zM228,118h101v1h-101zM227,119h102v1h-102zM226,120h102v1h-102zM224,121h104v1h-104zM223,122h105v1h-105zM222,123h106v1h-106zM221,124h106v1h-106zM220,125h107v1h-107zM219,126h108v1h-108zM218,127h109v1h-109zM217,128h109v1h-109zM216,129h110v1h-110zM215,130h111v1h-111zM213,131h113v1h-113zM212,132h113v1h-113zM211,133h114v1h-114zM210,134h115v1h-115zM209,135h65v1h-65zM279,135h46v1h-46zM208,136h65v1h-65zM279,136h45v1h-45zM207,137h64v1h-64zM279,137h45v1h-45zM206,138h64v1h-64zM279,138h45v1h-45zM205,139h64v1h-64zM279,139h45v1h-45zM204,140h64v1h-64zM279,140h44v1h-44zM202,141h65v1h-65zM278,141h45v1h-45zM201,142h65v1h-65zM278,142h45v1h-45zM200,143h65v1h-65zM278,143h45v1h-45zM199,144h65v1h-65zM278,144h44v1h-44zM198,145h65v1h-65zM277,145h45v1h-45zM197,146h65v1h-65zM277,146h45v1h-45zM196,147h64v1h-64zM277,147h45v1h-45zM195,148h64v1h-64zM277,148h44v1h-44zM194,149h64v1h-64zM276,149h45v1h-45zM193,150h64v1h-64zM276,150h45v1h-45zM191,151h65v1h-65zM276,151h45v1h-45zM190,152h65v1h-65zM276,152h44v1h-44zM189,153h65v1h-65zM275,153h45v1h-45zM188,154h65v1h-65zM275,154h45v1h-45zM187,155h65v1h-65zM275,155h45v1h-45zM186,156h65v1h-65zM275,156h44v1h-44zM185,157h64v1h-64zM274,157h45v1h-45zM184,158h64v1h-64zM274,158h45v1h-45zM183,159h64v1h-64zM274,159h45v1h-45zM182,160h64v1h-64zM274,160h44v1h-44zM180,161h65v1h-65zM273,161h45v1h-45zM179,162h65v1h-65zM273,162h45v1h-45zM178,163h65v1h-65zM273,163h45v1h-45zM177,164h65v1h-65zM273,164h44v1h-44zM176,165h65v1h-65zM272,165h45v1h-45zM175,166h65v1h-65zM272,166h45v1h-45zM174,167h64v1h-64zM272,167h45v1h-45zM173,168h64v1h-64zM272,168h44v1h-44zM172,169h64v1h-64zM271,169h45v1h-45zM171,170h64v1h-64zM271,170h45v1h-45zM169,171h65v1h-65zM271,171h45v1h-45zM168,172h65v1h-65zM271,172h44v1h-44zM167,173h65v1h-65zM270,173h45v1h-45zM166,174h65v1h-65zM270,174h45v1h-45zM165,175h65v1h-65zM270,175h45v1h-45zM164,176h65v1h-65zM270,176h44v1h-44zM163,177h64v1h-64zM269,177h45v1h-45zM162,178h64v1h-64zM269,178h45v1h-45zM161,179h64v1h-64zM269,179h45v1h-45zM160,180h64v1h-64zM269,180h44v1h-44zM158,181h65v1h-65zM268,181h45v1h-45zM157,182h65v1h-65zM268,182h45v1h-45zM156,183h65v1h-65zM268,183h45v1h-45zM155,184h65v1h-65zM268,184h44v1h-44zM154,185h65v1h-65zM267,185h45v1h-45zM153,186h65v1h-65zM267,186h45v1h-45zM152,187h64v1h-64zM267,187h45v1h-45zM151,188h64v1h-64zM267,188h44v1h-44zM150,189h64v1h-64zM266,189h45v1h-45zM149,190h64v1h-64zM266,190h45v1h-45zM147,191h65v1h-65zM266,191h45v1h-45zM146,192h65v1h-65zM266,192h44v1h-44zM145,193h65v1h-65zM265,193h45v1h-45zM144,194h65v1h-65zM265,194h45v1h-45zM143,195h65v1h-65zM265,195h45v1h-45zM142,196h65v1h-65zM265,196h44v1h-44zM141,197h64v1h-64zM264,197h45v1h-45zM140,198h64v1h-64zM264,198h45v1h-45zM139,199h64v1h-64zM264,199h45v1h-45zM138,200h64v1h-64zM264,200h44v1h-44zM136,201h65v1h-65zM263,201h45v1h-45zM135,202h65v1h-65zM263,202h45v1h-45zM134,203h65v1h-65zM263,203h45v1h-45zM133,204h65v1h-65zM263,204h44v1h-44zM132,205h65v1h-65zM262,205h45v1h-45zM131,206h65v1h-65zM262,206h45v1h-45zM130,207h64v1h-64zM262,207h45v1h-45zM129,208h64v1h-64zM262,208h44v1h-44zM128,209h64v1h-64zM261,209h45v1h-45zM127,210h64v1h-64zM261,210h45v1h-45zM125,211h65v1h-65zM261,211h45v1h-45zM124,212h65v1h-65zM261,212h45v1h-45zM123,213h65v1h-65zM260,213h171v1h-171zM122,214h65v1h-65zM260,214h175v1h-175zM121,215h65v1h-65zM260,215h177v1h-177zM120,216h65v1h-65zM260,216h178v1h-178zM119,217h64v1h-64zM259,217h181v1h-181zM118,218h64v1h-64zM259,218h182v1h-182zM117,219h64v1h-64zM259,219h183v1h-183zM116,220h64v1h-64zM259,220h184v1h-184zM114,221h65v1h-65zM258,221h186v1h-186zM113,222h65v1h-65zM258,222h187v1h-187zM112,223h65v1h-65zM258,223h187v1h-187zM111,224h65v1h-65zM258,224h188v1h-188zM110,225h65v1h-65zM257,225h189v1h-189zM109,226h65v1h-65zM257,226h190v1h-190zM108,227h64v1h-64zM257,227h190v1h-190zM107,228h64v1h-64zM257,228h190v1h-190zM106,229h64v1h-64zM256,229h192v1h-192zM105,230h64v1h-64zM256,230h192v1h-192zM103,231h65v1h-65zM256,231h192v1h-192zM102,232h65v1h-65zM256,232h192v1h-192zM101,233h65v1h-65zM256,233h192v1h-192zM100,234h65v1h-65zM256,234h192v1h-192zM99,235h65v1h-65zM256,235h192v1h-192zM98,236h65v1h-65zM256,236h192v1h-192zM97,237h64v1h-64zM256,237h192v1h-192zM96,238h64v1h-64zM256,238h192v1h-192zM95,239h64v1h-64zM256,239h192v1h-192zM94,240h64v1h-64zM256,240h192v1h-192zM92,241h65v1h-65zM257,241h190v1h-190zM91,242h65v1h-65zM257,242h190v1h-190zM90,243h65v1h-65zM258,243h188v1h-188zM89,244h65v1h-65zM258,244h188v1h-188zM88,245h65v1h-65zM259,245h186v1h-186zM87,246h65v1h-65zM259,246h186v1h-186zM86,247h64v1h-64zM260,247h184v1h-184zM85,248h64v1h-64zM261,248h182v1h-182zM84,249h64v1h-64zM262,249h180v1h-180zM83,250h64v1h-64zM263,250h178v1h-178zM81,251h65v1h-65zM264,251h176v1h-176zM80,252h66v1h-66zM265,252h174v1h-174zM79,253h67v1h-67zM267,253h171v1h-171zM78,254h68v1h-68zM269,254h167v1h-167zM77,255h69v1h-69zM271,255h164v1h-164zM76,256h143v1h-143zM361,256h73v1h-73zM75,257h147v1h-147zM361,257h72v1h-72zM74,258h150v1h-150zM361,258h70v1h-70zM73,259h153v1h-153zM361,259h69v1h-69zM72,260h155v1h-155zM361,260h68v1h-68zM71,261h157v1h-157zM360,261h67v1h-67zM70,262h159v1h-159zM358,262h68v1h-68zM69,263h161v1h-161zM357,263h68v1h-68zM68,264h163v1h-163zM355,264h68v1h-68zM67,265h164v1h-164zM354,265h68v1h-68zM67,266h165v1h-165zM353,266h68v1h-68zM66,267h167v1h-167zM351,267h69v1h-69zM66,268h167v1h-167zM350,268h68v1h-68zM65,269h169v1h-169zM349,269h68v1h-68zM65,270h169v1h-169zM347,270h69v1h-69zM64,271h170v1h-170zM346,271h68v1h-68zM64,272h170v1h-170zM344,272h69v1h-69zM64,273h171v1h-171zM343,273h69v1h-69zM64,274h171v1h-171zM342,274h68v1h-68zM64,275h171v1h-171zM340,275h69v1h-69zM64,276h171v1h-171zM339,276h69v1h-69zM64,277h171v1h-171zM338,277h69v1h-69zM64,278h171v1h-171zM336,278h69v1h-69zM64,279h171v1h-171zM335,279h69v1h-69zM64,280h171v1h-171zM334,280h69v1h-69zM64,281h171v1h-171zM332,281h69v1h-69zM64,282h170v1h-170zM331,282h69v1h-69zM65,283h169v1h-169zM329,283h70v1h-70zM65,284h169v1h-169zM328,284h69v1h-69zM65,285h168v1h-168zM327,285h69v1h-69zM66,286h167v1h-167zM325,286h70v1h-70zM66,287h167v1h-167zM324,287h70v1h-70zM67,288h165v1h-165zM323,288h69v1h-69zM67,289h165v1h-165zM321,289h70v1h-70zM68,290h164v1h-164zM320,290h70v1h-70zM69,291h162v1h-162zM318,291h70v1h-70zM70,292h161v1h-161zM317,292h70v1h-70zM71,293h159v1h-159zM316,293h70v1h-70zM72,294h158v1h-158zM314,294h70v1h-70zM74,295h156v1h-156zM313,295h70v1h-70zM75,296h154v1h-154zM312,296h70v1h-70zM77,297h152v1h-152zM310,297h71v1h-71zM81,298h148v1h-148zM309,298h70v1h-70zM180,299h48v1h-48zM307,299h71v1h-71zM180,300h48v1h-48zM306,300h71v1h-71zM180,301h47v1h-47zM305,301h70v1h-70zM180,302h47v1h-47zM303,302h71v1h-71zM180,303h47v1h-47zM302,303h71v1h-71zM180,304h46v1h-46zM301,304h70v1h-70zM180,305h46v1h-46zM299,305h71v1h-71zM179,306h47v1h-47zM298,306h71v1h-71zM179,307h46v1h-46zM296,307h72v1h-72zM178,308h47v1h-47zM295,308h71v1h-71zM178,309h46v1h-46zM294,309h71v1h-71zM178,310h46v1h-46zM292,310h72v1h-72zM177,311h47v1h-47zM291,311h71v1h-71zM177,312h46v1h-46zM290,312h71v1h-71zM177,313h46v1h-46zM288,313h72v1h-72zM176,314h47v1h-47zM287,314h71v1h-71zM176,315h46v1h-46zM285,315h72v1h-72zM175,316h47v1h-47zM284,316h72v1h-72zM175,317h46v1h-46zM283,317h72v1h-72zM175,318h46v1h-46zM281,318h72v1h-72zM174,319h47v1h-47zM280,319h72v1h-72zM174,320h46v1h-46zM279,320h72v1h-72zM174,321h46v1h-46zM277,321h72v1h-72zM173,322h47v1h-47zM276,322h72v1h-72zM173,323h46v1h-46zM275,323h72v1h-72zM172,324h47v1h-47zM273,324h72v1h-72zM172,325h46v1h-46zM272,325h72v1h-72zM172,326h46v1h-46zM270,326h73v1h-73zM171,327h47v1h-47zM269,327h73v1h-73zM171,328h46v1h-46zM268,328h72v1h-72zM171,329h46v1h-46zM266,329h73v1h-73zM170,330h47v1h-47zM265,330h73v1h-73zM170,331h46v1h-46zM264,331h72v1h-72zM169,332h47v1h-47zM262,332h73v1h-73zM169,333h46v1h-46zM261,333h73v1h-73zM169,334h46v1h-46zM259,334h73v1h-73zM168,335h47v1h-47zM258,335h73v1h-73zM168,336h46v1h-46zM257,336h73v1h-73zM168,337h46v1h-46zM255,337h74v1h-74zM167,338h47v1h-47zM254,338h73v1h-73zM167,339h46v1h-46zM253,339h73v1h-73zM166,340h47v1h-47zM251,340h74v1h-74zM166,341h46v1h-46zM250,341h73v1h-73zM166,342h46v1h-46zM248,342h74v1h-74zM165,343h47v1h-47zM247,343h74v1h-74zM165,344h46v1h-46zM246,344h73v1h-73zM165,345h46v1h-46zM244,345h74v1h-74zM164,346h47v1h-47zM243,346h74v1h-74zM164,347h46v1h-46zM242,347h74v1h-74zM163,348h47v1h-47zM240,348h74v1h-74zM163,349h46v1h-46zM239,349h74v1h-74zM163,350h46v1h-46zM237,350h75v1h-75zM162,351h47v1h-47zM236,351h74v1h-74zM162,352h46v1h-46zM235,352h74v1h-74zM162,353h46v1h-46zM233,353h75v1h-75zM161,354h47v1h-47zM232,354h74v1h-74zM161,355h46v1h-46zM231,355h74v1h-74zM160,356h47v1h-47zM229,356h75v1h-75zM160,357h46v1h-46zM228,357h75v1h-75zM160,358h46v1h-46zM226,358h75v1h-75zM159,359h47v1h-47zM225,359h75v1h-75zM159,360h46v1h-46zM224,360h75v1h-75zM159,361h46v1h-46zM222,361h75v1h-75zM158,362h47v1h-47zM221,362h75v1h-75zM158,363h46v1h-46zM220,363h75v1h-75zM157,364h47v1h-47zM218,364h75v1h-75zM157,365h46v1h-46zM217,365h75v1h-75zM157,366h46v1h-46zM216,366h75v1h-75zM156,367h47v1h-47zM214,367h76v1h-76zM156,368h46v1h-46zM213,368h75v1h-75zM156,369h46v1h-46zM211,369h76v1h-76zM155,370h47v1h-47zM210,370h76v1h-76zM155,371h47v1h-47zM209,371h75v1h-75zM154,372h48v1h-48zM207,372h76v1h-76zM154,373h128v1h-128zM154,374h126v1h-126zM153,375h126v1h-126zM153,376h125v1h-125zM153,377h124v1h-124zM152,378h123v1h-123zM152,379h122v1h-122zM151,380h122v1h-122zM151,381h120v1h-120zM151,382h119v1h-119zM150,383h119v1h-119zM150,384h117v1h-117zM150,385h116v1h-116zM149,386h116v1h-116zM149,387h115v1h-115zM148,388h114v1h-114zM148,389h113v1h-113zM148,390h112v1h-112zM147,391h111v1h-111zM147,392h110v1h-110zM147,393h109v1h-109zM146,394h108v1h-108zM146,395h107v1h-107zM145,396h107v1h-107zM145,397h106v1h-106zM145,398h104v1h-104zM144,399h104v1h-104zM144,400h103v1h-103zM144,401h101v1h-101zM143,402h101v1h-101zM143,403h100v1h-100zM142,404h99v1h-99zM142,405h98v1h-98zM142,406h97v1h-97zM141,407h97v1h-97zM141,408h95v1h-95zM141,409h94v1h-94zM140,410h94v1h-94zM140,411h92v1h-92zM139,412h92v1h-92zM139,413h91v1h-91zM139,414h89v1h-89zM138,415h89v1h-89zM138,416h88v1h-88zM138,417h87v1h-87zM137,418h86v1h-86zM137,419h85v1h-85zM136,420h85v1h-85zM136,421h83v1h-83zM136,422h82v1h-82zM135,423h82v1h-82zM135,424h80v1h-80zM135,425h79v1h-79zM134,426h79v1h-79zM134,427h78v1h-78zM133,428h77v1h-77zM133,429h76v1h-76zM133,430h75v1h-75zM132,431h74v1h-74zM132,432h73v1h-73zM132,433h72v1h-72zM131,434h71v1h-71zM131,435h70v1h-70zM130,436h70v1h-70zM130,437h69v1h-69zM130,438h67v1h-67zM129,439h67v1h-67zM129,440h66v1h-66zM129,441h64v1h-64zM128,442h64v1h-64zM128,443h63v1h-63zM128,444h61v1h-61zM128,445h60v1h-60zM128,446h59v1h-59zM128,447h58v1h-58zM128,448h56v1h-56zM128,449h55v1h-55zM128,450h54v1h-54zM128,451h52v1h-52zM128,452h51v1h-51zM128,453h50v1h-50zM129,454h47v1h-47zM129,455h46v1h-46zM129,456h45v1h-45zM130,457h43v1h-43zM130,458h41v1h-41zM131,459h39v1h-39zM132,460h37v1h-37zM132,461h35v1h-35zM133,462h33v1h-33zM134,463h31v1h-31zM135,464h28v1h-28zM137,465h25v1h-25zM138,466h23v1h-23zM140,467h19v1h-19zM142,468h14v1h-14zM146,469h6v1h-6z"/></svg>