<?xml version="1.0" encoding="UTF-8"?>
<svg xmlns="http://www.w3.org/2000/svg" viewBox="0 0 512 512" width="512" height="512"><path fill="#000" d="M96,64h110v1h-110zM91,65h120v1h-120zM88,66h127v1h-127zM85,67h133v1h-133zM82,68h138v1h-138zM80,69h143v1h-143zM78,70h147v1h-147zM76,71h150v1h-150zM74,72h154v1h-154zM72,73h158v1h-158zM71,74h160v1h-160zM69,75h164v1h-164zM68,76h166v1h-166zM67,77h169v1h-169zM66,78h171v1h-171zM64,79h174v1h-174zM63,80h176v1h-176zM62,81h178v1h-178zM61,82h180v1h-180zM60,83h182v1h-182zM59,84h184v1h-184zM58,85h186v1h-186zM58,86h187v1h-187zM57,87h189v1h-189zM56,88h191v1h-191zM55,89h193v1h-193zM54,90h195v1h-195zM54,91h196v1h-196zM53,92h198v1h-198zM52,93h200v1h-200zM52,94h201v1h-201zM51,95h203v1h-203zM51,96h204v1h-204zM50,97h206v1h-206zM49,98h208v1h-208zM49,99h209v1h-209zM48,100h211v1h-211zM48,101h212v1h-212zM48,102h213v1h-213zM47,103h215v1h-215zM47,104h216v1h-216zM46,105h218v1h-218zM46,106h322v1h-322zM46,107h56v1h-56zM200,107h175v1h-175zM45,108h54v1h-54zM203,108h176v1h-176zM45,109h52v1h-52zM206,109h177v1h-177zM45,110h50v1h-50zM207,110h179v1h-179zM44,111h50v1h-50zM209,111h179v1h-179zM44,112h49v1h-49zM210,112h180v1h-180zM44,113h48v1h-48zM211,113h181v1h-181zM44,114h47v1h-47zM212,114h182v1h-182zM44,115h46v1h-46zM213,115h183v1h-183zM43,116h46v1h-46zM214,116h183v1h-183zM43,117h46v1h-46zM215,117h184v1h-184zM43,118h45v1h-45zM216,118h184v1h-184zM43,119h45v1h-45zM217,119h185v1h-185zM43,120h44v1h-44zM218,120h185v1h-185zM43,121h44v1h-44zM219,121h185v1h-185zM43,122h43v1h-43zM220,122h185v1h-185zM42,123h44v1h-44zM221,123h185v1h-185zM42,124h44v1h-44zM222,124h185v1h-185zM42,125h44v1h-44zM223,125h185v1h-185zM42,126h44v1h-44zM224,126h185v1h-185zM42,127h44v1h-44zM225,127h185v1h-185zM42,128h44v1h-44zM226,128h185v1h-185zM42,129h44v1h-44zM227,129h185v1h-185zM42,130h44v1h-44zM228,130h185v1h-185zM42,131h44v1h-44zM229,131h185v1h-185zM42,132h44v1h-44zM230,132h184v1h-184zM42,133h44v1h-44zM231,133h184v1h-184zM42,134h44v1h-44zM232,134h184v1h-184zM42,135h44v1h-44zM233,135h184v1h-184zM42,136h44v1h-44zM234,136h183v1h-183zM42,137h44v1h-44zM235,137h183v1h-183zM42,138h44v1h-44zM236,138h182v1h-182zM42,139h44v1h-44zM237,139h182v1h-182zM42,140h44v1h-44zM238,140h182v1h-182zM42,141h44v1h-44zM239,141h181v1h-181zM42,142h44v1h-44zM240,142h180v1h-180zM42,143h44v1h-44zM241,143h180v1h-180zM42,144h44v1h-44zM242,144h179v1h-179zM42,145h44v1h-44zM243,145h179v1h-179zM42,146h44v1h-44zM245,146h177v1h-177zM42,147h44v1h-44zM247,147h176v1h-176zM42,148h44v1h-44zM249,148h174v1h-174zM42,149h44v1h-44zM253,149h170v1h-170zM42,150h44v1h-44zM368,150h56v1h-56zM42,151h44v1h-44zM371,151h53v1h-53zM42,152h44v1h-44zM373,152h51v1h-51zM42,153h44v1h-44zM375,153h50v1h-50zM42,154h44v1h-44zM376,154h49v1h-49zM42,155h44v1h-44zM377,155h48v1h-48zM42,156h44v1h-44zM378,156h47v1h-47zM42,157h44v1h-44zM379,157h47v1h-47zM42,158h44v1h-44zM380,158h46v1h-46zM42,159h44v1h-44zM380,159h46v1h-46zM42,160h44v1h-44zM381,160h45v1h-45zM42,161h44v1h-44zM382,161h44v1h-44zM42,162h44v1h-44zM382,162h45v1h-45zM42,163h44v1h-44zM382,163h45v1h-45zM42,164h44v1h-44zM383,164h44v1h-44zM42,165h44v1h-44zM383,165h44v1h-44zM42,166h44v1h-44zM383,166h44v1h-44zM42,167h44v1h-44zM383,167h44v1h-44zM42,168h44v1h-44zM383,168h44v1h-44zM42,169h44v1h-44zM384,169h43v1h-43zM42,170h44v1h-44zM384,170h43v1h-43zM42,171h44v1h-44zM384,171h43v1h-43zM42,172h44v1h-44zM384,172h43v1h-43zM42,173h44v1h-44zM384,173h43v1h-43zM42,174h44v1h-44zM384,174h43v1h-43zM42,175h44v1h-44zM384,175h43v1h-43zM42,176h44v1h-44zM384,176h43v1h-43zM42,177h44v1h-44zM384,177h43v1h-43zM42,178h44v1h-44zM384,178h43v1h-43zM42,179h44v1h-44zM384,179h43v1h-43zM42,180h44v1h-44zM384,180h43v1h-43zM42,181h44v1h-44zM384,181h43v1h-43zM42,182h44v1h-44zM384,182h43v1h-43zM42,183h44v1h-44zM384,183h43v1h-43zM42,184h44v1h-44zM384,184h43v1h-43zM42,185h44v1h-44zM384,185h43v1h-43zM42,186h44v1h-44zM384,186h43v1h-43zM42,187h44v1h-44zM384,187h43v1h-43zM42,188h44v1h-44zM384,188h43v1h-43zM42,189h44v1h-44zM384,189h43v1h-43zM42,190h44v1h-44zM384,190h43v1h-43zM42,191h44v1h-44zM384,191h43v1h-43zM42,192h44v1h-44zM149,192h278v1h-278zM42,193h44v1h-44zM144,193h283v1h-283zM42,194h44v1h-44zM141,194h290v1h-290zM42,195h44v1h-44zM138,195h296v1h-296zM42,196h44v1h-44zM135,196h302v1h-302zM42,197h44v1h-44zM133,197h306v1h-306zM42,198h44v1h-44zM131,198h310v1h-310zM42,199h44v1h-44zM129,199h314v1h-314zM42,200h44v1h-44zM127,200h318v1h-318zM42,201h44v1h-44zM125,201h321v1h-321zM42,202h44v1h-44zM124,202h324v1h-324zM42,203h44v1h-44zM123,203h326v1h-326zM42,204h44v1h-44zM121,204h330v1h-330zM42,205h44v1h-44zM120,205h332v1h-332zM42,206h44v1h-44zM119,206h334v1h-334zM42,207h44v1h-44zM117,207h337v1h-337zM42,208h44v1h-44zM116,208h339v1h-339zM42,209h44v1h-44zM115,209h341v1h-341zM42,210h44v1h-44zM114,210h344v1h-344zM42,211h44v1h-44zM113,211h345v1h-345zM42,212h44v1h-44zM112,212h347v1h-347zM42,213h44v1h-44zM111,213h349v1h-349zM42,214h44v1h-44zM111,214h350v1h-350zM42,215h44v1h-44zM110,215h352v1h-352zM42,216h44v1h-44zM109,216h354v1h-354zM42,217h44v1h-44zM108,217h356v1h-356zM42,218h44v1h-44zM107,218h357v1h-357zM42,219h44v1h-44zM107,219h358v1h-358zM42,220h44v1h-44zM106,220h360v1h-360zM42,221h44v1h-44zM105,221h361v1h-361zM42,222h44v1h-44zM105,222h362v1h-362zM42,223h44v1h-44zM104,223h364v1h-364zM42,224h44v1h-44zM104,224h364v1h-364zM42,225h44v1h-44zM103,225h366v1h-366zM42,226h44v1h-44zM103,226h366v1h-366zM42,227h44v1h-44zM102,227h368v1h-368zM42,228h44v1h-44zM102,228h368v1h-368zM42,229h44v1h-44zM101,229h370v1h-370zM42,230h44v1h-44zM101,230h370v1h-370zM42,231h44v1h-44zM100,231h372v1h-372zM42,232h44v1h-44zM100,232h372v1h-372zM42,233h44v1h-44zM99,233h373v1h-373zM42,234h44v1h-44zM99,234h374v1h-374zM42,235h44v1h-44zM99,235h57v1h-57zM416,235h57v1h-57zM42,236h44v1h-44zM98,236h54v1h-54zM420,236h53v1h-53zM42,237h44v1h-44zM98,237h52v1h-52zM422,237h52v1h-52zM42,238h44v1h-44zM98,238h50v1h-50zM424,238h50v1h-50zM42,239h44v1h-44zM97,239h50v1h-50zM425,239h49v1h-49zM42,240h44v1h-44zM97,240h49v1h-49zM426,240h48v1h-48zM42,241h44v1h-44zM97,241h48v1h-48zM427,241h48v1h-48zM42,242h44v1h-44zM97,242h47v1h-47zM428,242h47v1h-47zM42,243h44v1h-44zM96,243h47v1h-47zM429,243h46v1h-46zM42,244h44v1h-44zM96,244h46v1h-46zM429,244h46v1h-46zM42,245h44v1h-44zM96,245h46v1h-46zM430,245h46v1h-46zM42,246h44v1h-44zM95,246h46v1h-46zM431,246h45v1h-45zM42,247h44v1h-44zM95,247h46v1h-46zM431,247h45v1h-45zM42,248h44v1h-44zM95,248h45v1h-45zM432,248h44v1h-44zM42,249h44v1h-44zM94,249h46v1h-46zM432,249h44v1h-44zM42,250h44v1h-44zM94,250h46v1h-46zM432,250h44v1h-44zM42,251h44v1h-44zM94,251h45v1h-45zM432,251h44v1h-44zM42,252h44v1h-44zM94,252h45v1h-45zM433,252h43v1h-43zM42,253h44v1h-44zM93,253h46v1h-46zM433,253h43v1h-43zM42,254h44v1h-44zM93,254h45v1h-45zM433,254h43v1h-43zM42,255h44v1h-44zM93,255h45v1h-45zM433,255h43v1h-43zM42,256h44v1h-44zM92,256h46v1h-46zM433,256h43v1h-43zM42,257h44v1h-44zM92,257h45v1h-45zM433,257h43v1h-43zM42,258h44v1h-44zM92,258h45v1h-45zM433,258h43v1h-43zM42,259h44v1h-44zM91,259h46v1h-46zM433,259h43v1h-43zM42,260h44v1h-44zM91,260h46v1h-46zM432,260h44v1h-44zM42,261h44v1h-44zM91,261h45v1h-45zM432,261h44v1h-44zM42,262h44v1h-44zM91,262h45v1h-45zM432,262h44v1h-44zM42,263h94v1h-94zM432,263h44v1h-44zM42,264h93v1h-93zM431,264h45v1h-45zM42,265h93v1h-93zM431,265h45v1h-45zM42,266h93v1h-93zM431,266h44v1h-44zM42,267h92v1h-92zM430,267h45v1h-45zM42,268h92v1h-92zM430,268h45v1h-45zM42,269h92v1h-92zM430,269h45v1h-45zM42,270h92v1h-92zM430,270h45v1h-45zM42,271h91v1h-91zM429,271h45v1h-45zM42,272h91v1h-91zM429,272h45v1h-45zM42,273h91v1h-91zM429,273h45v1h-45zM42,274h90v1h-90zM428,274h46v1h-46zM42,275h90v1h-90zM428,275h45v1h-45zM42,276h90v1h-90zM428,276h45v1h-45zM42,277h89v1h-89zM427,277h46v1h-46zM42,278h89v1h-89zM427,278h45v1h-45zM42,279h89v1h-89zM427,279h45v1h-45zM42,280h89v1h-89zM427,280h45v1h-45zM42,281h88v1h-88zM426,281h46v1h-46zM42,282h88v1h-88zM426,282h45v1h-45zM42,283h88v1h-88zM426,283h45v1h-45zM42,284h87v1h-87zM425,284h46v1h-46zM42,285h87v1h-87zM425,285h45v1h-45zM42,286h87v1h-87zM425,286h45v1h-45zM42,287h86v1h-86zM424,287h46v1h-46zM42,288h86v1h-86zM424,288h45v1h-45zM42,289h86v1h-86zM424,289h45v1h-45zM42,290h86v1h-86zM424,290h45v1h-45zM42,291h85v1h-85zM423,291h46v1h-46zM42,292h85v1h-85zM423,292h45v1h-45zM42,293h85v1h-85zM423,293h45v1h-45zM42,294h84v1h-84zM422,294h46v1h-46zM42,295h84v1h-84zM422,295h45v1h-45zM42,296h84v1h-84zM422,296h45v1h-45zM42,297h83v1h-83zM421,297h46v1h-46zM42,298h83v1h-83zM421,298h45v1h-45zM42,299h83v1h-83zM421,299h45v1h-45zM42,300h83v1h-83zM421,300h45v1h-45zM42,301h82v1h-82zM420,301h46v1h-46zM42,302h82v1h-82zM420,302h45v1h-45zM42,303h82v1h-82zM420,303h45v1h-45zM42,304h81v1h-81zM419,304h46v1h-46zM42,305h81v1h-81zM419,305h45v1h-45zM42,306h81v1h-81zM419,306h45v1h-45zM42,307h80v1h-80zM418,307h46v1h-46zM42,308h80v1h-80zM418,308h45v1h-45zM42,309h80v1h-80zM418,309h45v1h-45zM42,310h80v1h-80zM418,310h45v1h-45zM42,311h79v1h-79zM417,311h46v1h-46zM42,312h79v1h-79zM417,312h45v1h-45zM42,313h79v1h-79zM417,313h45v1h-45zM42,314h78v1h-78zM416,314h46v1h-46zM42,315h78v1h-78zM416,315h45v1h-45zM42,316h78v1h-78zM416,316h45v1h-45zM42,317h77v1h-77zM415,317h46v1h-46zM42,318h77v1h-77zM415,318h45v1h-45zM42,319h77v1h-77zM415,319h45v1h-45zM42,320h77v1h-77zM415,320h45v1h-45zM42,321h76v1h-76zM414,321h46v1h-46zM42,322h76v1h-76zM414,322h45v1h-45zM42,323h76v1h-76zM414,323h45v1h-45zM42,324h75v1h-75zM413,324h46v1h-46zM42,325h75v1h-75zM413,325h45v1h-45zM42,326h75v1h-75zM413,326h45v1h-45zM42,327h74v1h-74zM412,327h46v1h-46zM42,328h74v1h-74zM412,328h45v1h-45zM42,329h74v1h-74zM412,329h45v1h-45zM42,330h74v1h-74zM412,330h45v1h-45zM42,331h73v1h-73zM411,331h46v1h-46zM42,332h73v1h-73zM411,332h45v1h-45zM42,333h73v1h-73zM411,333h45v1h-45zM42,334h72v1h-72zM410,334h46v1h-46zM42,335h72v1h-72zM410,335h45v1h-45zM42,336h72v1h-72zM410,336h45v1h-45zM42,337h71v1h-71zM409,337h46v1h-46zM42,338h71v1h-71zM409,338h45v1h-45zM42,339h71v1h-71zM409,339h45v1h-45zM42,340h71v1h-71zM409,340h45v1h-45zM42,341h70v1h-70zM408,341h46v1h-46zM42,342h70v1h-70zM408,342h45v1h-45zM42,343h70v1h-70zM408,343h45v1h-45zM42,344h69v1h-69zM407,344h46v1h-46zM42,345h69v1h-69zM407,345h45v1h-45zM42,346h69v1h-69zM407,346h45v1h-45zM42,347h68v1h-68zM406,347h46v1h-46zM42,348h68v1h-68zM406,348h45v1h-45zM42,349h68v1h-68zM406,349h45v1h-45zM42,350h68v1h-68zM406,350h45v1h-45zM42,351h67v1h-67zM405,351h46v1h-46zM42,352h67v1h-67zM405,352h45v1h-45zM42,353h67v1h-67zM405,353h45v1h-45zM42,354h66v1h-66zM404,354h46v1h-46zM42,355h66v1h-66zM404,355h45v1h-45zM42,356h66v1h-66zM404,356h45v1h-45zM42,357h65v1h-65zM403,357h46v1h-46zM42,358h65v1h-65zM403,358h45v1h-45zM42,359h65v1h-65zM403,359h45v1h-45zM42,360h65v1h-65zM403,360h45v1h-45zM42,361h64v1h-64zM402,361h46v1h-46zM42,362h64v1h-64zM402,362h45v1h-45zM42,363h64v1h-64zM402,363h45v1h-45zM42,364h63v1h-63zM401,364h46v1h-46zM42,365h63v1h-63zM401,365h45v1h-45zM42,366h63v1h-63zM401,366h45v1h-45zM42,367h62v1h-62zM400,367h46v1h-46zM42,368h62v1h-62zM400,368h45v1h-45zM42,369h62v1h-62zM400,369h45v1h-45zM42,370h62v1h-62zM400,370h45v1h-45zM42,371h61v1h-61zM399,371h46v1h-46zM42,372h61v1h-61zM399,372h45v1h-45zM42,373h61v1h-61zM399,373h45v1h-45zM42,374h60v1h-60zM398,374h46v1h-46zM42,375h60v1h-60zM398,375h45v1h-45zM42,376h60v1h-60zM398,376h45v1h-45zM42,377h59v1h-59zM397,377h46v1h-46zM42,378h59v1h-59zM397,378h45v1h-45zM42,379h59v1h-59zM397,379h45v1h-45zM42,380h59v1h-59zM397,380h45v1h-45zM42,381h59v1h-59zM396,381h46v1h-46zM42,382h59v1h-59zM396,382h45v1h-45zM42,383h59v1h-59zM396,383h45v1h-45zM42,384h59v1h-59zM395,384h46v1h-46zM42,385h59v1h-59zM395,385h45v1h-45zM42,386h59v1h-59zM395,386h45v1h-45zM42,387h59v1h-59zM394,387h46v1h-46zM42,388h59v1h-59zM394,388h45v1h-45zM43,389h58v1h-58zM394,389h45v1h-45zM43,390h58v1h-58zM393,390h46v1h-46zM43,391h59v1h-59zM393,391h46v1h-46zM43,392h59v1h-59zM393,392h45v1h-45zM43,393h60v1h-60zM392,393h46v1h-46zM43,394h60v1h-60zM392,394h46v1h-46zM43,395h61v1h-61zM391,395h46v1h-46zM44,396h61v1h-61zM390,396h47v1h-47zM44,397h61v1h-61zM390,397h47v1h-47zM44,398h62v1h-62zM389,398h47v1h-47zM44,399h63v1h-63zM388,399h48v1h-48zM44,400h64v1h-64zM386,400h50v1h-50zM45,401h65v1h-65zM385,401h51v1h-51zM45,402h66v1h-66zM383,402h52v1h-52zM45,403h69v1h-69zM381,403h54v1h-54zM46,404h71v1h-71zM378,404h57v1h-57zM46,405h388v1h-388zM46,406h388v1h-388zM47,407h386v1h-386zM47,408h386v1h-386zM48,409h385v1h-385zM48,410h384v1h-384zM48,411h384v1h-384zM49,412h382v1h-382zM49,413h382v1h-382zM50,414h380v1h-380zM51,415h379v1h-379zM51,416h378v1h-378zM52,417h377v1h-377zM52,418h376v1h-376zM53,419h374v1h-374zM54,420h373v1h-373zM54,421h372v1h-372zM55,422h370v1h-370zM56,423h368v1h-368zM57,424h367v1h-367zM58,425h365v1h-365zM58,426h364v1h-364zM59,427h362v1h-362zM60,428h360v1h-360zM61,429h358v1h-358zM62,430h356v1h-356zM63,431h354v1h-354zM64,432h352v1h-352zM66,433h349v1h-349zM67,434h346v1h-346zM68,435h344v1h-344zM70,436h341v1h-341zM71,437h338v1h-338zM73,438h335v1h-335zM74,439h332v1h-332zM76,440h328v1h-328zM78,441h324v1h-324zM80,442h320v1h-320zM82,443h316v1h-316zM85,444h310v1h-310zM88,445h304v1h-304zM91,446h298v1h-298zM96,447h288v1h-288z"/></svg>
