<?xml version="1.0" encoding="UTF-8"?>
<svg xmlns="http://www.w3.org/2000/svg" viewBox="0 0 512 512" width="512" height="512"><path fill="#000" d="M355,32h10v1h-10zM352,33h16v1h-16zM351,34h18v1h-18zM349,35h21v1h-21zM348,36h24v1h-24zM347,37h25v1h-25zM347,38h26v1h-26zM346,39h28v1h-28zM345,40h29v1h-29zM345,41h30v1h-30zM345,42h30v1h-30zM344,43h32v1h-32zM344,44h32v1h-32zM344,45h32v1h-32zM344,46h32v1h-32zM344,47h32v1h-32zM344,48h32v1h-32zM344,49h32v1h-32zM344,50h32v1h-32zM344,51h32v1h-32zM344,52h32v1h-32zM344,53h32v1h-32zM344,54h32v1h-32zM344,55h32v1h-32zM344,56h32v1h-32zM344,57h32v1h-32zM344,58h32v1h-32zM344,59h32v1h-32zM344,60h32v1h-32zM344,61h32v1h-32zM344,62h32v1h-32zM344,63h32v1h-32zM344,64h32v1h-32zM344,65h32v1h-32zM344,66h32v1h-32zM344,67h32v1h-32zM344,68h32v1h-32zM344,69h32v1h-32zM344,70h32v1h-32zM344,71h32v1h-32zM344,72h32v1h-32zM344,73h32v1h-32zM344,74h32v1h-32zM344,75h32v1h-32zM344,76h32v1h-32zM344,77h32v1h-32zM344,78h32v1h-32zM344,79h32v1h-32zM344,80h32v1h-32zM344,81h32v1h-32zM344,82h32v1h-32zM344,83h32v1h-32zM344,84h32v1h-32zM344,85h32v1h-32zM344,86h32v1h-32zM344,87h32v1h-32zM344,88h32v1h-32zM344,89h32v1h-32zM344,90h32v1h-32zM344,91h32v1h-32zM344,92h32v1h-32zM344,93h32v1h-32zM344,94h32v1h-32zM344,95h32v1h-32zM344,96h32v1h-32zM344,97h32v1h-32zM344,98h32v1h-32zM344,99h32v1h-32zM344,100h32v1h-32zM344,101h32v1h-32zM344,102h32v1h-32zM344,103h32v1h-32zM84,104h228v1h-228zM344,104h84v1h-84zM79,105h233v1h-233zM344,105h89v1h-89zM75,106h237v1h-237zM344,106h93v1h-93zM71,107h241v1h-241zM344,107h97v1h-97zM68,108h244v1h-244zM344,108h100v1h-100zM66,109h246v1h-246zM344,109h102v1h-102zM63,110h249v1h-249zM344,110h105v1h-105zM61,111h251v1h-251zM344,111h107v1h-107zM59,112h253v1h-253zM344,112h109v1h-109zM57,113h255v1h-255zM344,113h111v1h-111zM56,114h256v1h-256zM344,114h112v1h-112zM54,115h258v1h-258zM344,115h114v1h-114zM52,116h260v1h-260zM344,116h116v1h-116zM51,117h261v1h-261zM344,117h117v1h-117zM49,118h263v1h-263zM344,118h119v1h-119zM48,119h264v1h-264zM344,119h120v1h-120zM47,120h265v1h-265zM344,120h121v1h-121zM46,121h266v1h-266zM344,121h123v1h-123zM44,122h268v1h-268zM344,122h124v1h-124zM43,123h269v1h-269zM344,123h125v1h-125zM42,124h270v1h-270zM344,124h126v1h-126zM41,125h271v1h-271zM344,125h127v1h-127zM40,126h272v1h-272zM344,126h128v1h-128zM39,127h273v1h-273zM344,127h129v1h-129zM38,128h274v1h-274zM344,128h130v1h-130zM37,129h275v1h-275zM344,129h131v1h-131zM36,130h276v1h-276zM344,130h132v1h-132zM35,131h277v1h-277zM344,131h133v1h-133zM34,132h278v1h-278zM344,132h134v1h-134zM33,133h279v1h-279zM344,133h135v1h-135zM33,134h279v1h-279zM344,134h135v1h-135zM32,135h280v1h-280zM344,135h136v1h-136zM31,136h63v1h-63zM344,136h32v1h-32zM418,136h63v1h-63zM30,137h56v1h-56zM344,137h32v1h-32zM426,137h56v1h-56zM30,138h52v1h-52zM344,138h32v1h-32zM430,138h52v1h-52zM29,139h50v1h-50zM344,139h32v1h-32zM433,139h50v1h-50zM28,140h49v1h-49zM344,140h32v1h-32zM435,140h49v1h-49zM28,141h47v1h-47zM344,141h32v1h-32zM437,141h47v1h-47zM27,142h46v1h-46zM344,142h32v1h-32zM439,142h46v1h-46zM27,143h44v1h-44zM344,143h32v1h-32zM441,143h44v1h-44zM26,144h43v1h-43zM344,144h32v1h-32zM443,144h43v1h-43zM25,145h43v1h-43zM344,145h32v1h-32zM444,145h43v1h-43zM25,146h42v1h-42zM344,146h32v1h-32zM445,146h42v1h-42zM24,147h41v1h-41zM344,147h32v1h-32zM447,147h41v1h-41zM24,148h40v1h-40zM344,148h32v1h-32zM448,148h40v1h-40zM23,149h40v1h-40zM344,149h32v1h-32zM449,149h40v1h-40zM23,150h39v1h-39zM344,150h32v1h-32zM450,150h39v1h-39zM22,151h39v1h-39zM344,151h32v1h-32zM451,151h39v1h-39zM22,152h38v1h-38zM344,152h32v1h-32zM452,152h38v1h-38zM22,153h37v1h-37zM344,153h32v1h-32zM453,153h37v1h-37zM21,154h38v1h-38zM344,154h32v1h-32zM453,154h38v1h-38zM21,155h37v1h-37zM344,155h32v1h-32zM454,155h37v1h-37zM20,156h37v1h-37zM344,156h32v1h-32zM455,156h37v1h-37zM20,157h36v1h-36zM344,157h32v1h-32zM456,157h36v1h-36zM20,158h36v1h-36zM344,158h32v1h-32zM456,158h36v1h-36zM19,159h36v1h-36zM344,159h32v1h-32zM457,159h36v1h-36zM19,160h36v1h-36zM344,160h32v1h-32zM457,160h36v1h-36zM19,161h35v1h-35zM344,161h32v1h-32zM458,161h35v1h-35zM19,162h35v1h-35zM344,162h32v1h-32zM458,162h35v1h-35zM18,163h35v1h-35zM344,163h32v1h-32zM459,163h35v1h-35zM18,164h35v1h-35zM344,164h32v1h-32zM459,164h35v1h-35zM18,165h34v1h-34zM344,165h32v1h-32zM460,165h34v1h-34zM18,166h34v1h-34zM344,166h32v1h-32zM460,166h34v1h-34zM17,167h34v1h-34zM344,167h32v1h-32zM461,167h34v1h-34zM17,168h34v1h-34zM344,168h32v1h-32zM461,168h34v1h-34zM17,169h34v1h-34zM344,169h32v1h-32zM461,169h34v1h-34zM17,170h33v1h-33zM344,170h32v1h-32zM462,170h33v1h-33zM17,171h33v1h-33zM344,171h32v1h-32zM462,171h33v1h-33zM16,172h34v1h-34zM344,172h32v1h-32zM462,172h34v1h-34zM16,173h34v1h-34zM344,173h32v1h-32zM462,173h34v1h-34zM16,174h33v1h-33zM344,174h32v1h-32zM463,174h33v1h-33zM16,175h33v1h-33zM344,175h32v1h-32zM463,175h33v1h-33zM16,176h33v1h-33zM99,176h58v1h-58zM211,176h101v1h-101zM344,176h32v1h-32zM463,176h33v1h-33zM16,177h33v1h-33zM96,177h64v1h-64zM208,177h104v1h-104zM344,177h32v1h-32zM463,177h33v1h-33zM16,178h33v1h-33zM95,178h66v1h-66zM207,178h105v1h-105zM344,178h32v1h-32zM463,178h33v1h-33zM16,179h33v1h-33zM93,179h69v1h-69zM205,179h107v1h-107zM344,179h32v1h-32zM463,179h33v1h-33zM16,180h33v1h-33zM92,180h72v1h-72zM204,180h108v1h-108zM344,180h32v1h-32zM463,180h33v1h-33zM16,181h33v1h-33zM91,181h73v1h-73zM203,181h109v1h-109zM344,181h32v1h-32zM463,181h33v1h-33zM16,182h32v1h-32zM91,182h74v1h-74zM203,182h109v1h-109zM344,182h32v1h-32zM464,182h32v1h-32zM16,183h32v1h-32zM90,183h76v1h-76zM202,183h110v1h-110zM344,183h32v1h-32zM464,183h32v1h-32zM16,184h32v1h-32zM89,184h77v1h-77zM201,184h111v1h-111zM344,184h32v1h-32zM464,184h32v1h-32zM16,185h32v1h-32zM89,185h78v1h-78zM201,185h111v1h-111zM344,185h32v1h-32zM464,185h32v1h-32zM16,186h32v1h-32zM89,186h78v1h-78zM201,186h111v1h-111zM344,186h32v1h-32zM464,186h32v1h-32zM16,187h32v1h-32zM88,187h80v1h-80zM200,187h112v1h-112zM344,187h32v1h-32zM464,187h32v1h-32zM16,188h32v1h-32zM88,188h80v1h-80zM200,188h112v1h-112zM344,188h32v1h-32zM464,188h32v1h-32zM16,189h32v1h-32zM88,189h80v1h-80zM200,189h112v1h-112zM344,189h32v1h-32zM464,189h32v1h-32zM16,190h32v1h-32zM88,190h80v1h-80zM200,190h112v1h-112zM344,190h32v1h-32zM464,190h32v1h-32zM16,191h32v1h-32zM88,191h80v1h-80zM200,191h112v1h-112zM344,191h32v1h-32zM464,191h32v1h-32zM16,192h32v1h-32zM88,192h80v1h-80zM200,192h112v1h-112zM344,192h32v1h-32zM464,192h32v1h-32zM16,193h32v1h-32zM88,193h80v1h-80zM200,193h112v1h-112zM344,193h32v1h-32zM464,193h32v1h-32zM16,194h32v1h-32zM88,194h80v1h-80zM200,194h112v1h-112zM344,194h32v1h-32zM464,194h32v1h-32zM16,195h32v1h-32zM88,195h80v1h-80zM200,195h112v1h-112zM344,195h32v1h-32zM464,195h32v1h-32zM16,196h32v1h-32zM88,196h80v1h-80zM200,196h112v1h-112zM344,196h32v1h-32zM464,196h32v1h-32zM16,197h32v1h-32zM89,197h78v1h-78zM201,197h111v1h-111zM344,197h32v1h-32zM464,197h32v1h-32zM16,198h32v1h-32zM89,198h78v1h-78zM201,198h111v1h-111zM344,198h32v1h-32zM464,198h32v1h-32zM16,199h32v1h-32zM89,199h78v1h-78zM201,199h111v1h-111zM344,199h32v1h-32zM464,199h32v1h-32zM16,200h32v1h-32zM90,200h76v1h-76zM202,200h110v1h-110zM344,200h32v1h-32zM464,200h32v1h-32zM16,201h32v1h-32zM91,201h74v1h-74zM203,201h109v1h-109zM344,201h32v1h-32zM464,201h32v1h-32zM16,202h32v1h-32zM92,202h72v1h-72zM204,202h108v1h-108zM344,202h32v1h-32zM464,202h32v1h-32zM16,203h32v1h-32zM92,203h72v1h-72zM204,203h108v1h-108zM344,203h32v1h-32zM464,203h32v1h-32zM16,204h32v1h-32zM94,204h68v1h-68zM206,204h106v1h-106zM344,204h32v1h-32zM464,204h32v1h-32zM16,205h32v1h-32zM95,205h66v1h-66zM207,205h105v1h-105zM344,205h32v1h-32zM464,205h32v1h-32zM16,206h32v1h-32zM97,206h63v1h-63zM209,206h103v1h-103zM344,206h32v1h-32zM464,206h32v1h-32zM16,207h32v1h-32zM99,207h58v1h-58zM211,207h101v1h-101zM344,207h32v1h-32zM464,207h32v1h-32zM16,208h32v1h-32zM344,208h32v1h-32zM464,208h32v1h-32zM16,209h32v1h-32zM344,209h32v1h-32zM464,209h32v1h-32zM16,210h32v1h-32zM344,210h32v1h-32zM464,210h32v1h-32zM16,211h32v1h-32zM344,211h32v1h-32zM464,211h32v1h-32zM16,212h32v1h-32zM344,212h32v1h-32zM464,212h32v1h-32zM16,213h32v1h-32zM344,213h32v1h-32zM464,213h32v1h-32zM16,214h32v1h-32zM344,214h32v1h-32zM464,214h32v1h-32zM16,215h32v1h-32zM344,215h32v1h-32zM464,215h32v1h-32zM16,216h32v1h-32zM344,216h32v1h-32zM464,216h32v1h-32zM16,217h32v1h-32zM344,217h32v1h-32zM464,217h32v1h-32zM16,218h32v1h-32zM344,218h32v1h-32zM464,218h32v1h-32zM16,219h32v1h-32zM344,219h32v1h-32zM464,219h32v1h-32zM16,220h32v1h-32zM344,220h32v1h-32zM464,220h32v1h-32zM16,221h32v1h-32zM344,221h32v1h-32zM464,221h32v1h-32zM16,222h32v1h-32zM344,222h32v1h-32zM464,222h32v1h-32zM16,223h32v1h-32zM344,223h32v1h-32zM464,223h32v1h-32zM16,224h32v1h-32zM344,224h32v1h-32zM464,224h32v1h-32zM16,225h32v1h-32zM344,225h32v1h-32zM464,225h32v1h-32zM16,226h32v1h-32zM344,226h32v1h-32zM464,226h32v1h-32zM16,227h32v1h-32zM344,227h32v1h-32zM464,227h32v1h-32zM16,228h32v1h-32zM344,228h32v1h-32zM464,228h32v1h-32zM16,229h32v1h-32zM344,229h32v1h-32zM464,229h32v1h-32zM16,230h32v1h-32zM344,230h32v1h-32zM464,230h32v1h-32zM16,231h32v1h-32zM344,231h32v1h-32zM464,231h32v1h-32zM16,232h32v1h-32zM344,232h32v1h-32zM464,232h32v1h-32zM16,233h32v1h-32zM344,233h32v1h-32zM464,233h32v1h-32zM16,234h32v1h-32zM344,234h32v1h-32zM464,234h32v1h-32zM16,235h32v1h-32zM344,235h32v1h-32zM464,235h32v1h-32zM16,236h32v1h-32zM344,236h32v1h-32zM464,236h32v1h-32zM16,237h32v1h-32zM344,237h32v1h-32zM464,237h32v1h-32zM16,238h32v1h-32zM344,238h32v1h-32zM464,238h32v1h-32zM16,239h32v1h-32zM344,239h32v1h-32zM464,239h32v1h-32zM16,240h32v1h-32zM99,240h114v1h-114zM267,240h42v1h-42zM344,240h32v1h-32zM464,240h32v1h-32zM16,241h32v1h-32zM96,241h120v1h-120zM264,241h48v1h-48zM344,241h32v1h-32zM464,241h32v1h-32zM16,242h32v1h-32zM95,242h122v1h-122zM263,242h49v1h-49zM344,242h32v1h-32zM464,242h32v1h-32zM16,243h32v1h-32zM93,243h125v1h-125zM261,243h51v1h-51zM344,243h32v1h-32zM464,243h32v1h-32zM16,244h32v1h-32zM92,244h128v1h-128zM260,244h52v1h-52zM344,244h32v1h-32zM464,244h32v1h-32zM16,245h32v1h-32zM91,245h129v1h-129zM259,245h53v1h-53zM344,245h32v1h-32zM464,245h32v1h-32zM16,246h32v1h-32zM91,246h130v1h-130zM259,246h53v1h-53zM344,246h32v1h-32zM464,246h32v1h-32zM16,247h32v1h-32zM90,247h132v1h-132zM258,247h54v1h-54zM344,247h32v1h-32zM464,247h32v1h-32zM16,248h32v1h-32zM89,248h133v1h-133zM257,248h55v1h-55zM344,248h32v1h-32zM464,248h32v1h-32zM16,249h32v1h-32zM89,249h134v1h-134zM257,249h55v1h-55zM344,249h32v1h-32zM464,249h32v1h-32zM16,250h32v1h-32zM89,250h134v1h-134zM257,250h55v1h-55zM344,250h32v1h-32zM464,250h32v1h-32zM16,251h32v1h-32zM88,251h136v1h-136zM256,251h56v1h-56zM344,251h32v1h-32zM464,251h32v1h-32zM16,252h32v1h-32zM88,252h136v1h-136zM256,252h56v1h-56zM344,252h32v1h-32zM464,252h32v1h-32zM16,253h32v1h-32zM88,253h136v1h-136zM256,253h56v1h-56zM344,253h32v1h-32zM464,253h32v1h-32zM16,254h32v1h-32zM88,254h136v1h-136zM256,254h56v1h-56zM344,254h32v1h-32zM464,254h32v1h-32zM16,255h32v1h-32zM88,255h136v1h-136zM256,255h56v1h-56zM344,255h32v1h-32zM464,255h32v1h-32zM16,256h32v1h-32zM88,256h136v1h-136zM256,256h56v1h-56zM344,256h32v1h-32zM464,256h32v1h-32zM16,257h32v1h-32zM88,257h136v1h-136zM256,257h56v1h-56zM344,257h32v1h-32zM464,257h32v1h-32zM16,258h32v1h-32zM88,258h136v1h-136zM256,258h56v1h-56zM344,258h32v1h-32zM464,258h32v1h-32zM16,259h32v1h-32zM88,259h136v1h-136zM256,259h56v1h-56zM344,259h32v1h-32zM464,259h32v1h-32zM16,260h32v1h-32zM88,260h136v1h-136zM256,260h56v1h-56zM344,260h32v1h-32zM464,260h32v1h-32zM16,261h32v1h-32zM89,261h134v1h-134zM257,261h55v1h-55zM344,261h32v1h-32zM464,261h32v1h-32zM16,262h32v1h-32zM89,262h134v1h-134zM257,262h55v1h-55zM344,262h32v1h-32zM464,262h32v1h-32zM16,263h32v1h-32zM89,263h134v1h-134zM257,263h55v1h-55zM344,263h32v1h-32zM464,263h32v1h-32zM16,264h32v1h-32zM90,264h132v1h-132zM258,264h54v1h-54zM344,264h32v1h-32zM464,264h32v1h-32zM16,265h32v1h-32zM91,265h130v1h-130zM259,265h53v1h-53zM344,265h32v1h-32zM464,265h32v1h-32zM16,266h32v1h-32zM92,266h128v1h-128zM260,266h52v1h-52zM344,266h32v1h-32zM464,266h32v1h-32zM16,267h32v1h-32zM92,267h128v1h-128zM260,267h52v1h-52zM344,267h32v1h-32zM464,267h32v1h-32zM16,268h32v1h-32zM94,268h124v1h-124zM262,268h50v1h-50zM344,268h32v1h-32zM464,268h32v1h-32zM16,269h32v1h-32zM95,269h122v1h-122zM263,269h49v1h-49zM344,269h32v1h-32zM464,269h32v1h-32zM16,270h32v1h-32zM97,270h119v1h-119zM265,270h47v1h-47zM344,270h32v1h-32zM464,270h32v1h-32zM16,271h32v1h-32zM99,271h114v1h-114zM267,271h42v1h-42zM344,271h32v1h-32zM464,271h32v1h-32zM16,272h32v1h-32zM344,272h32v1h-32zM464,272h32v1h-32zM16,273h32v1h-32zM344,273h32v1h-32zM464,273h32v1h-32zM16,274h32v1h-32zM344,274h32v1h-32zM464,274h32v1h-32zM16,275h32v1h-32zM344,275h32v1h-32zM464,275h32v1h-32zM16,276h32v1h-32zM344,276h32v1h-32zM464,276h32v1h-32zM16,277h32v1h-32zM344,277h32v1h-32zM464,277h32v1h-32zM16,278h32v1h-32zM344,278h32v1h-32zM464,278h32v1h-32zM16,279h32v1h-32zM344,279h32v1h-32zM464,279h32v1h-32zM16,280h32v1h-32zM344,280h32v1h-32zM464,280h32v1h-32zM16,281h32v1h-32zM344,281h32v1h-32zM464,281h32v1h-32zM16,282h32v1h-32zM344,282h32v1h-32zM464,282h32v1h-32zM16,283h32v1h-32zM344,283h32v1h-32zM464,283h32v1h-32zM16,284h32v1h-32zM344,284h32v1h-32zM464,284h32v1h-32zM16,285h32v1h-32zM344,285h32v1h-32zM464,285h32v1h-32zM16,286h32v1h-32zM344,286h32v1h-32zM464,286h32v1h-32zM16,287h32v1h-32zM344,287h32v1h-32zM464,287h32v1h-32zM16,288h32v1h-32zM344,288h32v1h-32zM464,288h32v1h-32zM16,289h32v1h-32zM344,289h32v1h-32zM464,289h32v1h-32zM16,290h32v1h-32zM344,290h32v1h-32zM464,290h32v1h-32zM16,291h32v1h-32zM344,291h32v1h-32zM464,291h32v1h-32zM16,292h32v1h-32zM344,292h32v1h-32zM464,292h32v1h-32zM16,293h32v1h-32zM344,293h32v1h-32zM464,293h32v1h-32zM16,294h32v1h-32zM344,294h32v1h-32zM464,294h32v1h-32zM16,295h32v1h-32zM344,295h32v1h-32zM464,295h32v1h-32zM16,296h32v1h-32zM344,296h32v1h-32zM464,296h32v1h-32zM16,297h32v1h-32zM344,297h32v1h-32zM464,297h32v1h-32zM16,298h32v1h-32zM344,298h32v1h-32zM464,298h32v1h-32zM16,299h32v1h-32zM344,299h32v1h-32zM464,299h32v1h-32zM16,300h32v1h-32zM344,300h32v1h-32zM464,300h32v1h-32zM16,301h32v1h-32zM344,301h32v1h-32zM464,301h32v1h-32zM16,302h32v1h-32zM344,302h32v1h-32zM464,302h32v1h-32zM16,303h32v1h-32zM344,303h32v1h-32zM464,303h32v1h-32zM16,304h32v1h-32zM99,304h154v1h-154zM344,304h32v1h-32zM464,304h32v1h-32zM16,305h32v1h-32zM96,305h160v1h-160zM344,305h32v1h-32zM464,305h32v1h-32zM16,306h32v1h-32zM95,306h162v1h-162zM344,306h32v1h-32zM464,306h32v1h-32zM16,307h32v1h-32zM93,307h165v1h-165zM344,307h32v1h-32zM464,307h32v1h-32zM16,308h32v1h-32zM92,308h168v1h-168zM344,308h32v1h-32zM464,308h32v1h-32zM16,309h32v1h-32zM91,309h169v1h-169zM344,309h32v1h-32zM464,309h32v1h-32zM16,310h32v1h-32zM91,310h170v1h-170zM344,310h32v1h-32zM464,310h32v1h-32zM16,311h32v1h-32zM90,311h172v1h-172zM344,311h32v1h-32zM464,311h32v1h-32zM16,312h32v1h-32zM89,312h173v1h-173zM344,312h32v1h-32zM464,312h32v1h-32zM16,313h32v1h-32zM89,313h174v1h-174zM344,313h32v1h-32zM464,313h32v1h-32zM16,314h32v1h-32zM89,314h174v1h-174zM344,314h32v1h-32zM464,314h32v1h-32zM16,315h32v1h-32zM88,315h176v1h-176zM344,315h32v1h-32zM464,315h32v1h-32zM16,316h32v1h-32zM88,316h176v1h-176zM344,316h32v1h-32zM464,316h32v1h-32zM16,317h32v1h-32zM88,317h176v1h-176zM344,317h32v1h-32zM464,317h32v1h-32zM16,318h32v1h-32zM88,318h176v1h-176zM344,318h32v1h-32zM464,318h32v1h-32zM16,319h32v1h-32zM88,319h176v1h-176zM344,319h32v1h-32zM464,319h32v1h-32zM16,320h32v1h-32zM88,320h176v1h-176zM344,320h32v1h-32zM464,320h32v1h-32zM16,321h32v1h-32zM88,321h176v1h-176zM344,321h32v1h-32zM464,321h32v1h-32zM16,322h32v1h-32zM88,322h176v1h-176zM344,322h32v1h-32zM464,322h32v1h-32zM16,323h32v1h-32zM88,323h176v1h-176zM344,323h32v1h-32zM464,323h32v1h-32zM16,324h32v1h-32zM88,324h176v1h-176zM344,324h32v1h-32zM464,324h32v1h-32zM16,325h32v1h-32zM89,325h174v1h-174zM344,325h32v1h-32zM464,325h32v1h-32zM16,326h32v1h-32zM89,326h174v1h-174zM344,326h32v1h-32zM464,326h32v1h-32zM16,327h32v1h-32zM89,327h174v1h-174zM344,327h32v1h-32zM464,327h32v1h-32zM16,328h32v1h-32zM90,328h172v1h-172zM344,328h32v1h-32zM464,328h32v1h-32zM16,329h32v1h-32zM91,329h170v1h-170zM344,329h32v1h-32zM464,329h32v1h-32zM16,330h33v1h-33zM92,330h168v1h-168zM344,330h32v1h-32zM463,330h33v1h-33zM16,331h33v1h-33zM92,331h168v1h-168zM344,331h32v1h-32zM463,331h33v1h-33zM16,332h33v1h-33zM94,332h164v1h-164zM344,332h32v1h-32zM463,332h33v1h-33zM16,333h33v1h-33zM95,333h162v1h-162zM344,333h32v1h-32zM463,333h33v1h-33zM16,334h33v1h-33zM97,334h159v1h-159zM344,334h32v1h-32zM463,334h33v1h-33zM16,335h33v1h-33zM99,335h154v1h-154zM344,335h32v1h-32zM463,335h33v1h-33zM16,336h33v1h-33zM344,336h32v1h-32zM463,336h33v1h-33zM16,337h33v1h-33zM344,337h32v1h-32zM463,337h33v1h-33zM16,338h34v1h-34zM344,338h32v1h-32zM462,338h34v1h-34zM16,339h34v1h-34zM344,339h32v1h-32zM462,339h34v1h-34zM17,340h33v1h-33zM344,340h32v1h-32zM462,340h33v1h-33zM17,341h33v1h-33zM344,341h32v1h-32zM462,341h33v1h-33zM17,342h34v1h-34zM344,342h32v1h-32zM461,342h34v1h-34zM17,343h34v1h-34zM344,343h32v1h-32zM461,343h34v1h-34zM17,344h34v1h-34zM344,344h32v1h-32zM461,344h34v1h-34zM18,345h34v1h-34zM344,345h32v1h-32zM460,345h34v1h-34zM18,346h34v1h-34zM344,346h32v1h-32zM460,346h34v1h-34zM18,347h35v1h-35zM344,347h32v1h-32zM459,347h35v1h-35zM18,348h35v1h-35zM344,348h32v1h-32zM459,348h35v1h-35zM19,349h35v1h-35zM344,349h32v1h-32zM458,349h35v1h-35zM19,350h35v1h-35zM344,350h32v1h-32zM458,350h35v1h-35zM19,351h36v1h-36zM344,351h32v1h-32zM457,351h36v1h-36zM19,352h36v1h-36zM344,352h32v1h-32zM457,352h36v1h-36zM20,353h36v1h-36zM344,353h32v1h-32zM456,353h36v1h-36zM20,354h36v1h-36zM344,354h32v1h-32zM456,354h36v1h-36zM20,355h37v1h-37zM344,355h32v1h-32zM455,355h37v1h-37zM21,356h37v1h-37zM344,356h32v1h-32zM454,356h37v1h-37zM21,357h38v1h-38zM344,357h32v1h-32zM453,357h38v1h-38zM22,358h37v1h-37zM344,358h32v1h-32zM453,358h37v1h-37zM22,359h38v1h-38zM344,359h32v1h-32zM452,359h38v1h-38zM23,360h38v1h-38zM344,360h32v1h-32zM451,360h38v1h-38zM23,361h39v1h-39zM344,361h32v1h-32zM450,361h39v1h-39zM23,362h40v1h-40zM344,362h32v1h-32zM449,362h40v1h-40zM24,363h40v1h-40zM344,363h32v1h-32zM448,363h40v1h-40zM24,364h41v1h-41zM344,364h32v1h-32zM447,364h41v1h-41zM25,365h42v1h-42zM344,365h32v1h-32zM445,365h42v1h-42zM25,366h43v1h-43zM344,366h32v1h-32zM444,366h43v1h-43zM26,367h43v1h-43zM344,367h32v1h-32zM443,367h43v1h-43zM27,368h44v1h-44zM344,368h32v1h-32zM441,368h44v1h-44zM27,369h46v1h-46zM344,369h32v1h-32zM439,369h46v1h-46zM28,370h47v1h-47zM344,370h32v1h-32zM437,370h47v1h-47zM28,371h49v1h-49zM344,371h32v1h-32zM435,371h49v1h-49zM29,372h50v1h-50zM344,372h32v1h-32zM433,372h50v1h-50zM30,373h52v1h-52zM344,373h32v1h-32zM430,373h52v1h-52zM30,374h56v1h-56zM344,374h32v1h-32zM426,374h56v1h-56zM31,375h63v1h-63zM344,375h32v1h-32zM418,375h63v1h-63zM32,376h280v1h-280zM344,376h136v1h-136zM33,377h279v1h-279zM344,377h135v1h-135zM33,378h279v1h-279zM344,378h134v1h-134zM34,379h278v1h-278zM344,379h134v1h-134zM35,380h277v1h-277zM344,380h133v1h-133zM36,381h276v1h-276zM344,381h132v1h-132zM37,382h275v1h-275zM344,382h131v1h-131zM38,383h274v1h-274zM344,383h130v1h-130zM39,384h273v1h-273zM344,384h129v1h-129zM40,385h272v1h-272zM344,385h128v1h-128zM41,386h271v1h-271zM344,386h127v1h-127zM42,387h270v1h-270zM344,387h126v1h-126zM43,388h269v1h-269zM344,388h125v1h-125zM44,389h268v1h-268zM344,389h124v1h-124zM46,390h266v1h-266zM344,390h123v1h-123zM47,391h265v1h-265zM344,391h121v1h-121zM48,392h264v1h-264zM344,392h120v1h-120zM49,393h263v1h-263zM344,393h119v1h-119zM51,394h261v1h-261zM344,394h117v1h-117zM52,395h260v1h-260zM344,395h116v1h-116zM54,396h258v1h-258zM344,396h114v1h-114zM56,397h256v1h-256zM344,397h112v1h-112zM57,398h255v1h-255zM344,398h111v1h-111zM59,399h253v1h-253zM344,399h109v1h-109zM61,400h251v1h-251zM344,400h107v1h-107zM64,401h248v1h-248zM344,401h104v1h-104zM66,402h246v1h-246zM344,402h102v1h-102zM68,403h244v1h-244zM344,403h100v1h-100zM71,404h241v1h-241zM344,404h97v1h-97zM75,405h237v1h-237zM344,405h93v1h-93zM79,406h233v1h-233zM344,406h89v1h-89zM84,407h228v1h-228zM344,407h84v1h-84zM344,408h32v1h-32zM344,409h32v1h-32zM344,410h32v1h-32zM344,411h32v1h-32zM344,412h32v1h-32zM344,413h32v1h-32zM344,414h32v1h-32zM344,415h32v1h-32zM344,416h32v1h-32zM344,417h32v1h-32zM344,418h32v1h-32zM344,419h32v1h-32zM344,420h32v1h-32zM344,421h32v1h-32zM344,422h32v1h-32zM344,423h32v1h-32zM344,424h32v1h-32zM344,425h32v1h-32zM344,426h32v1h-32zM344,427h32v1h-32zM344,428h32v1h-32zM344,429h32v1h-32zM344,430h32v1h-32zM344,431h32v1h-32zM344,432h32v1h-32zM344,433h32v1h-32zM344,434h32v1h-32zM344,435h32v1h-32zM344,436h32v1h-32zM344,437h32v1h-32zM344,438h32v1h-32zM344,439h32v1h-32zM344,440h32v1h-32zM344,441h32v1h-32zM344,442h32v1h-32zM344,443h32v1h-32zM344,444h32v1h-32zM344,445h32v1h-32zM344,446h32v1h-32zM344,447h32v1h-32zM344,448h32v1h-32zM344,449h32v1h-32zM344,450h32v1h-32zM344,451h32v1h-32zM344,452h32v1h-32zM344,453h32v1h-32zM344,454h32v1h-32zM344,455h32v1h-32zM344,456h32v1h-32zM344,457h32v1h-32zM344,458h32v1h-32zM344,459h32v1h-32zM344,460h32v1h-32zM344,461h32v1h-32zM344,462h32v1h-32zM344,463h32v1h-32zM344,464h32v1h-32zM344,465h32v1h-32zM344,466h32v1h-32zM344,467h32v1h-32zM344,468h32v1h-32zM345,469h30v1h-30zM345,470h30v1h-30zM345,471h30v1h-30zM346,472h28v1h-28zM347,473h26v1h-26zM348,474h24v1h-24zM348,475h24v1h-24zM350,476h20v1h-20zM351,477h18v1h-18zM353,478h15v1h-15zM355,479h10v1h-10z"/></svg>