<?xml version="1.0" encoding="UTF-8"?>
<svg xmlns="http://www.w3.org/2000/svg" viewBox="0 0 512 512" width="512" height="512"><path fill="#000" d="M125,48h29v1h-29zM358,48h29v1h-29zM118,49h43v1h-43zM351,49h43v1h-43zM113,50h53v1h-53zM346,50h53v1h-53zM109,51h61v1h-61zM342,51h61v1h-61zM105,52h69v1h-69zM339,52h68v1h-68zM102,53h75v1h-75zM335,53h75v1h-75zM99,54h81v1h-81zM332,54h81v1h-81zM96,55h86v1h-86zM330,55h86v1h-86zM94,56h91v1h-91zM327,56h91v1h-91zM91,57h96v1h-96zM325,57h96v1h-96zM89,58h101v1h-101zM322,58h101v1h-101zM87,59h105v1h-105zM320,59h105v1h-105zM85,60h109v1h-109zM318,60h109v1h-109zM83,61h113v1h-113zM316,61h113v1h-113zM81,62h117v1h-117zM314,62h117v1h-117zM79,63h121v1h-121zM312,63h121v1h-121zM78,64h123v1h-123zM311,64h124v1h-124zM76,65h127v1h-127zM309,65h127v1h-127zM74,66h131v1h-131zM307,66h131v1h-131zM73,67h133v1h-133zM306,67h133v1h-133zM71,68h137v1h-137zM304,68h137v1h-137zM70,69h139v1h-139zM303,69h139v1h-139zM68,70h143v1h-143zM301,70h143v1h-143zM67,71h145v1h-145zM300,71h145v1h-145zM66,72h147v1h-147zM299,72h147v1h-147zM64,73h151v1h-151zM297,73h151v1h-151zM63,74h153v1h-153zM296,74h153v1h-153zM62,75h155v1h-155zM295,75h155v1h-155zM61,76h157v1h-157zM294,76h157v1h-157zM59,77h160v1h-160zM293,77h160v1h-160zM58,78h163v1h-163zM291,78h163v1h-163zM57,79h165v1h-165zM290,79h165v1h-165zM56,80h79v1h-79zM144,80h79v1h-79zM289,80h79v1h-79zM377,80h79v1h-79zM55,81h70v1h-70zM153,81h71v1h-71zM288,81h71v1h-71zM387,81h70v1h-70zM54,82h66v1h-66zM159,82h66v1h-66zM287,82h66v1h-66zM392,82h66v1h-66zM53,83h63v1h-63zM163,83h63v1h-63zM286,83h63v1h-63zM396,83h63v1h-63zM52,84h61v1h-61zM166,84h61v1h-61zM285,84h61v1h-61zM399,84h61v1h-61zM51,85h59v1h-59zM169,85h59v1h-59zM284,85h59v1h-59zM402,85h59v1h-59zM50,86h57v1h-57zM172,86h57v1h-57zM283,86h57v1h-57zM405,86h57v1h-57zM49,87h55v1h-55zM174,87h56v1h-56zM282,87h56v1h-56zM408,87h55v1h-55zM48,88h54v1h-54zM177,88h54v1h-54zM281,88h54v1h-54zM410,88h54v1h-54zM47,89h53v1h-53zM179,89h53v1h-53zM280,89h53v1h-53zM412,89h53v1h-53zM46,90h52v1h-52zM181,90h52v1h-52zM279,90h52v1h-52zM414,90h52v1h-52zM46,91h50v1h-50zM183,91h51v1h-51zM278,91h51v1h-51zM416,91h50v1h-50zM45,92h49v1h-49zM184,92h51v1h-51zM277,92h51v1h-51zM418,92h49v1h-49zM44,93h49v1h-49zM186,93h50v1h-50zM276,93h50v1h-50zM419,93h49v1h-49zM43,94h48v1h-48zM188,94h49v1h-49zM275,94h49v1h-49zM421,94h48v1h-48zM42,95h48v1h-48zM189,95h49v1h-49zM274,95h49v1h-49zM422,95h48v1h-48zM42,96h46v1h-46zM191,96h48v1h-48zM273,96h48v1h-48zM424,96h46v1h-46zM41,97h46v1h-46zM192,97h48v1h-48zM272,97h48v1h-48zM425,97h46v1h-46zM40,98h45v1h-45zM193,98h48v1h-48zM271,98h48v1h-48zM427,98h45v1h-45zM39,99h45v1h-45zM195,99h47v1h-47zM270,99h47v1h-47zM428,99h45v1h-45zM39,100h44v1h-44zM196,100h47v1h-47zM269,100h47v1h-47zM429,100h44v1h-44zM38,101h44v1h-44zM197,101h47v1h-47zM268,101h47v1h-47zM430,101h44v1h-44zM37,102h44v1h-44zM198,102h47v1h-47zM268,102h46v1h-46zM431,102h44v1h-44zM37,103h42v1h-42zM199,103h46v1h-46zM267,103h46v1h-46zM433,103h42v1h-42zM36,104h42v1h-42zM201,104h45v1h-45zM266,104h45v1h-45zM434,104h42v1h-42zM35,105h42v1h-42zM202,105h45v1h-45zM265,105h45v1h-45zM435,105h42v1h-42zM35,106h41v1h-41zM203,106h45v1h-45zM264,106h45v1h-45zM436,106h41v1h-41zM34,107h41v1h-41zM204,107h45v1h-45zM263,107h45v1h-45zM437,107h41v1h-41zM33,108h41v1h-41zM205,108h45v1h-45zM262,108h45v1h-45zM438,108h41v1h-41zM33,109h40v1h-40zM206,109h45v1h-45zM261,109h45v1h-45zM439,109h40v1h-40zM32,110h40v1h-40zM207,110h45v1h-45zM260,110h45v1h-45zM440,110h40v1h-40zM32,111h39v1h-39zM208,111h45v1h-45zM259,111h45v1h-45zM441,111h39v1h-39zM31,112h40v1h-40zM209,112h95v1h-95zM441,112h40v1h-40zM31,113h39v1h-39zM210,113h93v1h-93zM442,113h39v1h-39zM30,114h39v1h-39zM210,114h92v1h-92zM443,114h39v1h-39zM30,115h38v1h-38zM211,115h90v1h-90zM444,115h38v1h-38zM29,116h38v1h-38zM212,116h88v1h-88zM445,116h38v1h-38zM29,117h38v1h-38zM213,117h86v1h-86zM445,117h38v1h-38zM28,118h38v1h-38zM214,118h84v1h-84zM446,118h38v1h-38zM28,119h37v1h-37zM215,119h82v1h-82zM447,119h37v1h-37zM27,120h38v1h-38zM216,120h80v1h-80zM447,120h38v1h-38zM27,121h37v1h-37zM217,121h78v1h-78zM448,121h37v1h-37zM26,122h37v1h-37zM218,122h76v1h-76zM449,122h37v1h-37zM26,123h37v1h-37zM219,123h74v1h-74zM449,123h37v1h-37zM25,124h37v1h-37zM220,124h72v1h-72zM450,124h37v1h-37zM25,125h36v1h-36zM221,125h70v1h-70zM451,125h36v1h-36zM25,126h36v1h-36zM222,126h68v1h-68zM451,126h36v1h-36zM24,127h36v1h-36zM223,127h66v1h-66zM452,127h36v1h-36zM24,128h36v1h-36zM224,128h64v1h-64zM452,128h36v1h-36zM23,129h36v1h-36zM225,129h62v1h-62zM453,129h36v1h-36zM23,130h36v1h-36zM226,130h60v1h-60zM453,130h36v1h-36zM23,131h35v1h-35zM227,131h58v1h-58zM454,131h35v1h-35zM22,132h36v1h-36zM228,132h56v1h-56zM454,132h36v1h-36zM22,133h35v1h-35zM229,133h54v1h-54zM455,133h35v1h-35zM22,134h35v1h-35zM230,134h52v1h-52zM455,134h35v1h-35zM21,135h35v1h-35zM231,135h50v1h-50zM456,135h35v1h-35zM21,136h35v1h-35zM232,136h48v1h-48zM456,136h35v1h-35zM21,137h34v1h-34zM233,137h46v1h-46zM457,137h34v1h-34zM20,138h35v1h-35zM234,138h44v1h-44zM457,138h34v1h-34zM20,139h35v1h-35zM235,139h42v1h-42zM457,139h35v1h-35zM20,140h34v1h-34zM236,140h40v1h-40zM458,140h34v1h-34zM20,141h34v1h-34zM237,141h38v1h-38zM458,141h34v1h-34zM19,142h35v1h-35zM238,142h36v1h-36zM458,142h35v1h-35zM19,143h34v1h-34zM239,143h34v1h-34zM459,143h34v1h-34zM19,144h34v1h-34zM240,144h32v1h-32zM459,144h34v1h-34zM19,145h34v1h-34zM241,145h30v1h-30zM459,145h34v1h-34zM19,146h33v1h-33zM242,146h28v1h-28zM460,146h33v1h-33zM18,147h34v1h-34zM243,147h26v1h-26zM460,147h34v1h-34zM18,148h34v1h-34zM244,148h24v1h-24zM460,148h34v1h-34zM18,149h33v1h-33zM245,149h22v1h-22zM461,149h33v1h-33zM18,150h33v1h-33zM246,150h20v1h-20zM461,150h33v1h-33zM18,151h33v1h-33zM247,151h18v1h-18zM461,151h33v1h-33zM17,152h34v1h-34zM249,152h14v1h-14zM461,152h34v1h-34zM17,153h34v1h-34zM252,153h8v1h-8zM461,153h34v1h-34zM17,154h33v1h-33zM462,154h33v1h-33zM17,155h33v1h-33zM462,155h33v1h-33zM17,156h33v1h-33zM462,156h33v1h-33zM17,157h33v1h-33zM462,157h33v1h-33zM17,158h33v1h-33zM462,158h33v1h-33zM16,159h33v1h-33zM463,159h33v1h-33zM16,160h33v1h-33zM463,160h33v1h-33zM16,161h33v1h-33zM463,161h33v1h-33zM16,162h33v1h-33zM463,162h33v1h-33zM16,163h33v1h-33zM463,163h33v1h-33zM16,164h33v1h-33zM463,164h33v1h-33zM16,165h33v1h-33zM463,165h33v1h-33zM16,166h33v1h-33zM463,166h33v1h-33zM16,167h33v1h-33zM463,167h33v1h-33zM16,168h33v1h-33zM463,168h33v1h-33zM16,169h32v1h-32zM464,169h32v1h-32zM16,170h32v1h-32zM464,170h32v1h-32zM16,171h32v1h-32zM464,171h32v1h-32zM16,172h32v1h-32zM464,172h32v1h-32zM16,173h32v1h-32zM464,173h32v1h-32zM16,174h32v1h-32zM464,174h32v1h-32zM16,175h32v1h-32zM464,175h32v1h-32zM16,176h32v1h-32zM464,176h32v1h-32zM16,177h32v1h-32zM464,177h32v1h-32zM16,178h33v1h-33zM463,178h33v1h-33zM16,179h33v1h-33zM463,179h33v1h-33zM16,180h33v1h-33zM463,180h33v1h-33zM16,181h33v1h-33zM463,181h33v1h-33zM16,182h33v1h-33zM463,182h33v1h-33zM16,183h33v1h-33zM463,183h33v1h-33zM16,184h33v1h-33zM463,184h33v1h-33zM16,185h33v1h-33zM463,185h33v1h-33zM16,186h33v1h-33zM463,186h33v1h-33zM16,187h33v1h-33zM463,187h33v1h-33zM17,188h33v1h-33zM462,188h33v1h-33zM17,189h33v1h-33zM462,189h33v1h-33zM17,190h33v1h-33zM462,190h33v1h-33zM17,191h33v1h-33zM462,191h33v1h-33zM17,192h33v1h-33zM462,192h33v1h-33zM17,193h34v1h-34zM461,193h34v1h-34zM17,194h34v1h-34zM461,194h34v1h-34zM18,195h33v1h-33zM461,195h33v1h-33zM18,196h33v1h-33zM461,196h33v1h-33zM18,197h33v1h-33zM461,197h33v1h-33zM18,198h34v1h-34zM460,198h34v1h-34zM18,199h34v1h-34zM460,199h34v1h-34zM19,200h33v1h-33zM460,200h33v1h-33zM19,201h34v1h-34zM459,201h34v1h-34zM19,202h34v1h-34zM459,202h34v1h-34zM19,203h34v1h-34zM459,203h34v1h-34zM19,204h35v1h-35zM458,204h35v1h-35zM20,205h34v1h-34zM458,205h34v1h-34zM20,206h34v1h-34zM458,206h34v1h-34zM20,207h35v1h-35zM457,207h35v1h-35zM21,208h34v1h-34zM457,208h34v1h-34zM21,209h34v1h-34zM457,209h34v1h-34zM21,210h35v1h-35zM456,210h35v1h-35zM21,211h35v1h-35zM456,211h35v1h-35zM22,212h35v1h-35zM455,212h35v1h-35zM22,213h35v1h-35zM455,213h35v1h-35zM22,214h36v1h-36zM454,214h36v1h-36zM23,215h35v1h-35zM454,215h35v1h-35zM23,216h36v1h-36zM453,216h36v1h-36zM23,217h36v1h-36zM453,217h36v1h-36zM24,218h36v1h-36zM452,218h36v1h-36zM24,219h36v1h-36zM452,219h36v1h-36zM25,220h36v1h-36zM451,220h36v1h-36zM25,221h36v1h-36zM451,221h36v1h-36zM25,222h37v1h-37zM450,222h37v1h-37zM26,223h37v1h-37zM449,223h37v1h-37zM26,224h37v1h-37zM449,224h37v1h-37zM27,225h37v1h-37zM448,225h37v1h-37zM27,226h38v1h-38zM447,226h38v1h-38zM28,227h37v1h-37zM447,227h37v1h-37zM28,228h38v1h-38zM446,228h38v1h-38zM29,229h38v1h-38zM445,229h38v1h-38zM29,230h38v1h-38zM445,230h38v1h-38zM30,231h38v1h-38zM444,231h38v1h-38zM30,232h39v1h-39zM443,232h39v1h-39zM31,233h39v1h-39zM442,233h39v1h-39zM31,234h40v1h-40zM441,234h40v1h-40zM32,235h39v1h-39zM441,235h39v1h-39zM32,236h40v1h-40zM440,236h40v1h-40zM33,237h40v1h-40zM439,237h40v1h-40zM33,238h41v1h-41zM438,238h41v1h-41zM34,239h41v1h-41zM437,239h41v1h-41zM35,240h41v1h-41zM436,240h41v1h-41zM35,241h42v1h-42zM435,241h42v1h-42zM36,242h42v1h-42zM434,242h42v1h-42zM37,243h42v1h-42zM433,243h42v1h-42zM37,244h43v1h-43zM432,244h43v1h-43zM38,245h43v1h-43zM431,245h43v1h-43zM39,246h43v1h-43zM430,246h43v1h-43zM39,247h44v1h-44zM429,247h44v1h-44zM40,248h44v1h-44zM428,248h44v1h-44zM41,249h44v1h-44zM427,249h44v1h-44zM42,250h44v1h-44zM426,250h44v1h-44zM42,251h45v1h-45zM425,251h45v1h-45zM43,252h45v1h-45zM424,252h45v1h-45zM44,253h45v1h-45zM423,253h45v1h-45zM45,254h45v1h-45zM422,254h45v1h-45zM46,255h45v1h-45zM421,255h45v1h-45zM46,256h46v1h-46zM420,256h46v1h-46zM47,257h46v1h-46zM419,257h46v1h-46zM48,258h46v1h-46zM418,258h46v1h-46zM49,259h46v1h-46zM417,259h46v1h-46zM50,260h46v1h-46zM416,260h46v1h-46zM51,261h46v1h-46zM415,261h46v1h-46zM52,262h46v1h-46zM414,262h46v1h-46zM53,263h46v1h-46zM413,263h46v1h-46zM54,264h46v1h-46zM412,264h46v1h-46zM55,265h46v1h-46zM411,265h46v1h-46zM56,266h46v1h-46zM410,266h46v1h-46zM57,267h46v1h-46zM409,267h46v1h-46zM58,268h46v1h-46zM409,268h45v1h-45zM59,269h46v1h-46zM408,269h45v1h-45zM60,270h45v1h-45zM407,270h45v1h-45zM61,271h45v1h-45zM406,271h45v1h-45zM62,272h45v1h-45zM405,272h45v1h-45zM63,273h45v1h-45zM404,273h45v1h-45zM64,274h45v1h-45zM403,274h45v1h-45zM65,275h45v1h-45zM402,275h45v1h-45zM66,276h45v1h-45zM401,276h45v1h-45zM67,277h45v1h-45zM400,277h45v1h-45zM68,278h45v1h-45zM399,278h45v1h-45zM69,279h45v1h-45zM398,279h46v1h-46zM69,280h46v1h-46zM397,280h46v1h-46zM70,281h46v1h-46zM396,281h46v1h-46zM71,282h46v1h-46zM395,282h46v1h-46zM72,283h46v1h-46zM394,283h46v1h-46zM73,284h46v1h-46zM393,284h46v1h-46zM74,285h46v1h-46zM392,285h46v1h-46zM75,286h46v1h-46zM391,286h46v1h-46zM76,287h46v1h-46zM390,287h46v1h-46zM77,288h46v1h-46zM389,288h46v1h-46zM78,289h46v1h-46zM388,289h46v1h-46zM79,290h46v1h-46zM387,290h46v1h-46zM80,291h46v1h-46zM386,291h46v1h-46zM81,292h46v1h-46zM385,292h46v1h-46zM82,293h46v1h-46zM384,293h46v1h-46zM83,294h46v1h-46zM383,294h46v1h-46zM84,295h46v1h-46zM382,295h46v1h-46zM85,296h46v1h-46zM381,296h46v1h-46zM86,297h46v1h-46zM380,297h46v1h-46zM87,298h46v1h-46zM379,298h46v1h-46zM88,299h46v1h-46zM378,299h46v1h-46zM89,300h46v1h-46zM377,300h46v1h-46zM90,301h46v1h-46zM376,301h46v1h-46zM91,302h46v1h-46zM375,302h46v1h-46zM92,303h46v1h-46zM374,303h46v1h-46zM93,304h46v1h-46zM373,304h46v1h-46zM94,305h46v1h-46zM372,305h46v1h-46zM95,306h46v1h-46zM371,306h46v1h-46zM96,307h46v1h-46zM370,307h46v1h-46zM97,308h46v1h-46zM369,308h46v1h-46zM98,309h46v1h-46zM368,309h46v1h-46zM99,310h46v1h-46zM367,310h46v1h-46zM100,311h46v1h-46zM366,311h46v1h-46zM101,312h46v1h-46zM366,312h45v1h-45zM102,313h45v1h-45zM365,313h45v1h-45zM103,314h45v1h-45zM364,314h45v1h-45zM104,315h45v1h-45zM363,315h45v1h-45zM105,316h45v1h-45zM362,316h45v1h-45zM106,317h45v1h-45zM361,317h45v1h-45zM107,318h45v1h-45zM360,318h45v1h-45zM108,319h45v1h-45zM359,319h45v1h-45zM109,320h45v1h-45zM358,320h45v1h-45zM110,321h45v1h-45zM357,321h45v1h-45zM111,322h45v1h-45zM356,322h46v1h-46zM112,323h45v1h-45zM355,323h46v1h-46zM112,324h46v1h-46zM354,324h46v1h-46zM113,325h46v1h-46zM353,325h46v1h-46zM114,326h46v1h-46zM352,326h46v1h-46zM115,327h46v1h-46zM351,327h46v1h-46zM116,328h46v1h-46zM350,328h46v1h-46zM117,329h46v1h-46zM349,329h46v1h-46zM118,330h46v1h-46zM348,330h46v1h-46zM119,331h46v1h-46zM347,331h46v1h-46zM120,332h46v1h-46zM346,332h46v1h-46zM121,333h46v1h-46zM345,333h46v1h-46zM122,334h46v1h-46zM344,334h46v1h-46zM123,335h46v1h-46zM343,335h46v1h-46zM124,336h46v1h-46zM342,336h46v1h-46zM125,337h46v1h-46zM341,337h46v1h-46zM126,338h46v1h-46zM340,338h46v1h-46zM127,339h46v1h-46zM339,339h46v1h-46zM128,340h46v1h-46zM338,340h46v1h-46zM129,341h46v1h-46zM337,341h46v1h-46zM130,342h46v1h-46zM336,342h46v1h-46zM131,343h46v1h-46zM335,343h46v1h-46zM132,344h46v1h-46zM334,344h46v1h-46zM133,345h46v1h-46zM333,345h46v1h-46zM134,346h46v1h-46zM332,346h46v1h-46zM135,347h46v1h-46zM331,347h46v1h-46zM136,348h46v1h-46zM330,348h46v1h-46zM137,349h46v1h-46zM329,349h46v1h-46zM138,350h46v1h-46zM328,350h46v1h-46zM139,351h46v1h-46zM327,351h46v1h-46zM140,352h46v1h-46zM326,352h46v1h-46zM141,353h46v1h-46zM325,353h46v1h-46zM142,354h46v1h-46zM324,354h46v1h-46zM143,355h46v1h-46zM324,355h45v1h-45zM144,356h46v1h-46zM323,356h45v1h-45zM145,357h45v1h-45zM322,357h45v1h-45zM146,358h45v1h-45zM321,358h45v1h-45zM147,359h45v1h-45zM320,359h45v1h-45zM148,360h45v1h-45zM319,360h45v1h-45zM149,361h45v1h-45zM318,361h45v1h-45zM150,362h45v1h-45zM317,362h45v1h-45zM151,363h45v1h-45zM316,363h45v1h-45zM152,364h45v1h-45zM315,364h45v1h-45zM153,365h45v1h-45zM314,365h46v1h-46zM154,366h45v1h-45zM313,366h46v1h-46zM154,367h46v1h-46zM312,367h46v1h-46zM155,368h46v1h-46zM311,368h46v1h-46zM156,369h46v1h-46zM310,369h46v1h-46zM157,370h46v1h-46zM309,370h46v1h-46zM158,371h46v1h-46zM308,371h46v1h-46zM159,372h46v1h-46zM307,372h46v1h-46zM160,373h46v1h-46zM306,373h46v1h-46zM161,374h46v1h-46zM305,374h46v1h-46zM162,375h46v1h-46zM304,375h46v1h-46zM163,376h46v1h-46zM303,376h46v1h-46zM164,377h46v1h-46zM302,377h46v1h-46zM165,378h46v1h-46zM301,378h46v1h-46zM166,379h46v1h-46zM300,379h46v1h-46zM167,380h46v1h-46zM299,380h46v1h-46zM168,381h46v1h-46zM298,381h46v1h-46zM169,382h46v1h-46zM297,382h46v1h-46zM170,383h46v1h-46zM296,383h46v1h-46zM171,384h46v1h-46zM295,384h46v1h-46zM172,385h46v1h-46zM294,385h46v1h-46zM173,386h46v1h-46zM293,386h46v1h-46zM174,387h46v1h-46zM292,387h46v1h-46zM175,388h46v1h-46zM291,388h46v1h-46zM176,389h46v1h-46zM290,389h46v1h-46zM177,390h46v1h-46zM289,390h46v1h-46zM178,391h46v1h-46zM288,391h46v1h-46zM179,392h46v1h-46zM287,392h46v1h-46zM180,393h46v1h-46zM286,393h46v1h-46zM181,394h46v1h-46zM285,394h46v1h-46zM182,395h46v1h-46zM284,395h46v1h-46zM183,396h46v1h-46zM283,396h46v1h-46zM184,397h46v1h-46zM282,397h46v1h-46zM185,398h46v1h-46zM281,398h46v1h-46zM186,399h46v1h-46zM281,399h45v1h-45zM187,400h45v1h-45zM280,400h45v1h-45zM188,401h45v1h-45zM279,401h45v1h-45zM189,402h45v1h-45zM278,402h45v1h-45zM190,403h45v1h-45zM277,403h45v1h-45zM191,404h45v1h-45zM276,404h45v1h-45zM192,405h45v1h-45zM275,405h45v1h-45zM193,406h45v1h-45zM274,406h45v1h-45zM194,407h45v1h-45zM273,407h45v1h-45zM195,408h45v1h-45zM272,408h45v1h-45zM196,409h45v1h-45zM271,409h46v1h-46zM196,410h46v1h-46zM270,410h46v1h-46zM197,411h46v1h-46zM269,411h46v1h-46zM198,412h46v1h-46zM268,412h46v1h-46zM199,413h46v1h-46zM267,413h46v1h-46zM200,414h46v1h-46zM266,414h46v1h-46zM201,415h46v1h-46zM265,415h46v1h-46zM202,416h46v1h-46zM264,416h46v1h-46zM203,417h46v1h-46zM263,417h46v1h-46zM204,418h46v1h-46zM262,418h46v1h-46zM205,419h46v1h-46zM261,419h46v1h-46zM206,420h46v1h-46zM260,420h46v1h-46zM207,421h46v1h-46zM259,421h46v1h-46zM208,422h96v1h-96zM209,423h94v1h-94zM210,424h92v1h-92zM211,425h90v1h-90zM212,426h88v1h-88zM213,427h86v1h-86zM214,428h84v1h-84zM215,429h82v1h-82zM216,430h80v1h-80zM217,431h78v1h-78zM218,432h76v1h-76zM219,433h74v1h-74zM220,434h72v1h-72zM221,435h70v1h-70zM222,436h68v1h-68zM223,437h66v1h-66zM224,438h64v1h-64zM225,439h62v1h-62zM226,440h60v1h-60zM227,441h58v1h-58zM228,442h56v1h-56zM229,443h54v1h-54zM230,444h52v1h-52zM231,445h50v1h-50zM232,446h48v1h-48zM233,447h46v1h-46zM234,448h44v1h-44zM235,449h42v1h-42zM236,450h40v1h-40zM237,451h38v1h-38zM238,452h37v1h-37zM239,453h35v1h-35zM239,454h34v1h-34zM240,455h32v1h-32zM241,456h30v1h-30zM242,457h28v1h-28zM243,458h26v1h-26zM244,459h24v1h-24zM245,460h22v1h-22zM247,461h18v1h-18zM248,462h16v1h-16zM251,463h10v1h-10z"/></svg>