<?xml version="1.0" encoding="UTF-8"?>
<svg xmlns="http://www.w3.org/2000/svg" viewBox="0 0 512 512" width="512" height="512"><path fill="#000" d="M342,32h19v1h-19zM338,33h27v1h-27zM335,34h33v1h-33zM332,35h39v1h-39zM330,36h43v1h-43zM328,37h47v1h-47zM326,38h51v1h-51zM324,39h54v1h-54zM323,40h57v1h-57zM322,41h59v1h-59zM320,42h63v1h-63zM319,43h65v1h-65zM318,44h67v1h-67zM317,45h69v1h-69zM316,46h71v1h-71zM315,47h73v1h-73zM314,48h75v1h-75zM313,49h77v1h-77zM312,50h79v1h-79zM311,51h81v1h-81zM310,52h83v1h-83zM309,53h85v1h-85zM308,54h87v1h-87zM307,55h89v1h-89zM306,56h91v1h-91zM305,57h93v1h-93zM304,58h95v1h-95zM303,59h97v1h-97zM302,60h99v1h-99zM301,61h101v1h-101zM300,62h103v1h-103zM299,63h105v1h-105zM297,64h108v1h-108zM296,65h49v1h-49zM358,65h48v1h-48zM295,66h48v1h-48zM360,66h47v1h-47zM294,67h47v1h-47zM361,67h47v1h-47zM293,68h47v1h-47zM363,68h46v1h-46zM292,69h47v1h-47zM364,69h46v1h-46zM291,70h47v1h-47zM365,70h46v1h-46zM290,71h47v1h-47zM366,71h46v1h-46zM289,72h47v1h-47zM367,72h46v1h-46zM288,73h47v1h-47zM368,73h47v1h-47zM287,74h47v1h-47zM369,74h47v1h-47zM286,75h47v1h-47zM370,75h47v1h-47zM285,76h47v1h-47zM371,76h47v1h-47zM284,77h47v1h-47zM372,77h47v1h-47zM283,78h47v1h-47zM373,78h47v1h-47zM282,79h47v1h-47zM374,79h47v1h-47zM281,80h47v1h-47zM375,80h47v1h-47zM280,81h47v1h-47zM376,81h47v1h-47zM279,82h47v1h-47zM377,82h47v1h-47zM278,83h47v1h-47zM378,83h47v1h-47zM277,84h47v1h-47zM379,84h47v1h-47zM276,85h47v1h-47zM380,85h47v1h-47zM275,86h47v1h-47zM381,86h47v1h-47zM274,87h47v1h-47zM382,87h47v1h-47zM273,88h47v1h-47zM383,88h47v1h-47zM272,89h47v1h-47zM384,89h47v1h-47zM271,90h47v1h-47zM385,90h47v1h-47zM270,91h47v1h-47zM386,91h47v1h-47zM269,92h47v1h-47zM387,92h47v1h-47zM268,93h47v1h-47zM388,93h47v1h-47zM267,94h47v1h-47zM389,94h47v1h-47zM266,95h47v1h-47zM390,95h47v1h-47zM265,96h47v1h-47zM391,96h46v1h-46zM264,97h47v1h-47zM392,97h46v1h-46zM263,98h47v1h-47zM393,98h46v1h-46zM262,99h47v1h-47zM361,99h4v1h-4zM394,99h46v1h-46zM261,100h47v1h-47zM357,100h12v1h-12zM395,100h45v1h-45zM260,101h47v1h-47zM355,101h16v1h-16zM396,101h45v1h-45zM259,102h47v1h-47zM354,102h19v1h-19zM397,102h45v1h-45zM258,103h47v1h-47zM352,103h22v1h-22zM398,103h44v1h-44zM257,104h47v1h-47zM351,104h24v1h-24zM399,104h44v1h-44zM256,105h46v1h-46zM350,105h26v1h-26zM400,105h43v1h-43zM255,106h46v1h-46zM349,106h28v1h-28zM401,106h43v1h-43zM254,107h46v1h-46zM348,107h29v1h-29zM402,107h42v1h-42zM253,108h46v1h-46zM347,108h31v1h-31zM403,108h42v1h-42zM252,109h46v1h-46zM346,109h32v1h-32zM404,109h41v1h-41zM251,110h46v1h-46zM345,110h34v1h-34zM405,110h40v1h-40zM250,111h46v1h-46zM344,111h35v1h-35zM406,111h40v1h-40zM249,112h46v1h-46zM343,112h36v1h-36zM407,112h39v1h-39zM248,113h46v1h-46zM342,113h37v1h-37zM408,113h38v1h-38zM247,114h46v1h-46zM341,114h38v1h-38zM410,114h37v1h-37zM246,115h46v1h-46zM340,115h40v1h-40zM411,115h36v1h-36zM245,116h46v1h-46zM339,116h41v1h-41zM411,116h36v1h-36zM244,117h46v1h-46zM338,117h41v1h-41zM412,117h35v1h-35zM243,118h46v1h-46zM337,118h42v1h-42zM413,118h35v1h-35zM242,119h46v1h-46zM336,119h43v1h-43zM414,119h34v1h-34zM241,120h46v1h-46zM335,120h44v1h-44zM414,120h34v1h-34zM240,121h46v1h-46zM334,121h44v1h-44zM415,121h33v1h-33zM239,122h46v1h-46zM333,122h45v1h-45zM415,122h33v1h-33zM238,123h46v1h-46zM332,123h46v1h-46zM415,123h33v1h-33zM237,124h46v1h-46zM331,124h46v1h-46zM415,124h33v1h-33zM235,125h47v1h-47zM330,125h46v1h-46zM415,125h33v1h-33zM234,126h47v1h-47zM329,126h46v1h-46zM415,126h33v1h-33zM233,127h47v1h-47zM328,127h47v1h-47zM415,127h33v1h-33zM232,128h47v1h-47zM327,128h47v1h-47zM415,128h33v1h-33zM231,129h47v1h-47zM326,129h47v1h-47zM415,129h33v1h-33zM230,130h47v1h-47zM326,130h45v1h-45zM415,130h33v1h-33zM229,131h47v1h-47zM325,131h45v1h-45zM415,131h33v1h-33zM228,132h47v1h-47zM325,132h44v1h-44zM415,132h33v1h-33zM227,133h47v1h-47zM324,133h44v1h-44zM414,133h34v1h-34zM226,134h47v1h-47zM324,134h43v1h-43zM414,134h34v1h-34zM225,135h47v1h-47zM324,135h42v1h-42zM413,135h35v1h-35zM224,136h47v1h-47zM323,136h42v1h-42zM413,136h34v1h-34zM223,137h47v1h-47zM323,137h41v1h-41zM412,137h35v1h-35zM222,138h47v1h-47zM323,138h40v1h-40zM411,138h36v1h-36zM221,139h47v1h-47zM323,139h39v1h-39zM410,139h37v1h-37zM220,140h47v1h-47zM323,140h38v1h-38zM409,140h38v1h-38zM219,141h47v1h-47zM323,141h37v1h-37zM408,141h38v1h-38zM218,142h47v1h-47zM324,142h35v1h-35zM407,142h39v1h-39zM217,143h47v1h-47zM324,143h34v1h-34zM406,143h40v1h-40zM216,144h47v1h-47zM324,144h33v1h-33zM405,144h40v1h-40zM215,145h47v1h-47zM325,145h31v1h-31zM404,145h41v1h-41zM214,146h47v1h-47zM325,146h30v1h-30zM403,146h41v1h-41zM213,147h47v1h-47zM326,147h28v1h-28zM402,147h42v1h-42zM212,148h47v1h-47zM326,148h27v1h-27zM401,148h42v1h-42zM211,149h47v1h-47zM327,149h25v1h-25zM400,149h43v1h-43zM210,150h47v1h-47zM328,150h23v1h-23zM399,150h43v1h-43zM209,151h47v1h-47zM329,151h21v1h-21zM398,151h44v1h-44zM208,152h47v1h-47zM331,152h18v1h-18zM397,152h44v1h-44zM207,153h47v1h-47zM332,153h15v1h-15zM396,153h45v1h-45zM206,154h47v1h-47zM335,154h9v1h-9zM395,154h45v1h-45zM205,155h47v1h-47zM394,155h45v1h-45zM204,156h47v1h-47zM393,156h46v1h-46zM203,157h47v1h-47zM392,157h46v1h-46zM202,158h47v1h-47zM391,158h46v1h-46zM201,159h47v1h-47zM390,159h46v1h-46zM200,160h47v1h-47zM389,160h46v1h-46zM199,161h47v1h-47zM388,161h46v1h-46zM198,162h47v1h-47zM387,162h46v1h-46zM197,163h47v1h-47zM386,163h46v1h-46zM196,164h47v1h-47zM385,164h46v1h-46zM195,165h47v1h-47zM384,165h46v1h-46zM194,166h46v1h-46zM383,166h46v1h-46zM193,167h46v1h-46zM382,167h46v1h-46zM192,168h46v1h-46zM381,168h46v1h-46zM191,169h46v1h-46zM380,169h46v1h-46zM190,170h46v1h-46zM379,170h46v1h-46zM189,171h46v1h-46zM378,171h46v1h-46zM188,172h46v1h-46zM377,172h46v1h-46zM187,173h46v1h-46zM376,173h46v1h-46zM186,174h46v1h-46zM375,174h46v1h-46zM185,175h46v1h-46zM373,175h47v1h-47zM184,176h46v1h-46zM372,176h47v1h-47zM183,177h46v1h-46zM371,177h47v1h-47zM182,178h46v1h-46zM370,178h47v1h-47zM181,179h46v1h-46zM369,179h47v1h-47zM180,180h46v1h-46zM368,180h47v1h-47zM179,181h46v1h-46zM367,181h47v1h-47zM178,182h46v1h-46zM366,182h47v1h-47zM177,183h46v1h-46zM365,183h47v1h-47zM176,184h46v1h-46zM364,184h47v1h-47zM175,185h46v1h-46zM363,185h47v1h-47zM173,186h47v1h-47zM362,186h47v1h-47zM172,187h47v1h-47zM361,187h47v1h-47zM171,188h47v1h-47zM360,188h47v1h-47zM170,189h47v1h-47zM359,189h47v1h-47zM169,190h47v1h-47zM358,190h47v1h-47zM168,191h47v1h-47zM357,191h47v1h-47zM167,192h47v1h-47zM356,192h47v1h-47zM166,193h47v1h-47zM355,193h47v1h-47zM165,194h47v1h-47zM354,194h47v1h-47zM164,195h47v1h-47zM353,195h47v1h-47zM163,196h47v1h-47zM352,196h47v1h-47zM162,197h47v1h-47zM351,197h47v1h-47zM161,198h47v1h-47zM350,198h47v1h-47zM160,199h47v1h-47zM349,199h47v1h-47zM159,200h47v1h-47zM348,200h47v1h-47zM158,201h47v1h-47zM347,201h47v1h-47zM157,202h47v1h-47zM346,202h47v1h-47zM156,203h47v1h-47zM345,203h47v1h-47zM155,204h47v1h-47zM344,204h47v1h-47zM154,205h47v1h-47zM343,205h47v1h-47zM153,206h47v1h-47zM342,206h47v1h-47zM152,207h47v1h-47zM341,207h47v1h-47zM151,208h47v1h-47zM340,208h47v1h-47zM150,209h47v1h-47zM339,209h47v1h-47zM149,210h47v1h-47zM338,210h47v1h-47zM148,211h47v1h-47zM337,211h47v1h-47zM147,212h47v1h-47zM336,212h47v1h-47zM146,213h47v1h-47zM335,213h47v1h-47zM145,214h47v1h-47zM334,214h47v1h-47zM144,215h47v1h-47zM333,215h47v1h-47zM143,216h47v1h-47zM332,216h46v1h-46zM142,217h47v1h-47zM331,217h46v1h-46zM141,218h47v1h-47zM330,218h46v1h-46zM140,219h48v1h-48zM329,219h46v1h-46zM139,220h49v1h-49zM328,220h46v1h-46zM138,221h50v1h-50zM327,221h46v1h-46zM137,222h51v1h-51zM326,222h46v1h-46zM136,223h53v1h-53zM325,223h46v1h-46zM135,224h55v1h-55zM324,224h46v1h-46zM134,225h57v1h-57zM323,225h46v1h-46zM133,226h59v1h-59zM322,226h46v1h-46zM132,227h61v1h-61zM321,227h46v1h-46zM131,228h63v1h-63zM320,228h46v1h-46zM130,229h65v1h-65zM319,229h46v1h-46zM129,230h67v1h-67zM318,230h46v1h-46zM128,231h69v1h-69zM317,231h46v1h-46zM127,232h71v1h-71zM316,232h46v1h-46zM126,233h73v1h-73zM315,233h46v1h-46zM125,234h76v1h-76zM314,234h46v1h-46zM124,235h78v1h-78zM313,235h46v1h-46zM123,236h80v1h-80zM311,236h47v1h-47zM122,237h82v1h-82zM310,237h47v1h-47zM121,238h84v1h-84zM309,238h47v1h-47zM120,239h86v1h-86zM308,239h47v1h-47zM119,240h88v1h-88zM307,240h47v1h-47zM118,241h90v1h-90zM306,241h47v1h-47zM117,242h92v1h-92zM305,242h47v1h-47zM116,243h94v1h-94zM304,243h47v1h-47zM115,244h96v1h-96zM303,244h47v1h-47zM114,245h46v1h-46zM165,245h47v1h-47zM302,245h47v1h-47zM113,246h46v1h-46zM166,246h47v1h-47zM301,246h47v1h-47zM111,247h47v1h-47zM167,247h47v1h-47zM300,247h47v1h-47zM110,248h47v1h-47zM168,248h47v1h-47zM299,248h47v1h-47zM109,249h47v1h-47zM169,249h47v1h-47zM298,249h47v1h-47zM108,250h47v1h-47zM170,250h47v1h-47zM297,250h47v1h-47zM107,251h47v1h-47zM171,251h47v1h-47zM296,251h47v1h-47zM106,252h47v1h-47zM172,252h47v1h-47zM295,252h47v1h-47zM105,253h47v1h-47zM173,253h47v1h-47zM294,253h47v1h-47zM104,254h47v1h-47zM174,254h47v1h-47zM293,254h47v1h-47zM103,255h47v1h-47zM175,255h47v1h-47zM292,255h47v1h-47zM103,256h46v1h-46zM176,256h47v1h-47zM291,256h47v1h-47zM102,257h46v1h-46zM177,257h47v1h-47zM290,257h47v1h-47zM101,258h46v1h-46zM178,258h47v1h-47zM289,258h47v1h-47zM101,259h45v1h-45zM179,259h47v1h-47zM288,259h47v1h-47zM100,260h45v1h-45zM180,260h47v1h-47zM287,260h47v1h-47zM100,261h44v1h-44zM181,261h47v1h-47zM286,261h47v1h-47zM100,262h43v1h-43zM182,262h47v1h-47zM285,262h47v1h-47zM99,263h43v1h-43zM183,263h47v1h-47zM284,263h47v1h-47zM99,264h42v1h-42zM184,264h47v1h-47zM283,264h47v1h-47zM99,265h42v1h-42zM185,265h47v1h-47zM282,265h47v1h-47zM99,266h42v1h-42zM186,266h47v1h-47zM281,266h47v1h-47zM99,267h42v1h-42zM187,267h47v1h-47zM280,267h47v1h-47zM99,268h42v1h-42zM188,268h47v1h-47zM279,268h47v1h-47zM99,269h43v1h-43zM189,269h47v1h-47zM278,269h47v1h-47zM100,270h43v1h-43zM190,270h47v1h-47zM277,270h47v1h-47zM100,271h44v1h-44zM191,271h47v1h-47zM276,271h47v1h-47zM100,272h45v1h-45zM192,272h47v1h-47zM275,272h47v1h-47zM101,273h45v1h-45zM193,273h47v1h-47zM274,273h47v1h-47zM101,274h46v1h-46zM194,274h47v1h-47zM273,274h47v1h-47zM102,275h46v1h-46zM196,275h46v1h-46zM272,275h47v1h-47zM102,276h47v1h-47zM197,276h46v1h-46zM271,276h47v1h-47zM102,277h48v1h-48zM198,277h46v1h-46zM270,277h46v1h-46zM102,278h49v1h-49zM199,278h46v1h-46zM269,278h46v1h-46zM102,279h50v1h-50zM200,279h46v1h-46zM268,279h46v1h-46zM102,280h51v1h-51zM201,280h46v1h-46zM267,280h46v1h-46zM101,281h53v1h-53zM202,281h46v1h-46zM266,281h46v1h-46zM100,282h55v1h-55zM203,282h46v1h-46zM265,282h46v1h-46zM99,283h57v1h-57zM204,283h46v1h-46zM264,283h46v1h-46zM97,284h60v1h-60zM205,284h46v1h-46zM263,284h46v1h-46zM96,285h62v1h-62zM206,285h46v1h-46zM262,285h46v1h-46zM95,286h64v1h-64zM207,286h46v1h-46zM261,286h46v1h-46zM94,287h66v1h-66zM208,287h46v1h-46zM260,287h46v1h-46zM93,288h68v1h-68zM209,288h96v1h-96zM92,289h70v1h-70zM210,289h94v1h-94zM91,290h72v1h-72zM211,290h92v1h-92zM90,291h74v1h-74zM212,291h90v1h-90zM89,292h76v1h-76zM213,292h88v1h-88zM88,293h78v1h-78zM214,293h86v1h-86zM87,294h80v1h-80zM215,294h84v1h-84zM86,295h82v1h-82zM216,295h82v1h-82zM85,296h84v1h-84zM217,296h80v1h-80zM84,297h86v1h-86zM218,297h78v1h-78zM83,298h88v1h-88zM219,298h76v1h-76zM82,299h90v1h-90zM220,299h74v1h-74zM81,300h92v1h-92zM221,300h72v1h-72zM80,301h94v1h-94zM222,301h70v1h-70zM79,302h96v1h-96zM223,302h68v1h-68zM78,303h47v1h-47zM130,303h46v1h-46zM224,303h66v1h-66zM77,304h47v1h-47zM131,304h46v1h-46zM225,304h64v1h-64zM76,305h47v1h-47zM132,305h46v1h-46zM226,305h62v1h-62zM75,306h47v1h-47zM133,306h46v1h-46zM227,306h60v1h-60zM74,307h47v1h-47zM134,307h46v1h-46zM228,307h58v1h-58zM73,308h47v1h-47zM135,308h46v1h-46zM229,308h56v1h-56zM72,309h47v1h-47zM136,309h46v1h-46zM230,309h54v1h-54zM71,310h47v1h-47zM137,310h46v1h-46zM231,310h52v1h-52zM70,311h47v1h-47zM138,311h46v1h-46zM231,311h51v1h-51zM69,312h47v1h-47zM139,312h46v1h-46zM231,312h50v1h-50zM68,313h47v1h-47zM140,313h46v1h-46zM231,313h49v1h-49zM67,314h47v1h-47zM141,314h46v1h-46zM231,314h48v1h-48zM66,315h47v1h-47zM142,315h46v1h-46zM231,315h47v1h-47zM66,316h46v1h-46zM143,316h46v1h-46zM230,316h47v1h-47zM65,317h46v1h-46zM144,317h46v1h-46zM229,317h47v1h-47zM65,318h45v1h-45zM145,318h46v1h-46zM228,318h47v1h-47zM64,319h45v1h-45zM146,319h46v1h-46zM227,319h47v1h-47zM64,320h44v1h-44zM147,320h47v1h-47zM226,320h47v1h-47zM64,321h43v1h-43zM148,321h47v1h-47zM225,321h47v1h-47zM64,322h42v1h-42zM149,322h47v1h-47zM224,322h47v1h-47zM64,323h41v1h-41zM150,323h47v1h-47zM223,323h47v1h-47zM64,324h40v1h-40zM151,324h47v1h-47zM222,324h47v1h-47zM64,325h38v1h-38zM152,325h47v1h-47zM221,325h47v1h-47zM64,326h37v1h-37zM153,326h47v1h-47zM220,326h47v1h-47zM64,327h36v1h-36zM154,327h47v1h-47zM219,327h47v1h-47zM64,328h35v1h-35zM155,328h47v1h-47zM218,328h47v1h-47zM64,329h34v1h-34zM156,329h47v1h-47zM217,329h47v1h-47zM64,330h33v1h-33zM157,330h47v1h-47zM216,330h47v1h-47zM64,331h32v1h-32zM158,331h47v1h-47zM215,331h47v1h-47zM64,332h32v1h-32zM159,332h47v1h-47zM214,332h47v1h-47zM64,333h32v1h-32zM160,333h47v1h-47zM213,333h47v1h-47zM64,334h32v1h-32zM161,334h98v1h-98zM64,335h32v1h-32zM162,335h96v1h-96zM64,336h32v1h-32zM163,336h94v1h-94zM64,337h32v1h-32zM164,337h92v1h-92zM64,338h32v1h-32zM165,338h89v1h-89zM64,339h32v1h-32zM166,339h87v1h-87zM64,340h32v1h-32zM167,340h85v1h-85zM64,341h32v1h-32zM168,341h83v1h-83zM64,342h32v1h-32zM169,342h81v1h-81zM64,343h32v1h-32zM170,343h79v1h-79zM64,344h32v1h-32zM171,344h77v1h-77zM64,345h32v1h-32zM172,345h75v1h-75zM64,346h32v1h-32zM172,346h74v1h-74zM64,347h32v1h-32zM172,347h73v1h-73zM64,348h32v1h-32zM172,348h72v1h-72zM64,349h32v1h-32zM172,349h71v1h-71zM64,350h32v1h-32zM172,350h70v1h-70zM64,351h32v1h-32zM171,351h70v1h-70zM64,352h32v1h-32zM170,352h70v1h-70zM64,353h32v1h-32zM169,353h70v1h-70zM64,354h32v1h-32zM168,354h70v1h-70zM64,355h32v1h-32zM167,355h70v1h-70zM64,356h32v1h-32zM166,356h70v1h-70zM64,357h32v1h-32zM165,357h70v1h-70zM64,358h32v1h-32zM164,358h70v1h-70zM64,359h32v1h-32zM163,359h70v1h-70zM64,360h32v1h-32zM162,360h70v1h-70zM64,361h32v1h-32zM161,361h70v1h-70zM64,362h32v1h-32zM160,362h70v1h-70zM64,363h32v1h-32zM159,363h70v1h-70zM64,364h32v1h-32zM158,364h70v1h-70zM64,365h32v1h-32zM157,365h70v1h-70zM64,366h32v1h-32zM156,366h70v1h-70zM64,367h32v1h-32zM155,367h70v1h-70zM64,368h32v1h-32zM154,368h70v1h-70zM64,369h32v1h-32zM153,369h70v1h-70zM64,370h32v1h-32zM152,370h70v1h-70zM64,371h32v1h-32zM151,371h70v1h-70zM64,372h32v1h-32zM150,372h70v1h-70zM64,373h32v1h-32zM149,373h46v1h-46zM201,373h17v1h-17zM64,374h32v1h-32zM148,374h46v1h-46zM203,374h13v1h-13zM64,375h32v1h-32zM147,375h46v1h-46zM206,375h7v1h-7zM64,376h32v1h-32zM146,376h46v1h-46zM64,377h32v1h-32zM145,377h46v1h-46zM64,378h32v1h-32zM144,378h46v1h-46zM64,379h32v1h-32zM143,379h46v1h-46zM64,380h32v1h-32zM142,380h46v1h-46zM64,381h32v1h-32zM141,381h46v1h-46zM64,382h32v1h-32zM140,382h46v1h-46zM64,383h32v1h-32zM138,383h47v1h-47zM64,384h32v1h-32zM137,384h47v1h-47zM64,385h32v1h-32zM136,385h47v1h-47zM64,386h32v1h-32zM135,386h47v1h-47zM64,387h32v1h-32zM134,387h47v1h-47zM64,388h32v1h-32zM133,388h47v1h-47zM64,389h32v1h-32zM132,389h47v1h-47zM64,390h32v1h-32zM131,390h47v1h-47zM64,391h32v1h-32zM130,391h47v1h-47zM64,392h32v1h-32zM129,392h47v1h-47zM64,393h32v1h-32zM128,393h47v1h-47zM64,394h32v1h-32zM127,394h47v1h-47zM64,395h32v1h-32zM126,395h47v1h-47zM64,396h32v1h-32zM125,396h47v1h-47zM64,397h32v1h-32zM124,397h47v1h-47zM64,398h32v1h-32zM123,398h47v1h-47zM64,399h32v1h-32zM122,399h47v1h-47zM64,400h32v1h-32zM121,400h47v1h-47zM64,401h32v1h-32zM120,401h47v1h-47zM64,402h32v1h-32zM119,402h47v1h-47zM64,403h32v1h-32zM118,403h47v1h-47zM64,404h32v1h-32zM117,404h47v1h-47zM64,405h32v1h-32zM116,405h47v1h-47zM64,406h32v1h-32zM115,406h47v1h-47zM64,407h32v1h-32zM114,407h47v1h-47zM64,408h32v1h-32zM113,408h47v1h-47zM64,409h32v1h-32zM112,409h47v1h-47zM64,410h32v1h-32zM111,410h47v1h-47zM64,411h32v1h-32zM110,411h47v1h-47zM64,412h32v1h-32zM109,412h47v1h-47zM64,413h32v1h-32zM108,413h47v1h-47zM64,414h32v1h-32zM107,414h47v1h-47zM64,415h32v1h-32zM106,415h47v1h-47zM64,416h32v1h-32zM105,416h47v1h-47zM64,417h32v1h-32zM104,417h47v1h-47zM64,418h32v1h-32zM103,418h47v1h-47zM64,419h32v1h-32zM102,419h47v1h-47zM64,420h32v1h-32zM101,420h47v1h-47zM64,421h83v1h-83zM64,422h82v1h-82zM64,423h81v1h-81zM64,424h79v1h-79zM64,425h78v1h-78zM64,426h77v1h-77zM64,427h76v1h-76zM64,428h75v1h-75zM64,429h74v1h-74zM64,430h73v1h-73zM64,431h72v1h-72zM64,432h71v1h-71zM64,433h70v1h-70zM64,434h69v1h-69zM64,435h68v1h-68zM64,436h67v1h-67zM64,437h66v1h-66zM64,438h65v1h-65zM64,439h64v1h-64zM64,440h63v1h-63zM64,441h62v1h-62zM64,442h61v1h-61zM64,443h60v1h-60zM64,444h59v1h-59zM64,445h58v1h-58zM64,446h57v1h-57zM64,447h56v1h-56zM64,448h55v1h-55zM64,449h54v1h-54zM64,450h53v1h-53zM64,451h52v1h-52zM64,452h51v1h-51zM64,453h50v1h-50zM64,454h49v1h-49zM64,455h48v1h-48zM64,456h47v1h-47zM64,457h46v1h-46zM64,458h45v1h-45zM64,459h44v1h-44zM64,460h43v1h-43zM64,461h42v1h-42zM64,462h41v1h-41zM64,463h40v1h-40zM64,464h39v1h-39zM64,465h38v1h-38zM64,466h37v1h-37zM64,467h36v1h-36zM64,468h35v1h-35zM65,469h33v1h-33zM65,470h32v1h-32zM66,471h30v1h-30zM66,472h29v1h-29zM67,473h27v1h-27zM67,474h26v1h-26zM68,475h24v1h-24zM69,476h21v1h-21zM71,477h18v1h-18zM73,478h15v1h-15zM75,479h10v1h-10z"/></svg>