<?xml version="1.0" encoding="UTF-8"?>
<svg xmlns="http://www.w3.org/2000/svg" viewBox="0 0 512 512" width="512" height="512"><path fill="#000" d="M133,16h246v1h-246zM126,17h260v1h-260zM121,18h270v1h-270zM116,19h280v1h-280zM112,20h287v1h-287zM109,21h294v1h-294zM106,22h300v1h-300zM103,23h306v1h-306zM101,24h310v1h-310zM98,25h316v1h-316zM96,26h320v1h-320zM94,27h324v1h-324zM91,28h329v1h-329zM90,29h332v1h-332zM88,30h336v1h-336zM86,31h340v1h-340zM84,32h344v1h-344zM82,33h348v1h-348zM81,34h350v1h-350zM79,35h354v1h-354zM77,36h357v1h-357zM76,37h360v1h-360zM74,38h363v1h-363zM73,39h366v1h-366zM72,40h368v1h-368zM70,41h371v1h-371zM69,42h374v1h-374zM68,43h376v1h-376zM67,44h378v1h-378zM65,45h382v1h-382zM64,46h384v1h-384zM63,47h386v1h-386zM62,48h81v1h-81zM369,48h81v1h-81zM61,49h72v1h-72zM379,49h72v1h-72zM60,50h67v1h-67zM384,50h68v1h-68zM59,51h64v1h-64zM389,51h64v1h-64zM58,52h62v1h-62zM392,52h62v1h-62zM57,53h60v1h-60zM395,53h60v1h-60zM56,54h58v1h-58zM398,54h58v1h-58zM55,55h56v1h-56zM401,55h56v1h-56zM54,56h55v1h-55zM403,56h55v1h-55zM53,57h54v1h-54zM405,57h54v1h-54zM52,58h53v1h-53zM407,58h53v1h-53zM51,59h52v1h-52zM409,59h52v1h-52zM50,60h51v1h-51zM411,60h51v1h-51zM49,61h50v1h-50zM413,61h49v1h-49zM49,62h49v1h-49zM414,62h49v1h-49zM48,63h48v1h-48zM416,63h48v1h-48zM47,64h47v1h-47zM417,64h48v1h-48zM46,65h47v1h-47zM419,65h47v1h-47zM46,66h46v1h-46zM420,66h46v1h-46zM45,67h45v1h-45zM422,67h45v1h-45zM44,68h45v1h-45zM423,68h45v1h-45zM43,69h45v1h-45zM424,69h44v1h-44zM43,70h43v1h-43zM425,70h44v1h-44zM42,71h43v1h-43zM427,71h43v1h-43zM41,72h43v1h-43zM428,72h42v1h-42zM41,73h42v1h-42zM429,73h42v1h-42zM40,74h42v1h-42zM430,74h42v1h-42zM39,75h42v1h-42zM431,75h41v1h-41zM39,76h41v1h-41zM432,76h41v1h-41zM38,77h41v1h-41zM433,77h41v1h-41zM38,78h40v1h-40zM434,78h40v1h-40zM37,79h40v1h-40zM435,79h40v1h-40zM37,80h39v1h-39zM350,80h20v1h-20zM436,80h39v1h-39zM36,81h39v1h-39zM346,81h28v1h-28zM436,81h40v1h-40zM35,82h40v1h-40zM342,82h36v1h-36zM437,82h39v1h-39zM35,83h39v1h-39zM340,83h40v1h-40zM438,83h39v1h-39zM34,84h39v1h-39zM337,84h46v1h-46zM439,84h38v1h-38zM34,85h38v1h-38zM335,85h50v1h-50zM440,85h38v1h-38zM33,86h38v1h-38zM333,86h54v1h-54zM440,86h38v1h-38zM33,87h38v1h-38zM331,87h58v1h-58zM441,87h38v1h-38zM32,88h38v1h-38zM330,88h60v1h-60zM442,88h37v1h-37zM32,89h37v1h-37zM328,89h64v1h-64zM442,89h38v1h-38zM32,90h37v1h-37zM327,90h66v1h-66zM443,90h37v1h-37zM31,91h37v1h-37zM325,91h70v1h-70zM444,91h37v1h-37zM31,92h36v1h-36zM324,92h72v1h-72zM444,92h37v1h-37zM30,93h37v1h-37zM323,93h74v1h-74zM445,93h36v1h-36zM30,94h36v1h-36zM322,94h76v1h-76zM446,94h36v1h-36zM30,95h36v1h-36zM321,95h78v1h-78zM446,95h36v1h-36zM29,96h36v1h-36zM320,96h80v1h-80zM447,96h36v1h-36zM29,97h36v1h-36zM319,97h82v1h-82zM447,97h36v1h-36zM28,98h36v1h-36zM318,98h84v1h-84zM448,98h35v1h-35zM28,99h36v1h-36zM317,99h86v1h-86zM448,99h36v1h-36zM28,100h35v1h-35zM316,100h88v1h-88zM449,100h35v1h-35zM27,101h36v1h-36zM315,101h90v1h-90zM449,101h35v1h-35zM27,102h35v1h-35zM315,102h90v1h-90zM450,102h35v1h-35zM27,103h35v1h-35zM314,103h92v1h-92zM450,103h35v1h-35zM26,104h35v1h-35zM313,104h94v1h-94zM451,104h34v1h-34zM26,105h35v1h-35zM313,105h94v1h-94zM451,105h35v1h-35zM26,106h34v1h-34zM312,106h96v1h-96zM451,106h35v1h-35zM26,107h34v1h-34zM311,107h98v1h-98zM452,107h34v1h-34zM25,108h35v1h-35zM311,108h98v1h-98zM452,108h34v1h-34zM25,109h34v1h-34zM310,109h100v1h-100zM452,109h35v1h-35zM25,110h34v1h-34zM310,110h100v1h-100zM453,110h34v1h-34zM25,111h34v1h-34zM309,111h102v1h-102zM453,111h34v1h-34zM24,112h34v1h-34zM309,112h102v1h-102zM453,112h34v1h-34zM24,113h34v1h-34zM308,113h45v1h-45zM367,113h45v1h-45zM454,113h34v1h-34zM24,114h34v1h-34zM308,114h42v1h-42zM370,114h42v1h-42zM454,114h34v1h-34zM24,115h33v1h-33zM308,115h40v1h-40zM372,115h40v1h-40zM454,115h34v1h-34zM24,116h33v1h-33zM307,116h40v1h-40zM373,116h40v1h-40zM455,116h33v1h-33zM23,117h34v1h-34zM307,117h38v1h-38zM375,117h38v1h-38zM455,117h33v1h-33zM23,118h34v1h-34zM306,118h38v1h-38zM376,118h38v1h-38zM455,118h33v1h-33zM23,119h33v1h-33zM306,119h37v1h-37zM377,119h37v1h-37zM455,119h34v1h-34zM23,120h33v1h-33zM306,120h36v1h-36zM378,120h36v1h-36zM456,120h33v1h-33zM23,121h33v1h-33zM306,121h35v1h-35zM379,121h35v1h-35zM456,121h33v1h-33zM23,122h33v1h-33zM305,122h36v1h-36zM379,122h36v1h-36zM456,122h33v1h-33zM23,123h33v1h-33zM305,123h35v1h-35zM380,123h35v1h-35zM456,123h33v1h-33zM22,124h33v1h-33zM305,124h34v1h-34zM381,124h34v1h-34zM456,124h33v1h-33zM22,125h33v1h-33zM305,125h34v1h-34zM381,125h34v1h-34zM456,125h33v1h-33zM22,126h33v1h-33zM304,126h34v1h-34zM382,126h34v1h-34zM457,126h33v1h-33zM22,127h33v1h-33zM304,127h34v1h-34zM382,127h34v1h-34zM457,127h33v1h-33zM22,128h33v1h-33zM304,128h34v1h-34zM382,128h34v1h-34zM457,128h33v1h-33zM22,129h33v1h-33zM304,129h33v1h-33zM383,129h33v1h-33zM457,129h33v1h-33zM22,130h33v1h-33zM304,130h33v1h-33zM383,130h33v1h-33zM457,130h33v1h-33zM22,131h33v1h-33zM304,131h33v1h-33zM383,131h33v1h-33zM457,131h33v1h-33zM22,132h32v1h-32zM304,132h33v1h-33zM383,132h33v1h-33zM457,132h33v1h-33zM21,133h33v1h-33zM304,133h33v1h-33zM383,133h33v1h-33zM457,133h33v1h-33zM21,134h33v1h-33zM304,134h33v1h-33zM383,134h33v1h-33zM457,134h33v1h-33zM21,135h33v1h-33zM304,135h33v1h-33zM383,135h33v1h-33zM458,135h32v1h-32zM21,136h33v1h-33zM304,136h33v1h-33zM383,136h33v1h-33zM458,136h33v1h-33zM21,137h33v1h-33zM304,137h33v1h-33zM383,137h33v1h-33zM458,137h33v1h-33zM21,138h33v1h-33zM304,138h33v1h-33zM383,138h33v1h-33zM458,138h33v1h-33zM21,139h33v1h-33zM304,139h33v1h-33zM383,139h33v1h-33zM458,139h33v1h-33zM21,140h33v1h-33zM304,140h33v1h-33zM383,140h33v1h-33zM458,140h33v1h-33zM21,141h33v1h-33zM304,141h33v1h-33zM383,141h33v1h-33zM458,141h33v1h-33zM21,142h33v1h-33zM304,142h33v1h-33zM383,142h33v1h-33zM458,142h33v1h-33zM21,143h32v1h-32zM304,143h34v1h-34zM382,143h34v1h-34zM458,143h33v1h-33zM21,144h32v1h-32zM304,144h34v1h-34zM382,144h34v1h-34zM458,144h33v1h-33zM20,145h33v1h-33zM304,145h34v1h-34zM382,145h34v1h-34zM458,145h33v1h-33zM20,146h33v1h-33zM305,146h34v1h-34zM381,146h34v1h-34zM459,146h32v1h-32zM20,147h33v1h-33zM305,147h34v1h-34zM381,147h34v1h-34zM459,147h33v1h-33zM20,148h33v1h-33zM305,148h35v1h-35zM380,148h35v1h-35zM459,148h33v1h-33zM20,149h33v1h-33zM305,149h36v1h-36zM379,149h36v1h-36zM459,149h33v1h-33zM20,150h33v1h-33zM306,150h35v1h-35zM379,150h35v1h-35zM459,150h33v1h-33zM20,151h33v1h-33zM306,151h36v1h-36zM378,151h36v1h-36zM459,151h33v1h-33zM20,152h33v1h-33zM306,152h37v1h-37zM377,152h37v1h-37zM459,152h33v1h-33zM20,153h33v1h-33zM306,153h38v1h-38zM376,153h38v1h-38zM459,153h33v1h-33zM20,154h33v1h-33zM307,154h38v1h-38zM375,154h38v1h-38zM459,154h33v1h-33zM20,155h33v1h-33zM307,155h40v1h-40zM373,155h40v1h-40zM459,155h33v1h-33zM20,156h32v1h-32zM308,156h40v1h-40zM372,156h40v1h-40zM459,156h33v1h-33zM19,157h33v1h-33zM308,157h42v1h-42zM370,157h42v1h-42zM459,157h33v1h-33zM19,158h33v1h-33zM308,158h45v1h-45zM367,158h45v1h-45zM460,158h32v1h-32zM19,159h33v1h-33zM309,159h102v1h-102zM460,159h33v1h-33zM19,160h33v1h-33zM309,160h102v1h-102zM460,160h33v1h-33zM19,161h33v1h-33zM310,161h100v1h-100zM460,161h33v1h-33zM19,162h33v1h-33zM310,162h100v1h-100zM460,162h33v1h-33zM19,163h33v1h-33zM311,163h98v1h-98zM460,163h33v1h-33zM19,164h33v1h-33zM311,164h98v1h-98zM460,164h33v1h-33zM19,165h33v1h-33zM312,165h96v1h-96zM460,165h33v1h-33zM19,166h33v1h-33zM313,166h94v1h-94zM460,166h33v1h-33zM19,167h33v1h-33zM313,167h94v1h-94zM460,167h33v1h-33zM19,168h33v1h-33zM314,168h92v1h-92zM460,168h33v1h-33zM19,169h32v1h-32zM315,169h90v1h-90zM460,169h33v1h-33zM19,170h32v1h-32zM316,170h89v1h-89zM460,170h33v1h-33zM18,171h33v1h-33zM316,171h88v1h-88zM461,171h32v1h-32zM18,172h33v1h-33zM317,172h86v1h-86zM461,172h32v1h-32zM18,173h33v1h-33zM318,173h84v1h-84zM461,173h33v1h-33zM18,174h33v1h-33zM319,174h82v1h-82zM461,174h33v1h-33zM18,175h33v1h-33zM320,175h80v1h-80zM461,175h33v1h-33zM18,176h33v1h-33zM321,176h78v1h-78zM461,176h33v1h-33zM18,177h33v1h-33zM322,177h76v1h-76zM461,177h33v1h-33zM18,178h33v1h-33zM323,178h74v1h-74zM461,178h33v1h-33zM18,179h33v1h-33zM324,179h72v1h-72zM461,179h33v1h-33zM18,180h33v1h-33zM326,180h69v1h-69zM461,180h33v1h-33zM18,181h33v1h-33zM327,181h66v1h-66zM461,181h33v1h-33zM18,182h33v1h-33zM328,182h64v1h-64zM461,182h33v1h-33zM18,183h33v1h-33zM330,183h60v1h-60zM461,183h33v1h-33zM18,184h33v1h-33zM331,184h58v1h-58zM461,184h33v1h-33zM18,185h32v1h-32zM333,185h54v1h-54zM461,185h33v1h-33zM18,186h32v1h-32zM335,186h50v1h-50zM461,186h33v1h-33zM18,187h32v1h-32zM337,187h46v1h-46zM462,187h32v1h-32zM17,188h33v1h-33zM340,188h40v1h-40zM462,188h32v1h-32zM17,189h33v1h-33zM342,189h36v1h-36zM462,189h33v1h-33zM17,190h33v1h-33zM346,190h28v1h-28zM462,190h33v1h-33zM17,191h33v1h-33zM350,191h20v1h-20zM462,191h33v1h-33zM17,192h33v1h-33zM462,192h33v1h-33zM17,193h33v1h-33zM462,193h33v1h-33zM17,194h33v1h-33zM462,194h33v1h-33zM17,195h33v1h-33zM462,195h33v1h-33zM17,196h33v1h-33zM462,196h33v1h-33zM17,197h33v1h-33zM462,197h33v1h-33zM17,198h33v1h-33zM462,198h33v1h-33zM17,199h33v1h-33zM462,199h33v1h-33zM17,200h33v1h-33zM462,200h33v1h-33zM17,201h33v1h-33zM462,201h33v1h-33zM17,202h33v1h-33zM462,202h33v1h-33zM17,203h33v1h-33zM462,203h33v1h-33zM17,204h33v1h-33zM462,204h33v1h-33zM17,205h32v1h-32zM462,205h33v1h-33zM17,206h32v1h-32zM463,206h32v1h-32zM17,207h32v1h-32zM463,207h32v1h-32zM17,208h32v1h-32zM463,208h32v1h-32zM16,209h33v1h-33zM463,209h32v1h-32zM16,210h33v1h-33zM463,210h32v1h-32zM16,211h33v1h-33zM463,211h33v1h-33zM16,212h33v1h-33zM463,212h33v1h-33zM16,213h33v1h-33zM463,213h33v1h-33zM16,214h33v1h-33zM463,214h33v1h-33zM16,215h33v1h-33zM463,215h33v1h-33zM16,216h33v1h-33zM463,216h33v1h-33zM16,217h33v1h-33zM463,217h33v1h-33zM16,218h33v1h-33zM463,218h33v1h-33zM16,219h33v1h-33zM463,219h33v1h-33zM16,220h33v1h-33zM463,220h33v1h-33zM16,221h33v1h-33zM463,221h33v1h-33zM16,222h33v1h-33zM463,222h33v1h-33zM16,223h33v1h-33zM463,223h33v1h-33zM16,224h33v1h-33zM463,224h33v1h-33zM16,225h33v1h-33zM463,225h33v1h-33zM16,226h33v1h-33zM463,226h33v1h-33zM16,227h33v1h-33zM463,227h33v1h-33zM16,228h33v1h-33zM463,228h33v1h-33zM16,229h33v1h-33zM463,229h33v1h-33zM16,230h33v1h-33zM463,230h33v1h-33zM16,231h33v1h-33zM463,231h33v1h-33zM16,232h33v1h-33zM463,232h33v1h-33zM16,233h33v1h-33zM463,233h33v1h-33zM16,234h33v1h-33zM463,234h33v1h-33zM16,235h33v1h-33zM463,235h33v1h-33zM16,236h33v1h-33zM463,236h33v1h-33zM16,237h33v1h-33zM463,237h33v1h-33zM16,238h33v1h-33zM463,238h33v1h-33zM16,239h32v1h-32zM463,239h33v1h-33zM16,240h32v1h-32zM463,240h33v1h-33zM16,241h32v1h-32zM463,241h33v1h-33zM16,242h32v1h-32zM463,242h33v1h-33zM16,243h32v1h-32zM464,243h32v1h-32zM16,244h32v1h-32zM464,244h32v1h-32zM16,245h32v1h-32zM464,245h32v1h-32zM16,246h32v1h-32zM464,246h32v1h-32zM16,247h32v1h-32zM464,247h32v1h-32zM16,248h32v1h-32zM90,248h45v1h-45zM464,248h32v1h-32zM16,249h32v1h-32zM80,249h65v1h-65zM464,249h32v1h-32zM16,250h32v1h-32zM72,250h81v1h-81zM464,250h32v1h-32zM16,251h32v1h-32zM66,251h93v1h-93zM464,251h32v1h-32zM16,252h32v1h-32zM60,252h105v1h-105zM464,252h32v1h-32zM16,253h32v1h-32zM55,253h115v1h-115zM464,253h32v1h-32zM16,254h158v1h-158zM464,254h32v1h-32zM16,255h163v1h-163zM464,255h32v1h-32zM16,256h167v1h-167zM464,256h32v1h-32zM16,257h170v1h-170zM464,257h32v1h-32zM16,258h174v1h-174zM464,258h32v1h-32zM16,259h177v1h-177zM464,259h32v1h-32zM16,260h181v1h-181zM464,260h32v1h-32zM16,261h184v1h-184zM464,261h32v1h-32zM16,262h187v1h-187zM464,262h32v1h-32zM16,263h190v1h-190zM464,263h32v1h-32zM16,264h193v1h-193zM464,264h32v1h-32zM16,265h195v1h-195zM464,265h32v1h-32zM16,266h198v1h-198zM464,266h32v1h-32zM16,267h201v1h-201zM463,267h33v1h-33zM16,268h203v1h-203zM463,268h33v1h-33zM16,269h205v1h-205zM463,269h33v1h-33zM16,270h208v1h-208zM463,270h33v1h-33zM16,271h210v1h-210zM463,271h33v1h-33zM16,272h212v1h-212zM463,272h33v1h-33zM16,273h215v1h-215zM463,273h33v1h-33zM16,274h217v1h-217zM463,274h33v1h-33zM16,275h219v1h-219zM463,275h33v1h-33zM16,276h221v1h-221zM463,276h33v1h-33zM16,277h223v1h-223zM463,277h33v1h-33zM16,278h225v1h-225zM463,278h33v1h-33zM16,279h227v1h-227zM463,279h33v1h-33zM16,280h90v1h-90zM119,280h126v1h-126zM463,280h33v1h-33zM16,281h73v1h-73zM136,281h111v1h-111zM463,281h33v1h-33zM16,282h64v1h-64zM144,282h104v1h-104zM463,282h33v1h-33zM16,283h57v1h-57zM151,283h99v1h-99zM463,283h33v1h-33zM16,284h51v1h-51zM157,284h95v1h-95zM463,284h33v1h-33zM16,285h46v1h-46zM162,285h92v1h-92zM463,285h33v1h-33zM16,286h41v1h-41zM167,286h89v1h-89zM463,286h33v1h-33zM16,287h37v1h-37zM172,287h85v1h-85zM463,287h33v1h-33zM16,288h33v1h-33zM175,288h84v1h-84zM400,288h14v1h-14zM463,288h33v1h-33zM16,289h33v1h-33zM179,289h82v1h-82zM387,289h40v1h-40zM463,289h33v1h-33zM16,290h33v1h-33zM183,290h79v1h-79zM379,290h56v1h-56zM463,290h33v1h-33zM16,291h33v1h-33zM186,291h78v1h-78zM373,291h68v1h-68zM463,291h33v1h-33zM16,292h33v1h-33zM189,292h76v1h-76zM368,292h78v1h-78zM463,292h33v1h-33zM16,293h33v1h-33zM192,293h75v1h-75zM364,293h86v1h-86zM463,293h33v1h-33zM16,294h33v1h-33zM195,294h73v1h-73zM359,294h95v1h-95zM463,294h33v1h-33zM16,295h33v1h-33zM198,295h72v1h-72zM356,295h102v1h-102zM463,295h33v1h-33zM16,296h33v1h-33zM201,296h70v1h-70zM352,296h144v1h-144zM16,297h33v1h-33zM203,297h70v1h-70zM349,297h147v1h-147zM16,298h33v1h-33zM206,298h68v1h-68zM346,298h150v1h-150zM16,299h33v1h-33zM208,299h68v1h-68zM343,299h153v1h-153zM16,300h33v1h-33zM210,300h67v1h-67zM341,300h154v1h-154zM16,301h33v1h-33zM213,301h66v1h-66zM338,301h157v1h-157zM17,302h32v1h-32zM215,302h65v1h-65zM336,302h159v1h-159zM17,303h32v1h-32zM217,303h64v1h-64zM333,303h162v1h-162zM17,304h32v1h-32zM219,304h64v1h-64zM331,304h164v1h-164zM17,305h32v1h-32zM221,305h63v1h-63zM329,305h166v1h-166zM17,306h33v1h-33zM224,306h61v1h-61zM327,306h168v1h-168zM17,307h33v1h-33zM226,307h61v1h-61zM325,307h170v1h-170zM17,308h33v1h-33zM228,308h60v1h-60zM323,308h172v1h-172zM17,309h33v1h-33zM229,309h60v1h-60zM321,309h174v1h-174zM17,310h33v1h-33zM231,310h60v1h-60zM319,310h176v1h-176zM17,311h33v1h-33zM233,311h59v1h-59zM317,311h178v1h-178zM17,312h33v1h-33zM235,312h58v1h-58zM315,312h180v1h-180zM17,313h33v1h-33zM237,313h57v1h-57zM314,313h181v1h-181zM17,314h33v1h-33zM239,314h56v1h-56zM312,314h183v1h-183zM17,315h33v1h-33zM240,315h57v1h-57zM310,315h185v1h-185zM17,316h33v1h-33zM242,316h56v1h-56zM309,316h186v1h-186zM17,317h33v1h-33zM244,317h55v1h-55zM307,317h188v1h-188zM17,318h33v1h-33zM245,318h55v1h-55zM305,318h190v1h-190zM17,319h33v1h-33zM247,319h248v1h-248zM17,320h33v1h-33zM248,320h247v1h-247zM17,321h33v1h-33zM250,321h147v1h-147zM417,321h77v1h-77zM17,322h33v1h-33zM251,322h136v1h-136zM428,322h66v1h-66zM18,323h32v1h-32zM253,323h127v1h-127zM434,323h60v1h-60zM18,324h32v1h-32zM254,324h121v1h-121zM439,324h55v1h-55zM18,325h32v1h-32zM256,325h115v1h-115zM444,325h50v1h-50zM18,326h33v1h-33zM257,326h109v1h-109zM447,326h47v1h-47zM18,327h33v1h-33zM259,327h104v1h-104zM451,327h43v1h-43zM18,328h33v1h-33zM260,328h100v1h-100zM454,328h40v1h-40zM18,329h33v1h-33zM261,329h96v1h-96zM457,329h37v1h-37zM18,330h33v1h-33zM263,330h91v1h-91zM460,330h34v1h-34zM18,331h33v1h-33zM264,331h87v1h-87zM461,331h33v1h-33zM18,332h33v1h-33zM266,332h83v1h-83zM461,332h33v1h-33zM18,333h33v1h-33zM267,333h80v1h-80zM461,333h33v1h-33zM18,334h33v1h-33zM268,334h76v1h-76zM461,334h33v1h-33zM18,335h33v1h-33zM269,335h73v1h-73zM461,335h33v1h-33zM18,336h33v1h-33zM271,336h69v1h-69zM461,336h33v1h-33zM18,337h33v1h-33zM272,337h66v1h-66zM461,337h32v1h-32zM18,338h33v1h-33zM273,338h63v1h-63zM461,338h32v1h-32zM18,339h33v1h-33zM274,339h60v1h-60zM460,339h33v1h-33zM19,340h32v1h-32zM276,340h56v1h-56zM460,340h33v1h-33zM19,341h32v1h-32zM277,341h54v1h-54zM460,341h33v1h-33zM19,342h33v1h-33zM278,342h51v1h-51zM460,342h33v1h-33zM19,343h33v1h-33zM279,343h50v1h-50zM460,343h33v1h-33zM19,344h33v1h-33zM280,344h49v1h-49zM460,344h33v1h-33zM19,345h33v1h-33zM281,345h48v1h-48zM460,345h33v1h-33zM19,346h33v1h-33zM282,346h47v1h-47zM460,346h33v1h-33zM19,347h33v1h-33zM283,347h46v1h-46zM460,347h33v1h-33zM19,348h33v1h-33zM285,348h45v1h-45zM460,348h33v1h-33zM19,349h33v1h-33zM286,349h45v1h-45zM460,349h33v1h-33zM19,350h33v1h-33zM287,350h45v1h-45zM460,350h33v1h-33zM19,351h33v1h-33zM288,351h44v1h-44zM460,351h32v1h-32zM19,352h33v1h-33zM289,352h44v1h-44zM460,352h32v1h-32zM19,353h33v1h-33zM290,353h44v1h-44zM459,353h33v1h-33zM20,354h32v1h-32zM291,354h44v1h-44zM459,354h33v1h-33zM20,355h32v1h-32zM292,355h44v1h-44zM459,355h33v1h-33zM20,356h33v1h-33zM293,356h44v1h-44zM459,356h33v1h-33zM20,357h33v1h-33zM294,357h43v1h-43zM459,357h33v1h-33zM20,358h33v1h-33zM295,358h43v1h-43zM459,358h33v1h-33zM20,359h33v1h-33zM296,359h43v1h-43zM459,359h33v1h-33zM20,360h33v1h-33zM297,360h43v1h-43zM459,360h33v1h-33zM20,361h33v1h-33zM298,361h42v1h-42zM459,361h33v1h-33zM20,362h33v1h-33zM298,362h43v1h-43zM459,362h33v1h-33zM20,363h33v1h-33zM299,363h43v1h-43zM459,363h32v1h-32zM20,364h33v1h-33zM300,364h43v1h-43zM458,364h33v1h-33zM20,365h33v1h-33zM301,365h42v1h-42zM458,365h33v1h-33zM20,366h33v1h-33zM302,366h42v1h-42zM458,366h33v1h-33zM21,367h32v1h-32zM303,367h42v1h-42zM458,367h33v1h-33zM21,368h33v1h-33zM304,368h42v1h-42zM458,368h33v1h-33zM21,369h33v1h-33zM305,369h41v1h-41zM458,369h33v1h-33zM21,370h33v1h-33zM306,370h41v1h-41zM458,370h33v1h-33zM21,371h33v1h-33zM306,371h42v1h-42zM458,371h33v1h-33zM21,372h33v1h-33zM307,372h41v1h-41zM458,372h33v1h-33zM21,373h33v1h-33zM308,373h41v1h-41zM458,373h33v1h-33zM21,374h33v1h-33zM309,374h41v1h-41zM458,374h33v1h-33zM21,375h33v1h-33zM310,375h40v1h-40zM458,375h32v1h-32zM21,376h33v1h-33zM311,376h40v1h-40zM457,376h33v1h-33zM21,377h33v1h-33zM311,377h41v1h-41zM457,377h33v1h-33zM22,378h32v1h-32zM312,378h40v1h-40zM457,378h33v1h-33zM22,379h33v1h-33zM313,379h40v1h-40zM457,379h33v1h-33zM22,380h33v1h-33zM314,380h40v1h-40zM457,380h33v1h-33zM22,381h33v1h-33zM314,381h40v1h-40zM457,381h33v1h-33zM22,382h33v1h-33zM315,382h40v1h-40zM457,382h33v1h-33zM22,383h33v1h-33zM316,383h40v1h-40zM457,383h33v1h-33zM22,384h33v1h-33zM317,384h39v1h-39zM457,384h33v1h-33zM22,385h33v1h-33zM317,385h40v1h-40zM456,385h33v1h-33zM22,386h33v1h-33zM318,386h39v1h-39zM456,386h33v1h-33zM22,387h34v1h-34zM319,387h39v1h-39zM456,387h33v1h-33zM23,388h33v1h-33zM320,388h39v1h-39zM456,388h33v1h-33zM23,389h33v1h-33zM320,389h39v1h-39zM456,389h33v1h-33zM23,390h33v1h-33zM321,390h39v1h-39zM456,390h33v1h-33zM23,391h33v1h-33zM322,391h38v1h-38zM455,391h34v1h-34zM23,392h34v1h-34zM322,392h39v1h-39zM455,392h34v1h-34zM23,393h34v1h-34zM323,393h39v1h-39zM455,393h33v1h-33zM23,394h34v1h-34zM324,394h38v1h-38zM455,394h33v1h-33zM24,395h33v1h-33zM324,395h39v1h-39zM454,395h34v1h-34zM24,396h34v1h-34zM325,396h38v1h-38zM454,396h34v1h-34zM24,397h34v1h-34zM326,397h38v1h-38zM454,397h34v1h-34zM24,398h34v1h-34zM326,398h38v1h-38zM454,398h33v1h-33zM25,399h33v1h-33zM327,399h38v1h-38zM453,399h34v1h-34zM25,400h34v1h-34zM328,400h38v1h-38zM453,400h34v1h-34zM25,401h34v1h-34zM328,401h38v1h-38zM453,401h34v1h-34zM25,402h34v1h-34zM329,402h38v1h-38zM452,402h34v1h-34zM25,403h35v1h-35zM329,403h38v1h-38zM452,403h34v1h-34zM26,404h34v1h-34zM330,404h38v1h-38zM452,404h34v1h-34zM26,405h34v1h-34zM331,405h37v1h-37zM451,405h35v1h-35zM26,406h35v1h-35zM331,406h38v1h-38zM451,406h34v1h-34zM27,407h34v1h-34zM332,407h37v1h-37zM450,407h35v1h-35zM27,408h35v1h-35zM332,408h38v1h-38zM450,408h35v1h-35zM27,409h35v1h-35zM333,409h37v1h-37zM450,409h35v1h-35zM28,410h35v1h-35zM334,410h37v1h-37zM449,410h35v1h-35zM28,411h35v1h-35zM334,411h37v1h-37zM449,411h35v1h-35zM28,412h36v1h-36zM335,412h37v1h-37zM448,412h36v1h-36zM29,413h35v1h-35zM335,413h37v1h-37zM448,413h35v1h-35zM29,414h36v1h-36zM336,414h37v1h-37zM447,414h36v1h-36zM29,415h36v1h-36zM336,415h37v1h-37zM447,415h35v1h-35zM30,416h36v1h-36zM337,416h36v1h-36zM446,416h36v1h-36zM30,417h36v1h-36zM337,417h37v1h-37zM445,417h37v1h-37zM30,418h37v1h-37zM338,418h36v1h-36zM445,418h36v1h-36zM31,419h37v1h-37zM339,419h36v1h-36zM444,419h37v1h-37zM31,420h37v1h-37zM339,420h36v1h-36zM444,420h36v1h-36zM32,421h37v1h-37zM340,421h36v1h-36zM443,421h37v1h-37zM32,422h37v1h-37zM340,422h36v1h-36zM442,422h38v1h-38zM33,423h37v1h-37zM341,423h36v1h-36zM442,423h37v1h-37zM33,424h38v1h-38zM341,424h36v1h-36zM441,424h38v1h-38zM34,425h38v1h-38zM342,425h35v1h-35zM440,425h38v1h-38zM34,426h38v1h-38zM342,426h36v1h-36zM439,426h39v1h-39zM35,427h38v1h-38zM343,427h35v1h-35zM439,427h38v1h-38zM35,428h39v1h-39zM343,428h36v1h-36zM438,428h39v1h-39zM36,429h39v1h-39zM343,429h36v1h-36zM437,429h39v1h-39zM36,430h39v1h-39zM344,430h36v1h-36zM436,430h40v1h-40zM37,431h39v1h-39zM344,431h36v1h-36zM435,431h40v1h-40zM37,432h40v1h-40zM345,432h35v1h-35zM434,432h41v1h-41zM38,433h40v1h-40zM345,433h36v1h-36zM434,433h40v1h-40zM38,434h41v1h-41zM346,434h35v1h-35zM433,434h40v1h-40zM39,435h41v1h-41zM346,435h36v1h-36zM432,435h41v1h-41zM40,436h41v1h-41zM347,436h35v1h-35zM431,436h41v1h-41zM40,437h42v1h-42zM347,437h35v1h-35zM430,437h42v1h-42zM41,438h42v1h-42zM347,438h36v1h-36zM429,438h42v1h-42zM41,439h43v1h-43zM348,439h35v1h-35zM427,439h43v1h-43zM42,440h43v1h-43zM348,440h35v1h-35zM426,440h44v1h-44zM43,441h44v1h-44zM349,441h35v1h-35zM425,441h44v1h-44zM43,442h45v1h-45zM349,442h35v1h-35zM424,442h44v1h-44zM44,443h45v1h-45zM349,443h35v1h-35zM423,443h45v1h-45zM45,444h45v1h-45zM350,444h35v1h-35zM421,444h46v1h-46zM46,445h46v1h-46zM350,445h35v1h-35zM420,445h46v1h-46zM46,446h47v1h-47zM351,446h34v1h-34zM419,446h46v1h-46zM47,447h47v1h-47zM351,447h35v1h-35zM417,447h48v1h-48zM48,448h48v1h-48zM351,448h35v1h-35zM416,448h48v1h-48zM49,449h49v1h-49zM352,449h34v1h-34zM414,449h49v1h-49zM50,450h49v1h-49zM352,450h35v1h-35zM412,450h50v1h-50zM50,451h51v1h-51zM353,451h34v1h-34zM411,451h50v1h-50zM51,452h52v1h-52zM353,452h34v1h-34zM409,452h52v1h-52zM52,453h53v1h-53zM353,453h35v1h-35zM407,453h53v1h-53zM53,454h54v1h-54zM354,454h34v1h-34zM405,454h54v1h-54zM54,455h55v1h-55zM354,455h34v1h-34zM403,455h55v1h-55zM55,456h56v1h-56zM354,456h35v1h-35zM400,456h57v1h-57zM56,457h58v1h-58zM355,457h34v1h-34zM398,457h58v1h-58zM57,458h60v1h-60zM355,458h34v1h-34zM395,458h60v1h-60zM58,459h62v1h-62zM355,459h99v1h-99zM59,460h64v1h-64zM355,460h98v1h-98zM60,461h68v1h-68zM355,461h97v1h-97zM61,462h72v1h-72zM355,462h96v1h-96zM62,463h81v1h-81zM355,463h95v1h-95zM63,464h386v1h-386zM64,465h384v1h-384zM65,466h381v1h-381zM67,467h378v1h-378zM68,468h376v1h-376zM69,469h374v1h-374zM70,470h371v1h-371zM72,471h368v1h-368zM73,472h366v1h-366zM75,473h362v1h-362zM76,474h360v1h-360zM78,475h356v1h-356zM79,476h354v1h-354zM81,477h350v1h-350zM82,478h347v1h-347zM84,479h344v1h-344zM86,480h340v1h-340zM88,481h336v1h-336zM90,482h332v1h-332zM92,483h328v1h-328zM94,484h324v1h-324zM96,485h320v1h-320zM98,486h315v1h-315zM101,487h310v1h-310zM103,488h305v1h-305zM106,489h299v1h-299zM109,490h293v1h-293zM113,491h286v1h-286zM116,492h279v1h-279zM121,493h270v1h-270zM126,494h260v1h-260zM133,495h246v1h-246z"/></svg>