<?xml version="1.0" encoding="UTF-8"?>
<svg xmlns="http://www.w3.org/2000/svg" viewBox="0 0 512 512" width="512" height="512"><path fill="#000" d="M131,16h10v1h-10zM195,16h290v1h-290zM128,17h16v1h-16zM192,17h296v1h-296zM127,18h18v1h-18zM191,18h298v1h-298zM125,19h21v1h-21zM189,19h301v1h-301zM124,20h24v1h-24zM188,20h304v1h-304zM123,21h25v1h-25zM187,21h305v1h-305zM123,22h26v1h-26zM187,22h306v1h-306zM122,23h28v1h-28zM186,23h308v1h-308zM121,24h29v1h-29zM185,24h309v1h-309zM121,25h30v1h-30zM185,25h310v1h-310zM121,26h30v1h-30zM185,26h310v1h-310zM120,27h32v1h-32zM184,27h312v1h-312zM120,28h32v1h-32zM184,28h312v1h-312zM120,29h32v1h-32zM184,29h312v1h-312zM120,30h32v1h-32zM184,30h312v1h-312zM120,31h32v1h-32zM184,31h312v1h-312zM120,32h32v1h-32zM184,32h312v1h-312zM120,33h32v1h-32zM184,33h312v1h-312zM120,34h32v1h-32zM184,34h312v1h-312zM120,35h32v1h-32zM184,35h312v1h-312zM120,36h32v1h-32zM184,36h312v1h-312zM120,37h32v1h-32zM185,37h310v1h-310zM120,38h32v1h-32zM185,38h310v1h-310zM120,39h32v1h-32zM185,39h310v1h-310zM120,40h32v1h-32zM186,40h308v1h-308zM120,41h32v1h-32zM187,41h306v1h-306zM120,42h32v1h-32zM188,42h304v1h-304zM120,43h32v1h-32zM188,43h304v1h-304zM120,44h32v1h-32zM190,44h300v1h-300zM120,45h32v1h-32zM191,45h298v1h-298zM120,46h32v1h-32zM193,46h295v1h-295zM120,47h32v1h-32zM195,47h290v1h-290zM120,48h32v1h-32zM120,49h32v1h-32zM120,50h32v1h-32zM120,51h32v1h-32zM120,52h32v1h-32zM120,53h32v1h-32zM120,54h32v1h-32zM120,55h32v1h-32zM120,56h32v1h-32zM120,57h32v1h-32zM120,58h32v1h-32zM120,59h32v1h-32zM120,60h32v1h-32zM120,61h32v1h-32zM120,62h32v1h-32zM120,63h32v1h-32zM120,64h32v1h-32zM120,65h32v1h-32zM120,66h32v1h-32zM120,67h32v1h-32zM120,68h32v1h-32zM120,69h32v1h-32zM120,70h32v1h-32zM120,71h32v1h-32zM120,72h32v1h-32zM120,73h32v1h-32zM120,74h32v1h-32zM120,75h32v1h-32zM120,76h32v1h-32zM120,77h32v1h-32zM120,78h32v1h-32zM120,79h32v1h-32zM120,80h32v1h-32zM120,81h32v1h-32zM120,82h32v1h-32zM120,83h32v1h-32zM120,84h32v1h-32zM120,85h32v1h-32zM120,86h32v1h-32zM120,87h32v1h-32zM120,88h32v1h-32zM120,89h32v1h-32zM120,90h32v1h-32zM120,91h32v1h-32zM120,92h32v1h-32zM120,93h32v1h-32zM120,94h32v1h-32zM120,95h32v1h-32zM120,96h32v1h-32zM195,96h234v1h-234zM120,97h32v1h-32zM192,97h240v1h-240zM120,98h32v1h-32zM191,98h242v1h-242zM120,99h32v1h-32zM189,99h245v1h-245zM120,100h32v1h-32zM188,100h248v1h-248zM120,101h32v1h-32zM187,101h249v1h-249zM120,102h32v1h-32zM187,102h250v1h-250zM120,103h32v1h-32zM186,103h252v1h-252zM120,104h32v1h-32zM185,104h253v1h-253zM120,105h32v1h-32zM185,105h254v1h-254zM120,106h32v1h-32zM185,106h254v1h-254zM120,107h32v1h-32zM184,107h256v1h-256zM120,108h32v1h-32zM184,108h256v1h-256zM120,109h32v1h-32zM184,109h256v1h-256zM120,110h32v1h-32zM184,110h256v1h-256zM120,111h32v1h-32zM184,111h256v1h-256zM120,112h32v1h-32zM184,112h256v1h-256zM120,113h32v1h-32zM184,113h256v1h-256zM120,114h32v1h-32zM184,114h256v1h-256zM120,115h32v1h-32zM184,115h256v1h-256zM120,116h32v1h-32zM184,116h256v1h-256zM120,117h32v1h-32zM185,117h254v1h-254zM120,118h32v1h-32zM185,118h254v1h-254zM120,119h32v1h-32zM185,119h254v1h-254zM120,120h32v1h-32zM186,120h252v1h-252zM120,121h32v1h-32zM187,121h250v1h-250zM120,122h32v1h-32zM188,122h248v1h-248zM120,123h32v1h-32zM188,123h248v1h-248zM120,124h32v1h-32zM190,124h244v1h-244zM120,125h32v1h-32zM191,125h242v1h-242zM120,126h32v1h-32zM193,126h239v1h-239zM120,127h32v1h-32zM195,127h234v1h-234zM120,128h32v1h-32zM120,129h32v1h-32zM120,130h32v1h-32zM120,131h32v1h-32zM120,132h32v1h-32zM120,133h32v1h-32zM120,134h32v1h-32zM120,135h32v1h-32zM120,136h32v1h-32zM120,137h32v1h-32zM120,138h32v1h-32zM120,139h32v1h-32zM120,140h32v1h-32zM120,141h32v1h-32zM120,142h32v1h-32zM120,143h32v1h-32zM120,144h32v1h-32zM120,145h32v1h-32zM120,146h32v1h-32zM120,147h32v1h-32zM120,148h32v1h-32zM120,149h32v1h-32zM120,150h32v1h-32zM120,151h32v1h-32zM120,152h32v1h-32zM120,153h32v1h-32zM120,154h32v1h-32zM120,155h32v1h-32zM120,156h32v1h-32zM120,157h32v1h-32zM120,158h32v1h-32zM120,159h32v1h-32zM120,160h32v1h-32zM120,161h32v1h-32zM120,162h32v1h-32zM120,163h32v1h-32zM120,164h32v1h-32zM120,165h32v1h-32zM120,166h32v1h-32zM120,167h32v1h-32zM120,168h32v1h-32zM120,169h32v1h-32zM120,170h32v1h-32zM120,171h32v1h-32zM120,172h32v1h-32zM120,173h32v1h-32zM120,174h32v1h-32zM120,175h32v1h-32zM120,176h32v1h-32zM195,176h186v1h-186zM120,177h32v1h-32zM192,177h192v1h-192zM120,178h32v1h-32zM191,178h194v1h-194zM120,179h32v1h-32zM189,179h197v1h-197zM120,180h32v1h-32zM188,180h200v1h-200zM120,181h32v1h-32zM187,181h201v1h-201zM120,182h32v1h-32zM187,182h202v1h-202zM120,183h32v1h-32zM186,183h204v1h-204zM120,184h32v1h-32zM185,184h205v1h-205zM120,185h32v1h-32zM185,185h206v1h-206zM120,186h32v1h-32zM185,186h206v1h-206zM120,187h32v1h-32zM184,187h208v1h-208zM120,188h32v1h-32zM184,188h208v1h-208zM120,189h32v1h-32zM184,189h208v1h-208zM120,190h32v1h-32zM184,190h208v1h-208zM120,191h32v1h-32zM184,191h208v1h-208zM120,192h32v1h-32zM184,192h208v1h-208zM120,193h32v1h-32zM184,193h208v1h-208zM120,194h32v1h-32zM184,194h208v1h-208zM120,195h32v1h-32zM184,195h208v1h-208zM120,196h32v1h-32zM184,196h208v1h-208zM120,197h32v1h-32zM185,197h206v1h-206zM120,198h32v1h-32zM185,198h206v1h-206zM120,199h32v1h-32zM185,199h206v1h-206zM120,200h32v1h-32zM186,200h204v1h-204zM120,201h32v1h-32zM187,201h202v1h-202zM120,202h32v1h-32zM188,202h200v1h-200zM120,203h32v1h-32zM188,203h200v1h-200zM120,204h32v1h-32zM190,204h196v1h-196zM120,205h32v1h-32zM191,205h194v1h-194zM120,206h32v1h-32zM193,206h191v1h-191zM120,207h32v1h-32zM195,207h186v1h-186zM120,208h32v1h-32zM120,209h32v1h-32zM120,210h32v1h-32zM120,211h32v1h-32zM120,212h32v1h-32zM120,213h32v1h-32zM120,214h32v1h-32zM120,215h32v1h-32zM120,216h32v1h-32zM120,217h32v1h-32zM120,218h32v1h-32zM120,219h32v1h-32zM120,220h32v1h-32zM120,221h32v1h-32zM120,222h32v1h-32zM120,223h32v1h-32zM120,224h32v1h-32zM120,225h32v1h-32zM120,226h32v1h-32zM120,227h32v1h-32zM120,228h32v1h-32zM120,229h32v1h-32zM120,230h32v1h-32zM120,231h32v1h-32zM120,232h32v1h-32zM120,233h32v1h-32zM120,234h32v1h-32zM120,235h32v1h-32zM120,236h32v1h-32zM120,237h32v1h-32zM120,238h32v1h-32zM120,239h32v1h-32zM120,240h32v1h-32zM120,241h32v1h-32zM120,242h32v1h-32zM120,243h32v1h-32zM120,244h32v1h-32zM120,245h32v1h-32zM120,246h32v1h-32zM120,247h32v1h-32zM120,248h32v1h-32zM120,249h32v1h-32zM120,250h32v1h-32zM120,251h32v1h-32zM120,252h32v1h-32zM120,253h32v1h-32zM120,254h32v1h-32zM120,255h32v1h-32zM120,256h32v1h-32zM195,256h138v1h-138zM120,257h32v1h-32zM192,257h144v1h-144zM120,258h32v1h-32zM191,258h146v1h-146zM120,259h32v1h-32zM189,259h149v1h-149zM120,260h32v1h-32zM188,260h152v1h-152zM120,261h32v1h-32zM187,261h153v1h-153zM120,262h32v1h-32zM187,262h154v1h-154zM120,263h32v1h-32zM186,263h156v1h-156zM120,264h32v1h-32zM185,264h157v1h-157zM120,265h32v1h-32zM185,265h158v1h-158zM120,266h32v1h-32zM185,266h158v1h-158zM120,267h32v1h-32zM184,267h160v1h-160zM120,268h32v1h-32zM184,268h160v1h-160zM120,269h32v1h-32zM184,269h160v1h-160zM120,270h32v1h-32zM184,270h160v1h-160zM120,271h32v1h-32zM184,271h160v1h-160zM120,272h32v1h-32zM184,272h160v1h-160zM120,273h32v1h-32zM184,273h160v1h-160zM120,274h32v1h-32zM184,274h160v1h-160zM120,275h32v1h-32zM184,275h160v1h-160zM120,276h32v1h-32zM184,276h160v1h-160zM120,277h32v1h-32zM185,277h158v1h-158zM120,278h32v1h-32zM185,278h158v1h-158zM120,279h32v1h-32zM185,279h158v1h-158zM120,280h32v1h-32zM186,280h156v1h-156zM120,281h32v1h-32zM187,281h154v1h-154zM120,282h32v1h-32zM188,282h152v1h-152zM120,283h32v1h-32zM188,283h152v1h-152zM120,284h32v1h-32zM190,284h148v1h-148zM120,285h32v1h-32zM191,285h146v1h-146zM120,286h32v1h-32zM193,286h143v1h-143zM120,287h32v1h-32zM195,287h138v1h-138zM120,288h32v1h-32zM120,289h32v1h-32zM120,290h32v1h-32zM120,291h32v1h-32zM120,292h32v1h-32zM120,293h32v1h-32zM120,294h32v1h-32zM120,295h32v1h-32zM120,296h32v1h-32zM120,297h32v1h-32zM120,298h32v1h-32zM120,299h32v1h-32zM120,300h32v1h-32zM120,301h32v1h-32zM120,302h32v1h-32zM120,303h32v1h-32zM120,304h32v1h-32zM120,305h32v1h-32zM120,306h32v1h-32zM120,307h32v1h-32zM120,308h32v1h-32zM120,309h32v1h-32zM120,310h32v1h-32zM120,311h32v1h-32zM120,312h32v1h-32zM120,313h32v1h-32zM120,314h32v1h-32zM120,315h32v1h-32zM120,316h32v1h-32zM120,317h32v1h-32zM120,318h32v1h-32zM120,319h32v1h-32zM120,320h32v1h-32zM120,321h32v1h-32zM120,322h32v1h-32zM120,323h32v1h-32zM120,324h32v1h-32zM120,325h32v1h-32zM120,326h32v1h-32zM120,327h32v1h-32zM120,328h32v1h-32zM120,329h32v1h-32zM120,330h32v1h-32zM120,331h32v1h-32zM120,332h32v1h-32zM120,333h32v1h-32zM120,334h32v1h-32zM120,335h32v1h-32zM120,336h32v1h-32zM120,337h32v1h-32zM120,338h32v1h-32zM120,339h32v1h-32zM120,340h32v1h-32zM120,341h32v1h-32zM120,342h32v1h-32zM120,343h32v1h-32zM120,344h32v1h-32zM120,345h32v1h-32zM120,346h32v1h-32zM120,347h32v1h-32zM120,348h32v1h-32zM120,349h32v1h-32zM120,350h32v1h-32zM120,351h32v1h-32zM120,352h32v1h-32zM120,353h32v1h-32zM120,354h32v1h-32zM120,355h32v1h-32zM120,356h32v1h-32zM120,357h32v1h-32zM120,358h32v1h-32zM120,359h32v1h-32zM27,360h10v1h-10zM120,360h32v1h-32zM235,360h10v1h-10zM24,361h16v1h-16zM120,361h32v1h-32zM232,361h16v1h-16zM23,362h18v1h-18zM120,362h32v1h-32zM231,362h18v1h-18zM21,363h22v1h-22zM120,363h32v1h-32zM229,363h22v1h-22zM20,364h24v1h-24zM120,364h32v1h-32zM228,364h24v1h-24zM19,365h26v1h-26zM120,365h32v1h-32zM227,365h26v1h-26zM19,366h27v1h-27zM120,366h32v1h-32zM226,366h27v1h-27zM18,367h29v1h-29zM120,367h32v1h-32zM225,367h29v1h-29zM17,368h31v1h-31zM120,368h32v1h-32zM224,368h31v1h-31zM17,369h32v1h-32zM120,369h32v1h-32zM223,369h32v1h-32zM17,370h33v1h-33zM120,370h32v1h-32zM222,370h33v1h-33zM16,371h35v1h-35zM120,371h32v1h-32zM221,371h35v1h-35zM16,372h36v1h-36zM120,372h32v1h-32zM220,372h36v1h-36zM16,373h37v1h-37zM120,373h32v1h-32zM219,373h37v1h-37zM16,374h38v1h-38zM120,374h32v1h-32zM218,374h38v1h-38zM16,375h39v1h-39zM120,375h32v1h-32zM217,375h39v1h-39zM16,376h40v1h-40zM120,376h32v1h-32zM216,376h40v1h-40zM16,377h41v1h-41zM120,377h32v1h-32zM215,377h41v1h-41zM16,378h42v1h-42zM120,378h32v1h-32zM214,378h42v1h-42zM16,379h43v1h-43zM120,379h32v1h-32zM213,379h43v1h-43zM16,380h44v1h-44zM120,380h32v1h-32zM212,380h44v1h-44zM17,381h44v1h-44zM120,381h32v1h-32zM211,381h44v1h-44zM17,382h45v1h-45zM120,382h32v1h-32zM210,382h45v1h-45zM17,383h46v1h-46zM120,383h32v1h-32zM209,383h46v1h-46zM18,384h46v1h-46zM120,384h32v1h-32zM208,384h46v1h-46zM19,385h46v1h-46zM120,385h32v1h-32zM207,385h46v1h-46zM19,386h47v1h-47zM120,386h32v1h-32zM206,386h47v1h-47zM20,387h47v1h-47zM120,387h32v1h-32zM205,387h47v1h-47zM21,388h47v1h-47zM120,388h32v1h-32zM204,388h47v1h-47zM22,389h47v1h-47zM120,389h32v1h-32zM203,389h47v1h-47zM23,390h47v1h-47zM120,390h32v1h-32zM202,390h47v1h-47zM24,391h47v1h-47zM120,391h32v1h-32zM201,391h47v1h-47zM25,392h47v1h-47zM120,392h32v1h-32zM200,392h47v1h-47zM26,393h47v1h-47zM120,393h32v1h-32zM199,393h47v1h-47zM27,394h47v1h-47zM120,394h32v1h-32zM198,394h47v1h-47zM28,395h47v1h-47zM120,395h32v1h-32zM197,395h47v1h-47zM29,396h47v1h-47zM120,396h32v1h-32zM196,396h47v1h-47zM30,397h47v1h-47zM120,397h32v1h-32zM195,397h47v1h-47zM31,398h47v1h-47zM120,398h32v1h-32zM194,398h47v1h-47zM32,399h47v1h-47zM120,399h32v1h-32zM193,399h47v1h-47zM33,400h47v1h-47zM120,400h32v1h-32zM192,400h47v1h-47zM34,401h47v1h-47zM120,401h32v1h-32zM191,401h47v1h-47zM35,402h47v1h-47zM120,402h32v1h-32zM190,402h47v1h-47zM36,403h47v1h-47zM120,403h32v1h-32zM189,403h47v1h-47zM37,404h47v1h-47zM120,404h32v1h-32zM188,404h47v1h-47zM38,405h47v1h-47zM120,405h32v1h-32zM187,405h47v1h-47zM39,406h47v1h-47zM120,406h32v1h-32zM186,406h47v1h-47zM40,407h47v1h-47zM120,407h32v1h-32zM185,407h47v1h-47zM41,408h47v1h-47zM120,408h32v1h-32zM184,408h47v1h-47zM42,409h47v1h-47zM120,409h32v1h-32zM183,409h47v1h-47zM43,410h47v1h-47zM120,410h32v1h-32zM182,410h47v1h-47zM44,411h47v1h-47zM120,411h32v1h-32zM181,411h47v1h-47zM45,412h47v1h-47zM120,412h32v1h-32zM180,412h47v1h-47zM46,413h47v1h-47zM120,413h32v1h-32zM179,413h47v1h-47zM47,414h47v1h-47zM120,414h32v1h-32zM178,414h47v1h-47zM48,415h47v1h-47zM120,415h32v1h-32zM177,415h47v1h-47zM49,416h47v1h-47zM120,416h32v1h-32zM176,416h47v1h-47zM50,417h47v1h-47zM120,417h32v1h-32zM175,417h47v1h-47zM51,418h47v1h-47zM120,418h32v1h-32zM174,418h47v1h-47zM52,419h47v1h-47zM120,419h32v1h-32zM173,419h47v1h-47zM53,420h47v1h-47zM120,420h32v1h-32zM172,420h47v1h-47zM54,421h47v1h-47zM120,421h32v1h-32zM171,421h47v1h-47zM55,422h47v1h-47zM120,422h32v1h-32zM170,422h47v1h-47zM56,423h47v1h-47zM120,423h32v1h-32zM169,423h47v1h-47zM57,424h47v1h-47zM120,424h32v1h-32zM168,424h47v1h-47zM58,425h47v1h-47zM120,425h32v1h-32zM167,425h47v1h-47zM59,426h47v1h-47zM120,426h32v1h-32zM166,426h47v1h-47zM60,427h47v1h-47zM120,427h32v1h-32zM165,427h47v1h-47zM61,428h47v1h-47zM120,428h32v1h-32zM164,428h47v1h-47zM62,429h47v1h-47zM120,429h32v1h-32zM163,429h47v1h-47zM63,430h47v1h-47zM120,430h32v1h-32zM162,430h47v1h-47zM64,431h47v1h-47zM120,431h32v1h-32zM161,431h47v1h-47zM65,432h47v1h-47zM120,432h32v1h-32zM160,432h47v1h-47zM66,433h47v1h-47zM120,433h32v1h-32zM159,433h47v1h-47zM67,434h47v1h-47zM120,434h32v1h-32zM158,434h47v1h-47zM68,435h47v1h-47zM120,435h32v1h-32zM157,435h47v1h-47zM69,436h134v1h-134zM70,437h132v1h-132zM71,438h130v1h-130zM72,439h128v1h-128zM73,440h126v1h-126zM74,441h124v1h-124zM75,442h122v1h-122zM76,443h120v1h-120zM77,444h118v1h-118zM78,445h116v1h-116zM79,446h114v1h-114zM80,447h112v1h-112zM81,448h110v1h-110zM82,449h108v1h-108zM83,450h106v1h-106zM84,451h104v1h-104zM85,452h102v1h-102zM86,453h100v1h-100zM87,454h98v1h-98zM88,455h96v1h-96zM89,456h94v1h-94zM90,457h92v1h-92zM91,458h90v1h-90zM92,459h88v1h-88zM93,460h86v1h-86zM94,461h84v1h-84zM95,462h82v1h-82zM96,463h80v1h-80zM97,464h78v1h-78zM98,465h76v1h-76zM99,466h74v1h-74zM100,467h72v1h-72zM101,468h70v1h-70zM102,469h68v1h-68zM103,470h66v1h-66zM104,471h64v1h-64zM105,472h62v1h-62zM106,473h60v1h-60zM107,474h58v1h-58zM108,475h56v1h-56zM109,476h54v1h-54zM110,477h52v1h-52zM111,478h50v1h-50zM112,479h48v1h-48zM113,480h46v1h-46zM114,481h44v1h-44zM115,482h42v1h-42zM116,483h40v1h-40zM117,484h38v1h-38zM118,485h36v1h-36zM119,486h34v1h-34zM120,487h32v1h-32zM121,488h30v1h-30zM122,489h28v1h-28zM123,490h26v1h-26zM124,491h24v1h-24zM125,492h22v1h-22zM127,493h18v1h-18zM128,494h16v1h-16zM131,495h10v1h-10z"/></svg>