<?xml version="1.0" encoding="UTF-8"?>
<svg xmlns="http://www.w3.org/2000/svg" viewBox="0 0 512 512" width="512" height="512"><path fill="#000" d="M27,16h10v1h-10zM24,17h16v1h-16zM23,18h18v1h-18zM21,19h21v1h-21zM20,20h24v1h-24zM19,21h26v1h-26zM19,22h27v1h-27zM18,23h29v1h-29zM17,24h31v1h-31zM203,24h282v1h-282zM17,25h32v1h-32zM200,25h288v1h-288zM17,26h33v1h-33zM199,26h290v1h-290zM16,27h35v1h-35zM197,27h293v1h-293zM16,28h36v1h-36zM196,28h296v1h-296zM16,29h37v1h-37zM195,29h297v1h-297zM16,30h38v1h-38zM195,30h298v1h-298zM16,31h39v1h-39zM194,31h300v1h-300zM16,32h40v1h-40zM193,32h301v1h-301zM16,33h41v1h-41zM193,33h302v1h-302zM16,34h42v1h-42zM193,34h302v1h-302zM16,35h43v1h-43zM192,35h304v1h-304zM16,36h44v1h-44zM192,36h304v1h-304zM16,37h45v1h-45zM192,37h304v1h-304zM16,38h46v1h-46zM192,38h304v1h-304zM16,39h47v1h-47zM192,39h304v1h-304zM16,40h48v1h-48zM192,40h304v1h-304zM16,41h49v1h-49zM192,41h304v1h-304zM16,42h50v1h-50zM192,42h304v1h-304zM16,43h51v1h-51zM192,43h304v1h-304zM16,44h52v1h-52zM192,44h304v1h-304zM16,45h53v1h-53zM193,45h302v1h-302zM16,46h54v1h-54zM193,46h302v1h-302zM16,47h55v1h-55zM193,47h302v1h-302zM16,48h56v1h-56zM194,48h300v1h-300zM16,49h57v1h-57zM195,49h298v1h-298zM16,50h58v1h-58zM196,50h296v1h-296zM16,51h59v1h-59zM196,51h296v1h-296zM16,52h60v1h-60zM198,52h292v1h-292zM16,53h61v1h-61zM199,53h290v1h-290zM16,54h62v1h-62zM201,54h287v1h-287zM16,55h63v1h-63zM203,55h282v1h-282zM16,56h64v1h-64zM16,57h65v1h-65zM16,58h66v1h-66zM16,59h67v1h-67zM16,60h68v1h-68zM16,61h69v1h-69zM16,62h70v1h-70zM16,63h71v1h-71zM16,64h72v1h-72zM16,65h73v1h-73zM16,66h74v1h-74zM16,67h75v1h-75zM16,68h76v1h-76zM16,69h77v1h-77zM16,70h78v1h-78zM16,71h79v1h-79zM16,72h80v1h-80zM16,73h81v1h-81zM16,74h82v1h-82zM16,75h83v1h-83zM16,76h84v1h-84zM16,77h85v1h-85zM16,78h86v1h-86zM16,79h87v1h-87zM16,80h88v1h-88zM16,81h89v1h-89zM16,82h90v1h-90zM16,83h91v1h-91zM16,84h92v1h-92zM16,85h93v1h-93zM16,86h94v1h-94zM16,87h95v1h-95zM16,88h96v1h-96zM16,89h97v1h-97zM16,90h98v1h-98zM16,91h99v1h-99zM16,92h100v1h-100zM16,93h101v1h-101zM16,94h102v1h-102zM16,95h103v1h-103zM16,96h104v1h-104zM16,97h105v1h-105zM16,98h106v1h-106zM16,99h107v1h-107zM16,100h108v1h-108zM16,101h109v1h-109zM16,102h110v1h-110zM16,103h111v1h-111zM16,104h112v1h-112zM16,105h113v1h-113zM16,106h114v1h-114zM16,107h115v1h-115zM16,108h116v1h-116zM16,109h117v1h-117zM16,110h118v1h-118zM16,111h119v1h-119zM16,112h120v1h-120zM16,113h121v1h-121zM16,114h122v1h-122zM16,115h123v1h-123zM16,116h124v1h-124zM16,117h125v1h-125zM16,118h125v1h-125zM16,119h126v1h-126zM16,120h127v1h-127zM16,121h127v1h-127zM16,122h127v1h-127zM16,123h128v1h-128zM16,124h128v1h-128zM16,125h128v1h-128zM16,126h128v1h-128zM16,127h128v1h-128zM16,128h128v1h-128zM16,129h128v1h-128zM16,130h128v1h-128zM16,131h128v1h-128zM16,132h128v1h-128zM16,133h127v1h-127zM16,134h127v1h-127zM16,135h127v1h-127zM16,136h126v1h-126zM16,137h125v1h-125zM16,138h125v1h-125zM16,139h124v1h-124zM16,140h123v1h-123zM16,141h122v1h-122zM16,142h121v1h-121zM16,143h120v1h-120zM16,144h119v1h-119zM16,145h118v1h-118zM16,146h117v1h-117zM16,147h116v1h-116zM16,148h115v1h-115zM16,149h114v1h-114zM16,150h113v1h-113zM16,151h112v1h-112zM16,152h111v1h-111zM16,153h110v1h-110zM16,154h109v1h-109zM16,155h108v1h-108zM16,156h107v1h-107zM16,157h106v1h-106zM16,158h105v1h-105zM16,159h104v1h-104zM16,160h103v1h-103zM16,161h102v1h-102zM16,162h101v1h-101zM16,163h100v1h-100zM16,164h99v1h-99zM16,165h98v1h-98zM16,166h97v1h-97zM16,167h96v1h-96zM16,168h95v1h-95zM203,168h282v1h-282zM16,169h94v1h-94zM200,169h288v1h-288zM16,170h93v1h-93zM199,170h290v1h-290zM16,171h92v1h-92zM197,171h293v1h-293zM16,172h91v1h-91zM196,172h296v1h-296zM16,173h90v1h-90zM195,173h297v1h-297zM16,174h89v1h-89zM195,174h298v1h-298zM16,175h88v1h-88zM194,175h300v1h-300zM16,176h87v1h-87zM193,176h301v1h-301zM16,177h86v1h-86zM193,177h302v1h-302zM16,178h85v1h-85zM193,178h302v1h-302zM16,179h84v1h-84zM192,179h304v1h-304zM16,180h83v1h-83zM192,180h304v1h-304zM16,181h82v1h-82zM192,181h304v1h-304zM16,182h81v1h-81zM192,182h304v1h-304zM16,183h80v1h-80zM192,183h304v1h-304zM16,184h79v1h-79zM192,184h304v1h-304zM16,185h78v1h-78zM192,185h304v1h-304zM16,186h77v1h-77zM192,186h304v1h-304zM16,187h76v1h-76zM192,187h304v1h-304zM16,188h75v1h-75zM192,188h304v1h-304zM16,189h74v1h-74zM193,189h302v1h-302zM16,190h73v1h-73zM193,190h302v1h-302zM16,191h72v1h-72zM193,191h302v1h-302zM16,192h71v1h-71zM194,192h300v1h-300zM16,193h70v1h-70zM195,193h298v1h-298zM16,194h69v1h-69zM196,194h296v1h-296zM16,195h68v1h-68zM196,195h296v1h-296zM16,196h67v1h-67zM198,196h292v1h-292zM16,197h66v1h-66zM199,197h290v1h-290zM16,198h65v1h-65zM201,198h287v1h-287zM16,199h64v1h-64zM203,199h282v1h-282zM16,200h63v1h-63zM16,201h62v1h-62zM16,202h61v1h-61zM16,203h60v1h-60zM16,204h59v1h-59zM16,205h58v1h-58zM16,206h57v1h-57zM16,207h56v1h-56zM16,208h55v1h-55zM16,209h54v1h-54zM16,210h53v1h-53zM16,211h52v1h-52zM16,212h51v1h-51zM16,213h50v1h-50zM16,214h49v1h-49zM16,215h48v1h-48zM16,216h47v1h-47zM16,217h46v1h-46zM16,218h45v1h-45zM16,219h44v1h-44zM16,220h43v1h-43zM16,221h42v1h-42zM16,222h41v1h-41zM16,223h40v1h-40zM16,224h39v1h-39zM16,225h38v1h-38zM16,226h37v1h-37zM16,227h36v1h-36zM16,228h35v1h-35zM17,229h33v1h-33zM17,230h32v1h-32zM18,231h30v1h-30zM18,232h29v1h-29zM19,233h27v1h-27zM19,234h26v1h-26zM20,235h24v1h-24zM21,236h21v1h-21zM23,237h18v1h-18zM25,238h15v1h-15zM27,239h10v1h-10zM27,312h458v1h-458zM24,313h464v1h-464zM23,314h466v1h-466zM21,315h469v1h-469zM20,316h472v1h-472zM19,317h473v1h-473zM19,318h474v1h-474zM18,319h476v1h-476zM17,320h477v1h-477zM17,321h478v1h-478zM17,322h478v1h-478zM16,323h480v1h-480zM16,324h480v1h-480zM16,325h480v1h-480zM16,326h480v1h-480zM16,327h480v1h-480zM16,328h480v1h-480zM16,329h480v1h-480zM16,330h480v1h-480zM16,331h480v1h-480zM16,332h480v1h-480zM17,333h478v1h-478zM17,334h478v1h-478zM17,335h478v1h-478zM18,336h476v1h-476zM19,337h474v1h-474zM20,338h472v1h-472zM20,339h472v1h-472zM22,340h468v1h-468zM23,341h466v1h-466zM25,342h463v1h-463zM27,343h458v1h-458zM27,456h458v1h-458zM24,457h464v1h-464zM23,458h466v1h-466zM21,459h469v1h-469zM20,460h472v1h-472zM19,461h473v1h-473zM19,462h474v1h-474zM18,463h476v1h-476zM17,464h477v1h-477zM17,465h478v1h-478zM17,466h478v1h-478zM16,467h480v1h-480zM16,468h480v1h-480zM16,469h480v1h-480zM16,470h480v1h-480zM16,471h480v1h-480zM16,472h480v1h-480zM16,473h480v1h-480zM16,474h480v1h-480zM16,475h480v1h-480zM16,476h480v1h-480zM17,477h478v1h-478zM17,478h478v1h-478zM17,479h478v1h-478zM18,480h476v1h-476zM19,481h474v1h-474zM20,482h472v1h-472zM20,483h472v1h-472zM22,484h468v1h-468zM23,485h466v1h-466zM25,486h463v1h-463zM27,487h458v1h-458z"/></svg>