<?xml version="1.0" encoding="UTF-8"?>
<svg xmlns="http://www.w3.org/2000/svg" viewBox="0 0 512 512" width="512" height="512"><path fill="#000" d="M131,16h10v1h-10zM128,17h16v1h-16zM127,18h18v1h-18zM125,19h22v1h-22zM124,20h24v1h-24zM123,21h26v1h-26zM122,22h28v1h-28zM121,23h30v1h-30zM120,24h32v1h-32zM119,25h34v1h-34zM118,26h36v1h-36zM117,27h38v1h-38zM116,28h40v1h-40zM115,29h42v1h-42zM114,30h44v1h-44zM113,31h46v1h-46zM112,32h48v1h-48zM111,33h50v1h-50zM110,34h52v1h-52zM109,35h54v1h-54zM108,36h56v1h-56zM107,37h58v1h-58zM106,38h60v1h-60zM105,39h62v1h-62zM104,40h64v1h-64zM103,41h66v1h-66zM102,42h68v1h-68zM101,43h70v1h-70zM100,44h72v1h-72zM99,45h74v1h-74zM98,46h76v1h-76zM97,47h78v1h-78zM96,48h80v1h-80zM95,49h82v1h-82zM94,50h84v1h-84zM93,51h86v1h-86zM92,52h88v1h-88zM91,53h90v1h-90zM90,54h92v1h-92zM89,55h94v1h-94zM88,56h96v1h-96zM87,57h98v1h-98zM86,58h100v1h-100zM85,59h102v1h-102zM84,60h104v1h-104zM83,61h106v1h-106zM82,62h108v1h-108zM81,63h110v1h-110zM80,64h112v1h-112zM79,65h114v1h-114zM78,66h116v1h-116zM77,67h118v1h-118zM76,68h120v1h-120zM75,69h122v1h-122zM74,70h124v1h-124zM73,71h126v1h-126zM72,72h128v1h-128zM71,73h130v1h-130zM70,74h132v1h-132zM69,75h134v1h-134zM68,76h47v1h-47zM120,76h32v1h-32zM157,76h47v1h-47zM67,77h47v1h-47zM120,77h32v1h-32zM158,77h47v1h-47zM66,78h47v1h-47zM120,78h32v1h-32zM159,78h47v1h-47zM65,79h47v1h-47zM120,79h32v1h-32zM160,79h47v1h-47zM64,80h47v1h-47zM120,80h32v1h-32zM161,80h47v1h-47zM63,81h47v1h-47zM120,81h32v1h-32zM162,81h47v1h-47zM62,82h47v1h-47zM120,82h32v1h-32zM163,82h47v1h-47zM61,83h47v1h-47zM120,83h32v1h-32zM164,83h47v1h-47zM60,84h47v1h-47zM120,84h32v1h-32zM165,84h47v1h-47zM59,85h47v1h-47zM120,85h32v1h-32zM166,85h47v1h-47zM58,86h47v1h-47zM120,86h32v1h-32zM167,86h47v1h-47zM57,87h47v1h-47zM120,87h32v1h-32zM168,87h47v1h-47zM56,88h47v1h-47zM120,88h32v1h-32zM169,88h47v1h-47zM55,89h47v1h-47zM120,89h32v1h-32zM170,89h47v1h-47zM54,90h47v1h-47zM120,90h32v1h-32zM171,90h47v1h-47zM53,91h47v1h-47zM120,91h32v1h-32zM172,91h47v1h-47zM52,92h47v1h-47zM120,92h32v1h-32zM173,92h47v1h-47zM51,93h47v1h-47zM120,93h32v1h-32zM174,93h47v1h-47zM50,94h47v1h-47zM120,94h32v1h-32zM175,94h47v1h-47zM49,95h47v1h-47zM120,95h32v1h-32zM176,95h47v1h-47zM48,96h47v1h-47zM120,96h32v1h-32zM177,96h47v1h-47zM47,97h47v1h-47zM120,97h32v1h-32zM178,97h47v1h-47zM46,98h47v1h-47zM120,98h32v1h-32zM179,98h47v1h-47zM45,99h47v1h-47zM120,99h32v1h-32zM180,99h47v1h-47zM44,100h47v1h-47zM120,100h32v1h-32zM181,100h47v1h-47zM43,101h47v1h-47zM120,101h32v1h-32zM182,101h47v1h-47zM42,102h47v1h-47zM120,102h32v1h-32zM183,102h47v1h-47zM41,103h47v1h-47zM120,103h32v1h-32zM184,103h47v1h-47zM40,104h47v1h-47zM120,104h32v1h-32zM185,104h47v1h-47zM39,105h47v1h-47zM120,105h32v1h-32zM186,105h47v1h-47zM38,106h47v1h-47zM120,106h32v1h-32zM187,106h47v1h-47zM37,107h47v1h-47zM120,107h32v1h-32zM188,107h47v1h-47zM36,108h47v1h-47zM120,108h32v1h-32zM189,108h47v1h-47zM35,109h47v1h-47zM120,109h32v1h-32zM190,109h47v1h-47zM34,110h47v1h-47zM120,110h32v1h-32zM191,110h47v1h-47zM33,111h47v1h-47zM120,111h32v1h-32zM192,111h47v1h-47zM32,112h47v1h-47zM120,112h32v1h-32zM193,112h47v1h-47zM31,113h47v1h-47zM120,113h32v1h-32zM194,113h47v1h-47zM30,114h47v1h-47zM120,114h32v1h-32zM195,114h47v1h-47zM29,115h47v1h-47zM120,115h32v1h-32zM196,115h47v1h-47zM28,116h47v1h-47zM120,116h32v1h-32zM197,116h47v1h-47zM27,117h47v1h-47zM120,117h32v1h-32zM198,117h47v1h-47zM26,118h47v1h-47zM120,118h32v1h-32zM199,118h47v1h-47zM25,119h47v1h-47zM120,119h32v1h-32zM200,119h47v1h-47zM24,120h47v1h-47zM120,120h32v1h-32zM201,120h47v1h-47zM23,121h47v1h-47zM120,121h32v1h-32zM202,121h47v1h-47zM22,122h47v1h-47zM120,122h32v1h-32zM203,122h47v1h-47zM21,123h47v1h-47zM120,123h32v1h-32zM204,123h47v1h-47zM20,124h47v1h-47zM120,124h32v1h-32zM205,124h47v1h-47zM19,125h47v1h-47zM120,125h32v1h-32zM206,125h47v1h-47zM19,126h46v1h-46zM120,126h32v1h-32zM207,126h46v1h-46zM18,127h46v1h-46zM120,127h32v1h-32zM208,127h46v1h-46zM17,128h46v1h-46zM120,128h32v1h-32zM209,128h46v1h-46zM17,129h45v1h-45zM120,129h32v1h-32zM210,129h45v1h-45zM17,130h44v1h-44zM120,130h32v1h-32zM211,130h44v1h-44zM16,131h44v1h-44zM120,131h32v1h-32zM212,131h44v1h-44zM16,132h43v1h-43zM120,132h32v1h-32zM213,132h43v1h-43zM16,133h42v1h-42zM120,133h32v1h-32zM214,133h42v1h-42zM16,134h41v1h-41zM120,134h32v1h-32zM215,134h41v1h-41zM16,135h40v1h-40zM120,135h32v1h-32zM216,135h40v1h-40zM16,136h39v1h-39zM120,136h32v1h-32zM217,136h39v1h-39zM16,137h38v1h-38zM120,137h32v1h-32zM218,137h38v1h-38zM16,138h37v1h-37zM120,138h32v1h-32zM219,138h37v1h-37zM16,139h36v1h-36zM120,139h32v1h-32zM220,139h36v1h-36zM16,140h35v1h-35zM120,140h32v1h-32zM221,140h35v1h-35zM17,141h33v1h-33zM120,141h32v1h-32zM222,141h33v1h-33zM17,142h32v1h-32zM120,142h32v1h-32zM223,142h32v1h-32zM17,143h31v1h-31zM120,143h32v1h-32zM224,143h31v1h-31zM18,144h29v1h-29zM120,144h32v1h-32zM225,144h29v1h-29zM19,145h27v1h-27zM120,145h32v1h-32zM226,145h27v1h-27zM19,146h26v1h-26zM120,146h32v1h-32zM227,146h26v1h-26zM20,147h24v1h-24zM120,147h32v1h-32zM228,147h24v1h-24zM21,148h22v1h-22zM120,148h32v1h-32zM229,148h22v1h-22zM23,149h18v1h-18zM120,149h32v1h-32zM231,149h18v1h-18zM24,150h16v1h-16zM120,150h32v1h-32zM232,150h16v1h-16zM27,151h10v1h-10zM120,151h32v1h-32zM235,151h10v1h-10zM120,152h32v1h-32zM120,153h32v1h-32zM120,154h32v1h-32zM120,155h32v1h-32zM120,156h32v1h-32zM120,157h32v1h-32zM120,158h32v1h-32zM120,159h32v1h-32zM120,160h32v1h-32zM120,161h32v1h-32zM120,162h32v1h-32zM120,163h32v1h-32zM120,164h32v1h-32zM120,165h32v1h-32zM120,166h32v1h-32zM120,167h32v1h-32zM120,168h32v1h-32zM120,169h32v1h-32zM120,170h32v1h-32zM120,171h32v1h-32zM120,172h32v1h-32zM120,173h32v1h-32zM120,174h32v1h-32zM120,175h32v1h-32zM120,176h32v1h-32zM120,177h32v1h-32zM120,178h32v1h-32zM120,179h32v1h-32zM120,180h32v1h-32zM120,181h32v1h-32zM120,182h32v1h-32zM120,183h32v1h-32zM120,184h32v1h-32zM120,185h32v1h-32zM120,186h32v1h-32zM120,187h32v1h-32zM120,188h32v1h-32zM120,189h32v1h-32zM120,190h32v1h-32zM120,191h32v1h-32zM120,192h32v1h-32zM120,193h32v1h-32zM120,194h32v1h-32zM120,195h32v1h-32zM120,196h32v1h-32zM120,197h32v1h-32zM120,198h32v1h-32zM120,199h32v1h-32zM120,200h32v1h-32zM120,201h32v1h-32zM120,202h32v1h-32zM120,203h32v1h-32zM120,204h32v1h-32zM120,205h32v1h-32zM120,206h32v1h-32zM120,207h32v1h-32zM120,208h32v1h-32zM120,209h32v1h-32zM120,210h32v1h-32zM120,211h32v1h-32zM120,212h32v1h-32zM120,213h32v1h-32zM120,214h32v1h-32zM120,215h32v1h-32zM120,216h32v1h-32zM120,217h32v1h-32zM120,218h32v1h-32zM120,219h32v1h-32zM120,220h32v1h-32zM120,221h32v1h-32zM120,222h32v1h-32zM120,223h32v1h-32zM120,224h32v1h-32zM195,224h290v1h-290zM120,225h32v1h-32zM192,225h296v1h-296zM120,226h32v1h-32zM191,226h298v1h-298zM120,227h32v1h-32zM189,227h301v1h-301zM120,228h32v1h-32zM188,228h304v1h-304zM120,229h32v1h-32zM187,229h305v1h-305zM120,230h32v1h-32zM187,230h306v1h-306zM120,231h32v1h-32zM186,231h308v1h-308zM120,232h32v1h-32zM185,232h309v1h-309zM120,233h32v1h-32zM185,233h310v1h-310zM120,234h32v1h-32zM185,234h310v1h-310zM120,235h32v1h-32zM184,235h312v1h-312zM120,236h32v1h-32zM184,236h312v1h-312zM120,237h32v1h-32zM184,237h312v1h-312zM120,238h32v1h-32zM184,238h312v1h-312zM120,239h32v1h-32zM184,239h312v1h-312zM120,240h32v1h-32zM184,240h312v1h-312zM120,241h32v1h-32zM184,241h312v1h-312zM120,242h32v1h-32zM184,242h312v1h-312zM120,243h32v1h-32zM184,243h312v1h-312zM120,244h32v1h-32zM184,244h312v1h-312zM120,245h32v1h-32zM185,245h310v1h-310zM120,246h32v1h-32zM185,246h310v1h-310zM120,247h32v1h-32zM185,247h310v1h-310zM120,248h32v1h-32zM186,248h308v1h-308zM120,249h32v1h-32zM187,249h306v1h-306zM120,250h32v1h-32zM188,250h304v1h-304zM120,251h32v1h-32zM188,251h304v1h-304zM120,252h32v1h-32zM190,252h300v1h-300zM120,253h32v1h-32zM191,253h298v1h-298zM120,254h32v1h-32zM193,254h295v1h-295zM120,255h32v1h-32zM195,255h290v1h-290zM120,256h32v1h-32zM120,257h32v1h-32zM120,258h32v1h-32zM120,259h32v1h-32zM120,260h32v1h-32zM120,261h32v1h-32zM120,262h32v1h-32zM120,263h32v1h-32zM120,264h32v1h-32zM120,265h32v1h-32zM120,266h32v1h-32zM120,267h32v1h-32zM120,268h32v1h-32zM120,269h32v1h-32zM120,270h32v1h-32zM120,271h32v1h-32zM120,272h32v1h-32zM120,273h32v1h-32zM120,274h32v1h-32zM120,275h32v1h-32zM120,276h32v1h-32zM120,277h32v1h-32zM120,278h32v1h-32zM120,279h32v1h-32zM120,280h32v1h-32zM120,281h32v1h-32zM120,282h32v1h-32zM120,283h32v1h-32zM120,284h32v1h-32zM120,285h32v1h-32zM120,286h32v1h-32zM120,287h32v1h-32zM120,288h32v1h-32zM120,289h32v1h-32zM120,290h32v1h-32zM120,291h32v1h-32zM120,292h32v1h-32zM120,293h32v1h-32zM120,294h32v1h-32zM120,295h32v1h-32zM120,296h32v1h-32zM120,297h32v1h-32zM120,298h32v1h-32zM120,299h32v1h-32zM120,300h32v1h-32zM120,301h32v1h-32zM120,302h32v1h-32zM120,303h32v1h-32zM120,304h32v1h-32zM195,304h234v1h-234zM120,305h32v1h-32zM192,305h240v1h-240zM120,306h32v1h-32zM191,306h242v1h-242zM120,307h32v1h-32zM189,307h245v1h-245zM120,308h32v1h-32zM188,308h248v1h-248zM120,309h32v1h-32zM187,309h249v1h-249zM120,310h32v1h-32zM187,310h250v1h-250zM120,311h32v1h-32zM186,311h252v1h-252zM120,312h32v1h-32zM185,312h253v1h-253zM120,313h32v1h-32zM185,313h254v1h-254zM120,314h32v1h-32zM185,314h254v1h-254zM120,315h32v1h-32zM184,315h256v1h-256zM120,316h32v1h-32zM184,316h256v1h-256zM120,317h32v1h-32zM184,317h256v1h-256zM120,318h32v1h-32zM184,318h256v1h-256zM120,319h32v1h-32zM184,319h256v1h-256zM120,320h32v1h-32zM184,320h256v1h-256zM120,321h32v1h-32zM184,321h256v1h-256zM120,322h32v1h-32zM184,322h256v1h-256zM120,323h32v1h-32zM184,323h256v1h-256zM120,324h32v1h-32zM184,324h256v1h-256zM120,325h32v1h-32zM185,325h254v1h-254zM120,326h32v1h-32zM185,326h254v1h-254zM120,327h32v1h-32zM185,327h254v1h-254zM120,328h32v1h-32zM186,328h252v1h-252zM120,329h32v1h-32zM187,329h250v1h-250zM120,330h32v1h-32zM188,330h248v1h-248zM120,331h32v1h-32zM188,331h248v1h-248zM120,332h32v1h-32zM190,332h244v1h-244zM120,333h32v1h-32zM191,333h242v1h-242zM120,334h32v1h-32zM193,334h239v1h-239zM120,335h32v1h-32zM195,335h234v1h-234zM120,336h32v1h-32zM120,337h32v1h-32zM120,338h32v1h-32zM120,339h32v1h-32zM120,340h32v1h-32zM120,341h32v1h-32zM120,342h32v1h-32zM120,343h32v1h-32zM120,344h32v1h-32zM120,345h32v1h-32zM120,346h32v1h-32zM120,347h32v1h-32zM120,348h32v1h-32zM120,349h32v1h-32zM120,350h32v1h-32zM120,351h32v1h-32zM120,352h32v1h-32zM120,353h32v1h-32zM120,354h32v1h-32zM120,355h32v1h-32zM120,356h32v1h-32zM120,357h32v1h-32zM120,358h32v1h-32zM120,359h32v1h-32zM120,360h32v1h-32zM120,361h32v1h-32zM120,362h32v1h-32zM120,363h32v1h-32zM120,364h32v1h-32zM120,365h32v1h-32zM120,366h32v1h-32zM120,367h32v1h-32zM120,368h32v1h-32zM120,369h32v1h-32zM120,370h32v1h-32zM120,371h32v1h-32zM120,372h32v1h-32zM120,373h32v1h-32zM120,374h32v1h-32zM120,375h32v1h-32zM120,376h32v1h-32zM120,377h32v1h-32zM120,378h32v1h-32zM120,379h32v1h-32zM120,380h32v1h-32zM120,381h32v1h-32zM120,382h32v1h-32zM120,383h32v1h-32zM120,384h32v1h-32zM195,384h186v1h-186zM120,385h32v1h-32zM192,385h192v1h-192zM120,386h32v1h-32zM191,386h194v1h-194zM120,387h32v1h-32zM189,387h197v1h-197zM120,388h32v1h-32zM188,388h200v1h-200zM120,389h32v1h-32zM187,389h201v1h-201zM120,390h32v1h-32zM187,390h202v1h-202zM120,391h32v1h-32zM186,391h204v1h-204zM120,392h32v1h-32zM185,392h205v1h-205zM120,393h32v1h-32zM185,393h206v1h-206zM120,394h32v1h-32zM185,394h206v1h-206zM120,395h32v1h-32zM184,395h208v1h-208zM120,396h32v1h-32zM184,396h208v1h-208zM120,397h32v1h-32zM184,397h208v1h-208zM120,398h32v1h-32zM184,398h208v1h-208zM120,399h32v1h-32zM184,399h208v1h-208zM120,400h32v1h-32zM184,400h208v1h-208zM120,401h32v1h-32zM184,401h208v1h-208zM120,402h32v1h-32zM184,402h208v1h-208zM120,403h32v1h-32zM184,403h208v1h-208zM120,404h32v1h-32zM184,404h208v1h-208zM120,405h32v1h-32zM185,405h206v1h-206zM120,406h32v1h-32zM185,406h206v1h-206zM120,407h32v1h-32zM185,407h206v1h-206zM120,408h32v1h-32zM186,408h204v1h-204zM120,409h32v1h-32zM187,409h202v1h-202zM120,410h32v1h-32zM188,410h200v1h-200zM120,411h32v1h-32zM188,411h200v1h-200zM120,412h32v1h-32zM190,412h196v1h-196zM120,413h32v1h-32zM191,413h194v1h-194zM120,414h32v1h-32zM193,414h191v1h-191zM120,415h32v1h-32zM195,415h186v1h-186zM120,416h32v1h-32zM120,417h32v1h-32zM120,418h32v1h-32zM120,419h32v1h-32zM120,420h32v1h-32zM120,421h32v1h-32zM120,422h32v1h-32zM120,423h32v1h-32zM120,424h32v1h-32zM120,425h32v1h-32zM120,426h32v1h-32zM120,427h32v1h-32zM120,428h32v1h-32zM120,429h32v1h-32zM120,430h32v1h-32zM120,431h32v1h-32zM120,432h32v1h-32zM120,433h32v1h-32zM120,434h32v1h-32zM120,435h32v1h-32zM120,436h32v1h-32zM120,437h32v1h-32zM120,438h32v1h-32zM120,439h32v1h-32zM120,440h32v1h-32zM120,441h32v1h-32zM120,442h32v1h-32zM120,443h32v1h-32zM120,444h32v1h-32zM120,445h32v1h-32zM120,446h32v1h-32zM120,447h32v1h-32zM120,448h32v1h-32zM120,449h32v1h-32zM120,450h32v1h-32zM120,451h32v1h-32zM120,452h32v1h-32zM120,453h32v1h-32zM120,454h32v1h-32zM120,455h32v1h-32zM120,456h32v1h-32zM120,457h32v1h-32zM120,458h32v1h-32zM120,459h32v1h-32zM120,460h32v1h-32zM120,461h32v1h-32zM120,462h32v1h-32zM120,463h32v1h-32zM120,464h32v1h-32zM195,464h138v1h-138zM120,465h32v1h-32zM192,465h144v1h-144zM120,466h32v1h-32zM191,466h146v1h-146zM120,467h32v1h-32zM189,467h149v1h-149zM120,468h32v1h-32zM188,468h152v1h-152zM120,469h32v1h-32zM187,469h153v1h-153zM120,470h32v1h-32zM187,470h154v1h-154zM120,471h32v1h-32zM186,471h156v1h-156zM120,472h32v1h-32zM185,472h157v1h-157zM120,473h32v1h-32zM185,473h158v1h-158zM120,474h32v1h-32zM185,474h158v1h-158zM120,475h32v1h-32zM184,475h160v1h-160zM120,476h32v1h-32zM184,476h160v1h-160zM120,477h32v1h-32zM184,477h160v1h-160zM120,478h32v1h-32zM184,478h160v1h-160zM120,479h32v1h-32zM184,479h160v1h-160zM120,480h32v1h-32zM184,480h160v1h-160zM120,481h32v1h-32zM184,481h160v1h-160zM120,482h32v1h-32zM184,482h160v1h-160zM120,483h32v1h-32zM184,483h160v1h-160zM120,484h32v1h-32zM184,484h160v1h-160zM121,485h30v1h-30zM185,485h158v1h-158zM121,486h30v1h-30zM185,486h158v1h-158zM121,487h30v1h-30zM185,487h158v1h-158zM122,488h28v1h-28zM186,488h156v1h-156zM123,489h26v1h-26zM187,489h154v1h-154zM124,490h24v1h-24zM188,490h152v1h-152zM124,491h24v1h-24zM188,491h152v1h-152zM126,492h20v1h-20zM190,492h148v1h-148zM127,493h18v1h-18zM191,493h146v1h-146zM129,494h15v1h-15zM193,494h143v1h-143zM131,495h10v1h-10zM195,495h138v1h-138z"/></svg>