<?xml version="1.0" encoding="UTF-8"?>
<svg xmlns="http://www.w3.org/2000/svg" viewBox="0 0 512 512" width="512" height="512"><path fill="#000" d="M235,16h42v1h-42zM226,17h60v1h-60zM219,18h74v1h-74zM213,19h86v1h-86zM208,20h96v1h-96zM203,21h106v1h-106zM199,22h114v1h-114zM195,23h122v1h-122zM191,24h130v1h-130zM188,25h136v1h-136zM184,26h144v1h-144zM181,27h150v1h-150zM178,28h156v1h-156zM175,29h162v1h-162zM173,30h166v1h-166zM170,31h172v1h-172zM168,32h177v1h-177zM165,33h182v1h-182zM163,34h186v1h-186zM160,35h192v1h-192zM158,36h196v1h-196zM156,37h200v1h-200zM154,38h204v1h-204zM151,39h210v1h-210zM150,40h213v1h-213zM148,41h216v1h-216zM146,42h220v1h-220zM144,43h224v1h-224zM142,44h228v1h-228zM140,45h232v1h-232zM138,46h236v1h-236zM136,47h240v1h-240zM135,48h117v1h-117zM260,48h117v1h-117zM133,49h101v1h-101zM278,49h101v1h-101zM131,50h95v1h-95zM286,50h95v1h-95zM130,51h90v1h-90zM292,51h90v1h-90zM128,52h87v1h-87zM297,52h87v1h-87zM127,53h83v1h-83zM302,53h83v1h-83zM125,54h81v1h-81zM306,54h81v1h-81zM123,55h79v1h-79zM310,55h79v1h-79zM122,56h77v1h-77zM314,56h76v1h-76zM120,57h75v1h-75zM317,57h75v1h-75zM119,58h73v1h-73zM320,58h73v1h-73zM118,59h71v1h-71zM323,59h71v1h-71zM116,60h70v1h-70zM326,60h70v1h-70zM115,61h68v1h-68zM329,61h68v1h-68zM113,62h68v1h-68zM331,62h68v1h-68zM112,63h66v1h-66zM334,63h66v1h-66zM111,64h65v1h-65zM336,64h65v1h-65zM110,65h63v1h-63zM339,65h64v1h-64zM108,66h63v1h-63zM341,66h63v1h-63zM107,67h62v1h-62zM343,67h62v1h-62zM106,68h61v1h-61zM345,68h61v1h-61zM104,69h61v1h-61zM347,69h61v1h-61zM103,70h60v1h-60zM349,70h60v1h-60zM102,71h59v1h-59zM351,71h59v1h-59zM101,72h58v1h-58zM353,72h58v1h-58zM100,73h57v1h-57zM355,73h57v1h-57zM99,74h56v1h-56zM357,74h57v1h-57zM97,75h56v1h-56zM359,75h56v1h-56zM96,76h56v1h-56zM360,76h56v1h-56zM95,77h55v1h-55zM362,77h55v1h-55zM94,78h54v1h-54zM364,78h54v1h-54zM93,79h54v1h-54zM365,79h54v1h-54zM92,80h53v1h-53zM367,80h53v1h-53zM91,81h53v1h-53zM368,81h53v1h-53zM90,82h52v1h-52zM370,82h52v1h-52zM89,83h51v1h-51zM372,83h51v1h-51zM88,84h51v1h-51zM373,84h51v1h-51zM87,85h51v1h-51zM374,85h51v1h-51zM86,86h50v1h-50zM376,86h50v1h-50zM85,87h50v1h-50zM377,87h50v1h-50zM84,88h49v1h-49zM379,88h49v1h-49zM83,89h49v1h-49zM380,89h49v1h-49zM82,90h49v1h-49zM381,90h49v1h-49zM81,91h48v1h-48zM383,91h48v1h-48zM80,92h48v1h-48zM384,92h48v1h-48zM79,93h48v1h-48zM385,93h48v1h-48zM78,94h48v1h-48zM386,94h48v1h-48zM77,95h47v1h-47zM388,95h47v1h-47zM76,96h47v1h-47zM389,96h47v1h-47zM75,97h47v1h-47zM390,97h47v1h-47zM75,98h46v1h-46zM391,98h46v1h-46zM74,99h46v1h-46zM392,99h46v1h-46zM73,100h45v1h-45zM394,100h45v1h-45zM72,101h45v1h-45zM395,101h45v1h-45zM71,102h45v1h-45zM396,102h45v1h-45zM70,103h45v1h-45zM397,103h45v1h-45zM69,104h45v1h-45zM398,104h45v1h-45zM69,105h44v1h-44zM399,105h44v1h-44zM68,106h44v1h-44zM400,106h44v1h-44zM67,107h44v1h-44zM401,107h44v1h-44zM66,108h44v1h-44zM402,108h44v1h-44zM65,109h44v1h-44zM403,109h44v1h-44zM65,110h43v1h-43zM404,110h43v1h-43zM64,111h43v1h-43zM405,111h43v1h-43zM63,112h43v1h-43zM406,112h43v1h-43zM62,113h43v1h-43zM407,113h43v1h-43zM62,114h42v1h-42zM408,114h42v1h-42zM61,115h42v1h-42zM409,115h42v1h-42zM60,116h42v1h-42zM410,116h42v1h-42zM60,117h41v1h-41zM411,117h41v1h-41zM59,118h41v1h-41zM412,118h41v1h-41zM58,119h42v1h-42zM412,119h42v1h-42zM57,120h42v1h-42zM251,120h10v1h-10zM413,120h42v1h-42zM57,121h41v1h-41zM248,121h16v1h-16zM414,121h41v1h-41zM56,122h41v1h-41zM247,122h18v1h-18zM415,122h41v1h-41zM55,123h41v1h-41zM245,123h21v1h-21zM416,123h41v1h-41zM55,124h40v1h-40zM244,124h24v1h-24zM417,124h40v1h-40zM54,125h41v1h-41zM243,125h25v1h-25zM417,125h41v1h-41zM54,126h40v1h-40zM243,126h26v1h-26zM418,126h40v1h-40zM53,127h40v1h-40zM242,127h28v1h-28zM419,127h40v1h-40zM52,128h40v1h-40zM241,128h29v1h-29zM420,128h40v1h-40zM52,129h39v1h-39zM241,129h30v1h-30zM421,129h39v1h-39zM51,130h40v1h-40zM241,130h30v1h-30zM421,130h40v1h-40zM50,131h40v1h-40zM240,131h32v1h-32zM422,131h40v1h-40zM50,132h39v1h-39zM240,132h32v1h-32zM423,132h39v1h-39zM49,133h39v1h-39zM240,133h32v1h-32zM424,133h39v1h-39zM49,134h39v1h-39zM240,134h32v1h-32zM424,134h39v1h-39zM48,135h39v1h-39zM240,135h32v1h-32zM425,135h39v1h-39zM47,136h39v1h-39zM240,136h32v1h-32zM426,136h39v1h-39zM47,137h39v1h-39zM240,137h32v1h-32zM426,137h39v1h-39zM46,138h39v1h-39zM240,138h32v1h-32zM427,138h39v1h-39zM46,139h38v1h-38zM240,139h32v1h-32zM428,139h38v1h-38zM45,140h38v1h-38zM240,140h32v1h-32zM429,140h38v1h-38zM45,141h38v1h-38zM241,141h30v1h-30zM429,141h38v1h-38zM44,142h38v1h-38zM241,142h30v1h-30zM430,142h38v1h-38zM44,143h38v1h-38zM241,143h30v1h-30zM430,143h38v1h-38zM43,144h38v1h-38zM242,144h28v1h-28zM431,144h38v1h-38zM43,145h37v1h-37zM243,145h26v1h-26zM432,145h37v1h-37zM42,146h38v1h-38zM244,146h24v1h-24zM432,146h38v1h-38zM42,147h37v1h-37zM244,147h24v1h-24zM433,147h37v1h-37zM41,148h37v1h-37zM246,148h20v1h-20zM434,148h37v1h-37zM40,149h38v1h-38zM247,149h18v1h-18zM434,149h37v1h-37zM40,150h37v1h-37zM249,150h15v1h-15zM435,150h37v1h-37zM39,151h38v1h-38zM251,151h10v1h-10zM435,151h38v1h-38zM39,152h37v1h-37zM436,152h37v1h-37zM39,153h36v1h-36zM437,153h36v1h-36zM38,154h37v1h-37zM437,154h37v1h-37zM38,155h36v1h-36zM438,155h36v1h-36zM37,156h37v1h-37zM438,156h37v1h-37zM37,157h36v1h-36zM439,157h36v1h-36zM36,158h37v1h-37zM439,158h37v1h-37zM36,159h36v1h-36zM440,159h36v1h-36zM35,160h37v1h-37zM440,160h37v1h-37zM35,161h36v1h-36zM441,161h36v1h-36zM34,162h37v1h-37zM441,162h36v1h-36zM34,163h36v1h-36zM442,163h36v1h-36zM34,164h36v1h-36zM442,164h36v1h-36zM33,165h36v1h-36zM443,165h36v1h-36zM33,166h36v1h-36zM443,166h36v1h-36zM33,167h35v1h-35zM444,167h35v1h-35zM32,168h36v1h-36zM219,168h21v1h-21zM444,168h36v1h-36zM32,169h35v1h-35zM216,169h28v1h-28zM445,169h35v1h-35zM31,170h36v1h-36zM215,170h32v1h-32zM445,170h36v1h-36zM31,171h35v1h-35zM213,171h36v1h-36zM446,171h35v1h-35zM31,172h35v1h-35zM212,172h39v1h-39zM446,172h35v1h-35zM30,173h35v1h-35zM211,173h42v1h-42zM447,173h35v1h-35zM30,174h35v1h-35zM211,174h44v1h-44zM447,174h35v1h-35zM29,175h36v1h-36zM210,175h46v1h-46zM447,175h36v1h-36zM29,176h35v1h-35zM209,176h48v1h-48zM448,176h35v1h-35zM29,177h35v1h-35zM209,177h49v1h-49zM448,177h35v1h-35zM28,178h35v1h-35zM209,178h50v1h-50zM449,178h35v1h-35zM28,179h35v1h-35zM208,179h53v1h-53zM449,179h35v1h-35zM28,180h35v1h-35zM208,180h53v1h-53zM449,180h35v1h-35zM27,181h35v1h-35zM208,181h54v1h-54zM450,181h35v1h-35zM27,182h35v1h-35zM208,182h55v1h-55zM450,182h35v1h-35zM27,183h34v1h-34zM208,183h56v1h-56zM451,183h34v1h-34zM26,184h35v1h-35zM208,184h57v1h-57zM451,184h35v1h-35zM26,185h35v1h-35zM208,185h58v1h-58zM451,185h35v1h-35zM26,186h34v1h-34zM208,186h58v1h-58zM452,186h34v1h-34zM26,187h34v1h-34zM208,187h59v1h-59zM452,187h34v1h-34zM25,188h35v1h-35zM208,188h59v1h-59zM452,188h35v1h-35zM25,189h34v1h-34zM209,189h59v1h-59zM453,189h34v1h-34zM25,190h34v1h-34zM209,190h59v1h-59zM453,190h34v1h-34zM24,191h35v1h-35zM209,191h60v1h-60zM453,191h35v1h-35zM24,192h34v1h-34zM210,192h59v1h-59zM454,192h34v1h-34zM24,193h34v1h-34zM211,193h59v1h-59zM454,193h34v1h-34zM24,194h34v1h-34zM212,194h58v1h-58zM454,194h34v1h-34zM23,195h34v1h-34zM212,195h58v1h-58zM455,195h34v1h-34zM23,196h34v1h-34zM214,196h57v1h-57zM455,196h34v1h-34zM23,197h34v1h-34zM215,197h56v1h-56zM455,197h34v1h-34zM23,198h34v1h-34zM217,198h54v1h-54zM456,198h33v1h-33zM22,199h34v1h-34zM219,199h52v1h-52zM456,199h34v1h-34zM22,200h34v1h-34zM233,200h39v1h-39zM456,200h34v1h-34zM22,201h34v1h-34zM236,201h36v1h-36zM456,201h34v1h-34zM22,202h33v1h-33zM237,202h35v1h-35zM457,202h33v1h-33zM21,203h34v1h-34zM238,203h34v1h-34zM457,203h34v1h-34zM21,204h34v1h-34zM239,204h33v1h-33zM457,204h34v1h-34zM21,205h34v1h-34zM239,205h33v1h-33zM457,205h34v1h-34zM21,206h33v1h-33zM239,206h33v1h-33zM458,206h33v1h-33zM21,207h33v1h-33zM240,207h32v1h-32zM458,207h33v1h-33zM20,208h34v1h-34zM240,208h32v1h-32zM458,208h34v1h-34zM20,209h34v1h-34zM240,209h32v1h-32zM458,209h34v1h-34zM20,210h33v1h-33zM240,210h32v1h-32zM459,210h33v1h-33zM20,211h33v1h-33zM240,211h32v1h-32zM459,211h33v1h-33zM20,212h33v1h-33zM240,212h32v1h-32zM459,212h33v1h-33zM19,213h34v1h-34zM240,213h32v1h-32zM459,213h34v1h-34zM19,214h34v1h-34zM240,214h32v1h-32zM459,214h34v1h-34zM19,215h33v1h-33zM240,215h32v1h-32zM460,215h33v1h-33zM19,216h33v1h-33zM240,216h32v1h-32zM460,216h33v1h-33zM19,217h33v1h-33zM240,217h32v1h-32zM460,217h33v1h-33zM19,218h33v1h-33zM240,218h32v1h-32zM460,218h33v1h-33zM18,219h34v1h-34zM240,219h32v1h-32zM460,219h34v1h-34zM18,220h33v1h-33zM240,220h32v1h-32zM461,220h33v1h-33zM18,221h33v1h-33zM240,221h32v1h-32zM461,221h33v1h-33zM18,222h33v1h-33zM240,222h32v1h-32zM461,222h33v1h-33zM18,223h33v1h-33zM240,223h32v1h-32zM461,223h33v1h-33zM18,224h33v1h-33zM240,224h32v1h-32zM461,224h33v1h-33zM18,225h33v1h-33zM240,225h32v1h-32zM461,225h33v1h-33zM17,226h33v1h-33zM240,226h32v1h-32zM461,226h34v1h-34zM17,227h33v1h-33zM240,227h32v1h-32zM462,227h33v1h-33zM17,228h33v1h-33zM240,228h32v1h-32zM462,228h33v1h-33zM17,229h33v1h-33zM240,229h32v1h-32zM462,229h33v1h-33zM17,230h33v1h-33zM240,230h32v1h-32zM462,230h33v1h-33zM17,231h33v1h-33zM240,231h32v1h-32zM462,231h33v1h-33zM17,232h33v1h-33zM240,232h32v1h-32zM462,232h33v1h-33zM17,233h33v1h-33zM240,233h32v1h-32zM462,233h33v1h-33zM17,234h32v1h-32zM240,234h32v1h-32zM463,234h32v1h-32zM16,235h33v1h-33zM240,235h32v1h-32zM463,235h32v1h-32zM16,236h33v1h-33zM240,236h32v1h-32zM463,236h33v1h-33zM16,237h33v1h-33zM240,237h32v1h-32zM463,237h33v1h-33zM16,238h33v1h-33zM240,238h32v1h-32zM463,238h33v1h-33zM16,239h33v1h-33zM240,239h32v1h-32zM463,239h33v1h-33zM16,240h33v1h-33zM240,240h32v1h-32zM463,240h33v1h-33zM16,241h33v1h-33zM240,241h32v1h-32zM463,241h33v1h-33zM16,242h33v1h-33zM240,242h32v1h-32zM463,242h33v1h-33zM16,243h33v1h-33zM240,243h32v1h-32zM463,243h33v1h-33zM16,244h33v1h-33zM240,244h32v1h-32zM463,244h33v1h-33zM16,245h33v1h-33zM240,245h32v1h-32zM463,245h33v1h-33zM16,246h33v1h-33zM240,246h32v1h-32zM463,246h33v1h-33zM16,247h33v1h-33zM240,247h32v1h-32zM463,247h33v1h-33zM16,248h33v1h-33zM240,248h32v1h-32zM463,248h33v1h-33zM16,249h33v1h-33zM240,249h32v1h-32zM463,249h33v1h-33zM16,250h33v1h-33zM240,250h32v1h-32zM463,250h33v1h-33zM16,251h32v1h-32zM240,251h32v1h-32zM463,251h33v1h-33zM16,252h32v1h-32zM240,252h32v1h-32zM464,252h32v1h-32zM16,253h32v1h-32zM240,253h32v1h-32zM464,253h32v1h-32zM16,254h32v1h-32zM240,254h32v1h-32zM464,254h32v1h-32zM16,255h32v1h-32zM240,255h32v1h-32zM464,255h32v1h-32zM16,256h32v1h-32zM240,256h32v1h-32zM464,256h32v1h-32zM16,257h32v1h-32zM240,257h32v1h-32zM464,257h32v1h-32zM16,258h32v1h-32zM240,258h32v1h-32zM464,258h32v1h-32zM16,259h32v1h-32zM240,259h32v1h-32zM464,259h32v1h-32zM16,260h32v1h-32zM240,260h32v1h-32zM463,260h33v1h-33zM16,261h33v1h-33zM240,261h32v1h-32zM463,261h33v1h-33zM16,262h33v1h-33zM240,262h32v1h-32zM463,262h33v1h-33zM16,263h33v1h-33zM240,263h32v1h-32zM463,263h33v1h-33zM16,264h33v1h-33zM240,264h32v1h-32zM463,264h33v1h-33zM16,265h33v1h-33zM240,265h32v1h-32zM463,265h33v1h-33zM16,266h33v1h-33zM240,266h32v1h-32zM463,266h33v1h-33zM16,267h33v1h-33zM240,267h32v1h-32zM463,267h33v1h-33zM16,268h33v1h-33zM240,268h32v1h-32zM463,268h33v1h-33zM16,269h33v1h-33zM240,269h32v1h-32zM463,269h33v1h-33zM16,270h33v1h-33zM240,270h32v1h-32zM463,270h33v1h-33zM16,271h33v1h-33zM240,271h32v1h-32zM463,271h33v1h-33zM16,272h33v1h-33zM240,272h32v1h-32zM463,272h33v1h-33zM16,273h33v1h-33zM240,273h32v1h-32zM463,273h33v1h-33zM16,274h33v1h-33zM240,274h32v1h-32zM463,274h33v1h-33zM16,275h33v1h-33zM240,275h32v1h-32zM463,275h33v1h-33zM16,276h33v1h-33zM240,276h32v1h-32zM463,276h32v1h-32zM17,277h32v1h-32zM240,277h32v1h-32zM463,277h32v1h-32zM17,278h33v1h-33zM240,278h32v1h-32zM462,278h33v1h-33zM17,279h33v1h-33zM240,279h32v1h-32zM462,279h33v1h-33zM17,280h33v1h-33zM240,280h32v1h-32zM462,280h33v1h-33zM17,281h33v1h-33zM240,281h32v1h-32zM462,281h33v1h-33zM17,282h33v1h-33zM240,282h32v1h-32zM462,282h33v1h-33zM17,283h33v1h-33zM240,283h32v1h-32zM462,283h33v1h-33zM17,284h33v1h-33zM240,284h32v1h-32zM462,284h33v1h-33zM17,285h33v1h-33zM240,285h32v1h-32zM461,285h34v1h-34zM18,286h33v1h-33zM240,286h32v1h-32zM461,286h33v1h-33zM18,287h33v1h-33zM240,287h32v1h-32zM461,287h33v1h-33zM18,288h33v1h-33zM240,288h32v1h-32zM461,288h33v1h-33zM18,289h33v1h-33zM240,289h32v1h-32zM461,289h33v1h-33zM18,290h33v1h-33zM240,290h32v1h-32zM461,290h33v1h-33zM18,291h33v1h-33zM240,291h32v1h-32zM461,291h33v1h-33zM18,292h34v1h-34zM240,292h32v1h-32zM460,292h34v1h-34zM19,293h33v1h-33zM240,293h32v1h-32zM460,293h33v1h-33zM19,294h33v1h-33zM240,294h32v1h-32zM460,294h33v1h-33zM19,295h33v1h-33zM240,295h32v1h-32zM460,295h33v1h-33zM19,296h33v1h-33zM240,296h32v1h-32zM460,296h33v1h-33zM19,297h34v1h-34zM240,297h32v1h-32zM459,297h34v1h-34zM19,298h34v1h-34zM240,298h32v1h-32zM459,298h34v1h-34zM20,299h33v1h-33zM240,299h32v1h-32zM459,299h33v1h-33zM20,300h33v1h-33zM240,300h32v1h-32zM459,300h33v1h-33zM20,301h33v1h-33zM240,301h32v1h-32zM459,301h33v1h-33zM20,302h34v1h-34zM240,302h32v1h-32zM458,302h34v1h-34zM20,303h34v1h-34zM240,303h32v1h-32zM458,303h34v1h-34zM21,304h33v1h-33zM240,304h32v1h-32zM458,304h33v1h-33zM21,305h33v1h-33zM240,305h32v1h-32zM458,305h33v1h-33zM21,306h34v1h-34zM240,306h32v1h-32zM457,306h34v1h-34zM21,307h34v1h-34zM240,307h32v1h-32zM457,307h34v1h-34zM21,308h34v1h-34zM240,308h32v1h-32zM457,308h34v1h-34zM22,309h33v1h-33zM240,309h32v1h-32zM457,309h33v1h-33zM22,310h34v1h-34zM240,310h32v1h-32zM456,310h34v1h-34zM22,311h34v1h-34zM240,311h32v1h-32zM456,311h34v1h-34zM22,312h34v1h-34zM240,312h32v1h-32zM456,312h34v1h-34zM23,313h34v1h-34zM240,313h32v1h-32zM455,313h34v1h-34zM23,314h34v1h-34zM240,314h32v1h-32zM455,314h34v1h-34zM23,315h34v1h-34zM240,315h32v1h-32zM455,315h34v1h-34zM23,316h34v1h-34zM240,316h32v1h-32zM455,316h34v1h-34zM24,317h34v1h-34zM240,317h32v1h-32zM454,317h34v1h-34zM24,318h34v1h-34zM240,318h32v1h-32zM454,318h34v1h-34zM24,319h34v1h-34zM240,319h32v1h-32zM454,319h34v1h-34zM24,320h35v1h-35zM240,320h32v1h-32zM453,320h35v1h-35zM25,321h34v1h-34zM240,321h32v1h-32zM453,321h34v1h-34zM25,322h34v1h-34zM240,322h32v1h-32zM453,322h34v1h-34zM25,323h35v1h-35zM240,323h32v1h-32zM452,323h35v1h-35zM26,324h34v1h-34zM240,324h32v1h-32zM452,324h34v1h-34zM26,325h34v1h-34zM240,325h32v1h-32zM452,325h34v1h-34zM26,326h35v1h-35zM240,326h32v1h-32zM451,326h35v1h-35zM26,327h35v1h-35zM240,327h32v1h-32zM451,327h35v1h-35zM27,328h34v1h-34zM240,328h32v1h-32zM451,328h34v1h-34zM27,329h35v1h-35zM240,329h32v1h-32zM450,329h35v1h-35zM27,330h35v1h-35zM240,330h32v1h-32zM450,330h35v1h-35zM28,331h35v1h-35zM240,331h32v1h-32zM449,331h35v1h-35zM28,332h35v1h-35zM240,332h32v1h-32zM449,332h35v1h-35zM28,333h35v1h-35zM240,333h32v1h-32zM449,333h35v1h-35zM29,334h35v1h-35zM240,334h32v1h-32zM448,334h35v1h-35zM29,335h35v1h-35zM240,335h32v1h-32zM448,335h35v1h-35zM29,336h36v1h-36zM240,336h32v1h-32zM447,336h35v1h-35zM30,337h35v1h-35zM240,337h32v1h-32zM447,337h35v1h-35zM30,338h35v1h-35zM240,338h32v1h-32zM447,338h35v1h-35zM31,339h35v1h-35zM240,339h32v1h-32zM446,339h35v1h-35zM31,340h35v1h-35zM240,340h32v1h-32zM446,340h35v1h-35zM31,341h36v1h-36zM240,341h32v1h-32zM445,341h36v1h-36zM32,342h35v1h-35zM240,342h32v1h-32zM445,342h35v1h-35zM32,343h36v1h-36zM240,343h32v1h-32zM444,343h36v1h-36zM33,344h35v1h-35zM240,344h32v1h-32zM444,344h35v1h-35zM33,345h36v1h-36zM240,345h32v1h-32zM443,345h36v1h-36zM33,346h36v1h-36zM240,346h32v1h-32zM443,346h36v1h-36zM34,347h36v1h-36zM240,347h32v1h-32zM442,347h36v1h-36zM34,348h36v1h-36zM240,348h32v1h-32zM442,348h36v1h-36zM35,349h36v1h-36zM240,349h32v1h-32zM441,349h36v1h-36zM35,350h36v1h-36zM240,350h32v1h-32zM441,350h36v1h-36zM35,351h37v1h-37zM240,351h32v1h-32zM440,351h37v1h-37zM36,352h36v1h-36zM240,352h32v1h-32zM440,352h36v1h-36zM36,353h37v1h-37zM240,353h33v1h-33zM439,353h37v1h-37zM37,354h36v1h-36zM240,354h33v1h-33zM439,354h36v1h-36zM37,355h37v1h-37zM240,355h33v1h-33zM438,355h37v1h-37zM38,356h36v1h-36zM240,356h34v1h-34zM438,356h36v1h-36zM38,357h37v1h-37zM240,357h35v1h-35zM437,357h37v1h-37zM39,358h36v1h-36zM240,358h36v1h-36zM437,358h36v1h-36zM39,359h37v1h-37zM240,359h39v1h-39zM436,359h37v1h-37zM39,360h38v1h-38zM241,360h52v1h-52zM435,360h38v1h-38zM40,361h37v1h-37zM241,361h55v1h-55zM435,361h37v1h-37zM41,362h37v1h-37zM241,362h56v1h-56zM434,362h37v1h-37zM41,363h37v1h-37zM241,363h57v1h-57zM434,363h37v1h-37zM42,364h37v1h-37zM242,364h58v1h-58zM433,364h37v1h-37zM42,365h38v1h-38zM242,365h58v1h-58zM432,365h38v1h-38zM43,366h37v1h-37zM242,366h59v1h-59zM432,366h37v1h-37zM43,367h38v1h-38zM243,367h59v1h-59zM431,367h38v1h-38zM44,368h38v1h-38zM243,368h59v1h-59zM430,368h38v1h-38zM44,369h38v1h-38zM244,369h59v1h-59zM430,369h38v1h-38zM45,370h38v1h-38zM244,370h59v1h-59zM429,370h38v1h-38zM45,371h38v1h-38zM245,371h59v1h-59zM429,371h38v1h-38zM46,372h38v1h-38zM245,372h59v1h-59zM428,372h38v1h-38zM46,373h39v1h-39zM246,373h58v1h-58zM427,373h39v1h-39zM47,374h39v1h-39zM246,374h58v1h-58zM426,374h39v1h-39zM47,375h39v1h-39zM247,375h57v1h-57zM426,375h39v1h-39zM48,376h39v1h-39zM248,376h56v1h-56zM425,376h39v1h-39zM49,377h39v1h-39zM249,377h55v1h-55zM424,377h39v1h-39zM49,378h39v1h-39zM250,378h54v1h-54zM424,378h39v1h-39zM50,379h39v1h-39zM251,379h53v1h-53zM423,379h39v1h-39zM50,380h40v1h-40zM251,380h53v1h-53zM422,380h40v1h-40zM51,381h40v1h-40zM253,381h50v1h-50zM421,381h40v1h-40zM52,382h39v1h-39zM254,382h49v1h-49zM421,382h39v1h-39zM52,383h40v1h-40zM255,383h48v1h-48zM420,383h40v1h-40zM53,384h40v1h-40zM256,384h46v1h-46zM419,384h40v1h-40zM54,385h40v1h-40zM257,385h44v1h-44zM418,385h40v1h-40zM54,386h41v1h-41zM259,386h41v1h-41zM417,386h41v1h-41zM55,387h40v1h-40zM261,387h39v1h-39zM417,387h40v1h-40zM55,388h41v1h-41zM263,388h35v1h-35zM416,388h41v1h-41zM56,389h41v1h-41zM265,389h32v1h-32zM415,389h41v1h-41zM57,390h41v1h-41zM268,390h28v1h-28zM414,390h41v1h-41zM57,391h42v1h-42zM272,391h21v1h-21zM413,391h42v1h-42zM58,392h42v1h-42zM412,392h42v1h-42zM59,393h41v1h-41zM412,393h41v1h-41zM60,394h41v1h-41zM411,394h41v1h-41zM60,395h42v1h-42zM410,395h42v1h-42zM61,396h42v1h-42zM409,396h42v1h-42zM62,397h42v1h-42zM408,397h42v1h-42zM62,398h43v1h-43zM407,398h43v1h-43zM63,399h43v1h-43zM406,399h43v1h-43zM64,400h43v1h-43zM405,400h43v1h-43zM65,401h43v1h-43zM404,401h43v1h-43zM66,402h43v1h-43zM403,402h43v1h-43zM66,403h44v1h-44zM402,403h44v1h-44zM67,404h44v1h-44zM401,404h44v1h-44zM68,405h44v1h-44zM400,405h44v1h-44zM69,406h44v1h-44zM399,406h44v1h-44zM69,407h45v1h-45zM398,407h45v1h-45zM70,408h45v1h-45zM397,408h45v1h-45zM71,409h45v1h-45zM396,409h45v1h-45zM72,410h45v1h-45zM395,410h45v1h-45zM73,411h45v1h-45zM394,411h45v1h-45zM74,412h46v1h-46zM392,412h46v1h-46zM75,413h46v1h-46zM391,413h46v1h-46zM75,414h47v1h-47zM390,414h47v1h-47zM76,415h47v1h-47zM389,415h47v1h-47zM77,416h47v1h-47zM388,416h47v1h-47zM78,417h48v1h-48zM386,417h48v1h-48zM79,418h48v1h-48zM385,418h48v1h-48zM80,419h48v1h-48zM384,419h48v1h-48zM81,420h48v1h-48zM383,420h48v1h-48zM82,421h49v1h-49zM381,421h49v1h-49zM83,422h49v1h-49zM380,422h49v1h-49zM84,423h49v1h-49zM379,423h49v1h-49zM85,424h50v1h-50zM377,424h50v1h-50zM86,425h50v1h-50zM376,425h50v1h-50zM87,426h51v1h-51zM374,426h51v1h-51zM88,427h51v1h-51zM373,427h51v1h-51zM89,428h51v1h-51zM372,428h51v1h-51zM90,429h52v1h-52zM370,429h52v1h-52zM91,430h53v1h-53zM368,430h53v1h-53zM92,431h53v1h-53zM367,431h53v1h-53zM93,432h54v1h-54zM365,432h54v1h-54zM94,433h54v1h-54zM364,433h54v1h-54zM95,434h55v1h-55zM362,434h55v1h-55zM96,435h56v1h-56zM360,435h56v1h-56zM97,436h56v1h-56zM359,436h56v1h-56zM99,437h56v1h-56zM357,437h56v1h-56zM100,438h57v1h-57zM355,438h57v1h-57zM101,439h58v1h-58zM353,439h58v1h-58zM102,440h59v1h-59zM351,440h59v1h-59zM103,441h60v1h-60zM349,441h60v1h-60zM104,442h61v1h-61zM347,442h61v1h-61zM106,443h61v1h-61zM345,443h61v1h-61zM107,444h62v1h-62zM343,444h62v1h-62zM108,445h63v1h-63zM341,445h63v1h-63zM110,446h63v1h-63zM339,446h64v1h-64zM111,447h65v1h-65zM336,447h65v1h-65zM112,448h66v1h-66zM334,448h66v1h-66zM113,449h68v1h-68zM331,449h68v1h-68zM115,450h68v1h-68zM329,450h68v1h-68zM116,451h70v1h-70zM326,451h70v1h-70zM118,452h71v1h-71zM323,452h71v1h-71zM119,453h73v1h-73zM320,453h73v1h-73zM120,454h75v1h-75zM317,454h75v1h-75zM122,455h77v1h-77zM313,455h77v1h-77zM123,456h79v1h-79zM310,456h79v1h-79zM125,457h81v1h-81zM306,457h81v1h-81zM127,458h83v1h-83zM302,458h83v1h-83zM128,459h87v1h-87zM297,459h87v1h-87zM130,460h90v1h-90zM292,460h90v1h-90zM131,461h96v1h-96zM285,461h96v1h-96zM133,462h101v1h-101zM278,462h101v1h-101zM135,463h117v1h-117zM260,463h117v1h-117zM137,464h239v1h-239zM138,465h236v1h-236zM140,466h232v1h-232zM142,467h228v1h-228zM144,468h224v1h-224zM146,469h220v1h-220zM148,470h216v1h-216zM150,471h212v1h-212zM151,472h209v1h-209zM154,473h204v1h-204zM156,474h200v1h-200zM158,475h196v1h-196zM160,476h192v1h-192zM163,477h186v1h-186zM165,478h182v1h-182zM168,479h176v1h-176zM170,480h172v1h-172zM173,481h166v1h-166zM176,482h161v1h-161zM178,483h156v1h-156zM181,484h150v1h-150zM184,485h144v1h-144zM188,486h136v1h-136zM191,487h130v1h-130zM195,488h122v1h-122zM199,489h114v1h-114zM203,490h106v1h-106zM208,491h96v1h-96zM213,492h86v1h-86zM219,493h74v1h-74zM226,494h60v1h-60zM236,495h40v1h-40z"/></svg>