<?xml version="1.0" encoding="UTF-8"?>
<svg xmlns="http://www.w3.org/2000/svg" viewBox="0 0 512 512" width="512" height="512"><path fill="#000" d="M232,42h134v1h-134zM228,43h142v1h-142zM225,44h147v1h-147zM223,45h151v1h-151zM222,46h153v1h-153zM221,47h156v1h-156zM219,48h159v1h-159zM219,49h160v1h-160zM218,50h162v1h-162zM217,51h163v1h-163zM216,52h165v1h-165zM216,53h166v1h-166zM215,54h167v1h-167zM215,55h168v1h-168zM214,56h169v1h-169zM214,57h169v1h-169zM214,58h170v1h-170zM213,59h171v1h-171zM213,60h171v1h-171zM213,61h171v1h-171zM213,62h171v1h-171zM213,63h171v1h-171zM213,64h171v1h-171zM213,65h171v1h-171zM213,66h171v1h-171zM213,67h171v1h-171zM213,68h171v1h-171zM214,69h170v1h-170zM214,70h169v1h-169zM214,71h169v1h-169zM215,72h168v1h-168zM215,73h167v1h-167zM216,74h166v1h-166zM216,75h165v1h-165zM217,76h163v1h-163zM218,77h162v1h-162zM219,78h160v1h-160zM219,79h159v1h-159zM221,80h156v1h-156zM222,81h153v1h-153zM223,82h151v1h-151zM225,83h147v1h-147zM228,84h142v1h-142zM232,85h134v1h-134zM271,86h45v1h-45zM271,87h45v1h-45zM271,88h44v1h-44zM271,89h44v1h-44zM271,90h44v1h-44zM270,91h45v1h-45zM270,92h45v1h-45zM270,93h44v1h-44zM270,94h44v1h-44zM269,95h45v1h-45zM269,96h45v1h-45zM269,97h44v1h-44zM269,98h44v1h-44zM269,99h44v1h-44zM268,100h45v1h-45zM268,101h45v1h-45zM268,102h44v1h-44zM268,103h44v1h-44zM267,104h45v1h-45zM267,105h45v1h-45zM267,106h44v1h-44zM267,107h44v1h-44zM267,108h44v1h-44zM266,109h45v1h-45zM266,110h45v1h-45zM266,111h44v1h-44zM266,112h44v1h-44zM265,113h45v1h-45zM265,114h45v1h-45zM265,115h44v1h-44zM265,116h44v1h-44zM265,117h44v1h-44zM264,118h45v1h-45zM264,119h45v1h-45zM264,120h44v1h-44zM264,121h44v1h-44zM263,122h45v1h-45zM263,123h45v1h-45zM263,124h44v1h-44zM263,125h44v1h-44zM263,126h44v1h-44zM262,127h45v1h-45zM262,128h45v1h-45zM262,129h44v1h-44zM262,130h44v1h-44zM261,131h45v1h-45zM261,132h45v1h-45zM261,133h44v1h-44zM261,134h44v1h-44zM261,135h44v1h-44zM260,136h45v1h-45zM260,137h45v1h-45zM260,138h44v1h-44zM260,139h44v1h-44zM259,140h45v1h-45zM259,141h45v1h-45zM259,142h44v1h-44zM259,143h44v1h-44zM259,144h44v1h-44zM258,145h45v1h-45zM258,146h45v1h-45zM258,147h44v1h-44zM258,148h44v1h-44zM257,149h45v1h-45zM257,150h45v1h-45zM257,151h44v1h-44zM257,152h44v1h-44zM257,153h44v1h-44zM256,154h45v1h-45zM256,155h45v1h-45zM256,156h44v1h-44zM256,157h44v1h-44zM255,158h45v1h-45zM255,159h45v1h-45zM255,160h44v1h-44zM255,161h44v1h-44zM255,162h44v1h-44zM254,163h45v1h-45zM254,164h45v1h-45zM254,165h44v1h-44zM254,166h44v1h-44zM253,167h45v1h-45zM253,168h45v1h-45zM253,169h44v1h-44zM253,170h44v1h-44zM253,171h44v1h-44zM252,172h45v1h-45zM252,173h45v1h-45zM252,174h44v1h-44zM252,175h44v1h-44zM251,176h45v1h-45zM251,177h45v1h-45zM251,178h44v1h-44zM251,179h44v1h-44zM251,180h44v1h-44zM250,181h45v1h-45zM250,182h45v1h-45zM250,183h44v1h-44zM250,184h44v1h-44zM249,185h45v1h-45zM249,186h45v1h-45zM249,187h44v1h-44zM249,188h44v1h-44zM249,189h44v1h-44zM248,190h45v1h-45zM248,191h45v1h-45zM248,192h44v1h-44zM248,193h44v1h-44zM247,194h45v1h-45zM247,195h45v1h-45zM247,196h44v1h-44zM247,197h44v1h-44zM247,198h44v1h-44zM246,199h45v1h-45zM246,200h45v1h-45zM246,201h44v1h-44zM246,202h44v1h-44zM245,203h45v1h-45zM245,204h45v1h-45zM245,205h44v1h-44zM245,206h44v1h-44zM245,207h44v1h-44zM244,208h45v1h-45zM244,209h45v1h-45zM244,210h44v1h-44zM244,211h44v1h-44zM243,212h45v1h-45zM243,213h45v1h-45zM243,214h44v1h-44zM243,215h44v1h-44zM243,216h44v1h-44zM242,217h45v1h-45zM242,218h45v1h-45zM242,219h44v1h-44zM242,220h44v1h-44zM241,221h45v1h-45zM241,222h45v1h-45zM241,223h44v1h-44zM241,224h44v1h-44zM241,225h44v1h-44zM240,226h45v1h-45zM240,227h45v1h-45zM240,228h44v1h-44zM240,229h44v1h-44zM239,230h45v1h-45zM239,231h45v1h-45zM239,232h44v1h-44zM239,233h44v1h-44zM239,234h44v1h-44zM238,235h45v1h-45zM238,236h45v1h-45zM238,237h44v1h-44zM238,238h44v1h-44zM237,239h45v1h-45zM237,240h45v1h-45zM237,241h44v1h-44zM237,242h44v1h-44zM237,243h44v1h-44zM236,244h45v1h-45zM236,245h45v1h-45zM236,246h44v1h-44zM236,247h44v1h-44zM235,248h45v1h-45zM235,249h45v1h-45zM235,250h44v1h-44zM235,251h44v1h-44zM235,252h44v1h-44zM234,253h45v1h-45zM234,254h45v1h-45zM234,255h44v1h-44zM234,256h44v1h-44zM233,257h45v1h-45zM233,258h45v1h-45zM233,259h44v1h-44zM233,260h44v1h-44zM233,261h44v1h-44zM232,262h45v1h-45zM232,263h45v1h-45zM232,264h44v1h-44zM232,265h44v1h-44zM231,266h45v1h-45zM231,267h45v1h-45zM231,268h44v1h-44zM231,269h44v1h-44zM231,270h44v1h-44zM230,271h45v1h-45zM230,272h45v1h-45zM230,273h44v1h-44zM230,274h44v1h-44zM229,275h45v1h-45zM229,276h45v1h-45zM229,277h44v1h-44zM229,278h44v1h-44zM229,279h44v1h-44zM228,280h45v1h-45zM228,281h45v1h-45zM228,282h44v1h-44zM228,283h44v1h-44zM227,284h45v1h-45zM227,285h45v1h-45zM227,286h44v1h-44zM227,287h44v1h-44zM227,288h44v1h-44zM226,289h45v1h-45zM226,290h45v1h-45zM226,291h44v1h-44zM226,292h44v1h-44zM225,293h45v1h-45zM225,294h45v1h-45zM225,295h44v1h-44zM225,296h44v1h-44zM225,297h44v1h-44zM224,298h45v1h-45zM224,299h45v1h-45zM224,300h44v1h-44zM224,301h44v1h-44zM223,302h45v1h-45zM223,303h45v1h-45zM223,304h44v1h-44zM223,305h44v1h-44zM223,306h44v1h-44zM222,307h45v1h-45zM222,308h45v1h-45zM222,309h44v1h-44zM222,310h44v1h-44zM221,311h45v1h-45zM221,312h45v1h-45zM221,313h44v1h-44zM221,314h44v1h-44zM221,315h44v1h-44zM220,316h45v1h-45zM220,317h45v1h-45zM220,318h44v1h-44zM220,319h44v1h-44zM219,320h45v1h-45zM219,321h45v1h-45zM219,322h44v1h-44zM219,323h44v1h-44zM219,324h44v1h-44zM218,325h45v1h-45zM218,326h45v1h-45zM218,327h44v1h-44zM218,328h44v1h-44zM217,329h45v1h-45zM217,330h45v1h-45zM217,331h44v1h-44zM217,332h44v1h-44zM217,333h44v1h-44zM216,334h45v1h-45zM216,335h45v1h-45zM216,336h44v1h-44zM216,337h44v1h-44zM215,338h45v1h-45zM215,339h45v1h-45zM215,340h44v1h-44zM215,341h44v1h-44zM215,342h44v1h-44zM214,343h45v1h-45zM214,344h45v1h-45zM214,345h44v1h-44zM214,346h44v1h-44zM213,347h45v1h-45zM213,348h45v1h-45zM213,349h44v1h-44zM213,350h44v1h-44zM213,351h44v1h-44zM212,352h45v1h-45zM212,353h45v1h-45zM212,354h44v1h-44zM212,355h44v1h-44zM211,356h45v1h-45zM211,357h45v1h-45zM211,358h44v1h-44zM211,359h44v1h-44zM211,360h44v1h-44zM210,361h45v1h-45zM210,362h45v1h-45zM210,363h44v1h-44zM210,364h44v1h-44zM209,365h45v1h-45zM209,366h45v1h-45zM209,367h44v1h-44zM209,368h44v1h-44zM209,369h44v1h-44zM208,370h45v1h-45zM208,371h45v1h-45zM208,372h44v1h-44zM208,373h44v1h-44zM207,374h45v1h-45zM207,375h45v1h-45zM207,376h44v1h-44zM207,377h44v1h-44zM207,378h44v1h-44zM206,379h45v1h-45zM206,380h45v1h-45zM206,381h44v1h-44zM206,382h44v1h-44zM205,383h45v1h-45zM205,384h45v1h-45zM205,385h44v1h-44zM205,386h44v1h-44zM205,387h44v1h-44zM204,388h45v1h-45zM204,389h45v1h-45zM204,390h44v1h-44zM204,391h44v1h-44zM203,392h45v1h-45zM203,393h45v1h-45zM203,394h44v1h-44zM203,395h44v1h-44zM203,396h44v1h-44zM202,397h45v1h-45zM202,398h45v1h-45zM202,399h44v1h-44zM202,400h44v1h-44zM201,401h45v1h-45zM201,402h45v1h-45zM201,403h44v1h-44zM201,404h44v1h-44zM201,405h44v1h-44zM200,406h45v1h-45zM200,407h45v1h-45zM200,408h44v1h-44zM200,409h44v1h-44zM199,410h45v1h-45zM199,411h45v1h-45zM199,412h44v1h-44zM199,413h44v1h-44zM199,414h44v1h-44zM198,415h45v1h-45zM198,416h45v1h-45zM198,417h44v1h-44zM198,418h44v1h-44zM197,419h45v1h-45zM197,420h45v1h-45zM197,421h44v1h-44zM197,422h44v1h-44zM197,423h44v1h-44zM196,424h45v1h-45zM196,425h45v1h-45zM146,426h134v1h-134zM142,427h142v1h-142zM140,428h147v1h-147zM138,429h151v1h-151zM137,430h153v1h-153zM135,431h156v1h-156zM134,432h159v1h-159zM133,433h160v1h-160zM132,434h162v1h-162zM132,435h163v1h-163zM131,436h165v1h-165zM130,437h166v1h-166zM130,438h167v1h-167zM129,439h168v1h-168zM129,440h169v1h-169zM129,441h169v1h-169zM128,442h170v1h-170zM128,443h171v1h-171zM128,444h171v1h-171zM128,445h171v1h-171zM128,446h171v1h-171zM128,447h171v1h-171zM128,448h171v1h-171zM128,449h171v1h-171zM128,450h171v1h-171zM128,451h171v1h-171zM128,452h171v1h-171zM128,453h170v1h-170zM129,454h169v1h-169zM129,455h169v1h-169zM129,456h168v1h-168zM130,457h167v1h-167zM130,458h166v1h-166zM131,459h165v1h-165zM132,460h163v1h-163zM132,461h162v1h-162zM133,462h160v1h-160zM134,463h158v1h-158zM135,464h156v1h-156zM137,465h153v1h-153zM138,466h151v1h-151zM140,467h147v1h-147zM142,468h142v1h-142zM146,469h134v1h-134z"/></svg>