<?xml version="1.0" encoding="UTF-8"?>
<svg xmlns="http://www.w3.org/2000/svg" viewBox="0 0 512 512" width="512" height="512"><path fill="#000" d="M351,85h22v1h-22zM344,86h36v1h-36zM339,87h46v1h-46zM335,88h54v1h-54zM331,89h62v1h-62zM328,90h68v1h-68zM326,91h73v1h-73zM323,92h79v1h-79zM320,93h84v1h-84zM318,94h88v1h-88zM316,95h92v1h-92zM314,96h96v1h-96zM312,97h100v1h-100zM310,98h104v1h-104zM309,99h107v1h-107zM307,100h110v1h-110zM305,101h114v1h-114zM304,102h117v1h-117zM302,103h120v1h-120zM301,104h123v1h-123zM299,105h126v1h-126zM298,106h128v1h-128zM297,107h131v1h-131zM296,108h133v1h-133zM294,109h136v1h-136zM293,110h138v1h-138zM292,111h140v1h-140zM291,112h143v1h-143zM290,113h145v1h-145zM289,114h147v1h-147zM288,115h149v1h-149zM287,116h151v1h-151zM286,117h153v1h-153zM285,118h155v1h-155zM284,119h157v1h-157zM283,120h159v1h-159zM283,121h159v1h-159zM282,122h161v1h-161zM282,123h162v1h-162zM281,124h164v1h-164zM281,125h165v1h-165zM281,126h166v1h-166zM280,127h167v1h-167zM280,128h168v1h-168zM280,129h70v1h-70zM374,129h75v1h-75zM280,130h66v1h-66zM378,130h72v1h-72zM280,131h63v1h-63zM382,131h68v1h-68zM280,132h60v1h-60zM385,132h66v1h-66zM280,133h57v1h-57zM387,133h65v1h-65zM280,134h55v1h-55zM389,134h63v1h-63zM280,135h53v1h-53zM391,135h62v1h-62zM280,136h51v1h-51zM393,136h60v1h-60zM280,137h50v1h-50zM395,137h59v1h-59zM281,138h47v1h-47zM396,138h59v1h-59zM281,139h45v1h-45zM398,139h57v1h-57zM281,140h44v1h-44zM399,140h57v1h-57zM282,141h42v1h-42zM401,141h55v1h-55zM282,142h40v1h-40zM402,142h55v1h-55zM283,143h38v1h-38zM403,143h54v1h-54zM284,144h36v1h-36zM404,144h54v1h-54zM284,145h35v1h-35zM405,145h53v1h-53zM285,146h33v1h-33zM406,146h53v1h-53zM199,147h23v1h-23zM286,147h31v1h-31zM407,147h52v1h-52zM192,148h37v1h-37zM287,148h29v1h-29zM408,148h52v1h-52zM187,149h47v1h-47zM288,149h27v1h-27zM409,149h51v1h-51zM183,150h55v1h-55zM290,150h23v1h-23zM410,150h51v1h-51zM179,151h63v1h-63zM291,151h21v1h-21zM411,151h50v1h-50zM176,152h69v1h-69zM294,152h15v1h-15zM412,152h50v1h-50zM173,153h75v1h-75zM297,153h9v1h-9zM413,153h49v1h-49zM171,154h79v1h-79zM413,154h49v1h-49zM168,155h85v1h-85zM414,155h49v1h-49zM166,156h89v1h-89zM415,156h48v1h-48zM164,157h93v1h-93zM415,157h48v1h-48zM162,158h97v1h-97zM416,158h48v1h-48zM160,159h101v1h-101zM417,159h47v1h-47zM158,160h105v1h-105zM417,160h47v1h-47zM157,161h107v1h-107zM418,161h47v1h-47zM155,162h111v1h-111zM418,162h47v1h-47zM153,163h115v1h-115zM419,163h46v1h-46zM152,164h117v1h-117zM419,164h47v1h-47zM150,165h121v1h-121zM420,165h46v1h-46zM149,166h123v1h-123zM420,166h46v1h-46zM148,167h125v1h-125zM421,167h45v1h-45zM146,168h129v1h-129zM421,168h46v1h-46zM145,169h131v1h-131zM422,169h45v1h-45zM144,170h133v1h-133zM422,170h45v1h-45zM142,171h137v1h-137zM422,171h45v1h-45zM141,172h139v1h-139zM423,172h45v1h-45zM140,173h141v1h-141zM423,173h45v1h-45zM139,174h143v1h-143zM423,174h45v1h-45zM138,175h145v1h-145zM424,175h44v1h-44zM137,176h147v1h-147zM424,176h44v1h-44zM136,177h149v1h-149zM424,177h44v1h-44zM135,178h151v1h-151zM424,178h45v1h-45zM134,179h153v1h-153zM425,179h44v1h-44zM133,180h155v1h-155zM425,180h44v1h-44zM132,181h157v1h-157zM425,181h44v1h-44zM131,182h159v1h-159zM425,182h44v1h-44zM130,183h161v1h-161zM425,183h44v1h-44zM129,184h163v1h-163zM426,184h43v1h-43zM128,185h165v1h-165zM426,185h43v1h-43zM127,186h166v1h-166zM426,186h43v1h-43zM126,187h168v1h-168zM426,187h43v1h-43zM125,188h170v1h-170zM426,188h44v1h-44zM124,189h172v1h-172zM426,189h44v1h-44zM123,190h174v1h-174zM426,190h44v1h-44zM122,191h175v1h-175zM426,191h44v1h-44zM121,192h177v1h-177zM426,192h44v1h-44zM120,193h179v1h-179zM426,193h44v1h-44zM119,194h180v1h-180zM426,194h44v1h-44zM118,195h67v1h-67zM203,195h97v1h-97zM426,195h44v1h-44zM117,196h66v1h-66zM203,196h98v1h-98zM426,196h44v1h-44zM116,197h65v1h-65zM203,197h98v1h-98zM426,197h44v1h-44zM115,198h64v1h-64zM203,198h99v1h-99zM426,198h44v1h-44zM114,199h64v1h-64zM203,199h99v1h-99zM426,199h44v1h-44zM113,200h63v1h-63zM203,200h100v1h-100zM426,200h44v1h-44zM112,201h63v1h-63zM203,201h101v1h-101zM426,201h43v1h-43zM111,202h62v1h-62zM203,202h101v1h-101zM426,202h43v1h-43zM110,203h62v1h-62zM203,203h102v1h-102zM426,203h43v1h-43zM109,204h62v1h-62zM203,204h102v1h-102zM425,204h44v1h-44zM108,205h61v1h-61zM203,205h103v1h-103zM425,205h44v1h-44zM107,206h61v1h-61zM203,206h103v1h-103zM425,206h44v1h-44zM106,207h61v1h-61zM203,207h104v1h-104zM425,207h44v1h-44zM105,208h61v1h-61zM203,208h104v1h-104zM425,208h44v1h-44zM104,209h61v1h-61zM203,209h105v1h-105zM425,209h44v1h-44zM103,210h61v1h-61zM203,210h105v1h-105zM424,210h44v1h-44zM102,211h61v1h-61zM203,211h106v1h-106zM424,211h44v1h-44zM101,212h61v1h-61zM203,212h106v1h-106zM424,212h44v1h-44zM100,213h61v1h-61zM202,213h108v1h-108zM423,213h45v1h-45zM99,214h61v1h-61zM202,214h108v1h-108zM423,214h45v1h-45zM98,215h61v1h-61zM202,215h108v1h-108zM423,215h45v1h-45zM97,216h61v1h-61zM201,216h110v1h-110zM422,216h45v1h-45zM97,217h60v1h-60zM201,217h110v1h-110zM422,217h45v1h-45zM96,218h60v1h-60zM201,218h110v1h-110zM422,218h45v1h-45zM95,219h60v1h-60zM200,219h112v1h-112zM421,219h46v1h-46zM94,220h60v1h-60zM200,220h112v1h-112zM421,220h46v1h-46zM93,221h60v1h-60zM199,221h48v1h-48zM265,221h48v1h-48zM420,221h46v1h-46zM92,222h60v1h-60zM199,222h47v1h-47zM266,222h47v1h-47zM420,222h46v1h-46zM91,223h60v1h-60zM199,223h47v1h-47zM266,223h47v1h-47zM420,223h46v1h-46zM90,224h60v1h-60zM199,224h46v1h-46zM267,224h46v1h-46zM419,224h46v1h-46zM89,225h60v1h-60zM198,225h47v1h-47zM267,225h47v1h-47zM419,225h46v1h-46zM88,226h60v1h-60zM198,226h46v1h-46zM268,226h46v1h-46zM418,226h47v1h-47zM87,227h60v1h-60zM198,227h46v1h-46zM268,227h46v1h-46zM417,227h48v1h-48zM86,228h61v1h-61zM197,228h46v1h-46zM269,228h46v1h-46zM417,228h47v1h-47zM85,229h61v1h-61zM197,229h46v1h-46zM269,229h46v1h-46zM416,229h48v1h-48zM84,230h61v1h-61zM197,230h45v1h-45zM270,230h45v1h-45zM416,230h48v1h-48zM83,231h61v1h-61zM197,231h45v1h-45zM270,231h45v1h-45zM415,231h48v1h-48zM82,232h61v1h-61zM197,232h45v1h-45zM270,232h45v1h-45zM414,232h49v1h-49zM81,233h61v1h-61zM196,233h45v1h-45zM271,233h45v1h-45zM414,233h48v1h-48zM80,234h61v1h-61zM196,234h45v1h-45zM271,234h45v1h-45zM413,234h49v1h-49zM79,235h61v1h-61zM196,235h45v1h-45zM271,235h45v1h-45zM412,235h50v1h-50zM78,236h61v1h-61zM196,236h44v1h-44zM272,236h44v1h-44zM411,236h50v1h-50zM77,237h61v1h-61zM196,237h44v1h-44zM272,237h44v1h-44zM410,237h51v1h-51zM76,238h61v1h-61zM195,238h45v1h-45zM272,238h45v1h-45zM410,238h50v1h-50zM75,239h61v1h-61zM195,239h45v1h-45zM273,239h44v1h-44zM409,239h51v1h-51zM74,240h61v1h-61zM195,240h44v1h-44zM273,240h44v1h-44zM408,240h52v1h-52zM73,241h61v1h-61zM195,241h44v1h-44zM273,241h44v1h-44zM407,241h52v1h-52zM72,242h61v1h-61zM195,242h44v1h-44zM273,242h44v1h-44zM406,242h53v1h-53zM71,243h61v1h-61zM195,243h44v1h-44zM273,243h44v1h-44zM405,243h53v1h-53zM70,244h61v1h-61zM195,244h43v1h-43zM274,244h43v1h-43zM404,244h54v1h-54zM69,245h61v1h-61zM194,245h44v1h-44zM274,245h44v1h-44zM403,245h54v1h-54zM68,246h61v1h-61zM194,246h44v1h-44zM274,246h44v1h-44zM402,246h55v1h-55zM68,247h60v1h-60zM194,247h44v1h-44zM274,247h44v1h-44zM401,247h55v1h-55zM67,248h60v1h-60zM194,248h44v1h-44zM274,248h44v1h-44zM400,248h55v1h-55zM66,249h60v1h-60zM194,249h44v1h-44zM274,249h44v1h-44zM399,249h56v1h-56zM65,250h60v1h-60zM194,250h44v1h-44zM274,250h44v1h-44zM398,250h56v1h-56zM64,251h60v1h-60zM194,251h44v1h-44zM274,251h44v1h-44zM397,251h57v1h-57zM64,252h59v1h-59zM194,252h44v1h-44zM274,252h44v1h-44zM396,252h57v1h-57zM63,253h59v1h-59zM194,253h44v1h-44zM274,253h44v1h-44zM395,253h57v1h-57zM62,254h59v1h-59zM194,254h44v1h-44zM274,254h44v1h-44zM394,254h58v1h-58zM62,255h58v1h-58zM194,255h44v1h-44zM274,255h44v1h-44zM393,255h58v1h-58zM61,256h58v1h-58zM194,256h44v1h-44zM274,256h44v1h-44zM392,256h58v1h-58zM60,257h58v1h-58zM194,257h44v1h-44zM274,257h44v1h-44zM391,257h59v1h-59zM60,258h57v1h-57zM194,258h44v1h-44zM274,258h44v1h-44zM390,258h59v1h-59zM59,259h57v1h-57zM194,259h44v1h-44zM274,259h44v1h-44zM389,259h59v1h-59zM58,260h57v1h-57zM194,260h44v1h-44zM274,260h44v1h-44zM388,260h60v1h-60zM58,261h56v1h-56zM194,261h44v1h-44zM274,261h44v1h-44zM387,261h60v1h-60zM57,262h56v1h-56zM194,262h44v1h-44zM274,262h44v1h-44zM386,262h60v1h-60zM57,263h55v1h-55zM194,263h44v1h-44zM274,263h44v1h-44zM385,263h60v1h-60zM56,264h55v1h-55zM194,264h44v1h-44zM274,264h44v1h-44zM384,264h60v1h-60zM55,265h55v1h-55zM194,265h44v1h-44zM274,265h44v1h-44zM383,265h61v1h-61zM55,266h54v1h-54zM194,266h44v1h-44zM274,266h43v1h-43zM382,266h61v1h-61zM54,267h54v1h-54zM195,267h43v1h-43zM274,267h43v1h-43zM381,267h61v1h-61zM54,268h53v1h-53zM195,268h44v1h-44zM273,268h44v1h-44zM380,268h61v1h-61zM53,269h53v1h-53zM195,269h44v1h-44zM273,269h44v1h-44zM379,269h61v1h-61zM53,270h52v1h-52zM195,270h44v1h-44zM273,270h44v1h-44zM378,270h61v1h-61zM52,271h52v1h-52zM195,271h44v1h-44zM273,271h44v1h-44zM377,271h61v1h-61zM52,272h51v1h-51zM195,272h44v1h-44zM273,272h44v1h-44zM376,272h61v1h-61zM52,273h50v1h-50zM195,273h45v1h-45zM272,273h45v1h-45zM375,273h61v1h-61zM51,274h51v1h-51zM196,274h44v1h-44zM272,274h44v1h-44zM374,274h61v1h-61zM51,275h50v1h-50zM196,275h44v1h-44zM272,275h44v1h-44zM373,275h61v1h-61zM50,276h50v1h-50zM196,276h45v1h-45zM271,276h45v1h-45zM372,276h61v1h-61zM50,277h49v1h-49zM196,277h45v1h-45zM271,277h45v1h-45zM371,277h61v1h-61zM50,278h48v1h-48zM196,278h45v1h-45zM271,278h45v1h-45zM370,278h61v1h-61zM49,279h49v1h-49zM197,279h45v1h-45zM270,279h45v1h-45zM369,279h61v1h-61zM49,280h48v1h-48zM197,280h45v1h-45zM270,280h45v1h-45zM368,280h61v1h-61zM48,281h48v1h-48zM197,281h45v1h-45zM270,281h45v1h-45zM367,281h61v1h-61zM48,282h48v1h-48zM197,282h46v1h-46zM269,282h46v1h-46zM366,282h61v1h-61zM48,283h47v1h-47zM197,283h46v1h-46zM269,283h46v1h-46zM365,283h61v1h-61zM47,284h48v1h-48zM198,284h46v1h-46zM268,284h46v1h-46zM365,284h60v1h-60zM47,285h47v1h-47zM198,285h46v1h-46zM268,285h46v1h-46zM364,285h60v1h-60zM47,286h46v1h-46zM198,286h47v1h-47zM267,286h47v1h-47zM363,286h60v1h-60zM47,287h46v1h-46zM199,287h46v1h-46zM267,287h46v1h-46zM362,287h60v1h-60zM46,288h46v1h-46zM199,288h47v1h-47zM266,288h47v1h-47zM361,288h60v1h-60zM46,289h46v1h-46zM199,289h47v1h-47zM266,289h47v1h-47zM360,289h60v1h-60zM46,290h45v1h-45zM199,290h48v1h-48zM265,290h47v1h-47zM359,290h60v1h-60zM45,291h46v1h-46zM200,291h112v1h-112zM358,291h60v1h-60zM45,292h46v1h-46zM200,292h112v1h-112zM357,292h60v1h-60zM45,293h45v1h-45zM201,293h110v1h-110zM356,293h60v1h-60zM45,294h45v1h-45zM201,294h110v1h-110zM355,294h61v1h-61zM45,295h45v1h-45zM201,295h110v1h-110zM354,295h61v1h-61zM44,296h45v1h-45zM202,296h108v1h-108zM353,296h61v1h-61zM44,297h45v1h-45zM202,297h108v1h-108zM352,297h61v1h-61zM44,298h45v1h-45zM202,298h108v1h-108zM351,298h61v1h-61zM44,299h44v1h-44zM203,299h106v1h-106zM350,299h61v1h-61zM44,300h44v1h-44zM203,300h106v1h-106zM349,300h61v1h-61zM43,301h45v1h-45zM204,301h105v1h-105zM348,301h61v1h-61zM43,302h44v1h-44zM204,302h105v1h-105zM347,302h61v1h-61zM43,303h44v1h-44zM205,303h104v1h-104zM346,303h61v1h-61zM43,304h44v1h-44zM205,304h104v1h-104zM345,304h61v1h-61zM43,305h44v1h-44zM206,305h103v1h-103zM344,305h61v1h-61zM43,306h44v1h-44zM206,306h103v1h-103zM343,306h61v1h-61zM43,307h44v1h-44zM207,307h102v1h-102zM341,307h62v1h-62zM43,308h43v1h-43zM207,308h102v1h-102zM340,308h62v1h-62zM43,309h43v1h-43zM208,309h101v1h-101zM339,309h62v1h-62zM43,310h43v1h-43zM208,310h101v1h-101zM337,310h63v1h-63zM42,311h44v1h-44zM209,311h100v1h-100zM336,311h63v1h-63zM42,312h44v1h-44zM209,312h100v1h-100zM334,312h64v1h-64zM42,313h44v1h-44zM210,313h99v1h-99zM333,313h64v1h-64zM42,314h44v1h-44zM211,314h98v1h-98zM331,314h65v1h-65zM42,315h44v1h-44zM211,315h98v1h-98zM329,315h66v1h-66zM42,316h44v1h-44zM212,316h97v1h-97zM327,316h67v1h-67zM42,317h44v1h-44zM213,317h180v1h-180zM42,318h44v1h-44zM213,318h179v1h-179zM42,319h44v1h-44zM214,319h177v1h-177zM42,320h44v1h-44zM215,320h175v1h-175zM42,321h44v1h-44zM215,321h174v1h-174zM42,322h44v1h-44zM216,322h172v1h-172zM42,323h44v1h-44zM217,323h170v1h-170zM42,324h44v1h-44zM218,324h168v1h-168zM43,325h43v1h-43zM219,325h166v1h-166zM43,326h43v1h-43zM219,326h165v1h-165zM43,327h43v1h-43zM220,327h163v1h-163zM43,328h44v1h-44zM221,328h161v1h-161zM43,329h44v1h-44zM222,329h159v1h-159zM43,330h44v1h-44zM223,330h157v1h-157zM43,331h44v1h-44zM224,331h155v1h-155zM43,332h44v1h-44zM225,332h153v1h-153zM43,333h45v1h-45zM226,333h151v1h-151zM44,334h44v1h-44zM227,334h149v1h-149zM44,335h44v1h-44zM228,335h147v1h-147zM44,336h44v1h-44zM229,336h145v1h-145zM44,337h45v1h-45zM230,337h143v1h-143zM44,338h45v1h-45zM231,338h141v1h-141zM44,339h45v1h-45zM232,339h139v1h-139zM45,340h45v1h-45zM233,340h137v1h-137zM45,341h45v1h-45zM235,341h133v1h-133zM45,342h45v1h-45zM236,342h131v1h-131zM45,343h46v1h-46zM237,343h129v1h-129zM46,344h45v1h-45zM239,344h125v1h-125zM46,345h46v1h-46zM240,345h123v1h-123zM46,346h46v1h-46zM241,346h121v1h-121zM46,347h47v1h-47zM243,347h117v1h-117zM47,348h46v1h-46zM244,348h115v1h-115zM47,349h47v1h-47zM246,349h111v1h-111zM47,350h47v1h-47zM248,350h107v1h-107zM48,351h47v1h-47zM249,351h105v1h-105zM48,352h47v1h-47zM251,352h101v1h-101zM48,353h48v1h-48zM253,353h97v1h-97zM49,354h48v1h-48zM255,354h93v1h-93zM49,355h48v1h-48zM257,355h89v1h-89zM49,356h49v1h-49zM260,356h84v1h-84zM50,357h49v1h-49zM262,357h79v1h-79zM50,358h49v1h-49zM206,358h9v1h-9zM264,358h75v1h-75zM50,359h50v1h-50zM203,359h15v1h-15zM267,359h69v1h-69zM51,360h50v1h-50zM200,360h21v1h-21zM270,360h63v1h-63zM51,361h51v1h-51zM199,361h23v1h-23zM274,361h55v1h-55zM52,362h51v1h-51zM197,362h27v1h-27zM278,362h47v1h-47zM52,363h52v1h-52zM196,363h29v1h-29zM283,363h37v1h-37zM53,364h52v1h-52zM195,364h31v1h-31zM290,364h23v1h-23zM53,365h53v1h-53zM194,365h33v1h-33zM54,366h53v1h-53zM193,366h35v1h-35zM54,367h54v1h-54zM192,367h36v1h-36zM55,368h54v1h-54zM191,368h38v1h-38zM55,369h55v1h-55zM189,369h41v1h-41zM56,370h55v1h-55zM188,370h42v1h-42zM56,371h57v1h-57zM187,371h44v1h-44zM57,372h57v1h-57zM185,372h46v1h-46zM57,373h59v1h-59zM184,373h47v1h-47zM58,374h59v1h-59zM182,374h50v1h-50zM59,375h60v1h-60zM181,375h51v1h-51zM59,376h62v1h-62zM179,376h53v1h-53zM60,377h63v1h-63zM177,377h55v1h-55zM60,378h65v1h-65zM175,378h57v1h-57zM61,379h66v1h-66zM172,379h60v1h-60zM62,380h68v1h-68zM169,380h63v1h-63zM62,381h72v1h-72zM166,381h66v1h-66zM63,382h75v1h-75zM162,382h70v1h-70zM64,383h168v1h-168zM65,384h167v1h-167zM65,385h166v1h-166zM66,386h165v1h-165zM67,387h164v1h-164zM68,388h162v1h-162zM69,389h161v1h-161zM70,390h159v1h-159zM70,391h159v1h-159zM71,392h157v1h-157zM72,393h155v1h-155zM73,394h153v1h-153zM74,395h151v1h-151zM75,396h149v1h-149zM76,397h147v1h-147zM77,398h145v1h-145zM78,399h143v1h-143zM80,400h140v1h-140zM81,401h138v1h-138zM82,402h136v1h-136zM83,403h133v1h-133zM84,404h131v1h-131zM86,405h128v1h-128zM87,406h126v1h-126zM88,407h123v1h-123zM90,408h120v1h-120zM91,409h117v1h-117zM93,410h114v1h-114zM95,411h110v1h-110zM96,412h107v1h-107zM98,413h104v1h-104zM100,414h100v1h-100zM102,415h96v1h-96zM104,416h92v1h-92zM106,417h88v1h-88zM108,418h83v1h-83zM111,419h78v1h-78zM113,420h73v1h-73zM116,421h68v1h-68zM119,422h62v1h-62zM123,423h54v1h-54zM127,424h46v1h-46zM132,425h36v1h-36zM139,426h21v1h-21z"/></svg>