<?xml version="1.0" encoding="UTF-8"?>
<svg xmlns="http://www.w3.org/2000/svg" viewBox="0 0 512 512" width="512" height="512"><path fill="#000" d="M77,64h17v1h-17zM73,65h25v1h-25zM70,66h31v1h-31zM68,67h35v1h-35zM65,68h40v1h-40zM64,69h43v1h-43zM62,70h47v1h-47zM61,71h49v1h-49zM59,72h52v1h-52zM58,73h55v1h-55zM57,74h57v1h-57zM56,75h59v1h-59zM55,76h61v1h-61zM54,77h63v1h-63zM53,78h65v1h-65zM52,79h67v1h-67zM51,80h68v1h-68zM50,81h70v1h-70zM50,82h71v1h-71zM49,83h73v1h-73zM48,84h74v1h-74zM48,85h75v1h-75zM187,85h266v1h-266zM47,86h76v1h-76zM184,86h272v1h-272zM47,87h77v1h-77zM182,87h276v1h-276zM46,88h78v1h-78zM180,88h280v1h-280zM46,89h79v1h-79zM179,89h282v1h-282zM45,90h80v1h-80zM178,90h284v1h-284zM45,91h81v1h-81zM176,91h288v1h-288zM45,92h81v1h-81zM176,92h288v1h-288zM44,93h82v1h-82zM175,93h290v1h-290zM44,94h83v1h-83zM174,94h292v1h-292zM44,95h83v1h-83zM173,95h294v1h-294zM44,96h83v1h-83zM173,96h294v1h-294zM43,97h84v1h-84zM172,97h296v1h-296zM43,98h85v1h-85zM172,98h296v1h-296zM43,99h85v1h-85zM172,99h296v1h-296zM43,100h85v1h-85zM171,100h298v1h-298zM43,101h85v1h-85zM171,101h298v1h-298zM42,102h86v1h-86zM171,102h298v1h-298zM42,103h86v1h-86zM171,103h298v1h-298zM42,104h86v1h-86zM170,104h300v1h-300zM42,105h86v1h-86zM170,105h300v1h-300zM42,106h86v1h-86zM170,106h300v1h-300zM42,107h86v1h-86zM170,107h300v1h-300zM42,108h86v1h-86zM170,108h300v1h-300zM42,109h86v1h-86zM170,109h299v1h-299zM42,110h86v1h-86zM171,110h298v1h-298zM43,111h85v1h-85zM171,111h298v1h-298zM43,112h85v1h-85zM171,112h298v1h-298zM43,113h85v1h-85zM171,113h298v1h-298zM43,114h85v1h-85zM172,114h296v1h-296zM43,115h84v1h-84zM172,115h296v1h-296zM43,116h84v1h-84zM173,116h294v1h-294zM44,117h83v1h-83zM173,117h294v1h-294zM44,118h83v1h-83zM174,118h292v1h-292zM44,119h82v1h-82zM175,119h290v1h-290zM45,120h81v1h-81zM175,120h290v1h-290zM45,121h81v1h-81zM176,121h288v1h-288zM45,122h80v1h-80zM177,122h286v1h-286zM46,123h79v1h-79zM178,123h284v1h-284zM46,124h78v1h-78zM180,124h280v1h-280zM47,125h77v1h-77zM181,125h278v1h-278zM47,126h77v1h-77zM183,126h274v1h-274zM48,127h75v1h-75zM186,127h268v1h-268zM48,128h74v1h-74zM49,129h73v1h-73zM50,130h71v1h-71zM50,131h70v1h-70zM51,132h69v1h-69zM52,133h67v1h-67zM53,134h65v1h-65zM53,135h64v1h-64zM54,136h62v1h-62zM55,137h60v1h-60zM56,138h58v1h-58zM58,139h55v1h-55zM59,140h53v1h-53zM60,141h51v1h-51zM62,142h47v1h-47zM63,143h45v1h-45zM65,144h41v1h-41zM67,145h37v1h-37zM69,146h33v1h-33zM72,147h27v1h-27zM75,148h20v1h-20zM81,149h8v1h-8zM79,213h13v1h-13zM74,214h23v1h-23zM71,215h29v1h-29zM68,216h34v1h-34zM66,217h38v1h-38zM64,218h42v1h-42zM63,219h45v1h-45zM61,220h49v1h-49zM60,221h51v1h-51zM58,222h54v1h-54zM57,223h56v1h-56zM56,224h59v1h-59zM55,225h61v1h-61zM54,226h63v1h-63zM53,227h65v1h-65zM52,228h66v1h-66zM51,229h68v1h-68zM51,230h69v1h-69zM50,231h71v1h-71zM49,232h72v1h-72zM49,233h73v1h-73zM48,234h75v1h-75zM189,234h262v1h-262zM47,235h76v1h-76zM185,235h270v1h-270zM47,236h77v1h-77zM183,236h274v1h-274zM47,237h77v1h-77zM181,237h278v1h-278zM46,238h79v1h-79zM179,238h282v1h-282zM46,239h79v1h-79zM178,239h284v1h-284zM45,240h80v1h-80zM177,240h286v1h-286zM45,241h81v1h-81zM176,241h288v1h-288zM44,242h82v1h-82zM175,242h290v1h-290zM44,243h83v1h-83zM174,243h292v1h-292zM44,244h83v1h-83zM174,244h292v1h-292zM44,245h83v1h-83zM173,245h294v1h-294zM43,246h84v1h-84zM173,246h294v1h-294zM43,247h85v1h-85zM172,247h296v1h-296zM43,248h85v1h-85zM172,248h296v1h-296zM43,249h85v1h-85zM171,249h298v1h-298zM43,250h85v1h-85zM171,250h298v1h-298zM43,251h85v1h-85zM171,251h298v1h-298zM42,252h86v1h-86zM171,252h298v1h-298zM42,253h86v1h-86zM170,253h300v1h-300zM42,254h86v1h-86zM170,254h300v1h-300zM42,255h86v1h-86zM170,255h300v1h-300zM42,256h86v1h-86zM170,256h300v1h-300zM42,257h86v1h-86zM170,257h300v1h-300zM42,258h86v1h-86zM170,258h300v1h-300zM42,259h86v1h-86zM171,259h298v1h-298zM43,260h85v1h-85zM171,260h298v1h-298zM43,261h85v1h-85zM171,261h298v1h-298zM43,262h85v1h-85zM171,262h298v1h-298zM43,263h85v1h-85zM172,263h296v1h-296zM43,264h85v1h-85zM172,264h296v1h-296zM43,265h84v1h-84zM173,265h294v1h-294zM44,266h83v1h-83zM173,266h294v1h-294zM44,267h83v1h-83zM174,267h292v1h-292zM44,268h83v1h-83zM174,268h292v1h-292zM44,269h82v1h-82zM175,269h290v1h-290zM45,270h81v1h-81zM176,270h288v1h-288zM45,271h80v1h-80zM177,271h286v1h-286zM46,272h79v1h-79zM178,272h284v1h-284zM46,273h79v1h-79zM179,273h282v1h-282zM47,274h77v1h-77zM181,274h278v1h-278zM47,275h77v1h-77zM183,275h274v1h-274zM47,276h76v1h-76zM185,276h270v1h-270zM48,277h75v1h-75zM189,277h262v1h-262zM49,278h73v1h-73zM49,279h72v1h-72zM50,280h71v1h-71zM51,281h69v1h-69zM51,282h68v1h-68zM52,283h66v1h-66zM53,284h65v1h-65zM54,285h63v1h-63zM55,286h61v1h-61zM56,287h59v1h-59zM57,288h56v1h-56zM58,289h54v1h-54zM60,290h51v1h-51zM61,291h49v1h-49zM63,292h45v1h-45zM64,293h42v1h-42zM66,294h38v1h-38zM68,295h34v1h-34zM71,296h29v1h-29zM74,297h23v1h-23zM79,298h13v1h-13zM81,362h9v1h-9zM75,363h20v1h-20zM72,364h27v1h-27zM69,365h33v1h-33zM67,366h37v1h-37zM65,367h41v1h-41zM63,368h45v1h-45zM62,369h47v1h-47zM60,370h51v1h-51zM59,371h53v1h-53zM58,372h55v1h-55zM56,373h58v1h-58zM55,374h60v1h-60zM54,375h62v1h-62zM53,376h64v1h-64zM53,377h65v1h-65zM52,378h67v1h-67zM51,379h69v1h-69zM50,380h70v1h-70zM50,381h71v1h-71zM49,382h73v1h-73zM48,383h74v1h-74zM48,384h75v1h-75zM186,384h268v1h-268zM47,385h77v1h-77zM183,385h274v1h-274zM47,386h77v1h-77zM181,386h278v1h-278zM46,387h78v1h-78zM180,387h280v1h-280zM46,388h79v1h-79zM178,388h284v1h-284zM45,389h80v1h-80zM177,389h286v1h-286zM45,390h81v1h-81zM176,390h288v1h-288zM45,391h81v1h-81zM175,391h290v1h-290zM44,392h82v1h-82zM175,392h290v1h-290zM44,393h83v1h-83zM174,393h292v1h-292zM44,394h83v1h-83zM173,394h294v1h-294zM43,395h84v1h-84zM173,395h294v1h-294zM43,396h84v1h-84zM172,396h296v1h-296zM43,397h85v1h-85zM172,397h296v1h-296zM43,398h85v1h-85zM171,398h298v1h-298zM43,399h85v1h-85zM171,399h298v1h-298zM43,400h85v1h-85zM171,400h298v1h-298zM42,401h86v1h-86zM171,401h298v1h-298zM42,402h86v1h-86zM170,402h300v1h-300zM42,403h86v1h-86zM170,403h300v1h-300zM42,404h86v1h-86zM170,404h300v1h-300zM42,405h86v1h-86zM170,405h300v1h-300zM42,406h86v1h-86zM170,406h300v1h-300zM42,407h86v1h-86zM170,407h300v1h-300zM42,408h86v1h-86zM171,408h298v1h-298zM42,409h86v1h-86zM171,409h298v1h-298zM43,410h85v1h-85zM171,410h298v1h-298zM43,411h85v1h-85zM171,411h298v1h-298zM43,412h85v1h-85zM172,412h296v1h-296zM43,413h85v1h-85zM172,413h296v1h-296zM43,414h84v1h-84zM172,414h296v1h-296zM44,415h83v1h-83zM173,415h294v1h-294zM44,416h83v1h-83zM173,416h294v1h-294zM44,417h83v1h-83zM174,417h292v1h-292zM44,418h82v1h-82zM175,418h290v1h-290zM45,419h81v1h-81zM176,419h288v1h-288zM45,420h81v1h-81zM176,420h287v1h-287zM45,421h80v1h-80zM178,421h284v1h-284zM46,422h79v1h-79zM179,422h282v1h-282zM46,423h78v1h-78zM180,423h280v1h-280zM47,424h77v1h-77zM182,424h276v1h-276zM47,425h76v1h-76zM184,425h272v1h-272zM48,426h75v1h-75zM187,426h266v1h-266zM49,427h73v1h-73zM49,428h73v1h-73zM50,429h71v1h-71zM50,430h70v1h-70zM51,431h68v1h-68zM52,432h67v1h-67zM53,433h65v1h-65zM54,434h63v1h-63zM55,435h61v1h-61zM56,436h59v1h-59zM57,437h57v1h-57zM58,438h55v1h-55zM59,439h52v1h-52zM61,440h49v1h-49zM62,441h47v1h-47zM64,442h43v1h-43zM66,443h39v1h-39zM68,444h35v1h-35zM70,445h31v1h-31zM73,446h25v1h-25zM77,447h17v1h-17z"/></svg>