<?xml version="1.0" encoding="UTF-8"?>
<svg xmlns="http://www.w3.org/2000/svg" viewBox="0 0 512 512" width="512" height="512"><path fill="#000" d="M41,37h2v1h-2zM37,38h10v1h-10zM159,38h335v1h-335zM35,39h14v1h-14zM156,39h341v1h-341zM34,40h16v1h-16zM154,40h345v1h-345zM33,41h18v1h-18zM152,41h349v1h-349zM32,42h20v1h-20zM150,42h352v1h-352zM31,43h21v1h-21zM149,43h355v1h-355zM30,44h23v1h-23zM148,44h357v1h-357zM30,45h23v1h-23zM147,45h359v1h-359zM29,46h25v1h-25zM146,46h361v1h-361zM28,47h26v1h-26zM145,47h362v1h-362zM28,48h26v1h-26zM145,48h363v1h-363zM27,49h27v1h-27zM144,49h365v1h-365zM26,50h28v1h-28zM143,50h366v1h-366zM25,51h29v1h-29zM143,51h369v1h-369zM25,52h29v1h-29zM142,52h370v1h-370zM24,53h30v1h-30zM142,53h370v1h-370zM23,54h31v1h-31zM142,54h370v1h-370zM23,55h31v1h-31zM141,55h371v1h-371zM22,56h32v1h-32zM141,56h371v1h-371zM21,57h33v1h-33zM141,57h371v1h-371zM21,58h33v1h-33zM141,58h371v1h-371zM20,59h34v1h-34zM141,59h371v1h-371zM19,60h35v1h-35zM140,60h372v1h-372zM19,61h35v1h-35zM140,61h372v1h-372zM18,62h36v1h-36zM140,62h372v1h-372zM18,63h36v1h-36zM140,63h372v1h-372zM17,64h37v1h-37zM140,64h372v1h-372zM17,65h37v1h-37zM141,65h371v1h-371zM17,66h37v1h-37zM141,66h371v1h-371zM17,67h37v1h-37zM141,67h371v1h-371zM17,68h37v1h-37zM141,68h371v1h-371zM18,69h36v1h-36zM141,69h371v1h-371zM18,70h36v1h-36zM142,70h370v1h-370zM18,71h36v1h-36zM142,71h370v1h-370zM18,72h36v1h-36zM143,72h369v1h-369zM19,73h35v1h-35zM143,73h369v1h-369zM20,74h34v1h-34zM144,74h365v1h-365zM20,75h34v1h-34zM144,75h364v1h-364zM21,76h33v1h-33zM145,76h363v1h-363zM23,77h31v1h-31zM146,77h361v1h-361zM24,78h30v1h-30zM147,78h359v1h-359zM28,79h26v1h-26zM147,79h358v1h-358zM28,80h26v1h-26zM149,80h355v1h-355zM28,81h26v1h-26zM150,81h353v1h-353zM28,82h26v1h-26zM151,82h351v1h-351zM28,83h26v1h-26zM153,83h347v1h-347zM28,84h26v1h-26zM155,84h343v1h-343zM28,85h26v1h-26zM157,85h338v1h-338zM28,86h26v1h-26zM161,86h330v1h-330zM28,87h26v1h-26zM28,88h26v1h-26zM28,89h26v1h-26zM28,90h26v1h-26zM28,91h26v1h-26zM28,92h26v1h-26zM28,93h26v1h-26zM28,94h26v1h-26zM28,95h26v1h-26zM28,96h26v1h-26zM28,97h26v1h-26zM28,98h26v1h-26zM28,99h26v1h-26zM28,100h26v1h-26zM28,101h26v1h-26zM28,102h26v1h-26zM28,103h26v1h-26zM28,104h26v1h-26zM28,105h26v1h-26zM28,106h26v1h-26zM28,107h26v1h-26zM28,108h26v1h-26zM28,109h26v1h-26zM28,110h26v1h-26zM28,111h26v1h-26zM28,112h26v1h-26zM28,113h26v1h-26zM28,114h26v1h-26zM28,115h26v1h-26zM28,116h26v1h-26zM28,117h26v1h-26zM28,118h26v1h-26zM28,119h26v1h-26zM28,120h26v1h-26zM28,121h26v1h-26zM28,122h26v1h-26zM28,123h26v1h-26zM28,124h26v1h-26zM28,125h26v1h-26zM28,126h26v1h-26zM28,127h26v1h-26zM28,128h26v1h-26zM28,129h26v1h-26zM28,130h26v1h-26zM28,131h26v1h-26zM28,132h26v1h-26zM28,133h26v1h-26zM28,134h26v1h-26zM28,135h26v1h-26zM28,136h26v1h-26zM28,137h26v1h-26zM28,138h26v1h-26zM28,139h26v1h-26zM28,140h26v1h-26zM29,141h25v1h-25zM29,142h25v1h-25zM29,143h24v1h-24zM29,144h24v1h-24zM30,145h22v1h-22zM31,146h21v1h-21zM31,147h20v1h-20zM32,148h18v1h-18zM34,149h14v1h-14zM36,150h11v1h-11zM40,151h3v1h-3zM28,199h15v1h-15zM25,200h21v1h-21zM21,201h29v1h-29zM19,202h33v1h-33zM17,203h36v1h-36zM16,204h39v1h-39zM14,205h43v1h-43zM13,206h45v1h-45zM12,207h47v1h-47zM11,208h49v1h-49zM10,209h51v1h-51zM9,210h53v1h-53zM8,211h55v1h-55zM7,212h57v1h-57zM7,213h58v1h-58zM6,214h59v1h-59zM6,215h60v1h-60zM5,216h61v1h-61zM4,217h63v1h-63zM4,218h63v1h-63zM4,219h64v1h-64zM4,220h64v1h-64zM3,221h65v1h-65zM3,222h66v1h-66zM3,223h66v1h-66zM3,224h29v1h-29zM39,224h30v1h-30zM0,225h30v1h-30zM41,225h29v1h-29zM0,226h29v1h-29zM42,226h28v1h-28zM0,227h28v1h-28zM43,227h27v1h-27zM0,228h28v1h-28zM44,228h26v1h-26zM0,229h28v1h-28zM44,229h26v1h-26zM0,230h28v1h-28zM44,230h26v1h-26zM0,231h28v1h-28zM44,231h26v1h-26zM164,231h325v1h-325zM0,232h27v1h-27zM44,232h26v1h-26zM158,232h337v1h-337zM0,233h27v1h-27zM44,233h26v1h-26zM155,233h343v1h-343zM3,234h24v1h-24zM44,234h26v1h-26zM153,234h346v1h-346zM3,235h24v1h-24zM44,235h26v1h-26zM151,235h350v1h-350zM3,236h23v1h-23zM44,236h26v1h-26zM150,236h353v1h-353zM4,237h21v1h-21zM44,237h26v1h-26zM149,237h355v1h-355zM5,238h20v1h-20zM43,238h27v1h-27zM148,238h357v1h-357zM5,239h19v1h-19zM43,239h27v1h-27zM147,239h359v1h-359zM7,240h16v1h-16zM42,240h28v1h-28zM146,240h361v1h-361zM8,241h13v1h-13zM41,241h28v1h-28zM145,241h363v1h-363zM10,242h9v1h-9zM40,242h29v1h-29zM144,242h364v1h-364zM39,243h30v1h-30zM144,243h365v1h-365zM38,244h30v1h-30zM143,244h366v1h-366zM37,245h31v1h-31zM143,245h369v1h-369zM36,246h32v1h-32zM142,246h370v1h-370zM35,247h32v1h-32zM142,247h370v1h-370zM34,248h33v1h-33zM142,248h370v1h-370zM32,249h34v1h-34zM141,249h371v1h-371zM31,250h35v1h-35zM141,250h371v1h-371zM30,251h35v1h-35zM141,251h371v1h-371zM28,252h37v1h-37zM141,252h371v1h-371zM27,253h37v1h-37zM141,253h371v1h-371zM26,254h37v1h-37zM140,254h372v1h-372zM24,255h38v1h-38zM140,255h372v1h-372zM23,256h38v1h-38zM140,256h372v1h-372zM22,257h39v1h-39zM140,257h372v1h-372zM20,258h40v1h-40zM141,258h371v1h-371zM19,259h40v1h-40zM141,259h371v1h-371zM18,260h40v1h-40zM141,260h371v1h-371zM16,261h41v1h-41zM141,261h371v1h-371zM15,262h41v1h-41zM141,262h371v1h-371zM14,263h41v1h-41zM142,263h370v1h-370zM13,264h41v1h-41zM142,264h370v1h-370zM12,265h40v1h-40zM142,265h370v1h-370zM11,266h40v1h-40zM143,266h369v1h-369zM10,267h40v1h-40zM143,267h366v1h-366zM9,268h40v1h-40zM144,268h365v1h-365zM8,269h39v1h-39zM144,269h364v1h-364zM7,270h39v1h-39zM145,270h363v1h-363zM6,271h38v1h-38zM146,271h361v1h-361zM5,272h38v1h-38zM147,272h359v1h-359zM5,273h37v1h-37zM148,273h357v1h-357zM4,274h36v1h-36zM149,274h355v1h-355zM3,275h36v1h-36zM150,275h353v1h-353zM3,276h35v1h-35zM151,276h350v1h-350zM0,277h36v1h-36zM153,277h346v1h-346zM0,278h35v1h-35zM155,278h343v1h-343zM0,279h34v1h-34zM158,279h337v1h-337zM0,280h32v1h-32zM164,280h325v1h-325zM0,281h31v1h-31zM0,282h30v1h-30zM0,283h29v1h-29zM0,284h29v1h-29zM0,285h29v1h-29zM0,286h29v1h-29zM0,287h29v1h-29zM0,288h61v1h-61zM0,289h65v1h-65zM0,290h66v1h-66zM0,291h68v1h-68zM0,292h68v1h-68zM0,293h69v1h-69zM0,294h70v1h-70zM0,295h70v1h-70zM0,296h71v1h-71zM0,297h71v1h-71zM0,298h71v1h-71zM0,299h71v1h-71zM0,300h71v1h-71zM0,301h71v1h-71zM0,302h71v1h-71zM0,303h71v1h-71zM0,304h71v1h-71zM0,305h70v1h-70zM0,306h70v1h-70zM0,307h69v1h-69zM3,308h66v1h-66zM3,309h65v1h-65zM5,310h62v1h-62zM6,311h59v1h-59zM9,312h54v1h-54zM33,360h7v1h-7zM26,361h20v1h-20zM23,362h27v1h-27zM19,363h33v1h-33zM18,364h37v1h-37zM16,365h40v1h-40zM14,366h44v1h-44zM13,367h46v1h-46zM12,368h48v1h-48zM11,369h50v1h-50zM10,370h52v1h-52zM9,371h54v1h-54zM8,372h56v1h-56zM7,373h57v1h-57zM7,374h58v1h-58zM6,375h59v1h-59zM5,376h61v1h-61zM5,377h61v1h-61zM5,378h62v1h-62zM4,379h63v1h-63zM4,380h63v1h-63zM3,381h64v1h-64zM3,382h65v1h-65zM3,383h65v1h-65zM3,384h65v1h-65zM0,385h33v1h-33zM40,385h28v1h-28zM0,386h30v1h-30zM42,386h27v1h-27zM0,387h29v1h-29zM42,387h27v1h-27zM0,388h28v1h-28zM43,388h26v1h-26zM0,389h28v1h-28zM43,389h26v1h-26zM0,390h28v1h-28zM43,390h26v1h-26zM0,391h27v1h-27zM43,391h26v1h-26zM0,392h27v1h-27zM43,392h26v1h-26zM0,393h27v1h-27zM43,393h26v1h-26zM0,394h27v1h-27zM43,394h26v1h-26zM3,395h24v1h-24zM43,395h26v1h-26zM3,396h23v1h-23zM43,396h26v1h-26zM4,397h22v1h-22zM43,397h26v1h-26zM4,398h21v1h-21zM43,398h25v1h-25zM5,399h19v1h-19zM43,399h25v1h-25zM6,400h17v1h-17zM42,400h26v1h-26zM7,401h15v1h-15zM41,401h27v1h-27zM10,402h10v1h-10zM34,402h34v1h-34zM30,403h37v1h-37zM29,404h38v1h-38zM27,405h40v1h-40zM27,406h39v1h-39zM26,407h40v1h-40zM25,408h41v1h-41zM25,409h40v1h-40zM24,410h41v1h-41zM24,411h41v1h-41zM24,412h41v1h-41zM24,413h41v1h-41zM24,414h41v1h-41zM24,415h41v1h-41zM24,416h42v1h-42zM24,417h42v1h-42zM24,418h43v1h-43zM25,419h43v1h-43zM25,420h43v1h-43zM26,421h43v1h-43zM27,422h42v1h-42zM28,423h41v1h-41zM29,424h41v1h-41zM31,425h39v1h-39zM161,425h330v1h-330zM35,426h35v1h-35zM157,426h338v1h-338zM41,427h30v1h-30zM155,427h343v1h-343zM43,428h28v1h-28zM153,428h347v1h-347zM44,429h27v1h-27zM151,429h351v1h-351zM45,430h26v1h-26zM150,430h353v1h-353zM11,431h4v1h-4zM45,431h26v1h-26zM149,431h355v1h-355zM6,432h12v1h-12zM46,432h25v1h-25zM147,432h358v1h-358zM5,433h15v1h-15zM46,433h25v1h-25zM147,433h359v1h-359zM3,434h18v1h-18zM46,434h25v1h-25zM146,434h361v1h-361zM0,435h22v1h-22zM46,435h26v1h-26zM145,435h363v1h-363zM0,436h23v1h-23zM46,436h26v1h-26zM144,436h364v1h-364zM0,437h23v1h-23zM46,437h26v1h-26zM144,437h365v1h-365zM0,438h24v1h-24zM46,438h26v1h-26zM143,438h369v1h-369zM0,439h24v1h-24zM46,439h25v1h-25zM143,439h369v1h-369zM0,440h25v1h-25zM46,440h25v1h-25zM142,440h370v1h-370zM0,441h25v1h-25zM46,441h25v1h-25zM142,441h370v1h-370zM0,442h25v1h-25zM45,442h26v1h-26zM141,442h371v1h-371zM0,443h25v1h-25zM45,443h26v1h-26zM141,443h371v1h-371zM0,444h25v1h-25zM45,444h26v1h-26zM141,444h371v1h-371zM0,445h26v1h-26zM45,445h26v1h-26zM141,445h371v1h-371zM0,446h26v1h-26zM44,446h27v1h-27zM141,446h371v1h-371zM0,447h27v1h-27zM43,447h28v1h-28zM140,447h372v1h-372zM0,448h29v1h-29zM42,448h28v1h-28zM140,448h372v1h-372zM0,449h70v1h-70zM140,449h372v1h-372zM0,450h70v1h-70zM140,450h372v1h-372zM0,451h70v1h-70zM140,451h372v1h-372zM0,452h69v1h-69zM141,452h371v1h-371zM0,453h69v1h-69zM141,453h371v1h-371zM0,454h69v1h-69zM141,454h371v1h-371zM0,455h68v1h-68zM141,455h371v1h-371zM3,456h65v1h-65zM141,456h371v1h-371zM3,457h64v1h-64zM142,457h370v1h-370zM4,458h63v1h-63zM142,458h370v1h-370zM4,459h62v1h-62zM142,459h370v1h-370zM5,460h61v1h-61zM143,460h369v1h-369zM6,461h59v1h-59zM143,461h366v1h-366zM7,462h57v1h-57zM144,462h365v1h-365zM8,463h55v1h-55zM145,463h363v1h-363zM8,464h54v1h-54zM145,464h362v1h-362zM9,465h52v1h-52zM146,465h361v1h-361zM11,466h49v1h-49zM147,466h359v1h-359zM12,467h47v1h-47zM148,467h357v1h-357zM13,468h45v1h-45zM149,468h355v1h-355zM15,469h41v1h-41zM150,469h352v1h-352zM17,470h37v1h-37zM152,470h349v1h-349zM19,471h33v1h-33zM154,471h345v1h-345zM22,472h27v1h-27zM156,472h341v1h-341zM26,473h19v1h-19zM159,473h335v1h-335zM33,474h5v1h-5z"/></svg>