<?xml version="1.0" encoding="UTF-8"?>
<svg xmlns="http://www.w3.org/2000/svg" viewBox="0 0 512 512" width="512" height="512"><path fill="#000" d="M56,16h23v1h-23zM51,17h33v1h-33zM47,18h41v1h-41zM44,19h47v1h-47zM41,20h53v1h-53zM39,21h58v1h-58zM36,22h63v1h-63zM34,23h67v1h-67zM32,24h71v1h-71zM30,25h75v1h-75zM29,26h77v1h-77zM27,27h81v1h-81zM26,28h83v1h-83zM24,29h87v1h-87zM23,30h89v1h-89zM22,31h91v1h-91zM21,32h93v1h-93zM19,33h97v1h-97zM18,34h99v1h-99zM17,35h101v1h-101zM16,36h103v1h-103zM15,37h105v1h-105zM14,38h107v1h-107zM14,39h107v1h-107zM13,40h109v1h-109zM12,41h111v1h-111zM11,42h113v1h-113zM10,43h115v1h-115zM10,44h115v1h-115zM9,45h117v1h-117zM8,46h57v1h-57zM70,46h57v1h-57zM8,47h49v1h-49zM78,47h49v1h-49zM7,48h47v1h-47zM81,48h47v1h-47zM7,49h44v1h-44zM84,49h44v1h-44zM6,50h43v1h-43zM86,50h43v1h-43zM5,51h42v1h-42zM88,51h41v1h-41zM5,52h40v1h-40zM90,52h40v1h-40zM5,53h38v1h-38zM92,53h38v1h-38zM4,54h38v1h-38zM93,54h38v1h-38zM4,55h37v1h-37zM94,55h37v1h-37zM3,56h37v1h-37zM95,56h37v1h-37zM3,57h36v1h-36zM96,57h36v1h-36zM3,58h35v1h-35zM97,58h35v1h-35zM0,59h37v1h-37zM98,59h35v1h-35zM0,60h36v1h-36zM99,60h34v1h-34zM0,61h35v1h-35zM100,61h33v1h-33zM0,62h34v1h-34zM101,62h33v1h-33zM0,63h34v1h-34zM101,63h33v1h-33zM0,64h33v1h-33zM102,64h32v1h-32zM0,65h33v1h-33zM102,65h32v1h-32zM0,66h32v1h-32zM103,66h32v1h-32zM0,67h32v1h-32zM103,67h32v1h-32zM0,68h32v1h-32zM103,68h32v1h-32zM0,69h31v1h-31zM104,69h31v1h-31zM0,70h31v1h-31zM104,70h31v1h-31zM0,71h31v1h-31zM104,71h31v1h-31zM0,72h31v1h-31zM104,72h31v1h-31zM0,73h31v1h-31zM104,73h31v1h-31zM0,74h31v1h-31zM104,74h31v1h-31zM0,75h31v1h-31zM104,75h31v1h-31zM0,76h31v1h-31zM104,76h31v1h-31zM0,77h31v1h-31zM104,77h31v1h-31zM0,78h31v1h-31zM104,78h31v1h-31zM0,79h31v1h-31zM104,79h31v1h-31zM0,80h31v1h-31zM104,80h31v1h-31zM0,81h31v1h-31zM104,81h31v1h-31zM0,82h31v1h-31zM104,82h31v1h-31zM0,83h32v1h-32zM103,83h32v1h-32zM0,84h32v1h-32zM103,84h32v1h-32zM0,85h32v1h-32zM103,85h32v1h-32zM0,86h33v1h-33zM102,86h32v1h-32zM0,87h33v1h-33zM102,87h32v1h-32zM0,88h34v1h-34zM101,88h33v1h-33zM0,89h34v1h-34zM101,89h33v1h-33zM0,90h35v1h-35zM100,90h33v1h-33zM0,91h36v1h-36zM99,91h34v1h-34zM0,92h37v1h-37zM98,92h35v1h-35zM3,93h35v1h-35zM97,93h35v1h-35zM3,94h36v1h-36zM96,94h36v1h-36zM3,95h37v1h-37zM95,95h37v1h-37zM4,96h37v1h-37zM94,96h37v1h-37zM4,97h38v1h-38zM93,97h38v1h-38zM5,98h38v1h-38zM92,98h38v1h-38zM5,99h40v1h-40zM90,99h40v1h-40zM5,100h42v1h-42zM88,100h41v1h-41zM6,101h43v1h-43zM86,101h43v1h-43zM7,102h44v1h-44zM84,102h44v1h-44zM7,103h47v1h-47zM81,103h47v1h-47zM8,104h50v1h-50zM77,104h50v1h-50zM8,105h57v1h-57zM70,105h57v1h-57zM9,106h117v1h-117zM10,107h115v1h-115zM10,108h115v1h-115zM11,109h113v1h-113zM12,110h111v1h-111zM13,111h109v1h-109zM14,112h107v1h-107zM14,113h107v1h-107zM15,114h105v1h-105zM16,115h103v1h-103zM17,116h101v1h-101zM18,117h99v1h-99zM19,118h97v1h-97zM21,119h93v1h-93zM22,120h91v1h-91zM23,121h89v1h-89zM24,122h87v1h-87zM26,123h83v1h-83zM27,124h81v1h-81zM29,125h77v1h-77zM30,126h75v1h-75zM32,127h71v1h-71zM34,128h67v1h-67zM36,129h63v1h-63zM39,130h58v1h-58zM41,131h53v1h-53zM44,132h47v1h-47zM47,133h41v1h-41zM51,134h33v1h-33zM56,135h23v1h-23zM10,166h115v1h-115zM175,166h117v1h-117zM8,167h119v1h-119zM173,167h121v1h-121zM366,167h24v1h-24zM6,168h123v1h-123zM171,168h125v1h-125zM356,168h44v1h-44zM5,169h125v1h-125zM170,169h127v1h-127zM351,169h55v1h-55zM4,170h127v1h-127zM169,170h129v1h-129zM346,170h65v1h-65zM3,171h129v1h-129zM168,171h131v1h-131zM342,171h73v1h-73zM0,172h133v1h-133zM167,172h133v1h-133zM338,172h81v1h-81zM0,173h133v1h-133zM167,173h133v1h-133zM335,173h87v1h-87zM0,174h134v1h-134zM166,174h135v1h-135zM333,174h92v1h-92zM0,175h134v1h-134zM166,175h135v1h-135zM330,175h98v1h-98zM0,176h135v1h-135zM165,176h137v1h-137zM328,176h103v1h-103zM0,177h135v1h-135zM165,177h137v1h-137zM325,177h108v1h-108zM0,178h135v1h-135zM165,178h137v1h-137zM323,178h113v1h-113zM0,179h135v1h-135zM165,179h137v1h-137zM321,179h117v1h-117zM0,180h135v1h-135zM165,180h137v1h-137zM319,180h121v1h-121zM0,181h135v1h-135zM165,181h137v1h-137zM318,181h124v1h-124zM0,182h135v1h-135zM165,182h137v1h-137zM316,182h128v1h-128zM0,183h135v1h-135zM165,183h137v1h-137zM314,183h132v1h-132zM0,184h135v1h-135zM165,184h137v1h-137zM312,184h136v1h-136zM0,185h135v1h-135zM165,185h137v1h-137zM311,185h138v1h-138zM0,186h135v1h-135zM165,186h137v1h-137zM309,186h142v1h-142zM0,187h135v1h-135zM165,187h137v1h-137zM308,187h145v1h-145zM0,188h135v1h-135zM165,188h137v1h-137zM307,188h147v1h-147zM0,189h135v1h-135zM165,189h291v1h-291zM0,190h135v1h-135zM165,190h292v1h-292zM0,191h135v1h-135zM165,191h294v1h-294zM0,192h135v1h-135zM165,192h295v1h-295zM0,193h135v1h-135zM165,193h296v1h-296zM0,194h135v1h-135zM165,194h297v1h-297zM0,195h135v1h-135zM165,195h299v1h-299zM0,196h30v1h-30zM105,196h30v1h-30zM165,196h30v1h-30zM272,196h193v1h-193zM0,197h30v1h-30zM105,197h30v1h-30zM165,197h30v1h-30zM272,197h194v1h-194zM0,198h30v1h-30zM105,198h30v1h-30zM165,198h30v1h-30zM272,198h92v1h-92zM392,198h75v1h-75zM0,199h30v1h-30zM105,199h30v1h-30zM165,199h30v1h-30zM272,199h85v1h-85zM399,199h69v1h-69zM0,200h30v1h-30zM105,200h30v1h-30zM165,200h30v1h-30zM272,200h80v1h-80zM404,200h65v1h-65zM0,201h30v1h-30zM105,201h30v1h-30zM165,201h30v1h-30zM272,201h77v1h-77zM409,201h61v1h-61zM0,202h30v1h-30zM105,202h30v1h-30zM165,202h30v1h-30zM272,202h73v1h-73zM412,202h59v1h-59zM0,203h30v1h-30zM105,203h30v1h-30zM165,203h30v1h-30zM272,203h71v1h-71zM415,203h57v1h-57zM0,204h30v1h-30zM105,204h30v1h-30zM165,204h30v1h-30zM272,204h68v1h-68zM418,204h55v1h-55zM0,205h30v1h-30zM105,205h30v1h-30zM165,205h30v1h-30zM272,205h66v1h-66zM421,205h53v1h-53zM0,206h30v1h-30zM105,206h30v1h-30zM165,206h30v1h-30zM272,206h64v1h-64zM423,206h52v1h-52zM0,207h30v1h-30zM105,207h30v1h-30zM165,207h30v1h-30zM272,207h62v1h-62zM425,207h51v1h-51zM0,208h30v1h-30zM105,208h30v1h-30zM165,208h30v1h-30zM272,208h60v1h-60zM427,208h50v1h-50zM0,209h30v1h-30zM105,209h30v1h-30zM165,209h30v1h-30zM272,209h58v1h-58zM429,209h49v1h-49zM0,210h30v1h-30zM105,210h30v1h-30zM165,210h30v1h-30zM272,210h57v1h-57zM431,210h48v1h-48zM0,211h30v1h-30zM105,211h30v1h-30zM165,211h30v1h-30zM272,211h55v1h-55zM433,211h47v1h-47zM0,212h30v1h-30zM105,212h30v1h-30zM165,212h30v1h-30zM272,212h54v1h-54zM435,212h45v1h-45zM0,213h30v1h-30zM105,213h30v1h-30zM165,213h30v1h-30zM272,213h52v1h-52zM436,213h45v1h-45zM0,214h30v1h-30zM105,214h30v1h-30zM165,214h30v1h-30zM272,214h51v1h-51zM438,214h44v1h-44zM0,215h30v1h-30zM105,215h30v1h-30zM165,215h30v1h-30zM272,215h50v1h-50zM439,215h44v1h-44zM0,216h30v1h-30zM105,216h30v1h-30zM165,216h30v1h-30zM272,216h49v1h-49zM441,216h42v1h-42zM0,217h30v1h-30zM105,217h30v1h-30zM165,217h30v1h-30zM272,217h48v1h-48zM442,217h42v1h-42zM0,218h30v1h-30zM105,218h30v1h-30zM165,218h30v1h-30zM272,218h46v1h-46zM443,218h42v1h-42zM0,219h30v1h-30zM105,219h30v1h-30zM165,219h30v1h-30zM272,219h45v1h-45zM444,219h42v1h-42zM0,220h30v1h-30zM105,220h30v1h-30zM165,220h30v1h-30zM272,220h44v1h-44zM446,220h40v1h-40zM0,221h30v1h-30zM105,221h30v1h-30zM165,221h30v1h-30zM272,221h43v1h-43zM447,221h40v1h-40zM0,222h30v1h-30zM105,222h30v1h-30zM165,222h30v1h-30zM272,222h42v1h-42zM448,222h40v1h-40zM0,223h30v1h-30zM105,223h30v1h-30zM165,223h30v1h-30zM272,223h41v1h-41zM449,223h39v1h-39zM0,224h30v1h-30zM105,224h30v1h-30zM165,224h30v1h-30zM272,224h40v1h-40zM450,224h39v1h-39zM0,225h30v1h-30zM105,225h30v1h-30zM165,225h30v1h-30zM272,225h39v1h-39zM451,225h38v1h-38zM0,226h30v1h-30zM105,226h30v1h-30zM165,226h30v1h-30zM272,226h39v1h-39zM452,226h38v1h-38zM0,227h30v1h-30zM105,227h30v1h-30zM165,227h30v1h-30zM272,227h38v1h-38zM453,227h38v1h-38zM0,228h30v1h-30zM105,228h30v1h-30zM165,228h30v1h-30zM272,228h37v1h-37zM454,228h37v1h-37zM0,229h30v1h-30zM105,229h30v1h-30zM165,229h30v1h-30zM272,229h36v1h-36zM455,229h37v1h-37zM0,230h30v1h-30zM105,230h30v1h-30zM165,230h30v1h-30zM272,230h35v1h-35zM455,230h37v1h-37zM0,231h30v1h-30zM105,231h30v1h-30zM165,231h30v1h-30zM272,231h34v1h-34zM456,231h37v1h-37zM0,232h30v1h-30zM105,232h30v1h-30zM165,232h30v1h-30zM272,232h33v1h-33zM457,232h36v1h-36zM0,233h30v1h-30zM105,233h30v1h-30zM165,233h30v1h-30zM272,233h32v1h-32zM458,233h36v1h-36zM0,234h30v1h-30zM105,234h30v1h-30zM165,234h30v1h-30zM272,234h32v1h-32zM459,234h35v1h-35zM0,235h30v1h-30zM105,235h30v1h-30zM165,235h30v1h-30zM272,235h31v1h-31zM459,235h36v1h-36zM0,236h30v1h-30zM105,236h30v1h-30zM165,236h30v1h-30zM273,236h29v1h-29zM460,236h35v1h-35zM0,237h30v1h-30zM105,237h30v1h-30zM165,237h30v1h-30zM273,237h28v1h-28zM461,237h35v1h-35zM0,238h30v1h-30zM105,238h30v1h-30zM165,238h30v1h-30zM274,238h26v1h-26zM461,238h35v1h-35zM0,239h30v1h-30zM105,239h30v1h-30zM165,239h30v1h-30zM275,239h25v1h-25zM462,239h35v1h-35zM0,240h30v1h-30zM105,240h30v1h-30zM165,240h30v1h-30zM275,240h24v1h-24zM463,240h34v1h-34zM0,241h30v1h-30zM105,241h30v1h-30zM165,241h30v1h-30zM276,241h22v1h-22zM463,241h35v1h-35zM0,242h30v1h-30zM105,242h30v1h-30zM165,242h30v1h-30zM277,242h20v1h-20zM464,242h34v1h-34zM0,243h30v1h-30zM105,243h30v1h-30zM165,243h30v1h-30zM279,243h16v1h-16zM464,243h35v1h-35zM0,244h30v1h-30zM105,244h30v1h-30zM165,244h30v1h-30zM281,244h12v1h-12zM465,244h34v1h-34zM0,245h30v1h-30zM105,245h30v1h-30zM165,245h30v1h-30zM284,245h6v1h-6zM465,245h34v1h-34zM0,246h30v1h-30zM105,246h30v1h-30zM165,246h30v1h-30zM466,246h34v1h-34zM0,247h30v1h-30zM105,247h30v1h-30zM165,247h30v1h-30zM467,247h33v1h-33zM0,248h30v1h-30zM105,248h30v1h-30zM165,248h30v1h-30zM339,248h11v1h-11zM467,248h34v1h-34zM0,249h30v1h-30zM105,249h30v1h-30zM165,249h30v1h-30zM331,249h26v1h-26zM468,249h33v1h-33zM0,250h30v1h-30zM105,250h30v1h-30zM165,250h30v1h-30zM326,250h36v1h-36zM468,250h33v1h-33zM0,251h30v1h-30zM105,251h30v1h-30zM165,251h30v1h-30zM322,251h43v1h-43zM468,251h34v1h-34zM0,252h30v1h-30zM105,252h30v1h-30zM165,252h30v1h-30zM319,252h49v1h-49zM469,252h33v1h-33zM0,253h30v1h-30zM105,253h30v1h-30zM165,253h30v1h-30zM316,253h54v1h-54zM469,253h33v1h-33zM0,254h30v1h-30zM105,254h30v1h-30zM165,254h30v1h-30zM314,254h59v1h-59zM470,254h33v1h-33zM0,255h30v1h-30zM105,255h30v1h-30zM165,255h30v1h-30zM311,255h63v1h-63zM470,255h33v1h-33zM0,256h30v1h-30zM105,256h30v1h-30zM165,256h30v1h-30zM309,256h67v1h-67zM471,256h32v1h-32zM0,257h30v1h-30zM105,257h30v1h-30zM165,257h30v1h-30zM307,257h71v1h-71zM471,257h33v1h-33zM0,258h30v1h-30zM105,258h30v1h-30zM165,258h30v1h-30zM305,258h74v1h-74zM471,258h33v1h-33zM0,259h30v1h-30zM105,259h30v1h-30zM165,259h30v1h-30zM304,259h77v1h-77zM472,259h32v1h-32zM0,260h30v1h-30zM105,260h30v1h-30zM165,260h30v1h-30zM302,260h80v1h-80zM472,260h32v1h-32zM0,261h30v1h-30zM105,261h30v1h-30zM165,261h30v1h-30zM300,261h83v1h-83zM473,261h32v1h-32zM0,262h30v1h-30zM105,262h30v1h-30zM165,262h30v1h-30zM299,262h86v1h-86zM473,262h32v1h-32zM0,263h30v1h-30zM105,263h30v1h-30zM165,263h30v1h-30zM298,263h88v1h-88zM473,263h32v1h-32zM0,264h30v1h-30zM105,264h30v1h-30zM165,264h30v1h-30zM296,264h91v1h-91zM474,264h32v1h-32zM0,265h30v1h-30zM105,265h30v1h-30zM165,265h30v1h-30zM295,265h93v1h-93zM474,265h32v1h-32zM0,266h30v1h-30zM105,266h30v1h-30zM165,266h30v1h-30zM294,266h95v1h-95zM474,266h32v1h-32zM0,267h30v1h-30zM105,267h30v1h-30zM165,267h30v1h-30zM292,267h98v1h-98zM475,267h31v1h-31zM0,268h30v1h-30zM105,268h30v1h-30zM165,268h30v1h-30zM291,268h100v1h-100zM475,268h32v1h-32zM0,269h30v1h-30zM105,269h30v1h-30zM165,269h30v1h-30zM290,269h102v1h-102zM475,269h32v1h-32zM0,270h30v1h-30zM105,270h30v1h-30zM165,270h30v1h-30zM289,270h103v1h-103zM475,270h32v1h-32zM0,271h30v1h-30zM105,271h30v1h-30zM165,271h30v1h-30zM288,271h105v1h-105zM476,271h31v1h-31zM0,272h30v1h-30zM105,272h30v1h-30zM165,272h30v1h-30zM287,272h107v1h-107zM476,272h31v1h-31zM0,273h30v1h-30zM105,273h30v1h-30zM165,273h30v1h-30zM286,273h109v1h-109zM476,273h32v1h-32zM0,274h30v1h-30zM105,274h30v1h-30zM165,274h30v1h-30zM285,274h110v1h-110zM476,274h32v1h-32zM0,275h30v1h-30zM105,275h30v1h-30zM165,275h30v1h-30zM284,275h112v1h-112zM477,275h31v1h-31zM0,276h30v1h-30zM105,276h30v1h-30zM165,276h30v1h-30zM284,276h113v1h-113zM477,276h31v1h-31zM0,277h30v1h-30zM105,277h30v1h-30zM165,277h30v1h-30zM283,277h114v1h-114zM477,277h31v1h-31zM0,278h30v1h-30zM105,278h30v1h-30zM165,278h30v1h-30zM282,278h116v1h-116zM477,278h32v1h-32zM0,279h30v1h-30zM105,279h30v1h-30zM165,279h30v1h-30zM281,279h57v1h-57zM351,279h47v1h-47zM478,279h31v1h-31zM0,280h30v1h-30zM105,280h30v1h-30zM165,280h30v1h-30zM281,280h52v1h-52zM355,280h44v1h-44zM478,280h31v1h-31zM0,281h30v1h-30zM105,281h30v1h-30zM165,281h30v1h-30zM280,281h49v1h-49zM358,281h41v1h-41zM478,281h31v1h-31zM0,282h30v1h-30zM105,282h30v1h-30zM165,282h30v1h-30zM279,282h47v1h-47zM360,282h40v1h-40zM478,282h31v1h-31zM0,283h30v1h-30zM105,283h30v1h-30zM165,283h30v1h-30zM279,283h45v1h-45zM362,283h38v1h-38zM478,283h34v1h-34zM0,284h30v1h-30zM105,284h30v1h-30zM165,284h30v1h-30zM278,284h44v1h-44zM363,284h38v1h-38zM478,284h34v1h-34zM0,285h30v1h-30zM105,285h30v1h-30zM165,285h30v1h-30zM278,285h42v1h-42zM364,285h37v1h-37zM479,285h33v1h-33zM0,286h30v1h-30zM105,286h30v1h-30zM165,286h30v1h-30zM277,286h41v1h-41zM366,286h36v1h-36zM479,286h33v1h-33zM0,287h30v1h-30zM105,287h30v1h-30zM165,287h30v1h-30zM277,287h40v1h-40zM367,287h35v1h-35zM479,287h33v1h-33zM0,288h30v1h-30zM105,288h30v1h-30zM165,288h30v1h-30zM276,288h39v1h-39zM368,288h34v1h-34zM479,288h33v1h-33zM0,289h30v1h-30zM105,289h30v1h-30zM165,289h30v1h-30zM276,289h38v1h-38zM368,289h35v1h-35zM479,289h33v1h-33zM0,290h30v1h-30zM105,290h30v1h-30zM165,290h30v1h-30zM275,290h38v1h-38zM369,290h34v1h-34zM479,290h33v1h-33zM0,291h30v1h-30zM105,291h30v1h-30zM165,291h30v1h-30zM275,291h37v1h-37zM370,291h33v1h-33zM480,291h32v1h-32zM0,292h30v1h-30zM105,292h30v1h-30zM165,292h30v1h-30zM275,292h36v1h-36zM370,292h34v1h-34zM480,292h32v1h-32zM0,293h30v1h-30zM105,293h30v1h-30zM165,293h30v1h-30zM274,293h36v1h-36zM371,293h33v1h-33zM480,293h32v1h-32zM0,294h30v1h-30zM105,294h30v1h-30zM165,294h30v1h-30zM274,294h35v1h-35zM372,294h32v1h-32zM480,294h32v1h-32zM0,295h30v1h-30zM105,295h30v1h-30zM165,295h30v1h-30zM274,295h34v1h-34zM372,295h33v1h-33zM480,295h32v1h-32zM0,296h30v1h-30zM105,296h30v1h-30zM165,296h30v1h-30zM273,296h34v1h-34zM373,296h32v1h-32zM480,296h32v1h-32zM0,297h30v1h-30zM105,297h30v1h-30zM165,297h30v1h-30zM273,297h33v1h-33zM373,297h32v1h-32zM480,297h32v1h-32zM0,298h30v1h-30zM105,298h30v1h-30zM165,298h30v1h-30zM273,298h33v1h-33zM373,298h32v1h-32zM480,298h32v1h-32zM0,299h30v1h-30zM105,299h30v1h-30zM165,299h30v1h-30zM273,299h32v1h-32zM374,299h31v1h-31zM480,299h32v1h-32zM0,300h30v1h-30zM105,300h30v1h-30zM165,300h30v1h-30zM272,300h33v1h-33zM374,300h32v1h-32zM481,300h31v1h-31zM0,301h30v1h-30zM105,301h30v1h-30zM165,301h30v1h-30zM272,301h32v1h-32zM374,301h32v1h-32zM481,301h31v1h-31zM0,302h30v1h-30zM105,302h30v1h-30zM165,302h30v1h-30zM272,302h32v1h-32zM375,302h31v1h-31zM481,302h31v1h-31zM0,303h30v1h-30zM105,303h30v1h-30zM165,303h30v1h-30zM272,303h31v1h-31zM375,303h31v1h-31zM481,303h31v1h-31zM0,304h30v1h-30zM105,304h30v1h-30zM165,304h30v1h-30zM272,304h31v1h-31zM375,304h31v1h-31zM481,304h31v1h-31zM0,305h30v1h-30zM105,305h30v1h-30zM165,305h30v1h-30zM272,305h31v1h-31zM375,305h32v1h-32zM481,305h31v1h-31zM0,306h30v1h-30zM105,306h30v1h-30zM165,306h30v1h-30zM272,306h31v1h-31zM375,306h32v1h-32zM481,306h31v1h-31zM0,307h30v1h-30zM105,307h30v1h-30zM165,307h30v1h-30zM272,307h31v1h-31zM376,307h31v1h-31zM481,307h31v1h-31zM0,308h30v1h-30zM105,308h30v1h-30zM165,308h30v1h-30zM272,308h30v1h-30zM376,308h31v1h-31zM481,308h31v1h-31zM0,309h30v1h-30zM105,309h30v1h-30zM165,309h30v1h-30zM272,309h30v1h-30zM376,309h31v1h-31zM481,309h31v1h-31zM0,310h30v1h-30zM105,310h30v1h-30zM165,310h30v1h-30zM272,310h30v1h-30zM376,310h31v1h-31zM481,310h31v1h-31zM0,311h30v1h-30zM105,311h30v1h-30zM165,311h30v1h-30zM272,311h30v1h-30zM376,311h31v1h-31zM481,311h31v1h-31zM0,312h30v1h-30zM105,312h30v1h-30zM165,312h30v1h-30zM272,312h30v1h-30zM376,312h31v1h-31zM481,312h31v1h-31zM0,313h30v1h-30zM105,313h30v1h-30zM165,313h30v1h-30zM272,313h30v1h-30zM376,313h31v1h-31zM481,313h31v1h-31zM0,314h30v1h-30zM105,314h30v1h-30zM165,314h30v1h-30zM272,314h30v1h-30zM377,314h30v1h-30zM481,314h31v1h-31zM0,315h30v1h-30zM105,315h30v1h-30zM165,315h30v1h-30zM272,315h30v1h-30zM377,315h30v1h-30zM481,315h31v1h-31zM0,316h30v1h-30zM105,316h30v1h-30zM165,316h30v1h-30zM272,316h30v1h-30zM377,316h30v1h-30zM481,316h31v1h-31zM0,317h30v1h-30zM105,317h30v1h-30zM165,317h30v1h-30zM272,317h30v1h-30zM377,317h30v1h-30zM481,317h31v1h-31zM0,318h30v1h-30zM105,318h30v1h-30zM165,318h30v1h-30zM272,318h30v1h-30zM377,318h30v1h-30zM481,318h31v1h-31zM0,319h30v1h-30zM105,319h30v1h-30zM165,319h30v1h-30zM272,319h30v1h-30zM377,319h30v1h-30zM481,319h31v1h-31zM0,320h30v1h-30zM105,320h30v1h-30zM165,320h30v1h-30zM272,320h30v1h-30zM377,320h30v1h-30zM482,320h30v1h-30zM0,321h30v1h-30zM105,321h30v1h-30zM165,321h30v1h-30zM272,321h30v1h-30zM377,321h30v1h-30zM482,321h30v1h-30zM0,322h30v1h-30zM105,322h30v1h-30zM165,322h30v1h-30zM272,322h30v1h-30zM377,322h30v1h-30zM482,322h30v1h-30zM0,323h30v1h-30zM105,323h30v1h-30zM165,323h30v1h-30zM272,323h30v1h-30zM377,323h30v1h-30zM482,323h30v1h-30zM0,324h30v1h-30zM105,324h30v1h-30zM165,324h30v1h-30zM272,324h30v1h-30zM377,324h30v1h-30zM482,324h30v1h-30zM0,325h30v1h-30zM105,325h30v1h-30zM165,325h30v1h-30zM272,325h30v1h-30zM377,325h30v1h-30zM482,325h30v1h-30zM0,326h30v1h-30zM105,326h30v1h-30zM165,326h30v1h-30zM272,326h30v1h-30zM377,326h30v1h-30zM482,326h30v1h-30zM0,327h30v1h-30zM105,327h30v1h-30zM165,327h30v1h-30zM272,327h30v1h-30zM377,327h30v1h-30zM482,327h30v1h-30zM0,328h30v1h-30zM105,328h30v1h-30zM165,328h30v1h-30zM272,328h30v1h-30zM377,328h30v1h-30zM482,328h30v1h-30zM0,329h30v1h-30zM105,329h30v1h-30zM165,329h30v1h-30zM272,329h30v1h-30zM377,329h30v1h-30zM482,329h30v1h-30zM0,330h30v1h-30zM105,330h30v1h-30zM165,330h30v1h-30zM272,330h30v1h-30zM377,330h30v1h-30zM482,330h30v1h-30zM0,331h30v1h-30zM105,331h30v1h-30zM165,331h30v1h-30zM272,331h30v1h-30zM377,331h30v1h-30zM482,331h30v1h-30zM0,332h30v1h-30zM105,332h30v1h-30zM165,332h30v1h-30zM272,332h30v1h-30zM377,332h30v1h-30zM482,332h30v1h-30zM0,333h30v1h-30zM105,333h30v1h-30zM165,333h30v1h-30zM272,333h30v1h-30zM377,333h30v1h-30zM482,333h30v1h-30zM0,334h30v1h-30zM105,334h30v1h-30zM165,334h30v1h-30zM272,334h30v1h-30zM377,334h30v1h-30zM482,334h30v1h-30zM0,335h30v1h-30zM105,335h30v1h-30zM165,335h30v1h-30zM272,335h30v1h-30zM377,335h30v1h-30zM482,335h30v1h-30zM0,336h30v1h-30zM105,336h30v1h-30zM165,336h30v1h-30zM272,336h30v1h-30zM377,336h30v1h-30zM482,336h30v1h-30zM0,337h30v1h-30zM105,337h30v1h-30zM165,337h30v1h-30zM272,337h30v1h-30zM377,337h30v1h-30zM482,337h30v1h-30zM0,338h30v1h-30zM105,338h30v1h-30zM165,338h30v1h-30zM272,338h30v1h-30zM377,338h30v1h-30zM482,338h30v1h-30zM0,339h30v1h-30zM105,339h30v1h-30zM165,339h30v1h-30zM272,339h30v1h-30zM377,339h30v1h-30zM482,339h30v1h-30zM0,340h30v1h-30zM105,340h30v1h-30zM165,340h30v1h-30zM272,340h30v1h-30zM377,340h30v1h-30zM482,340h30v1h-30zM0,341h30v1h-30zM105,341h30v1h-30zM165,341h30v1h-30zM272,341h30v1h-30zM377,341h30v1h-30zM482,341h30v1h-30zM0,342h30v1h-30zM105,342h30v1h-30zM165,342h30v1h-30zM272,342h30v1h-30zM377,342h30v1h-30zM482,342h30v1h-30zM0,343h30v1h-30zM105,343h30v1h-30zM165,343h30v1h-30zM272,343h30v1h-30zM377,343h30v1h-30zM482,343h30v1h-30zM0,344h30v1h-30zM105,344h30v1h-30zM165,344h30v1h-30zM272,344h30v1h-30zM377,344h30v1h-30zM482,344h30v1h-30zM0,345h30v1h-30zM105,345h30v1h-30zM165,345h30v1h-30zM272,345h30v1h-30zM377,345h30v1h-30zM482,345h30v1h-30zM0,346h30v1h-30zM105,346h30v1h-30zM165,346h30v1h-30zM272,346h30v1h-30zM377,346h30v1h-30zM482,346h30v1h-30zM0,347h30v1h-30zM105,347h30v1h-30zM165,347h30v1h-30zM272,347h30v1h-30zM377,347h30v1h-30zM482,347h30v1h-30zM0,348h30v1h-30zM105,348h30v1h-30zM165,348h30v1h-30zM272,348h30v1h-30zM377,348h30v1h-30zM482,348h30v1h-30zM0,349h30v1h-30zM105,349h30v1h-30zM165,349h30v1h-30zM272,349h30v1h-30zM377,349h30v1h-30zM482,349h30v1h-30zM0,350h30v1h-30zM105,350h30v1h-30zM165,350h30v1h-30zM272,350h30v1h-30zM377,350h30v1h-30zM482,350h30v1h-30zM0,351h30v1h-30zM105,351h30v1h-30zM165,351h30v1h-30zM272,351h30v1h-30zM377,351h30v1h-30zM482,351h30v1h-30zM0,352h30v1h-30zM105,352h30v1h-30zM165,352h30v1h-30zM272,352h30v1h-30zM377,352h30v1h-30zM482,352h30v1h-30zM0,353h30v1h-30zM105,353h30v1h-30zM165,353h30v1h-30zM272,353h30v1h-30zM377,353h30v1h-30zM482,353h30v1h-30zM0,354h30v1h-30zM105,354h30v1h-30zM165,354h30v1h-30zM272,354h30v1h-30zM377,354h30v1h-30zM482,354h30v1h-30zM0,355h30v1h-30zM105,355h30v1h-30zM165,355h30v1h-30zM272,355h30v1h-30zM377,355h30v1h-30zM482,355h30v1h-30zM0,356h30v1h-30zM105,356h30v1h-30zM165,356h30v1h-30zM272,356h30v1h-30zM377,356h30v1h-30zM482,356h30v1h-30zM0,357h30v1h-30zM105,357h30v1h-30zM165,357h30v1h-30zM272,357h30v1h-30zM377,357h30v1h-30zM482,357h30v1h-30zM0,358h30v1h-30zM105,358h30v1h-30zM165,358h30v1h-30zM272,358h30v1h-30zM377,358h30v1h-30zM482,358h30v1h-30zM0,359h30v1h-30zM105,359h30v1h-30zM165,359h30v1h-30zM272,359h30v1h-30zM377,359h30v1h-30zM482,359h30v1h-30zM0,360h30v1h-30zM105,360h30v1h-30zM165,360h30v1h-30zM272,360h30v1h-30zM377,360h30v1h-30zM482,360h30v1h-30zM0,361h30v1h-30zM105,361h30v1h-30zM165,361h30v1h-30zM272,361h30v1h-30zM377,361h30v1h-30zM482,361h30v1h-30zM0,362h30v1h-30zM105,362h30v1h-30zM165,362h30v1h-30zM272,362h30v1h-30zM377,362h30v1h-30zM482,362h30v1h-30zM0,363h30v1h-30zM105,363h30v1h-30zM165,363h30v1h-30zM272,363h30v1h-30zM377,363h30v1h-30zM482,363h30v1h-30zM0,364h30v1h-30zM105,364h30v1h-30zM165,364h30v1h-30zM272,364h30v1h-30zM377,364h30v1h-30zM482,364h30v1h-30zM0,365h30v1h-30zM105,365h30v1h-30zM165,365h30v1h-30zM272,365h30v1h-30zM377,365h30v1h-30zM482,365h30v1h-30zM0,366h30v1h-30zM105,366h30v1h-30zM165,366h30v1h-30zM272,366h30v1h-30zM377,366h30v1h-30zM482,366h30v1h-30zM0,367h30v1h-30zM105,367h30v1h-30zM165,367h30v1h-30zM272,367h30v1h-30zM377,367h30v1h-30zM482,367h30v1h-30zM0,368h30v1h-30zM105,368h30v1h-30zM165,368h30v1h-30zM272,368h30v1h-30zM377,368h30v1h-30zM482,368h30v1h-30zM0,369h30v1h-30zM105,369h30v1h-30zM165,369h30v1h-30zM272,369h30v1h-30zM377,369h30v1h-30zM482,369h30v1h-30zM0,370h30v1h-30zM105,370h30v1h-30zM165,370h30v1h-30zM272,370h30v1h-30zM377,370h30v1h-30zM482,370h30v1h-30zM0,371h30v1h-30zM105,371h30v1h-30zM165,371h30v1h-30zM272,371h30v1h-30zM377,371h30v1h-30zM482,371h30v1h-30zM0,372h30v1h-30zM105,372h30v1h-30zM165,372h30v1h-30zM272,372h30v1h-30zM377,372h30v1h-30zM482,372h30v1h-30zM0,373h30v1h-30zM105,373h30v1h-30zM165,373h30v1h-30zM272,373h30v1h-30zM377,373h30v1h-30zM482,373h30v1h-30zM0,374h30v1h-30zM105,374h30v1h-30zM165,374h30v1h-30zM272,374h30v1h-30zM377,374h30v1h-30zM482,374h30v1h-30zM0,375h30v1h-30zM105,375h30v1h-30zM165,375h30v1h-30zM272,375h30v1h-30zM377,375h30v1h-30zM482,375h30v1h-30zM0,376h30v1h-30zM105,376h30v1h-30zM165,376h30v1h-30zM272,376h30v1h-30zM377,376h30v1h-30zM482,376h30v1h-30zM0,377h30v1h-30zM105,377h30v1h-30zM165,377h30v1h-30zM272,377h30v1h-30zM377,377h30v1h-30zM482,377h30v1h-30zM0,378h30v1h-30zM105,378h30v1h-30zM165,378h30v1h-30zM272,378h30v1h-30zM377,378h30v1h-30zM482,378h30v1h-30zM0,379h30v1h-30zM105,379h30v1h-30zM165,379h30v1h-30zM272,379h30v1h-30zM377,379h30v1h-30zM482,379h30v1h-30zM0,380h30v1h-30zM105,380h30v1h-30zM165,380h30v1h-30zM272,380h30v1h-30zM377,380h30v1h-30zM482,380h30v1h-30zM0,381h30v1h-30zM105,381h30v1h-30zM165,381h30v1h-30zM272,381h30v1h-30zM377,381h30v1h-30zM482,381h30v1h-30zM0,382h30v1h-30zM105,382h30v1h-30zM165,382h30v1h-30zM272,382h30v1h-30zM377,382h30v1h-30zM482,382h30v1h-30zM0,383h30v1h-30zM105,383h30v1h-30zM165,383h30v1h-30zM272,383h30v1h-30zM377,383h30v1h-30zM482,383h30v1h-30zM0,384h30v1h-30zM105,384h30v1h-30zM165,384h30v1h-30zM272,384h30v1h-30zM377,384h30v1h-30zM482,384h30v1h-30zM0,385h30v1h-30zM105,385h30v1h-30zM165,385h30v1h-30zM272,385h30v1h-30zM377,385h30v1h-30zM482,385h30v1h-30zM0,386h30v1h-30zM105,386h30v1h-30zM165,386h30v1h-30zM272,386h30v1h-30zM377,386h30v1h-30zM482,386h30v1h-30zM0,387h30v1h-30zM105,387h30v1h-30zM165,387h30v1h-30zM272,387h30v1h-30zM377,387h30v1h-30zM482,387h30v1h-30zM0,388h30v1h-30zM105,388h30v1h-30zM165,388h30v1h-30zM272,388h30v1h-30zM377,388h30v1h-30zM482,388h30v1h-30zM0,389h30v1h-30zM105,389h30v1h-30zM165,389h30v1h-30zM272,389h30v1h-30zM377,389h30v1h-30zM482,389h30v1h-30zM0,390h30v1h-30zM105,390h30v1h-30zM165,390h30v1h-30zM272,390h30v1h-30zM377,390h30v1h-30zM482,390h30v1h-30zM0,391h30v1h-30zM105,391h30v1h-30zM165,391h30v1h-30zM272,391h30v1h-30zM377,391h30v1h-30zM482,391h30v1h-30zM0,392h30v1h-30zM105,392h30v1h-30zM165,392h30v1h-30zM272,392h30v1h-30zM377,392h30v1h-30zM482,392h30v1h-30zM0,393h30v1h-30zM105,393h30v1h-30zM165,393h30v1h-30zM272,393h30v1h-30zM377,393h30v1h-30zM482,393h30v1h-30zM0,394h30v1h-30zM105,394h30v1h-30zM165,394h30v1h-30zM272,394h30v1h-30zM377,394h30v1h-30zM482,394h30v1h-30zM0,395h30v1h-30zM105,395h30v1h-30zM165,395h30v1h-30zM272,395h30v1h-30zM377,395h30v1h-30zM482,395h30v1h-30zM0,396h30v1h-30zM105,396h30v1h-30zM165,396h30v1h-30zM272,396h30v1h-30zM377,396h30v1h-30zM482,396h30v1h-30zM0,397h30v1h-30zM105,397h30v1h-30zM165,397h30v1h-30zM272,397h30v1h-30zM377,397h30v1h-30zM482,397h30v1h-30zM0,398h30v1h-30zM105,398h30v1h-30zM165,398h30v1h-30zM272,398h30v1h-30zM377,398h30v1h-30zM482,398h30v1h-30zM0,399h30v1h-30zM105,399h30v1h-30zM165,399h30v1h-30zM272,399h30v1h-30zM377,399h30v1h-30zM482,399h30v1h-30zM0,400h30v1h-30zM105,400h30v1h-30zM165,400h30v1h-30zM272,400h30v1h-30zM377,400h30v1h-30zM482,400h30v1h-30zM0,401h30v1h-30zM105,401h30v1h-30zM165,401h30v1h-30zM272,401h30v1h-30zM377,401h30v1h-30zM482,401h30v1h-30zM0,402h30v1h-30zM105,402h30v1h-30zM165,402h30v1h-30zM272,402h30v1h-30zM377,402h30v1h-30zM482,402h30v1h-30zM0,403h30v1h-30zM105,403h30v1h-30zM165,403h30v1h-30zM272,403h30v1h-30zM377,403h30v1h-30zM482,403h30v1h-30zM0,404h30v1h-30zM105,404h30v1h-30zM165,404h30v1h-30zM272,404h30v1h-30zM377,404h30v1h-30zM482,404h30v1h-30zM0,405h30v1h-30zM105,405h30v1h-30zM165,405h30v1h-30zM272,405h30v1h-30zM377,405h30v1h-30zM482,405h30v1h-30zM0,406h30v1h-30zM105,406h30v1h-30zM165,406h30v1h-30zM272,406h30v1h-30zM377,406h30v1h-30zM482,406h30v1h-30zM0,407h30v1h-30zM105,407h30v1h-30zM165,407h30v1h-30zM272,407h30v1h-30zM377,407h30v1h-30zM482,407h30v1h-30zM0,408h30v1h-30zM105,408h30v1h-30zM165,408h30v1h-30zM272,408h30v1h-30zM377,408h30v1h-30zM482,408h30v1h-30zM0,409h30v1h-30zM105,409h30v1h-30zM165,409h30v1h-30zM272,409h30v1h-30zM377,409h30v1h-30zM482,409h30v1h-30zM0,410h30v1h-30zM105,410h30v1h-30zM165,410h30v1h-30zM272,410h30v1h-30zM377,410h30v1h-30zM482,410h30v1h-30zM0,411h30v1h-30zM105,411h30v1h-30zM165,411h30v1h-30zM272,411h30v1h-30zM377,411h30v1h-30zM482,411h30v1h-30zM0,412h30v1h-30zM105,412h30v1h-30zM165,412h30v1h-30zM272,412h30v1h-30zM377,412h30v1h-30zM482,412h30v1h-30zM0,413h30v1h-30zM105,413h30v1h-30zM165,413h30v1h-30zM272,413h30v1h-30zM377,413h30v1h-30zM482,413h30v1h-30zM0,414h30v1h-30zM105,414h30v1h-30zM165,414h30v1h-30zM272,414h30v1h-30zM377,414h30v1h-30zM482,414h30v1h-30zM0,415h30v1h-30zM105,415h30v1h-30zM165,415h30v1h-30zM272,415h30v1h-30zM377,415h30v1h-30zM482,415h30v1h-30zM0,416h30v1h-30zM105,416h30v1h-30zM165,416h30v1h-30zM272,416h30v1h-30zM377,416h30v1h-30zM482,416h30v1h-30zM0,417h30v1h-30zM105,417h30v1h-30zM165,417h30v1h-30zM272,417h30v1h-30zM377,417h30v1h-30zM482,417h30v1h-30zM0,418h30v1h-30zM105,418h30v1h-30zM165,418h30v1h-30zM272,418h30v1h-30zM377,418h30v1h-30zM482,418h30v1h-30zM0,419h30v1h-30zM105,419h30v1h-30zM165,419h30v1h-30zM272,419h30v1h-30zM377,419h30v1h-30zM482,419h30v1h-30zM0,420h30v1h-30zM105,420h30v1h-30zM165,420h30v1h-30zM272,420h30v1h-30zM377,420h30v1h-30zM482,420h30v1h-30zM0,421h30v1h-30zM105,421h30v1h-30zM165,421h30v1h-30zM272,421h30v1h-30zM377,421h30v1h-30zM482,421h30v1h-30zM0,422h30v1h-30zM105,422h30v1h-30zM165,422h30v1h-30zM272,422h30v1h-30zM377,422h30v1h-30zM482,422h30v1h-30zM0,423h30v1h-30zM105,423h30v1h-30zM165,423h30v1h-30zM272,423h30v1h-30zM377,423h30v1h-30zM482,423h30v1h-30zM0,424h30v1h-30zM105,424h30v1h-30zM165,424h30v1h-30zM272,424h30v1h-30zM377,424h30v1h-30zM482,424h30v1h-30zM0,425h30v1h-30zM105,425h30v1h-30zM165,425h30v1h-30zM272,425h30v1h-30zM377,425h30v1h-30zM482,425h30v1h-30zM0,426h30v1h-30zM105,426h30v1h-30zM165,426h30v1h-30zM272,426h30v1h-30zM377,426h30v1h-30zM482,426h30v1h-30zM0,427h30v1h-30zM105,427h30v1h-30zM165,427h30v1h-30zM272,427h30v1h-30zM377,427h30v1h-30zM482,427h30v1h-30zM0,428h30v1h-30zM105,428h30v1h-30zM165,428h30v1h-30zM272,428h30v1h-30zM377,428h30v1h-30zM482,428h30v1h-30zM0,429h30v1h-30zM105,429h30v1h-30zM165,429h30v1h-30zM272,429h30v1h-30zM377,429h30v1h-30zM482,429h30v1h-30zM0,430h30v1h-30zM105,430h30v1h-30zM165,430h30v1h-30zM272,430h30v1h-30zM377,430h30v1h-30zM482,430h30v1h-30zM0,431h30v1h-30zM105,431h30v1h-30zM165,431h30v1h-30zM272,431h30v1h-30zM377,431h30v1h-30zM482,431h30v1h-30zM0,432h30v1h-30zM105,432h30v1h-30zM165,432h30v1h-30zM272,432h30v1h-30zM377,432h30v1h-30zM482,432h30v1h-30zM0,433h30v1h-30zM105,433h30v1h-30zM165,433h30v1h-30zM272,433h30v1h-30zM377,433h30v1h-30zM482,433h30v1h-30zM0,434h30v1h-30zM105,434h30v1h-30zM165,434h30v1h-30zM272,434h30v1h-30zM377,434h30v1h-30zM482,434h30v1h-30zM0,435h30v1h-30zM105,435h30v1h-30zM165,435h30v1h-30zM272,435h30v1h-30zM377,435h30v1h-30zM482,435h30v1h-30zM0,436h30v1h-30zM105,436h30v1h-30zM165,436h30v1h-30zM272,436h30v1h-30zM377,436h30v1h-30zM482,436h30v1h-30zM0,437h30v1h-30zM105,437h30v1h-30zM165,437h30v1h-30zM272,437h30v1h-30zM377,437h30v1h-30zM482,437h30v1h-30zM0,438h30v1h-30zM105,438h30v1h-30zM165,438h30v1h-30zM272,438h30v1h-30zM377,438h30v1h-30zM482,438h30v1h-30zM0,439h30v1h-30zM105,439h30v1h-30zM165,439h30v1h-30zM272,439h30v1h-30zM377,439h30v1h-30zM482,439h30v1h-30zM0,440h30v1h-30zM105,440h30v1h-30zM165,440h30v1h-30zM272,440h30v1h-30zM377,440h30v1h-30zM482,440h30v1h-30zM0,441h30v1h-30zM105,441h30v1h-30zM165,441h30v1h-30zM272,441h30v1h-30zM377,441h30v1h-30zM482,441h30v1h-30zM0,442h30v1h-30zM105,442h30v1h-30zM165,442h30v1h-30zM272,442h30v1h-30zM377,442h30v1h-30zM482,442h30v1h-30zM0,443h30v1h-30zM105,443h30v1h-30zM165,443h30v1h-30zM272,443h30v1h-30zM377,443h30v1h-30zM482,443h30v1h-30zM0,444h30v1h-30zM105,444h30v1h-30zM165,444h30v1h-30zM272,444h30v1h-30zM377,444h30v1h-30zM482,444h30v1h-30zM0,445h30v1h-30zM105,445h30v1h-30zM165,445h30v1h-30zM272,445h30v1h-30zM377,445h30v1h-30zM482,445h30v1h-30zM0,446h30v1h-30zM105,446h30v1h-30zM165,446h30v1h-30zM272,446h30v1h-30zM377,446h30v1h-30zM482,446h30v1h-30zM0,447h30v1h-30zM105,447h30v1h-30zM165,447h30v1h-30zM272,447h30v1h-30zM377,447h30v1h-30zM482,447h30v1h-30zM0,448h30v1h-30zM105,448h30v1h-30zM165,448h30v1h-30zM272,448h30v1h-30zM377,448h30v1h-30zM482,448h30v1h-30zM0,449h30v1h-30zM105,449h30v1h-30zM165,449h30v1h-30zM272,449h30v1h-30zM377,449h30v1h-30zM482,449h30v1h-30zM0,450h30v1h-30zM105,450h30v1h-30zM165,450h30v1h-30zM272,450h30v1h-30zM377,450h30v1h-30zM482,450h30v1h-30zM0,451h30v1h-30zM105,451h30v1h-30zM165,451h30v1h-30zM272,451h30v1h-30zM377,451h30v1h-30zM482,451h30v1h-30zM0,452h30v1h-30zM105,452h30v1h-30zM165,452h30v1h-30zM272,452h30v1h-30zM377,452h30v1h-30zM482,452h30v1h-30zM0,453h30v1h-30zM105,453h30v1h-30zM165,453h30v1h-30zM272,453h30v1h-30zM377,453h30v1h-30zM482,453h30v1h-30zM0,454h30v1h-30zM105,454h30v1h-30zM165,454h30v1h-30zM272,454h30v1h-30zM377,454h30v1h-30zM482,454h30v1h-30zM0,455h30v1h-30zM105,455h30v1h-30zM165,455h30v1h-30zM272,455h30v1h-30zM377,455h30v1h-30zM482,455h30v1h-30zM0,456h30v1h-30zM105,456h30v1h-30zM165,456h30v1h-30zM272,456h30v1h-30zM377,456h30v1h-30zM482,456h30v1h-30zM0,457h30v1h-30zM105,457h30v1h-30zM165,457h30v1h-30zM272,457h30v1h-30zM377,457h30v1h-30zM482,457h30v1h-30zM0,458h30v1h-30zM105,458h30v1h-30zM165,458h30v1h-30zM272,458h30v1h-30zM377,458h30v1h-30zM482,458h30v1h-30zM0,459h30v1h-30zM105,459h30v1h-30zM165,459h30v1h-30zM272,459h30v1h-30zM377,459h30v1h-30zM482,459h30v1h-30zM0,460h30v1h-30zM105,460h30v1h-30zM165,460h30v1h-30zM272,460h30v1h-30zM377,460h30v1h-30zM482,460h30v1h-30zM0,461h30v1h-30zM105,461h30v1h-30zM165,461h30v1h-30zM272,461h30v1h-30zM377,461h30v1h-30zM482,461h30v1h-30zM0,462h30v1h-30zM105,462h30v1h-30zM165,462h30v1h-30zM272,462h30v1h-30zM377,462h30v1h-30zM482,462h30v1h-30zM0,463h30v1h-30zM105,463h30v1h-30zM165,463h30v1h-30zM272,463h30v1h-30zM377,463h30v1h-30zM482,463h30v1h-30zM0,464h30v1h-30zM105,464h30v1h-30zM165,464h30v1h-30zM272,464h30v1h-30zM377,464h30v1h-30zM482,464h30v1h-30zM0,465h30v1h-30zM105,465h30v1h-30zM165,465h30v1h-30zM272,465h30v1h-30zM377,465h30v1h-30zM482,465h30v1h-30zM0,466h135v1h-135zM165,466h137v1h-137zM377,466h135v1h-135zM0,467h135v1h-135zM165,467h137v1h-137zM377,467h135v1h-135zM0,468h135v1h-135zM165,468h137v1h-137zM377,468h135v1h-135zM0,469h135v1h-135zM165,469h137v1h-137zM377,469h135v1h-135zM0,470h135v1h-135zM165,470h137v1h-137zM377,470h135v1h-135zM0,471h135v1h-135zM165,471h137v1h-137zM377,471h135v1h-135zM0,472h135v1h-135zM165,472h137v1h-137zM377,472h135v1h-135zM0,473h135v1h-135zM165,473h137v1h-137zM377,473h135v1h-135zM0,474h135v1h-135zM165,474h137v1h-137zM377,474h135v1h-135zM0,475h135v1h-135zM165,475h137v1h-137zM377,475h135v1h-135zM0,476h135v1h-135zM165,476h137v1h-137zM377,476h135v1h-135zM0,477h135v1h-135zM165,477h137v1h-137zM377,477h135v1h-135zM0,478h135v1h-135zM165,478h137v1h-137zM377,478h135v1h-135zM0,479h135v1h-135zM165,479h137v1h-137zM377,479h135v1h-135zM0,480h135v1h-135zM165,480h137v1h-137zM377,480h135v1h-135zM0,481h135v1h-135zM165,481h137v1h-137zM377,481h135v1h-135zM0,482h135v1h-135zM165,482h137v1h-137zM377,482h135v1h-135zM0,483h135v1h-135zM165,483h137v1h-137zM377,483h135v1h-135zM0,484h135v1h-135zM165,484h137v1h-137zM377,484h135v1h-135zM0,485h135v1h-135zM165,485h137v1h-137zM377,485h135v1h-135zM0,486h134v1h-134zM166,486h135v1h-135zM378,486h134v1h-134zM0,487h134v1h-134zM166,487h135v1h-135zM378,487h134v1h-134zM0,488h133v1h-133zM167,488h133v1h-133zM379,488h133v1h-133zM0,489h133v1h-133zM167,489h133v1h-133zM379,489h133v1h-133zM3,490h129v1h-129zM168,490h131v1h-131zM380,490h129v1h-129zM4,491h127v1h-127zM169,491h129v1h-129zM381,491h127v1h-127zM5,492h125v1h-125zM170,492h127v1h-127zM382,492h125v1h-125zM6,493h123v1h-123zM171,493h125v1h-125zM383,493h123v1h-123zM8,494h119v1h-119zM173,494h121v1h-121zM385,494h119v1h-119zM10,495h115v1h-115zM175,495h117v1h-117zM387,495h115v1h-115z"/></svg>