<?xml version="1.0" encoding="UTF-8"?>
<svg xmlns="http://www.w3.org/2000/svg" viewBox="0 0 512 512" width="512" height="512"><path fill="#000" d="M112,0h288v1h-288zM112,1h288v1h-288zM112,2h288v1h-288zM108,3h296v1h-296zM104,4h304v1h-304zM100,5h312v1h-312zM97,6h318v1h-318zM94,7h324v1h-324zM92,8h328v1h-328zM89,9h334v1h-334zM86,10h340v1h-340zM84,11h344v1h-344zM82,12h348v1h-348zM80,13h352v1h-352zM78,14h356v1h-356zM76,15h360v1h-360zM74,16h364v1h-364zM72,17h368v1h-368zM70,18h372v1h-372zM69,19h374v1h-374zM67,20h378v1h-378zM65,21h382v1h-382zM64,22h384v1h-384zM62,23h388v1h-388zM61,24h390v1h-390zM59,25h394v1h-394zM58,26h396v1h-396zM57,27h398v1h-398zM55,28h402v1h-402zM54,29h404v1h-404zM53,30h406v1h-406zM51,31h76v1h-76zM385,31h76v1h-76zM50,32h71v1h-71zM391,32h71v1h-71zM49,33h67v1h-67zM396,33h67v1h-67zM48,34h64v1h-64zM400,34h64v1h-64zM47,35h61v1h-61zM404,35h61v1h-61zM46,36h59v1h-59zM407,36h59v1h-59zM45,37h57v1h-57zM410,37h57v1h-57zM44,38h56v1h-56zM412,38h56v1h-56zM42,39h55v1h-55zM415,39h55v1h-55zM41,40h54v1h-54zM417,40h54v1h-54zM40,41h53v1h-53zM419,41h53v1h-53zM39,42h52v1h-52zM421,42h52v1h-52zM39,43h50v1h-50zM423,43h50v1h-50zM38,44h49v1h-49zM425,44h49v1h-49zM37,45h48v1h-48zM427,45h48v1h-48zM36,46h48v1h-48zM428,46h48v1h-48zM35,47h47v1h-47zM430,47h47v1h-47zM34,48h46v1h-46zM432,48h46v1h-46zM33,49h46v1h-46zM433,49h46v1h-46zM32,50h46v1h-46zM434,50h46v1h-46zM31,51h45v1h-45zM436,51h45v1h-45zM31,52h44v1h-44zM437,52h44v1h-44zM30,53h44v1h-44zM438,53h44v1h-44zM29,54h43v1h-43zM440,54h43v1h-43zM28,55h43v1h-43zM441,55h43v1h-43zM28,56h42v1h-42zM442,56h42v1h-42zM27,57h42v1h-42zM443,57h42v1h-42zM26,58h41v1h-41zM445,58h41v1h-41zM25,59h41v1h-41zM446,59h41v1h-41zM25,60h40v1h-40zM447,60h40v1h-40zM24,61h40v1h-40zM448,61h40v1h-40zM23,62h40v1h-40zM449,62h40v1h-40zM23,63h39v1h-39zM450,63h39v1h-39zM22,64h39v1h-39zM401,64h8v1h-8zM451,64h39v1h-39zM21,65h39v1h-39zM395,65h20v1h-20zM452,65h39v1h-39zM21,66h38v1h-38zM391,66h27v1h-27zM453,66h38v1h-38zM20,67h38v1h-38zM388,67h33v1h-33zM454,67h38v1h-38zM20,68h38v1h-38zM386,68h37v1h-37zM454,68h38v1h-38zM19,69h38v1h-38zM384,69h41v1h-41zM455,69h38v1h-38zM18,70h38v1h-38zM383,70h44v1h-44zM456,70h38v1h-38zM18,71h37v1h-37zM381,71h48v1h-48zM457,71h37v1h-37zM17,72h37v1h-37zM380,72h50v1h-50zM458,72h37v1h-37zM17,73h37v1h-37zM378,73h53v1h-53zM458,73h37v1h-37zM16,74h37v1h-37zM377,74h56v1h-56zM459,74h37v1h-37zM16,75h36v1h-36zM376,75h58v1h-58zM460,75h36v1h-36zM15,76h36v1h-36zM375,76h60v1h-60zM461,76h36v1h-36zM15,77h36v1h-36zM374,77h62v1h-62zM461,77h36v1h-36zM14,78h36v1h-36zM373,78h64v1h-64zM462,78h36v1h-36zM14,79h35v1h-35zM372,79h66v1h-66zM463,79h35v1h-35zM13,80h35v1h-35zM371,80h67v1h-67zM464,80h35v1h-35zM13,81h35v1h-35zM371,81h68v1h-68zM464,81h35v1h-35zM12,82h35v1h-35zM370,82h70v1h-70zM465,82h35v1h-35zM12,83h35v1h-35zM369,83h72v1h-72zM465,83h35v1h-35zM11,84h35v1h-35zM368,84h73v1h-73zM466,84h35v1h-35zM11,85h34v1h-34zM368,85h74v1h-74zM467,85h34v1h-34zM10,86h35v1h-35zM367,86h75v1h-75zM467,86h35v1h-35zM10,87h34v1h-34zM367,87h76v1h-76zM468,87h34v1h-34zM10,88h34v1h-34zM366,88h77v1h-77zM468,88h34v1h-34zM9,89h34v1h-34zM366,89h78v1h-78zM469,89h34v1h-34zM9,90h34v1h-34zM365,90h79v1h-79zM469,90h34v1h-34zM9,91h33v1h-33zM365,91h80v1h-80zM470,91h33v1h-33zM8,92h34v1h-34zM365,92h80v1h-80zM470,92h34v1h-34zM8,93h33v1h-33zM364,93h81v1h-81zM471,93h33v1h-33zM7,94h34v1h-34zM364,94h82v1h-82zM471,94h34v1h-34zM7,95h33v1h-33zM364,95h38v1h-38zM408,95h38v1h-38zM472,95h33v1h-33zM7,96h33v1h-33zM363,96h36v1h-36zM410,96h36v1h-36zM472,96h33v1h-33zM6,97h33v1h-33zM363,97h35v1h-35zM412,97h35v1h-35zM473,97h33v1h-33zM6,98h33v1h-33zM363,98h34v1h-34zM413,98h34v1h-34zM473,98h33v1h-33zM6,99h33v1h-33zM363,99h33v1h-33zM414,99h33v1h-33zM473,99h33v1h-33zM5,100h33v1h-33zM362,100h33v1h-33zM415,100h32v1h-32zM474,100h33v1h-33zM5,101h33v1h-33zM362,101h32v1h-32zM415,101h32v1h-32zM474,101h33v1h-33zM5,102h32v1h-32zM362,102h32v1h-32zM416,102h31v1h-31zM475,102h32v1h-32zM5,103h32v1h-32zM362,103h31v1h-31zM416,103h32v1h-32zM475,103h32v1h-32zM4,104h33v1h-33zM362,104h31v1h-31zM417,104h31v1h-31zM475,104h33v1h-33zM4,105h32v1h-32zM362,105h31v1h-31zM417,105h31v1h-31zM476,105h32v1h-32zM4,106h32v1h-32zM362,106h31v1h-31zM417,106h31v1h-31zM476,106h32v1h-32zM4,107h32v1h-32zM362,107h31v1h-31zM417,107h31v1h-31zM476,107h32v1h-32zM3,108h32v1h-32zM362,108h31v1h-31zM417,108h31v1h-31zM477,108h32v1h-32zM3,109h32v1h-32zM362,109h31v1h-31zM417,109h31v1h-31zM477,109h32v1h-32zM3,110h32v1h-32zM362,110h31v1h-31zM416,110h32v1h-32zM477,110h32v1h-32zM3,111h32v1h-32zM362,111h32v1h-32zM416,111h31v1h-31zM477,111h32v1h-32zM0,112h34v1h-34zM362,112h32v1h-32zM416,112h31v1h-31zM478,112h34v1h-34zM0,113h34v1h-34zM362,113h33v1h-33zM415,113h32v1h-32zM478,113h34v1h-34zM0,114h34v1h-34zM363,114h32v1h-32zM414,114h33v1h-33zM478,114h34v1h-34zM0,115h34v1h-34zM250,115h12v1h-12zM363,115h33v1h-33zM413,115h34v1h-34zM478,115h34v1h-34zM0,116h33v1h-33zM238,116h36v1h-36zM363,116h34v1h-34zM412,116h35v1h-35zM479,116h33v1h-33zM0,117h33v1h-33zM231,117h50v1h-50zM363,117h36v1h-36zM411,117h35v1h-35zM479,117h33v1h-33zM0,118h33v1h-33zM226,118h60v1h-60zM364,118h37v1h-37zM409,118h37v1h-37zM479,118h33v1h-33zM0,119h33v1h-33zM222,119h68v1h-68zM364,119h82v1h-82zM479,119h33v1h-33zM0,120h33v1h-33zM218,120h76v1h-76zM364,120h82v1h-82zM479,120h33v1h-33zM0,121h32v1h-32zM214,121h84v1h-84zM364,121h81v1h-81zM480,121h32v1h-32zM0,122h32v1h-32zM212,122h88v1h-88zM365,122h80v1h-80zM480,122h32v1h-32zM0,123h32v1h-32zM209,123h94v1h-94zM365,123h80v1h-80zM480,123h32v1h-32zM0,124h32v1h-32zM206,124h100v1h-100zM366,124h78v1h-78zM480,124h32v1h-32zM0,125h32v1h-32zM203,125h106v1h-106zM366,125h78v1h-78zM480,125h32v1h-32zM0,126h32v1h-32zM201,126h110v1h-110zM367,126h76v1h-76zM480,126h32v1h-32zM0,127h31v1h-31zM199,127h114v1h-114zM367,127h76v1h-76zM481,127h31v1h-31zM0,128h31v1h-31zM197,128h118v1h-118zM368,128h74v1h-74zM481,128h31v1h-31zM0,129h31v1h-31zM195,129h122v1h-122zM368,129h73v1h-73zM481,129h31v1h-31zM0,130h31v1h-31zM192,130h128v1h-128zM369,130h72v1h-72zM481,130h31v1h-31zM0,131h31v1h-31zM190,131h132v1h-132zM369,131h71v1h-71zM481,131h31v1h-31zM0,132h31v1h-31zM188,132h136v1h-136zM370,132h69v1h-69zM481,132h31v1h-31zM0,133h31v1h-31zM187,133h138v1h-138zM371,133h68v1h-68zM481,133h31v1h-31zM0,134h31v1h-31zM185,134h142v1h-142zM372,134h66v1h-66zM481,134h31v1h-31zM0,135h31v1h-31zM184,135h144v1h-144zM373,135h64v1h-64zM481,135h31v1h-31zM0,136h31v1h-31zM182,136h148v1h-148zM374,136h62v1h-62zM481,136h31v1h-31zM0,137h31v1h-31zM180,137h152v1h-152zM374,137h61v1h-61zM481,137h31v1h-31zM0,138h31v1h-31zM179,138h154v1h-154zM376,138h58v1h-58zM481,138h31v1h-31zM0,139h31v1h-31zM177,139h158v1h-158zM377,139h56v1h-56zM481,139h31v1h-31zM0,140h31v1h-31zM176,140h160v1h-160zM378,140h54v1h-54zM481,140h31v1h-31zM0,141h31v1h-31zM174,141h164v1h-164zM379,141h51v1h-51zM481,141h31v1h-31zM0,142h31v1h-31zM173,142h166v1h-166zM380,142h49v1h-49zM481,142h31v1h-31zM0,143h31v1h-31zM172,143h168v1h-168zM382,143h46v1h-46zM481,143h31v1h-31zM0,144h31v1h-31zM170,144h172v1h-172zM384,144h42v1h-42zM481,144h31v1h-31zM0,145h31v1h-31zM169,145h174v1h-174zM386,145h38v1h-38zM481,145h31v1h-31zM0,146h31v1h-31zM168,146h82v1h-82zM262,146h82v1h-82zM388,146h34v1h-34zM481,146h31v1h-31zM0,147h31v1h-31zM166,147h74v1h-74zM272,147h74v1h-74zM390,147h29v1h-29zM481,147h31v1h-31zM0,148h31v1h-31zM165,148h68v1h-68zM279,148h68v1h-68zM394,148h22v1h-22zM481,148h31v1h-31zM0,149h31v1h-31zM164,149h66v1h-66zM282,149h66v1h-66zM398,149h14v1h-14zM481,149h31v1h-31zM0,150h31v1h-31zM163,150h63v1h-63zM286,150h63v1h-63zM481,150h31v1h-31zM0,151h31v1h-31zM162,151h60v1h-60zM290,151h60v1h-60zM481,151h31v1h-31zM0,152h31v1h-31zM161,152h59v1h-59zM292,152h59v1h-59zM481,152h31v1h-31zM0,153h31v1h-31zM160,153h57v1h-57zM295,153h57v1h-57zM481,153h31v1h-31zM0,154h31v1h-31zM159,154h55v1h-55zM298,154h55v1h-55zM481,154h31v1h-31zM0,155h31v1h-31zM158,155h54v1h-54zM300,155h54v1h-54zM481,155h31v1h-31zM0,156h31v1h-31zM156,156h54v1h-54zM302,156h54v1h-54zM481,156h31v1h-31zM0,157h31v1h-31zM156,157h52v1h-52zM304,157h52v1h-52zM481,157h31v1h-31zM0,158h31v1h-31zM155,158h51v1h-51zM306,158h51v1h-51zM481,158h31v1h-31zM0,159h31v1h-31zM154,159h50v1h-50zM308,159h50v1h-50zM481,159h31v1h-31zM0,160h31v1h-31zM153,160h49v1h-49zM310,160h49v1h-49zM481,160h31v1h-31zM0,161h31v1h-31zM152,161h48v1h-48zM312,161h48v1h-48zM481,161h31v1h-31zM0,162h31v1h-31zM151,162h48v1h-48zM313,162h48v1h-48zM481,162h31v1h-31zM0,163h31v1h-31zM150,163h47v1h-47zM315,163h47v1h-47zM481,163h31v1h-31zM0,164h31v1h-31zM149,164h46v1h-46zM317,164h46v1h-46zM481,164h31v1h-31zM0,165h31v1h-31zM148,165h46v1h-46zM318,165h46v1h-46zM481,165h31v1h-31zM0,166h31v1h-31zM147,166h46v1h-46zM319,166h46v1h-46zM481,166h31v1h-31zM0,167h31v1h-31zM147,167h44v1h-44zM321,167h44v1h-44zM481,167h31v1h-31zM0,168h31v1h-31zM146,168h44v1h-44zM322,168h44v1h-44zM481,168h31v1h-31zM0,169h31v1h-31zM145,169h44v1h-44zM323,169h44v1h-44zM481,169h31v1h-31zM0,170h31v1h-31zM144,170h43v1h-43zM325,170h43v1h-43zM481,170h31v1h-31zM0,171h31v1h-31zM144,171h42v1h-42zM326,171h42v1h-42zM481,171h31v1h-31zM0,172h31v1h-31zM143,172h42v1h-42zM327,172h42v1h-42zM481,172h31v1h-31zM0,173h31v1h-31zM142,173h42v1h-42zM328,173h42v1h-42zM481,173h31v1h-31zM0,174h31v1h-31zM141,174h42v1h-42zM329,174h42v1h-42zM481,174h31v1h-31zM0,175h31v1h-31zM141,175h41v1h-41zM330,175h41v1h-41zM481,175h31v1h-31zM0,176h31v1h-31zM140,176h40v1h-40zM332,176h40v1h-40zM481,176h31v1h-31zM0,177h31v1h-31zM139,177h40v1h-40zM333,177h40v1h-40zM481,177h31v1h-31zM0,178h31v1h-31zM139,178h39v1h-39zM334,178h39v1h-39zM481,178h31v1h-31zM0,179h31v1h-31zM138,179h39v1h-39zM335,179h39v1h-39zM481,179h31v1h-31zM0,180h31v1h-31zM137,180h39v1h-39zM336,180h39v1h-39zM481,180h31v1h-31zM0,181h31v1h-31zM137,181h39v1h-39zM336,181h39v1h-39zM481,181h31v1h-31zM0,182h31v1h-31zM136,182h39v1h-39zM337,182h39v1h-39zM481,182h31v1h-31zM0,183h31v1h-31zM136,183h38v1h-38zM338,183h38v1h-38zM481,183h31v1h-31zM0,184h31v1h-31zM135,184h38v1h-38zM339,184h38v1h-38zM481,184h31v1h-31zM0,185h31v1h-31zM134,185h38v1h-38zM340,185h38v1h-38zM481,185h31v1h-31zM0,186h31v1h-31zM134,186h37v1h-37zM341,186h37v1h-37zM481,186h31v1h-31zM0,187h31v1h-31zM133,187h37v1h-37zM342,187h37v1h-37zM481,187h31v1h-31zM0,188h31v1h-31zM132,188h38v1h-38zM342,188h38v1h-38zM481,188h31v1h-31zM0,189h31v1h-31zM132,189h37v1h-37zM343,189h37v1h-37zM481,189h31v1h-31zM0,190h31v1h-31zM131,190h37v1h-37zM344,190h37v1h-37zM481,190h31v1h-31zM0,191h31v1h-31zM131,191h36v1h-36zM345,191h36v1h-36zM481,191h31v1h-31zM0,192h31v1h-31zM131,192h36v1h-36zM345,192h37v1h-37zM481,192h31v1h-31zM0,193h31v1h-31zM130,193h36v1h-36zM346,193h36v1h-36zM481,193h31v1h-31zM0,194h31v1h-31zM130,194h35v1h-35zM347,194h35v1h-35zM481,194h31v1h-31zM0,195h31v1h-31zM129,195h35v1h-35zM348,195h35v1h-35zM481,195h31v1h-31zM0,196h31v1h-31zM129,196h35v1h-35zM348,196h35v1h-35zM481,196h31v1h-31zM0,197h31v1h-31zM128,197h35v1h-35zM349,197h35v1h-35zM481,197h31v1h-31zM0,198h31v1h-31zM128,198h35v1h-35zM349,198h35v1h-35zM481,198h31v1h-31zM0,199h31v1h-31zM127,199h35v1h-35zM350,199h35v1h-35zM481,199h31v1h-31zM0,200h31v1h-31zM127,200h34v1h-34zM351,200h34v1h-34zM481,200h31v1h-31zM0,201h31v1h-31zM126,201h35v1h-35zM351,201h35v1h-35zM481,201h31v1h-31zM0,202h31v1h-31zM126,202h34v1h-34zM352,202h34v1h-34zM481,202h31v1h-31zM0,203h31v1h-31zM125,203h35v1h-35zM352,203h35v1h-35zM481,203h31v1h-31zM0,204h31v1h-31zM125,204h34v1h-34zM353,204h34v1h-34zM481,204h31v1h-31zM0,205h31v1h-31zM125,205h34v1h-34zM353,205h34v1h-34zM481,205h31v1h-31zM0,206h31v1h-31zM124,206h34v1h-34zM354,206h34v1h-34zM481,206h31v1h-31zM0,207h31v1h-31zM124,207h34v1h-34zM354,207h34v1h-34zM481,207h31v1h-31zM0,208h31v1h-31zM124,208h33v1h-33zM355,208h33v1h-33zM481,208h31v1h-31zM0,209h31v1h-31zM123,209h34v1h-34zM355,209h34v1h-34zM481,209h31v1h-31zM0,210h31v1h-31zM123,210h33v1h-33zM356,210h33v1h-33zM481,210h31v1h-31zM0,211h31v1h-31zM123,211h33v1h-33zM356,211h33v1h-33zM481,211h31v1h-31zM0,212h31v1h-31zM122,212h33v1h-33zM357,212h33v1h-33zM481,212h31v1h-31zM0,213h31v1h-31zM122,213h33v1h-33zM357,213h33v1h-33zM481,213h31v1h-31zM0,214h31v1h-31zM121,214h33v1h-33zM358,214h33v1h-33zM481,214h31v1h-31zM0,215h31v1h-31zM121,215h33v1h-33zM358,215h33v1h-33zM481,215h31v1h-31zM0,216h31v1h-31zM121,216h33v1h-33zM358,216h33v1h-33zM481,216h31v1h-31zM0,217h31v1h-31zM121,217h32v1h-32zM359,217h32v1h-32zM481,217h31v1h-31zM0,218h31v1h-31zM120,218h33v1h-33zM359,218h33v1h-33zM481,218h31v1h-31zM0,219h31v1h-31zM120,219h33v1h-33zM359,219h33v1h-33zM481,219h31v1h-31zM0,220h31v1h-31zM120,220h32v1h-32zM360,220h32v1h-32zM481,220h31v1h-31zM0,221h31v1h-31zM120,221h32v1h-32zM360,221h32v1h-32zM481,221h31v1h-31zM0,222h31v1h-31zM119,222h32v1h-32zM361,222h32v1h-32zM481,222h31v1h-31zM0,223h31v1h-31zM119,223h32v1h-32zM361,223h32v1h-32zM481,223h31v1h-31zM0,224h31v1h-31zM119,224h32v1h-32zM361,224h32v1h-32zM481,224h31v1h-31zM0,225h31v1h-31zM119,225h32v1h-32zM361,225h32v1h-32zM481,225h31v1h-31zM0,226h31v1h-31zM118,226h32v1h-32zM362,226h32v1h-32zM481,226h31v1h-31zM0,227h31v1h-31zM118,227h32v1h-32zM362,227h32v1h-32zM481,227h31v1h-31zM0,228h31v1h-31zM118,228h32v1h-32zM362,228h32v1h-32zM481,228h31v1h-31zM0,229h31v1h-31zM118,229h32v1h-32zM362,229h32v1h-32zM481,229h31v1h-31zM0,230h31v1h-31zM118,230h31v1h-31zM363,230h31v1h-31zM481,230h31v1h-31zM0,231h31v1h-31zM117,231h32v1h-32zM363,231h32v1h-32zM481,231h31v1h-31zM0,232h31v1h-31zM117,232h32v1h-32zM363,232h32v1h-32zM481,232h31v1h-31zM0,233h31v1h-31zM117,233h31v1h-31zM364,233h31v1h-31zM481,233h31v1h-31zM0,234h31v1h-31zM117,234h31v1h-31zM364,234h31v1h-31zM481,234h31v1h-31zM0,235h31v1h-31zM117,235h31v1h-31zM364,235h31v1h-31zM481,235h31v1h-31zM0,236h31v1h-31zM117,236h31v1h-31zM364,236h31v1h-31zM481,236h31v1h-31zM0,237h31v1h-31zM117,237h31v1h-31zM364,237h31v1h-31zM481,237h31v1h-31zM0,238h31v1h-31zM116,238h32v1h-32zM364,238h32v1h-32zM481,238h31v1h-31zM0,239h31v1h-31zM116,239h32v1h-32zM364,239h32v1h-32zM481,239h31v1h-31zM0,240h31v1h-31zM116,240h31v1h-31zM365,240h31v1h-31zM481,240h31v1h-31zM0,241h31v1h-31zM116,241h31v1h-31zM365,241h31v1h-31zM481,241h31v1h-31zM0,242h31v1h-31zM116,242h31v1h-31zM365,242h31v1h-31zM481,242h31v1h-31zM0,243h31v1h-31zM116,243h31v1h-31zM365,243h31v1h-31zM481,243h31v1h-31zM0,244h31v1h-31zM116,244h31v1h-31zM365,244h31v1h-31zM481,244h31v1h-31zM0,245h31v1h-31zM116,245h31v1h-31zM365,245h31v1h-31zM481,245h31v1h-31zM0,246h31v1h-31zM116,246h31v1h-31zM365,246h31v1h-31zM481,246h31v1h-31zM0,247h31v1h-31zM116,247h31v1h-31zM365,247h31v1h-31zM481,247h31v1h-31zM0,248h31v1h-31zM116,248h31v1h-31zM365,248h31v1h-31zM481,248h31v1h-31zM0,249h31v1h-31zM116,249h31v1h-31zM365,249h31v1h-31zM481,249h31v1h-31zM0,250h31v1h-31zM115,250h31v1h-31zM366,250h31v1h-31zM481,250h31v1h-31zM0,251h31v1h-31zM115,251h31v1h-31zM366,251h31v1h-31zM481,251h31v1h-31zM0,252h31v1h-31zM115,252h31v1h-31zM366,252h31v1h-31zM481,252h31v1h-31zM0,253h31v1h-31zM115,253h31v1h-31zM366,253h31v1h-31zM481,253h31v1h-31zM0,254h31v1h-31zM115,254h31v1h-31zM366,254h31v1h-31zM481,254h31v1h-31zM0,255h31v1h-31zM115,255h31v1h-31zM366,255h31v1h-31zM481,255h31v1h-31zM0,256h31v1h-31zM115,256h31v1h-31zM366,256h31v1h-31zM481,256h31v1h-31zM0,257h31v1h-31zM115,257h31v1h-31zM366,257h31v1h-31zM481,257h31v1h-31zM0,258h31v1h-31zM115,258h31v1h-31zM366,258h31v1h-31zM481,258h31v1h-31zM0,259h31v1h-31zM115,259h31v1h-31zM366,259h31v1h-31zM481,259h31v1h-31zM0,260h31v1h-31zM115,260h31v1h-31zM366,260h31v1h-31zM481,260h31v1h-31zM0,261h31v1h-31zM115,261h31v1h-31zM366,261h31v1h-31zM481,261h31v1h-31zM0,262h31v1h-31zM116,262h31v1h-31zM365,262h31v1h-31zM481,262h31v1h-31zM0,263h31v1h-31zM116,263h31v1h-31zM365,263h31v1h-31zM481,263h31v1h-31zM0,264h31v1h-31zM116,264h31v1h-31zM365,264h31v1h-31zM481,264h31v1h-31zM0,265h31v1h-31zM116,265h31v1h-31zM365,265h31v1h-31zM481,265h31v1h-31zM0,266h31v1h-31zM116,266h31v1h-31zM365,266h31v1h-31zM481,266h31v1h-31zM0,267h31v1h-31zM116,267h31v1h-31zM365,267h31v1h-31zM481,267h31v1h-31zM0,268h31v1h-31zM116,268h31v1h-31zM365,268h31v1h-31zM481,268h31v1h-31zM0,269h31v1h-31zM116,269h31v1h-31zM365,269h31v1h-31zM481,269h31v1h-31zM0,270h31v1h-31zM116,270h31v1h-31zM365,270h31v1h-31zM481,270h31v1h-31zM0,271h31v1h-31zM116,271h31v1h-31zM365,271h31v1h-31zM481,271h31v1h-31zM0,272h31v1h-31zM116,272h32v1h-32zM364,272h32v1h-32zM481,272h31v1h-31zM0,273h31v1h-31zM116,273h32v1h-32zM364,273h32v1h-32zM481,273h31v1h-31zM0,274h31v1h-31zM117,274h31v1h-31zM364,274h31v1h-31zM481,274h31v1h-31zM0,275h31v1h-31zM117,275h31v1h-31zM364,275h31v1h-31zM481,275h31v1h-31zM0,276h31v1h-31zM117,276h31v1h-31zM364,276h31v1h-31zM481,276h31v1h-31zM0,277h31v1h-31zM117,277h31v1h-31zM364,277h31v1h-31zM481,277h31v1h-31zM0,278h31v1h-31zM117,278h31v1h-31zM364,278h31v1h-31zM481,278h31v1h-31zM0,279h31v1h-31zM117,279h32v1h-32zM363,279h32v1h-32zM481,279h31v1h-31zM0,280h31v1h-31zM117,280h32v1h-32zM363,280h32v1h-32zM481,280h31v1h-31zM0,281h31v1h-31zM118,281h31v1h-31zM363,281h31v1h-31zM481,281h31v1h-31zM0,282h31v1h-31zM118,282h32v1h-32zM362,282h32v1h-32zM481,282h31v1h-31zM0,283h31v1h-31zM118,283h32v1h-32zM362,283h32v1h-32zM481,283h31v1h-31zM0,284h31v1h-31zM118,284h32v1h-32zM362,284h32v1h-32zM481,284h31v1h-31zM0,285h31v1h-31zM118,285h32v1h-32zM362,285h32v1h-32zM481,285h31v1h-31zM0,286h31v1h-31zM119,286h32v1h-32zM361,286h32v1h-32zM481,286h31v1h-31zM0,287h31v1h-31zM119,287h32v1h-32zM361,287h32v1h-32zM481,287h31v1h-31zM0,288h31v1h-31zM119,288h32v1h-32zM361,288h32v1h-32zM481,288h31v1h-31zM0,289h31v1h-31zM119,289h32v1h-32zM361,289h32v1h-32zM481,289h31v1h-31zM0,290h31v1h-31zM120,290h32v1h-32zM360,290h32v1h-32zM481,290h31v1h-31zM0,291h31v1h-31zM120,291h32v1h-32zM360,291h32v1h-32zM481,291h31v1h-31zM0,292h31v1h-31zM120,292h33v1h-33zM359,292h33v1h-33zM481,292h31v1h-31zM0,293h31v1h-31zM120,293h33v1h-33zM359,293h33v1h-33zM481,293h31v1h-31zM0,294h31v1h-31zM121,294h32v1h-32zM359,294h32v1h-32zM481,294h31v1h-31zM0,295h31v1h-31zM121,295h33v1h-33zM358,295h33v1h-33zM481,295h31v1h-31zM0,296h31v1h-31zM121,296h33v1h-33zM358,296h33v1h-33zM481,296h31v1h-31zM0,297h31v1h-31zM121,297h33v1h-33zM358,297h33v1h-33zM481,297h31v1h-31zM0,298h31v1h-31zM122,298h33v1h-33zM357,298h33v1h-33zM481,298h31v1h-31zM0,299h31v1h-31zM122,299h33v1h-33zM357,299h33v1h-33zM481,299h31v1h-31zM0,300h31v1h-31zM123,300h33v1h-33zM356,300h33v1h-33zM481,300h31v1h-31zM0,301h31v1h-31zM123,301h33v1h-33zM356,301h33v1h-33zM481,301h31v1h-31zM0,302h31v1h-31zM123,302h34v1h-34zM355,302h34v1h-34zM481,302h31v1h-31zM0,303h31v1h-31zM124,303h33v1h-33zM355,303h33v1h-33zM481,303h31v1h-31zM0,304h31v1h-31zM124,304h34v1h-34zM354,304h34v1h-34zM481,304h31v1h-31zM0,305h31v1h-31zM124,305h34v1h-34zM354,305h34v1h-34zM481,305h31v1h-31zM0,306h31v1h-31zM125,306h34v1h-34zM353,306h34v1h-34zM481,306h31v1h-31zM0,307h31v1h-31zM125,307h34v1h-34zM353,307h34v1h-34zM481,307h31v1h-31zM0,308h31v1h-31zM125,308h35v1h-35zM352,308h35v1h-35zM481,308h31v1h-31zM0,309h31v1h-31zM126,309h34v1h-34zM352,309h34v1h-34zM481,309h31v1h-31zM0,310h31v1h-31zM126,310h35v1h-35zM351,310h35v1h-35zM481,310h31v1h-31zM0,311h31v1h-31zM127,311h34v1h-34zM351,311h34v1h-34zM481,311h31v1h-31zM0,312h31v1h-31zM127,312h35v1h-35zM350,312h35v1h-35zM481,312h31v1h-31zM0,313h31v1h-31zM128,313h35v1h-35zM349,313h35v1h-35zM481,313h31v1h-31zM0,314h31v1h-31zM128,314h35v1h-35zM349,314h35v1h-35zM481,314h31v1h-31zM0,315h31v1h-31zM129,315h35v1h-35zM348,315h35v1h-35zM481,315h31v1h-31zM0,316h31v1h-31zM129,316h35v1h-35zM348,316h35v1h-35zM481,316h31v1h-31zM0,317h31v1h-31zM130,317h35v1h-35zM347,317h35v1h-35zM481,317h31v1h-31zM0,318h31v1h-31zM130,318h36v1h-36zM346,318h36v1h-36zM481,318h31v1h-31zM0,319h31v1h-31zM130,319h37v1h-37zM345,319h37v1h-37zM481,319h31v1h-31zM0,320h31v1h-31zM131,320h36v1h-36zM345,320h36v1h-36zM481,320h31v1h-31zM0,321h31v1h-31zM131,321h37v1h-37zM344,321h37v1h-37zM481,321h31v1h-31zM0,322h31v1h-31zM132,322h37v1h-37zM343,322h37v1h-37zM481,322h31v1h-31zM0,323h31v1h-31zM132,323h38v1h-38zM342,323h38v1h-38zM481,323h31v1h-31zM0,324h31v1h-31zM133,324h37v1h-37zM342,324h37v1h-37zM481,324h31v1h-31zM0,325h31v1h-31zM134,325h37v1h-37zM341,325h37v1h-37zM481,325h31v1h-31zM0,326h31v1h-31zM134,326h38v1h-38zM340,326h38v1h-38zM481,326h31v1h-31zM0,327h31v1h-31zM135,327h38v1h-38zM339,327h38v1h-38zM481,327h31v1h-31zM0,328h31v1h-31zM136,328h38v1h-38zM338,328h38v1h-38zM481,328h31v1h-31zM0,329h31v1h-31zM136,329h39v1h-39zM337,329h39v1h-39zM481,329h31v1h-31zM0,330h31v1h-31zM137,330h39v1h-39zM336,330h39v1h-39zM481,330h31v1h-31zM0,331h31v1h-31zM137,331h39v1h-39zM336,331h39v1h-39zM481,331h31v1h-31zM0,332h31v1h-31zM138,332h39v1h-39zM335,332h39v1h-39zM481,332h31v1h-31zM0,333h31v1h-31zM139,333h39v1h-39zM334,333h39v1h-39zM481,333h31v1h-31zM0,334h31v1h-31zM139,334h40v1h-40zM333,334h40v1h-40zM481,334h31v1h-31zM0,335h31v1h-31zM140,335h40v1h-40zM332,335h40v1h-40zM481,335h31v1h-31zM0,336h31v1h-31zM141,336h41v1h-41zM330,336h41v1h-41zM481,336h31v1h-31zM0,337h31v1h-31zM141,337h42v1h-42zM329,337h42v1h-42zM481,337h31v1h-31zM0,338h31v1h-31zM142,338h42v1h-42zM328,338h42v1h-42zM481,338h31v1h-31zM0,339h31v1h-31zM143,339h42v1h-42zM327,339h42v1h-42zM481,339h31v1h-31zM0,340h31v1h-31zM144,340h42v1h-42zM326,340h42v1h-42zM481,340h31v1h-31zM0,341h31v1h-31zM144,341h43v1h-43zM325,341h43v1h-43zM481,341h31v1h-31zM0,342h31v1h-31zM145,342h44v1h-44zM323,342h44v1h-44zM481,342h31v1h-31zM0,343h31v1h-31zM146,343h44v1h-44zM322,343h44v1h-44zM481,343h31v1h-31zM0,344h31v1h-31zM147,344h44v1h-44zM321,344h44v1h-44zM481,344h31v1h-31zM0,345h31v1h-31zM147,345h46v1h-46zM319,345h46v1h-46zM481,345h31v1h-31zM0,346h31v1h-31zM148,346h46v1h-46zM318,346h46v1h-46zM481,346h31v1h-31zM0,347h31v1h-31zM149,347h46v1h-46zM317,347h46v1h-46zM481,347h31v1h-31zM0,348h31v1h-31zM150,348h47v1h-47zM315,348h47v1h-47zM481,348h31v1h-31zM0,349h31v1h-31zM151,349h48v1h-48zM313,349h48v1h-48zM481,349h31v1h-31zM0,350h31v1h-31zM152,350h48v1h-48zM312,350h48v1h-48zM481,350h31v1h-31zM0,351h31v1h-31zM153,351h49v1h-49zM310,351h49v1h-49zM481,351h31v1h-31zM0,352h31v1h-31zM154,352h50v1h-50zM308,352h50v1h-50zM481,352h31v1h-31zM0,353h31v1h-31zM155,353h51v1h-51zM306,353h51v1h-51zM481,353h31v1h-31zM0,354h31v1h-31zM156,354h52v1h-52zM304,354h52v1h-52zM481,354h31v1h-31zM0,355h31v1h-31zM156,355h54v1h-54zM302,355h54v1h-54zM481,355h31v1h-31zM0,356h31v1h-31zM158,356h54v1h-54zM300,356h54v1h-54zM481,356h31v1h-31zM0,357h31v1h-31zM159,357h55v1h-55zM298,357h55v1h-55zM481,357h31v1h-31zM0,358h31v1h-31zM160,358h57v1h-57zM295,358h57v1h-57zM481,358h31v1h-31zM0,359h31v1h-31zM161,359h59v1h-59zM292,359h59v1h-59zM481,359h31v1h-31zM0,360h31v1h-31zM162,360h60v1h-60zM290,360h60v1h-60zM481,360h31v1h-31zM0,361h31v1h-31zM163,361h63v1h-63zM286,361h63v1h-63zM481,361h31v1h-31zM0,362h31v1h-31zM164,362h66v1h-66zM282,362h66v1h-66zM481,362h31v1h-31zM0,363h31v1h-31zM165,363h68v1h-68zM279,363h68v1h-68zM481,363h31v1h-31zM0,364h31v1h-31zM166,364h74v1h-74zM272,364h74v1h-74zM481,364h31v1h-31zM0,365h31v1h-31zM168,365h82v1h-82zM262,365h82v1h-82zM481,365h31v1h-31zM0,366h31v1h-31zM169,366h174v1h-174zM481,366h31v1h-31zM0,367h31v1h-31zM170,367h172v1h-172zM481,367h31v1h-31zM0,368h31v1h-31zM172,368h168v1h-168zM481,368h31v1h-31zM0,369h31v1h-31zM173,369h166v1h-166zM481,369h31v1h-31zM0,370h31v1h-31zM174,370h164v1h-164zM481,370h31v1h-31zM0,371h31v1h-31zM176,371h160v1h-160zM481,371h31v1h-31zM0,372h31v1h-31zM177,372h158v1h-158zM481,372h31v1h-31zM0,373h31v1h-31zM179,373h154v1h-154zM481,373h31v1h-31zM0,374h31v1h-31zM180,374h152v1h-152zM481,374h31v1h-31zM0,375h31v1h-31zM182,375h148v1h-148zM481,375h31v1h-31zM0,376h31v1h-31zM184,376h144v1h-144zM481,376h31v1h-31zM0,377h31v1h-31zM185,377h142v1h-142zM481,377h31v1h-31zM0,378h31v1h-31zM187,378h138v1h-138zM481,378h31v1h-31zM0,379h31v1h-31zM188,379h136v1h-136zM481,379h31v1h-31zM0,380h31v1h-31zM190,380h132v1h-132zM481,380h31v1h-31zM0,381h31v1h-31zM192,381h128v1h-128zM481,381h31v1h-31zM0,382h31v1h-31zM195,382h122v1h-122zM481,382h31v1h-31zM0,383h31v1h-31zM197,383h118v1h-118zM481,383h31v1h-31zM0,384h31v1h-31zM199,384h114v1h-114zM481,384h31v1h-31zM0,385h32v1h-32zM201,385h110v1h-110zM480,385h32v1h-32zM0,386h32v1h-32zM203,386h106v1h-106zM480,386h32v1h-32zM0,387h32v1h-32zM206,387h100v1h-100zM480,387h32v1h-32zM0,388h32v1h-32zM209,388h94v1h-94zM480,388h32v1h-32zM0,389h32v1h-32zM212,389h88v1h-88zM480,389h32v1h-32zM0,390h32v1h-32zM214,390h84v1h-84zM480,390h32v1h-32zM0,391h33v1h-33zM218,391h76v1h-76zM479,391h33v1h-33zM0,392h33v1h-33zM222,392h68v1h-68zM479,392h33v1h-33zM0,393h33v1h-33zM226,393h60v1h-60zM479,393h33v1h-33zM0,394h33v1h-33zM231,394h50v1h-50zM479,394h33v1h-33zM0,395h33v1h-33zM238,395h36v1h-36zM479,395h33v1h-33zM0,396h34v1h-34zM250,396h12v1h-12zM478,396h34v1h-34zM0,397h34v1h-34zM478,397h34v1h-34zM0,398h34v1h-34zM478,398h34v1h-34zM0,399h34v1h-34zM478,399h34v1h-34zM3,400h32v1h-32zM477,400h32v1h-32zM3,401h32v1h-32zM477,401h32v1h-32zM3,402h32v1h-32zM477,402h32v1h-32zM3,403h32v1h-32zM477,403h32v1h-32zM4,404h32v1h-32zM476,404h32v1h-32zM4,405h32v1h-32zM476,405h32v1h-32zM4,406h32v1h-32zM476,406h32v1h-32zM4,407h33v1h-33zM475,407h33v1h-33zM5,408h32v1h-32zM475,408h32v1h-32zM5,409h32v1h-32zM475,409h32v1h-32zM5,410h33v1h-33zM474,410h33v1h-33zM5,411h33v1h-33zM474,411h33v1h-33zM6,412h33v1h-33zM473,412h33v1h-33zM6,413h33v1h-33zM473,413h33v1h-33zM6,414h33v1h-33zM473,414h33v1h-33zM7,415h33v1h-33zM472,415h33v1h-33zM7,416h33v1h-33zM472,416h33v1h-33zM7,417h34v1h-34zM471,417h34v1h-34zM8,418h33v1h-33zM471,418h33v1h-33zM8,419h34v1h-34zM470,419h34v1h-34zM9,420h33v1h-33zM470,420h33v1h-33zM9,421h34v1h-34zM469,421h34v1h-34zM9,422h34v1h-34zM469,422h34v1h-34zM10,423h34v1h-34zM468,423h34v1h-34zM10,424h34v1h-34zM468,424h34v1h-34zM10,425h35v1h-35zM467,425h35v1h-35zM11,426h34v1h-34zM467,426h34v1h-34zM11,427h35v1h-35zM466,427h35v1h-35zM12,428h35v1h-35zM465,428h35v1h-35zM12,429h35v1h-35zM465,429h35v1h-35zM13,430h35v1h-35zM464,430h35v1h-35zM13,431h35v1h-35zM464,431h35v1h-35zM14,432h35v1h-35zM463,432h35v1h-35zM14,433h36v1h-36zM462,433h36v1h-36zM15,434h36v1h-36zM461,434h36v1h-36zM15,435h36v1h-36zM461,435h36v1h-36zM16,436h36v1h-36zM460,436h36v1h-36zM16,437h37v1h-37zM459,437h37v1h-37zM17,438h37v1h-37zM458,438h37v1h-37zM17,439h37v1h-37zM458,439h37v1h-37zM18,440h37v1h-37zM457,440h37v1h-37zM18,441h38v1h-38zM456,441h38v1h-38zM19,442h38v1h-38zM455,442h38v1h-38zM20,443h38v1h-38zM454,443h38v1h-38zM20,444h38v1h-38zM454,444h38v1h-38zM21,445h38v1h-38zM453,445h38v1h-38zM21,446h39v1h-39zM452,446h39v1h-39zM22,447h39v1h-39zM451,447h39v1h-39zM23,448h39v1h-39zM450,448h39v1h-39zM23,449h40v1h-40zM449,449h40v1h-40zM24,450h40v1h-40zM448,450h40v1h-40zM25,451h40v1h-40zM447,451h40v1h-40zM25,452h41v1h-41zM446,452h41v1h-41zM26,453h41v1h-41zM445,453h41v1h-41zM27,454h42v1h-42zM443,454h42v1h-42zM28,455h42v1h-42zM442,455h42v1h-42zM28,456h43v1h-43zM441,456h43v1h-43zM29,457h43v1h-43zM440,457h43v1h-43zM30,458h44v1h-44zM438,458h44v1h-44zM31,459h44v1h-44zM437,459h44v1h-44zM31,460h45v1h-45zM436,460h45v1h-45zM32,461h46v1h-46zM434,461h46v1h-46zM33,462h46v1h-46zM433,462h46v1h-46zM34,463h46v1h-46zM432,463h46v1h-46zM35,464h47v1h-47zM430,464h47v1h-47zM36,465h48v1h-48zM428,465h48v1h-48zM37,466h48v1h-48zM427,466h48v1h-48zM38,467h49v1h-49zM425,467h49v1h-49zM39,468h50v1h-50zM423,468h50v1h-50zM39,469h52v1h-52zM421,469h52v1h-52zM40,470h53v1h-53zM419,470h53v1h-53zM41,471h54v1h-54zM417,471h54v1h-54zM42,472h55v1h-55zM415,472h55v1h-55zM44,473h56v1h-56zM412,473h56v1h-56zM45,474h57v1h-57zM410,474h57v1h-57zM46,475h59v1h-59zM407,475h59v1h-59zM47,476h61v1h-61zM404,476h61v1h-61zM48,477h64v1h-64zM400,477h64v1h-64zM49,478h67v1h-67zM396,478h67v1h-67zM50,479h71v1h-71zM391,479h71v1h-71zM51,480h76v1h-76zM385,480h76v1h-76zM53,481h406v1h-406zM54,482h404v1h-404zM55,483h402v1h-402zM57,484h398v1h-398zM58,485h396v1h-396zM59,486h394v1h-394zM61,487h390v1h-390zM62,488h388v1h-388zM64,489h384v1h-384zM65,490h382v1h-382zM67,491h378v1h-378zM69,492h374v1h-374zM70,493h372v1h-372zM72,494h368v1h-368zM74,495h364v1h-364zM76,496h360v1h-360zM78,497h356v1h-356zM80,498h352v1h-352zM82,499h348v1h-348zM84,500h344v1h-344zM86,501h340v1h-340zM89,502h334v1h-334zM92,503h328v1h-328zM94,504h324v1h-324zM97,505h318v1h-318zM100,506h312v1h-312zM104,507h304v1h-304zM108,508h296v1h-296zM112,509h288v1h-288zM112,510h288v1h-288zM112,511h288v1h-288z"/></svg>