<?xml version="1.0" encoding="UTF-8"?>
<svg xmlns="http://www.w3.org/2000/svg" viewBox="0 0 512 512" width="512" height="512"><path fill="#000" d="M252,42h8v1h-8zM246,43h20v1h-20zM242,44h28v1h-28zM240,45h32v1h-32zM238,46h36v1h-36zM235,47h42v1h-42zM234,48h44v1h-44zM232,49h48v1h-48zM231,50h50v1h-50zM229,51h54v1h-54zM228,52h56v1h-56zM227,53h58v1h-58zM226,54h60v1h-60zM225,55h62v1h-62zM224,56h64v1h-64zM223,57h66v1h-66zM222,58h68v1h-68zM222,59h68v1h-68zM221,60h70v1h-70zM220,61h72v1h-72zM220,62h72v1h-72zM219,63h74v1h-74zM218,64h76v1h-76zM218,65h76v1h-76zM217,66h78v1h-78zM217,67h78v1h-78zM216,68h80v1h-80zM216,69h80v1h-80zM216,70h80v1h-80zM215,71h82v1h-82zM215,72h82v1h-82zM215,73h82v1h-82zM214,74h84v1h-84zM214,75h84v1h-84zM214,76h84v1h-84zM214,77h84v1h-84zM214,78h84v1h-84zM213,79h86v1h-86zM213,80h86v1h-86zM213,81h86v1h-86zM213,82h86v1h-86zM213,83h86v1h-86zM213,84h86v1h-86zM213,85h86v1h-86zM213,86h86v1h-86zM213,87h86v1h-86zM213,88h86v1h-86zM213,89h86v1h-86zM213,90h86v1h-86zM213,91h86v1h-86zM214,92h84v1h-84zM214,93h84v1h-84zM214,94h84v1h-84zM214,95h84v1h-84zM214,96h84v1h-84zM215,97h82v1h-82zM215,98h82v1h-82zM215,99h82v1h-82zM216,100h80v1h-80zM216,101h80v1h-80zM217,102h78v1h-78zM217,103h78v1h-78zM218,104h76v1h-76zM218,105h76v1h-76zM219,106h74v1h-74zM219,107h74v1h-74zM220,108h72v1h-72zM220,109h72v1h-72zM221,110h70v1h-70zM222,111h68v1h-68zM223,112h66v1h-66zM224,113h64v1h-64zM224,114h64v1h-64zM225,115h62v1h-62zM226,116h60v1h-60zM227,117h58v1h-58zM229,118h54v1h-54zM230,119h52v1h-52zM231,120h50v1h-50zM233,121h46v1h-46zM234,122h44v1h-44zM236,123h40v1h-40zM238,124h36v1h-36zM241,125h30v1h-30zM243,126h26v1h-26zM247,127h18v1h-18zM249,213h14v1h-14zM245,214h22v1h-22zM242,215h28v1h-28zM239,216h34v1h-34zM237,217h38v1h-38zM235,218h42v1h-42zM233,219h46v1h-46zM232,220h48v1h-48zM230,221h52v1h-52zM229,222h54v1h-54zM228,223h56v1h-56zM227,224h58v1h-58zM226,225h60v1h-60zM225,226h62v1h-62zM224,227h64v1h-64zM223,228h66v1h-66zM222,229h68v1h-68zM221,230h70v1h-70zM221,231h70v1h-70zM220,232h72v1h-72zM219,233h74v1h-74zM219,234h74v1h-74zM218,235h76v1h-76zM218,236h76v1h-76zM217,237h78v1h-78zM217,238h78v1h-78zM216,239h80v1h-80zM216,240h80v1h-80zM216,241h80v1h-80zM215,242h82v1h-82zM215,243h82v1h-82zM215,244h82v1h-82zM214,245h84v1h-84zM214,246h84v1h-84zM214,247h84v1h-84zM214,248h84v1h-84zM213,249h85v1h-85zM213,250h86v1h-86zM213,251h86v1h-86zM213,252h86v1h-86zM213,253h86v1h-86zM213,254h86v1h-86zM213,255h86v1h-86zM213,256h86v1h-86zM213,257h86v1h-86zM213,258h86v1h-86zM213,259h86v1h-86zM213,260h86v1h-86zM213,261h86v1h-86zM213,262h85v1h-85zM214,263h84v1h-84zM214,264h84v1h-84zM214,265h84v1h-84zM214,266h84v1h-84zM215,267h82v1h-82zM215,268h82v1h-82zM215,269h82v1h-82zM216,270h80v1h-80zM216,271h80v1h-80zM216,272h80v1h-80zM217,273h78v1h-78zM217,274h78v1h-78zM218,275h76v1h-76zM218,276h76v1h-76zM219,277h74v1h-74zM219,278h74v1h-74zM220,279h72v1h-72zM221,280h70v1h-70zM221,281h70v1h-70zM222,282h68v1h-68zM223,283h66v1h-66zM224,284h64v1h-64zM225,285h62v1h-62zM226,286h60v1h-60zM227,287h58v1h-58zM228,288h56v1h-56zM229,289h54v1h-54zM230,290h52v1h-52zM232,291h48v1h-48zM233,292h46v1h-46zM235,293h42v1h-42zM237,294h38v1h-38zM239,295h34v1h-34zM242,296h28v1h-28zM245,297h22v1h-22zM249,298h14v1h-14zM247,384h18v1h-18zM243,385h26v1h-26zM241,386h30v1h-30zM238,387h36v1h-36zM236,388h40v1h-40zM234,389h44v1h-44zM233,390h46v1h-46zM231,391h50v1h-50zM230,392h52v1h-52zM229,393h54v1h-54zM227,394h58v1h-58zM226,395h60v1h-60zM225,396h62v1h-62zM224,397h64v1h-64zM224,398h65v1h-65zM223,399h66v1h-66zM222,400h68v1h-68zM221,401h70v1h-70zM220,402h72v1h-72zM220,403h72v1h-72zM219,404h74v1h-74zM219,405h74v1h-74zM218,406h76v1h-76zM218,407h77v1h-77zM217,408h78v1h-78zM217,409h78v1h-78zM216,410h80v1h-80zM216,411h80v1h-80zM215,412h82v1h-82zM215,413h82v1h-82zM215,414h82v1h-82zM214,415h84v1h-84zM214,416h84v1h-84zM214,417h84v1h-84zM214,418h84v1h-84zM214,419h84v1h-84zM213,420h86v1h-86zM213,421h86v1h-86zM213,422h86v1h-86zM213,423h86v1h-86zM213,424h86v1h-86zM213,425h86v1h-86zM213,426h86v1h-86zM213,427h86v1h-86zM213,428h86v1h-86zM213,429h86v1h-86zM213,430h86v1h-86zM213,431h86v1h-86zM213,432h86v1h-86zM214,433h84v1h-84zM214,434h84v1h-84zM214,435h84v1h-84zM214,436h84v1h-84zM214,437h84v1h-84zM215,438h82v1h-82zM215,439h82v1h-82zM215,440h82v1h-82zM216,441h80v1h-80zM216,442h80v1h-80zM216,443h80v1h-80zM217,444h78v1h-78zM217,445h78v1h-78zM218,446h76v1h-76zM218,447h76v1h-76zM219,448h74v1h-74zM220,449h72v1h-72zM220,450h72v1h-72zM221,451h70v1h-70zM222,452h68v1h-68zM222,453h68v1h-68zM223,454h66v1h-66zM224,455h64v1h-64zM225,456h62v1h-62zM226,457h60v1h-60zM227,458h58v1h-58zM228,459h56v1h-56zM229,460h54v1h-54zM231,461h50v1h-50zM232,462h48v1h-48zM234,463h44v1h-44zM236,464h40v1h-40zM238,465h36v1h-36zM240,466h32v1h-32zM242,467h27v1h-27zM246,468h20v1h-20zM252,469h8v1h-8z"/></svg>