<?xml version="1.0" encoding="UTF-8"?>
<svg xmlns="http://www.w3.org/2000/svg" viewBox="0 0 512 512" width="512" height="512"><path fill="#000" d="M381,42h10v1h-10zM373,43h26v1h-26zM369,44h34v1h-34zM366,45h40v1h-40zM363,46h46v1h-46zM360,47h52v1h-52zM358,48h56v1h-56zM356,49h60v1h-60zM354,50h64v1h-64zM352,51h68v1h-68zM351,52h70v1h-70zM349,53h74v1h-74zM348,54h76v1h-76zM346,55h80v1h-80zM345,56h82v1h-82zM344,57h84v1h-84zM343,58h86v1h-86zM341,59h90v1h-90zM340,60h92v1h-92zM339,61h94v1h-94zM338,62h96v1h-96zM337,63h98v1h-98zM336,64h100v1h-100zM335,65h102v1h-102zM334,66h104v1h-104zM333,67h106v1h-106zM332,68h108v1h-108zM331,69h110v1h-110zM330,70h112v1h-112zM329,71h114v1h-114zM328,72h116v1h-116zM327,73h118v1h-118zM326,74h120v1h-120zM325,75h122v1h-122zM324,76h124v1h-124zM323,77h126v1h-126zM322,78h128v1h-128zM321,79h130v1h-130zM320,80h132v1h-132zM319,81h134v1h-134zM318,82h135v1h-135zM317,83h137v1h-137zM316,84h139v1h-139zM315,85h141v1h-141zM314,86h66v1h-66zM392,86h65v1h-65zM313,87h64v1h-64zM395,87h62v1h-62zM312,88h63v1h-63zM397,88h61v1h-61zM311,89h62v1h-62zM399,89h60v1h-60zM310,90h62v1h-62zM400,90h59v1h-59zM309,91h62v1h-62zM401,91h59v1h-59zM308,92h62v1h-62zM402,92h59v1h-59zM307,93h62v1h-62zM403,93h58v1h-58zM306,94h62v1h-62zM404,94h58v1h-58zM305,95h62v1h-62zM405,95h57v1h-57zM304,96h62v1h-62zM406,96h57v1h-57zM303,97h62v1h-62zM407,97h56v1h-56zM302,98h62v1h-62zM408,98h56v1h-56zM301,99h62v1h-62zM409,99h55v1h-55zM300,100h62v1h-62zM410,100h55v1h-55zM299,101h62v1h-62zM411,101h54v1h-54zM298,102h62v1h-62zM412,102h53v1h-53zM297,103h62v1h-62zM413,103h53v1h-53zM296,104h62v1h-62zM414,104h52v1h-52zM295,105h62v1h-62zM415,105h51v1h-51zM294,106h62v1h-62zM416,106h51v1h-51zM293,107h62v1h-62zM417,107h50v1h-50zM292,108h62v1h-62zM418,108h49v1h-49zM291,109h62v1h-62zM419,109h49v1h-49zM290,110h62v1h-62zM420,110h48v1h-48zM289,111h62v1h-62zM421,111h47v1h-47zM288,112h62v1h-62zM422,112h46v1h-46zM287,113h62v1h-62zM423,113h46v1h-46zM286,114h62v1h-62zM423,114h46v1h-46zM285,115h62v1h-62zM424,115h45v1h-45zM284,116h62v1h-62zM424,116h45v1h-45zM283,117h62v1h-62zM425,117h44v1h-44zM282,118h62v1h-62zM425,118h44v1h-44zM281,119h62v1h-62zM425,119h44v1h-44zM280,120h62v1h-62zM426,120h43v1h-43zM279,121h62v1h-62zM426,121h44v1h-44zM278,122h62v1h-62zM426,122h44v1h-44zM277,123h62v1h-62zM426,123h44v1h-44zM276,124h63v1h-63zM426,124h44v1h-44zM275,125h64v1h-64zM426,125h44v1h-44zM274,126h65v1h-65zM426,126h44v1h-44zM273,127h66v1h-66zM426,127h44v1h-44zM272,128h67v1h-67zM426,128h44v1h-44zM271,129h69v1h-69zM426,129h44v1h-44zM270,130h71v1h-71zM426,130h44v1h-44zM269,131h73v1h-73zM426,131h43v1h-43zM268,132h75v1h-75zM425,132h44v1h-44zM267,133h77v1h-77zM425,133h44v1h-44zM266,134h79v1h-79zM425,134h44v1h-44zM265,135h81v1h-81zM424,135h45v1h-45zM264,136h83v1h-83zM424,136h45v1h-45zM263,137h85v1h-85zM423,137h46v1h-46zM262,138h87v1h-87zM423,138h46v1h-46zM261,139h89v1h-89zM422,139h46v1h-46zM260,140h91v1h-91zM421,140h47v1h-47zM259,141h93v1h-93zM420,141h48v1h-48zM258,142h95v1h-95zM419,142h49v1h-49zM257,143h97v1h-97zM418,143h49v1h-49zM256,144h99v1h-99zM417,144h50v1h-50zM255,145h101v1h-101zM416,145h51v1h-51zM254,146h103v1h-103zM415,146h51v1h-51zM253,147h105v1h-105zM414,147h52v1h-52zM252,148h107v1h-107zM413,148h53v1h-53zM251,149h109v1h-109zM412,149h53v1h-53zM250,150h111v1h-111zM411,150h54v1h-54zM249,151h113v1h-113zM410,151h55v1h-55zM248,152h115v1h-115zM409,152h55v1h-55zM247,153h117v1h-117zM408,153h56v1h-56zM246,154h119v1h-119zM407,154h56v1h-56zM245,155h121v1h-121zM406,155h57v1h-57zM244,156h123v1h-123zM405,156h57v1h-57zM243,157h125v1h-125zM404,157h58v1h-58zM242,158h127v1h-127zM403,158h58v1h-58zM241,159h62v1h-62zM308,159h62v1h-62zM402,159h59v1h-59zM240,160h62v1h-62zM309,160h62v1h-62zM401,160h59v1h-59zM239,161h62v1h-62zM310,161h62v1h-62zM400,161h59v1h-59zM238,162h62v1h-62zM311,162h62v1h-62zM399,162h60v1h-60zM237,163h62v1h-62zM312,163h62v1h-62zM398,163h60v1h-60zM236,164h62v1h-62zM313,164h62v1h-62zM397,164h60v1h-60zM235,165h62v1h-62zM314,165h62v1h-62zM396,165h61v1h-61zM234,166h62v1h-62zM315,166h62v1h-62zM395,166h61v1h-61zM233,167h62v1h-62zM316,167h62v1h-62zM394,167h61v1h-61zM232,168h62v1h-62zM317,168h62v1h-62zM393,168h61v1h-61zM231,169h62v1h-62zM318,169h62v1h-62zM392,169h61v1h-61zM230,170h62v1h-62zM319,170h62v1h-62zM391,170h62v1h-62zM229,171h62v1h-62zM320,171h62v1h-62zM390,171h62v1h-62zM228,172h62v1h-62zM321,172h62v1h-62zM389,172h62v1h-62zM227,173h62v1h-62zM322,173h128v1h-128zM226,174h62v1h-62zM323,174h126v1h-126zM225,175h62v1h-62zM324,175h124v1h-124zM224,176h62v1h-62zM325,176h122v1h-122zM223,177h62v1h-62zM326,177h120v1h-120zM222,178h62v1h-62zM327,178h118v1h-118zM221,179h62v1h-62zM328,179h116v1h-116zM220,180h62v1h-62zM329,180h114v1h-114zM219,181h62v1h-62zM330,181h112v1h-112zM218,182h62v1h-62zM331,182h110v1h-110zM217,183h62v1h-62zM332,183h108v1h-108zM216,184h62v1h-62zM333,184h106v1h-106zM215,185h62v1h-62zM334,185h104v1h-104zM214,186h62v1h-62zM335,186h102v1h-102zM213,187h62v1h-62zM336,187h100v1h-100zM212,188h62v1h-62zM337,188h98v1h-98zM211,189h62v1h-62zM338,189h96v1h-96zM210,190h62v1h-62zM339,190h94v1h-94zM209,191h62v1h-62zM340,191h92v1h-92zM208,192h62v1h-62zM341,192h90v1h-90zM207,193h62v1h-62zM342,193h88v1h-88zM206,194h62v1h-62zM343,194h86v1h-86zM205,195h62v1h-62zM344,195h84v1h-84zM204,196h62v1h-62zM345,196h82v1h-82zM203,197h62v1h-62zM346,197h80v1h-80zM202,198h62v1h-62zM347,198h78v1h-78zM201,199h62v1h-62zM348,199h76v1h-76zM200,200h62v1h-62zM349,200h74v1h-74zM199,201h62v1h-62zM350,201h72v1h-72zM198,202h62v1h-62zM351,202h70v1h-70zM197,203h62v1h-62zM352,203h68v1h-68zM196,204h62v1h-62zM353,204h66v1h-66zM195,205h62v1h-62zM353,205h65v1h-65zM194,206h62v1h-62zM353,206h64v1h-64zM193,207h62v1h-62zM353,207h63v1h-63zM192,208h62v1h-62zM353,208h62v1h-62zM191,209h62v1h-62zM352,209h62v1h-62zM190,210h62v1h-62zM351,210h62v1h-62zM189,211h62v1h-62zM350,211h62v1h-62zM188,212h62v1h-62zM349,212h62v1h-62zM187,213h62v1h-62zM348,213h62v1h-62zM186,214h62v1h-62zM347,214h62v1h-62zM185,215h62v1h-62zM346,215h62v1h-62zM184,216h62v1h-62zM345,216h62v1h-62zM183,217h62v1h-62zM344,217h62v1h-62zM182,218h62v1h-62zM343,218h62v1h-62zM181,219h62v1h-62zM342,219h62v1h-62zM180,220h62v1h-62zM341,220h62v1h-62zM179,221h62v1h-62zM340,221h62v1h-62zM178,222h62v1h-62zM339,222h62v1h-62zM177,223h62v1h-62zM338,223h62v1h-62zM176,224h62v1h-62zM337,224h62v1h-62zM175,225h62v1h-62zM336,225h62v1h-62zM174,226h62v1h-62zM335,226h62v1h-62zM173,227h62v1h-62zM334,227h62v1h-62zM172,228h62v1h-62zM333,228h62v1h-62zM171,229h62v1h-62zM332,229h62v1h-62zM170,230h62v1h-62zM331,230h62v1h-62zM169,231h62v1h-62zM330,231h62v1h-62zM168,232h62v1h-62zM329,232h62v1h-62zM167,233h62v1h-62zM328,233h62v1h-62zM166,234h62v1h-62zM327,234h62v1h-62zM165,235h62v1h-62zM326,235h62v1h-62zM164,236h62v1h-62zM325,236h62v1h-62zM163,237h62v1h-62zM324,237h62v1h-62zM162,238h62v1h-62zM323,238h62v1h-62zM161,239h62v1h-62zM322,239h62v1h-62zM160,240h62v1h-62zM321,240h62v1h-62zM159,241h62v1h-62zM320,241h62v1h-62zM158,242h62v1h-62zM319,242h62v1h-62zM157,243h62v1h-62zM318,243h62v1h-62zM156,244h62v1h-62zM317,244h62v1h-62zM155,245h62v1h-62zM316,245h62v1h-62zM154,246h62v1h-62zM315,246h62v1h-62zM153,247h62v1h-62zM314,247h62v1h-62zM152,248h62v1h-62zM313,248h62v1h-62zM151,249h62v1h-62zM312,249h62v1h-62zM150,250h62v1h-62zM311,250h62v1h-62zM149,251h62v1h-62zM310,251h62v1h-62zM148,252h62v1h-62zM309,252h62v1h-62zM147,253h62v1h-62zM308,253h62v1h-62zM146,254h62v1h-62zM307,254h62v1h-62zM145,255h62v1h-62zM306,255h62v1h-62zM144,256h62v1h-62zM305,256h62v1h-62zM143,257h62v1h-62zM304,257h62v1h-62zM142,258h62v1h-62zM303,258h62v1h-62zM141,259h62v1h-62zM302,259h62v1h-62zM140,260h62v1h-62zM301,260h62v1h-62zM139,261h62v1h-62zM300,261h62v1h-62zM138,262h62v1h-62zM299,262h62v1h-62zM137,263h62v1h-62zM298,263h62v1h-62zM136,264h62v1h-62zM297,264h62v1h-62zM135,265h62v1h-62zM296,265h62v1h-62zM134,266h62v1h-62zM295,266h62v1h-62zM133,267h62v1h-62zM294,267h62v1h-62zM132,268h62v1h-62zM293,268h62v1h-62zM131,269h62v1h-62zM292,269h62v1h-62zM130,270h62v1h-62zM291,270h62v1h-62zM129,271h62v1h-62zM290,271h62v1h-62zM128,272h62v1h-62zM289,272h62v1h-62zM127,273h62v1h-62zM288,273h62v1h-62zM126,274h62v1h-62zM287,274h62v1h-62zM125,275h62v1h-62zM286,275h62v1h-62zM124,276h62v1h-62zM285,276h62v1h-62zM123,277h62v1h-62zM284,277h62v1h-62zM122,278h62v1h-62zM283,278h62v1h-62zM121,279h62v1h-62zM282,279h62v1h-62zM120,280h62v1h-62zM281,280h62v1h-62zM119,281h62v1h-62zM280,281h62v1h-62zM118,282h62v1h-62zM279,282h62v1h-62zM117,283h62v1h-62zM278,283h62v1h-62zM116,284h62v1h-62zM277,284h62v1h-62zM115,285h62v1h-62zM276,285h62v1h-62zM114,286h62v1h-62zM275,286h62v1h-62zM113,287h62v1h-62zM274,287h62v1h-62zM112,288h62v1h-62zM273,288h62v1h-62zM111,289h62v1h-62zM272,289h62v1h-62zM110,290h62v1h-62zM271,290h62v1h-62zM109,291h62v1h-62zM270,291h62v1h-62zM108,292h62v1h-62zM269,292h62v1h-62zM107,293h62v1h-62zM268,293h62v1h-62zM106,294h62v1h-62zM267,294h62v1h-62zM105,295h62v1h-62zM266,295h62v1h-62zM104,296h62v1h-62zM265,296h62v1h-62zM103,297h62v1h-62zM264,297h62v1h-62zM102,298h62v1h-62zM263,298h62v1h-62zM101,299h62v1h-62zM262,299h62v1h-62zM100,300h62v1h-62zM261,300h62v1h-62zM99,301h62v1h-62zM260,301h62v1h-62zM98,302h62v1h-62zM259,302h62v1h-62zM97,303h62v1h-62zM258,303h62v1h-62zM96,304h62v1h-62zM257,304h62v1h-62zM95,305h62v1h-62zM256,305h62v1h-62zM94,306h62v1h-62zM255,306h62v1h-62zM93,307h62v1h-62zM254,307h62v1h-62zM92,308h62v1h-62zM253,308h62v1h-62zM91,309h62v1h-62zM252,309h62v1h-62zM90,310h62v1h-62zM251,310h62v1h-62zM89,311h62v1h-62zM250,311h62v1h-62zM88,312h62v1h-62zM249,312h62v1h-62zM87,313h62v1h-62zM248,313h62v1h-62zM86,314h62v1h-62zM247,314h62v1h-62zM85,315h62v1h-62zM246,315h62v1h-62zM84,316h62v1h-62zM245,316h62v1h-62zM83,317h62v1h-62zM244,317h62v1h-62zM82,318h62v1h-62zM243,318h62v1h-62zM81,319h62v1h-62zM242,319h62v1h-62zM80,320h62v1h-62zM241,320h62v1h-62zM79,321h62v1h-62zM240,321h62v1h-62zM78,322h62v1h-62zM239,322h62v1h-62zM77,323h62v1h-62zM238,323h62v1h-62zM76,324h62v1h-62zM237,324h62v1h-62zM75,325h62v1h-62zM236,325h62v1h-62zM74,326h62v1h-62zM235,326h62v1h-62zM73,327h62v1h-62zM234,327h62v1h-62zM72,328h62v1h-62zM233,328h62v1h-62zM71,329h62v1h-62zM232,329h62v1h-62zM70,330h62v1h-62zM231,330h62v1h-62zM69,331h62v1h-62zM230,331h62v1h-62zM68,332h62v1h-62zM229,332h62v1h-62zM68,333h61v1h-61zM228,333h62v1h-62zM67,334h61v1h-61zM227,334h62v1h-62zM66,335h61v1h-61zM226,335h62v1h-62zM65,336h61v1h-61zM225,336h62v1h-62zM65,337h60v1h-60zM224,337h62v1h-62zM64,338h60v1h-60zM223,338h62v1h-62zM64,339h59v1h-59zM222,339h62v1h-62zM64,340h58v1h-58zM221,340h62v1h-62zM63,341h58v1h-58zM220,341h62v1h-62zM63,342h57v1h-57zM219,342h62v1h-62zM63,343h56v1h-56zM218,343h62v1h-62zM63,344h55v1h-55zM217,344h62v1h-62zM62,345h55v1h-55zM216,345h62v1h-62zM62,346h54v1h-54zM215,346h62v1h-62zM62,347h53v1h-53zM214,347h62v1h-62zM62,348h52v1h-52zM213,348h62v1h-62zM62,349h51v1h-51zM212,349h62v1h-62zM61,350h51v1h-51zM211,350h62v1h-62zM61,351h50v1h-50zM210,351h62v1h-62zM61,352h49v1h-49zM209,352h62v1h-62zM61,353h48v1h-48zM208,353h62v1h-62zM61,354h47v1h-47zM207,354h62v1h-62zM60,355h47v1h-47zM206,355h62v1h-62zM60,356h46v1h-46zM205,356h62v1h-62zM60,357h45v1h-45zM204,357h62v1h-62zM60,358h44v1h-44zM203,358h62v1h-62zM60,359h44v1h-44zM202,359h62v1h-62zM59,360h45v1h-45zM201,360h62v1h-62zM59,361h44v1h-44zM200,361h62v1h-62zM59,362h44v1h-44zM199,362h62v1h-62zM59,363h44v1h-44zM198,363h62v1h-62zM59,364h44v1h-44zM197,364h62v1h-62zM58,365h45v1h-45zM196,365h62v1h-62zM58,366h44v1h-44zM195,366h62v1h-62zM58,367h44v1h-44zM194,367h62v1h-62zM58,368h44v1h-44zM193,368h62v1h-62zM58,369h44v1h-44zM192,369h62v1h-62zM57,370h45v1h-45zM191,370h62v1h-62zM57,371h44v1h-44zM190,371h62v1h-62zM57,372h44v1h-44zM189,372h62v1h-62zM57,373h44v1h-44zM188,373h62v1h-62zM57,374h44v1h-44zM187,374h62v1h-62zM56,375h45v1h-45zM186,375h62v1h-62zM56,376h44v1h-44zM185,376h62v1h-62zM56,377h44v1h-44zM184,377h62v1h-62zM56,378h44v1h-44zM183,378h62v1h-62zM56,379h44v1h-44zM182,379h62v1h-62zM55,380h45v1h-45zM181,380h62v1h-62zM55,381h44v1h-44zM180,381h62v1h-62zM55,382h44v1h-44zM179,382h62v1h-62zM55,383h44v1h-44zM178,383h62v1h-62zM55,384h44v1h-44zM177,384h62v1h-62zM54,385h45v1h-45zM176,385h62v1h-62zM54,386h44v1h-44zM175,386h62v1h-62zM54,387h44v1h-44zM174,387h62v1h-62zM54,388h44v1h-44zM173,388h62v1h-62zM54,389h44v1h-44zM172,389h62v1h-62zM53,390h45v1h-45zM171,390h62v1h-62zM53,391h44v1h-44zM170,391h62v1h-62zM53,392h44v1h-44zM169,392h62v1h-62zM53,393h44v1h-44zM168,393h62v1h-62zM53,394h44v1h-44zM167,394h62v1h-62zM52,395h45v1h-45zM166,395h62v1h-62zM52,396h44v1h-44zM165,396h62v1h-62zM52,397h44v1h-44zM164,397h62v1h-62zM52,398h44v1h-44zM163,398h62v1h-62zM52,399h44v1h-44zM162,399h62v1h-62zM51,400h45v1h-45zM161,400h62v1h-62zM51,401h44v1h-44zM160,401h62v1h-62zM51,402h44v1h-44zM159,402h62v1h-62zM51,403h44v1h-44zM158,403h62v1h-62zM51,404h44v1h-44zM157,404h62v1h-62zM50,405h45v1h-45zM156,405h62v1h-62zM50,406h44v1h-44zM155,406h62v1h-62zM50,407h44v1h-44zM154,407h62v1h-62zM50,408h44v1h-44zM151,408h64v1h-64zM50,409h44v1h-44zM146,409h68v1h-68zM49,410h45v1h-45zM141,410h72v1h-72zM49,411h44v1h-44zM136,411h76v1h-76zM49,412h44v1h-44zM131,412h80v1h-80zM49,413h44v1h-44zM126,413h84v1h-84zM49,414h44v1h-44zM121,414h88v1h-88zM48,415h45v1h-45zM116,415h92v1h-92zM48,416h45v1h-45zM111,416h96v1h-96zM48,417h45v1h-45zM106,417h100v1h-100zM48,418h45v1h-45zM101,418h104v1h-104zM48,419h156v1h-156zM47,420h156v1h-156zM47,421h155v1h-155zM47,422h155v1h-155zM47,423h155v1h-155zM47,424h155v1h-155zM46,425h156v1h-156zM46,426h298v1h-298zM46,427h302v1h-302zM46,428h305v1h-305zM46,429h307v1h-307zM45,430h309v1h-309zM45,431h310v1h-310zM45,432h312v1h-312zM45,433h312v1h-312zM45,434h313v1h-313zM44,435h315v1h-315zM44,436h316v1h-316zM44,437h316v1h-316zM44,438h317v1h-317zM44,439h317v1h-317zM43,440h319v1h-319zM43,441h319v1h-319zM43,442h319v1h-319zM43,443h320v1h-320zM43,444h320v1h-320zM42,445h321v1h-321zM42,446h321v1h-321zM42,447h321v1h-321zM42,448h321v1h-321zM42,449h321v1h-321zM42,450h321v1h-321zM43,451h320v1h-320zM43,452h320v1h-320zM43,453h319v1h-319zM43,454h319v1h-319zM44,455h318v1h-318zM44,456h317v1h-317zM45,457h316v1h-316zM45,458h315v1h-315zM46,459h314v1h-314zM46,460h313v1h-313zM47,461h311v1h-311zM48,462h309v1h-309zM49,463h307v1h-307zM50,464h305v1h-305zM51,465h303v1h-303zM53,466h300v1h-300zM55,467h296v1h-296zM57,468h291v1h-291zM61,469h283v1h-283z"/></svg>