<?xml version="1.0" encoding="UTF-8"?>
<svg xmlns="http://www.w3.org/2000/svg" viewBox="0 0 512 512" width="512" height="512"><path fill="#000" d="M194,16h28v1h-28zM290,16h28v1h-28zM188,17h40v1h-40zM284,17h40v1h-40zM183,18h50v1h-50zM279,18h50v1h-50zM179,19h58v1h-58zM275,19h58v1h-58zM175,20h66v1h-66zM271,20h66v1h-66zM172,21h72v1h-72zM268,21h72v1h-72zM169,22h78v1h-78zM265,22h78v1h-78zM167,23h82v1h-82zM263,23h82v1h-82zM164,24h88v1h-88zM260,24h88v1h-88zM162,25h188v1h-188zM160,26h192v1h-192zM158,27h196v1h-196zM156,28h200v1h-200zM154,29h204v1h-204zM152,30h208v1h-208zM150,31h212v1h-212zM149,32h214v1h-214zM147,33h218v1h-218zM146,34h220v1h-220zM144,35h224v1h-224zM143,36h226v1h-226zM141,37h230v1h-230zM140,38h232v1h-232zM139,39h234v1h-234zM138,40h237v1h-237zM136,41h240v1h-240zM135,42h242v1h-242zM134,43h244v1h-244zM133,44h246v1h-246zM132,45h248v1h-248zM131,46h250v1h-250zM130,47h252v1h-252zM129,48h75v1h-75zM212,48h88v1h-88zM308,48h75v1h-75zM128,49h67v1h-67zM221,49h71v1h-71zM317,49h67v1h-67zM127,50h63v1h-63zM226,50h66v1h-66zM322,50h63v1h-63zM126,51h60v1h-60zM230,51h62v1h-62zM326,51h60v1h-60zM125,52h58v1h-58zM233,52h59v1h-59zM329,52h58v1h-58zM124,53h56v1h-56zM236,53h56v1h-56zM332,53h56v1h-56zM123,54h54v1h-54zM239,54h54v1h-54zM335,54h54v1h-54zM122,55h53v1h-53zM241,55h53v1h-53zM337,55h53v1h-53zM121,56h52v1h-52zM243,56h52v1h-52zM339,56h52v1h-52zM121,57h50v1h-50zM245,57h50v1h-50zM341,57h50v1h-50zM120,58h49v1h-49zM247,58h49v1h-49zM343,58h49v1h-49zM119,59h48v1h-48zM249,59h48v1h-48zM345,59h48v1h-48zM118,60h48v1h-48zM250,60h48v1h-48zM346,60h48v1h-48zM117,61h47v1h-47zM252,61h47v1h-47zM348,61h47v1h-47zM117,62h46v1h-46zM253,62h46v1h-46zM349,62h46v1h-46zM116,63h45v1h-45zM255,63h45v1h-45zM351,63h45v1h-45zM115,64h45v1h-45zM256,64h45v1h-45zM352,64h45v1h-45zM115,65h44v1h-44zM257,65h44v1h-44zM353,65h44v1h-44zM114,66h43v1h-43zM259,66h43v1h-43zM355,66h43v1h-43zM113,67h43v1h-43zM260,67h43v1h-43zM356,67h43v1h-43zM113,68h42v1h-42zM261,68h42v1h-42zM357,68h42v1h-42zM112,69h42v1h-42zM262,69h42v1h-42zM358,69h42v1h-42zM111,70h42v1h-42zM263,70h42v1h-42zM359,70h42v1h-42zM111,71h41v1h-41zM264,71h41v1h-41zM360,71h41v1h-41zM110,72h41v1h-41zM265,72h41v1h-41zM361,72h41v1h-41zM110,73h40v1h-40zM266,73h40v1h-40zM362,73h40v1h-40zM109,74h40v1h-40zM267,74h40v1h-40zM363,74h40v1h-40zM109,75h39v1h-39zM268,75h39v1h-39zM364,75h39v1h-39zM108,76h39v1h-39zM269,76h39v1h-39zM365,76h39v1h-39zM108,77h38v1h-38zM270,77h38v1h-38zM366,77h38v1h-38zM107,78h39v1h-39zM270,78h39v1h-39zM366,78h39v1h-39zM107,79h38v1h-38zM271,79h38v1h-38zM367,79h38v1h-38zM106,80h38v1h-38zM272,80h38v1h-38zM368,80h38v1h-38zM106,81h37v1h-37zM273,81h37v1h-37zM369,81h37v1h-37zM105,82h38v1h-38zM273,82h38v1h-38zM369,82h38v1h-38zM105,83h37v1h-37zM274,83h37v1h-37zM370,83h37v1h-37zM104,84h37v1h-37zM275,84h37v1h-37zM371,84h37v1h-37zM104,85h37v1h-37zM275,85h37v1h-37zM371,85h37v1h-37zM104,86h36v1h-36zM276,86h36v1h-36zM372,86h36v1h-36zM103,87h36v1h-36zM277,87h36v1h-36zM373,87h36v1h-36zM103,88h36v1h-36zM277,88h36v1h-36zM373,88h36v1h-36zM102,89h36v1h-36zM278,89h36v1h-36zM374,89h36v1h-36zM102,90h36v1h-36zM278,90h36v1h-36zM374,90h36v1h-36zM102,91h35v1h-35zM279,91h35v1h-35zM375,91h35v1h-35zM101,92h36v1h-36zM279,92h36v1h-36zM375,92h36v1h-36zM101,93h35v1h-35zM280,93h35v1h-35zM376,93h35v1h-35zM101,94h35v1h-35zM280,94h35v1h-35zM376,94h35v1h-35zM100,95h35v1h-35zM281,95h35v1h-35zM377,95h35v1h-35zM100,96h35v1h-35zM281,96h35v1h-35zM377,96h35v1h-35zM100,97h34v1h-34zM282,97h34v1h-34zM378,97h34v1h-34zM100,98h34v1h-34zM282,98h34v1h-34zM378,98h34v1h-34zM99,99h35v1h-35zM282,99h35v1h-35zM378,99h35v1h-35zM99,100h34v1h-34zM283,100h34v1h-34zM379,100h34v1h-34zM99,101h34v1h-34zM283,101h34v1h-34zM379,101h34v1h-34zM99,102h34v1h-34zM283,102h34v1h-34zM379,102h34v1h-34zM98,103h34v1h-34zM284,103h34v1h-34zM380,103h34v1h-34zM98,104h34v1h-34zM284,104h34v1h-34zM380,104h34v1h-34zM98,105h34v1h-34zM284,105h34v1h-34zM380,105h34v1h-34zM98,106h33v1h-33zM285,106h33v1h-33zM381,106h33v1h-33zM98,107h33v1h-33zM285,107h33v1h-33zM381,107h33v1h-33zM97,108h34v1h-34zM285,108h34v1h-34zM381,108h34v1h-34zM97,109h34v1h-34zM285,109h34v1h-34zM381,109h34v1h-34zM97,110h33v1h-33zM286,110h33v1h-33zM382,110h33v1h-33zM97,111h33v1h-33zM286,111h33v1h-33zM382,111h33v1h-33zM97,112h33v1h-33zM286,112h33v1h-33zM382,112h33v1h-33zM97,113h33v1h-33zM286,113h33v1h-33zM382,113h33v1h-33zM96,114h34v1h-34zM286,114h34v1h-34zM382,114h34v1h-34zM96,115h33v1h-33zM287,115h33v1h-33zM383,115h33v1h-33zM96,116h33v1h-33zM287,116h33v1h-33zM383,116h33v1h-33zM96,117h33v1h-33zM287,117h33v1h-33zM383,117h33v1h-33zM96,118h33v1h-33zM287,118h33v1h-33zM383,118h33v1h-33zM96,119h33v1h-33zM287,119h33v1h-33zM383,119h33v1h-33zM96,120h33v1h-33zM287,120h33v1h-33zM383,120h33v1h-33zM96,121h33v1h-33zM287,121h33v1h-33zM383,121h33v1h-33zM96,122h33v1h-33zM287,122h33v1h-33zM383,122h33v1h-33zM96,123h33v1h-33zM287,123h33v1h-33zM383,123h33v1h-33zM96,124h32v1h-32zM288,124h32v1h-32zM384,124h32v1h-32zM96,125h32v1h-32zM288,125h32v1h-32zM384,125h32v1h-32zM96,126h32v1h-32zM288,126h32v1h-32zM384,126h32v1h-32zM96,127h32v1h-32zM288,127h32v1h-32zM384,127h32v1h-32zM96,128h32v1h-32zM288,128h32v1h-32zM384,128h32v1h-32zM96,129h32v1h-32zM288,129h32v1h-32zM384,129h32v1h-32zM96,130h32v1h-32zM288,130h32v1h-32zM384,130h32v1h-32zM96,131h32v1h-32zM288,131h32v1h-32zM384,131h32v1h-32zM96,132h33v1h-33zM287,132h33v1h-33zM383,132h33v1h-33zM96,133h33v1h-33zM287,133h33v1h-33zM383,133h33v1h-33zM96,134h33v1h-33zM287,134h33v1h-33zM383,134h33v1h-33zM96,135h33v1h-33zM287,135h33v1h-33zM383,135h33v1h-33zM96,136h33v1h-33zM287,136h33v1h-33zM383,136h33v1h-33zM96,137h33v1h-33zM287,137h33v1h-33zM383,137h33v1h-33zM96,138h33v1h-33zM287,138h33v1h-33zM383,138h33v1h-33zM96,139h33v1h-33zM287,139h33v1h-33zM383,139h33v1h-33zM96,140h33v1h-33zM287,140h33v1h-33zM383,140h33v1h-33zM96,141h34v1h-34zM286,141h34v1h-34zM382,141h34v1h-34zM97,142h33v1h-33zM286,142h33v1h-33zM382,142h33v1h-33zM97,143h33v1h-33zM286,143h33v1h-33zM382,143h33v1h-33zM97,144h33v1h-33zM286,144h33v1h-33zM382,144h33v1h-33zM97,145h33v1h-33zM286,145h33v1h-33zM382,145h33v1h-33zM97,146h34v1h-34zM285,146h34v1h-34zM381,146h34v1h-34zM97,147h34v1h-34zM285,147h34v1h-34zM381,147h34v1h-34zM98,148h33v1h-33zM285,148h33v1h-33zM381,148h33v1h-33zM98,149h33v1h-33zM285,149h33v1h-33zM381,149h33v1h-33zM98,150h34v1h-34zM284,150h34v1h-34zM380,150h34v1h-34zM98,151h34v1h-34zM284,151h34v1h-34zM380,151h34v1h-34zM98,152h34v1h-34zM284,152h34v1h-34zM380,152h34v1h-34zM99,153h34v1h-34zM283,153h34v1h-34zM379,153h34v1h-34zM99,154h34v1h-34zM283,154h34v1h-34zM379,154h34v1h-34zM99,155h34v1h-34zM283,155h34v1h-34zM379,155h34v1h-34zM99,156h35v1h-35zM282,156h35v1h-35zM378,156h35v1h-35zM100,157h34v1h-34zM282,157h34v1h-34zM378,157h34v1h-34zM100,158h34v1h-34zM282,158h34v1h-34zM378,158h34v1h-34zM100,159h35v1h-35zM281,159h35v1h-35zM377,159h35v1h-35zM100,160h35v1h-35zM281,160h35v1h-35zM377,160h35v1h-35zM101,161h35v1h-35zM280,161h35v1h-35zM376,161h35v1h-35zM101,162h35v1h-35zM280,162h35v1h-35zM376,162h35v1h-35zM101,163h36v1h-36zM279,163h36v1h-36zM375,163h36v1h-36zM102,164h35v1h-35zM279,164h35v1h-35zM375,164h35v1h-35zM102,165h36v1h-36zM278,165h36v1h-36zM374,165h36v1h-36zM102,166h36v1h-36zM278,166h36v1h-36zM374,166h36v1h-36zM103,167h36v1h-36zM277,167h36v1h-36zM373,167h36v1h-36zM103,168h36v1h-36zM277,168h36v1h-36zM373,168h36v1h-36zM104,169h36v1h-36zM276,169h36v1h-36zM372,169h36v1h-36zM104,170h37v1h-37zM275,170h37v1h-37zM371,170h37v1h-37zM104,171h37v1h-37zM275,171h37v1h-37zM371,171h37v1h-37zM105,172h37v1h-37zM274,172h37v1h-37zM370,172h37v1h-37zM105,173h38v1h-38zM273,173h38v1h-38zM369,173h38v1h-38zM106,174h37v1h-37zM273,174h37v1h-37zM369,174h37v1h-37zM106,175h38v1h-38zM272,175h38v1h-38zM368,175h38v1h-38zM107,176h38v1h-38zM271,176h38v1h-38zM367,176h38v1h-38zM107,177h39v1h-39zM270,177h39v1h-39zM366,177h39v1h-39zM108,178h38v1h-38zM270,178h38v1h-38zM366,178h38v1h-38zM108,179h39v1h-39zM269,179h39v1h-39zM365,179h39v1h-39zM109,180h39v1h-39zM268,180h39v1h-39zM364,180h39v1h-39zM109,181h40v1h-40zM267,181h40v1h-40zM363,181h40v1h-40zM110,182h40v1h-40zM266,182h40v1h-40zM362,182h40v1h-40zM110,183h41v1h-41zM265,183h41v1h-41zM361,183h41v1h-41zM111,184h41v1h-41zM264,184h41v1h-41zM360,184h41v1h-41zM111,185h42v1h-42zM263,185h42v1h-42zM359,185h42v1h-42zM112,186h42v1h-42zM262,186h42v1h-42zM358,186h42v1h-42zM113,187h42v1h-42zM261,187h42v1h-42zM357,187h42v1h-42zM113,188h43v1h-43zM260,188h43v1h-43zM356,188h43v1h-43zM114,189h43v1h-43zM259,189h43v1h-43zM355,189h43v1h-43zM115,190h44v1h-44zM257,190h44v1h-44zM353,190h44v1h-44zM115,191h45v1h-45zM256,191h45v1h-45zM352,191h45v1h-45zM116,192h45v1h-45zM255,192h45v1h-45zM351,192h45v1h-45zM117,193h46v1h-46zM253,193h46v1h-46zM349,193h46v1h-46zM117,194h47v1h-47zM252,194h47v1h-47zM348,194h47v1h-47zM118,195h48v1h-48zM250,195h48v1h-48zM346,195h48v1h-48zM119,196h48v1h-48zM249,196h48v1h-48zM345,196h48v1h-48zM120,197h49v1h-49zM247,197h49v1h-49zM343,197h49v1h-49zM121,198h50v1h-50zM245,198h50v1h-50zM341,198h50v1h-50zM121,199h52v1h-52zM243,199h52v1h-52zM339,199h52v1h-52zM122,200h53v1h-53zM241,200h53v1h-53zM337,200h53v1h-53zM123,201h54v1h-54zM239,201h54v1h-54zM335,201h54v1h-54zM124,202h56v1h-56zM236,202h56v1h-56zM332,202h56v1h-56zM125,203h58v1h-58zM233,203h59v1h-59zM329,203h58v1h-58zM126,204h60v1h-60zM230,204h62v1h-62zM326,204h60v1h-60zM127,205h63v1h-63zM226,205h66v1h-66zM322,205h63v1h-63zM128,206h67v1h-67zM221,206h71v1h-71zM317,206h67v1h-67zM129,207h75v1h-75zM212,207h88v1h-88zM308,207h75v1h-75zM130,208h252v1h-252zM131,209h250v1h-250zM132,210h248v1h-248zM133,211h246v1h-246zM134,212h244v1h-244zM135,213h242v1h-242zM136,214h240v1h-240zM138,215h236v1h-236zM139,216h234v1h-234zM140,217h232v1h-232zM141,218h230v1h-230zM143,219h226v1h-226zM144,220h224v1h-224zM146,221h220v1h-220zM147,222h218v1h-218zM149,223h214v1h-214zM151,224h211v1h-211zM152,225h208v1h-208zM154,226h204v1h-204zM156,227h200v1h-200zM158,228h196v1h-196zM160,229h192v1h-192zM162,230h188v1h-188zM164,231h88v1h-88zM260,231h88v1h-88zM167,232h82v1h-82zM263,232h82v1h-82zM169,233h78v1h-78zM265,233h78v1h-78zM172,234h72v1h-72zM268,234h72v1h-72zM175,235h66v1h-66zM271,235h66v1h-66zM179,236h58v1h-58zM275,236h58v1h-58zM183,237h50v1h-50zM279,237h50v1h-50zM188,238h40v1h-40zM284,238h40v1h-40zM194,239h28v1h-28zM290,239h28v1h-28zM141,272h230v1h-230zM133,273h246v1h-246zM128,274h256v1h-256zM124,275h265v1h-265zM119,276h273v1h-273zM116,277h280v1h-280zM113,278h286v1h-286zM110,279h292v1h-292zM107,280h298v1h-298zM105,281h303v1h-303zM102,282h308v1h-308zM100,283h312v1h-312zM97,284h318v1h-318zM95,285h322v1h-322zM93,286h326v1h-326zM91,287h330v1h-330zM89,288h334v1h-334zM88,289h336v1h-336zM86,290h340v1h-340zM84,291h344v1h-344zM82,292h347v1h-347zM81,293h350v1h-350zM79,294h354v1h-354zM78,295h356v1h-356zM76,296h360v1h-360zM75,297h362v1h-362zM74,298h364v1h-364zM72,299h368v1h-368zM71,300h370v1h-370zM70,301h372v1h-372zM68,302h376v1h-376zM67,303h378v1h-378zM66,304h86v1h-86zM264,304h91v1h-91zM360,304h86v1h-86zM65,305h76v1h-76zM275,305h80v1h-80zM371,305h76v1h-76zM64,306h71v1h-71zM281,306h74v1h-74zM377,306h71v1h-71zM62,307h68v1h-68zM286,307h69v1h-69zM382,307h68v1h-68zM61,308h66v1h-66zM289,308h66v1h-66zM385,308h66v1h-66zM60,309h63v1h-63zM293,309h63v1h-63zM389,309h63v1h-63zM59,310h61v1h-61zM296,310h61v1h-61zM392,310h61v1h-61zM58,311h60v1h-60zM298,311h60v1h-60zM394,311h60v1h-60zM57,312h58v1h-58zM301,312h58v1h-58zM397,312h58v1h-58zM56,313h57v1h-57zM303,313h57v1h-57zM399,313h57v1h-57zM55,314h56v1h-56zM305,314h56v1h-56zM401,314h56v1h-56zM54,315h54v1h-54zM308,315h54v1h-54zM404,315h54v1h-54zM53,316h54v1h-54zM309,316h54v1h-54zM405,316h54v1h-54zM52,317h53v1h-53zM311,317h53v1h-53zM407,317h53v1h-53zM51,318h52v1h-52zM313,318h52v1h-52zM409,318h52v1h-52zM51,319h50v1h-50zM315,319h50v1h-50zM411,319h50v1h-50zM50,320h49v1h-49zM317,320h49v1h-49zM413,320h49v1h-49zM49,321h49v1h-49zM318,321h49v1h-49zM414,321h49v1h-49zM48,322h48v1h-48zM320,322h48v1h-48zM416,322h48v1h-48zM47,323h48v1h-48zM321,323h48v1h-48zM417,323h48v1h-48zM46,324h48v1h-48zM322,324h48v1h-48zM418,324h48v1h-48zM46,325h46v1h-46zM324,325h46v1h-46zM420,325h46v1h-46zM45,326h46v1h-46zM325,326h46v1h-46zM421,326h46v1h-46zM44,327h46v1h-46zM327,327h45v1h-45zM423,327h45v1h-45zM43,328h45v1h-45zM328,328h45v1h-45zM424,328h45v1h-45zM43,329h44v1h-44zM329,329h44v1h-44zM425,329h44v1h-44zM42,330h44v1h-44zM330,330h44v1h-44zM426,330h44v1h-44zM41,331h44v1h-44zM331,331h44v1h-44zM427,331h44v1h-44zM40,332h44v1h-44zM332,332h44v1h-44zM428,332h44v1h-44zM40,333h43v1h-43zM333,333h43v1h-43zM429,333h43v1h-43zM39,334h42v1h-42zM335,334h42v1h-42zM431,334h42v1h-42zM38,335h42v1h-42zM336,335h42v1h-42zM432,335h42v1h-42zM38,336h41v1h-41zM337,336h41v1h-41zM433,336h41v1h-41zM37,337h42v1h-42zM338,337h41v1h-41zM434,337h41v1h-41zM36,338h42v1h-42zM338,338h41v1h-41zM434,338h41v1h-41zM36,339h41v1h-41zM339,339h41v1h-41zM435,339h41v1h-41zM35,340h41v1h-41zM340,340h41v1h-41zM436,340h41v1h-41zM35,341h40v1h-40zM341,341h40v1h-40zM437,341h40v1h-40zM34,342h40v1h-40zM342,342h40v1h-40zM438,342h40v1h-40zM34,343h39v1h-39zM343,343h39v1h-39zM439,343h39v1h-39zM33,344h39v1h-39zM344,344h39v1h-39zM440,344h39v1h-39zM32,345h40v1h-40zM344,345h40v1h-40zM440,345h40v1h-40zM32,346h39v1h-39zM345,346h39v1h-39zM441,346h39v1h-39zM31,347h39v1h-39zM346,347h39v1h-39zM442,347h39v1h-39zM31,348h38v1h-38zM347,348h38v1h-38zM443,348h38v1h-38zM30,349h39v1h-39zM348,349h38v1h-38zM444,349h38v1h-38zM30,350h38v1h-38zM348,350h38v1h-38zM444,350h38v1h-38zM29,351h38v1h-38zM349,351h38v1h-38zM445,351h38v1h-38zM29,352h37v1h-37zM350,352h37v1h-37zM446,352h37v1h-37zM28,353h38v1h-38zM350,353h38v1h-38zM446,353h38v1h-38zM28,354h37v1h-37zM351,354h37v1h-37zM447,354h37v1h-37zM28,355h36v1h-36zM352,355h36v1h-36zM448,355h36v1h-36zM27,356h37v1h-37zM352,356h37v1h-37zM448,356h37v1h-37zM27,357h36v1h-36zM353,357h36v1h-36zM449,357h36v1h-36zM26,358h37v1h-37zM353,358h37v1h-37zM449,358h37v1h-37zM26,359h36v1h-36zM354,359h36v1h-36zM450,359h36v1h-36zM25,360h37v1h-37zM354,360h36v1h-36zM450,360h36v1h-36zM25,361h36v1h-36zM355,361h36v1h-36zM451,361h36v1h-36zM25,362h36v1h-36zM355,362h36v1h-36zM451,362h36v1h-36zM24,363h36v1h-36zM356,363h36v1h-36zM452,363h36v1h-36zM24,364h35v1h-35zM356,364h36v1h-36zM452,364h36v1h-36zM24,365h35v1h-35zM357,365h35v1h-35zM453,365h35v1h-35zM23,366h36v1h-36zM357,366h36v1h-36zM453,366h36v1h-36zM23,367h35v1h-35zM358,367h35v1h-35zM454,367h35v1h-35zM23,368h35v1h-35zM358,368h35v1h-35zM454,368h35v1h-35zM22,369h35v1h-35zM359,369h35v1h-35zM455,369h35v1h-35zM22,370h35v1h-35zM359,370h35v1h-35zM455,370h35v1h-35zM22,371h34v1h-34zM360,371h34v1h-34zM456,371h34v1h-34zM21,372h35v1h-35zM360,372h35v1h-35zM456,372h35v1h-35zM21,373h35v1h-35zM360,373h35v1h-35zM456,373h35v1h-35zM21,374h34v1h-34zM361,374h34v1h-34zM457,374h34v1h-34zM21,375h34v1h-34zM361,375h34v1h-34zM457,375h34v1h-34zM20,376h34v1h-34zM362,376h34v1h-34zM458,376h34v1h-34zM20,377h34v1h-34zM362,377h34v1h-34zM458,377h34v1h-34zM20,378h34v1h-34zM362,378h34v1h-34zM458,378h34v1h-34zM19,379h34v1h-34zM363,379h34v1h-34zM459,379h33v1h-33zM19,380h34v1h-34zM363,380h34v1h-34zM459,380h34v1h-34zM19,381h34v1h-34zM363,381h34v1h-34zM459,381h34v1h-34zM19,382h34v1h-34zM363,382h34v1h-34zM459,382h34v1h-34zM19,383h33v1h-33zM364,383h33v1h-33zM460,383h33v1h-33zM18,384h34v1h-34zM364,384h34v1h-34zM460,384h34v1h-34zM18,385h34v1h-34zM364,385h34v1h-34zM460,385h34v1h-34zM18,386h33v1h-33zM365,386h33v1h-33zM461,386h33v1h-33zM18,387h33v1h-33zM365,387h33v1h-33zM461,387h33v1h-33zM18,388h33v1h-33zM365,388h33v1h-33zM461,388h33v1h-33zM17,389h34v1h-34zM365,389h34v1h-34zM461,389h34v1h-34zM17,390h34v1h-34zM365,390h34v1h-34zM461,390h34v1h-34zM17,391h33v1h-33zM366,391h33v1h-33zM462,391h33v1h-33zM17,392h33v1h-33zM366,392h33v1h-33zM462,392h33v1h-33zM17,393h33v1h-33zM366,393h33v1h-33zM462,393h33v1h-33zM17,394h33v1h-33zM366,394h33v1h-33zM462,394h33v1h-33zM17,395h33v1h-33zM366,395h33v1h-33zM462,395h33v1h-33zM17,396h33v1h-33zM366,396h33v1h-33zM462,396h33v1h-33zM16,397h33v1h-33zM367,397h33v1h-33zM463,397h33v1h-33zM16,398h33v1h-33zM367,398h33v1h-33zM463,398h33v1h-33zM16,399h33v1h-33zM367,399h33v1h-33zM463,399h33v1h-33zM16,400h33v1h-33zM367,400h33v1h-33zM463,400h33v1h-33zM16,401h33v1h-33zM367,401h33v1h-33zM463,401h33v1h-33zM16,402h33v1h-33zM367,402h33v1h-33zM463,402h33v1h-33zM16,403h33v1h-33zM367,403h33v1h-33zM463,403h33v1h-33zM16,404h33v1h-33zM367,404h33v1h-33zM463,404h33v1h-33zM16,405h33v1h-33zM367,405h33v1h-33zM463,405h33v1h-33zM16,406h33v1h-33zM367,406h33v1h-33zM463,406h33v1h-33zM16,407h32v1h-32zM367,407h33v1h-33zM463,407h33v1h-33zM16,408h32v1h-32zM368,408h32v1h-32zM464,408h32v1h-32zM16,409h32v1h-32zM368,409h32v1h-32zM464,409h32v1h-32zM16,410h32v1h-32zM368,410h32v1h-32zM464,410h32v1h-32zM16,411h32v1h-32zM368,411h32v1h-32zM464,411h32v1h-32zM16,412h32v1h-32zM368,412h32v1h-32zM464,412h32v1h-32zM16,413h32v1h-32zM368,413h32v1h-32zM464,413h32v1h-32zM16,414h32v1h-32zM367,414h33v1h-33zM463,414h33v1h-33zM16,415h33v1h-33zM367,415h33v1h-33zM463,415h33v1h-33zM16,416h33v1h-33zM367,416h33v1h-33zM463,416h33v1h-33zM16,417h33v1h-33zM367,417h33v1h-33zM463,417h33v1h-33zM16,418h33v1h-33zM367,418h33v1h-33zM463,418h33v1h-33zM16,419h33v1h-33zM367,419h33v1h-33zM463,419h33v1h-33zM16,420h33v1h-33zM367,420h33v1h-33zM463,420h33v1h-33zM16,421h33v1h-33zM367,421h33v1h-33zM463,421h33v1h-33zM16,422h33v1h-33zM367,422h33v1h-33zM463,422h33v1h-33zM16,423h34v1h-34zM366,423h34v1h-34zM462,423h34v1h-34zM17,424h33v1h-33zM366,424h33v1h-33zM462,424h33v1h-33zM17,425h33v1h-33zM366,425h33v1h-33zM462,425h33v1h-33zM17,426h33v1h-33zM366,426h33v1h-33zM462,426h33v1h-33zM17,427h34v1h-34zM365,427h34v1h-34zM461,427h34v1h-34zM17,428h34v1h-34zM365,428h34v1h-34zM461,428h34v1h-34zM17,429h34v1h-34zM365,429h34v1h-34zM461,429h34v1h-34zM18,430h34v1h-34zM364,430h34v1h-34zM460,430h34v1h-34zM18,431h34v1h-34zM364,431h34v1h-34zM460,431h34v1h-34zM18,432h35v1h-35zM363,432h35v1h-35zM459,432h35v1h-35zM18,433h35v1h-35zM363,433h35v1h-35zM459,433h35v1h-35zM19,434h35v1h-35zM363,434h34v1h-34zM459,434h34v1h-34zM19,435h35v1h-35zM362,435h35v1h-35zM458,435h35v1h-35zM19,436h35v1h-35zM362,436h35v1h-35zM458,436h35v1h-35zM19,437h36v1h-36zM361,437h35v1h-35zM457,437h35v1h-35zM20,438h36v1h-36zM360,438h36v1h-36zM456,438h36v1h-36zM20,439h36v1h-36zM360,439h36v1h-36zM456,439h36v1h-36zM21,440h36v1h-36zM359,440h36v1h-36zM455,440h36v1h-36zM21,441h37v1h-37zM358,441h37v1h-37zM454,441h37v1h-37zM21,442h37v1h-37zM358,442h37v1h-37zM454,442h37v1h-37zM22,443h37v1h-37zM357,443h37v1h-37zM453,443h37v1h-37zM22,444h38v1h-38zM356,444h38v1h-38zM452,444h38v1h-38zM22,445h39v1h-39zM355,445h38v1h-38zM451,445h39v1h-39zM23,446h39v1h-39zM354,446h39v1h-39zM450,446h39v1h-39zM23,447h39v1h-39zM354,447h39v1h-39zM450,447h39v1h-39zM24,448h39v1h-39zM353,448h39v1h-39zM449,448h39v1h-39zM24,449h40v1h-40zM352,449h40v1h-40zM448,449h40v1h-40zM25,450h41v1h-41zM350,450h41v1h-41zM446,450h41v1h-41zM25,451h42v1h-42zM349,451h42v1h-42zM445,451h42v1h-42zM26,452h42v1h-42zM348,452h42v1h-42zM444,452h42v1h-42zM26,453h43v1h-43zM347,453h43v1h-43zM443,453h43v1h-43zM27,454h44v1h-44zM345,454h44v1h-44zM441,454h44v1h-44zM28,455h44v1h-44zM344,455h44v1h-44zM440,455h44v1h-44zM28,456h46v1h-46zM342,456h46v1h-46zM438,456h46v1h-46zM29,457h46v1h-46zM341,457h46v1h-46zM437,457h46v1h-46zM30,458h47v1h-47zM338,458h48v1h-48zM434,458h48v1h-48zM30,459h50v1h-50zM336,459h50v1h-50zM432,459h50v1h-50zM31,460h51v1h-51zM334,460h52v1h-52zM430,460h51v1h-51zM32,461h53v1h-53zM331,461h55v1h-55zM427,461h53v1h-53zM32,462h57v1h-57zM327,462h59v1h-59zM423,462h57v1h-57zM33,463h65v1h-65zM318,463h68v1h-68zM414,463h65v1h-65zM34,464h444v1h-444zM35,465h442v1h-442zM36,466h440v1h-440zM36,467h440v1h-440zM37,468h438v1h-438zM38,469h436v1h-436zM39,470h434v1h-434zM40,471h432v1h-432zM41,472h430v1h-430zM42,473h428v1h-428zM43,474h426v1h-426zM44,475h424v1h-424zM45,476h421v1h-421zM47,477h418v1h-418zM48,478h416v1h-416zM49,479h414v1h-414zM51,480h410v1h-410zM52,481h408v1h-408zM54,482h404v1h-404zM55,483h402v1h-402zM57,484h398v1h-398zM58,485h396v1h-396zM60,486h392v1h-392zM62,487h388v1h-388zM64,488h384v1h-384zM66,489h380v1h-380zM69,490h374v1h-374zM72,491h368v1h-368zM75,492h362v1h-362zM78,493h356v1h-356zM82,494h348v1h-348zM88,495h336v1h-336z"/></svg>