<?xml version="1.0" encoding="UTF-8"?>
<svg xmlns="http://www.w3.org/2000/svg" viewBox="0 0 512 512" width="512" height="512"><path fill="#000" d="M27,16h10v1h-10zM24,17h16v1h-16zM23,18h18v1h-18zM21,19h22v1h-22zM20,20h24v1h-24zM19,21h26v1h-26zM19,22h27v1h-27zM18,23h29v1h-29zM17,24h31v1h-31zM17,25h32v1h-32zM17,26h33v1h-33zM16,27h35v1h-35zM16,28h36v1h-36zM16,29h37v1h-37zM16,30h38v1h-38zM16,31h39v1h-39zM16,32h40v1h-40zM16,33h41v1h-41zM16,34h42v1h-42zM16,35h43v1h-43zM16,36h44v1h-44zM17,37h44v1h-44zM17,38h45v1h-45zM17,39h46v1h-46zM18,40h46v1h-46zM19,41h46v1h-46zM19,42h47v1h-47zM20,43h47v1h-47zM21,44h47v1h-47zM22,45h47v1h-47zM23,46h47v1h-47zM24,47h47v1h-47zM25,48h47v1h-47zM26,49h47v1h-47zM27,50h47v1h-47zM28,51h47v1h-47zM29,52h47v1h-47zM30,53h47v1h-47zM31,54h47v1h-47zM32,55h47v1h-47zM33,56h47v1h-47zM34,57h47v1h-47zM35,58h47v1h-47zM36,59h47v1h-47zM37,60h47v1h-47zM38,61h47v1h-47zM39,62h47v1h-47zM40,63h47v1h-47zM41,64h47v1h-47zM42,65h47v1h-47zM43,66h47v1h-47zM44,67h47v1h-47zM45,68h47v1h-47zM46,69h47v1h-47zM47,70h47v1h-47zM48,71h47v1h-47zM49,72h47v1h-47zM50,73h47v1h-47zM51,74h47v1h-47zM52,75h47v1h-47zM53,76h47v1h-47zM54,77h47v1h-47zM55,78h47v1h-47zM56,79h47v1h-47zM57,80h47v1h-47zM235,80h32v1h-32zM58,81h47v1h-47zM218,81h56v1h-56zM59,82h47v1h-47zM201,82h77v1h-77zM60,83h47v1h-47zM184,83h98v1h-98zM61,84h47v1h-47zM168,84h118v1h-118zM62,85h47v1h-47zM150,85h139v1h-139zM63,86h47v1h-47zM134,86h158v1h-158zM64,87h47v1h-47zM125,87h169v1h-169zM65,88h47v1h-47zM121,88h176v1h-176zM66,89h233v1h-233zM67,90h234v1h-234zM68,91h235v1h-235zM69,92h236v1h-236zM70,93h237v1h-237zM71,94h238v1h-238zM72,95h238v1h-238zM73,96h239v1h-239zM74,97h239v1h-239zM75,98h240v1h-240zM76,99h240v1h-240zM77,100h241v1h-241zM78,101h241v1h-241zM79,102h241v1h-241zM80,103h242v1h-242zM81,104h242v1h-242zM82,105h242v1h-242zM83,106h242v1h-242zM84,107h242v1h-242zM85,108h242v1h-242zM86,109h242v1h-242zM87,110h243v1h-243zM88,111h243v1h-243zM89,112h161v1h-161zM258,112h74v1h-74zM89,113h144v1h-144zM267,113h66v1h-66zM89,114h127v1h-127zM271,114h63v1h-63zM89,115h110v1h-110zM275,115h60v1h-60zM89,116h93v1h-93zM278,116h58v1h-58zM89,117h75v1h-75zM281,117h56v1h-56zM89,118h58v1h-58zM284,118h54v1h-54zM89,119h58v1h-58zM286,119h53v1h-53zM89,120h58v1h-58zM288,120h52v1h-52zM88,121h59v1h-59zM290,121h51v1h-51zM88,122h59v1h-59zM292,122h50v1h-50zM88,123h59v1h-59zM293,123h50v1h-50zM88,124h60v1h-60zM295,124h49v1h-49zM87,125h62v1h-62zM296,125h49v1h-49zM87,126h63v1h-63zM298,126h48v1h-48zM87,127h64v1h-64zM299,127h48v1h-48zM87,128h65v1h-65zM300,128h48v1h-48zM87,129h66v1h-66zM302,129h47v1h-47zM87,130h67v1h-67zM303,130h47v1h-47zM87,131h68v1h-68zM304,131h47v1h-47zM87,132h69v1h-69zM305,132h47v1h-47zM86,133h71v1h-71zM306,133h47v1h-47zM86,134h72v1h-72zM307,134h47v1h-47zM86,135h73v1h-73zM308,135h47v1h-47zM86,136h74v1h-74zM309,136h47v1h-47zM86,137h75v1h-75zM310,137h47v1h-47zM86,138h76v1h-76zM311,138h47v1h-47zM86,139h77v1h-77zM312,139h47v1h-47zM86,140h78v1h-78zM313,140h47v1h-47zM86,141h79v1h-79zM314,141h47v1h-47zM86,142h80v1h-80zM315,142h47v1h-47zM86,143h81v1h-81zM316,143h47v1h-47zM86,144h82v1h-82zM317,144h47v1h-47zM86,145h83v1h-83zM318,145h47v1h-47zM86,146h84v1h-84zM319,146h47v1h-47zM86,147h32v1h-32zM124,147h47v1h-47zM320,147h47v1h-47zM86,148h32v1h-32zM125,148h47v1h-47zM321,148h47v1h-47zM86,149h32v1h-32zM126,149h47v1h-47zM322,149h47v1h-47zM85,150h33v1h-33zM127,150h47v1h-47zM323,150h47v1h-47zM85,151h33v1h-33zM128,151h47v1h-47zM324,151h47v1h-47zM85,152h33v1h-33zM129,152h47v1h-47zM325,152h47v1h-47zM85,153h33v1h-33zM130,153h47v1h-47zM326,153h47v1h-47zM85,154h33v1h-33zM131,154h47v1h-47zM327,154h47v1h-47zM85,155h33v1h-33zM132,155h47v1h-47zM328,155h47v1h-47zM85,156h33v1h-33zM133,156h47v1h-47zM329,156h47v1h-47zM85,157h33v1h-33zM134,157h47v1h-47zM330,157h47v1h-47zM85,158h33v1h-33zM135,158h47v1h-47zM331,158h47v1h-47zM85,159h33v1h-33zM136,159h47v1h-47zM332,159h47v1h-47zM85,160h33v1h-33zM137,160h47v1h-47zM333,160h47v1h-47zM85,161h33v1h-33zM138,161h47v1h-47zM334,161h47v1h-47zM85,162h33v1h-33zM139,162h47v1h-47zM335,162h47v1h-47zM85,163h33v1h-33zM140,163h47v1h-47zM336,163h47v1h-47zM85,164h32v1h-32zM141,164h47v1h-47zM337,164h47v1h-47zM85,165h32v1h-32zM142,165h47v1h-47zM227,165h17v1h-17zM338,165h47v1h-47zM85,166h32v1h-32zM143,166h47v1h-47zM221,166h29v1h-29zM339,166h47v1h-47zM84,167h33v1h-33zM144,167h47v1h-47zM217,167h37v1h-37zM340,167h47v1h-47zM84,168h33v1h-33zM145,168h47v1h-47zM213,168h44v1h-44zM341,168h47v1h-47zM84,169h33v1h-33zM146,169h47v1h-47zM211,169h49v1h-49zM342,169h47v1h-47zM84,170h33v1h-33zM147,170h47v1h-47zM208,170h54v1h-54zM343,170h47v1h-47zM84,171h33v1h-33zM148,171h47v1h-47zM206,171h59v1h-59zM344,171h47v1h-47zM84,172h33v1h-33zM149,172h47v1h-47zM204,172h63v1h-63zM345,172h47v1h-47zM84,173h33v1h-33zM150,173h47v1h-47zM202,173h67v1h-67zM346,173h47v1h-47zM84,174h33v1h-33zM151,174h120v1h-120zM347,174h47v1h-47zM84,175h33v1h-33zM152,175h120v1h-120zM348,175h47v1h-47zM84,176h33v1h-33zM153,176h121v1h-121zM349,176h47v1h-47zM84,177h33v1h-33zM154,177h121v1h-121zM350,177h47v1h-47zM84,178h33v1h-33zM155,178h122v1h-122zM351,178h47v1h-47zM84,179h33v1h-33zM156,179h122v1h-122zM352,179h47v1h-47zM84,180h33v1h-33zM157,180h122v1h-122zM353,180h47v1h-47zM84,181h32v1h-32zM158,181h122v1h-122zM354,181h47v1h-47zM84,182h32v1h-32zM159,182h123v1h-123zM355,182h47v1h-47zM84,183h32v1h-32zM160,183h123v1h-123zM356,183h47v1h-47zM83,184h33v1h-33zM161,184h123v1h-123zM357,184h47v1h-47zM83,185h33v1h-33zM162,185h123v1h-123zM358,185h47v1h-47zM83,186h33v1h-33zM163,186h123v1h-123zM359,186h47v1h-47zM83,187h33v1h-33zM164,187h123v1h-123zM360,187h47v1h-47zM83,188h33v1h-33zM165,188h123v1h-123zM361,188h47v1h-47zM83,189h33v1h-33zM166,189h123v1h-123zM362,189h47v1h-47zM83,190h33v1h-33zM167,190h122v1h-122zM363,190h47v1h-47zM83,191h33v1h-33zM168,191h122v1h-122zM364,191h47v1h-47zM83,192h33v1h-33zM169,192h122v1h-122zM365,192h47v1h-47zM83,193h33v1h-33zM170,193h122v1h-122zM366,193h47v1h-47zM83,194h33v1h-33zM171,194h121v1h-121zM367,194h47v1h-47zM83,195h33v1h-33zM172,195h121v1h-121zM368,195h47v1h-47zM83,196h33v1h-33zM173,196h121v1h-121zM369,196h47v1h-47zM83,197h33v1h-33zM174,197h120v1h-120zM370,197h47v1h-47zM83,198h32v1h-32zM174,198h54v1h-54zM243,198h52v1h-52zM371,198h47v1h-47zM83,199h32v1h-32zM174,199h50v1h-50zM247,199h49v1h-49zM372,199h47v1h-47zM83,200h32v1h-32zM174,200h47v1h-47zM249,200h47v1h-47zM373,200h47v1h-47zM82,201h33v1h-33zM174,201h45v1h-45zM252,201h45v1h-45zM374,201h47v1h-47zM82,202h33v1h-33zM173,202h44v1h-44zM254,202h43v1h-43zM375,202h47v1h-47zM82,203h33v1h-33zM173,203h42v1h-42zM255,203h43v1h-43zM376,203h47v1h-47zM82,204h33v1h-33zM172,204h42v1h-42zM257,204h41v1h-41zM377,204h47v1h-47zM82,205h33v1h-33zM172,205h40v1h-40zM258,205h41v1h-41zM378,205h47v1h-47zM82,206h33v1h-33zM171,206h40v1h-40zM259,206h40v1h-40zM379,206h47v1h-47zM82,207h33v1h-33zM171,207h39v1h-39zM260,207h40v1h-40zM380,207h47v1h-47zM82,208h33v1h-33zM170,208h39v1h-39zM262,208h38v1h-38zM381,208h47v1h-47zM82,209h33v1h-33zM170,209h38v1h-38zM263,209h38v1h-38zM382,209h47v1h-47zM82,210h33v1h-33zM170,210h37v1h-37zM263,210h38v1h-38zM383,210h47v1h-47zM82,211h33v1h-33zM169,211h37v1h-37zM264,211h37v1h-37zM384,211h47v1h-47zM82,212h33v1h-33zM169,212h36v1h-36zM265,212h37v1h-37zM385,212h47v1h-47zM82,213h33v1h-33zM168,213h37v1h-37zM266,213h36v1h-36zM386,213h47v1h-47zM82,214h33v1h-33zM168,214h36v1h-36zM266,214h36v1h-36zM387,214h47v1h-47zM82,215h32v1h-32zM168,215h35v1h-35zM267,215h36v1h-36zM388,215h47v1h-47zM82,216h32v1h-32zM168,216h35v1h-35zM268,216h35v1h-35zM389,216h47v1h-47zM82,217h32v1h-32zM167,217h35v1h-35zM268,217h35v1h-35zM390,217h47v1h-47zM81,218h33v1h-33zM167,218h35v1h-35zM269,218h34v1h-34zM391,218h47v1h-47zM81,219h33v1h-33zM167,219h34v1h-34zM269,219h35v1h-35zM392,219h47v1h-47zM81,220h33v1h-33zM167,220h34v1h-34zM270,220h34v1h-34zM393,220h47v1h-47zM81,221h33v1h-33zM166,221h34v1h-34zM270,221h34v1h-34zM394,221h47v1h-47zM81,222h33v1h-33zM166,222h34v1h-34zM270,222h34v1h-34zM395,222h47v1h-47zM81,223h33v1h-33zM166,223h34v1h-34zM271,223h33v1h-33zM396,223h47v1h-47zM81,224h33v1h-33zM166,224h33v1h-33zM271,224h34v1h-34zM397,224h47v1h-47zM81,225h33v1h-33zM166,225h33v1h-33zM271,225h34v1h-34zM398,225h47v1h-47zM81,226h33v1h-33zM166,226h33v1h-33zM272,226h33v1h-33zM399,226h47v1h-47zM81,227h33v1h-33zM165,227h34v1h-34zM272,227h33v1h-33zM400,227h47v1h-47zM81,228h33v1h-33zM165,228h33v1h-33zM272,228h33v1h-33zM401,228h47v1h-47zM81,229h33v1h-33zM165,229h33v1h-33zM272,229h33v1h-33zM402,229h47v1h-47zM81,230h33v1h-33zM165,230h33v1h-33zM272,230h33v1h-33zM403,230h47v1h-47zM81,231h33v1h-33zM165,231h33v1h-33zM273,231h32v1h-32zM404,231h47v1h-47zM81,232h32v1h-32zM165,232h33v1h-33zM273,232h32v1h-32zM405,232h47v1h-47zM81,233h32v1h-32zM165,233h33v1h-33zM273,233h32v1h-32zM406,233h47v1h-47zM81,234h32v1h-32zM165,234h33v1h-33zM273,234h32v1h-32zM407,234h47v1h-47zM80,235h33v1h-33zM165,235h33v1h-33zM273,235h32v1h-32zM408,235h47v1h-47zM80,236h33v1h-33zM165,236h33v1h-33zM273,236h32v1h-32zM409,236h47v1h-47zM80,237h33v1h-33zM165,237h33v1h-33zM273,237h32v1h-32zM410,237h47v1h-47zM80,238h33v1h-33zM165,238h33v1h-33zM273,238h32v1h-32zM411,238h47v1h-47zM80,239h33v1h-33zM165,239h33v1h-33zM272,239h33v1h-33zM412,239h47v1h-47zM80,240h33v1h-33zM165,240h33v1h-33zM272,240h33v1h-33zM413,240h47v1h-47zM80,241h33v1h-33zM165,241h33v1h-33zM272,241h33v1h-33zM414,241h47v1h-47zM80,242h33v1h-33zM165,242h33v1h-33zM272,242h33v1h-33zM415,242h47v1h-47zM80,243h33v1h-33zM165,243h34v1h-34zM272,243h33v1h-33zM416,243h47v1h-47zM80,244h33v1h-33zM166,244h33v1h-33zM272,244h33v1h-33zM417,244h47v1h-47zM80,245h33v1h-33zM166,245h33v1h-33zM271,245h34v1h-34zM418,245h47v1h-47zM80,246h33v1h-33zM166,246h33v1h-33zM271,246h34v1h-34zM419,246h47v1h-47zM80,247h33v1h-33zM166,247h34v1h-34zM271,247h33v1h-33zM420,247h46v1h-46zM80,248h33v1h-33zM166,248h34v1h-34zM270,248h34v1h-34zM421,248h46v1h-46zM80,249h33v1h-33zM166,249h35v1h-35zM270,249h34v1h-34zM422,249h46v1h-46zM80,250h32v1h-32zM167,250h34v1h-34zM269,250h35v1h-35zM423,250h46v1h-46zM80,251h32v1h-32zM167,251h34v1h-34zM269,251h35v1h-35zM424,251h46v1h-46zM80,252h32v1h-32zM167,252h35v1h-35zM269,252h34v1h-34zM425,252h46v1h-46zM80,253h32v1h-32zM167,253h35v1h-35zM268,253h35v1h-35zM426,253h46v1h-46zM80,254h32v1h-32zM168,254h35v1h-35zM267,254h36v1h-36zM427,254h46v1h-46zM80,255h32v1h-32zM168,255h36v1h-36zM267,255h35v1h-35zM428,255h45v1h-45zM80,256h32v1h-32zM168,256h36v1h-36zM266,256h36v1h-36zM429,256h45v1h-45zM80,257h32v1h-32zM169,257h36v1h-36zM265,257h37v1h-37zM430,257h45v1h-45zM80,258h33v1h-33zM169,258h37v1h-37zM265,258h37v1h-37zM431,258h45v1h-45zM80,259h33v1h-33zM169,259h38v1h-38zM264,259h37v1h-37zM432,259h44v1h-44zM80,260h33v1h-33zM170,260h38v1h-38zM263,260h38v1h-38zM433,260h44v1h-44zM80,261h33v1h-33zM170,261h38v1h-38zM262,261h38v1h-38zM434,261h44v1h-44zM80,262h33v1h-33zM171,262h39v1h-39zM261,262h39v1h-39zM435,262h43v1h-43zM80,263h33v1h-33zM171,263h40v1h-40zM260,263h40v1h-40zM436,263h43v1h-43zM80,264h33v1h-33zM171,264h41v1h-41zM259,264h40v1h-40zM437,264h43v1h-43zM80,265h33v1h-33zM172,265h41v1h-41zM257,265h42v1h-42zM438,265h42v1h-42zM80,266h33v1h-33zM172,266h43v1h-43zM256,266h42v1h-42zM439,266h42v1h-42zM81,267h33v1h-33zM173,267h43v1h-43zM254,267h44v1h-44zM440,267h42v1h-42zM81,268h33v1h-33zM173,268h45v1h-45zM253,268h44v1h-44zM441,268h41v1h-41zM81,269h33v1h-33zM174,269h46v1h-46zM250,269h47v1h-47zM442,269h41v1h-41zM81,270h33v1h-33zM174,270h49v1h-49zM248,270h48v1h-48zM443,270h40v1h-40zM81,271h34v1h-34zM175,271h51v1h-51zM245,271h50v1h-50zM444,271h40v1h-40zM81,272h34v1h-34zM176,272h55v1h-55zM239,272h56v1h-56zM445,272h39v1h-39zM81,273h34v1h-34zM176,273h118v1h-118zM446,273h39v1h-39zM82,274h33v1h-33zM177,274h116v1h-116zM447,274h38v1h-38zM82,275h34v1h-34zM178,275h115v1h-115zM447,275h39v1h-39zM82,276h34v1h-34zM178,276h114v1h-114zM448,276h38v1h-38zM82,277h34v1h-34zM179,277h112v1h-112zM449,277h38v1h-38zM83,278h34v1h-34zM180,278h111v1h-111zM450,278h37v1h-37zM83,279h34v1h-34zM181,279h109v1h-109zM450,279h38v1h-38zM83,280h34v1h-34zM182,280h107v1h-107zM451,280h37v1h-37zM83,281h35v1h-35zM182,281h106v1h-106zM452,281h36v1h-36zM84,282h34v1h-34zM183,282h104v1h-104zM452,282h37v1h-37zM84,283h34v1h-34zM184,283h102v1h-102zM453,283h36v1h-36zM84,284h35v1h-35zM185,284h100v1h-100zM454,284h36v1h-36zM84,285h35v1h-35zM186,285h98v1h-98zM454,285h36v1h-36zM85,286h35v1h-35zM187,286h96v1h-96zM455,286h35v1h-35zM85,287h35v1h-35zM188,287h94v1h-94zM455,287h36v1h-36zM85,288h36v1h-36zM189,288h92v1h-92zM456,288h35v1h-35zM86,289h35v1h-35zM191,289h89v1h-89zM456,289h35v1h-35zM86,290h36v1h-36zM192,290h87v1h-87zM457,290h35v1h-35zM86,291h36v1h-36zM193,291h84v1h-84zM457,291h35v1h-35zM87,292h36v1h-36zM195,292h81v1h-81zM458,292h34v1h-34zM87,293h37v1h-37zM196,293h78v1h-78zM458,293h34v1h-34zM88,294h36v1h-36zM198,294h75v1h-75zM458,294h35v1h-35zM88,295h37v1h-37zM199,295h72v1h-72zM459,295h34v1h-34zM88,296h38v1h-38zM201,296h69v1h-69zM459,296h34v1h-34zM89,297h37v1h-37zM203,297h65v1h-65zM459,297h34v1h-34zM89,298h38v1h-38zM205,298h61v1h-61zM460,298h34v1h-34zM90,299h38v1h-38zM207,299h57v1h-57zM460,299h34v1h-34zM90,300h39v1h-39zM209,300h52v1h-52zM460,300h34v1h-34zM91,301h38v1h-38zM212,301h47v1h-47zM461,301h33v1h-33zM91,302h39v1h-39zM215,302h40v1h-40zM461,302h34v1h-34zM92,303h39v1h-39zM219,303h33v1h-33zM461,303h34v1h-34zM92,304h40v1h-40zM224,304h23v1h-23zM462,304h33v1h-33zM93,305h40v1h-40zM235,305h1v1h-1zM462,305h33v1h-33zM93,306h41v1h-41zM462,306h33v1h-33zM94,307h41v1h-41zM462,307h33v1h-33zM94,308h42v1h-42zM462,308h33v1h-33zM95,309h42v1h-42zM463,309h33v1h-33zM96,310h42v1h-42zM463,310h33v1h-33zM96,311h43v1h-43zM463,311h33v1h-33zM97,312h43v1h-43zM463,312h33v1h-33zM98,313h43v1h-43zM463,313h33v1h-33zM98,314h44v1h-44zM463,314h33v1h-33zM99,315h44v1h-44zM463,315h33v1h-33zM100,316h44v1h-44zM463,316h33v1h-33zM100,317h45v1h-45zM463,317h33v1h-33zM101,318h45v1h-45zM464,318h32v1h-32zM102,319h45v1h-45zM464,319h32v1h-32zM103,320h45v1h-45zM464,320h32v1h-32zM103,321h46v1h-46zM464,321h32v1h-32zM104,322h46v1h-46zM464,322h32v1h-32zM105,323h46v1h-46zM464,323h32v1h-32zM106,324h46v1h-46zM464,324h32v1h-32zM107,325h46v1h-46zM464,325h32v1h-32zM108,326h46v1h-46zM463,326h33v1h-33zM109,327h46v1h-46zM463,327h33v1h-33zM110,328h46v1h-46zM463,328h33v1h-33zM110,329h47v1h-47zM463,329h33v1h-33zM111,330h47v1h-47zM463,330h33v1h-33zM112,331h47v1h-47zM463,331h33v1h-33zM113,332h47v1h-47zM463,332h33v1h-33zM114,333h47v1h-47zM463,333h33v1h-33zM115,334h47v1h-47zM463,334h33v1h-33zM116,335h47v1h-47zM462,335h34v1h-34zM117,336h47v1h-47zM462,336h33v1h-33zM118,337h47v1h-47zM462,337h33v1h-33zM119,338h47v1h-47zM462,338h33v1h-33zM120,339h47v1h-47zM462,339h33v1h-33zM121,340h47v1h-47zM461,340h34v1h-34zM122,341h47v1h-47zM461,341h34v1h-34zM123,342h47v1h-47zM461,342h33v1h-33zM124,343h47v1h-47zM461,343h33v1h-33zM125,344h47v1h-47zM460,344h34v1h-34zM126,345h47v1h-47zM460,345h34v1h-34zM127,346h47v1h-47zM460,346h34v1h-34zM128,347h47v1h-47zM459,347h34v1h-34zM129,348h47v1h-47zM459,348h34v1h-34zM130,349h47v1h-47zM459,349h34v1h-34zM131,350h47v1h-47zM458,350h35v1h-35zM132,351h47v1h-47zM458,351h34v1h-34zM133,352h47v1h-47zM457,352h35v1h-35zM134,353h47v1h-47zM457,353h35v1h-35zM135,354h47v1h-47zM456,354h35v1h-35zM136,355h47v1h-47zM456,355h35v1h-35zM137,356h47v1h-47zM456,356h35v1h-35zM138,357h47v1h-47zM455,357h36v1h-36zM139,358h47v1h-47zM454,358h36v1h-36zM140,359h47v1h-47zM454,359h36v1h-36zM141,360h47v1h-47zM453,360h36v1h-36zM142,361h47v1h-47zM453,361h36v1h-36zM143,362h47v1h-47zM452,362h37v1h-37zM144,363h47v1h-47zM451,363h37v1h-37zM145,364h47v1h-47zM451,364h37v1h-37zM146,365h47v1h-47zM450,365h37v1h-37zM147,366h47v1h-47zM449,366h38v1h-38zM148,367h47v1h-47zM449,367h38v1h-38zM149,368h47v1h-47zM448,368h38v1h-38zM150,369h47v1h-47zM447,369h39v1h-39zM151,370h47v1h-47zM446,370h39v1h-39zM152,371h47v1h-47zM446,371h39v1h-39zM153,372h47v1h-47zM445,372h39v1h-39zM154,373h47v1h-47zM444,373h40v1h-40zM155,374h47v1h-47zM443,374h40v1h-40zM156,375h47v1h-47zM442,375h40v1h-40zM157,376h47v1h-47zM441,376h41v1h-41zM158,377h47v1h-47zM440,377h41v1h-41zM159,378h47v1h-47zM439,378h42v1h-42zM160,379h47v1h-47zM438,379h42v1h-42zM161,380h47v1h-47zM437,380h42v1h-42zM162,381h47v1h-47zM436,381h43v1h-43zM163,382h47v1h-47zM435,382h43v1h-43zM164,383h47v1h-47zM434,383h44v1h-44zM165,384h47v1h-47zM433,384h44v1h-44zM166,385h47v1h-47zM432,385h44v1h-44zM167,386h47v1h-47zM431,386h44v1h-44zM168,387h47v1h-47zM430,387h45v1h-45zM169,388h47v1h-47zM429,388h45v1h-45zM170,389h47v1h-47zM428,389h45v1h-45zM171,390h47v1h-47zM427,390h45v1h-45zM172,391h47v1h-47zM426,391h46v1h-46zM173,392h47v1h-47zM425,392h46v1h-46zM174,393h47v1h-47zM424,393h46v1h-46zM175,394h47v1h-47zM423,394h46v1h-46zM176,395h47v1h-47zM422,395h46v1h-46zM177,396h47v1h-47zM421,396h46v1h-46zM178,397h47v1h-47zM420,397h46v1h-46zM179,398h47v1h-47zM419,398h46v1h-46zM180,399h47v1h-47zM418,399h46v1h-46zM181,400h47v1h-47zM417,400h46v1h-46zM182,401h47v1h-47zM416,401h46v1h-46zM183,402h47v1h-47zM415,402h46v1h-46zM184,403h47v1h-47zM414,403h46v1h-46zM185,404h47v1h-47zM413,404h46v1h-46zM186,405h47v1h-47zM412,405h46v1h-46zM187,406h47v1h-47zM411,406h46v1h-46zM188,407h47v1h-47zM410,407h46v1h-46zM189,408h47v1h-47zM409,408h46v1h-46zM190,409h47v1h-47zM408,409h46v1h-46zM191,410h47v1h-47zM407,410h46v1h-46zM192,411h47v1h-47zM406,411h46v1h-46zM193,412h47v1h-47zM405,412h46v1h-46zM194,413h47v1h-47zM404,413h46v1h-46zM195,414h47v1h-47zM403,414h46v1h-46zM196,415h47v1h-47zM402,415h46v1h-46zM197,416h47v1h-47zM401,416h46v1h-46zM198,417h47v1h-47zM400,417h46v1h-46zM199,418h47v1h-47zM399,418h46v1h-46zM200,419h47v1h-47zM398,419h46v1h-46zM201,420h47v1h-47zM397,420h46v1h-46zM202,421h47v1h-47zM396,421h46v1h-46zM203,422h47v1h-47zM395,422h46v1h-46zM204,423h47v1h-47zM394,423h46v1h-46zM205,424h47v1h-47zM393,424h46v1h-46zM206,425h47v1h-47zM392,425h46v1h-46zM207,426h47v1h-47zM391,426h46v1h-46zM208,427h47v1h-47zM390,427h46v1h-46zM209,428h47v1h-47zM389,428h46v1h-46zM210,429h47v1h-47zM388,429h46v1h-46zM211,430h47v1h-47zM387,430h46v1h-46zM212,431h47v1h-47zM386,431h46v1h-46zM213,432h47v1h-47zM385,432h46v1h-46zM214,433h47v1h-47zM384,433h46v1h-46zM215,434h47v1h-47zM383,434h46v1h-46zM216,435h47v1h-47zM382,435h46v1h-46zM217,436h47v1h-47zM381,436h46v1h-46zM218,437h47v1h-47zM380,437h46v1h-46zM219,438h47v1h-47zM379,438h46v1h-46zM220,439h47v1h-47zM378,439h46v1h-46zM221,440h47v1h-47zM377,440h46v1h-46zM222,441h47v1h-47zM376,441h46v1h-46zM223,442h47v1h-47zM375,442h46v1h-46zM224,443h47v1h-47zM374,443h46v1h-46zM225,444h47v1h-47zM373,444h46v1h-46zM226,445h47v1h-47zM372,445h46v1h-46zM227,446h47v1h-47zM370,446h47v1h-47zM228,447h48v1h-48zM369,447h47v1h-47zM229,448h48v1h-48zM368,448h47v1h-47zM230,449h48v1h-48zM366,449h48v1h-48zM231,450h49v1h-49zM365,450h48v1h-48zM232,451h49v1h-49zM364,451h48v1h-48zM233,452h50v1h-50zM362,452h49v1h-49zM234,453h50v1h-50zM360,453h50v1h-50zM235,454h51v1h-51zM358,454h51v1h-51zM236,455h52v1h-52zM356,455h52v1h-52zM237,456h53v1h-53zM354,456h53v1h-53zM238,457h54v1h-54zM352,457h54v1h-54zM239,458h56v1h-56zM350,458h55v1h-55zM240,459h58v1h-58zM347,459h57v1h-57zM241,460h60v1h-60zM344,460h59v1h-59zM242,461h62v1h-62zM340,461h62v1h-62zM243,462h66v1h-66zM335,462h66v1h-66zM244,463h74v1h-74zM326,463h74v1h-74zM245,464h154v1h-154zM246,465h152v1h-152zM248,466h149v1h-149zM249,467h147v1h-147zM250,468h145v1h-145zM251,469h143v1h-143zM252,470h141v1h-141zM253,471h138v1h-138zM254,472h136v1h-136zM256,473h133v1h-133zM257,474h131v1h-131zM258,475h128v1h-128zM260,476h125v1h-125zM261,477h123v1h-123zM263,478h119v1h-119zM264,479h116v1h-116zM266,480h113v1h-113zM267,481h110v1h-110zM269,482h106v1h-106zM271,483h103v1h-103zM273,484h99v1h-99zM275,485h95v1h-95zM277,486h91v1h-91zM279,487h86v1h-86zM282,488h81v1h-81zM284,489h76v1h-76zM287,490h71v1h-71zM290,491h64v1h-64zM294,492h57v1h-57zM298,493h49v1h-49zM302,494h40v1h-40zM309,495h27v1h-27z"/></svg>