<?xml version="1.0" encoding="UTF-8"?>
<svg xmlns="http://www.w3.org/2000/svg" viewBox="0 0 512 512" width="512" height="512"><path fill="#000" d="M155,32h10v1h-10zM411,32h10v1h-10zM152,33h16v1h-16zM408,33h16v1h-16zM151,34h18v1h-18zM407,34h18v1h-18zM149,35h22v1h-22zM405,35h22v1h-22zM147,36h25v1h-25zM403,36h25v1h-25zM145,37h28v1h-28zM401,37h28v1h-28zM143,38h30v1h-30zM399,38h30v1h-30zM141,39h33v1h-33zM397,39h33v1h-33zM139,40h36v1h-36zM395,40h36v1h-36zM137,41h38v1h-38zM393,41h38v1h-38zM135,42h40v1h-40zM391,42h40v1h-40zM133,43h43v1h-43zM389,43h43v1h-43zM132,44h44v1h-44zM388,44h44v1h-44zM130,45h46v1h-46zM386,45h46v1h-46zM128,46h48v1h-48zM384,46h48v1h-48zM126,47h50v1h-50zM382,47h50v1h-50zM124,48h52v1h-52zM380,48h52v1h-52zM122,49h54v1h-54zM378,49h54v1h-54zM120,50h56v1h-56zM376,50h56v1h-56zM118,51h58v1h-58zM374,51h58v1h-58zM116,52h60v1h-60zM372,52h60v1h-60zM115,53h60v1h-60zM371,53h60v1h-60zM113,54h62v1h-62zM369,54h62v1h-62zM111,55h64v1h-64zM367,55h64v1h-64zM109,56h65v1h-65zM365,56h65v1h-65zM107,57h66v1h-66zM363,57h66v1h-66zM105,58h68v1h-68zM361,58h68v1h-68zM103,59h69v1h-69zM359,59h69v1h-69zM101,60h70v1h-70zM357,60h70v1h-70zM99,61h70v1h-70zM355,61h70v1h-70zM97,62h71v1h-71zM353,62h71v1h-71zM96,63h70v1h-70zM352,63h70v1h-70zM94,64h70v1h-70zM350,64h70v1h-70zM92,65h70v1h-70zM348,65h70v1h-70zM90,66h70v1h-70zM346,66h70v1h-70zM88,67h70v1h-70zM344,67h70v1h-70zM87,68h69v1h-69zM343,68h69v1h-69zM85,69h69v1h-69zM341,69h69v1h-69zM83,70h69v1h-69zM339,70h69v1h-69zM82,71h69v1h-69zM338,71h69v1h-69zM80,72h69v1h-69zM336,72h69v1h-69zM79,73h68v1h-68zM335,73h68v1h-68zM77,74h68v1h-68zM333,74h68v1h-68zM76,75h67v1h-67zM332,75h67v1h-67zM74,76h67v1h-67zM330,76h67v1h-67zM73,77h66v1h-66zM329,77h66v1h-66zM72,78h65v1h-65zM328,78h65v1h-65zM71,79h64v1h-64zM327,79h64v1h-64zM69,80h65v1h-65zM325,80h65v1h-65zM68,81h64v1h-64zM324,81h64v1h-64zM67,82h63v1h-63zM323,82h63v1h-63zM66,83h62v1h-62zM322,83h62v1h-62zM64,84h62v1h-62zM320,84h62v1h-62zM63,85h61v1h-61zM319,85h61v1h-61zM62,86h60v1h-60zM318,86h60v1h-60zM61,87h59v1h-59zM317,87h59v1h-59zM60,88h58v1h-58zM316,88h58v1h-58zM59,89h57v1h-57zM315,89h57v1h-57zM58,90h57v1h-57zM314,90h57v1h-57zM57,91h56v1h-56zM313,91h56v1h-56zM56,92h55v1h-55zM312,92h55v1h-55zM55,93h54v1h-54zM311,93h54v1h-54zM54,94h53v1h-53zM310,94h53v1h-53zM53,95h52v1h-52zM309,95h52v1h-52zM52,96h52v1h-52zM308,96h52v1h-52zM52,97h50v1h-50zM308,97h50v1h-50zM51,98h49v1h-49zM307,98h49v1h-49zM50,99h49v1h-49zM306,99h49v1h-49zM49,100h48v1h-48zM305,100h48v1h-48zM48,101h48v1h-48zM304,101h48v1h-48zM47,102h47v1h-47zM303,102h47v1h-47zM47,103h46v1h-46zM303,103h46v1h-46zM46,104h46v1h-46zM302,104h46v1h-46zM45,105h45v1h-45zM301,105h45v1h-45zM44,106h45v1h-45zM300,106h45v1h-45zM44,107h44v1h-44zM300,107h44v1h-44zM43,108h44v1h-44zM299,108h44v1h-44zM42,109h44v1h-44zM298,109h44v1h-44zM41,110h44v1h-44zM297,110h44v1h-44zM41,111h42v1h-42zM297,111h42v1h-42zM40,112h42v1h-42zM296,112h42v1h-42zM39,113h42v1h-42zM295,113h42v1h-42zM39,114h41v1h-41zM295,114h41v1h-41zM38,115h41v1h-41zM294,115h41v1h-41zM37,116h41v1h-41zM293,116h41v1h-41zM37,117h41v1h-41zM293,117h41v1h-41zM36,118h41v1h-41zM292,118h41v1h-41zM36,119h40v1h-40zM292,119h40v1h-40zM35,120h40v1h-40zM291,120h40v1h-40zM34,121h40v1h-40zM290,121h40v1h-40zM34,122h39v1h-39zM290,122h39v1h-39zM33,123h39v1h-39zM289,123h39v1h-39zM33,124h39v1h-39zM289,124h39v1h-39zM32,125h39v1h-39zM288,125h39v1h-39zM32,126h38v1h-38zM288,126h38v1h-38zM31,127h38v1h-38zM287,127h38v1h-38zM31,128h38v1h-38zM287,128h38v1h-38zM30,129h38v1h-38zM286,129h38v1h-38zM30,130h37v1h-37zM286,130h37v1h-37zM29,131h38v1h-38zM285,131h38v1h-38zM29,132h37v1h-37zM285,132h37v1h-37zM28,133h37v1h-37zM284,133h37v1h-37zM28,134h37v1h-37zM284,134h37v1h-37zM27,135h37v1h-37zM283,135h37v1h-37zM27,136h37v1h-37zM283,136h37v1h-37zM27,137h36v1h-36zM283,137h36v1h-36zM26,138h37v1h-37zM282,138h37v1h-37zM26,139h36v1h-36zM282,139h36v1h-36zM25,140h36v1h-36zM281,140h36v1h-36zM25,141h36v1h-36zM281,141h36v1h-36zM25,142h35v1h-35zM281,142h35v1h-35zM24,143h36v1h-36zM280,143h36v1h-36zM24,144h35v1h-35zM280,144h35v1h-35zM24,145h35v1h-35zM280,145h35v1h-35zM23,146h35v1h-35zM279,146h35v1h-35zM23,147h35v1h-35zM279,147h35v1h-35zM23,148h35v1h-35zM279,148h35v1h-35zM22,149h35v1h-35zM278,149h35v1h-35zM22,150h35v1h-35zM278,150h35v1h-35zM22,151h34v1h-34zM278,151h34v1h-34zM21,152h35v1h-35zM277,152h35v1h-35zM21,153h35v1h-35zM277,153h35v1h-35zM21,154h34v1h-34zM277,154h34v1h-34zM21,155h34v1h-34zM277,155h34v1h-34zM20,156h34v1h-34zM276,156h34v1h-34zM20,157h34v1h-34zM276,157h34v1h-34zM20,158h34v1h-34zM276,158h34v1h-34zM19,159h34v1h-34zM275,159h34v1h-34zM19,160h34v1h-34zM275,160h34v1h-34zM19,161h34v1h-34zM275,161h34v1h-34zM19,162h34v1h-34zM275,162h34v1h-34zM19,163h33v1h-33zM275,163h33v1h-33zM18,164h34v1h-34zM274,164h34v1h-34zM18,165h34v1h-34zM274,165h34v1h-34zM18,166h34v1h-34zM274,166h34v1h-34zM18,167h33v1h-33zM274,167h33v1h-33zM18,168h33v1h-33zM274,168h33v1h-33zM18,169h33v1h-33zM274,169h33v1h-33zM17,170h34v1h-34zM273,170h34v1h-34zM17,171h33v1h-33zM273,171h33v1h-33zM17,172h33v1h-33zM273,172h33v1h-33zM17,173h33v1h-33zM273,173h33v1h-33zM17,174h33v1h-33zM273,174h33v1h-33zM17,175h33v1h-33zM273,175h33v1h-33zM17,176h33v1h-33zM273,176h33v1h-33zM16,177h33v1h-33zM272,177h33v1h-33zM16,178h33v1h-33zM272,178h33v1h-33zM16,179h33v1h-33zM272,179h33v1h-33zM16,180h33v1h-33zM272,180h33v1h-33zM16,181h33v1h-33zM272,181h33v1h-33zM16,182h33v1h-33zM272,182h33v1h-33zM16,183h33v1h-33zM272,183h33v1h-33zM16,184h33v1h-33zM272,184h33v1h-33zM16,185h33v1h-33zM272,185h33v1h-33zM16,186h33v1h-33zM272,186h33v1h-33zM16,187h33v1h-33zM272,187h33v1h-33zM16,188h33v1h-33zM272,188h33v1h-33zM16,189h32v1h-32zM272,189h32v1h-32zM16,190h32v1h-32zM272,190h32v1h-32zM16,191h32v1h-32zM272,191h32v1h-32zM16,192h32v1h-32zM272,192h32v1h-32zM16,193h32v1h-32zM272,193h32v1h-32zM16,194h32v1h-32zM272,194h32v1h-32zM16,195h32v1h-32zM272,195h32v1h-32zM16,196h32v1h-32zM272,196h32v1h-32zM16,197h32v1h-32zM272,197h32v1h-32zM16,198h32v1h-32zM272,198h32v1h-32zM16,199h32v1h-32zM272,199h32v1h-32zM16,200h32v1h-32zM272,200h32v1h-32zM16,201h32v1h-32zM272,201h32v1h-32zM16,202h32v1h-32zM272,202h32v1h-32zM16,203h32v1h-32zM272,203h32v1h-32zM16,204h32v1h-32zM272,204h32v1h-32zM16,205h32v1h-32zM272,205h32v1h-32zM16,206h32v1h-32zM272,206h32v1h-32zM16,207h32v1h-32zM272,207h32v1h-32zM16,208h32v1h-32zM272,208h32v1h-32zM16,209h32v1h-32zM272,209h32v1h-32zM16,210h32v1h-32zM272,210h32v1h-32zM16,211h32v1h-32zM272,211h32v1h-32zM16,212h32v1h-32zM272,212h32v1h-32zM16,213h32v1h-32zM272,213h32v1h-32zM16,214h32v1h-32zM272,214h32v1h-32zM16,215h32v1h-32zM272,215h32v1h-32zM16,216h32v1h-32zM272,216h32v1h-32zM16,217h32v1h-32zM272,217h32v1h-32zM16,218h32v1h-32zM272,218h32v1h-32zM16,219h32v1h-32zM272,219h32v1h-32zM16,220h32v1h-32zM272,220h32v1h-32zM16,221h32v1h-32zM272,221h32v1h-32zM16,222h32v1h-32zM272,222h32v1h-32zM16,223h32v1h-32zM272,223h32v1h-32zM16,224h32v1h-32zM272,224h32v1h-32zM16,225h32v1h-32zM272,225h32v1h-32zM16,226h32v1h-32zM272,226h32v1h-32zM16,227h32v1h-32zM272,227h32v1h-32zM16,228h32v1h-32zM272,228h32v1h-32zM16,229h32v1h-32zM272,229h32v1h-32zM16,230h32v1h-32zM272,230h32v1h-32zM16,231h32v1h-32zM272,231h32v1h-32zM16,232h32v1h-32zM272,232h32v1h-32zM16,233h32v1h-32zM272,233h32v1h-32zM16,234h32v1h-32zM272,234h32v1h-32zM16,235h32v1h-32zM272,235h32v1h-32zM16,236h32v1h-32zM272,236h32v1h-32zM16,237h32v1h-32zM272,237h32v1h-32zM16,238h32v1h-32zM272,238h32v1h-32zM16,239h32v1h-32zM272,239h32v1h-32zM16,240h171v1h-171zM272,240h171v1h-171zM16,241h175v1h-175zM272,241h175v1h-175zM16,242h179v1h-179zM272,242h179v1h-179zM16,243h182v1h-182zM272,243h182v1h-182zM16,244h185v1h-185zM272,244h185v1h-185zM16,245h187v1h-187zM272,245h187v1h-187zM16,246h189v1h-189zM272,246h189v1h-189zM16,247h191v1h-191zM272,247h191v1h-191zM16,248h193v1h-193zM272,248h193v1h-193zM16,249h194v1h-194zM272,249h194v1h-194zM16,250h196v1h-196zM272,250h196v1h-196zM16,251h197v1h-197zM272,251h197v1h-197zM16,252h199v1h-199zM272,252h199v1h-199zM16,253h200v1h-200zM272,253h200v1h-200zM16,254h201v1h-201zM272,254h201v1h-201zM16,255h202v1h-202zM272,255h202v1h-202zM16,256h203v1h-203zM272,256h203v1h-203zM16,257h204v1h-204zM272,257h204v1h-204zM16,258h206v1h-206zM272,258h206v1h-206zM16,259h206v1h-206zM272,259h206v1h-206zM16,260h207v1h-207zM272,260h207v1h-207zM16,261h208v1h-208zM272,261h208v1h-208zM16,262h209v1h-209zM272,262h209v1h-209zM16,263h210v1h-210zM272,263h210v1h-210zM16,264h211v1h-211zM272,264h211v1h-211zM16,265h212v1h-212zM272,265h212v1h-212zM16,266h212v1h-212zM272,266h212v1h-212zM16,267h213v1h-213zM272,267h213v1h-213zM16,268h214v1h-214zM272,268h214v1h-214zM16,269h214v1h-214zM272,269h214v1h-214zM16,270h215v1h-215zM272,270h215v1h-215zM16,271h216v1h-216zM272,271h216v1h-216zM16,272h216v1h-216zM272,272h216v1h-216zM16,273h217v1h-217zM272,273h217v1h-217zM16,274h217v1h-217zM272,274h217v1h-217zM16,275h218v1h-218zM272,275h218v1h-218zM16,276h218v1h-218zM272,276h218v1h-218zM16,277h219v1h-219zM272,277h219v1h-219zM16,278h219v1h-219zM272,278h219v1h-219zM16,279h220v1h-220zM272,279h220v1h-220zM16,280h220v1h-220zM272,280h220v1h-220zM16,281h220v1h-220zM272,281h220v1h-220zM16,282h221v1h-221zM272,282h221v1h-221zM16,283h221v1h-221zM272,283h221v1h-221zM16,284h221v1h-221zM272,284h221v1h-221zM16,285h222v1h-222zM272,285h222v1h-222zM16,286h222v1h-222zM272,286h222v1h-222zM16,287h222v1h-222zM272,287h222v1h-222zM16,288h222v1h-222zM272,288h222v1h-222zM16,289h223v1h-223zM272,289h223v1h-223zM16,290h223v1h-223zM272,290h223v1h-223zM16,291h223v1h-223zM272,291h223v1h-223zM16,292h223v1h-223zM272,292h223v1h-223zM16,293h224v1h-224zM272,293h224v1h-224zM16,294h224v1h-224zM272,294h224v1h-224zM16,295h224v1h-224zM272,295h224v1h-224zM16,296h224v1h-224zM272,296h224v1h-224zM16,297h224v1h-224zM272,297h224v1h-224zM16,298h224v1h-224zM272,298h224v1h-224zM16,299h224v1h-224zM272,299h224v1h-224zM16,300h224v1h-224zM272,300h224v1h-224zM16,301h224v1h-224zM272,301h224v1h-224zM16,302h224v1h-224zM272,302h224v1h-224zM16,303h224v1h-224zM272,303h224v1h-224zM16,304h224v1h-224zM272,304h224v1h-224zM16,305h224v1h-224zM272,305h224v1h-224zM16,306h224v1h-224zM272,306h224v1h-224zM16,307h224v1h-224zM272,307h224v1h-224zM16,308h224v1h-224zM272,308h224v1h-224zM16,309h224v1h-224zM272,309h224v1h-224zM16,310h224v1h-224zM272,310h224v1h-224zM16,311h224v1h-224zM272,311h224v1h-224zM16,312h224v1h-224zM272,312h224v1h-224zM16,313h224v1h-224zM272,313h224v1h-224zM16,314h224v1h-224zM272,314h224v1h-224zM16,315h224v1h-224zM272,315h224v1h-224zM16,316h224v1h-224zM272,316h224v1h-224zM16,317h224v1h-224zM272,317h224v1h-224zM16,318h224v1h-224zM272,318h224v1h-224zM16,319h224v1h-224zM272,319h224v1h-224zM16,320h224v1h-224zM272,320h224v1h-224zM16,321h224v1h-224zM272,321h224v1h-224zM16,322h224v1h-224zM272,322h224v1h-224zM16,323h224v1h-224zM272,323h224v1h-224zM16,324h224v1h-224zM272,324h224v1h-224zM16,325h224v1h-224zM272,325h224v1h-224zM16,326h224v1h-224zM272,326h224v1h-224zM16,327h224v1h-224zM272,327h224v1h-224zM16,328h224v1h-224zM272,328h224v1h-224zM16,329h224v1h-224zM272,329h224v1h-224zM16,330h224v1h-224zM272,330h224v1h-224zM16,331h224v1h-224zM272,331h224v1h-224zM16,332h224v1h-224zM272,332h224v1h-224zM16,333h224v1h-224zM272,333h224v1h-224zM16,334h224v1h-224zM272,334h224v1h-224zM16,335h224v1h-224zM272,335h224v1h-224zM16,336h224v1h-224zM272,336h224v1h-224zM16,337h224v1h-224zM272,337h224v1h-224zM16,338h224v1h-224zM272,338h224v1h-224zM16,339h224v1h-224zM272,339h224v1h-224zM16,340h224v1h-224zM272,340h224v1h-224zM16,341h224v1h-224zM272,341h224v1h-224zM16,342h224v1h-224zM272,342h224v1h-224zM16,343h224v1h-224zM272,343h224v1h-224zM16,344h224v1h-224zM272,344h224v1h-224zM16,345h224v1h-224zM272,345h224v1h-224zM16,346h224v1h-224zM272,346h224v1h-224zM16,347h224v1h-224zM272,347h224v1h-224zM16,348h224v1h-224zM272,348h224v1h-224zM16,349h224v1h-224zM272,349h224v1h-224zM16,350h224v1h-224zM272,350h224v1h-224zM16,351h224v1h-224zM272,351h224v1h-224zM16,352h224v1h-224zM272,352h224v1h-224zM16,353h224v1h-224zM272,353h224v1h-224zM16,354h224v1h-224zM272,354h224v1h-224zM16,355h224v1h-224zM272,355h224v1h-224zM16,356h224v1h-224zM272,356h224v1h-224zM16,357h224v1h-224zM272,357h224v1h-224zM16,358h224v1h-224zM272,358h224v1h-224zM16,359h224v1h-224zM272,359h224v1h-224zM16,360h224v1h-224zM272,360h224v1h-224zM16,361h224v1h-224zM272,361h224v1h-224zM16,362h224v1h-224zM272,362h224v1h-224zM16,363h224v1h-224zM272,363h224v1h-224zM16,364h224v1h-224zM272,364h224v1h-224zM16,365h224v1h-224zM272,365h224v1h-224zM16,366h224v1h-224zM272,366h224v1h-224zM16,367h224v1h-224zM272,367h224v1h-224zM16,368h224v1h-224zM272,368h224v1h-224zM16,369h224v1h-224zM272,369h224v1h-224zM16,370h224v1h-224zM272,370h224v1h-224zM16,371h224v1h-224zM272,371h224v1h-224zM16,372h224v1h-224zM272,372h224v1h-224zM16,373h224v1h-224zM272,373h224v1h-224zM16,374h224v1h-224zM272,374h224v1h-224zM16,375h224v1h-224zM272,375h224v1h-224zM16,376h224v1h-224zM272,376h224v1h-224zM16,377h224v1h-224zM272,377h224v1h-224zM16,378h224v1h-224zM272,378h224v1h-224zM16,379h224v1h-224zM272,379h224v1h-224zM16,380h224v1h-224zM272,380h224v1h-224zM16,381h224v1h-224zM272,381h224v1h-224zM16,382h224v1h-224zM272,382h224v1h-224zM16,383h224v1h-224zM272,383h224v1h-224zM16,384h224v1h-224zM272,384h224v1h-224zM16,385h224v1h-224zM272,385h224v1h-224zM16,386h224v1h-224zM272,386h224v1h-224zM16,387h224v1h-224zM272,387h224v1h-224zM16,388h224v1h-224zM272,388h224v1h-224zM16,389h224v1h-224zM272,389h224v1h-224zM16,390h224v1h-224zM272,390h224v1h-224zM16,391h224v1h-224zM272,391h224v1h-224zM16,392h224v1h-224zM272,392h224v1h-224zM16,393h224v1h-224zM272,393h224v1h-224zM16,394h224v1h-224zM272,394h224v1h-224zM16,395h224v1h-224zM272,395h224v1h-224zM16,396h224v1h-224zM272,396h224v1h-224zM16,397h224v1h-224zM272,397h224v1h-224zM16,398h224v1h-224zM272,398h224v1h-224zM16,399h224v1h-224zM272,399h224v1h-224zM16,400h224v1h-224zM272,400h224v1h-224zM16,401h224v1h-224zM272,401h224v1h-224zM16,402h224v1h-224zM272,402h224v1h-224zM16,403h224v1h-224zM272,403h224v1h-224zM16,404h224v1h-224zM272,404h224v1h-224zM16,405h224v1h-224zM272,405h224v1h-224zM16,406h224v1h-224zM272,406h224v1h-224zM16,407h224v1h-224zM272,407h224v1h-224zM16,408h224v1h-224zM272,408h224v1h-224zM16,409h224v1h-224zM272,409h224v1h-224zM16,410h224v1h-224zM272,410h224v1h-224zM16,411h224v1h-224zM272,411h224v1h-224zM16,412h224v1h-224zM272,412h224v1h-224zM16,413h224v1h-224zM272,413h224v1h-224zM16,414h224v1h-224zM272,414h224v1h-224zM16,415h224v1h-224zM272,415h224v1h-224zM16,416h224v1h-224zM272,416h224v1h-224zM16,417h224v1h-224zM272,417h224v1h-224zM16,418h224v1h-224zM272,418h224v1h-224zM16,419h224v1h-224zM272,419h224v1h-224zM16,420h224v1h-224zM272,420h224v1h-224zM16,421h224v1h-224zM272,421h224v1h-224zM16,422h224v1h-224zM272,422h224v1h-224zM16,423h224v1h-224zM272,423h224v1h-224zM16,424h224v1h-224zM272,424h224v1h-224zM16,425h224v1h-224zM272,425h224v1h-224zM16,426h223v1h-223zM272,426h223v1h-223zM17,427h222v1h-222zM273,427h222v1h-222zM17,428h222v1h-222zM273,428h222v1h-222zM17,429h222v1h-222zM273,429h222v1h-222zM17,430h222v1h-222zM273,430h222v1h-222zM18,431h220v1h-220zM274,431h220v1h-220zM18,432h220v1h-220zM274,432h220v1h-220zM18,433h220v1h-220zM274,433h220v1h-220zM18,434h220v1h-220zM274,434h220v1h-220zM19,435h218v1h-218zM275,435h218v1h-218zM19,436h218v1h-218zM275,436h218v1h-218zM19,437h218v1h-218zM275,437h218v1h-218zM20,438h216v1h-216zM276,438h216v1h-216zM20,439h216v1h-216zM276,439h216v1h-216zM20,440h216v1h-216zM276,440h216v1h-216zM21,441h214v1h-214zM277,441h214v1h-214zM21,442h214v1h-214zM277,442h214v1h-214zM22,443h212v1h-212zM278,443h212v1h-212zM22,444h212v1h-212zM278,444h212v1h-212zM23,445h210v1h-210zM279,445h210v1h-210zM23,446h210v1h-210zM279,446h210v1h-210zM24,447h208v1h-208zM280,447h208v1h-208zM24,448h207v1h-207zM280,448h207v1h-207zM25,449h206v1h-206zM281,449h206v1h-206zM26,450h204v1h-204zM282,450h204v1h-204zM26,451h204v1h-204zM282,451h204v1h-204zM27,452h202v1h-202zM283,452h202v1h-202zM28,453h200v1h-200zM284,453h200v1h-200zM28,454h199v1h-199zM284,454h199v1h-199zM29,455h198v1h-198zM285,455h198v1h-198zM30,456h196v1h-196zM286,456h196v1h-196zM31,457h194v1h-194zM287,457h194v1h-194zM32,458h192v1h-192zM288,458h192v1h-192zM33,459h190v1h-190zM289,459h190v1h-190zM34,460h188v1h-188zM290,460h188v1h-188zM34,461h188v1h-188zM290,461h188v1h-188zM36,462h184v1h-184zM292,462h184v1h-184zM37,463h182v1h-182zM293,463h182v1h-182zM38,464h180v1h-180zM294,464h180v1h-180zM39,465h178v1h-178zM295,465h178v1h-178zM40,466h176v1h-176zM296,466h176v1h-176zM42,467h173v1h-173zM298,467h173v1h-173zM43,468h170v1h-170zM299,468h170v1h-170zM44,469h168v1h-168zM300,469h168v1h-168zM46,470h164v1h-164zM302,470h164v1h-164zM48,471h161v1h-161zM304,471h161v1h-161zM49,472h158v1h-158zM305,472h158v1h-158zM51,473h154v1h-154zM307,473h154v1h-154zM53,474h150v1h-150zM309,474h150v1h-150zM56,475h145v1h-145zM312,475h145v1h-145zM58,476h140v1h-140zM314,476h140v1h-140zM61,477h134v1h-134zM317,477h134v1h-134zM65,478h126v1h-126zM321,478h126v1h-126zM69,479h118v1h-118zM325,479h118v1h-118z"/></svg>