<?xml version="1.0" encoding="UTF-8"?>
<svg xmlns="http://www.w3.org/2000/svg" viewBox="0 0 512 512" width="512" height="512"><path fill="#000" d="M247,42h18v1h-18zM233,43h46v1h-46zM226,44h61v1h-61zM219,45h74v1h-74zM214,46h84v1h-84zM209,47h94v1h-94zM205,48h102v1h-102zM201,49h110v1h-110zM197,50h118v1h-118zM194,51h124v1h-124zM191,52h130v1h-130zM188,53h136v1h-136zM185,54h142v1h-142zM182,55h148v1h-148zM179,56h154v1h-154zM177,57h158v1h-158zM174,58h164v1h-164zM172,59h168v1h-168zM170,60h172v1h-172zM167,61h178v1h-178zM165,62h182v1h-182zM163,63h186v1h-186zM161,64h190v1h-190zM159,65h194v1h-194zM157,66h198v1h-198zM155,67h202v1h-202zM153,68h206v1h-206zM152,69h208v1h-208zM150,70h212v1h-212zM148,71h216v1h-216zM146,72h220v1h-220zM145,73h222v1h-222zM143,74h226v1h-226zM142,75h228v1h-228zM140,76h232v1h-232zM139,77h234v1h-234zM137,78h238v1h-238zM136,79h240v1h-240zM134,80h244v1h-244zM133,81h246v1h-246zM131,82h250v1h-250zM130,83h252v1h-252zM128,84h256v1h-256zM127,85h258v1h-258zM126,86h114v1h-114zM272,86h114v1h-114zM125,87h106v1h-106zM281,87h106v1h-106zM123,88h102v1h-102zM287,88h102v1h-102zM122,89h98v1h-98zM292,89h98v1h-98zM121,90h95v1h-95zM296,90h95v1h-95zM120,91h92v1h-92zM300,91h92v1h-92zM118,92h90v1h-90zM304,92h90v1h-90zM117,93h88v1h-88zM307,93h88v1h-88zM116,94h86v1h-86zM310,94h86v1h-86zM115,95h84v1h-84zM313,95h84v1h-84zM114,96h82v1h-82zM316,96h82v1h-82zM113,97h81v1h-81zM318,97h81v1h-81zM112,98h79v1h-79zM321,98h79v1h-79zM111,99h78v1h-78zM323,99h78v1h-78zM109,100h78v1h-78zM325,100h78v1h-78zM108,101h76v1h-76zM328,101h76v1h-76zM107,102h75v1h-75zM330,102h75v1h-75zM106,103h74v1h-74zM332,103h74v1h-74zM105,104h73v1h-73zM334,104h73v1h-73zM104,105h72v1h-72zM336,105h72v1h-72zM103,106h71v1h-71zM338,106h71v1h-71zM102,107h71v1h-71zM339,107h71v1h-71zM101,108h70v1h-70zM341,108h70v1h-70zM101,109h68v1h-68zM343,109h69v1h-69zM100,110h67v1h-67zM345,110h67v1h-67zM99,111h67v1h-67zM346,111h67v1h-67zM98,112h66v1h-66zM348,112h66v1h-66zM97,113h66v1h-66zM349,113h66v1h-66zM96,114h65v1h-65zM351,114h65v1h-65zM95,115h65v1h-65zM352,115h65v1h-65zM94,116h64v1h-64zM354,116h64v1h-64zM93,117h64v1h-64zM355,117h64v1h-64zM92,118h64v1h-64zM356,118h64v1h-64zM92,119h62v1h-62zM358,119h62v1h-62zM91,120h62v1h-62zM359,120h62v1h-62zM90,121h62v1h-62zM360,121h62v1h-62zM89,122h61v1h-61zM362,122h61v1h-61zM88,123h61v1h-61zM363,123h61v1h-61zM88,124h60v1h-60zM364,124h60v1h-60zM87,125h60v1h-60zM365,125h60v1h-60zM86,126h59v1h-59zM367,126h59v1h-59zM85,127h59v1h-59zM368,127h59v1h-59zM84,128h59v1h-59zM369,128h58v1h-58zM84,129h58v1h-58zM370,129h58v1h-58zM83,130h58v1h-58zM371,130h58v1h-58zM82,131h58v1h-58zM372,131h58v1h-58zM82,132h57v1h-57zM373,132h57v1h-57zM81,133h57v1h-57zM374,133h57v1h-57zM80,134h57v1h-57zM375,134h57v1h-57zM80,135h56v1h-56zM376,135h56v1h-56zM79,136h56v1h-56zM377,136h56v1h-56zM78,137h56v1h-56zM378,137h56v1h-56zM78,138h55v1h-55zM379,138h55v1h-55zM77,139h55v1h-55zM380,139h55v1h-55zM76,140h55v1h-55zM381,140h55v1h-55zM76,141h54v1h-54zM382,141h54v1h-54zM75,142h54v1h-54zM383,142h54v1h-54zM74,143h54v1h-54zM384,143h54v1h-54zM74,144h53v1h-53zM385,144h53v1h-53zM73,145h53v1h-53zM386,145h53v1h-53zM72,146h54v1h-54zM386,146h54v1h-54zM72,147h53v1h-53zM387,147h53v1h-53zM71,148h53v1h-53zM388,148h53v1h-53zM71,149h52v1h-52zM389,149h52v1h-52zM70,150h52v1h-52zM390,150h52v1h-52zM70,151h52v1h-52zM390,151h52v1h-52zM69,152h52v1h-52zM391,152h52v1h-52zM68,153h52v1h-52zM392,153h52v1h-52zM68,154h51v1h-51zM393,154h51v1h-51zM67,155h52v1h-52zM393,155h52v1h-52zM67,156h51v1h-51zM394,156h51v1h-51zM66,157h51v1h-51zM395,157h51v1h-51zM66,158h50v1h-50zM396,158h50v1h-50zM65,159h51v1h-51zM396,159h51v1h-51zM65,160h50v1h-50zM397,160h50v1h-50zM64,161h50v1h-50zM398,161h50v1h-50zM64,162h50v1h-50zM398,162h50v1h-50zM63,163h50v1h-50zM399,163h50v1h-50zM63,164h49v1h-49zM400,164h49v1h-49zM62,165h50v1h-50zM400,165h50v1h-50zM62,166h49v1h-49zM401,166h49v1h-49zM61,167h49v1h-49zM402,167h48v1h-48zM61,168h49v1h-49zM402,168h49v1h-49zM61,169h48v1h-48zM403,169h48v1h-48zM60,170h49v1h-49zM403,170h49v1h-49zM60,171h48v1h-48zM404,171h48v1h-48zM59,172h49v1h-49zM404,172h49v1h-49zM59,173h48v1h-48zM405,173h48v1h-48zM58,174h48v1h-48zM406,174h48v1h-48zM58,175h48v1h-48zM406,175h48v1h-48zM58,176h47v1h-47zM407,176h47v1h-47zM57,177h48v1h-48zM407,177h48v1h-48zM57,178h47v1h-47zM408,178h47v1h-47zM56,179h48v1h-48zM408,179h48v1h-48zM56,180h47v1h-47zM409,180h47v1h-47zM56,181h47v1h-47zM409,181h47v1h-47zM55,182h47v1h-47zM410,182h47v1h-47zM55,183h47v1h-47zM410,183h47v1h-47zM55,184h46v1h-46zM411,184h46v1h-46zM54,185h47v1h-47zM411,185h47v1h-47zM54,186h47v1h-47zM411,186h47v1h-47zM54,187h46v1h-46zM412,187h46v1h-46zM53,188h47v1h-47zM412,188h47v1h-47zM53,189h46v1h-46zM413,189h46v1h-46zM53,190h46v1h-46zM413,190h46v1h-46zM52,191h46v1h-46zM414,191h46v1h-46zM52,192h46v1h-46zM414,192h46v1h-46zM52,193h46v1h-46zM414,193h46v1h-46zM51,194h46v1h-46zM415,194h46v1h-46zM51,195h46v1h-46zM415,195h46v1h-46zM51,196h45v1h-45zM416,196h45v1h-45zM50,197h46v1h-46zM416,197h46v1h-46zM50,198h46v1h-46zM416,198h46v1h-46zM50,199h45v1h-45zM417,199h45v1h-45zM50,200h45v1h-45zM417,200h45v1h-45zM49,201h46v1h-46zM417,201h46v1h-46zM49,202h45v1h-45zM418,202h45v1h-45zM49,203h45v1h-45zM418,203h45v1h-45zM49,204h45v1h-45zM418,204h45v1h-45zM48,205h45v1h-45zM419,205h45v1h-45zM48,206h45v1h-45zM419,206h45v1h-45zM48,207h45v1h-45zM419,207h45v1h-45zM48,208h44v1h-44zM420,208h44v1h-44zM47,209h45v1h-45zM420,209h45v1h-45zM47,210h45v1h-45zM420,210h45v1h-45zM47,211h45v1h-45zM420,211h45v1h-45zM47,212h44v1h-44zM421,212h44v1h-44zM47,213h44v1h-44zM421,213h44v1h-44zM46,214h45v1h-45zM421,214h45v1h-45zM46,215h45v1h-45zM421,215h45v1h-45zM46,216h44v1h-44zM422,216h44v1h-44zM46,217h44v1h-44zM422,217h44v1h-44zM46,218h44v1h-44zM422,218h44v1h-44zM45,219h45v1h-45zM422,219h45v1h-45zM45,220h44v1h-44zM423,220h44v1h-44zM45,221h44v1h-44zM423,221h44v1h-44zM45,222h44v1h-44zM423,222h44v1h-44zM45,223h44v1h-44zM423,223h44v1h-44zM45,224h44v1h-44zM423,224h44v1h-44zM44,225h44v1h-44zM424,225h44v1h-44zM44,226h44v1h-44zM424,226h44v1h-44zM44,227h44v1h-44zM424,227h44v1h-44zM44,228h44v1h-44zM424,228h44v1h-44zM44,229h44v1h-44zM424,229h44v1h-44zM44,230h44v1h-44zM424,230h44v1h-44zM44,231h43v1h-43zM424,231h44v1h-44zM44,232h43v1h-43zM425,232h43v1h-43zM43,233h44v1h-44zM425,233h44v1h-44zM43,234h44v1h-44zM146,234h220v1h-220zM425,234h44v1h-44zM43,235h44v1h-44zM142,235h228v1h-228zM425,235h44v1h-44zM43,236h44v1h-44zM140,236h232v1h-232zM425,236h44v1h-44zM43,237h44v1h-44zM138,237h236v1h-236zM425,237h44v1h-44zM43,238h44v1h-44zM137,238h238v1h-238zM425,238h44v1h-44zM43,239h44v1h-44zM135,239h242v1h-242zM425,239h44v1h-44zM43,240h43v1h-43zM134,240h244v1h-244zM426,240h43v1h-43zM43,241h43v1h-43zM133,241h246v1h-246zM426,241h43v1h-43zM43,242h43v1h-43zM132,242h248v1h-248zM426,242h43v1h-43zM43,243h43v1h-43zM132,243h248v1h-248zM426,243h43v1h-43zM43,244h43v1h-43zM131,244h250v1h-250zM426,244h43v1h-43zM43,245h43v1h-43zM130,245h252v1h-252zM426,245h43v1h-43zM43,246h43v1h-43zM130,246h252v1h-252zM426,246h43v1h-43zM42,247h44v1h-44zM129,247h254v1h-254zM426,247h43v1h-43zM42,248h44v1h-44zM129,248h254v1h-254zM426,248h44v1h-44zM42,249h44v1h-44zM129,249h254v1h-254zM426,249h44v1h-44zM42,250h44v1h-44zM128,250h256v1h-256zM426,250h44v1h-44zM42,251h44v1h-44zM128,251h256v1h-256zM426,251h44v1h-44zM42,252h44v1h-44zM128,252h256v1h-256zM426,252h44v1h-44zM42,253h44v1h-44zM128,253h256v1h-256zM426,253h44v1h-44zM42,254h44v1h-44zM128,254h256v1h-256zM426,254h44v1h-44zM42,255h44v1h-44zM128,255h256v1h-256zM426,255h44v1h-44zM42,256h44v1h-44zM128,256h256v1h-256zM426,256h44v1h-44zM42,257h44v1h-44zM128,257h256v1h-256zM426,257h44v1h-44zM42,258h44v1h-44zM128,258h256v1h-256zM426,258h44v1h-44zM42,259h44v1h-44zM128,259h256v1h-256zM426,259h44v1h-44zM42,260h44v1h-44zM128,260h256v1h-256zM426,260h44v1h-44zM42,261h44v1h-44zM128,261h256v1h-256zM426,261h44v1h-44zM42,262h44v1h-44zM129,262h254v1h-254zM426,262h44v1h-44zM42,263h44v1h-44zM129,263h254v1h-254zM426,263h44v1h-44zM42,264h44v1h-44zM129,264h254v1h-254zM426,264h43v1h-43zM43,265h43v1h-43zM130,265h252v1h-252zM426,265h43v1h-43zM43,266h43v1h-43zM130,266h252v1h-252zM426,266h43v1h-43zM43,267h43v1h-43zM131,267h250v1h-250zM426,267h43v1h-43zM43,268h43v1h-43zM132,268h248v1h-248zM426,268h43v1h-43zM43,269h43v1h-43zM132,269h248v1h-248zM426,269h43v1h-43zM43,270h43v1h-43zM133,270h246v1h-246zM426,270h43v1h-43zM43,271h43v1h-43zM134,271h244v1h-244zM426,271h43v1h-43zM43,272h44v1h-44zM135,272h242v1h-242zM425,272h44v1h-44zM43,273h44v1h-44zM137,273h238v1h-238zM425,273h44v1h-44zM43,274h44v1h-44zM138,274h236v1h-236zM425,274h44v1h-44zM43,275h44v1h-44zM140,275h232v1h-232zM425,275h44v1h-44zM43,276h44v1h-44zM142,276h228v1h-228zM425,276h44v1h-44zM43,277h44v1h-44zM146,277h220v1h-220zM425,277h44v1h-44zM43,278h44v1h-44zM425,278h44v1h-44zM44,279h43v1h-43zM425,279h43v1h-43zM44,280h43v1h-43zM424,280h44v1h-44zM44,281h44v1h-44zM424,281h44v1h-44zM44,282h44v1h-44zM424,282h44v1h-44zM44,283h44v1h-44zM424,283h44v1h-44zM44,284h44v1h-44zM424,284h44v1h-44zM44,285h44v1h-44zM424,285h44v1h-44zM44,286h44v1h-44zM423,286h45v1h-45zM45,287h44v1h-44zM423,287h44v1h-44zM45,288h44v1h-44zM423,288h44v1h-44zM45,289h44v1h-44zM423,289h44v1h-44zM45,290h44v1h-44zM423,290h44v1h-44zM45,291h44v1h-44zM423,291h44v1h-44zM45,292h45v1h-45zM422,292h45v1h-45zM46,293h44v1h-44zM422,293h44v1h-44zM46,294h44v1h-44zM422,294h44v1h-44zM46,295h44v1h-44zM422,295h44v1h-44zM46,296h45v1h-45zM421,296h45v1h-45zM46,297h45v1h-45zM421,297h45v1h-45zM47,298h44v1h-44zM421,298h44v1h-44zM47,299h44v1h-44zM421,299h44v1h-44zM47,300h45v1h-45zM420,300h45v1h-45zM47,301h45v1h-45zM420,301h45v1h-45zM47,302h45v1h-45zM420,302h45v1h-45zM48,303h44v1h-44zM420,303h44v1h-44zM48,304h45v1h-45zM419,304h45v1h-45zM48,305h45v1h-45zM419,305h45v1h-45zM48,306h45v1h-45zM419,306h45v1h-45zM49,307h45v1h-45zM418,307h45v1h-45zM49,308h45v1h-45zM418,308h45v1h-45zM49,309h45v1h-45zM418,309h45v1h-45zM49,310h46v1h-46zM417,310h46v1h-46zM50,311h45v1h-45zM417,311h45v1h-45zM50,312h45v1h-45zM417,312h45v1h-45zM50,313h46v1h-46zM416,313h46v1h-46zM50,314h46v1h-46zM416,314h46v1h-46zM51,315h45v1h-45zM416,315h45v1h-45zM51,316h46v1h-46zM415,316h46v1h-46zM51,317h46v1h-46zM415,317h46v1h-46zM52,318h46v1h-46zM414,318h46v1h-46zM52,319h46v1h-46zM414,319h46v1h-46zM52,320h46v1h-46zM414,320h46v1h-46zM53,321h46v1h-46zM413,321h46v1h-46zM53,322h46v1h-46zM413,322h46v1h-46zM53,323h47v1h-47zM412,323h47v1h-47zM54,324h46v1h-46zM412,324h46v1h-46zM54,325h47v1h-47zM411,325h47v1h-47zM54,326h47v1h-47zM411,326h47v1h-47zM55,327h46v1h-46zM411,327h46v1h-46zM55,328h47v1h-47zM410,328h47v1h-47zM55,329h47v1h-47zM410,329h47v1h-47zM56,330h47v1h-47zM409,330h47v1h-47zM56,331h47v1h-47zM409,331h47v1h-47zM56,332h48v1h-48zM408,332h48v1h-48zM57,333h47v1h-47zM408,333h47v1h-47zM57,334h48v1h-48zM407,334h48v1h-48zM58,335h47v1h-47zM407,335h47v1h-47zM58,336h48v1h-48zM406,336h48v1h-48zM58,337h48v1h-48zM406,337h48v1h-48zM59,338h48v1h-48zM405,338h48v1h-48zM59,339h49v1h-49zM404,339h49v1h-49zM60,340h48v1h-48zM404,340h48v1h-48zM60,341h49v1h-49zM403,341h49v1h-49zM61,342h48v1h-48zM403,342h48v1h-48zM61,343h49v1h-49zM402,343h49v1h-49zM61,344h49v1h-49zM402,344h48v1h-48zM62,345h49v1h-49zM401,345h49v1h-49zM62,346h50v1h-50zM400,346h50v1h-50zM63,347h49v1h-49zM400,347h49v1h-49zM63,348h50v1h-50zM399,348h50v1h-50zM64,349h50v1h-50zM398,349h50v1h-50zM64,350h50v1h-50zM398,350h50v1h-50zM65,351h50v1h-50zM397,351h50v1h-50zM65,352h51v1h-51zM396,352h51v1h-51zM66,353h50v1h-50zM396,353h50v1h-50zM66,354h51v1h-51zM395,354h51v1h-51zM67,355h51v1h-51zM394,355h51v1h-51zM67,356h52v1h-52zM393,356h52v1h-52zM68,357h51v1h-51zM393,357h51v1h-51zM68,358h52v1h-52zM392,358h52v1h-52zM69,359h52v1h-52zM391,359h52v1h-52zM70,360h52v1h-52zM390,360h52v1h-52zM70,361h52v1h-52zM390,361h52v1h-52zM71,362h52v1h-52zM389,362h52v1h-52zM71,363h53v1h-53zM388,363h53v1h-53zM72,364h53v1h-53zM387,364h53v1h-53zM72,365h54v1h-54zM386,365h54v1h-54zM73,366h53v1h-53zM386,366h53v1h-53zM74,367h53v1h-53zM385,367h53v1h-53zM74,368h54v1h-54zM384,368h54v1h-54zM75,369h54v1h-54zM383,369h54v1h-54zM76,370h54v1h-54zM382,370h54v1h-54zM76,371h55v1h-55zM381,371h55v1h-55zM77,372h55v1h-55zM380,372h55v1h-55zM78,373h55v1h-55zM379,373h55v1h-55zM78,374h56v1h-56zM378,374h56v1h-56zM79,375h56v1h-56zM377,375h56v1h-56zM80,376h56v1h-56zM376,376h56v1h-56zM80,377h57v1h-57zM375,377h57v1h-57zM81,378h57v1h-57zM374,378h57v1h-57zM82,379h57v1h-57zM373,379h57v1h-57zM82,380h58v1h-58zM372,380h58v1h-58zM83,381h58v1h-58zM371,381h58v1h-58zM84,382h58v1h-58zM370,382h58v1h-58zM84,383h59v1h-59zM369,383h58v1h-58zM85,384h59v1h-59zM368,384h59v1h-59zM86,385h59v1h-59zM367,385h59v1h-59zM87,386h60v1h-60zM365,386h60v1h-60zM88,387h60v1h-60zM364,387h60v1h-60zM88,388h61v1h-61zM363,388h61v1h-61zM89,389h61v1h-61zM362,389h61v1h-61zM90,390h62v1h-62zM360,390h62v1h-62zM91,391h62v1h-62zM359,391h62v1h-62zM92,392h62v1h-62zM358,392h62v1h-62zM92,393h64v1h-64zM356,393h64v1h-64zM93,394h64v1h-64zM355,394h64v1h-64zM94,395h64v1h-64zM354,395h64v1h-64zM95,396h65v1h-65zM352,396h65v1h-65zM96,397h65v1h-65zM351,397h65v1h-65zM97,398h66v1h-66zM349,398h66v1h-66zM98,399h66v1h-66zM348,399h66v1h-66zM99,400h67v1h-67zM346,400h67v1h-67zM100,401h67v1h-67zM345,401h67v1h-67zM101,402h68v1h-68zM343,402h69v1h-69zM101,403h70v1h-70zM341,403h70v1h-70zM102,404h71v1h-71zM339,404h71v1h-71zM103,405h71v1h-71zM338,405h71v1h-71zM104,406h72v1h-72zM336,406h72v1h-72zM105,407h73v1h-73zM334,407h73v1h-73zM106,408h74v1h-74zM332,408h74v1h-74zM107,409h75v1h-75zM330,409h75v1h-75zM108,410h76v1h-76zM328,410h76v1h-76zM109,411h78v1h-78zM325,411h77v1h-77zM111,412h78v1h-78zM323,412h78v1h-78zM112,413h79v1h-79zM321,413h79v1h-79zM113,414h81v1h-81zM318,414h81v1h-81zM114,415h82v1h-82zM316,415h82v1h-82zM115,416h84v1h-84zM313,416h84v1h-84zM116,417h86v1h-86zM310,417h86v1h-86zM117,418h88v1h-88zM307,418h88v1h-88zM118,419h90v1h-90zM304,419h90v1h-90zM120,420h92v1h-92zM300,420h92v1h-92zM121,421h95v1h-95zM296,421h95v1h-95zM122,422h98v1h-98zM292,422h98v1h-98zM123,423h102v1h-102zM287,423h102v1h-102zM125,424h107v1h-107zM280,424h107v1h-107zM126,425h114v1h-114zM272,425h114v1h-114zM127,426h258v1h-258zM129,427h254v1h-254zM130,428h252v1h-252zM131,429h250v1h-250zM133,430h246v1h-246zM134,431h244v1h-244zM136,432h240v1h-240zM137,433h238v1h-238zM139,434h234v1h-234zM140,435h232v1h-232zM142,436h228v1h-228zM143,437h226v1h-226zM145,438h222v1h-222zM147,439h219v1h-219zM148,440h216v1h-216zM150,441h212v1h-212zM152,442h208v1h-208zM153,443h206v1h-206zM155,444h202v1h-202zM157,445h198v1h-198zM159,446h194v1h-194zM161,447h190v1h-190zM163,448h186v1h-186zM165,449h182v1h-182zM168,450h176v1h-176zM170,451h172v1h-172zM172,452h168v1h-168zM174,453h164v1h-164zM177,454h158v1h-158zM179,455h154v1h-154zM182,456h148v1h-148zM185,457h142v1h-142zM188,458h136v1h-136zM191,459h130v1h-130zM194,460h124v1h-124zM197,461h118v1h-118zM201,462h110v1h-110zM205,463h102v1h-102zM209,464h94v1h-94zM214,465h84v1h-84zM219,466h74v1h-74zM226,467h61v1h-61zM233,468h46v1h-46zM247,469h18v1h-18z"/></svg>