<?xml version="1.0" encoding="UTF-8"?>
<svg xmlns="http://www.w3.org/2000/svg" viewBox="0 0 512 512" width="512" height="512"><path fill="#000" d="M102,42h308v1h-308zM94,43h324v1h-324zM90,44h332v1h-332zM87,45h338v1h-338zM84,46h344v1h-344zM81,47h350v1h-350zM79,48h354v1h-354zM77,49h358v1h-358zM75,50h362v1h-362zM73,51h366v1h-366zM72,52h368v1h-368zM70,53h372v1h-372zM69,54h374v1h-374zM68,55h376v1h-376zM66,56h380v1h-380zM65,57h382v1h-382zM64,58h384v1h-384zM63,59h386v1h-386zM62,60h388v1h-388zM61,61h390v1h-390zM60,62h392v1h-392zM59,63h394v1h-394zM58,64h396v1h-396zM57,65h398v1h-398zM56,66h400v1h-400zM56,67h400v1h-400zM55,68h402v1h-402zM54,69h404v1h-404zM53,70h406v1h-406zM53,71h406v1h-406zM52,72h408v1h-408zM51,73h409v1h-409zM51,74h410v1h-410zM50,75h412v1h-412zM50,76h412v1h-412zM49,77h414v1h-414zM49,78h414v1h-414zM48,79h416v1h-416zM48,80h416v1h-416zM47,81h418v1h-418zM47,82h418v1h-418zM47,83h418v1h-418zM46,84h420v1h-420zM46,85h420v1h-420zM46,86h55v1h-55zM411,86h55v1h-55zM45,87h53v1h-53zM414,87h53v1h-53zM45,88h51v1h-51zM416,88h51v1h-51zM45,89h50v1h-50zM417,89h50v1h-50zM44,90h49v1h-49zM419,90h49v1h-49zM44,91h48v1h-48zM420,91h48v1h-48zM44,92h47v1h-47zM421,92h47v1h-47zM44,93h46v1h-46zM422,93h46v1h-46zM43,94h47v1h-47zM422,94h47v1h-47zM43,95h46v1h-46zM423,95h46v1h-46zM43,96h45v1h-45zM424,96h45v1h-45zM43,97h45v1h-45zM424,97h45v1h-45zM43,98h44v1h-44zM425,98h44v1h-44zM43,99h44v1h-44zM425,99h44v1h-44zM43,100h44v1h-44zM425,100h44v1h-44zM43,101h43v1h-43zM426,101h43v1h-43zM42,102h44v1h-44zM426,102h44v1h-44zM42,103h44v1h-44zM426,103h44v1h-44zM42,104h44v1h-44zM426,104h44v1h-44zM42,105h44v1h-44zM426,105h44v1h-44zM42,106h44v1h-44zM296,106h91v1h-91zM426,106h44v1h-44zM42,107h44v1h-44zM292,107h99v1h-99zM426,107h44v1h-44zM42,108h44v1h-44zM289,108h104v1h-104zM426,108h44v1h-44zM42,109h44v1h-44zM287,109h108v1h-108zM426,109h44v1h-44zM42,110h44v1h-44zM286,110h111v1h-111zM426,110h44v1h-44zM42,111h44v1h-44zM285,111h113v1h-113zM426,111h44v1h-44zM42,112h44v1h-44zM283,112h116v1h-116zM426,112h44v1h-44zM42,113h44v1h-44zM283,113h117v1h-117zM426,113h44v1h-44zM42,114h44v1h-44zM282,114h119v1h-119zM426,114h44v1h-44zM42,115h44v1h-44zM281,115h121v1h-121zM426,115h44v1h-44zM42,116h44v1h-44zM280,116h122v1h-122zM426,116h44v1h-44zM42,117h44v1h-44zM280,117h123v1h-123zM426,117h44v1h-44zM42,118h44v1h-44zM279,118h124v1h-124zM426,118h44v1h-44zM42,119h44v1h-44zM279,119h125v1h-125zM426,119h44v1h-44zM42,120h44v1h-44zM278,120h126v1h-126zM426,120h44v1h-44zM42,121h44v1h-44zM278,121h127v1h-127zM426,121h44v1h-44zM42,122h44v1h-44zM278,122h127v1h-127zM426,122h44v1h-44zM42,123h44v1h-44zM277,123h128v1h-128zM426,123h44v1h-44zM42,124h44v1h-44zM277,124h128v1h-128zM426,124h44v1h-44zM42,125h44v1h-44zM277,125h129v1h-129zM426,125h44v1h-44zM42,126h44v1h-44zM277,126h129v1h-129zM426,126h44v1h-44zM42,127h44v1h-44zM277,127h129v1h-129zM426,127h44v1h-44zM42,128h44v1h-44zM277,128h129v1h-129zM426,128h44v1h-44zM42,129h44v1h-44zM277,129h129v1h-129zM426,129h44v1h-44zM42,130h44v1h-44zM277,130h129v1h-129zM426,130h44v1h-44zM42,131h44v1h-44zM277,131h129v1h-129zM426,131h44v1h-44zM42,132h44v1h-44zM277,132h129v1h-129zM426,132h44v1h-44zM42,133h44v1h-44zM278,133h128v1h-128zM426,133h44v1h-44zM42,134h44v1h-44zM278,134h128v1h-128zM426,134h44v1h-44zM42,135h44v1h-44zM278,135h128v1h-128zM426,135h44v1h-44zM42,136h44v1h-44zM279,136h127v1h-127zM426,136h44v1h-44zM42,137h44v1h-44zM279,137h127v1h-127zM426,137h44v1h-44zM42,138h44v1h-44zM280,138h126v1h-126zM426,138h44v1h-44zM42,139h44v1h-44zM280,139h126v1h-126zM426,139h44v1h-44zM42,140h44v1h-44zM281,140h125v1h-125zM426,140h44v1h-44zM42,141h44v1h-44zM282,141h124v1h-124zM426,141h44v1h-44zM42,142h44v1h-44zM283,142h123v1h-123zM426,142h44v1h-44zM42,143h44v1h-44zM283,143h123v1h-123zM426,143h44v1h-44zM42,144h44v1h-44zM285,144h121v1h-121zM426,144h44v1h-44zM42,145h44v1h-44zM286,145h120v1h-120zM426,145h44v1h-44zM42,146h44v1h-44zM287,146h119v1h-119zM426,146h44v1h-44zM42,147h44v1h-44zM289,147h117v1h-117zM426,147h44v1h-44zM42,148h44v1h-44zM292,148h114v1h-114zM426,148h44v1h-44zM42,149h44v1h-44zM296,149h110v1h-110zM426,149h44v1h-44zM42,150h44v1h-44zM362,150h44v1h-44zM426,150h44v1h-44zM42,151h44v1h-44zM362,151h44v1h-44zM426,151h44v1h-44zM42,152h44v1h-44zM362,152h44v1h-44zM426,152h44v1h-44zM42,153h44v1h-44zM362,153h44v1h-44zM426,153h44v1h-44zM42,154h44v1h-44zM362,154h44v1h-44zM426,154h44v1h-44zM42,155h44v1h-44zM362,155h44v1h-44zM426,155h44v1h-44zM42,156h44v1h-44zM362,156h44v1h-44zM426,156h44v1h-44zM42,157h44v1h-44zM362,157h44v1h-44zM426,157h44v1h-44zM42,158h44v1h-44zM362,158h44v1h-44zM426,158h44v1h-44zM42,159h44v1h-44zM362,159h44v1h-44zM426,159h44v1h-44zM42,160h44v1h-44zM362,160h44v1h-44zM426,160h44v1h-44zM42,161h44v1h-44zM362,161h44v1h-44zM426,161h44v1h-44zM42,162h44v1h-44zM362,162h44v1h-44zM426,162h44v1h-44zM42,163h44v1h-44zM362,163h44v1h-44zM426,163h44v1h-44zM42,164h44v1h-44zM362,164h44v1h-44zM426,164h44v1h-44zM42,165h44v1h-44zM362,165h44v1h-44zM426,165h44v1h-44zM42,166h44v1h-44zM362,166h44v1h-44zM426,166h44v1h-44zM42,167h44v1h-44zM362,167h44v1h-44zM426,167h44v1h-44zM42,168h44v1h-44zM362,168h44v1h-44zM426,168h44v1h-44zM42,169h44v1h-44zM362,169h44v1h-44zM426,169h44v1h-44zM42,170h44v1h-44zM362,170h44v1h-44zM426,170h44v1h-44zM42,171h44v1h-44zM362,171h44v1h-44zM426,171h44v1h-44zM42,172h44v1h-44zM362,172h44v1h-44zM426,172h44v1h-44zM42,173h44v1h-44zM362,173h44v1h-44zM426,173h44v1h-44zM42,174h44v1h-44zM362,174h44v1h-44zM426,174h44v1h-44zM42,175h44v1h-44zM362,175h44v1h-44zM426,175h44v1h-44zM42,176h44v1h-44zM362,176h44v1h-44zM426,176h44v1h-44zM42,177h44v1h-44zM362,177h44v1h-44zM426,177h44v1h-44zM42,178h44v1h-44zM362,178h44v1h-44zM426,178h44v1h-44zM42,179h44v1h-44zM362,179h44v1h-44zM426,179h44v1h-44zM42,180h44v1h-44zM362,180h44v1h-44zM426,180h44v1h-44zM42,181h44v1h-44zM362,181h44v1h-44zM426,181h44v1h-44zM42,182h44v1h-44zM362,182h44v1h-44zM426,182h44v1h-44zM42,183h44v1h-44zM362,183h44v1h-44zM426,183h44v1h-44zM42,184h44v1h-44zM362,184h44v1h-44zM426,184h44v1h-44zM42,185h44v1h-44zM362,185h44v1h-44zM426,185h44v1h-44zM42,186h44v1h-44zM362,186h44v1h-44zM426,186h44v1h-44zM42,187h44v1h-44zM362,187h44v1h-44zM426,187h44v1h-44zM42,188h44v1h-44zM362,188h44v1h-44zM426,188h44v1h-44zM42,189h44v1h-44zM362,189h44v1h-44zM426,189h44v1h-44zM42,190h44v1h-44zM362,190h44v1h-44zM426,190h44v1h-44zM42,191h44v1h-44zM362,191h44v1h-44zM426,191h44v1h-44zM42,192h44v1h-44zM362,192h44v1h-44zM426,192h44v1h-44zM42,193h44v1h-44zM362,193h44v1h-44zM426,193h44v1h-44zM42,194h44v1h-44zM362,194h44v1h-44zM426,194h44v1h-44zM42,195h44v1h-44zM362,195h44v1h-44zM426,195h44v1h-44zM42,196h44v1h-44zM362,196h44v1h-44zM426,196h44v1h-44zM42,197h44v1h-44zM362,197h44v1h-44zM426,197h44v1h-44zM42,198h44v1h-44zM362,198h44v1h-44zM426,198h44v1h-44zM42,199h44v1h-44zM362,199h44v1h-44zM426,199h44v1h-44zM42,200h44v1h-44zM362,200h44v1h-44zM426,200h44v1h-44zM42,201h44v1h-44zM362,201h44v1h-44zM426,201h44v1h-44zM42,202h44v1h-44zM362,202h44v1h-44zM426,202h44v1h-44zM42,203h44v1h-44zM362,203h44v1h-44zM426,203h44v1h-44zM42,204h44v1h-44zM362,204h44v1h-44zM426,204h44v1h-44zM42,205h44v1h-44zM362,205h44v1h-44zM426,205h44v1h-44zM42,206h44v1h-44zM362,206h44v1h-44zM426,206h44v1h-44zM42,207h44v1h-44zM362,207h44v1h-44zM426,207h44v1h-44zM42,208h44v1h-44zM362,208h44v1h-44zM426,208h44v1h-44zM42,209h44v1h-44zM362,209h44v1h-44zM426,209h44v1h-44zM42,210h44v1h-44zM362,210h44v1h-44zM426,210h44v1h-44zM42,211h44v1h-44zM362,211h44v1h-44zM426,211h44v1h-44zM42,212h44v1h-44zM362,212h44v1h-44zM426,212h44v1h-44zM42,213h44v1h-44zM362,213h44v1h-44zM426,213h44v1h-44zM42,214h44v1h-44zM362,214h44v1h-44zM426,214h44v1h-44zM42,215h44v1h-44zM362,215h44v1h-44zM426,215h44v1h-44zM42,216h44v1h-44zM363,216h42v1h-42zM426,216h44v1h-44zM42,217h44v1h-44zM363,217h42v1h-42zM426,217h44v1h-44zM42,218h44v1h-44zM363,218h42v1h-42zM426,218h44v1h-44zM42,219h44v1h-44zM363,219h42v1h-42zM426,219h44v1h-44zM42,220h44v1h-44zM364,220h40v1h-40zM426,220h44v1h-44zM42,221h44v1h-44zM364,221h40v1h-40zM426,221h44v1h-44zM42,222h44v1h-44zM364,222h40v1h-40zM426,222h44v1h-44zM42,223h44v1h-44zM365,223h38v1h-38zM426,223h44v1h-44zM42,224h44v1h-44zM365,224h38v1h-38zM426,224h44v1h-44zM42,225h44v1h-44zM366,225h36v1h-36zM426,225h44v1h-44zM42,226h44v1h-44zM367,226h34v1h-34zM426,226h44v1h-44zM42,227h44v1h-44zM368,227h32v1h-32zM426,227h44v1h-44zM42,228h44v1h-44zM368,228h31v1h-31zM426,228h44v1h-44zM42,229h44v1h-44zM370,229h28v1h-28zM426,229h44v1h-44zM42,230h44v1h-44zM371,230h26v1h-26zM426,230h44v1h-44zM42,231h44v1h-44zM372,231h24v1h-24zM426,231h44v1h-44zM42,232h44v1h-44zM374,232h20v1h-20zM426,232h44v1h-44zM42,233h44v1h-44zM376,233h16v1h-16zM426,233h44v1h-44zM42,234h44v1h-44zM379,234h10v1h-10zM426,234h44v1h-44zM42,235h44v1h-44zM426,235h44v1h-44zM42,236h44v1h-44zM426,236h44v1h-44zM42,237h44v1h-44zM426,237h44v1h-44zM42,238h44v1h-44zM426,238h44v1h-44zM42,239h44v1h-44zM426,239h44v1h-44zM42,240h44v1h-44zM426,240h44v1h-44zM42,241h44v1h-44zM426,241h44v1h-44zM42,242h44v1h-44zM426,242h44v1h-44zM42,243h44v1h-44zM426,243h44v1h-44zM42,244h44v1h-44zM426,244h44v1h-44zM42,245h44v1h-44zM426,245h44v1h-44zM42,246h44v1h-44zM426,246h44v1h-44zM42,247h44v1h-44zM426,247h44v1h-44zM42,248h44v1h-44zM426,248h44v1h-44zM42,249h44v1h-44zM426,249h44v1h-44zM42,250h44v1h-44zM426,250h44v1h-44zM42,251h44v1h-44zM426,251h44v1h-44zM42,252h44v1h-44zM426,252h44v1h-44zM42,253h44v1h-44zM426,253h44v1h-44zM42,254h44v1h-44zM426,254h44v1h-44zM42,255h44v1h-44zM426,255h44v1h-44zM42,256h44v1h-44zM426,256h44v1h-44zM42,257h44v1h-44zM426,257h44v1h-44zM42,258h44v1h-44zM426,258h44v1h-44zM42,259h44v1h-44zM426,259h44v1h-44zM42,260h44v1h-44zM426,260h44v1h-44zM42,261h44v1h-44zM426,261h44v1h-44zM42,262h44v1h-44zM426,262h44v1h-44zM42,263h44v1h-44zM426,263h44v1h-44zM42,264h44v1h-44zM426,264h44v1h-44zM42,265h44v1h-44zM426,265h44v1h-44zM42,266h44v1h-44zM426,266h44v1h-44zM42,267h44v1h-44zM426,267h44v1h-44zM42,268h44v1h-44zM426,268h44v1h-44zM42,269h44v1h-44zM426,269h44v1h-44zM42,270h44v1h-44zM426,270h44v1h-44zM42,271h44v1h-44zM426,271h44v1h-44zM42,272h44v1h-44zM426,272h44v1h-44zM42,273h44v1h-44zM426,273h44v1h-44zM42,274h44v1h-44zM426,274h44v1h-44zM42,275h44v1h-44zM426,275h44v1h-44zM42,276h44v1h-44zM426,276h44v1h-44zM42,277h44v1h-44zM123,277h10v1h-10zM426,277h44v1h-44zM42,278h44v1h-44zM120,278h16v1h-16zM426,278h44v1h-44zM42,279h44v1h-44zM118,279h20v1h-20zM426,279h44v1h-44zM42,280h44v1h-44zM116,280h24v1h-24zM426,280h44v1h-44zM42,281h44v1h-44zM115,281h26v1h-26zM426,281h44v1h-44zM42,282h44v1h-44zM114,282h28v1h-28zM426,282h44v1h-44zM42,283h44v1h-44zM112,283h32v1h-32zM426,283h44v1h-44zM42,284h44v1h-44zM112,284h32v1h-32zM426,284h44v1h-44zM42,285h44v1h-44zM111,285h34v1h-34zM426,285h44v1h-44zM42,286h44v1h-44zM110,286h36v1h-36zM426,286h44v1h-44zM42,287h44v1h-44zM109,287h38v1h-38zM426,287h44v1h-44zM42,288h44v1h-44zM109,288h38v1h-38zM426,288h44v1h-44zM42,289h44v1h-44zM108,289h40v1h-40zM426,289h44v1h-44zM42,290h44v1h-44zM108,290h40v1h-40zM426,290h44v1h-44zM42,291h44v1h-44zM108,291h40v1h-40zM426,291h44v1h-44zM42,292h44v1h-44zM107,292h42v1h-42zM426,292h44v1h-44zM42,293h44v1h-44zM107,293h42v1h-42zM426,293h44v1h-44zM42,294h44v1h-44zM107,294h42v1h-42zM426,294h44v1h-44zM42,295h44v1h-44zM107,295h42v1h-42zM426,295h44v1h-44zM42,296h44v1h-44zM106,296h44v1h-44zM426,296h44v1h-44zM42,297h44v1h-44zM106,297h44v1h-44zM426,297h44v1h-44zM42,298h44v1h-44zM106,298h44v1h-44zM426,298h44v1h-44zM42,299h44v1h-44zM106,299h44v1h-44zM426,299h44v1h-44zM42,300h44v1h-44zM106,300h44v1h-44zM426,300h44v1h-44zM42,301h44v1h-44zM106,301h44v1h-44zM426,301h44v1h-44zM42,302h44v1h-44zM106,302h44v1h-44zM426,302h44v1h-44zM42,303h44v1h-44zM106,303h44v1h-44zM426,303h44v1h-44zM42,304h44v1h-44zM106,304h44v1h-44zM426,304h44v1h-44zM42,305h44v1h-44zM106,305h44v1h-44zM426,305h44v1h-44zM42,306h44v1h-44zM106,306h44v1h-44zM426,306h44v1h-44zM42,307h44v1h-44zM106,307h44v1h-44zM426,307h44v1h-44zM42,308h44v1h-44zM106,308h44v1h-44zM426,308h44v1h-44zM42,309h44v1h-44zM106,309h44v1h-44zM426,309h44v1h-44zM42,310h44v1h-44zM106,310h44v1h-44zM426,310h44v1h-44zM42,311h44v1h-44zM106,311h44v1h-44zM426,311h44v1h-44zM42,312h44v1h-44zM106,312h44v1h-44zM426,312h44v1h-44zM42,313h44v1h-44zM106,313h44v1h-44zM426,313h44v1h-44zM42,314h44v1h-44zM106,314h44v1h-44zM426,314h44v1h-44zM42,315h44v1h-44zM106,315h44v1h-44zM426,315h44v1h-44zM42,316h44v1h-44zM106,316h44v1h-44zM426,316h44v1h-44zM42,317h44v1h-44zM106,317h44v1h-44zM426,317h44v1h-44zM42,318h44v1h-44zM106,318h44v1h-44zM426,318h44v1h-44zM42,319h44v1h-44zM106,319h44v1h-44zM426,319h44v1h-44zM42,320h44v1h-44zM106,320h44v1h-44zM426,320h44v1h-44zM42,321h44v1h-44zM106,321h44v1h-44zM426,321h44v1h-44zM42,322h44v1h-44zM106,322h44v1h-44zM426,322h44v1h-44zM42,323h44v1h-44zM106,323h44v1h-44zM426,323h44v1h-44zM42,324h44v1h-44zM106,324h44v1h-44zM426,324h44v1h-44zM42,325h44v1h-44zM106,325h44v1h-44zM426,325h44v1h-44zM42,326h44v1h-44zM106,326h44v1h-44zM426,326h44v1h-44zM42,327h44v1h-44zM106,327h44v1h-44zM426,327h44v1h-44zM42,328h44v1h-44zM106,328h44v1h-44zM426,328h44v1h-44zM42,329h44v1h-44zM106,329h44v1h-44zM426,329h44v1h-44zM42,330h44v1h-44zM106,330h44v1h-44zM426,330h44v1h-44zM42,331h44v1h-44zM106,331h44v1h-44zM426,331h44v1h-44zM42,332h44v1h-44zM106,332h44v1h-44zM426,332h44v1h-44zM42,333h44v1h-44zM106,333h44v1h-44zM426,333h44v1h-44zM42,334h44v1h-44zM106,334h44v1h-44zM426,334h44v1h-44zM42,335h44v1h-44zM106,335h44v1h-44zM426,335h44v1h-44zM42,336h44v1h-44zM106,336h44v1h-44zM426,336h44v1h-44zM42,337h44v1h-44zM106,337h44v1h-44zM426,337h44v1h-44zM42,338h44v1h-44zM106,338h44v1h-44zM426,338h44v1h-44zM42,339h44v1h-44zM106,339h44v1h-44zM426,339h44v1h-44zM42,340h44v1h-44zM106,340h44v1h-44zM426,340h44v1h-44zM42,341h44v1h-44zM106,341h44v1h-44zM426,341h44v1h-44zM42,342h44v1h-44zM106,342h44v1h-44zM426,342h44v1h-44zM42,343h44v1h-44zM106,343h44v1h-44zM426,343h44v1h-44zM42,344h44v1h-44zM106,344h44v1h-44zM426,344h44v1h-44zM42,345h44v1h-44zM106,345h44v1h-44zM426,345h44v1h-44zM42,346h44v1h-44zM106,346h44v1h-44zM426,346h44v1h-44zM42,347h44v1h-44zM106,347h44v1h-44zM426,347h44v1h-44zM42,348h44v1h-44zM106,348h44v1h-44zM426,348h44v1h-44zM42,349h44v1h-44zM106,349h44v1h-44zM426,349h44v1h-44zM42,350h44v1h-44zM106,350h44v1h-44zM426,350h44v1h-44zM42,351h44v1h-44zM106,351h44v1h-44zM426,351h44v1h-44zM42,352h44v1h-44zM106,352h44v1h-44zM426,352h44v1h-44zM42,353h44v1h-44zM106,353h44v1h-44zM426,353h44v1h-44zM42,354h44v1h-44zM106,354h44v1h-44zM426,354h44v1h-44zM42,355h44v1h-44zM106,355h44v1h-44zM426,355h44v1h-44zM42,356h44v1h-44zM106,356h44v1h-44zM426,356h44v1h-44zM42,357h44v1h-44zM106,357h44v1h-44zM426,357h44v1h-44zM42,358h44v1h-44zM106,358h44v1h-44zM426,358h44v1h-44zM42,359h44v1h-44zM106,359h44v1h-44zM426,359h44v1h-44zM42,360h44v1h-44zM106,360h44v1h-44zM426,360h44v1h-44zM42,361h44v1h-44zM106,361h44v1h-44zM426,361h44v1h-44zM42,362h44v1h-44zM106,362h110v1h-110zM426,362h44v1h-44zM42,363h44v1h-44zM106,363h114v1h-114zM426,363h44v1h-44zM42,364h44v1h-44zM106,364h117v1h-117zM426,364h44v1h-44zM42,365h44v1h-44zM106,365h119v1h-119zM426,365h44v1h-44zM42,366h44v1h-44zM106,366h120v1h-120zM426,366h44v1h-44zM42,367h44v1h-44zM106,367h121v1h-121zM426,367h44v1h-44zM42,368h44v1h-44zM106,368h123v1h-123zM426,368h44v1h-44zM42,369h44v1h-44zM106,369h123v1h-123zM426,369h44v1h-44zM42,370h44v1h-44zM106,370h124v1h-124zM426,370h44v1h-44zM42,371h44v1h-44zM106,371h125v1h-125zM426,371h44v1h-44zM42,372h44v1h-44zM106,372h126v1h-126zM426,372h44v1h-44zM42,373h44v1h-44zM106,373h126v1h-126zM426,373h44v1h-44zM42,374h44v1h-44zM106,374h127v1h-127zM426,374h44v1h-44zM42,375h44v1h-44zM106,375h127v1h-127zM426,375h44v1h-44zM42,376h44v1h-44zM106,376h128v1h-128zM426,376h44v1h-44zM42,377h44v1h-44zM106,377h128v1h-128zM426,377h44v1h-44zM42,378h44v1h-44zM106,378h128v1h-128zM426,378h44v1h-44zM42,379h44v1h-44zM106,379h129v1h-129zM426,379h44v1h-44zM42,380h44v1h-44zM106,380h129v1h-129zM426,380h44v1h-44zM42,381h44v1h-44zM106,381h129v1h-129zM426,381h44v1h-44zM42,382h44v1h-44zM106,382h129v1h-129zM426,382h44v1h-44zM42,383h44v1h-44zM106,383h129v1h-129zM426,383h44v1h-44zM42,384h44v1h-44zM106,384h129v1h-129zM426,384h44v1h-44zM42,385h44v1h-44zM106,385h129v1h-129zM426,385h44v1h-44zM42,386h44v1h-44zM106,386h129v1h-129zM426,386h44v1h-44zM42,387h44v1h-44zM107,387h128v1h-128zM426,387h44v1h-44zM42,388h44v1h-44zM107,388h128v1h-128zM426,388h44v1h-44zM42,389h44v1h-44zM107,389h127v1h-127zM426,389h44v1h-44zM42,390h44v1h-44zM107,390h127v1h-127zM426,390h44v1h-44zM42,391h44v1h-44zM108,391h126v1h-126zM426,391h44v1h-44zM42,392h44v1h-44zM108,392h125v1h-125zM426,392h44v1h-44zM42,393h44v1h-44zM109,393h124v1h-124zM426,393h44v1h-44zM42,394h44v1h-44zM109,394h123v1h-123zM426,394h44v1h-44zM42,395h44v1h-44zM110,395h122v1h-122zM426,395h44v1h-44zM42,396h44v1h-44zM110,396h121v1h-121zM426,396h44v1h-44zM42,397h44v1h-44zM111,397h119v1h-119zM426,397h44v1h-44zM42,398h44v1h-44zM112,398h117v1h-117zM426,398h44v1h-44zM42,399h44v1h-44zM113,399h115v1h-115zM426,399h44v1h-44zM42,400h44v1h-44zM114,400h113v1h-113zM426,400h44v1h-44zM42,401h44v1h-44zM115,401h111v1h-111zM426,401h44v1h-44zM42,402h44v1h-44zM117,402h108v1h-108zM426,402h44v1h-44zM42,403h44v1h-44zM119,403h104v1h-104zM426,403h44v1h-44zM42,404h44v1h-44zM121,404h99v1h-99zM426,404h44v1h-44zM42,405h44v1h-44zM125,405h91v1h-91zM426,405h44v1h-44zM42,406h44v1h-44zM426,406h44v1h-44zM42,407h44v1h-44zM426,407h44v1h-44zM42,408h44v1h-44zM426,408h44v1h-44zM42,409h44v1h-44zM426,409h44v1h-44zM43,410h43v1h-43zM426,410h43v1h-43zM43,411h44v1h-44zM425,411h44v1h-44zM43,412h44v1h-44zM425,412h44v1h-44zM43,413h44v1h-44zM425,413h44v1h-44zM43,414h45v1h-45zM424,414h45v1h-45zM43,415h45v1h-45zM424,415h45v1h-45zM43,416h46v1h-46zM423,416h46v1h-46zM43,417h47v1h-47zM422,417h47v1h-47zM44,418h46v1h-46zM422,418h46v1h-46zM44,419h47v1h-47zM421,419h47v1h-47zM44,420h48v1h-48zM420,420h48v1h-48zM44,421h49v1h-49zM419,421h49v1h-49zM45,422h50v1h-50zM417,422h50v1h-50zM45,423h51v1h-51zM416,423h51v1h-51zM45,424h53v1h-53zM414,424h53v1h-53zM46,425h55v1h-55zM411,425h55v1h-55zM46,426h420v1h-420zM46,427h420v1h-420zM47,428h418v1h-418zM47,429h418v1h-418zM47,430h418v1h-418zM48,431h416v1h-416zM48,432h416v1h-416zM49,433h414v1h-414zM49,434h414v1h-414zM50,435h412v1h-412zM50,436h412v1h-412zM51,437h410v1h-410zM51,438h409v1h-409zM52,439h408v1h-408zM53,440h406v1h-406zM53,441h406v1h-406zM54,442h404v1h-404zM55,443h402v1h-402zM56,444h400v1h-400zM56,445h400v1h-400zM57,446h398v1h-398zM58,447h396v1h-396zM59,448h394v1h-394zM60,449h392v1h-392zM61,450h390v1h-390zM62,451h388v1h-388zM63,452h386v1h-386zM64,453h384v1h-384zM65,454h382v1h-382zM66,455h380v1h-380zM68,456h376v1h-376zM69,457h374v1h-374zM70,458h372v1h-372zM72,459h368v1h-368zM74,460h364v1h-364zM75,461h362v1h-362zM77,462h358v1h-358zM79,463h354v1h-354zM81,464h350v1h-350zM84,465h344v1h-344zM87,466h338v1h-338zM90,467h332v1h-332zM94,468h324v1h-324zM102,469h308v1h-308z"/></svg>