<?xml version="1.0" encoding="UTF-8"?>
<svg xmlns="http://www.w3.org/2000/svg" viewBox="0 0 512 512" width="512" height="512"><path fill="#000" d="M123,42h200v1h-200zM116,43h215v1h-215zM111,44h224v1h-224zM108,45h230v1h-230zM105,46h236v1h-236zM103,47h241v1h-241zM100,48h246v1h-246zM98,49h250v1h-250zM97,50h253v1h-253zM95,51h257v1h-257zM93,52h260v1h-260zM92,53h263v1h-263zM90,54h266v1h-266zM89,55h269v1h-269zM88,56h271v1h-271zM86,57h274v1h-274zM85,58h276v1h-276zM84,59h278v1h-278zM83,60h280v1h-280zM82,61h282v1h-282zM81,62h284v1h-284zM80,63h286v1h-286zM79,64h288v1h-288zM79,65h289v1h-289zM78,66h291v1h-291zM77,67h293v1h-293zM76,68h294v1h-294zM75,69h296v1h-296zM75,70h297v1h-297zM74,71h298v1h-298zM73,72h300v1h-300zM73,73h301v1h-301zM72,74h302v1h-302zM72,75h303v1h-303zM71,76h305v1h-305zM71,77h305v1h-305zM70,78h307v1h-307zM70,79h308v1h-308zM69,80h309v1h-309zM69,81h310v1h-310zM68,82h312v1h-312zM68,83h312v1h-312zM68,84h313v1h-313zM67,85h315v1h-315zM67,86h55v1h-55zM149,86h43v1h-43zM298,86h84v1h-84zM67,87h53v1h-53zM149,87h43v1h-43zM298,87h85v1h-85zM66,88h52v1h-52zM149,88h43v1h-43zM298,88h86v1h-86zM66,89h50v1h-50zM149,89h43v1h-43zM298,89h86v1h-86zM66,90h49v1h-49zM149,90h43v1h-43zM298,90h87v1h-87zM65,91h49v1h-49zM149,91h43v1h-43zM298,91h88v1h-88zM65,92h48v1h-48zM149,92h43v1h-43zM298,92h88v1h-88zM65,93h47v1h-47zM149,93h43v1h-43zM298,93h89v1h-89zM65,94h46v1h-46zM149,94h43v1h-43zM298,94h90v1h-90zM65,95h45v1h-45zM149,95h43v1h-43zM298,95h90v1h-90zM64,96h46v1h-46zM149,96h43v1h-43zM298,96h91v1h-91zM64,97h45v1h-45zM149,97h43v1h-43zM298,97h92v1h-92zM64,98h45v1h-45zM149,98h43v1h-43zM298,98h92v1h-92zM64,99h44v1h-44zM149,99h43v1h-43zM298,99h93v1h-93zM64,100h44v1h-44zM149,100h43v1h-43zM298,100h94v1h-94zM64,101h44v1h-44zM149,101h43v1h-43zM298,101h94v1h-94zM64,102h43v1h-43zM149,102h43v1h-43zM298,102h95v1h-95zM64,103h43v1h-43zM149,103h43v1h-43zM298,103h96v1h-96zM64,104h43v1h-43zM149,104h43v1h-43zM298,104h96v1h-96zM64,105h43v1h-43zM149,105h43v1h-43zM298,105h97v1h-97zM64,106h43v1h-43zM149,106h247v1h-247zM64,107h43v1h-43zM149,107h247v1h-247zM64,108h43v1h-43zM149,108h248v1h-248zM64,109h43v1h-43zM149,109h249v1h-249zM64,110h43v1h-43zM149,110h249v1h-249zM64,111h43v1h-43zM149,111h193v1h-193zM347,111h52v1h-52zM64,112h43v1h-43zM149,112h193v1h-193zM348,112h52v1h-52zM64,113h43v1h-43zM149,113h193v1h-193zM348,113h52v1h-52zM64,114h43v1h-43zM149,114h193v1h-193zM349,114h52v1h-52zM64,115h43v1h-43zM149,115h193v1h-193zM350,115h52v1h-52zM64,116h43v1h-43zM149,116h193v1h-193zM350,116h52v1h-52zM64,117h43v1h-43zM149,117h193v1h-193zM351,117h52v1h-52zM64,118h43v1h-43zM149,118h193v1h-193zM352,118h52v1h-52zM64,119h43v1h-43zM149,119h193v1h-193zM352,119h52v1h-52zM64,120h43v1h-43zM149,120h193v1h-193zM353,120h52v1h-52zM64,121h43v1h-43zM149,121h193v1h-193zM354,121h52v1h-52zM64,122h43v1h-43zM149,122h193v1h-193zM354,122h52v1h-52zM64,123h43v1h-43zM149,123h193v1h-193zM355,123h52v1h-52zM64,124h43v1h-43zM149,124h193v1h-193zM356,124h52v1h-52zM64,125h43v1h-43zM149,125h193v1h-193zM356,125h52v1h-52zM64,126h43v1h-43zM149,126h193v1h-193zM357,126h52v1h-52zM64,127h43v1h-43zM149,127h193v1h-193zM358,127h52v1h-52zM64,128h43v1h-43zM149,128h193v1h-193zM358,128h52v1h-52zM64,129h43v1h-43zM149,129h193v1h-193zM359,129h52v1h-52zM64,130h43v1h-43zM149,130h193v1h-193zM360,130h52v1h-52zM64,131h43v1h-43zM149,131h192v1h-192zM360,131h52v1h-52zM64,132h43v1h-43zM149,132h192v1h-192zM361,132h52v1h-52zM64,133h43v1h-43zM150,133h191v1h-191zM362,133h52v1h-52zM64,134h43v1h-43zM150,134h191v1h-191zM362,134h52v1h-52zM64,135h43v1h-43zM150,135h190v1h-190zM363,135h52v1h-52zM64,136h43v1h-43zM151,136h189v1h-189zM364,136h52v1h-52zM64,137h43v1h-43zM151,137h188v1h-188zM364,137h52v1h-52zM64,138h43v1h-43zM152,138h187v1h-187zM365,138h52v1h-52zM64,139h43v1h-43zM152,139h186v1h-186zM366,139h52v1h-52zM64,140h43v1h-43zM153,140h185v1h-185zM366,140h52v1h-52zM64,141h43v1h-43zM154,141h183v1h-183zM367,141h52v1h-52zM64,142h43v1h-43zM155,142h181v1h-181zM368,142h52v1h-52zM64,143h43v1h-43zM155,143h180v1h-180zM368,143h52v1h-52zM64,144h43v1h-43zM157,144h177v1h-177zM369,144h52v1h-52zM64,145h43v1h-43zM158,145h175v1h-175zM370,145h52v1h-52zM64,146h43v1h-43zM159,146h172v1h-172zM370,146h52v1h-52zM64,147h43v1h-43zM161,147h168v1h-168zM371,147h52v1h-52zM64,148h43v1h-43zM164,148h163v1h-163zM372,148h52v1h-52zM64,149h43v1h-43zM168,149h155v1h-155zM372,149h52v1h-52zM64,150h43v1h-43zM373,150h52v1h-52zM64,151h43v1h-43zM374,151h52v1h-52zM64,152h43v1h-43zM374,152h52v1h-52zM64,153h43v1h-43zM375,153h52v1h-52zM64,154h43v1h-43zM376,154h52v1h-52zM64,155h43v1h-43zM376,155h52v1h-52zM64,156h43v1h-43zM377,156h52v1h-52zM64,157h43v1h-43zM378,157h52v1h-52zM64,158h43v1h-43zM378,158h52v1h-52zM64,159h43v1h-43zM379,159h52v1h-52zM64,160h43v1h-43zM380,160h52v1h-52zM64,161h43v1h-43zM380,161h52v1h-52zM64,162h43v1h-43zM381,162h52v1h-52zM64,163h43v1h-43zM382,163h52v1h-52zM64,164h43v1h-43zM382,164h52v1h-52zM64,165h43v1h-43zM383,165h52v1h-52zM64,166h43v1h-43zM384,166h52v1h-52zM64,167h43v1h-43zM384,167h52v1h-52zM64,168h43v1h-43zM385,168h52v1h-52zM64,169h43v1h-43zM386,169h52v1h-52zM64,170h43v1h-43zM386,170h52v1h-52zM64,171h43v1h-43zM387,171h52v1h-52zM64,172h43v1h-43zM388,172h52v1h-52zM64,173h43v1h-43zM388,173h52v1h-52zM64,174h43v1h-43zM389,174h52v1h-52zM64,175h43v1h-43zM390,175h51v1h-51zM64,176h43v1h-43zM390,176h52v1h-52zM64,177h43v1h-43zM391,177h51v1h-51zM64,178h43v1h-43zM392,178h51v1h-51zM64,179h43v1h-43zM392,179h51v1h-51zM64,180h43v1h-43zM393,180h51v1h-51zM64,181h43v1h-43zM394,181h50v1h-50zM64,182h43v1h-43zM394,182h50v1h-50zM64,183h43v1h-43zM395,183h50v1h-50zM64,184h43v1h-43zM396,184h49v1h-49zM64,185h43v1h-43zM396,185h49v1h-49zM64,186h43v1h-43zM397,186h49v1h-49zM64,187h43v1h-43zM398,187h48v1h-48zM64,188h43v1h-43zM398,188h48v1h-48zM64,189h43v1h-43zM399,189h47v1h-47zM64,190h43v1h-43zM400,190h47v1h-47zM64,191h43v1h-43zM400,191h47v1h-47zM64,192h43v1h-43zM401,192h46v1h-46zM64,193h43v1h-43zM402,193h45v1h-45zM64,194h43v1h-43zM402,194h45v1h-45zM64,195h43v1h-43zM403,195h45v1h-45zM64,196h43v1h-43zM403,196h45v1h-45zM64,197h43v1h-43zM404,197h44v1h-44zM64,198h43v1h-43zM404,198h44v1h-44zM64,199h43v1h-43zM404,199h44v1h-44zM64,200h43v1h-43zM404,200h44v1h-44zM64,201h43v1h-43zM405,201h43v1h-43zM64,202h43v1h-43zM405,202h43v1h-43zM64,203h43v1h-43zM405,203h43v1h-43zM64,204h43v1h-43zM405,204h43v1h-43zM64,205h43v1h-43zM405,205h43v1h-43zM64,206h43v1h-43zM405,206h43v1h-43zM64,207h43v1h-43zM405,207h43v1h-43zM64,208h43v1h-43zM405,208h43v1h-43zM64,209h43v1h-43zM405,209h43v1h-43zM64,210h43v1h-43zM405,210h43v1h-43zM64,211h43v1h-43zM405,211h43v1h-43zM64,212h43v1h-43zM405,212h43v1h-43zM64,213h43v1h-43zM405,213h43v1h-43zM64,214h43v1h-43zM405,214h43v1h-43zM64,215h43v1h-43zM405,215h43v1h-43zM64,216h43v1h-43zM405,216h43v1h-43zM64,217h43v1h-43zM405,217h43v1h-43zM64,218h43v1h-43zM405,218h43v1h-43zM64,219h43v1h-43zM405,219h43v1h-43zM64,220h43v1h-43zM405,220h43v1h-43zM64,221h43v1h-43zM405,221h43v1h-43zM64,222h43v1h-43zM405,222h43v1h-43zM64,223h43v1h-43zM405,223h43v1h-43zM64,224h43v1h-43zM405,224h43v1h-43zM64,225h43v1h-43zM405,225h43v1h-43zM64,226h43v1h-43zM405,226h43v1h-43zM64,227h43v1h-43zM405,227h43v1h-43zM64,228h43v1h-43zM405,228h43v1h-43zM64,229h43v1h-43zM405,229h43v1h-43zM64,230h43v1h-43zM405,230h43v1h-43zM64,231h43v1h-43zM405,231h43v1h-43zM64,232h43v1h-43zM405,232h43v1h-43zM64,233h43v1h-43zM405,233h43v1h-43zM64,234h43v1h-43zM405,234h43v1h-43zM64,235h43v1h-43zM405,235h43v1h-43zM64,236h43v1h-43zM405,236h43v1h-43zM64,237h43v1h-43zM405,237h43v1h-43zM64,238h43v1h-43zM405,238h43v1h-43zM64,239h43v1h-43zM405,239h43v1h-43zM64,240h43v1h-43zM405,240h43v1h-43zM64,241h43v1h-43zM405,241h43v1h-43zM64,242h43v1h-43zM405,242h43v1h-43zM64,243h43v1h-43zM405,243h43v1h-43zM64,244h43v1h-43zM405,244h43v1h-43zM64,245h43v1h-43zM405,245h43v1h-43zM64,246h43v1h-43zM405,246h43v1h-43zM64,247h43v1h-43zM405,247h43v1h-43zM64,248h43v1h-43zM405,248h43v1h-43zM64,249h43v1h-43zM405,249h43v1h-43zM64,250h43v1h-43zM405,250h43v1h-43zM64,251h43v1h-43zM405,251h43v1h-43zM64,252h43v1h-43zM405,252h43v1h-43zM64,253h43v1h-43zM405,253h43v1h-43zM64,254h43v1h-43zM405,254h43v1h-43zM64,255h43v1h-43zM405,255h43v1h-43zM64,256h43v1h-43zM165,256h182v1h-182zM405,256h43v1h-43zM64,257h43v1h-43zM162,257h188v1h-188zM405,257h43v1h-43zM64,258h43v1h-43zM160,258h192v1h-192zM405,258h43v1h-43zM64,259h43v1h-43zM158,259h196v1h-196zM405,259h43v1h-43zM64,260h43v1h-43zM157,260h198v1h-198zM405,260h43v1h-43zM64,261h43v1h-43zM156,261h200v1h-200zM405,261h43v1h-43zM64,262h43v1h-43zM155,262h202v1h-202zM405,262h43v1h-43zM64,263h43v1h-43zM154,263h204v1h-204zM405,263h43v1h-43zM64,264h43v1h-43zM153,264h206v1h-206zM405,264h43v1h-43zM64,265h43v1h-43zM152,265h208v1h-208zM405,265h43v1h-43zM64,266h43v1h-43zM152,266h208v1h-208zM405,266h43v1h-43zM64,267h43v1h-43zM151,267h210v1h-210zM405,267h43v1h-43zM64,268h43v1h-43zM151,268h210v1h-210zM405,268h43v1h-43zM64,269h43v1h-43zM150,269h212v1h-212zM405,269h43v1h-43zM64,270h43v1h-43zM150,270h212v1h-212zM405,270h43v1h-43zM64,271h43v1h-43zM150,271h212v1h-212zM405,271h43v1h-43zM64,272h43v1h-43zM150,272h212v1h-212zM405,272h43v1h-43zM64,273h43v1h-43zM149,273h214v1h-214zM405,273h43v1h-43zM64,274h43v1h-43zM149,274h214v1h-214zM405,274h43v1h-43zM64,275h43v1h-43zM149,275h214v1h-214zM405,275h43v1h-43zM64,276h43v1h-43zM149,276h214v1h-214zM405,276h43v1h-43zM64,277h43v1h-43zM149,277h214v1h-214zM405,277h43v1h-43zM64,278h43v1h-43zM149,278h214v1h-214zM405,278h43v1h-43zM64,279h43v1h-43zM149,279h214v1h-214zM405,279h43v1h-43zM64,280h43v1h-43zM149,280h214v1h-214zM405,280h43v1h-43zM64,281h43v1h-43zM149,281h214v1h-214zM405,281h43v1h-43zM64,282h43v1h-43zM149,282h214v1h-214zM405,282h43v1h-43zM64,283h43v1h-43zM149,283h214v1h-214zM405,283h43v1h-43zM64,284h43v1h-43zM149,284h214v1h-214zM405,284h43v1h-43zM64,285h43v1h-43zM149,285h214v1h-214zM405,285h43v1h-43zM64,286h43v1h-43zM149,286h214v1h-214zM405,286h43v1h-43zM64,287h43v1h-43zM149,287h214v1h-214zM405,287h43v1h-43zM64,288h43v1h-43zM149,288h214v1h-214zM405,288h43v1h-43zM64,289h43v1h-43zM149,289h214v1h-214zM405,289h43v1h-43zM64,290h43v1h-43zM149,290h214v1h-214zM405,290h43v1h-43zM64,291h43v1h-43zM149,291h214v1h-214zM405,291h43v1h-43zM64,292h43v1h-43zM149,292h214v1h-214zM405,292h43v1h-43zM64,293h43v1h-43zM149,293h214v1h-214zM405,293h43v1h-43zM64,294h43v1h-43zM149,294h214v1h-214zM405,294h43v1h-43zM64,295h43v1h-43zM149,295h214v1h-214zM405,295h43v1h-43zM64,296h43v1h-43zM149,296h214v1h-214zM405,296h43v1h-43zM64,297h43v1h-43zM149,297h214v1h-214zM405,297h43v1h-43zM64,298h43v1h-43zM149,298h214v1h-214zM405,298h43v1h-43zM64,299h43v1h-43zM149,299h43v1h-43zM320,299h43v1h-43zM405,299h43v1h-43zM64,300h43v1h-43zM149,300h43v1h-43zM320,300h43v1h-43zM405,300h43v1h-43zM64,301h43v1h-43zM149,301h43v1h-43zM320,301h43v1h-43zM405,301h43v1h-43zM64,302h43v1h-43zM149,302h43v1h-43zM320,302h43v1h-43zM405,302h43v1h-43zM64,303h43v1h-43zM149,303h43v1h-43zM320,303h43v1h-43zM405,303h43v1h-43zM64,304h43v1h-43zM149,304h43v1h-43zM320,304h43v1h-43zM405,304h43v1h-43zM64,305h43v1h-43zM149,305h43v1h-43zM320,305h43v1h-43zM405,305h43v1h-43zM64,306h43v1h-43zM149,306h43v1h-43zM320,306h43v1h-43zM405,306h43v1h-43zM64,307h43v1h-43zM149,307h43v1h-43zM320,307h43v1h-43zM405,307h43v1h-43zM64,308h43v1h-43zM149,308h43v1h-43zM320,308h43v1h-43zM405,308h43v1h-43zM64,309h43v1h-43zM149,309h43v1h-43zM320,309h43v1h-43zM405,309h43v1h-43zM64,310h43v1h-43zM149,310h43v1h-43zM320,310h43v1h-43zM405,310h43v1h-43zM64,311h43v1h-43zM149,311h43v1h-43zM320,311h43v1h-43zM405,311h43v1h-43zM64,312h43v1h-43zM149,312h43v1h-43zM320,312h43v1h-43zM405,312h43v1h-43zM64,313h43v1h-43zM149,313h43v1h-43zM320,313h43v1h-43zM405,313h43v1h-43zM64,314h43v1h-43zM149,314h43v1h-43zM320,314h43v1h-43zM405,314h43v1h-43zM64,315h43v1h-43zM149,315h43v1h-43zM320,315h43v1h-43zM405,315h43v1h-43zM64,316h43v1h-43zM149,316h43v1h-43zM320,316h43v1h-43zM405,316h43v1h-43zM64,317h43v1h-43zM149,317h43v1h-43zM320,317h43v1h-43zM405,317h43v1h-43zM64,318h43v1h-43zM149,318h43v1h-43zM320,318h43v1h-43zM405,318h43v1h-43zM64,319h43v1h-43zM149,319h43v1h-43zM320,319h43v1h-43zM405,319h43v1h-43zM64,320h43v1h-43zM149,320h43v1h-43zM320,320h43v1h-43zM405,320h43v1h-43zM64,321h43v1h-43zM149,321h43v1h-43zM320,321h43v1h-43zM405,321h43v1h-43zM64,322h43v1h-43zM149,322h43v1h-43zM320,322h43v1h-43zM405,322h43v1h-43zM64,323h43v1h-43zM149,323h43v1h-43zM320,323h43v1h-43zM405,323h43v1h-43zM64,324h43v1h-43zM149,324h43v1h-43zM320,324h43v1h-43zM405,324h43v1h-43zM64,325h43v1h-43zM149,325h43v1h-43zM320,325h43v1h-43zM405,325h43v1h-43zM64,326h43v1h-43zM149,326h43v1h-43zM320,326h43v1h-43zM405,326h43v1h-43zM64,327h43v1h-43zM149,327h43v1h-43zM320,327h43v1h-43zM405,327h43v1h-43zM64,328h43v1h-43zM149,328h43v1h-43zM320,328h43v1h-43zM405,328h43v1h-43zM64,329h43v1h-43zM149,329h43v1h-43zM320,329h43v1h-43zM405,329h43v1h-43zM64,330h43v1h-43zM149,330h43v1h-43zM320,330h43v1h-43zM405,330h43v1h-43zM64,331h43v1h-43zM149,331h43v1h-43zM320,331h43v1h-43zM405,331h43v1h-43zM64,332h43v1h-43zM149,332h43v1h-43zM320,332h43v1h-43zM405,332h43v1h-43zM64,333h43v1h-43zM149,333h43v1h-43zM320,333h43v1h-43zM405,333h43v1h-43zM64,334h43v1h-43zM149,334h43v1h-43zM320,334h43v1h-43zM405,334h43v1h-43zM64,335h43v1h-43zM149,335h43v1h-43zM320,335h43v1h-43zM405,335h43v1h-43zM64,336h43v1h-43zM149,336h43v1h-43zM320,336h43v1h-43zM405,336h43v1h-43zM64,337h43v1h-43zM149,337h43v1h-43zM320,337h43v1h-43zM405,337h43v1h-43zM64,338h43v1h-43zM149,338h43v1h-43zM320,338h43v1h-43zM405,338h43v1h-43zM64,339h43v1h-43zM149,339h43v1h-43zM320,339h43v1h-43zM405,339h43v1h-43zM64,340h43v1h-43zM149,340h43v1h-43zM320,340h43v1h-43zM405,340h43v1h-43zM64,341h43v1h-43zM149,341h43v1h-43zM320,341h43v1h-43zM405,341h43v1h-43zM64,342h43v1h-43zM149,342h43v1h-43zM320,342h43v1h-43zM405,342h43v1h-43zM64,343h43v1h-43zM149,343h43v1h-43zM320,343h43v1h-43zM405,343h43v1h-43zM64,344h43v1h-43zM149,344h43v1h-43zM320,344h43v1h-43zM405,344h43v1h-43zM64,345h43v1h-43zM149,345h43v1h-43zM320,345h43v1h-43zM405,345h43v1h-43zM64,346h43v1h-43zM149,346h43v1h-43zM320,346h43v1h-43zM405,346h43v1h-43zM64,347h43v1h-43zM149,347h43v1h-43zM320,347h43v1h-43zM405,347h43v1h-43zM64,348h43v1h-43zM149,348h43v1h-43zM320,348h43v1h-43zM405,348h43v1h-43zM64,349h43v1h-43zM149,349h43v1h-43zM320,349h43v1h-43zM405,349h43v1h-43zM64,350h43v1h-43zM149,350h43v1h-43zM320,350h43v1h-43zM405,350h43v1h-43zM64,351h43v1h-43zM149,351h43v1h-43zM320,351h43v1h-43zM405,351h43v1h-43zM64,352h43v1h-43zM149,352h43v1h-43zM320,352h43v1h-43zM405,352h43v1h-43zM64,353h43v1h-43zM149,353h43v1h-43zM320,353h43v1h-43zM405,353h43v1h-43zM64,354h43v1h-43zM149,354h43v1h-43zM320,354h43v1h-43zM405,354h43v1h-43zM64,355h43v1h-43zM149,355h43v1h-43zM320,355h43v1h-43zM405,355h43v1h-43zM64,356h43v1h-43zM149,356h43v1h-43zM320,356h43v1h-43zM405,356h43v1h-43zM64,357h43v1h-43zM149,357h43v1h-43zM320,357h43v1h-43zM405,357h43v1h-43zM64,358h43v1h-43zM149,358h43v1h-43zM320,358h43v1h-43zM405,358h43v1h-43zM64,359h43v1h-43zM149,359h43v1h-43zM320,359h43v1h-43zM405,359h43v1h-43zM64,360h43v1h-43zM149,360h43v1h-43zM320,360h43v1h-43zM405,360h43v1h-43zM64,361h43v1h-43zM149,361h43v1h-43zM320,361h43v1h-43zM405,361h43v1h-43zM64,362h43v1h-43zM149,362h43v1h-43zM320,362h43v1h-43zM405,362h43v1h-43zM64,363h43v1h-43zM149,363h43v1h-43zM320,363h43v1h-43zM405,363h43v1h-43zM64,364h43v1h-43zM149,364h43v1h-43zM320,364h43v1h-43zM405,364h43v1h-43zM64,365h43v1h-43zM149,365h43v1h-43zM320,365h43v1h-43zM405,365h43v1h-43zM64,366h43v1h-43zM149,366h43v1h-43zM320,366h43v1h-43zM405,366h43v1h-43zM64,367h43v1h-43zM149,367h43v1h-43zM320,367h43v1h-43zM405,367h43v1h-43zM64,368h43v1h-43zM149,368h43v1h-43zM320,368h43v1h-43zM405,368h43v1h-43zM64,369h43v1h-43zM149,369h43v1h-43zM320,369h43v1h-43zM405,369h43v1h-43zM64,370h43v1h-43zM149,370h43v1h-43zM320,370h43v1h-43zM405,370h43v1h-43zM64,371h43v1h-43zM149,371h43v1h-43zM320,371h43v1h-43zM405,371h43v1h-43zM64,372h43v1h-43zM149,372h43v1h-43zM320,372h43v1h-43zM405,372h43v1h-43zM64,373h43v1h-43zM149,373h43v1h-43zM320,373h43v1h-43zM405,373h43v1h-43zM64,374h43v1h-43zM149,374h43v1h-43zM320,374h43v1h-43zM405,374h43v1h-43zM64,375h43v1h-43zM149,375h43v1h-43zM320,375h43v1h-43zM405,375h43v1h-43zM64,376h43v1h-43zM149,376h43v1h-43zM320,376h43v1h-43zM405,376h43v1h-43zM64,377h43v1h-43zM149,377h43v1h-43zM320,377h43v1h-43zM405,377h43v1h-43zM64,378h43v1h-43zM149,378h43v1h-43zM320,378h43v1h-43zM405,378h43v1h-43zM64,379h43v1h-43zM149,379h43v1h-43zM320,379h43v1h-43zM405,379h43v1h-43zM64,380h43v1h-43zM149,380h43v1h-43zM320,380h43v1h-43zM405,380h43v1h-43zM64,381h43v1h-43zM149,381h43v1h-43zM320,381h43v1h-43zM405,381h43v1h-43zM64,382h43v1h-43zM149,382h43v1h-43zM320,382h43v1h-43zM405,382h43v1h-43zM64,383h43v1h-43zM149,383h43v1h-43zM320,383h43v1h-43zM405,383h43v1h-43zM64,384h43v1h-43zM149,384h43v1h-43zM320,384h43v1h-43zM405,384h43v1h-43zM64,385h43v1h-43zM149,385h43v1h-43zM320,385h43v1h-43zM405,385h43v1h-43zM64,386h43v1h-43zM149,386h43v1h-43zM320,386h43v1h-43zM405,386h43v1h-43zM64,387h43v1h-43zM149,387h43v1h-43zM320,387h43v1h-43zM405,387h43v1h-43zM64,388h43v1h-43zM149,388h43v1h-43zM320,388h43v1h-43zM405,388h43v1h-43zM64,389h43v1h-43zM149,389h43v1h-43zM320,389h43v1h-43zM405,389h43v1h-43zM64,390h43v1h-43zM149,390h43v1h-43zM320,390h43v1h-43zM405,390h43v1h-43zM64,391h43v1h-43zM149,391h43v1h-43zM320,391h43v1h-43zM405,391h43v1h-43zM64,392h43v1h-43zM149,392h43v1h-43zM320,392h43v1h-43zM405,392h43v1h-43zM64,393h43v1h-43zM149,393h43v1h-43zM320,393h43v1h-43zM405,393h43v1h-43zM64,394h43v1h-43zM149,394h43v1h-43zM320,394h43v1h-43zM405,394h43v1h-43zM64,395h43v1h-43zM149,395h43v1h-43zM320,395h43v1h-43zM405,395h43v1h-43zM64,396h43v1h-43zM149,396h43v1h-43zM320,396h43v1h-43zM405,396h43v1h-43zM64,397h43v1h-43zM149,397h43v1h-43zM320,397h43v1h-43zM405,397h43v1h-43zM64,398h43v1h-43zM149,398h43v1h-43zM320,398h43v1h-43zM405,398h43v1h-43zM64,399h43v1h-43zM149,399h43v1h-43zM320,399h43v1h-43zM405,399h43v1h-43zM64,400h43v1h-43zM149,400h43v1h-43zM320,400h43v1h-43zM405,400h43v1h-43zM64,401h43v1h-43zM149,401h43v1h-43zM320,401h43v1h-43zM405,401h43v1h-43zM64,402h43v1h-43zM149,402h43v1h-43zM320,402h43v1h-43zM405,402h43v1h-43zM64,403h43v1h-43zM149,403h43v1h-43zM320,403h43v1h-43zM405,403h43v1h-43zM64,404h43v1h-43zM149,404h43v1h-43zM320,404h43v1h-43zM405,404h43v1h-43zM64,405h43v1h-43zM149,405h43v1h-43zM320,405h43v1h-43zM405,405h43v1h-43zM64,406h43v1h-43zM149,406h43v1h-43zM320,406h43v1h-43zM405,406h43v1h-43zM64,407h43v1h-43zM149,407h43v1h-43zM320,407h43v1h-43zM405,407h43v1h-43zM64,408h43v1h-43zM149,408h43v1h-43zM320,408h43v1h-43zM405,408h43v1h-43zM64,409h43v1h-43zM149,409h43v1h-43zM320,409h43v1h-43zM405,409h43v1h-43zM64,410h44v1h-44zM149,410h43v1h-43zM320,410h43v1h-43zM404,410h44v1h-44zM64,411h44v1h-44zM149,411h43v1h-43zM320,411h43v1h-43zM404,411h44v1h-44zM64,412h44v1h-44zM149,412h43v1h-43zM320,412h43v1h-43zM404,412h44v1h-44zM64,413h45v1h-45zM149,413h43v1h-43zM320,413h43v1h-43zM403,413h45v1h-45zM64,414h45v1h-45zM149,414h43v1h-43zM320,414h43v1h-43zM403,414h45v1h-45zM64,415h46v1h-46zM149,415h43v1h-43zM320,415h43v1h-43zM402,415h46v1h-46zM65,416h45v1h-45zM149,416h43v1h-43zM320,416h43v1h-43zM402,416h45v1h-45zM65,417h46v1h-46zM149,417h43v1h-43zM320,417h43v1h-43zM401,417h46v1h-46zM65,418h47v1h-47zM149,418h43v1h-43zM320,418h43v1h-43zM400,418h47v1h-47zM65,419h48v1h-48zM149,419h43v1h-43zM320,419h43v1h-43zM399,419h48v1h-48zM65,420h49v1h-49zM149,420h43v1h-43zM320,420h43v1h-43zM398,420h49v1h-49zM66,421h49v1h-49zM149,421h43v1h-43zM320,421h43v1h-43zM397,421h49v1h-49zM66,422h50v1h-50zM149,422h43v1h-43zM320,422h43v1h-43zM396,422h50v1h-50zM66,423h52v1h-52zM149,423h43v1h-43zM320,423h43v1h-43zM394,423h52v1h-52zM67,424h53v1h-53zM149,424h43v1h-43zM320,424h43v1h-43zM392,424h53v1h-53zM67,425h55v1h-55zM149,425h43v1h-43zM320,425h43v1h-43zM390,425h55v1h-55zM67,426h378v1h-378zM68,427h376v1h-376zM68,428h376v1h-376zM68,429h376v1h-376zM69,430h374v1h-374zM69,431h374v1h-374zM70,432h372v1h-372zM70,433h372v1h-372zM71,434h370v1h-370zM71,435h370v1h-370zM72,436h368v1h-368zM72,437h368v1h-368zM73,438h366v1h-366zM73,439h365v1h-365zM74,440h364v1h-364zM75,441h362v1h-362zM75,442h362v1h-362zM76,443h360v1h-360zM77,444h358v1h-358zM78,445h356v1h-356zM79,446h354v1h-354zM79,447h354v1h-354zM80,448h352v1h-352zM81,449h350v1h-350zM82,450h348v1h-348zM83,451h346v1h-346zM84,452h344v1h-344zM85,453h342v1h-342zM87,454h338v1h-338zM88,455h336v1h-336zM89,456h334v1h-334zM90,457h332v1h-332zM92,458h328v1h-328zM93,459h326v1h-326zM95,460h322v1h-322zM97,461h318v1h-318zM99,462h315v1h-315zM101,463h311v1h-311zM103,464h306v1h-306zM105,465h302v1h-302zM108,466h296v1h-296zM111,467h290v1h-290zM116,468h280v1h-280zM123,469h266v1h-266z"/></svg>