<?xml version="1.0" encoding="UTF-8"?>
<svg xmlns="http://www.w3.org/2000/svg" viewBox="0 0 512 512" width="512" height="512"><path fill="#000" d="M434,16h20v1h-20zM430,17h28v1h-28zM427,18h34v1h-34zM424,19h40v1h-40zM421,20h45v1h-45zM418,21h50v1h-50zM415,22h55v1h-55zM412,23h59v1h-59zM409,24h64v1h-64zM406,25h68v1h-68zM403,26h73v1h-73zM400,27h77v1h-77zM397,28h81v1h-81zM394,29h85v1h-85zM391,30h89v1h-89zM388,31h93v1h-93zM385,32h97v1h-97zM382,33h101v1h-101zM379,34h105v1h-105zM376,35h109v1h-109zM373,36h113v1h-113zM370,37h116v1h-116zM367,38h120v1h-120zM364,39h124v1h-124zM361,40h127v1h-127zM358,41h131v1h-131zM355,42h135v1h-135zM352,43h138v1h-138zM349,44h142v1h-142zM346,45h145v1h-145zM343,46h149v1h-149zM340,47h152v1h-152zM337,48h156v1h-156zM334,49h103v1h-103zM450,49h43v1h-43zM331,50h103v1h-103zM452,50h41v1h-41zM328,51h103v1h-103zM454,51h40v1h-40zM325,52h103v1h-103zM456,52h38v1h-38zM322,53h103v1h-103zM457,53h37v1h-37zM319,54h103v1h-103zM458,54h37v1h-37zM316,55h103v1h-103zM459,55h36v1h-36zM313,56h103v1h-103zM460,56h35v1h-35zM310,57h103v1h-103zM460,57h35v1h-35zM307,58h103v1h-103zM461,58h34v1h-34zM304,59h103v1h-103zM461,59h35v1h-35zM301,60h103v1h-103zM462,60h34v1h-34zM298,61h103v1h-103zM462,61h34v1h-34zM295,62h103v1h-103zM463,62h33v1h-33zM292,63h103v1h-103zM463,63h33v1h-33zM289,64h103v1h-103zM463,64h33v1h-33zM286,65h103v1h-103zM463,65h33v1h-33zM283,66h103v1h-103zM463,66h33v1h-33zM280,67h103v1h-103zM463,67h33v1h-33zM278,68h102v1h-102zM463,68h33v1h-33zM277,69h100v1h-100zM463,69h33v1h-33zM276,70h98v1h-98zM463,70h33v1h-33zM275,71h96v1h-96zM463,71h33v1h-33zM274,72h94v1h-94zM463,72h33v1h-33zM273,73h92v1h-92zM463,73h33v1h-33zM273,74h89v1h-89zM463,74h33v1h-33zM272,75h87v1h-87zM462,75h34v1h-34zM272,76h84v1h-84zM462,76h34v1h-34zM271,77h82v1h-82zM462,77h34v1h-34zM271,78h79v1h-79zM461,78h34v1h-34zM271,79h76v1h-76zM461,79h34v1h-34zM271,80h73v1h-73zM461,80h34v1h-34zM271,81h70v1h-70zM460,81h35v1h-35zM271,82h67v1h-67zM460,82h34v1h-34zM271,83h64v1h-64zM460,83h34v1h-34zM271,84h61v1h-61zM459,84h35v1h-35zM271,85h58v1h-58zM459,85h34v1h-34zM271,86h55v1h-55zM459,86h34v1h-34zM271,87h52v1h-52zM458,87h35v1h-35zM272,88h48v1h-48zM458,88h34v1h-34zM272,89h45v1h-45zM458,89h34v1h-34zM273,90h41v1h-41zM457,90h35v1h-35zM273,91h38v1h-38zM457,91h34v1h-34zM205,92h9v1h-9zM274,92h34v1h-34zM457,92h34v1h-34zM202,93h15v1h-15zM275,93h30v1h-30zM456,93h35v1h-35zM199,94h19v1h-19zM276,94h26v1h-26zM456,94h34v1h-34zM196,95h24v1h-24zM277,95h22v1h-22zM456,95h34v1h-34zM193,96h28v1h-28zM279,96h17v1h-17zM455,96h35v1h-35zM190,97h32v1h-32zM281,97h12v1h-12zM455,97h34v1h-34zM187,98h36v1h-36zM284,98h6v1h-6zM455,98h34v1h-34zM184,99h39v1h-39zM454,99h35v1h-35zM181,100h43v1h-43zM454,100h34v1h-34zM178,101h46v1h-46zM454,101h34v1h-34zM175,102h50v1h-50zM453,102h35v1h-35zM172,103h53v1h-53zM453,103h34v1h-34zM169,104h56v1h-56zM453,104h34v1h-34zM166,105h60v1h-60zM452,105h35v1h-35zM163,106h63v1h-63zM452,106h34v1h-34zM160,107h66v1h-66zM452,107h34v1h-34zM157,108h69v1h-69zM451,108h35v1h-35zM154,109h72v1h-72zM451,109h34v1h-34zM151,110h75v1h-75zM451,110h34v1h-34zM148,111h77v1h-77zM450,111h35v1h-35zM145,112h80v1h-80zM450,112h34v1h-34zM142,113h83v1h-83zM450,113h34v1h-34zM139,114h86v1h-86zM449,114h35v1h-35zM136,115h88v1h-88zM449,115h34v1h-34zM133,116h91v1h-91zM449,116h34v1h-34zM130,117h93v1h-93zM448,117h35v1h-35zM127,118h95v1h-95zM448,118h34v1h-34zM124,119h97v1h-97zM448,119h34v1h-34zM121,120h99v1h-99zM447,120h35v1h-35zM118,121h101v1h-101zM447,121h34v1h-34zM115,122h102v1h-102zM447,122h34v1h-34zM112,123h103v1h-103zM446,123h35v1h-35zM109,124h103v1h-103zM446,124h34v1h-34zM106,125h103v1h-103zM446,125h34v1h-34zM103,126h103v1h-103zM445,126h35v1h-35zM100,127h103v1h-103zM445,127h34v1h-34zM97,128h103v1h-103zM445,128h34v1h-34zM94,129h103v1h-103zM444,129h35v1h-35zM91,130h103v1h-103zM444,130h34v1h-34zM88,131h103v1h-103zM444,131h34v1h-34zM85,132h103v1h-103zM443,132h35v1h-35zM82,133h103v1h-103zM443,133h34v1h-34zM79,134h103v1h-103zM443,134h34v1h-34zM76,135h103v1h-103zM442,135h35v1h-35zM73,136h103v1h-103zM442,136h34v1h-34zM70,137h103v1h-103zM442,137h34v1h-34zM67,138h103v1h-103zM441,138h35v1h-35zM64,139h103v1h-103zM441,139h34v1h-34zM61,140h103v1h-103zM441,140h34v1h-34zM58,141h103v1h-103zM440,141h35v1h-35zM55,142h103v1h-103zM440,142h34v1h-34zM52,143h103v1h-103zM440,143h34v1h-34zM49,144h103v1h-103zM439,144h35v1h-35zM47,145h102v1h-102zM439,145h34v1h-34zM44,146h102v1h-102zM439,146h34v1h-34zM43,147h100v1h-100zM438,147h35v1h-35zM41,148h99v1h-99zM438,148h34v1h-34zM39,149h98v1h-98zM438,149h34v1h-34zM38,150h96v1h-96zM437,150h35v1h-35zM36,151h95v1h-95zM437,151h34v1h-34zM35,152h93v1h-93zM437,152h34v1h-34zM34,153h91v1h-91zM436,153h35v1h-35zM33,154h89v1h-89zM436,154h34v1h-34zM32,155h87v1h-87zM436,155h34v1h-34zM31,156h85v1h-85zM435,156h35v1h-35zM30,157h83v1h-83zM435,157h34v1h-34zM29,158h81v1h-81zM435,158h34v1h-34zM28,159h79v1h-79zM434,159h35v1h-35zM27,160h77v1h-77zM434,160h34v1h-34zM26,161h75v1h-75zM434,161h34v1h-34zM25,162h73v1h-73zM433,162h35v1h-35zM25,163h70v1h-70zM433,163h34v1h-34zM24,164h68v1h-68zM433,164h34v1h-34zM23,165h66v1h-66zM432,165h35v1h-35zM23,166h63v1h-63zM432,166h34v1h-34zM22,167h61v1h-61zM432,167h34v1h-34zM22,168h58v1h-58zM431,168h35v1h-35zM21,169h56v1h-56zM431,169h34v1h-34zM21,170h53v1h-53zM431,170h34v1h-34zM20,171h51v1h-51zM430,171h35v1h-35zM20,172h48v1h-48zM430,172h34v1h-34zM19,173h46v1h-46zM430,173h34v1h-34zM19,174h43v1h-43zM318,174h8v1h-8zM429,174h35v1h-35zM19,175h41v1h-41zM315,175h13v1h-13zM429,175h34v1h-34zM18,176h40v1h-40zM313,176h17v1h-17zM429,176h34v1h-34zM18,177h38v1h-38zM312,177h20v1h-20zM428,177h35v1h-35zM18,178h37v1h-37zM310,178h23v1h-23zM428,178h34v1h-34zM17,179h37v1h-37zM309,179h25v1h-25zM428,179h34v1h-34zM17,180h36v1h-36zM308,180h27v1h-27zM427,180h35v1h-35zM17,181h35v1h-35zM307,181h28v1h-28zM427,181h34v1h-34zM17,182h35v1h-35zM306,182h30v1h-30zM427,182h34v1h-34zM17,183h34v1h-34zM305,183h31v1h-31zM426,183h35v1h-35zM16,184h34v1h-34zM304,184h33v1h-33zM426,184h34v1h-34zM16,185h34v1h-34zM303,185h34v1h-34zM426,185h34v1h-34zM16,186h34v1h-34zM302,186h36v1h-36zM425,186h35v1h-35zM16,187h33v1h-33zM301,187h37v1h-37zM425,187h34v1h-34zM16,188h33v1h-33zM300,188h38v1h-38zM425,188h34v1h-34zM16,189h33v1h-33zM299,189h39v1h-39zM424,189h35v1h-35zM16,190h33v1h-33zM298,190h40v1h-40zM424,190h34v1h-34zM16,191h33v1h-33zM297,191h41v1h-41zM424,191h34v1h-34zM16,192h33v1h-33zM296,192h42v1h-42zM423,192h35v1h-35zM16,193h33v1h-33zM295,193h43v1h-43zM423,193h34v1h-34zM16,194h33v1h-33zM294,194h43v1h-43zM423,194h34v1h-34zM16,195h33v1h-33zM293,195h44v1h-44zM422,195h35v1h-35zM16,196h33v1h-33zM292,196h45v1h-45zM422,196h34v1h-34zM16,197h33v1h-33zM291,197h45v1h-45zM422,197h34v1h-34zM16,198h33v1h-33zM290,198h46v1h-46zM421,198h35v1h-35zM16,199h33v1h-33zM289,199h46v1h-46zM421,199h34v1h-34zM16,200h34v1h-34zM288,200h46v1h-46zM421,200h34v1h-34zM16,201h34v1h-34zM287,201h47v1h-47zM420,201h35v1h-35zM16,202h35v1h-35zM286,202h47v1h-47zM420,202h34v1h-34zM17,203h34v1h-34zM285,203h47v1h-47zM420,203h34v1h-34zM17,204h35v1h-35zM284,204h47v1h-47zM419,204h35v1h-35zM17,205h35v1h-35zM283,205h47v1h-47zM419,205h34v1h-34zM17,206h36v1h-36zM282,206h47v1h-47zM419,206h34v1h-34zM17,207h37v1h-37zM281,207h47v1h-47zM418,207h35v1h-35zM18,208h37v1h-37zM280,208h47v1h-47zM418,208h34v1h-34zM18,209h39v1h-39zM279,209h47v1h-47zM418,209h34v1h-34zM18,210h40v1h-40zM278,210h47v1h-47zM417,210h35v1h-35zM19,211h41v1h-41zM277,211h47v1h-47zM417,211h34v1h-34zM19,212h43v1h-43zM276,212h47v1h-47zM417,212h34v1h-34zM19,213h46v1h-46zM275,213h47v1h-47zM416,213h35v1h-35zM20,214h47v1h-47zM274,214h47v1h-47zM416,214h34v1h-34zM20,215h50v1h-50zM273,215h47v1h-47zM416,215h34v1h-34zM21,216h51v1h-51zM272,216h47v1h-47zM415,216h35v1h-35zM21,217h54v1h-54zM271,217h47v1h-47zM415,217h34v1h-34zM22,218h55v1h-55zM270,218h47v1h-47zM415,218h34v1h-34zM22,219h58v1h-58zM269,219h47v1h-47zM414,219h35v1h-35zM23,220h59v1h-59zM268,220h47v1h-47zM414,220h34v1h-34zM24,221h61v1h-61zM267,221h47v1h-47zM414,221h34v1h-34zM24,222h63v1h-63zM266,222h47v1h-47zM413,222h35v1h-35zM25,223h65v1h-65zM265,223h47v1h-47zM413,223h34v1h-34zM26,224h66v1h-66zM264,224h47v1h-47zM413,224h34v1h-34zM26,225h69v1h-69zM263,225h47v1h-47zM412,225h35v1h-35zM27,226h70v1h-70zM262,226h47v1h-47zM412,226h34v1h-34zM28,227h72v1h-72zM261,227h47v1h-47zM412,227h34v1h-34zM29,228h73v1h-73zM260,228h47v1h-47zM411,228h35v1h-35zM30,229h75v1h-75zM259,229h47v1h-47zM411,229h34v1h-34zM31,230h76v1h-76zM258,230h47v1h-47zM411,230h34v1h-34zM32,231h78v1h-78zM257,231h47v1h-47zM410,231h35v1h-35zM33,232h79v1h-79zM256,232h47v1h-47zM410,232h34v1h-34zM34,233h81v1h-81zM255,233h47v1h-47zM410,233h34v1h-34zM35,234h82v1h-82zM254,234h47v1h-47zM409,234h35v1h-35zM36,235h84v1h-84zM253,235h47v1h-47zM409,235h34v1h-34zM38,236h84v1h-84zM252,236h47v1h-47zM409,236h34v1h-34zM39,237h86v1h-86zM251,237h47v1h-47zM408,237h35v1h-35zM41,238h86v1h-86zM250,238h47v1h-47zM408,238h34v1h-34zM43,239h87v1h-87zM249,239h47v1h-47zM408,239h34v1h-34zM45,240h87v1h-87zM248,240h47v1h-47zM407,240h35v1h-35zM47,241h88v1h-88zM247,241h47v1h-47zM407,241h34v1h-34zM49,242h88v1h-88zM246,242h47v1h-47zM407,242h34v1h-34zM52,243h88v1h-88zM245,243h47v1h-47zM406,243h35v1h-35zM54,244h88v1h-88zM244,244h47v1h-47zM406,244h34v1h-34zM57,245h88v1h-88zM243,245h47v1h-47zM406,245h34v1h-34zM59,246h88v1h-88zM242,246h47v1h-47zM405,246h35v1h-35zM62,247h88v1h-88zM241,247h47v1h-47zM405,247h34v1h-34zM64,248h88v1h-88zM240,248h47v1h-47zM405,248h34v1h-34zM67,249h88v1h-88zM239,249h47v1h-47zM404,249h35v1h-35zM69,250h88v1h-88zM238,250h47v1h-47zM404,250h34v1h-34zM72,251h88v1h-88zM237,251h47v1h-47zM404,251h34v1h-34zM74,252h88v1h-88zM236,252h47v1h-47zM403,252h35v1h-35zM77,253h88v1h-88zM235,253h47v1h-47zM403,253h34v1h-34zM79,254h88v1h-88zM234,254h47v1h-47zM403,254h34v1h-34zM82,255h88v1h-88zM233,255h47v1h-47zM402,255h35v1h-35zM84,256h88v1h-88zM232,256h47v1h-47zM402,256h34v1h-34zM87,257h88v1h-88zM231,257h47v1h-47zM402,257h34v1h-34zM89,258h88v1h-88zM230,258h47v1h-47zM401,258h35v1h-35zM92,259h88v1h-88zM229,259h47v1h-47zM401,259h34v1h-34zM94,260h88v1h-88zM228,260h47v1h-47zM401,260h34v1h-34zM97,261h88v1h-88zM227,261h47v1h-47zM400,261h35v1h-35zM99,262h88v1h-88zM226,262h47v1h-47zM400,262h34v1h-34zM102,263h88v1h-88zM225,263h47v1h-47zM400,263h34v1h-34zM104,264h88v1h-88zM224,264h47v1h-47zM399,264h35v1h-35zM107,265h88v1h-88zM223,265h47v1h-47zM399,265h34v1h-34zM109,266h88v1h-88zM222,266h47v1h-47zM399,266h34v1h-34zM112,267h88v1h-88zM221,267h47v1h-47zM398,267h35v1h-35zM114,268h88v1h-88zM220,268h47v1h-47zM398,268h34v1h-34zM117,269h88v1h-88zM219,269h47v1h-47zM398,269h34v1h-34zM119,270h88v1h-88zM218,270h47v1h-47zM397,270h35v1h-35zM122,271h88v1h-88zM217,271h47v1h-47zM397,271h34v1h-34zM124,272h139v1h-139zM397,272h34v1h-34zM127,273h135v1h-135zM396,273h35v1h-35zM129,274h132v1h-132zM396,274h34v1h-34zM132,275h128v1h-128zM396,275h34v1h-34zM134,276h125v1h-125zM395,276h35v1h-35zM137,277h121v1h-121zM395,277h34v1h-34zM139,278h118v1h-118zM395,278h34v1h-34zM142,279h114v1h-114zM394,279h35v1h-35zM144,280h111v1h-111zM394,280h34v1h-34zM147,281h107v1h-107zM394,281h34v1h-34zM149,282h104v1h-104zM393,282h35v1h-35zM152,283h100v1h-100zM393,283h34v1h-34zM154,284h97v1h-97zM393,284h34v1h-34zM157,285h93v1h-93zM392,285h35v1h-35zM159,286h90v1h-90zM392,286h34v1h-34zM162,287h86v1h-86zM392,287h34v1h-34zM164,288h83v1h-83zM391,288h35v1h-35zM167,289h79v1h-79zM391,289h34v1h-34zM169,290h76v1h-76zM391,290h34v1h-34zM172,291h72v1h-72zM390,291h35v1h-35zM174,292h69v1h-69zM390,292h34v1h-34zM177,293h65v1h-65zM390,293h34v1h-34zM179,294h62v1h-62zM389,294h35v1h-35zM182,295h58v1h-58zM389,295h34v1h-34zM184,296h56v1h-56zM389,296h34v1h-34zM187,297h53v1h-53zM388,297h35v1h-35zM189,298h51v1h-51zM388,298h34v1h-34zM192,299h48v1h-48zM388,299h34v1h-34zM194,300h46v1h-46zM387,300h35v1h-35zM197,301h43v1h-43zM387,301h34v1h-34zM199,302h42v1h-42zM387,302h34v1h-34zM202,303h39v1h-39zM386,303h35v1h-35zM204,304h37v1h-37zM386,304h34v1h-34zM207,305h35v1h-35zM386,305h34v1h-34zM207,306h35v1h-35zM385,306h35v1h-35zM207,307h36v1h-36zM385,307h34v1h-34zM208,308h35v1h-35zM385,308h34v1h-34zM208,309h35v1h-35zM384,309h35v1h-35zM209,310h35v1h-35zM384,310h34v1h-34zM209,311h35v1h-35zM384,311h34v1h-34zM209,312h36v1h-36zM383,312h35v1h-35zM210,313h35v1h-35zM383,313h34v1h-34zM210,314h35v1h-35zM383,314h34v1h-34zM211,315h35v1h-35zM382,315h35v1h-35zM211,316h35v1h-35zM382,316h34v1h-34zM211,317h36v1h-36zM382,317h34v1h-34zM212,318h35v1h-35zM381,318h35v1h-35zM212,319h35v1h-35zM381,319h34v1h-34zM213,320h35v1h-35zM381,320h34v1h-34zM213,321h35v1h-35zM380,321h35v1h-35zM213,322h36v1h-36zM380,322h34v1h-34zM214,323h35v1h-35zM380,323h34v1h-34zM214,324h35v1h-35zM379,324h35v1h-35zM215,325h35v1h-35zM379,325h34v1h-34zM215,326h35v1h-35zM379,326h34v1h-34zM215,327h36v1h-36zM378,327h35v1h-35zM216,328h35v1h-35zM378,328h34v1h-34zM216,329h35v1h-35zM378,329h34v1h-34zM217,330h35v1h-35zM377,330h35v1h-35zM217,331h35v1h-35zM377,331h34v1h-34zM217,332h36v1h-36zM377,332h34v1h-34zM218,333h35v1h-35zM376,333h35v1h-35zM218,334h35v1h-35zM376,334h34v1h-34zM219,335h35v1h-35zM376,335h34v1h-34zM219,336h35v1h-35zM375,336h35v1h-35zM219,337h36v1h-36zM375,337h34v1h-34zM220,338h35v1h-35zM375,338h34v1h-34zM220,339h35v1h-35zM374,339h35v1h-35zM221,340h35v1h-35zM374,340h34v1h-34zM221,341h35v1h-35zM374,341h34v1h-34zM221,342h36v1h-36zM373,342h35v1h-35zM222,343h35v1h-35zM373,343h34v1h-34zM222,344h35v1h-35zM373,344h34v1h-34zM223,345h35v1h-35zM372,345h35v1h-35zM223,346h35v1h-35zM372,346h34v1h-34zM223,347h36v1h-36zM372,347h34v1h-34zM224,348h35v1h-35zM371,348h35v1h-35zM224,349h35v1h-35zM371,349h34v1h-34zM225,350h35v1h-35zM371,350h34v1h-34zM225,351h35v1h-35zM370,351h35v1h-35zM225,352h36v1h-36zM370,352h34v1h-34zM226,353h35v1h-35zM370,353h34v1h-34zM226,354h35v1h-35zM369,354h35v1h-35zM227,355h35v1h-35zM369,355h34v1h-34zM227,356h35v1h-35zM369,356h34v1h-34zM227,357h36v1h-36zM368,357h35v1h-35zM228,358h35v1h-35zM368,358h34v1h-34zM228,359h35v1h-35zM368,359h34v1h-34zM229,360h35v1h-35zM367,360h35v1h-35zM229,361h35v1h-35zM367,361h34v1h-34zM229,362h36v1h-36zM367,362h34v1h-34zM230,363h35v1h-35zM366,363h35v1h-35zM230,364h35v1h-35zM366,364h34v1h-34zM231,365h35v1h-35zM366,365h34v1h-34zM231,366h35v1h-35zM365,366h35v1h-35zM231,367h36v1h-36zM365,367h34v1h-34zM232,368h35v1h-35zM365,368h34v1h-34zM232,369h35v1h-35zM364,369h35v1h-35zM233,370h35v1h-35zM364,370h34v1h-34zM233,371h35v1h-35zM364,371h34v1h-34zM233,372h36v1h-36zM363,372h35v1h-35zM234,373h35v1h-35zM363,373h34v1h-34zM234,374h35v1h-35zM363,374h34v1h-34zM235,375h35v1h-35zM362,375h35v1h-35zM235,376h35v1h-35zM362,376h34v1h-34zM235,377h36v1h-36zM362,377h34v1h-34zM236,378h35v1h-35zM361,378h35v1h-35zM236,379h35v1h-35zM361,379h34v1h-34zM237,380h35v1h-35zM361,380h34v1h-34zM237,381h35v1h-35zM360,381h35v1h-35zM237,382h36v1h-36zM360,382h34v1h-34zM238,383h35v1h-35zM360,383h34v1h-34zM238,384h35v1h-35zM359,384h35v1h-35zM239,385h35v1h-35zM359,385h34v1h-34zM239,386h35v1h-35zM359,386h34v1h-34zM239,387h36v1h-36zM358,387h35v1h-35zM240,388h35v1h-35zM358,388h34v1h-34zM240,389h35v1h-35zM358,389h34v1h-34zM241,390h35v1h-35zM357,390h35v1h-35zM241,391h35v1h-35zM357,391h34v1h-34zM241,392h36v1h-36zM357,392h34v1h-34zM242,393h35v1h-35zM356,393h35v1h-35zM242,394h35v1h-35zM356,394h34v1h-34zM243,395h35v1h-35zM356,395h34v1h-34zM243,396h35v1h-35zM355,396h35v1h-35zM243,397h36v1h-36zM355,397h34v1h-34zM244,398h35v1h-35zM355,398h34v1h-34zM244,399h35v1h-35zM354,399h35v1h-35zM245,400h35v1h-35zM354,400h34v1h-34zM245,401h35v1h-35zM354,401h34v1h-34zM245,402h36v1h-36zM353,402h35v1h-35zM246,403h35v1h-35zM353,403h34v1h-34zM246,404h35v1h-35zM353,404h34v1h-34zM247,405h35v1h-35zM352,405h35v1h-35zM247,406h35v1h-35zM352,406h34v1h-34zM247,407h36v1h-36zM352,407h34v1h-34zM248,408h35v1h-35zM351,408h35v1h-35zM248,409h35v1h-35zM351,409h34v1h-34zM249,410h35v1h-35zM351,410h34v1h-34zM249,411h35v1h-35zM350,411h35v1h-35zM249,412h36v1h-36zM350,412h34v1h-34zM250,413h35v1h-35zM350,413h34v1h-34zM250,414h35v1h-35zM349,414h35v1h-35zM251,415h35v1h-35zM349,415h34v1h-34zM251,416h35v1h-35zM349,416h34v1h-34zM251,417h36v1h-36zM348,417h35v1h-35zM252,418h35v1h-35zM348,418h34v1h-34zM252,419h35v1h-35zM348,419h34v1h-34zM253,420h35v1h-35zM347,420h35v1h-35zM253,421h35v1h-35zM347,421h34v1h-34zM253,422h36v1h-36zM347,422h34v1h-34zM254,423h35v1h-35zM346,423h35v1h-35zM254,424h35v1h-35zM346,424h34v1h-34zM255,425h35v1h-35zM346,425h34v1h-34zM255,426h35v1h-35zM345,426h35v1h-35zM255,427h36v1h-36zM345,427h34v1h-34zM256,428h35v1h-35zM345,428h34v1h-34zM256,429h35v1h-35zM344,429h35v1h-35zM257,430h35v1h-35zM344,430h34v1h-34zM257,431h35v1h-35zM344,431h34v1h-34zM257,432h36v1h-36zM343,432h35v1h-35zM258,433h35v1h-35zM343,433h34v1h-34zM258,434h35v1h-35zM343,434h34v1h-34zM259,435h35v1h-35zM342,435h35v1h-35zM259,436h35v1h-35zM342,436h34v1h-34zM259,437h36v1h-36zM342,437h34v1h-34zM260,438h35v1h-35zM341,438h35v1h-35zM260,439h35v1h-35zM341,439h34v1h-34zM261,440h35v1h-35zM341,440h34v1h-34zM261,441h35v1h-35zM340,441h35v1h-35zM261,442h36v1h-36zM340,442h34v1h-34zM262,443h35v1h-35zM340,443h34v1h-34zM262,444h35v1h-35zM339,444h35v1h-35zM263,445h35v1h-35zM339,445h34v1h-34zM263,446h35v1h-35zM339,446h34v1h-34zM263,447h36v1h-36zM338,447h35v1h-35zM264,448h35v1h-35zM338,448h34v1h-34zM264,449h35v1h-35zM338,449h34v1h-34zM265,450h35v1h-35zM337,450h35v1h-35zM265,451h35v1h-35zM337,451h34v1h-34zM265,452h36v1h-36zM336,452h35v1h-35zM266,453h35v1h-35zM336,453h35v1h-35zM266,454h36v1h-36zM335,454h35v1h-35zM267,455h36v1h-36zM335,455h35v1h-35zM267,456h36v1h-36zM334,456h36v1h-36zM267,457h37v1h-37zM333,457h36v1h-36zM268,458h37v1h-37zM332,458h37v1h-37zM268,459h38v1h-38zM331,459h38v1h-38zM269,460h39v1h-39zM329,460h39v1h-39zM269,461h41v1h-41zM328,461h40v1h-40zM269,462h43v1h-43zM325,462h43v1h-43zM270,463h97v1h-97zM270,464h97v1h-97zM271,465h95v1h-95zM271,466h95v1h-95zM272,467h93v1h-93zM272,468h93v1h-93zM273,469h91v1h-91zM273,470h91v1h-91zM274,471h89v1h-89zM274,472h89v1h-89zM275,473h87v1h-87zM276,474h85v1h-85zM276,475h85v1h-85zM277,476h83v1h-83zM278,477h81v1h-81zM279,478h79v1h-79zM280,479h77v1h-77zM281,480h75v1h-75zM282,481h73v1h-73zM283,482h71v1h-71zM284,483h69v1h-69zM285,484h67v1h-67zM286,485h65v1h-65zM288,486h62v1h-62zM289,487h59v1h-59zM291,488h55v1h-55zM292,489h53v1h-53zM294,490h49v1h-49zM296,491h45v1h-45zM298,492h41v1h-41zM301,493h35v1h-35zM304,494h29v1h-29zM309,495h19v1h-19z"/></svg>