<?xml version="1.0" encoding="UTF-8"?>
<svg xmlns="http://www.w3.org/2000/svg" viewBox="0 0 512 512" width="512" height="512"><path fill="#000" d="M317,42h6v1h-6zM313,43h14v1h-14zM311,44h18v1h-18zM309,45h22v1h-22zM307,46h26v1h-26zM306,47h28v1h-28zM305,48h30v1h-30zM304,49h32v1h-32zM303,50h34v1h-34zM302,51h36v1h-36zM302,52h36v1h-36zM301,53h38v1h-38zM300,54h40v1h-40zM300,55h40v1h-40zM299,56h42v1h-42zM299,57h42v1h-42zM298,58h44v1h-44zM298,59h44v1h-44zM297,60h46v1h-46zM297,61h46v1h-46zM296,62h48v1h-48zM296,63h48v1h-48zM295,64h50v1h-50zM294,65h52v1h-52zM294,66h52v1h-52zM293,67h54v1h-54zM293,68h54v1h-54zM292,69h56v1h-56zM292,70h56v1h-56zM291,71h58v1h-58zM291,72h58v1h-58zM290,73h60v1h-60zM290,74h60v1h-60zM289,75h62v1h-62zM287,76h66v1h-66zM285,77h70v1h-70zM284,78h72v1h-72zM282,79h76v1h-76zM280,80h80v1h-80zM278,81h84v1h-84zM276,82h88v1h-88zM275,83h91v1h-91zM273,84h94v1h-94zM271,85h98v1h-98zM269,86h102v1h-102zM267,87h106v1h-106zM266,88h108v1h-108zM264,89h112v1h-112zM263,90h114v1h-114zM262,91h116v1h-116zM261,92h118v1h-118zM260,93h120v1h-120zM259,94h122v1h-122zM259,95h122v1h-122zM258,96h124v1h-124zM258,97h124v1h-124zM257,98h126v1h-126zM257,99h126v1h-126zM257,100h126v1h-126zM256,101h128v1h-128zM256,102h128v1h-128zM256,103h128v1h-128zM256,104h128v1h-128zM256,105h128v1h-128zM256,106h128v1h-128zM256,107h128v1h-128zM256,108h128v1h-128zM256,109h128v1h-128zM256,110h128v1h-128zM256,111h128v1h-128zM256,112h128v1h-128zM257,113h126v1h-126zM257,114h126v1h-126zM258,115h124v1h-124zM258,116h124v1h-124zM259,117h122v1h-122zM259,118h122v1h-122zM260,119h120v1h-120zM261,120h118v1h-118zM262,121h116v1h-116zM263,122h114v1h-114zM264,123h112v1h-112zM265,124h110v1h-110zM267,125h106v1h-106zM268,126h104v1h-104zM270,127h100v1h-100zM186,128h12v1h-12zM272,128h96v1h-96zM183,129h18v1h-18zM274,129h92v1h-92zM181,130h22v1h-22zM276,130h88v1h-88zM180,131h24v1h-24zM278,131h85v1h-85zM178,132h28v1h-28zM279,132h82v1h-82zM177,133h30v1h-30zM281,133h78v1h-78zM176,134h32v1h-32zM283,134h74v1h-74zM175,135h34v1h-34zM285,135h70v1h-70zM175,136h34v1h-34zM287,136h66v1h-66zM174,137h36v1h-36zM288,137h64v1h-64zM173,138h38v1h-38zM289,138h62v1h-62zM173,139h38v1h-38zM290,139h60v1h-60zM172,140h40v1h-40zM290,140h60v1h-60zM172,141h40v1h-40zM291,141h58v1h-58zM171,142h42v1h-42zM292,142h56v1h-56zM171,143h42v1h-42zM292,143h56v1h-56zM170,144h44v1h-44zM293,144h54v1h-54zM170,145h44v1h-44zM293,145h54v1h-54zM169,146h46v1h-46zM294,146h52v1h-52zM169,147h46v1h-46zM294,147h52v1h-52zM168,148h48v1h-48zM295,148h50v1h-50zM168,149h48v1h-48zM295,149h50v1h-50zM168,150h49v1h-49zM296,150h48v1h-48zM167,151h50v1h-50zM296,151h48v1h-48zM167,152h50v1h-50zM297,152h46v1h-46zM166,153h52v1h-52zM298,153h44v1h-44zM166,154h52v1h-52zM298,154h44v1h-44zM165,155h54v1h-54zM299,155h42v1h-42zM165,156h54v1h-54zM299,156h42v1h-42zM164,157h56v1h-56zM300,157h40v1h-40zM164,158h56v1h-56zM300,158h40v1h-40zM163,159h58v1h-58zM301,159h38v1h-38zM163,160h58v1h-58zM301,160h38v1h-38zM162,161h60v1h-60zM302,161h36v1h-36zM162,162h60v1h-60zM303,162h34v1h-34zM161,163h62v1h-62zM304,163h32v1h-32zM161,164h62v1h-62zM304,164h31v1h-31zM160,165h64v1h-64zM306,165h28v1h-28zM160,166h64v1h-64zM307,166h26v1h-26zM160,167h64v1h-64zM308,167h24v1h-24zM159,168h66v1h-66zM310,168h20v1h-20zM159,169h66v1h-66zM312,169h16v1h-16zM158,170h68v1h-68zM315,170h10v1h-10zM424,170h6v1h-6zM158,171h68v1h-68zM420,171h14v1h-14zM157,172h70v1h-70zM417,172h19v1h-19zM157,173h70v1h-70zM415,173h23v1h-23zM156,174h72v1h-72zM414,174h25v1h-25zM156,175h72v1h-72zM413,175h28v1h-28zM155,176h74v1h-74zM412,176h30v1h-30zM155,177h74v1h-74zM411,177h32v1h-32zM154,178h76v1h-76zM410,178h34v1h-34zM154,179h76v1h-76zM409,179h35v1h-35zM153,180h78v1h-78zM408,180h37v1h-37zM153,181h78v1h-78zM408,181h38v1h-38zM152,182h80v1h-80zM407,182h39v1h-39zM152,183h80v1h-80zM407,183h40v1h-40zM152,184h80v1h-80zM406,184h41v1h-41zM151,185h82v1h-82zM405,185h43v1h-43zM151,186h82v1h-82zM405,186h43v1h-43zM150,187h84v1h-84zM404,187h45v1h-45zM150,188h84v1h-84zM404,188h45v1h-45zM149,189h86v1h-86zM403,189h47v1h-47zM149,190h86v1h-86zM402,190h49v1h-49zM148,191h88v1h-88zM400,191h53v1h-53zM148,192h88v1h-88zM398,192h57v1h-57zM147,193h90v1h-90zM396,193h61v1h-61zM147,194h90v1h-90zM395,194h64v1h-64zM146,195h92v1h-92zM393,195h67v1h-67zM146,196h92v1h-92zM392,196h70v1h-70zM145,197h94v1h-94zM391,197h72v1h-72zM145,198h94v1h-94zM390,198h74v1h-74zM145,199h94v1h-94zM389,199h76v1h-76zM144,200h96v1h-96zM388,200h77v1h-77zM144,201h96v1h-96zM387,201h79v1h-79zM143,202h98v1h-98zM387,202h80v1h-80zM143,203h98v1h-98zM386,203h81v1h-81zM142,204h100v1h-100zM386,204h82v1h-82zM142,205h100v1h-100zM385,205h83v1h-83zM141,206h102v1h-102zM385,206h84v1h-84zM141,207h102v1h-102zM384,207h85v1h-85zM140,208h104v1h-104zM384,208h85v1h-85zM140,209h104v1h-104zM384,209h85v1h-85zM139,210h106v1h-106zM384,210h86v1h-86zM139,211h106v1h-106zM384,211h86v1h-86zM138,212h108v1h-108zM384,212h86v1h-86zM138,213h108v1h-108zM384,213h86v1h-86zM137,214h110v1h-110zM384,214h86v1h-86zM137,215h110v1h-110zM384,215h86v1h-86zM137,216h110v1h-110zM384,216h85v1h-85zM136,217h112v1h-112zM384,217h85v1h-85zM136,218h112v1h-112zM384,218h85v1h-85zM135,219h114v1h-114zM385,219h84v1h-84zM135,220h114v1h-114zM385,220h83v1h-83zM134,221h116v1h-116zM385,221h83v1h-83zM134,222h116v1h-116zM386,222h82v1h-82zM133,223h118v1h-118zM386,223h81v1h-81zM133,224h118v1h-118zM387,224h80v1h-80zM132,225h120v1h-120zM387,225h79v1h-79zM132,226h120v1h-120zM388,226h77v1h-77zM131,227h122v1h-122zM389,227h75v1h-75zM131,228h122v1h-122zM390,228h73v1h-73zM130,229h124v1h-124zM391,229h71v1h-71zM130,230h124v1h-124zM392,230h69v1h-69zM129,231h126v1h-126zM394,231h66v1h-66zM127,232h130v1h-130zM395,232h63v1h-63zM126,233h132v1h-132zM397,233h59v1h-59zM124,234h136v1h-136zM399,234h56v1h-56zM123,235h138v1h-138zM401,235h52v1h-52zM121,236h142v1h-142zM402,236h49v1h-49zM120,237h145v1h-145zM403,237h47v1h-47zM118,238h148v1h-148zM404,238h45v1h-45zM116,239h152v1h-152zM405,239h44v1h-44zM115,240h154v1h-154zM405,240h43v1h-43zM113,241h158v1h-158zM406,241h42v1h-42zM112,242h160v1h-160zM406,242h41v1h-41zM110,243h164v1h-164zM407,243h40v1h-40zM109,244h166v1h-166zM407,244h39v1h-39zM107,245h170v1h-170zM408,245h37v1h-37zM105,246h174v1h-174zM409,246h36v1h-36zM104,247h176v1h-176zM409,247h35v1h-35zM102,248h180v1h-180zM410,248h33v1h-33zM101,249h182v1h-182zM411,249h31v1h-31zM99,250h186v1h-186zM412,250h29v1h-29zM98,251h188v1h-188zM413,251h27v1h-27zM96,252h192v1h-192zM414,252h25v1h-25zM94,253h196v1h-196zM416,253h21v1h-21zM93,254h198v1h-198zM418,254h17v1h-17zM91,255h202v1h-202zM421,255h12v1h-12zM90,256h204v1h-204zM88,257h208v1h-208zM87,258h210v1h-210zM85,259h214v1h-214zM83,260h218v1h-218zM82,261h220v1h-220zM80,262h224v1h-224zM79,263h226v1h-226zM77,264h230v1h-230zM76,265h232v1h-232zM74,266h236v1h-236zM73,267h239v1h-239zM71,268h242v1h-242zM69,269h246v1h-246zM68,270h248v1h-248zM66,271h252v1h-252zM65,272h254v1h-254zM63,273h258v1h-258zM62,274h260v1h-260zM60,275h264v1h-264zM58,276h268v1h-268zM57,277h270v1h-270zM55,278h274v1h-274zM54,279h276v1h-276zM52,280h280v1h-280zM51,281h282v1h-282zM50,282h284v1h-284zM49,283h286v1h-286zM48,284h288v1h-288zM47,285h290v1h-290zM46,286h292v1h-292zM45,287h294v1h-294zM45,288h294v1h-294zM44,289h296v1h-296zM44,290h296v1h-296zM44,291h296v1h-296zM43,292h298v1h-298zM43,293h298v1h-298zM43,294h298v1h-298zM43,295h298v1h-298zM42,296h300v1h-300zM42,297h300v1h-300zM42,298h300v1h-300zM42,299h300v1h-300zM42,300h300v1h-300zM42,301h300v1h-300zM43,302h298v1h-298zM43,303h298v1h-298zM43,304h298v1h-298zM43,305h298v1h-298zM44,306h296v1h-296zM44,307h296v1h-296zM45,308h294v1h-294zM45,309h294v1h-294zM46,310h292v1h-292zM47,311h290v1h-290zM47,312h290v1h-290zM48,313h288v1h-288zM49,314h286v1h-286zM50,315h284v1h-284zM52,316h280v1h-280zM53,317h278v1h-278zM55,318h274v1h-274zM56,319h272v1h-272zM58,320h268v1h-268zM59,321h266v1h-266zM61,322h262v1h-262zM63,323h258v1h-258zM64,324h256v1h-256zM66,325h252v1h-252zM67,326h250v1h-250zM69,327h246v1h-246zM70,328h244v1h-244zM72,329h240v1h-240zM74,330h236v1h-236zM75,331h234v1h-234zM77,332h230v1h-230zM78,333h228v1h-228zM80,334h224v1h-224zM81,335h222v1h-222zM83,336h218v1h-218zM85,337h215v1h-215zM86,338h212v1h-212zM88,339h208v1h-208zM89,340h206v1h-206zM91,341h202v1h-202zM92,342h200v1h-200zM94,343h196v1h-196zM96,344h193v1h-193zM97,345h190v1h-190zM99,346h186v1h-186zM100,347h184v1h-184zM102,348h180v1h-180zM103,349h178v1h-178zM105,350h174v1h-174zM106,351h172v1h-172zM108,352h168v1h-168zM110,353h164v1h-164zM111,354h162v1h-162zM113,355h158v1h-158zM114,356h156v1h-156zM116,357h152v1h-152zM117,358h150v1h-150zM119,359h146v1h-146zM121,360h142v1h-142zM122,361h140v1h-140zM124,362h136v1h-136zM125,363h134v1h-134zM127,364h130v1h-130zM128,365h128v1h-128zM130,366h124v1h-124zM130,367h124v1h-124zM131,368h122v1h-122zM131,369h122v1h-122zM132,370h120v1h-120zM132,371h120v1h-120zM133,372h118v1h-118zM133,373h118v1h-118zM134,374h116v1h-116zM134,375h116v1h-116zM135,376h114v1h-114zM135,377h114v1h-114zM135,378h114v1h-114zM136,379h112v1h-112zM136,380h112v1h-112zM137,381h110v1h-110zM137,382h110v1h-110zM138,383h108v1h-108zM138,384h108v1h-108zM139,385h106v1h-106zM139,386h106v1h-106zM140,387h104v1h-104zM140,388h104v1h-104zM141,389h102v1h-102zM141,390h102v1h-102zM142,391h100v1h-100zM142,392h100v1h-100zM142,393h100v1h-100zM143,394h98v1h-98zM143,395h98v1h-98zM144,396h96v1h-96zM144,397h96v1h-96zM145,398h94v1h-94zM145,399h94v1h-94zM146,400h92v1h-92zM146,401h92v1h-92zM147,402h90v1h-90zM147,403h90v1h-90zM148,404h88v1h-88zM148,405h88v1h-88zM149,406h86v1h-86zM149,407h86v1h-86zM150,408h84v1h-84zM150,409h84v1h-84zM150,410h84v1h-84zM151,411h82v1h-82zM151,412h82v1h-82zM152,413h80v1h-80zM152,414h80v1h-80zM153,415h78v1h-78zM153,416h78v1h-78zM154,417h76v1h-76zM154,418h76v1h-76zM155,419h74v1h-74zM155,420h74v1h-74zM156,421h72v1h-72zM156,422h72v1h-72zM157,423h70v1h-70zM157,424h70v1h-70zM158,425h69v1h-69zM158,426h68v1h-68zM158,427h68v1h-68zM159,428h66v1h-66zM159,429h66v1h-66zM160,430h64v1h-64zM160,431h64v1h-64zM161,432h62v1h-62zM161,433h62v1h-62zM162,434h60v1h-60zM162,435h60v1h-60zM163,436h58v1h-58zM163,437h58v1h-58zM164,438h56v1h-56zM164,439h56v1h-56zM165,440h54v1h-54zM165,441h54v1h-54zM165,442h54v1h-54zM166,443h52v1h-52zM166,444h52v1h-52zM167,445h50v1h-50zM167,446h50v1h-50zM168,447h48v1h-48zM168,448h48v1h-48zM169,449h46v1h-46zM169,450h46v1h-46zM170,451h44v1h-44zM170,452h44v1h-44zM171,453h42v1h-42zM171,454h42v1h-42zM172,455h40v1h-40zM172,456h40v1h-40zM173,457h38v1h-38zM173,458h38v1h-38zM174,459h36v1h-36zM174,460h36v1h-36zM175,461h34v1h-34zM176,462h32v1h-32zM177,463h30v1h-30zM178,464h28v1h-28zM179,465h26v1h-26zM181,466h22v1h-22zM183,467h18v1h-18zM185,468h14v1h-14zM189,469h6v1h-6z"/></svg>