<?xml version="1.0" encoding="UTF-8"?>
<svg xmlns="http://www.w3.org/2000/svg" viewBox="0 0 512 512" width="512" height="512"><path fill="#000" d="M245,24h22v1h-22zM240,25h32v1h-32zM236,26h40v1h-40zM233,27h46v1h-46zM231,28h51v1h-51zM228,29h56v1h-56zM226,30h60v1h-60zM224,31h64v1h-64zM222,32h68v1h-68zM220,33h72v1h-72zM219,34h74v1h-74zM217,35h78v1h-78zM216,36h80v1h-80zM215,37h82v1h-82zM213,38h86v1h-86zM212,39h88v1h-88zM211,40h90v1h-90zM210,41h92v1h-92zM209,42h94v1h-94zM208,43h96v1h-96zM207,44h98v1h-98zM206,45h100v1h-100zM205,46h102v1h-102zM204,47h104v1h-104zM203,48h106v1h-106zM202,49h108v1h-108zM201,50h110v1h-110zM201,51h110v1h-110zM200,52h112v1h-112zM199,53h114v1h-114zM198,54h116v1h-116zM198,55h116v1h-116zM197,56h118v1h-118zM196,57h51v1h-51zM265,57h51v1h-51zM195,58h49v1h-49zM268,58h49v1h-49zM195,59h46v1h-46zM271,59h46v1h-46zM194,60h45v1h-45zM273,60h45v1h-45zM193,61h44v1h-44zM274,61h45v1h-45zM192,62h44v1h-44zM276,62h44v1h-44zM192,63h43v1h-43zM277,63h43v1h-43zM191,64h42v1h-42zM279,64h42v1h-42zM190,65h42v1h-42zM280,65h42v1h-42zM190,66h41v1h-41zM281,66h42v1h-42zM189,67h41v1h-41zM282,67h41v1h-41zM188,68h41v1h-41zM283,68h41v1h-41zM187,69h41v1h-41zM284,69h41v1h-41zM187,70h40v1h-40zM285,70h40v1h-40zM186,71h41v1h-41zM285,71h41v1h-41zM185,72h41v1h-41zM286,72h41v1h-41zM184,73h41v1h-41zM287,73h41v1h-41zM184,74h40v1h-40zM288,74h40v1h-40zM183,75h41v1h-41zM288,75h41v1h-41zM182,76h41v1h-41zM289,76h41v1h-41zM181,77h41v1h-41zM290,77h41v1h-41zM181,78h40v1h-40zM291,78h40v1h-40zM180,79h41v1h-41zM291,79h41v1h-41zM179,80h41v1h-41zM292,80h41v1h-41zM178,81h41v1h-41zM293,81h41v1h-41zM178,82h40v1h-40zM294,82h40v1h-40zM177,83h41v1h-41zM294,83h41v1h-41zM176,84h41v1h-41zM295,84h41v1h-41zM175,85h41v1h-41zM296,85h41v1h-41zM175,86h40v1h-40zM297,86h40v1h-40zM174,87h41v1h-41zM297,87h41v1h-41zM173,88h41v1h-41zM298,88h41v1h-41zM173,89h40v1h-40zM299,89h41v1h-41zM172,90h40v1h-40zM300,90h40v1h-40zM171,91h41v1h-41zM300,91h41v1h-41zM170,92h41v1h-41zM301,92h41v1h-41zM170,93h40v1h-40zM302,93h40v1h-40zM169,94h41v1h-41zM303,94h40v1h-40zM168,95h41v1h-41zM303,95h41v1h-41zM167,96h41v1h-41zM304,96h41v1h-41zM167,97h40v1h-40zM305,97h40v1h-40zM166,98h41v1h-41zM305,98h41v1h-41zM165,99h41v1h-41zM306,99h41v1h-41zM164,100h41v1h-41zM307,100h41v1h-41zM164,101h40v1h-40zM308,101h40v1h-40zM163,102h41v1h-41zM308,102h41v1h-41zM162,103h41v1h-41zM309,103h41v1h-41zM161,104h41v1h-41zM310,104h41v1h-41zM161,105h40v1h-40zM311,105h40v1h-40zM160,106h41v1h-41zM311,106h41v1h-41zM159,107h41v1h-41zM312,107h41v1h-41zM158,108h41v1h-41zM313,108h41v1h-41zM158,109h40v1h-40zM314,109h40v1h-40zM157,110h41v1h-41zM314,110h41v1h-41zM156,111h41v1h-41zM315,111h41v1h-41zM156,112h40v1h-40zM316,112h41v1h-41zM155,113h40v1h-40zM317,113h40v1h-40zM154,114h41v1h-41zM317,114h41v1h-41zM153,115h41v1h-41zM318,115h41v1h-41zM152,116h41v1h-41zM319,116h41v1h-41zM152,117h41v1h-41zM319,117h42v1h-42zM151,118h41v1h-41zM320,118h41v1h-41zM150,119h41v1h-41zM321,119h41v1h-41zM148,120h42v1h-42zM322,120h42v1h-42zM147,121h43v1h-43zM322,121h43v1h-43zM146,122h43v1h-43zM323,122h43v1h-43zM144,123h44v1h-44zM324,123h44v1h-44zM143,124h44v1h-44zM325,124h44v1h-44zM141,125h46v1h-46zM325,125h46v1h-46zM139,126h47v1h-47zM326,126h47v1h-47zM136,127h49v1h-49zM327,127h49v1h-49zM133,128h51v1h-51zM328,128h51v1h-51zM130,129h54v1h-54zM328,129h54v1h-54zM127,130h56v1h-56zM329,130h56v1h-56zM124,131h58v1h-58zM330,131h58v1h-58zM121,132h60v1h-60zM331,132h60v1h-60zM118,133h63v1h-63zM331,133h63v1h-63zM115,134h65v1h-65zM332,134h65v1h-65zM112,135h67v1h-67zM333,135h67v1h-67zM109,136h69v1h-69zM334,136h69v1h-69zM106,137h72v1h-72zM334,137h72v1h-72zM103,138h74v1h-74zM335,138h74v1h-74zM100,139h76v1h-76zM336,139h76v1h-76zM97,140h78v1h-78zM337,140h78v1h-78zM94,141h80v1h-80zM338,141h80v1h-80zM91,142h82v1h-82zM339,142h82v1h-82zM88,143h84v1h-84zM340,143h84v1h-84zM85,144h86v1h-86zM341,144h86v1h-86zM82,145h88v1h-88zM342,145h88v1h-88zM79,146h89v1h-89zM344,146h89v1h-89zM76,147h91v1h-91zM345,147h91v1h-91zM73,148h93v1h-93zM346,148h93v1h-93zM70,149h94v1h-94zM348,149h94v1h-94zM67,150h96v1h-96zM349,150h96v1h-96zM64,151h97v1h-97zM351,151h97v1h-97zM61,152h99v1h-99zM352,152h99v1h-99zM58,153h100v1h-100zM354,153h100v1h-100zM56,154h100v1h-100zM356,154h100v1h-100zM54,155h100v1h-100zM358,155h100v1h-100zM52,156h100v1h-100zM360,156h100v1h-100zM50,157h99v1h-99zM363,157h99v1h-99zM49,158h98v1h-98zM365,158h98v1h-98zM47,159h97v1h-97zM368,159h97v1h-97zM46,160h95v1h-95zM371,160h95v1h-95zM44,161h94v1h-94zM374,161h94v1h-94zM43,162h92v1h-92zM377,162h92v1h-92zM42,163h90v1h-90zM380,163h90v1h-90zM40,164h89v1h-89zM383,164h89v1h-89zM39,165h87v1h-87zM386,165h87v1h-87zM38,166h85v1h-85zM389,166h85v1h-85zM37,167h83v1h-83zM392,167h83v1h-83zM36,168h81v1h-81zM396,168h80v1h-80zM35,169h78v1h-78zM399,169h78v1h-78zM34,170h76v1h-76zM402,170h76v1h-76zM33,171h74v1h-74zM405,171h74v1h-74zM32,172h72v1h-72zM408,172h72v1h-72zM32,173h69v1h-69zM411,173h69v1h-69zM31,174h67v1h-67zM414,174h67v1h-67zM30,175h65v1h-65zM417,175h65v1h-65zM29,176h63v1h-63zM420,176h63v1h-63zM29,177h60v1h-60zM423,177h60v1h-60zM28,178h58v1h-58zM426,178h58v1h-58zM27,179h56v1h-56zM429,179h56v1h-56zM27,180h53v1h-53zM432,180h53v1h-53zM26,181h51v1h-51zM435,181h51v1h-51zM25,182h49v1h-49zM438,182h49v1h-49zM25,183h47v1h-47zM440,183h47v1h-47zM24,184h45v1h-45zM443,184h45v1h-45zM24,185h43v1h-43zM445,185h43v1h-43zM23,186h43v1h-43zM446,186h43v1h-43zM23,187h41v1h-41zM448,187h41v1h-41zM22,188h41v1h-41zM449,188h41v1h-41zM22,189h40v1h-40zM450,189h40v1h-40zM21,190h40v1h-40zM451,190h40v1h-40zM21,191h39v1h-39zM452,191h39v1h-39zM21,192h38v1h-38zM453,192h38v1h-38zM20,193h38v1h-38zM454,193h38v1h-38zM20,194h37v1h-37zM455,194h37v1h-37zM19,195h37v1h-37zM456,195h36v1h-36zM19,196h36v1h-36zM457,196h36v1h-36zM19,197h36v1h-36zM457,197h36v1h-36zM19,198h35v1h-35zM458,198h35v1h-35zM18,199h35v1h-35zM459,199h35v1h-35zM18,200h35v1h-35zM459,200h35v1h-35zM18,201h34v1h-34zM460,201h34v1h-34zM17,202h35v1h-35zM460,202h34v1h-34zM17,203h34v1h-34zM461,203h34v1h-34zM17,204h34v1h-34zM461,204h34v1h-34zM17,205h34v1h-34zM461,205h34v1h-34zM17,206h33v1h-33zM462,206h33v1h-33zM17,207h33v1h-33zM462,207h33v1h-33zM16,208h34v1h-34zM462,208h34v1h-34zM16,209h34v1h-34zM462,209h34v1h-34zM16,210h33v1h-33zM463,210h33v1h-33zM16,211h33v1h-33zM463,211h33v1h-33zM16,212h33v1h-33zM463,212h33v1h-33zM16,213h33v1h-33zM463,213h33v1h-33zM16,214h33v1h-33zM463,214h33v1h-33zM16,215h33v1h-33zM463,215h33v1h-33zM16,216h32v1h-32zM464,216h32v1h-32zM16,217h32v1h-32zM464,217h32v1h-32zM16,218h32v1h-32zM464,218h32v1h-32zM16,219h32v1h-32zM464,219h32v1h-32zM16,220h32v1h-32zM464,220h32v1h-32zM16,221h33v1h-33zM463,221h33v1h-33zM16,222h33v1h-33zM463,222h33v1h-33zM16,223h33v1h-33zM463,223h33v1h-33zM16,224h33v1h-33zM463,224h33v1h-33zM16,225h33v1h-33zM463,225h33v1h-33zM16,226h33v1h-33zM463,226h33v1h-33zM16,227h33v1h-33zM463,227h33v1h-33zM16,228h34v1h-34zM462,228h34v1h-34zM16,229h34v1h-34zM462,229h34v1h-34zM17,230h33v1h-33zM462,230h33v1h-33zM17,231h34v1h-34zM461,231h34v1h-34zM17,232h34v1h-34zM461,232h34v1h-34zM17,233h34v1h-34zM461,233h34v1h-34zM17,234h35v1h-35zM460,234h35v1h-35zM18,235h34v1h-34zM460,235h34v1h-34zM18,236h35v1h-35zM459,236h35v1h-35zM18,237h35v1h-35zM459,237h35v1h-35zM18,238h36v1h-36zM458,238h35v1h-35zM19,239h36v1h-36zM457,239h36v1h-36zM19,240h36v1h-36zM457,240h36v1h-36zM19,241h37v1h-37zM456,241h37v1h-37zM20,242h37v1h-37zM455,242h37v1h-37zM20,243h37v1h-37zM455,243h37v1h-37zM21,244h37v1h-37zM454,244h37v1h-37zM21,245h38v1h-38zM453,245h38v1h-38zM21,246h39v1h-39zM452,246h39v1h-39zM22,247h38v1h-38zM452,247h38v1h-38zM22,248h39v1h-39zM451,248h39v1h-39zM23,249h39v1h-39zM450,249h39v1h-39zM23,250h39v1h-39zM450,250h39v1h-39zM24,251h39v1h-39zM449,251h39v1h-39zM24,252h40v1h-40zM448,252h40v1h-40zM25,253h40v1h-40zM447,253h40v1h-40zM25,254h40v1h-40zM447,254h40v1h-40zM26,255h40v1h-40zM446,255h40v1h-40zM27,256h40v1h-40zM445,256h40v1h-40zM27,257h41v1h-41zM445,257h40v1h-40zM28,258h40v1h-40zM444,258h40v1h-40zM29,259h40v1h-40zM443,259h40v1h-40zM29,260h41v1h-41zM442,260h41v1h-41zM30,261h40v1h-40zM442,261h40v1h-40zM31,262h40v1h-40zM441,262h40v1h-40zM32,263h40v1h-40zM440,263h41v1h-41zM32,264h41v1h-41zM439,264h41v1h-41zM33,265h40v1h-40zM439,265h40v1h-40zM34,266h40v1h-40zM438,266h40v1h-40zM34,267h41v1h-41zM437,267h41v1h-41zM35,268h40v1h-40zM437,268h40v1h-40zM36,269h40v1h-40zM436,269h40v1h-40zM37,270h40v1h-40zM435,270h40v1h-40zM37,271h41v1h-41zM434,271h41v1h-41zM38,272h40v1h-40zM434,272h40v1h-40zM39,273h40v1h-40zM433,273h40v1h-40zM39,274h41v1h-41zM432,274h41v1h-41zM40,275h41v1h-41zM432,275h40v1h-40zM41,276h40v1h-40zM431,276h40v1h-40zM42,277h40v1h-40zM430,277h40v1h-40zM42,278h41v1h-41zM429,278h41v1h-41zM43,279h40v1h-40zM429,279h40v1h-40zM44,280h40v1h-40zM428,280h40v1h-40zM44,281h41v1h-41zM427,281h41v1h-41zM45,282h41v1h-41zM427,282h40v1h-40zM46,283h40v1h-40zM426,283h40v1h-40zM47,284h40v1h-40zM425,284h40v1h-40zM47,285h41v1h-41zM424,285h41v1h-41zM48,286h40v1h-40zM424,286h40v1h-40zM49,287h40v1h-40zM423,287h40v1h-40zM50,288h40v1h-40zM422,288h41v1h-41zM50,289h41v1h-41zM421,289h41v1h-41zM51,290h40v1h-40zM421,290h40v1h-40zM52,291h40v1h-40zM420,291h40v1h-40zM52,292h41v1h-41zM419,292h41v1h-41zM53,293h40v1h-40zM419,293h40v1h-40zM54,294h40v1h-40zM418,294h40v1h-40zM55,295h40v1h-40zM417,295h40v1h-40zM55,296h41v1h-41zM416,296h41v1h-41zM56,297h40v1h-40zM416,297h40v1h-40zM57,298h40v1h-40zM415,298h40v1h-40zM57,299h41v1h-41zM414,299h41v1h-41zM58,300h41v1h-41zM414,300h40v1h-40zM59,301h40v1h-40zM413,301h40v1h-40zM60,302h40v1h-40zM412,302h40v1h-40zM60,303h41v1h-41zM411,303h41v1h-41zM61,304h40v1h-40zM411,304h40v1h-40zM62,305h40v1h-40zM410,305h40v1h-40zM62,306h40v1h-40zM410,306h40v1h-40zM63,307h40v1h-40zM409,307h40v1h-40zM64,308h40v1h-40zM408,308h40v1h-40zM65,309h39v1h-39zM408,309h39v1h-39zM65,310h40v1h-40zM407,310h40v1h-40zM66,311h39v1h-39zM407,311h39v1h-39zM67,312h39v1h-39zM406,312h39v1h-39zM68,313h38v1h-38zM406,313h39v1h-39zM68,314h39v1h-39zM405,314h39v1h-39zM69,315h38v1h-38zM405,315h38v1h-38zM70,316h37v1h-37zM405,316h37v1h-37zM70,317h38v1h-38zM404,317h38v1h-38zM71,318h37v1h-37zM404,318h37v1h-37zM72,319h37v1h-37zM403,319h37v1h-37zM73,320h36v1h-36zM403,320h36v1h-36zM73,321h36v1h-36zM403,321h36v1h-36zM74,322h35v1h-35zM403,322h35v1h-35zM74,323h36v1h-36zM402,323h36v1h-36zM75,324h35v1h-35zM402,324h35v1h-35zM76,325h34v1h-34zM402,325h34v1h-34zM76,326h35v1h-35zM401,326h35v1h-35zM77,327h34v1h-34zM401,327h34v1h-34zM77,328h34v1h-34zM401,328h34v1h-34zM77,329h34v1h-34zM401,329h34v1h-34zM78,330h33v1h-33zM401,330h33v1h-33zM78,331h34v1h-34zM400,331h34v1h-34zM78,332h34v1h-34zM400,332h34v1h-34zM79,333h33v1h-33zM400,333h33v1h-33zM79,334h33v1h-33zM400,334h33v1h-33zM79,335h33v1h-33zM400,335h33v1h-33zM79,336h33v1h-33zM400,336h33v1h-33zM79,337h33v1h-33zM400,337h33v1h-33zM79,338h33v1h-33zM400,338h33v1h-33zM80,339h32v1h-32zM400,339h32v1h-32zM80,340h32v1h-32zM400,340h32v1h-32zM80,341h32v1h-32zM400,341h32v1h-32zM80,342h33v1h-33zM399,342h33v1h-33zM80,343h33v1h-33zM399,343h33v1h-33zM80,344h33v1h-33zM399,344h33v1h-33zM80,345h33v1h-33zM399,345h33v1h-33zM80,346h33v1h-33zM399,346h33v1h-33zM80,347h33v1h-33zM399,347h33v1h-33zM80,348h33v1h-33zM399,348h33v1h-33zM80,349h33v1h-33zM399,349h33v1h-33zM80,350h33v1h-33zM399,350h33v1h-33zM80,351h33v1h-33zM399,351h33v1h-33zM80,352h33v1h-33zM399,352h33v1h-33zM80,353h33v1h-33zM399,353h33v1h-33zM80,354h33v1h-33zM399,354h33v1h-33zM80,355h33v1h-33zM399,355h33v1h-33zM80,356h33v1h-33zM399,356h33v1h-33zM80,357h33v1h-33zM399,357h33v1h-33zM80,358h33v1h-33zM399,358h33v1h-33zM80,359h33v1h-33zM399,359h33v1h-33zM80,360h33v1h-33zM399,360h33v1h-33zM80,361h33v1h-33zM399,361h33v1h-33zM80,362h33v1h-33zM399,362h33v1h-33zM80,363h33v1h-33zM399,363h33v1h-33zM80,364h33v1h-33zM399,364h33v1h-33zM80,365h33v1h-33zM399,365h33v1h-33zM80,366h33v1h-33zM399,366h33v1h-33zM80,367h33v1h-33zM399,367h33v1h-33zM80,368h33v1h-33zM399,368h33v1h-33zM80,369h33v1h-33zM399,369h33v1h-33zM80,370h33v1h-33zM399,370h33v1h-33zM80,371h33v1h-33zM399,371h33v1h-33zM80,372h33v1h-33zM399,372h33v1h-33zM80,373h33v1h-33zM399,373h33v1h-33zM80,374h33v1h-33zM399,374h33v1h-33zM80,375h33v1h-33zM399,375h33v1h-33zM80,376h33v1h-33zM399,376h33v1h-33zM80,377h33v1h-33zM399,377h33v1h-33zM80,378h33v1h-33zM399,378h33v1h-33zM80,379h33v1h-33zM399,379h33v1h-33zM80,380h33v1h-33zM399,380h33v1h-33zM80,381h33v1h-33zM399,381h33v1h-33zM80,382h33v1h-33zM399,382h33v1h-33zM80,383h33v1h-33zM399,383h33v1h-33zM80,384h33v1h-33zM399,384h33v1h-33zM80,385h33v1h-33zM399,385h33v1h-33zM80,386h33v1h-33zM399,386h33v1h-33zM80,387h33v1h-33zM399,387h33v1h-33zM80,388h33v1h-33zM399,388h33v1h-33zM80,389h33v1h-33zM399,389h33v1h-33zM80,390h33v1h-33zM399,390h33v1h-33zM80,391h33v1h-33zM399,391h33v1h-33zM80,392h33v1h-33zM399,392h33v1h-33zM80,393h33v1h-33zM399,393h33v1h-33zM80,394h33v1h-33zM399,394h33v1h-33zM80,395h33v1h-33zM399,395h33v1h-33zM80,396h33v1h-33zM399,396h33v1h-33zM80,397h33v1h-33zM399,397h33v1h-33zM80,398h33v1h-33zM399,398h33v1h-33zM80,399h33v1h-33zM399,399h33v1h-33zM80,400h33v1h-33zM399,400h33v1h-33zM80,401h33v1h-33zM399,401h33v1h-33zM80,402h33v1h-33zM399,402h33v1h-33zM80,403h33v1h-33zM399,403h33v1h-33zM80,404h33v1h-33zM399,404h33v1h-33zM80,405h33v1h-33zM399,405h33v1h-33zM80,406h33v1h-33zM399,406h33v1h-33zM80,407h33v1h-33zM399,407h33v1h-33zM80,408h33v1h-33zM399,408h33v1h-33zM80,409h33v1h-33zM399,409h33v1h-33zM80,410h33v1h-33zM399,410h33v1h-33zM80,411h33v1h-33zM399,411h33v1h-33zM80,412h33v1h-33zM399,412h33v1h-33zM80,413h33v1h-33zM399,413h33v1h-33zM80,414h33v1h-33zM399,414h33v1h-33zM80,415h33v1h-33zM399,415h33v1h-33zM80,416h33v1h-33zM399,416h33v1h-33zM80,417h33v1h-33zM399,417h33v1h-33zM80,418h33v1h-33zM399,418h33v1h-33zM80,419h33v1h-33zM399,419h33v1h-33zM80,420h33v1h-33zM399,420h33v1h-33zM80,421h33v1h-33zM399,421h33v1h-33zM80,422h33v1h-33zM399,422h33v1h-33zM80,423h33v1h-33zM399,423h33v1h-33zM81,424h33v1h-33zM398,424h33v1h-33zM81,425h33v1h-33zM398,425h33v1h-33zM81,426h33v1h-33zM398,426h33v1h-33zM81,427h33v1h-33zM249,427h14v1h-14zM398,427h33v1h-33zM81,428h34v1h-34zM242,428h28v1h-28zM397,428h34v1h-34zM81,429h34v1h-34zM238,429h36v1h-36zM397,429h34v1h-34zM81,430h34v1h-34zM235,430h42v1h-42zM397,430h34v1h-34zM82,431h33v1h-33zM231,431h50v1h-50zM397,431h33v1h-33zM82,432h34v1h-34zM228,432h56v1h-56zM396,432h34v1h-34zM82,433h34v1h-34zM225,433h62v1h-62zM396,433h34v1h-34zM82,434h35v1h-35zM222,434h68v1h-68zM395,434h35v1h-35zM82,435h35v1h-35zM219,435h74v1h-74zM395,435h35v1h-35zM83,436h35v1h-35zM216,436h80v1h-80zM394,436h35v1h-35zM83,437h35v1h-35zM212,437h88v1h-88zM394,437h35v1h-35zM83,438h36v1h-36zM209,438h94v1h-94zM393,438h36v1h-36zM84,439h36v1h-36zM206,439h100v1h-100zM392,439h36v1h-36zM84,440h36v1h-36zM203,440h106v1h-106zM392,440h36v1h-36zM84,441h37v1h-37zM200,441h112v1h-112zM391,441h37v1h-37zM85,442h37v1h-37zM197,442h118v1h-118zM390,442h37v1h-37zM85,443h38v1h-38zM194,443h124v1h-124zM389,443h38v1h-38zM85,444h39v1h-39zM190,444h132v1h-132zM388,444h39v1h-39zM86,445h39v1h-39zM187,445h138v1h-138zM387,445h39v1h-39zM86,446h40v1h-40zM184,446h144v1h-144zM386,446h40v1h-40zM87,447h40v1h-40zM181,447h150v1h-150zM385,447h40v1h-40zM87,448h41v1h-41zM178,448h156v1h-156zM384,448h41v1h-41zM88,449h42v1h-42zM175,449h162v1h-162zM382,449h42v1h-42zM88,450h43v1h-43zM171,450h170v1h-170zM381,450h43v1h-43zM89,451h44v1h-44zM168,451h176v1h-176zM379,451h44v1h-44zM89,452h46v1h-46zM165,452h182v1h-182zM377,452h46v1h-46zM90,453h48v1h-48zM162,453h188v1h-188zM374,453h48v1h-48zM90,454h51v1h-51zM158,454h196v1h-196zM371,454h51v1h-51zM91,455h56v1h-56zM152,455h269v1h-269zM92,456h328v1h-328zM92,457h328v1h-328zM93,458h326v1h-326zM94,459h324v1h-324zM94,460h155v1h-155zM263,460h155v1h-155zM95,461h150v1h-150zM267,461h150v1h-150zM96,462h146v1h-146zM270,462h146v1h-146zM97,463h142v1h-142zM273,463h142v1h-142zM98,464h138v1h-138zM276,464h138v1h-138zM99,465h134v1h-134zM280,465h133v1h-133zM99,466h130v1h-130zM283,466h129v1h-129zM100,467h126v1h-126zM286,467h126v1h-126zM101,468h122v1h-122zM289,468h121v1h-121zM102,469h118v1h-118zM292,469h117v1h-117zM104,470h113v1h-113zM295,470h113v1h-113zM105,471h109v1h-109zM298,471h109v1h-109zM106,472h104v1h-104zM302,472h104v1h-104zM107,473h100v1h-100zM305,473h100v1h-100zM108,474h96v1h-96zM308,474h96v1h-96zM110,475h91v1h-91zM311,475h91v1h-91zM111,476h87v1h-87zM314,476h87v1h-87zM113,477h82v1h-82zM317,477h82v1h-82zM114,478h77v1h-77zM321,478h77v1h-77zM116,479h72v1h-72zM324,479h72v1h-72zM118,480h67v1h-67zM327,480h67v1h-67zM120,481h62v1h-62zM330,481h62v1h-62zM122,482h57v1h-57zM333,482h57v1h-57zM124,483h52v1h-52zM336,483h52v1h-52zM127,484h46v1h-46zM339,484h46v1h-46zM130,485h39v1h-39zM343,485h39v1h-39zM134,486h32v1h-32zM346,486h32v1h-32zM139,487h21v1h-21zM351,487h22v1h-22z"/></svg>