<?xml version="1.0" encoding="UTF-8"?>
<svg xmlns="http://www.w3.org/2000/svg" viewBox="0 0 512 512" width="512" height="512"><path fill="#000" d="M405,32h22v1h-22zM401,33h30v1h-30zM397,34h38v1h-38zM394,35h44v1h-44zM391,36h50v1h-50zM389,37h54v1h-54zM387,38h58v1h-58zM385,39h62v1h-62zM383,40h66v1h-66zM382,41h68v1h-68zM380,42h72v1h-72zM379,43h74v1h-74zM377,44h78v1h-78zM376,45h80v1h-80zM375,46h82v1h-82zM374,47h84v1h-84zM373,48h86v1h-86zM372,49h88v1h-88zM370,50h92v1h-92zM370,51h92v1h-92zM369,52h94v1h-94zM368,53h96v1h-96zM367,54h98v1h-98zM366,55h100v1h-100zM365,56h102v1h-102zM364,57h103v1h-103zM364,58h104v1h-104zM363,59h106v1h-106zM362,60h108v1h-108zM362,61h108v1h-108zM361,62h110v1h-110zM360,63h112v1h-112zM360,64h112v1h-112zM359,65h114v1h-114zM359,66h114v1h-114zM358,67h116v1h-116zM358,68h116v1h-116zM357,69h118v1h-118zM357,70h118v1h-118zM356,71h120v1h-120zM356,72h120v1h-120zM356,73h120v1h-120zM355,74h122v1h-122zM355,75h122v1h-122zM355,76h122v1h-122zM354,77h124v1h-124zM354,78h124v1h-124zM354,79h124v1h-124zM354,80h124v1h-124zM353,81h126v1h-126zM353,82h126v1h-126zM353,83h126v1h-126zM353,84h126v1h-126zM352,85h128v1h-128zM352,86h128v1h-128zM352,87h128v1h-128zM352,88h128v1h-128zM352,89h128v1h-128zM352,90h128v1h-128zM352,91h128v1h-128zM352,92h128v1h-128zM352,93h128v1h-128zM352,94h128v1h-128zM352,95h128v1h-128zM352,96h128v1h-128zM352,97h128v1h-128zM352,98h128v1h-128zM352,99h128v1h-128zM352,100h128v1h-128zM352,101h128v1h-128zM352,102h128v1h-128zM352,103h128v1h-128zM352,104h128v1h-128zM352,105h128v1h-128zM352,106h128v1h-128zM352,107h128v1h-128zM352,108h128v1h-128zM352,109h128v1h-128zM352,110h128v1h-128zM352,111h128v1h-128zM352,112h128v1h-128zM352,113h128v1h-128zM352,114h128v1h-128zM352,115h128v1h-128zM352,116h128v1h-128zM352,117h128v1h-128zM352,118h128v1h-128zM352,119h128v1h-128zM352,120h128v1h-128zM352,121h128v1h-128zM352,122h128v1h-128zM352,123h128v1h-128zM352,124h128v1h-128zM352,125h128v1h-128zM352,126h128v1h-128zM352,127h128v1h-128zM352,128h128v1h-128zM352,129h128v1h-128zM352,130h128v1h-128zM352,131h128v1h-128zM352,132h128v1h-128zM352,133h128v1h-128zM352,134h128v1h-128zM352,135h128v1h-128zM352,136h128v1h-128zM352,137h128v1h-128zM352,138h128v1h-128zM352,139h128v1h-128zM352,140h128v1h-128zM352,141h128v1h-128zM352,142h128v1h-128zM352,143h128v1h-128zM352,144h128v1h-128zM352,145h128v1h-128zM352,146h128v1h-128zM352,147h128v1h-128zM352,148h128v1h-128zM352,149h128v1h-128zM352,150h128v1h-128zM352,151h128v1h-128zM352,152h128v1h-128zM352,153h128v1h-128zM352,154h128v1h-128zM352,155h128v1h-128zM352,156h128v1h-128zM352,157h128v1h-128zM352,158h128v1h-128zM352,159h128v1h-128zM261,160h22v1h-22zM352,160h128v1h-128zM257,161h30v1h-30zM352,161h128v1h-128zM253,162h38v1h-38zM352,162h128v1h-128zM250,163h44v1h-44zM352,163h128v1h-128zM247,164h50v1h-50zM352,164h128v1h-128zM245,165h54v1h-54zM352,165h128v1h-128zM243,166h58v1h-58zM352,166h128v1h-128zM241,167h62v1h-62zM352,167h128v1h-128zM239,168h66v1h-66zM352,168h128v1h-128zM238,169h68v1h-68zM352,169h128v1h-128zM236,170h72v1h-72zM352,170h128v1h-128zM235,171h74v1h-74zM352,171h128v1h-128zM233,172h78v1h-78zM352,172h128v1h-128zM232,173h80v1h-80zM352,173h128v1h-128zM231,174h82v1h-82zM352,174h128v1h-128zM230,175h84v1h-84zM352,175h128v1h-128zM229,176h86v1h-86zM352,176h128v1h-128zM228,177h88v1h-88zM352,177h128v1h-128zM226,178h92v1h-92zM352,178h128v1h-128zM226,179h92v1h-92zM352,179h128v1h-128zM225,180h94v1h-94zM352,180h128v1h-128zM224,181h96v1h-96zM352,181h128v1h-128zM223,182h98v1h-98zM352,182h128v1h-128zM222,183h100v1h-100zM352,183h128v1h-128zM221,184h102v1h-102zM352,184h128v1h-128zM220,185h103v1h-103zM352,185h128v1h-128zM220,186h104v1h-104zM352,186h128v1h-128zM219,187h106v1h-106zM352,187h128v1h-128zM218,188h108v1h-108zM352,188h128v1h-128zM218,189h108v1h-108zM352,189h128v1h-128zM217,190h110v1h-110zM352,190h128v1h-128zM216,191h112v1h-112zM352,191h128v1h-128zM216,192h112v1h-112zM352,192h128v1h-128zM215,193h114v1h-114zM352,193h128v1h-128zM215,194h114v1h-114zM352,194h128v1h-128zM214,195h116v1h-116zM352,195h128v1h-128zM214,196h116v1h-116zM352,196h128v1h-128zM213,197h118v1h-118zM352,197h128v1h-128zM213,198h118v1h-118zM352,198h128v1h-128zM212,199h120v1h-120zM352,199h128v1h-128zM212,200h120v1h-120zM352,200h128v1h-128zM212,201h120v1h-120zM352,201h128v1h-128zM211,202h122v1h-122zM352,202h128v1h-128zM211,203h122v1h-122zM352,203h128v1h-128zM211,204h122v1h-122zM352,204h128v1h-128zM210,205h124v1h-124zM352,205h128v1h-128zM210,206h124v1h-124zM352,206h128v1h-128zM210,207h124v1h-124zM352,207h128v1h-128zM210,208h124v1h-124zM352,208h128v1h-128zM209,209h126v1h-126zM352,209h128v1h-128zM209,210h126v1h-126zM352,210h128v1h-128zM209,211h126v1h-126zM352,211h128v1h-128zM209,212h126v1h-126zM352,212h128v1h-128zM208,213h128v1h-128zM352,213h128v1h-128zM208,214h128v1h-128zM352,214h128v1h-128zM208,215h128v1h-128zM352,215h128v1h-128zM208,216h128v1h-128zM352,216h128v1h-128zM208,217h128v1h-128zM352,217h128v1h-128zM208,218h128v1h-128zM352,218h128v1h-128zM208,219h128v1h-128zM352,219h128v1h-128zM208,220h128v1h-128zM352,220h128v1h-128zM208,221h128v1h-128zM352,221h128v1h-128zM208,222h128v1h-128zM352,222h128v1h-128zM208,223h128v1h-128zM352,223h128v1h-128zM208,224h128v1h-128zM352,224h128v1h-128zM208,225h128v1h-128zM352,225h128v1h-128zM208,226h128v1h-128zM352,226h128v1h-128zM208,227h128v1h-128zM352,227h128v1h-128zM208,228h128v1h-128zM352,228h128v1h-128zM208,229h128v1h-128zM352,229h128v1h-128zM208,230h128v1h-128zM352,230h128v1h-128zM208,231h128v1h-128zM352,231h128v1h-128zM208,232h128v1h-128zM352,232h128v1h-128zM208,233h128v1h-128zM352,233h128v1h-128zM208,234h128v1h-128zM352,234h128v1h-128zM208,235h128v1h-128zM352,235h128v1h-128zM208,236h128v1h-128zM352,236h128v1h-128zM208,237h128v1h-128zM352,237h128v1h-128zM208,238h128v1h-128zM352,238h128v1h-128zM208,239h128v1h-128zM352,239h128v1h-128zM208,240h128v1h-128zM352,240h128v1h-128zM208,241h128v1h-128zM352,241h128v1h-128zM208,242h128v1h-128zM352,242h128v1h-128zM208,243h128v1h-128zM352,243h128v1h-128zM208,244h128v1h-128zM352,244h128v1h-128zM208,245h128v1h-128zM352,245h128v1h-128zM208,246h128v1h-128zM352,246h128v1h-128zM208,247h128v1h-128zM352,247h128v1h-128zM208,248h128v1h-128zM352,248h128v1h-128zM208,249h128v1h-128zM352,249h128v1h-128zM208,250h128v1h-128zM352,250h128v1h-128zM208,251h128v1h-128zM352,251h128v1h-128zM208,252h128v1h-128zM352,252h128v1h-128zM208,253h128v1h-128zM352,253h128v1h-128zM208,254h128v1h-128zM352,254h128v1h-128zM208,255h128v1h-128zM352,255h128v1h-128zM117,256h22v1h-22zM208,256h128v1h-128zM352,256h128v1h-128zM113,257h30v1h-30zM208,257h128v1h-128zM352,257h128v1h-128zM109,258h38v1h-38zM208,258h128v1h-128zM352,258h128v1h-128zM106,259h44v1h-44zM208,259h128v1h-128zM352,259h128v1h-128zM103,260h50v1h-50zM208,260h128v1h-128zM352,260h128v1h-128zM101,261h54v1h-54zM208,261h128v1h-128zM352,261h128v1h-128zM99,262h58v1h-58zM208,262h128v1h-128zM352,262h128v1h-128zM97,263h62v1h-62zM208,263h128v1h-128zM352,263h128v1h-128zM95,264h66v1h-66zM208,264h128v1h-128zM352,264h128v1h-128zM94,265h68v1h-68zM208,265h128v1h-128zM352,265h128v1h-128zM92,266h72v1h-72zM208,266h128v1h-128zM352,266h128v1h-128zM91,267h74v1h-74zM208,267h128v1h-128zM352,267h128v1h-128zM89,268h78v1h-78zM208,268h128v1h-128zM352,268h128v1h-128zM88,269h80v1h-80zM208,269h128v1h-128zM352,269h128v1h-128zM87,270h82v1h-82zM208,270h128v1h-128zM352,270h128v1h-128zM86,271h84v1h-84zM208,271h128v1h-128zM352,271h128v1h-128zM85,272h86v1h-86zM208,272h128v1h-128zM352,272h128v1h-128zM84,273h88v1h-88zM208,273h128v1h-128zM352,273h128v1h-128zM82,274h92v1h-92zM208,274h128v1h-128zM352,274h128v1h-128zM82,275h92v1h-92zM208,275h128v1h-128zM352,275h128v1h-128zM81,276h94v1h-94zM208,276h128v1h-128zM352,276h128v1h-128zM80,277h96v1h-96zM208,277h128v1h-128zM352,277h128v1h-128zM79,278h98v1h-98zM208,278h128v1h-128zM352,278h128v1h-128zM78,279h100v1h-100zM208,279h128v1h-128zM352,279h128v1h-128zM77,280h102v1h-102zM208,280h128v1h-128zM352,280h128v1h-128zM76,281h103v1h-103zM208,281h128v1h-128zM352,281h128v1h-128zM76,282h104v1h-104zM208,282h128v1h-128zM352,282h128v1h-128zM75,283h106v1h-106zM208,283h128v1h-128zM352,283h128v1h-128zM74,284h108v1h-108zM208,284h128v1h-128zM352,284h128v1h-128zM74,285h108v1h-108zM208,285h128v1h-128zM352,285h128v1h-128zM73,286h110v1h-110zM208,286h128v1h-128zM352,286h128v1h-128zM72,287h112v1h-112zM208,287h128v1h-128zM352,287h128v1h-128zM72,288h112v1h-112zM208,288h128v1h-128zM352,288h128v1h-128zM71,289h114v1h-114zM208,289h128v1h-128zM352,289h128v1h-128zM71,290h114v1h-114zM208,290h128v1h-128zM352,290h128v1h-128zM70,291h116v1h-116zM208,291h128v1h-128zM352,291h128v1h-128zM70,292h116v1h-116zM208,292h128v1h-128zM352,292h128v1h-128zM69,293h118v1h-118zM208,293h128v1h-128zM352,293h128v1h-128zM69,294h118v1h-118zM208,294h128v1h-128zM352,294h128v1h-128zM68,295h120v1h-120zM208,295h128v1h-128zM352,295h128v1h-128zM68,296h120v1h-120zM208,296h128v1h-128zM352,296h128v1h-128zM68,297h120v1h-120zM208,297h128v1h-128zM352,297h128v1h-128zM67,298h122v1h-122zM208,298h128v1h-128zM352,298h128v1h-128zM67,299h122v1h-122zM208,299h128v1h-128zM352,299h128v1h-128zM67,300h122v1h-122zM208,300h128v1h-128zM352,300h128v1h-128zM66,301h124v1h-124zM208,301h128v1h-128zM352,301h128v1h-128zM66,302h124v1h-124zM208,302h128v1h-128zM352,302h128v1h-128zM66,303h124v1h-124zM208,303h128v1h-128zM352,303h128v1h-128zM66,304h124v1h-124zM208,304h128v1h-128zM352,304h128v1h-128zM65,305h126v1h-126zM208,305h128v1h-128zM352,305h128v1h-128zM65,306h126v1h-126zM208,306h128v1h-128zM352,306h128v1h-128zM65,307h126v1h-126zM208,307h128v1h-128zM352,307h128v1h-128zM65,308h126v1h-126zM208,308h128v1h-128zM352,308h128v1h-128zM64,309h128v1h-128zM208,309h128v1h-128zM352,309h128v1h-128zM64,310h128v1h-128zM208,310h128v1h-128zM352,310h128v1h-128zM64,311h128v1h-128zM208,311h128v1h-128zM352,311h128v1h-128zM64,312h128v1h-128zM208,312h128v1h-128zM352,312h128v1h-128zM64,313h128v1h-128zM208,313h128v1h-128zM352,313h128v1h-128zM64,314h128v1h-128zM208,314h128v1h-128zM352,314h128v1h-128zM64,315h128v1h-128zM208,315h128v1h-128zM352,315h128v1h-128zM64,316h128v1h-128zM208,316h128v1h-128zM352,316h128v1h-128zM64,317h128v1h-128zM208,317h128v1h-128zM352,317h128v1h-128zM64,318h128v1h-128zM208,318h128v1h-128zM352,318h128v1h-128zM64,319h128v1h-128zM208,319h128v1h-128zM352,319h128v1h-128zM64,320h128v1h-128zM208,320h128v1h-128zM352,320h128v1h-128zM64,321h128v1h-128zM208,321h128v1h-128zM352,321h128v1h-128zM64,322h128v1h-128zM208,322h128v1h-128zM352,322h128v1h-128zM64,323h128v1h-128zM208,323h128v1h-128zM352,323h128v1h-128zM64,324h128v1h-128zM208,324h128v1h-128zM352,324h128v1h-128zM64,325h128v1h-128zM208,325h128v1h-128zM352,325h128v1h-128zM64,326h128v1h-128zM208,326h128v1h-128zM352,326h128v1h-128zM64,327h128v1h-128zM208,327h128v1h-128zM352,327h128v1h-128zM64,328h128v1h-128zM208,328h128v1h-128zM352,328h128v1h-128zM64,329h128v1h-128zM208,329h128v1h-128zM352,329h128v1h-128zM64,330h128v1h-128zM208,330h128v1h-128zM352,330h128v1h-128zM64,331h128v1h-128zM208,331h128v1h-128zM352,331h128v1h-128zM64,332h128v1h-128zM208,332h128v1h-128zM352,332h128v1h-128zM64,333h128v1h-128zM208,333h128v1h-128zM352,333h128v1h-128zM64,334h128v1h-128zM208,334h128v1h-128zM352,334h128v1h-128zM64,335h128v1h-128zM208,335h128v1h-128zM352,335h128v1h-128zM64,336h128v1h-128zM208,336h128v1h-128zM352,336h128v1h-128zM64,337h128v1h-128zM208,337h128v1h-128zM352,337h128v1h-128zM64,338h128v1h-128zM208,338h128v1h-128zM352,338h128v1h-128zM64,339h128v1h-128zM208,339h128v1h-128zM352,339h128v1h-128zM64,340h128v1h-128zM208,340h128v1h-128zM352,340h128v1h-128zM64,341h128v1h-128zM208,341h128v1h-128zM352,341h128v1h-128zM64,342h128v1h-128zM208,342h128v1h-128zM352,342h128v1h-128zM64,343h128v1h-128zM208,343h128v1h-128zM352,343h128v1h-128zM64,344h128v1h-128zM208,344h128v1h-128zM352,344h128v1h-128zM64,345h128v1h-128zM208,345h128v1h-128zM352,345h128v1h-128zM64,346h128v1h-128zM208,346h128v1h-128zM352,346h128v1h-128zM64,347h128v1h-128zM208,347h128v1h-128zM352,347h128v1h-128zM64,348h128v1h-128zM208,348h128v1h-128zM352,348h128v1h-128zM64,349h128v1h-128zM208,349h128v1h-128zM352,349h128v1h-128zM64,350h128v1h-128zM208,350h128v1h-128zM352,350h128v1h-128zM64,351h128v1h-128zM208,351h128v1h-128zM352,351h128v1h-128zM64,352h128v1h-128zM208,352h128v1h-128zM352,352h128v1h-128zM64,353h128v1h-128zM208,353h128v1h-128zM352,353h128v1h-128zM64,354h128v1h-128zM208,354h128v1h-128zM352,354h128v1h-128zM64,355h128v1h-128zM208,355h128v1h-128zM352,355h128v1h-128zM64,356h128v1h-128zM208,356h128v1h-128zM352,356h128v1h-128zM64,357h128v1h-128zM208,357h128v1h-128zM352,357h128v1h-128zM64,358h128v1h-128zM208,358h128v1h-128zM352,358h128v1h-128zM64,359h128v1h-128zM208,359h128v1h-128zM352,359h128v1h-128zM64,360h128v1h-128zM208,360h128v1h-128zM352,360h128v1h-128zM64,361h128v1h-128zM208,361h128v1h-128zM352,361h128v1h-128zM64,362h128v1h-128zM208,362h128v1h-128zM352,362h128v1h-128zM64,363h128v1h-128zM208,363h128v1h-128zM352,363h128v1h-128zM64,364h128v1h-128zM208,364h128v1h-128zM352,364h128v1h-128zM64,365h128v1h-128zM208,365h128v1h-128zM352,365h128v1h-128zM64,366h128v1h-128zM208,366h128v1h-128zM352,366h128v1h-128zM64,367h128v1h-128zM208,367h128v1h-128zM352,367h128v1h-128zM64,368h128v1h-128zM208,368h128v1h-128zM352,368h128v1h-128zM64,369h128v1h-128zM208,369h128v1h-128zM352,369h128v1h-128zM64,370h128v1h-128zM208,370h128v1h-128zM352,370h128v1h-128zM64,371h128v1h-128zM208,371h128v1h-128zM352,371h128v1h-128zM64,372h128v1h-128zM208,372h128v1h-128zM352,372h128v1h-128zM64,373h128v1h-128zM208,373h128v1h-128zM352,373h128v1h-128zM64,374h128v1h-128zM208,374h128v1h-128zM352,374h128v1h-128zM64,375h128v1h-128zM208,375h128v1h-128zM352,375h128v1h-128zM64,376h128v1h-128zM208,376h128v1h-128zM352,376h128v1h-128zM64,377h128v1h-128zM208,377h128v1h-128zM352,377h128v1h-128zM64,378h127v1h-127zM208,378h127v1h-127zM352,378h127v1h-127zM65,379h126v1h-126zM209,379h126v1h-126zM353,379h126v1h-126zM65,380h126v1h-126zM209,380h126v1h-126zM353,380h126v1h-126zM65,381h126v1h-126zM209,381h126v1h-126zM353,381h126v1h-126zM65,382h126v1h-126zM209,382h126v1h-126zM353,382h126v1h-126zM66,383h124v1h-124zM210,383h124v1h-124zM354,383h124v1h-124zM66,384h124v1h-124zM210,384h124v1h-124zM354,384h124v1h-124zM66,385h124v1h-124zM210,385h124v1h-124zM354,385h124v1h-124zM66,386h124v1h-124zM210,386h124v1h-124zM354,386h124v1h-124zM67,387h122v1h-122zM211,387h122v1h-122zM355,387h122v1h-122zM67,388h122v1h-122zM211,388h122v1h-122zM355,388h122v1h-122zM67,389h122v1h-122zM211,389h122v1h-122zM355,389h122v1h-122zM68,390h120v1h-120zM212,390h120v1h-120zM356,390h120v1h-120zM68,391h120v1h-120zM212,391h120v1h-120zM356,391h120v1h-120zM68,392h120v1h-120zM212,392h120v1h-120zM356,392h120v1h-120zM69,393h118v1h-118zM213,393h118v1h-118zM357,393h118v1h-118zM69,394h118v1h-118zM213,394h118v1h-118zM357,394h118v1h-118zM70,395h116v1h-116zM214,395h116v1h-116zM358,395h116v1h-116zM70,396h116v1h-116zM214,396h116v1h-116zM358,396h116v1h-116zM71,397h114v1h-114zM215,397h114v1h-114zM359,397h114v1h-114zM71,398h114v1h-114zM215,398h114v1h-114zM359,398h114v1h-114zM72,399h112v1h-112zM216,399h112v1h-112zM360,399h112v1h-112zM72,400h111v1h-111zM216,400h111v1h-111zM360,400h111v1h-111zM73,401h110v1h-110zM217,401h110v1h-110zM361,401h110v1h-110zM74,402h108v1h-108zM218,402h108v1h-108zM362,402h108v1h-108zM74,403h108v1h-108zM218,403h108v1h-108zM362,403h108v1h-108zM75,404h106v1h-106zM219,404h106v1h-106zM363,404h106v1h-106zM76,405h104v1h-104zM220,405h104v1h-104zM364,405h104v1h-104zM76,406h103v1h-103zM220,406h103v1h-103zM364,406h103v1h-103zM77,407h102v1h-102zM221,407h102v1h-102zM365,407h102v1h-102zM78,408h100v1h-100zM222,408h100v1h-100zM366,408h100v1h-100zM79,409h98v1h-98zM223,409h98v1h-98zM367,409h98v1h-98zM80,410h96v1h-96zM224,410h96v1h-96zM368,410h96v1h-96zM81,411h94v1h-94zM225,411h94v1h-94zM369,411h94v1h-94zM82,412h92v1h-92zM226,412h92v1h-92zM370,412h92v1h-92zM82,413h92v1h-92zM226,413h92v1h-92zM370,413h92v1h-92zM84,414h88v1h-88zM228,414h88v1h-88zM372,414h88v1h-88zM85,415h86v1h-86zM229,415h86v1h-86zM373,415h86v1h-86zM86,416h84v1h-84zM230,416h84v1h-84zM374,416h84v1h-84zM87,417h82v1h-82zM231,417h82v1h-82zM375,417h82v1h-82zM88,418h80v1h-80zM232,418h80v1h-80zM376,418h80v1h-80zM90,419h77v1h-77zM234,419h77v1h-77zM378,419h77v1h-77zM91,420h74v1h-74zM235,420h74v1h-74zM379,420h74v1h-74zM92,421h72v1h-72zM236,421h72v1h-72zM380,421h72v1h-72zM94,422h68v1h-68zM238,422h68v1h-68zM382,422h68v1h-68zM96,423h65v1h-65zM240,423h65v1h-65zM384,423h65v1h-65zM97,424h62v1h-62zM241,424h62v1h-62zM385,424h62v1h-62zM99,425h58v1h-58zM243,425h58v1h-58zM387,425h58v1h-58zM101,426h54v1h-54zM245,426h54v1h-54zM389,426h54v1h-54zM104,427h49v1h-49zM248,427h49v1h-49zM392,427h49v1h-49zM106,428h44v1h-44zM250,428h44v1h-44zM394,428h44v1h-44zM109,429h38v1h-38zM253,429h38v1h-38zM397,429h38v1h-38zM113,430h30v1h-30zM257,430h30v1h-30zM401,430h30v1h-30zM117,431h22v1h-22zM261,431h22v1h-22zM405,431h22v1h-22zM36,448h440v1h-440zM35,449h442v1h-442zM34,450h444v1h-444zM33,451h446v1h-446zM32,452h448v1h-448zM32,453h448v1h-448zM32,454h448v1h-448zM32,455h448v1h-448zM32,456h448v1h-448zM32,457h448v1h-448zM32,458h448v1h-448zM32,459h448v1h-448zM33,460h446v1h-446zM34,461h444v1h-444zM35,462h442v1h-442zM36,463h440v1h-440z"/></svg>