<?xml version="1.0" encoding="UTF-8"?>
<svg xmlns="http://www.w3.org/2000/svg" viewBox="0 0 512 512" width="512" height="512"><path fill="#000" d="M170,64h177v1h-177zM165,65h185v1h-185zM161,66h191v1h-191zM158,67h196v1h-196zM155,68h200v1h-200zM152,69h204v1h-204zM150,70h207v1h-207zM148,71h210v1h-210zM146,72h213v1h-213zM144,73h216v1h-216zM142,74h218v1h-218zM141,75h220v1h-220zM139,76h222v1h-222zM138,77h224v1h-224zM136,78h226v1h-226zM135,79h227v1h-227zM134,80h228v1h-228zM133,81h230v1h-230zM132,82h231v1h-231zM130,83h233v1h-233zM129,84h234v1h-234zM128,85h235v1h-235zM127,86h236v1h-236zM126,87h237v1h-237zM126,88h237v1h-237zM125,89h238v1h-238zM124,90h238v1h-238zM123,91h239v1h-239zM122,92h240v1h-240zM121,93h240v1h-240zM121,94h240v1h-240zM120,95h240v1h-240zM119,96h241v1h-241zM119,97h240v1h-240zM118,98h241v1h-241zM117,99h241v1h-241zM117,100h240v1h-240zM116,101h240v1h-240zM116,102h239v1h-239zM115,103h238v1h-238zM115,104h236v1h-236zM114,105h235v1h-235zM114,106h232v1h-232zM113,107h63v1h-63zM192,107h43v1h-43zM277,107h43v1h-43zM113,108h59v1h-59zM192,108h43v1h-43zM277,108h43v1h-43zM112,109h57v1h-57zM192,109h43v1h-43zM277,109h43v1h-43zM112,110h55v1h-55zM192,110h43v1h-43zM277,110h43v1h-43zM111,111h54v1h-54zM192,111h43v1h-43zM277,111h43v1h-43zM111,112h53v1h-53zM192,112h43v1h-43zM277,112h43v1h-43zM111,113h51v1h-51zM192,113h43v1h-43zM277,113h43v1h-43zM110,114h51v1h-51zM192,114h43v1h-43zM277,114h43v1h-43zM110,115h50v1h-50zM192,115h43v1h-43zM277,115h43v1h-43zM110,116h49v1h-49zM192,116h43v1h-43zM277,116h43v1h-43zM109,117h49v1h-49zM192,117h43v1h-43zM277,117h43v1h-43zM109,118h48v1h-48zM192,118h43v1h-43zM277,118h43v1h-43zM109,119h47v1h-47zM192,119h43v1h-43zM277,119h43v1h-43zM109,120h46v1h-46zM192,120h43v1h-43zM277,120h43v1h-43zM108,121h47v1h-47zM192,121h43v1h-43zM277,121h43v1h-43zM108,122h46v1h-46zM192,122h43v1h-43zM277,122h43v1h-43zM108,123h46v1h-46zM192,123h43v1h-43zM277,123h43v1h-43zM108,124h45v1h-45zM192,124h43v1h-43zM277,124h43v1h-43zM107,125h46v1h-46zM192,125h43v1h-43zM277,125h43v1h-43zM107,126h45v1h-45zM192,126h43v1h-43zM277,126h43v1h-43zM107,127h45v1h-45zM192,127h43v1h-43zM277,127h43v1h-43zM107,128h44v1h-44zM192,128h43v1h-43zM277,128h43v1h-43zM107,129h44v1h-44zM192,129h43v1h-43zM277,129h43v1h-43zM107,130h44v1h-44zM192,130h43v1h-43zM277,130h43v1h-43zM107,131h44v1h-44zM192,131h43v1h-43zM277,131h43v1h-43zM107,132h43v1h-43zM192,132h43v1h-43zM277,132h43v1h-43zM106,133h44v1h-44zM192,133h43v1h-43zM277,133h43v1h-43zM106,134h44v1h-44zM192,134h43v1h-43zM277,134h43v1h-43zM106,135h44v1h-44zM192,135h43v1h-43zM277,135h43v1h-43zM106,136h44v1h-44zM192,136h43v1h-43zM277,136h43v1h-43zM106,137h44v1h-44zM192,137h43v1h-43zM277,137h43v1h-43zM106,138h44v1h-44zM192,138h43v1h-43zM277,138h43v1h-43zM106,139h44v1h-44zM192,139h43v1h-43zM277,139h43v1h-43zM106,140h44v1h-44zM192,140h43v1h-43zM277,140h43v1h-43zM106,141h44v1h-44zM192,141h43v1h-43zM277,141h43v1h-43zM106,142h44v1h-44zM192,142h43v1h-43zM277,142h43v1h-43zM106,143h44v1h-44zM192,143h43v1h-43zM277,143h43v1h-43zM107,144h43v1h-43zM192,144h43v1h-43zM277,144h43v1h-43zM107,145h43v1h-43zM192,145h43v1h-43zM277,145h43v1h-43zM107,146h44v1h-44zM192,146h43v1h-43zM277,146h43v1h-43zM107,147h44v1h-44zM192,147h43v1h-43zM277,147h43v1h-43zM107,148h44v1h-44zM192,148h43v1h-43zM277,148h43v1h-43zM107,149h45v1h-45zM192,149h43v1h-43zM277,149h43v1h-43zM107,150h45v1h-45zM192,150h43v1h-43zM277,150h43v1h-43zM107,151h45v1h-45zM192,151h43v1h-43zM277,151h43v1h-43zM108,152h45v1h-45zM192,152h43v1h-43zM277,152h43v1h-43zM108,153h45v1h-45zM192,153h43v1h-43zM277,153h43v1h-43zM108,154h46v1h-46zM192,154h43v1h-43zM277,154h43v1h-43zM108,155h47v1h-47zM192,155h43v1h-43zM277,155h43v1h-43zM108,156h47v1h-47zM192,156h43v1h-43zM277,156h43v1h-43zM109,157h47v1h-47zM192,157h43v1h-43zM277,157h43v1h-43zM109,158h48v1h-48zM192,158h43v1h-43zM277,158h43v1h-43zM109,159h49v1h-49zM192,159h43v1h-43zM277,159h43v1h-43zM110,160h48v1h-48zM192,160h43v1h-43zM277,160h43v1h-43zM110,161h49v1h-49zM192,161h43v1h-43zM277,161h43v1h-43zM110,162h51v1h-51zM192,162h43v1h-43zM277,162h43v1h-43zM111,163h51v1h-51zM192,163h43v1h-43zM277,163h43v1h-43zM111,164h52v1h-52zM192,164h43v1h-43zM277,164h43v1h-43zM111,165h54v1h-54zM192,165h43v1h-43zM277,165h43v1h-43zM112,166h54v1h-54zM192,166h43v1h-43zM277,166h43v1h-43zM112,167h56v1h-56zM192,167h43v1h-43zM277,167h43v1h-43zM112,168h59v1h-59zM192,168h43v1h-43zM277,168h43v1h-43zM113,169h61v1h-61zM192,169h43v1h-43zM277,169h43v1h-43zM113,170h122v1h-122zM277,170h43v1h-43zM114,171h121v1h-121zM277,171h43v1h-43zM114,172h121v1h-121zM277,172h43v1h-43zM115,173h120v1h-120zM277,173h43v1h-43zM115,174h120v1h-120zM277,174h43v1h-43zM116,175h119v1h-119zM277,175h43v1h-43zM117,176h118v1h-118zM277,176h43v1h-43zM117,177h118v1h-118zM277,177h43v1h-43zM118,178h117v1h-117zM277,178h43v1h-43zM118,179h117v1h-117zM277,179h43v1h-43zM119,180h116v1h-116zM277,180h43v1h-43zM120,181h115v1h-115zM277,181h43v1h-43zM120,182h115v1h-115zM277,182h43v1h-43zM121,183h114v1h-114zM277,183h43v1h-43zM122,184h113v1h-113zM277,184h43v1h-43zM123,185h112v1h-112zM277,185h43v1h-43zM124,186h111v1h-111zM277,186h43v1h-43zM124,187h111v1h-111zM277,187h43v1h-43zM125,188h110v1h-110zM277,188h43v1h-43zM126,189h109v1h-109zM277,189h43v1h-43zM127,190h108v1h-108zM277,190h43v1h-43zM128,191h107v1h-107zM277,191h43v1h-43zM129,192h106v1h-106zM277,192h43v1h-43zM130,193h105v1h-105zM277,193h43v1h-43zM131,194h104v1h-104zM277,194h43v1h-43zM132,195h103v1h-103zM277,195h43v1h-43zM134,196h101v1h-101zM277,196h43v1h-43zM135,197h100v1h-100zM277,197h43v1h-43zM136,198h99v1h-99zM277,198h43v1h-43zM137,199h98v1h-98zM277,199h43v1h-43zM139,200h96v1h-96zM277,200h43v1h-43zM140,201h95v1h-95zM277,201h43v1h-43zM142,202h93v1h-93zM277,202h43v1h-43zM144,203h91v1h-91zM277,203h43v1h-43zM145,204h90v1h-90zM277,204h43v1h-43zM147,205h88v1h-88zM277,205h43v1h-43zM149,206h86v1h-86zM277,206h43v1h-43zM151,207h84v1h-84zM277,207h43v1h-43zM154,208h81v1h-81zM277,208h43v1h-43zM157,209h78v1h-78zM277,209h43v1h-43zM160,210h75v1h-75zM277,210h43v1h-43zM163,211h72v1h-72zM277,211h43v1h-43zM168,212h67v1h-67zM277,212h43v1h-43zM176,213h59v1h-59zM277,213h43v1h-43zM192,214h43v1h-43zM277,214h43v1h-43zM192,215h43v1h-43zM277,215h43v1h-43zM192,216h43v1h-43zM277,216h43v1h-43zM192,217h43v1h-43zM277,217h43v1h-43zM192,218h43v1h-43zM277,218h43v1h-43zM192,219h43v1h-43zM277,219h43v1h-43zM192,220h43v1h-43zM277,220h43v1h-43zM192,221h43v1h-43zM277,221h43v1h-43zM192,222h43v1h-43zM277,222h43v1h-43zM192,223h43v1h-43zM277,223h43v1h-43zM192,224h43v1h-43zM277,224h43v1h-43zM192,225h43v1h-43zM277,225h43v1h-43zM192,226h43v1h-43zM277,226h43v1h-43zM192,227h43v1h-43zM277,227h43v1h-43zM192,228h43v1h-43zM277,228h43v1h-43zM192,229h43v1h-43zM277,229h43v1h-43zM192,230h43v1h-43zM277,230h43v1h-43zM192,231h43v1h-43zM277,231h43v1h-43zM192,232h43v1h-43zM277,232h43v1h-43zM192,233h43v1h-43zM277,233h43v1h-43zM192,234h43v1h-43zM277,234h43v1h-43zM192,235h43v1h-43zM277,235h43v1h-43zM192,236h43v1h-43zM277,236h43v1h-43zM192,237h43v1h-43zM277,237h43v1h-43zM192,238h43v1h-43zM277,238h43v1h-43zM192,239h43v1h-43zM277,239h43v1h-43zM192,240h43v1h-43zM277,240h43v1h-43zM192,241h43v1h-43zM277,241h43v1h-43zM192,242h43v1h-43zM277,242h43v1h-43zM192,243h43v1h-43zM277,243h43v1h-43zM192,244h43v1h-43zM277,244h43v1h-43zM192,245h43v1h-43zM277,245h43v1h-43zM192,246h43v1h-43zM277,246h43v1h-43zM192,247h43v1h-43zM277,247h43v1h-43zM192,248h43v1h-43zM277,248h43v1h-43zM192,249h43v1h-43zM277,249h43v1h-43zM192,250h43v1h-43zM277,250h43v1h-43zM192,251h43v1h-43zM277,251h43v1h-43zM192,252h43v1h-43zM277,252h43v1h-43zM192,253h43v1h-43zM277,253h43v1h-43zM192,254h43v1h-43zM277,254h43v1h-43zM192,255h43v1h-43zM277,255h43v1h-43zM192,256h43v1h-43zM277,256h43v1h-43zM192,257h43v1h-43zM277,257h43v1h-43zM192,258h43v1h-43zM277,258h43v1h-43zM192,259h43v1h-43zM277,259h43v1h-43zM192,260h43v1h-43zM277,260h43v1h-43zM192,261h43v1h-43zM277,261h43v1h-43zM192,262h43v1h-43zM277,262h43v1h-43zM192,263h43v1h-43zM277,263h43v1h-43zM192,264h43v1h-43zM277,264h43v1h-43zM192,265h43v1h-43zM277,265h43v1h-43zM192,266h43v1h-43zM277,266h43v1h-43zM192,267h43v1h-43zM277,267h43v1h-43zM192,268h43v1h-43zM277,268h43v1h-43zM192,269h43v1h-43zM277,269h43v1h-43zM192,270h43v1h-43zM277,270h43v1h-43zM192,271h43v1h-43zM277,271h43v1h-43zM192,272h43v1h-43zM277,272h43v1h-43zM192,273h43v1h-43zM277,273h43v1h-43zM192,274h43v1h-43zM277,274h43v1h-43zM192,275h43v1h-43zM277,275h43v1h-43zM192,276h43v1h-43zM277,276h43v1h-43zM192,277h43v1h-43zM277,277h43v1h-43zM192,278h43v1h-43zM277,278h43v1h-43zM192,279h43v1h-43zM277,279h43v1h-43zM192,280h43v1h-43zM277,280h43v1h-43zM192,281h43v1h-43zM277,281h43v1h-43zM192,282h43v1h-43zM277,282h43v1h-43zM192,283h43v1h-43zM277,283h43v1h-43zM192,284h43v1h-43zM277,284h43v1h-43zM192,285h43v1h-43zM277,285h43v1h-43zM192,286h43v1h-43zM277,286h43v1h-43zM192,287h43v1h-43zM277,287h43v1h-43zM192,288h43v1h-43zM277,288h43v1h-43zM192,289h43v1h-43zM277,289h43v1h-43zM192,290h43v1h-43zM277,290h43v1h-43zM192,291h43v1h-43zM277,291h43v1h-43zM192,292h43v1h-43zM277,292h43v1h-43zM192,293h43v1h-43zM277,293h43v1h-43zM192,294h43v1h-43zM277,294h43v1h-43zM192,295h43v1h-43zM277,295h43v1h-43zM192,296h43v1h-43zM277,296h43v1h-43zM192,297h43v1h-43zM277,297h43v1h-43zM192,298h43v1h-43zM277,298h43v1h-43zM192,299h43v1h-43zM277,299h43v1h-43zM192,300h43v1h-43zM277,300h43v1h-43zM192,301h43v1h-43zM277,301h43v1h-43zM192,302h43v1h-43zM277,302h43v1h-43zM192,303h42v1h-42zM278,303h42v1h-42zM192,304h42v1h-42zM278,304h42v1h-42zM193,305h41v1h-41zM278,305h41v1h-41zM193,306h41v1h-41zM278,306h41v1h-41zM194,307h39v1h-39zM279,307h39v1h-39zM194,308h39v1h-39zM279,308h39v1h-39zM195,309h37v1h-37zM280,309h37v1h-37zM195,310h36v1h-36zM280,310h37v1h-37zM196,311h35v1h-35zM281,311h35v1h-35zM197,312h33v1h-33zM282,312h33v1h-33zM198,313h31v1h-31zM283,313h31v1h-31zM199,314h29v1h-29zM284,314h29v1h-29zM200,315h27v1h-27zM285,315h27v1h-27zM201,316h25v1h-25zM286,316h25v1h-25zM203,317h21v1h-21zM288,317h21v1h-21zM205,318h17v1h-17zM290,318h17v1h-17zM207,319h12v1h-12zM293,319h12v1h-12zM389,320h12v1h-12zM386,321h17v1h-17zM384,322h21v1h-21zM382,323h25v1h-25zM381,324h27v1h-27zM380,325h30v1h-30zM379,326h32v1h-32zM378,327h34v1h-34zM377,328h36v1h-36zM377,329h38v1h-38zM376,330h40v1h-40zM375,331h42v1h-42zM375,332h43v1h-43zM374,333h46v1h-46zM374,334h47v1h-47zM374,335h48v1h-48zM374,336h49v1h-49zM373,337h52v1h-52zM373,338h53v1h-53zM373,339h54v1h-54zM373,340h55v1h-55zM373,341h57v1h-57zM373,342h58v1h-58zM373,343h59v1h-59zM373,344h60v1h-60zM373,345h62v1h-62zM373,346h63v1h-63zM373,347h64v1h-64zM373,348h65v1h-65zM373,349h67v1h-67zM373,350h68v1h-68zM373,351h69v1h-69zM373,352h70v1h-70zM373,353h72v1h-72zM373,354h73v1h-73zM373,355h74v1h-74zM373,356h75v1h-75zM373,357h77v1h-77zM373,358h78v1h-78zM373,359h79v1h-79zM373,360h80v1h-80zM373,361h82v1h-82zM61,362h395v1h-395zM57,363h400v1h-400zM55,364h403v1h-403zM53,365h407v1h-407zM51,366h410v1h-410zM50,367h412v1h-412zM49,368h414v1h-414zM48,369h416v1h-416zM47,370h418v1h-418zM46,371h420v1h-420zM46,372h420v1h-420zM45,373h422v1h-422zM45,374h422v1h-422zM44,375h424v1h-424zM44,376h424v1h-424zM43,377h426v1h-426zM43,378h426v1h-426zM43,379h426v1h-426zM43,380h426v1h-426zM42,381h428v1h-428zM42,382h428v1h-428zM42,383h428v1h-428zM42,384h428v1h-428zM42,385h428v1h-428zM42,386h428v1h-428zM43,387h426v1h-426zM43,388h426v1h-426zM43,389h426v1h-426zM43,390h426v1h-426zM44,391h424v1h-424zM44,392h424v1h-424zM45,393h422v1h-422zM45,394h422v1h-422zM46,395h420v1h-420zM46,396h420v1h-420zM47,397h418v1h-418zM48,398h416v1h-416zM49,399h414v1h-414zM50,400h412v1h-412zM51,401h410v1h-410zM53,402h407v1h-407zM55,403h403v1h-403zM57,404h400v1h-400zM61,405h395v1h-395zM373,406h82v1h-82zM373,407h80v1h-80zM373,408h79v1h-79zM373,409h78v1h-78zM373,410h77v1h-77zM373,411h75v1h-75zM373,412h74v1h-74zM373,413h73v1h-73zM373,414h72v1h-72zM373,415h70v1h-70zM373,416h69v1h-69zM373,417h68v1h-68zM373,418h67v1h-67zM373,419h65v1h-65zM373,420h64v1h-64zM373,421h63v1h-63zM373,422h62v1h-62zM373,423h60v1h-60zM373,424h59v1h-59zM373,425h58v1h-58zM373,426h57v1h-57zM373,427h55v1h-55zM373,428h54v1h-54zM373,429h53v1h-53zM373,430h52v1h-52zM374,431h49v1h-49zM374,432h48v1h-48zM374,433h47v1h-47zM374,434h46v1h-46zM375,435h43v1h-43zM375,436h42v1h-42zM376,437h40v1h-40zM377,438h38v1h-38zM377,439h36v1h-36zM378,440h34v1h-34zM379,441h32v1h-32zM380,442h30v1h-30zM381,443h27v1h-27zM382,444h25v1h-25zM384,445h21v1h-21zM386,446h17v1h-17zM389,447h12v1h-12z"/></svg>