<?xml version="1.0" encoding="UTF-8"?>
<svg xmlns="http://www.w3.org/2000/svg" viewBox="0 0 512 512" width="512" height="512"><path fill="#000" d="M236,16h40v1h-40zM226,17h60v1h-60zM219,18h74v1h-74zM213,19h86v1h-86zM208,20h96v1h-96zM203,21h106v1h-106zM199,22h114v1h-114zM195,23h122v1h-122zM191,24h130v1h-130zM188,25h136v1h-136zM185,26h142v1h-142zM181,27h150v1h-150zM178,28h156v1h-156zM175,29h161v1h-161zM173,30h166v1h-166zM170,31h172v1h-172zM167,32h178v1h-178zM409,32h11v1h-11zM165,33h182v1h-182zM407,33h15v1h-15zM163,34h186v1h-186zM405,34h19v1h-19zM160,35h192v1h-192zM404,35h21v1h-21zM158,36h196v1h-196zM403,36h23v1h-23zM156,37h200v1h-200zM402,37h25v1h-25zM154,38h204v1h-204zM401,38h27v1h-27zM152,39h209v1h-209zM400,39h28v1h-28zM149,40h214v1h-214zM400,40h29v1h-29zM147,41h218v1h-218zM399,41h30v1h-30zM146,42h220v1h-220zM399,42h31v1h-31zM144,43h224v1h-224zM399,43h31v1h-31zM142,44h228v1h-228zM398,44h32v1h-32zM140,45h232v1h-232zM398,45h33v1h-33zM138,46h236v1h-236zM398,46h33v1h-33zM136,47h240v1h-240zM398,47h33v1h-33zM135,48h114v1h-114zM262,48h115v1h-115zM398,48h33v1h-33zM133,49h102v1h-102zM278,49h101v1h-101zM398,49h33v1h-33zM131,50h96v1h-96zM286,50h95v1h-95zM398,50h33v1h-33zM130,51h90v1h-90zM292,51h90v1h-90zM398,51h33v1h-33zM128,52h87v1h-87zM297,52h87v1h-87zM398,52h33v1h-33zM126,53h84v1h-84zM302,53h83v1h-83zM398,53h33v1h-33zM125,54h81v1h-81zM306,54h81v1h-81zM398,54h33v1h-33zM123,55h79v1h-79zM310,55h79v1h-79zM398,55h33v1h-33zM122,56h76v1h-76zM314,56h76v1h-76zM398,56h33v1h-33zM120,57h75v1h-75zM317,57h75v1h-75zM398,57h33v1h-33zM119,58h73v1h-73zM320,58h73v1h-73zM398,58h33v1h-33zM118,59h71v1h-71zM323,59h108v1h-108zM116,60h70v1h-70zM326,60h105v1h-105zM115,61h68v1h-68zM329,61h102v1h-102zM113,62h68v1h-68zM331,62h100v1h-100zM112,63h66v1h-66zM334,63h97v1h-97zM111,64h65v1h-65zM336,64h95v1h-95zM109,65h64v1h-64zM339,65h92v1h-92zM108,66h63v1h-63zM341,66h90v1h-90zM107,67h62v1h-62zM343,67h88v1h-88zM106,68h61v1h-61zM345,68h86v1h-86zM104,69h61v1h-61zM347,69h84v1h-84zM103,70h60v1h-60zM349,70h82v1h-82zM102,71h59v1h-59zM351,71h80v1h-80zM101,72h58v1h-58zM353,72h78v1h-78zM100,73h57v1h-57zM355,73h76v1h-76zM98,74h57v1h-57zM357,74h74v1h-74zM97,75h56v1h-56zM359,75h72v1h-72zM96,76h56v1h-56zM360,76h71v1h-71zM95,77h55v1h-55zM362,77h69v1h-69zM94,78h54v1h-54zM364,78h67v1h-67zM93,79h54v1h-54zM365,79h66v1h-66zM92,80h53v1h-53zM367,80h64v1h-64zM91,81h52v1h-52zM369,81h62v1h-62zM90,82h52v1h-52zM370,82h61v1h-61zM89,83h51v1h-51zM372,83h59v1h-59zM88,84h51v1h-51zM373,84h58v1h-58zM87,85h50v1h-50zM373,85h58v1h-58zM86,86h50v1h-50zM373,86h58v1h-58zM85,87h50v1h-50zM373,87h58v1h-58zM84,88h49v1h-49zM373,88h58v1h-58zM83,89h49v1h-49zM373,89h58v1h-58zM82,90h49v1h-49zM368,90h63v1h-63zM81,91h48v1h-48zM363,91h68v1h-68zM80,92h48v1h-48zM359,92h72v1h-72zM79,93h48v1h-48zM356,93h75v1h-75zM78,94h48v1h-48zM355,94h76v1h-76zM77,95h47v1h-47zM354,95h77v1h-77zM76,96h47v1h-47zM352,96h79v1h-79zM75,97h47v1h-47zM352,97h79v1h-79zM74,98h47v1h-47zM351,98h80v1h-80zM74,99h46v1h-46zM350,99h81v1h-81zM73,100h45v1h-45zM350,100h80v1h-80zM72,101h45v1h-45zM349,101h81v1h-81zM71,102h45v1h-45zM349,102h81v1h-81zM70,103h45v1h-45zM348,103h82v1h-82zM69,104h45v1h-45zM251,104h10v1h-10zM348,104h81v1h-81zM69,105h44v1h-44zM248,105h16v1h-16zM348,105h81v1h-81zM68,106h44v1h-44zM247,106h18v1h-18zM348,106h80v1h-80zM67,107h44v1h-44zM245,107h21v1h-21zM348,107h79v1h-79zM66,108h44v1h-44zM244,108h24v1h-24zM348,108h79v1h-79zM65,109h44v1h-44zM243,109h25v1h-25zM348,109h78v1h-78zM65,110h43v1h-43zM243,110h26v1h-26zM348,110h76v1h-76zM64,111h43v1h-43zM242,111h28v1h-28zM348,111h75v1h-75zM63,112h43v1h-43zM241,112h29v1h-29zM348,112h73v1h-73zM62,113h43v1h-43zM241,113h30v1h-30zM349,113h69v1h-69zM62,114h42v1h-42zM241,114h30v1h-30zM349,114h65v1h-65zM61,115h42v1h-42zM240,115h32v1h-32zM349,115h60v1h-60zM60,116h42v1h-42zM240,116h32v1h-32zM350,116h54v1h-54zM59,117h42v1h-42zM240,117h32v1h-32zM351,117h48v1h-48zM59,118h41v1h-41zM240,118h32v1h-32zM351,118h43v1h-43zM58,119h42v1h-42zM240,119h32v1h-32zM352,119h37v1h-37zM57,120h42v1h-42zM240,120h32v1h-32zM354,120h31v1h-31zM57,121h41v1h-41zM240,121h32v1h-32zM355,121h25v1h-25zM56,122h41v1h-41zM240,122h32v1h-32zM357,122h18v1h-18zM55,123h41v1h-41zM240,123h32v1h-32zM359,123h11v1h-11zM55,124h40v1h-40zM240,124h32v1h-32zM54,125h40v1h-40zM240,125h32v1h-32zM53,126h41v1h-41zM240,126h32v1h-32zM53,127h40v1h-40zM240,127h32v1h-32zM52,128h40v1h-40zM240,128h32v1h-32zM52,129h39v1h-39zM240,129h32v1h-32zM51,130h40v1h-40zM240,130h32v1h-32zM50,131h40v1h-40zM240,131h32v1h-32zM50,132h39v1h-39zM240,132h32v1h-32zM49,133h39v1h-39zM240,133h32v1h-32zM49,134h39v1h-39zM240,134h32v1h-32zM48,135h39v1h-39zM240,135h32v1h-32zM47,136h39v1h-39zM225,136h108v1h-108zM47,137h38v1h-38zM220,137h116v1h-116zM46,138h39v1h-39zM216,138h121v1h-121zM46,139h38v1h-38zM213,139h125v1h-125zM45,140h38v1h-38zM211,140h129v1h-129zM45,141h38v1h-38zM208,141h132v1h-132zM44,142h38v1h-38zM206,142h135v1h-135zM44,143h37v1h-37zM204,143h138v1h-138zM43,144h38v1h-38zM202,144h140v1h-140zM42,145h38v1h-38zM201,145h142v1h-142zM42,146h38v1h-38zM199,146h144v1h-144zM41,147h38v1h-38zM197,147h147v1h-147zM41,148h37v1h-37zM196,148h148v1h-148zM40,149h38v1h-38zM195,149h149v1h-149zM40,150h37v1h-37zM193,150h151v1h-151zM39,151h38v1h-38zM192,151h152v1h-152zM39,152h37v1h-37zM191,152h153v1h-153zM39,153h36v1h-36zM190,153h154v1h-154zM38,154h37v1h-37zM189,154h155v1h-155zM38,155h36v1h-36zM188,155h156v1h-156zM37,156h37v1h-37zM187,156h157v1h-157zM37,157h36v1h-36zM186,157h157v1h-157zM36,158h37v1h-37zM185,158h158v1h-158zM36,159h36v1h-36zM184,159h159v1h-159zM35,160h37v1h-37zM183,160h159v1h-159zM35,161h36v1h-36zM182,161h159v1h-159zM35,162h36v1h-36zM182,162h158v1h-158zM34,163h36v1h-36zM181,163h159v1h-159zM34,164h36v1h-36zM180,164h158v1h-158zM33,165h36v1h-36zM179,165h158v1h-158zM33,166h36v1h-36zM179,166h157v1h-157zM32,167h36v1h-36zM178,167h155v1h-155zM32,168h36v1h-36zM178,168h56v1h-56zM32,169h35v1h-35zM177,169h50v1h-50zM31,170h36v1h-36zM176,170h48v1h-48zM31,171h35v1h-35zM176,171h45v1h-45zM31,172h35v1h-35zM175,172h44v1h-44zM30,173h35v1h-35zM175,173h43v1h-43zM30,174h35v1h-35zM174,174h42v1h-42zM29,175h36v1h-36zM174,175h41v1h-41zM29,176h35v1h-35zM173,176h40v1h-40zM29,177h35v1h-35zM173,177h39v1h-39zM28,178h35v1h-35zM173,178h38v1h-38zM28,179h35v1h-35zM172,179h38v1h-38zM28,180h35v1h-35zM172,180h37v1h-37zM27,181h35v1h-35zM171,181h37v1h-37zM27,182h35v1h-35zM171,182h37v1h-37zM27,183h34v1h-34zM171,183h36v1h-36zM26,184h35v1h-35zM170,184h36v1h-36zM26,185h35v1h-35zM170,185h36v1h-36zM26,186h34v1h-34zM170,186h35v1h-35zM470,186h7v1h-7zM26,187h34v1h-34zM170,187h34v1h-34zM467,187h13v1h-13zM25,188h35v1h-35zM169,188h35v1h-35zM465,188h17v1h-17zM25,189h34v1h-34zM169,189h34v1h-34zM464,189h19v1h-19zM25,190h34v1h-34zM169,190h34v1h-34zM462,190h23v1h-23zM24,191h35v1h-35zM169,191h34v1h-34zM461,191h25v1h-25zM24,192h34v1h-34zM169,192h33v1h-33zM461,192h25v1h-25zM24,193h34v1h-34zM168,193h34v1h-34zM460,193h27v1h-27zM24,194h34v1h-34zM168,194h34v1h-34zM459,194h29v1h-29zM23,195h34v1h-34zM168,195h33v1h-33zM459,195h29v1h-29zM23,196h34v1h-34zM168,196h33v1h-33zM458,196h31v1h-31zM23,197h34v1h-34zM168,197h33v1h-33zM458,197h31v1h-31zM23,198h33v1h-33zM168,198h33v1h-33zM458,198h31v1h-31zM22,199h34v1h-34zM168,199h33v1h-33zM457,199h33v1h-33zM22,200h34v1h-34zM168,200h33v1h-33zM457,200h33v1h-33zM22,201h34v1h-34zM168,201h33v1h-33zM457,201h33v1h-33zM22,202h33v1h-33zM168,202h33v1h-33zM457,202h33v1h-33zM21,203h34v1h-34zM168,203h33v1h-33zM457,203h34v1h-34zM21,204h34v1h-34zM168,204h33v1h-33zM457,204h34v1h-34zM21,205h34v1h-34zM168,205h33v1h-33zM457,205h34v1h-34zM21,206h33v1h-33zM168,206h33v1h-33zM458,206h33v1h-33zM21,207h33v1h-33zM168,207h33v1h-33zM458,207h33v1h-33zM20,208h34v1h-34zM168,208h33v1h-33zM458,208h34v1h-34zM20,209h34v1h-34zM168,209h33v1h-33zM458,209h34v1h-34zM20,210h33v1h-33zM168,210h33v1h-33zM459,210h33v1h-33zM20,211h33v1h-33zM168,211h33v1h-33zM459,211h33v1h-33zM20,212h33v1h-33zM168,212h33v1h-33zM459,212h33v1h-33zM19,213h34v1h-34zM168,213h34v1h-34zM459,213h34v1h-34zM19,214h34v1h-34zM168,214h34v1h-34zM459,214h34v1h-34zM19,215h33v1h-33zM169,215h33v1h-33zM460,215h33v1h-33zM19,216h33v1h-33zM169,216h34v1h-34zM460,216h33v1h-33zM19,217h33v1h-33zM169,217h34v1h-34zM460,217h33v1h-33zM19,218h33v1h-33zM169,218h34v1h-34zM460,218h33v1h-33zM18,219h34v1h-34zM169,219h35v1h-35zM460,219h34v1h-34zM18,220h33v1h-33zM170,220h34v1h-34zM461,220h33v1h-33zM18,221h33v1h-33zM170,221h35v1h-35zM461,221h33v1h-33zM18,222h33v1h-33zM170,222h36v1h-36zM461,222h33v1h-33zM18,223h33v1h-33zM170,223h36v1h-36zM461,223h33v1h-33zM18,224h33v1h-33zM171,224h36v1h-36zM461,224h33v1h-33zM18,225h33v1h-33zM171,225h37v1h-37zM461,225h33v1h-33zM17,226h33v1h-33zM171,226h37v1h-37zM462,226h33v1h-33zM17,227h33v1h-33zM172,227h37v1h-37zM462,227h33v1h-33zM17,228h33v1h-33zM172,228h38v1h-38zM462,228h33v1h-33zM17,229h33v1h-33zM173,229h38v1h-38zM462,229h33v1h-33zM17,230h33v1h-33zM173,230h39v1h-39zM462,230h33v1h-33zM17,231h33v1h-33zM173,231h40v1h-40zM462,231h33v1h-33zM17,232h33v1h-33zM174,232h41v1h-41zM462,232h33v1h-33zM17,233h33v1h-33zM174,233h42v1h-42zM462,233h33v1h-33zM17,234h32v1h-32zM175,234h43v1h-43zM462,234h33v1h-33zM17,235h32v1h-32zM175,235h44v1h-44zM463,235h32v1h-32zM16,236h33v1h-33zM176,236h45v1h-45zM463,236h33v1h-33zM16,237h33v1h-33zM176,237h48v1h-48zM463,237h33v1h-33zM16,238h33v1h-33zM177,238h50v1h-50zM463,238h33v1h-33zM16,239h33v1h-33zM178,239h56v1h-56zM463,239h33v1h-33zM16,240h33v1h-33zM178,240h109v1h-109zM463,240h33v1h-33zM16,241h33v1h-33zM179,241h113v1h-113zM463,241h33v1h-33zM16,242h33v1h-33zM180,242h116v1h-116zM463,242h33v1h-33zM16,243h33v1h-33zM180,243h119v1h-119zM463,243h33v1h-33zM16,244h33v1h-33zM181,244h120v1h-120zM463,244h33v1h-33zM16,245h33v1h-33zM182,245h122v1h-122zM463,245h33v1h-33zM16,246h33v1h-33zM182,246h124v1h-124zM463,246h33v1h-33zM16,247h33v1h-33zM183,247h125v1h-125zM463,247h33v1h-33zM16,248h33v1h-33zM184,248h126v1h-126zM463,248h33v1h-33zM16,249h32v1h-32zM185,249h126v1h-126zM463,249h33v1h-33zM16,250h32v1h-32zM186,250h127v1h-127zM464,250h32v1h-32zM16,251h32v1h-32zM187,251h127v1h-127zM464,251h32v1h-32zM16,252h32v1h-32zM188,252h128v1h-128zM464,252h32v1h-32zM16,253h32v1h-32zM189,253h128v1h-128zM464,253h32v1h-32zM16,254h32v1h-32zM190,254h129v1h-129zM464,254h32v1h-32zM16,255h32v1h-32zM191,255h129v1h-129zM464,255h32v1h-32zM16,256h32v1h-32zM192,256h129v1h-129zM464,256h32v1h-32zM16,257h32v1h-32zM193,257h129v1h-129zM464,257h32v1h-32zM16,258h32v1h-32zM195,258h128v1h-128zM464,258h32v1h-32zM16,259h32v1h-32zM196,259h128v1h-128zM464,259h32v1h-32zM16,260h32v1h-32zM198,260h127v1h-127zM464,260h32v1h-32zM16,261h32v1h-32zM199,261h127v1h-127zM464,261h32v1h-32zM16,262h32v1h-32zM201,262h126v1h-126zM463,262h33v1h-33zM16,263h33v1h-33zM202,263h126v1h-126zM463,263h33v1h-33zM16,264h33v1h-33zM204,264h125v1h-125zM463,264h33v1h-33zM16,265h33v1h-33zM206,265h124v1h-124zM463,265h33v1h-33zM16,266h33v1h-33zM208,266h122v1h-122zM463,266h33v1h-33zM16,267h33v1h-33zM211,267h120v1h-120zM463,267h33v1h-33zM16,268h33v1h-33zM213,268h119v1h-119zM463,268h33v1h-33zM16,269h33v1h-33zM216,269h116v1h-116zM463,269h33v1h-33zM16,270h33v1h-33zM220,270h113v1h-113zM463,270h33v1h-33zM16,271h33v1h-33zM225,271h109v1h-109zM463,271h33v1h-33zM16,272h33v1h-33zM278,272h56v1h-56zM463,272h33v1h-33zM16,273h33v1h-33zM285,273h50v1h-50zM463,273h33v1h-33zM16,274h33v1h-33zM288,274h48v1h-48zM463,274h33v1h-33zM16,275h33v1h-33zM291,275h45v1h-45zM463,275h33v1h-33zM16,276h33v1h-33zM293,276h44v1h-44zM463,276h32v1h-32zM17,277h33v1h-33zM294,277h43v1h-43zM462,277h33v1h-33zM17,278h33v1h-33zM296,278h42v1h-42zM462,278h33v1h-33zM17,279h33v1h-33zM297,279h41v1h-41zM462,279h33v1h-33zM17,280h33v1h-33zM299,280h40v1h-40zM462,280h33v1h-33zM17,281h33v1h-33zM300,281h39v1h-39zM462,281h33v1h-33zM17,282h33v1h-33zM301,282h38v1h-38zM462,282h33v1h-33zM17,283h33v1h-33zM302,283h38v1h-38zM462,283h33v1h-33zM17,284h33v1h-33zM303,284h37v1h-37zM462,284h33v1h-33zM17,285h33v1h-33zM304,285h37v1h-37zM462,285h33v1h-33zM18,286h33v1h-33zM304,286h37v1h-37zM461,286h33v1h-33zM18,287h33v1h-33zM305,287h36v1h-36zM461,287h33v1h-33zM18,288h33v1h-33zM306,288h36v1h-36zM461,288h33v1h-33zM18,289h33v1h-33zM306,289h36v1h-36zM461,289h33v1h-33zM18,290h33v1h-33zM307,290h35v1h-35zM461,290h33v1h-33zM18,291h33v1h-33zM308,291h34v1h-34zM461,291h33v1h-33zM18,292h34v1h-34zM308,292h35v1h-35zM460,292h34v1h-34zM19,293h33v1h-33zM309,293h34v1h-34zM460,293h33v1h-33zM19,294h33v1h-33zM309,294h34v1h-34zM460,294h33v1h-33zM19,295h33v1h-33zM309,295h34v1h-34zM460,295h33v1h-33zM19,296h33v1h-33zM310,296h33v1h-33zM460,296h33v1h-33zM19,297h34v1h-34zM310,297h34v1h-34zM459,297h34v1h-34zM19,298h34v1h-34zM310,298h34v1h-34zM459,298h34v1h-34zM20,299h33v1h-33zM311,299h33v1h-33zM459,299h33v1h-33zM20,300h33v1h-33zM311,300h33v1h-33zM459,300h33v1h-33zM20,301h33v1h-33zM311,301h33v1h-33zM459,301h33v1h-33zM20,302h34v1h-34zM311,302h33v1h-33zM458,302h34v1h-34zM20,303h34v1h-34zM311,303h33v1h-33zM458,303h34v1h-34zM21,304h33v1h-33zM311,304h33v1h-33zM458,304h33v1h-33zM21,305h33v1h-33zM311,305h33v1h-33zM458,305h33v1h-33zM21,306h34v1h-34zM311,306h33v1h-33zM457,306h34v1h-34zM21,307h34v1h-34zM311,307h33v1h-33zM457,307h34v1h-34zM21,308h34v1h-34zM311,308h33v1h-33zM457,308h34v1h-34zM22,309h33v1h-33zM311,309h33v1h-33zM457,309h33v1h-33zM22,310h33v1h-33zM311,310h33v1h-33zM456,310h34v1h-34zM22,311h33v1h-33zM311,311h33v1h-33zM456,311h34v1h-34zM22,312h33v1h-33zM311,312h33v1h-33zM456,312h34v1h-34zM23,313h31v1h-31zM311,313h33v1h-33zM456,313h33v1h-33zM23,314h31v1h-31zM311,314h33v1h-33zM455,314h34v1h-34zM23,315h31v1h-31zM311,315h33v1h-33zM455,315h34v1h-34zM24,316h29v1h-29zM311,316h33v1h-33zM455,316h34v1h-34zM24,317h29v1h-29zM310,317h34v1h-34zM454,317h34v1h-34zM25,318h27v1h-27zM310,318h34v1h-34zM454,318h34v1h-34zM26,319h25v1h-25zM310,319h33v1h-33zM454,319h34v1h-34zM26,320h25v1h-25zM309,320h34v1h-34zM453,320h35v1h-35zM27,321h23v1h-23zM309,321h34v1h-34zM453,321h34v1h-34zM29,322h19v1h-19zM309,322h34v1h-34zM453,322h34v1h-34zM30,323h17v1h-17zM308,323h35v1h-35zM452,323h35v1h-35zM32,324h13v1h-13zM308,324h34v1h-34zM452,324h34v1h-34zM35,325h7v1h-7zM307,325h35v1h-35zM452,325h34v1h-34zM306,326h36v1h-36zM451,326h35v1h-35zM306,327h36v1h-36zM451,327h35v1h-35zM305,328h36v1h-36zM451,328h34v1h-34zM304,329h37v1h-37zM450,329h35v1h-35zM304,330h37v1h-37zM450,330h35v1h-35zM303,331h37v1h-37zM449,331h35v1h-35zM302,332h38v1h-38zM449,332h35v1h-35zM301,333h38v1h-38zM449,333h35v1h-35zM300,334h39v1h-39zM448,334h35v1h-35zM299,335h40v1h-40zM448,335h35v1h-35zM297,336h41v1h-41zM447,336h36v1h-36zM296,337h42v1h-42zM447,337h35v1h-35zM294,338h43v1h-43zM447,338h35v1h-35zM293,339h44v1h-44zM446,339h35v1h-35zM291,340h45v1h-45zM446,340h35v1h-35zM288,341h48v1h-48zM445,341h36v1h-36zM285,342h50v1h-50zM445,342h35v1h-35zM278,343h56v1h-56zM444,343h36v1h-36zM179,344h155v1h-155zM444,344h36v1h-36zM176,345h157v1h-157zM443,345h36v1h-36zM175,346h157v1h-157zM443,346h36v1h-36zM173,347h159v1h-159zM442,347h36v1h-36zM172,348h159v1h-159zM442,348h36v1h-36zM171,349h159v1h-159zM441,349h36v1h-36zM171,350h159v1h-159zM441,350h36v1h-36zM170,351h159v1h-159zM440,351h37v1h-37zM169,352h159v1h-159zM440,352h36v1h-36zM169,353h158v1h-158zM439,353h37v1h-37zM169,354h157v1h-157zM439,354h36v1h-36zM168,355h157v1h-157zM438,355h37v1h-37zM168,356h156v1h-156zM438,356h36v1h-36zM168,357h155v1h-155zM437,357h37v1h-37zM168,358h154v1h-154zM437,358h36v1h-36zM168,359h153v1h-153zM436,359h37v1h-37zM168,360h152v1h-152zM435,360h38v1h-38zM168,361h151v1h-151zM435,361h37v1h-37zM168,362h149v1h-149zM434,362h38v1h-38zM168,363h148v1h-148zM434,363h37v1h-37zM168,364h146v1h-146zM433,364h38v1h-38zM169,365h144v1h-144zM432,365h38v1h-38zM169,366h142v1h-142zM432,366h37v1h-37zM169,367h141v1h-141zM431,367h38v1h-38zM170,368h138v1h-138zM431,368h37v1h-37zM171,369h135v1h-135zM430,369h38v1h-38zM172,370h132v1h-132zM429,370h38v1h-38zM172,371h129v1h-129zM429,371h38v1h-38zM174,372h125v1h-125zM428,372h38v1h-38zM175,373h121v1h-121zM427,373h39v1h-39zM177,374h115v1h-115zM427,374h38v1h-38zM179,375h108v1h-108zM426,375h39v1h-39zM240,376h32v1h-32zM425,376h39v1h-39zM240,377h32v1h-32zM424,377h39v1h-39zM240,378h32v1h-32zM424,378h39v1h-39zM240,379h32v1h-32zM423,379h39v1h-39zM240,380h32v1h-32zM422,380h40v1h-40zM240,381h32v1h-32zM421,381h40v1h-40zM240,382h32v1h-32zM421,382h39v1h-39zM240,383h32v1h-32zM420,383h40v1h-40zM240,384h32v1h-32zM419,384h40v1h-40zM240,385h32v1h-32zM418,385h41v1h-41zM240,386h32v1h-32zM417,386h41v1h-41zM240,387h32v1h-32zM417,387h40v1h-40zM240,388h32v1h-32zM416,388h41v1h-41zM240,389h32v1h-32zM415,389h41v1h-41zM240,390h32v1h-32zM414,390h41v1h-41zM240,391h32v1h-32zM413,391h42v1h-42zM240,392h32v1h-32zM412,392h42v1h-42zM240,393h32v1h-32zM412,393h41v1h-41zM240,394h32v1h-32zM411,394h41v1h-41zM240,395h32v1h-32zM410,395h42v1h-42zM240,396h32v1h-32zM409,396h42v1h-42zM241,397h30v1h-30zM408,397h42v1h-42zM94,398h66v1h-66zM241,398h30v1h-30zM407,398h43v1h-43zM91,399h72v1h-72zM241,399h30v1h-30zM406,399h43v1h-43zM89,400h76v1h-76zM242,400h28v1h-28zM405,400h43v1h-43zM88,401h78v1h-78zM243,401h26v1h-26zM404,401h43v1h-43zM86,402h81v1h-81zM244,402h24v1h-24zM403,402h44v1h-44zM85,403h83v1h-83zM244,403h24v1h-24zM402,403h44v1h-44zM85,404h84v1h-84zM246,404h20v1h-20zM401,404h44v1h-44zM84,405h86v1h-86zM247,405h18v1h-18zM400,405h44v1h-44zM83,406h87v1h-87zM249,406h15v1h-15zM399,406h44v1h-44zM83,407h88v1h-88zM251,407h10v1h-10zM398,407h45v1h-45zM82,408h89v1h-89zM397,408h45v1h-45zM82,409h90v1h-90zM396,409h45v1h-45zM82,410h90v1h-90zM395,410h45v1h-45zM81,411h91v1h-91zM394,411h45v1h-45zM81,412h91v1h-91zM392,412h46v1h-46zM81,413h91v1h-91zM391,413h47v1h-47zM81,414h91v1h-91zM390,414h47v1h-47zM81,415h91v1h-91zM389,415h47v1h-47zM81,416h91v1h-91zM388,416h47v1h-47zM81,417h91v1h-91zM386,417h48v1h-48zM81,418h91v1h-91zM385,418h48v1h-48zM81,419h91v1h-91zM384,419h48v1h-48zM81,420h90v1h-90zM383,420h48v1h-48zM81,421h90v1h-90zM381,421h49v1h-49zM81,422h89v1h-89zM380,422h49v1h-49zM81,423h89v1h-89zM379,423h49v1h-49zM81,424h88v1h-88zM377,424h50v1h-50zM81,425h87v1h-87zM376,425h50v1h-50zM81,426h86v1h-86zM375,426h50v1h-50zM81,427h85v1h-85zM373,427h51v1h-51zM81,428h83v1h-83zM372,428h51v1h-51zM81,429h81v1h-81zM370,429h52v1h-52zM81,430h78v1h-78zM369,430h52v1h-52zM81,431h71v1h-71zM367,431h53v1h-53zM81,432h71v1h-71zM365,432h54v1h-54zM81,433h71v1h-71zM364,433h54v1h-54zM81,434h71v1h-71zM362,434h55v1h-55zM81,435h71v1h-71zM360,435h56v1h-56zM81,436h72v1h-72zM359,436h56v1h-56zM81,437h74v1h-74zM357,437h57v1h-57zM81,438h76v1h-76zM355,438h57v1h-57zM81,439h78v1h-78zM353,439h58v1h-58zM81,440h80v1h-80zM351,440h59v1h-59zM81,441h82v1h-82zM349,441h60v1h-60zM81,442h84v1h-84zM347,442h61v1h-61zM81,443h86v1h-86zM345,443h61v1h-61zM81,444h88v1h-88zM343,444h62v1h-62zM81,445h90v1h-90zM341,445h63v1h-63zM81,446h92v1h-92zM339,446h64v1h-64zM81,447h95v1h-95zM336,447h65v1h-65zM81,448h97v1h-97zM334,448h66v1h-66zM81,449h100v1h-100zM331,449h68v1h-68zM81,450h102v1h-102zM329,450h68v1h-68zM81,451h105v1h-105zM326,451h70v1h-70zM81,452h108v1h-108zM323,452h71v1h-71zM81,453h33v1h-33zM119,453h73v1h-73zM320,453h73v1h-73zM81,454h33v1h-33zM120,454h75v1h-75zM317,454h75v1h-75zM81,455h33v1h-33zM122,455h76v1h-76zM313,455h77v1h-77zM81,456h33v1h-33zM123,456h79v1h-79zM310,456h79v1h-79zM81,457h33v1h-33zM125,457h81v1h-81zM306,457h81v1h-81zM81,458h33v1h-33zM127,458h83v1h-83zM302,458h83v1h-83zM81,459h33v1h-33zM128,459h87v1h-87zM297,459h87v1h-87zM81,460h33v1h-33zM130,460h90v1h-90zM292,460h90v1h-90zM81,461h33v1h-33zM131,461h96v1h-96zM286,461h95v1h-95zM81,462h33v1h-33zM133,462h102v1h-102zM277,462h102v1h-102zM81,463h33v1h-33zM135,463h115v1h-115zM261,463h116v1h-116zM81,464h33v1h-33zM136,464h240v1h-240zM81,465h33v1h-33zM138,465h236v1h-236zM81,466h33v1h-33zM140,466h232v1h-232zM81,467h33v1h-33zM142,467h228v1h-228zM81,468h33v1h-33zM144,468h224v1h-224zM81,469h33v1h-33zM146,469h220v1h-220zM81,470h33v1h-33zM148,470h217v1h-217zM81,471h33v1h-33zM149,471h214v1h-214zM81,472h33v1h-33zM151,472h209v1h-209zM81,473h33v1h-33zM154,473h204v1h-204zM81,474h33v1h-33zM156,474h200v1h-200zM81,475h33v1h-33zM158,475h196v1h-196zM82,476h32v1h-32zM160,476h192v1h-192zM82,477h31v1h-31zM163,477h186v1h-186zM82,478h31v1h-31zM165,478h182v1h-182zM83,479h30v1h-30zM168,479h177v1h-177zM83,480h29v1h-29zM170,480h172v1h-172zM84,481h27v1h-27zM173,481h166v1h-166zM84,482h27v1h-27zM176,482h161v1h-161zM85,483h25v1h-25zM178,483h156v1h-156zM86,484h23v1h-23zM181,484h150v1h-150zM87,485h21v1h-21zM185,485h142v1h-142zM89,486h18v1h-18zM188,486h136v1h-136zM91,487h14v1h-14zM191,487h130v1h-130zM93,488h9v1h-9zM195,488h122v1h-122zM199,489h114v1h-114zM203,490h106v1h-106zM208,491h96v1h-96zM213,492h86v1h-86zM219,493h74v1h-74zM226,494h60v1h-60zM236,495h40v1h-40z"/></svg>