<?xml version="1.0" encoding="UTF-8"?>
<svg xmlns="http://www.w3.org/2000/svg" viewBox="0 0 512 512" width="512" height="512"><path fill="#000" d="M132,16h248v1h-248zM127,17h258v1h-258zM123,18h266v1h-266zM119,19h274v1h-274zM116,20h280v1h-280zM114,21h284v1h-284zM111,22h290v1h-290zM109,23h294v1h-294zM107,24h298v1h-298zM105,25h302v1h-302zM104,26h304v1h-304zM102,27h308v1h-308zM100,28h312v1h-312zM99,29h314v1h-314zM97,30h318v1h-318zM96,31h320v1h-320zM95,32h322v1h-322zM93,33h326v1h-326zM92,34h328v1h-328zM91,35h330v1h-330zM90,36h332v1h-332zM89,37h334v1h-334zM88,38h336v1h-336zM87,39h338v1h-338zM86,40h340v1h-340zM85,41h342v1h-342zM84,42h344v1h-344zM83,43h346v1h-346zM82,44h348v1h-348zM81,45h350v1h-350zM81,46h350v1h-350zM80,47h352v1h-352zM79,48h63v1h-63zM370,48h63v1h-63zM78,49h56v1h-56zM378,49h56v1h-56zM78,50h52v1h-52zM382,50h52v1h-52zM77,51h50v1h-50zM385,51h50v1h-50zM76,52h49v1h-49zM387,52h49v1h-49zM76,53h46v1h-46zM390,53h46v1h-46zM75,54h46v1h-46zM391,54h46v1h-46zM74,55h45v1h-45zM393,55h45v1h-45zM74,56h43v1h-43zM395,56h43v1h-43zM73,57h43v1h-43zM396,57h43v1h-43zM73,58h42v1h-42zM397,58h42v1h-42zM72,59h41v1h-41zM399,59h41v1h-41zM72,60h40v1h-40zM400,60h40v1h-40zM71,61h40v1h-40zM401,61h40v1h-40zM71,62h39v1h-39zM402,62h39v1h-39zM70,63h39v1h-39zM403,63h39v1h-39zM70,64h38v1h-38zM404,64h38v1h-38zM70,65h37v1h-37zM405,65h37v1h-37zM69,66h38v1h-38zM406,66h37v1h-37zM69,67h37v1h-37zM406,67h37v1h-37zM68,68h37v1h-37zM407,68h37v1h-37zM68,69h36v1h-36zM408,69h36v1h-36zM68,70h36v1h-36zM408,70h36v1h-36zM67,71h36v1h-36zM409,71h36v1h-36zM67,72h35v1h-35zM410,72h35v1h-35zM67,73h35v1h-35zM410,73h35v1h-35zM66,74h35v1h-35zM411,74h35v1h-35zM66,75h35v1h-35zM411,75h35v1h-35zM66,76h34v1h-34zM412,76h34v1h-34zM66,77h34v1h-34zM412,77h34v1h-34zM65,78h35v1h-35zM412,78h35v1h-35zM65,79h34v1h-34zM413,79h34v1h-34zM65,80h34v1h-34zM413,80h34v1h-34zM65,81h34v1h-34zM413,81h34v1h-34zM65,82h33v1h-33zM414,82h33v1h-33zM65,83h33v1h-33zM414,83h33v1h-33zM64,84h34v1h-34zM414,84h34v1h-34zM64,85h33v1h-33zM415,85h33v1h-33zM64,86h33v1h-33zM415,86h33v1h-33zM64,87h33v1h-33zM415,87h33v1h-33zM64,88h33v1h-33zM415,88h33v1h-33zM64,89h33v1h-33zM415,89h33v1h-33zM64,90h33v1h-33zM415,90h33v1h-33zM64,91h33v1h-33zM415,91h33v1h-33zM64,92h33v1h-33zM415,92h33v1h-33zM64,93h32v1h-32zM416,93h32v1h-32zM64,94h32v1h-32zM416,94h32v1h-32zM64,95h32v1h-32zM416,95h32v1h-32zM64,96h32v1h-32zM416,96h32v1h-32zM64,97h32v1h-32zM416,97h32v1h-32zM64,98h32v1h-32zM416,98h32v1h-32zM64,99h32v1h-32zM416,99h32v1h-32zM64,100h32v1h-32zM416,100h32v1h-32zM64,101h32v1h-32zM416,101h32v1h-32zM64,102h32v1h-32zM416,102h32v1h-32zM64,103h32v1h-32zM416,103h32v1h-32zM64,104h32v1h-32zM416,104h32v1h-32zM64,105h32v1h-32zM416,105h32v1h-32zM64,106h32v1h-32zM416,106h32v1h-32zM64,107h32v1h-32zM416,107h32v1h-32zM64,108h32v1h-32zM416,108h32v1h-32zM64,109h32v1h-32zM416,109h32v1h-32zM64,110h32v1h-32zM416,110h32v1h-32zM64,111h32v1h-32zM416,111h32v1h-32zM64,112h32v1h-32zM416,112h32v1h-32zM64,113h32v1h-32zM416,113h32v1h-32zM64,114h32v1h-32zM416,114h32v1h-32zM64,115h32v1h-32zM416,115h32v1h-32zM64,116h32v1h-32zM416,116h32v1h-32zM64,117h32v1h-32zM416,117h32v1h-32zM64,118h32v1h-32zM416,118h32v1h-32zM64,119h32v1h-32zM416,119h32v1h-32zM64,120h32v1h-32zM416,120h32v1h-32zM64,121h32v1h-32zM416,121h32v1h-32zM64,122h32v1h-32zM416,122h32v1h-32zM64,123h32v1h-32zM416,123h32v1h-32zM64,124h32v1h-32zM416,124h32v1h-32zM64,125h32v1h-32zM416,125h32v1h-32zM64,126h32v1h-32zM416,126h32v1h-32zM64,127h32v1h-32zM416,127h32v1h-32zM64,128h32v1h-32zM163,128h186v1h-186zM416,128h32v1h-32zM64,129h32v1h-32zM160,129h192v1h-192zM416,129h32v1h-32zM64,130h32v1h-32zM159,130h194v1h-194zM416,130h32v1h-32zM64,131h32v1h-32zM157,131h197v1h-197zM416,131h32v1h-32zM64,132h32v1h-32zM156,132h200v1h-200zM416,132h32v1h-32zM64,133h32v1h-32zM155,133h201v1h-201zM416,133h32v1h-32zM64,134h32v1h-32zM155,134h202v1h-202zM416,134h32v1h-32zM64,135h32v1h-32zM154,135h204v1h-204zM416,135h32v1h-32zM64,136h32v1h-32zM153,136h205v1h-205zM416,136h32v1h-32zM64,137h32v1h-32zM153,137h206v1h-206zM416,137h32v1h-32zM64,138h32v1h-32zM153,138h206v1h-206zM416,138h32v1h-32zM64,139h32v1h-32zM152,139h208v1h-208zM416,139h32v1h-32zM64,140h32v1h-32zM152,140h208v1h-208zM416,140h32v1h-32zM64,141h32v1h-32zM152,141h208v1h-208zM416,141h32v1h-32zM64,142h32v1h-32zM152,142h208v1h-208zM416,142h32v1h-32zM64,143h32v1h-32zM152,143h208v1h-208zM416,143h32v1h-32zM64,144h32v1h-32zM152,144h208v1h-208zM416,144h32v1h-32zM64,145h32v1h-32zM152,145h208v1h-208zM416,145h32v1h-32zM64,146h32v1h-32zM152,146h208v1h-208zM416,146h32v1h-32zM64,147h32v1h-32zM152,147h208v1h-208zM416,147h32v1h-32zM64,148h32v1h-32zM152,148h208v1h-208zM416,148h32v1h-32zM64,149h32v1h-32zM153,149h206v1h-206zM416,149h32v1h-32zM64,150h32v1h-32zM153,150h206v1h-206zM416,150h32v1h-32zM64,151h32v1h-32zM153,151h206v1h-206zM416,151h32v1h-32zM64,152h32v1h-32zM154,152h204v1h-204zM416,152h32v1h-32zM64,153h32v1h-32zM155,153h202v1h-202zM416,153h32v1h-32zM64,154h32v1h-32zM156,154h200v1h-200zM416,154h32v1h-32zM64,155h32v1h-32zM156,155h200v1h-200zM416,155h32v1h-32zM64,156h32v1h-32zM158,156h196v1h-196zM416,156h32v1h-32zM64,157h32v1h-32zM159,157h194v1h-194zM416,157h32v1h-32zM64,158h32v1h-32zM161,158h191v1h-191zM416,158h32v1h-32zM64,159h32v1h-32zM163,159h186v1h-186zM416,159h32v1h-32zM64,160h32v1h-32zM416,160h32v1h-32zM64,161h32v1h-32zM416,161h32v1h-32zM64,162h32v1h-32zM416,162h32v1h-32zM64,163h32v1h-32zM416,163h32v1h-32zM64,164h32v1h-32zM416,164h32v1h-32zM64,165h32v1h-32zM416,165h32v1h-32zM64,166h32v1h-32zM416,166h32v1h-32zM64,167h32v1h-32zM416,167h32v1h-32zM64,168h32v1h-32zM416,168h32v1h-32zM64,169h32v1h-32zM416,169h32v1h-32zM64,170h32v1h-32zM416,170h32v1h-32zM64,171h32v1h-32zM416,171h32v1h-32zM64,172h32v1h-32zM416,172h32v1h-32zM64,173h32v1h-32zM416,173h32v1h-32zM64,174h32v1h-32zM416,174h32v1h-32zM64,175h32v1h-32zM416,175h32v1h-32zM64,176h32v1h-32zM416,176h32v1h-32zM64,177h32v1h-32zM416,177h32v1h-32zM64,178h32v1h-32zM416,178h32v1h-32zM64,179h32v1h-32zM416,179h32v1h-32zM64,180h32v1h-32zM416,180h32v1h-32zM64,181h32v1h-32zM416,181h32v1h-32zM64,182h32v1h-32zM416,182h32v1h-32zM64,183h32v1h-32zM416,183h32v1h-32zM64,184h32v1h-32zM416,184h32v1h-32zM64,185h32v1h-32zM416,185h32v1h-32zM64,186h32v1h-32zM416,186h32v1h-32zM64,187h32v1h-32zM416,187h32v1h-32zM64,188h32v1h-32zM416,188h32v1h-32zM64,189h32v1h-32zM416,189h32v1h-32zM64,190h32v1h-32zM416,190h32v1h-32zM64,191h32v1h-32zM416,191h32v1h-32zM64,192h32v1h-32zM416,192h32v1h-32zM64,193h32v1h-32zM416,193h32v1h-32zM64,194h32v1h-32zM416,194h32v1h-32zM64,195h32v1h-32zM416,195h32v1h-32zM64,196h32v1h-32zM416,196h32v1h-32zM64,197h32v1h-32zM416,197h32v1h-32zM64,198h32v1h-32zM416,198h32v1h-32zM64,199h32v1h-32zM416,199h32v1h-32zM64,200h32v1h-32zM416,200h32v1h-32zM64,201h32v1h-32zM416,201h32v1h-32zM64,202h32v1h-32zM416,202h32v1h-32zM64,203h32v1h-32zM416,203h32v1h-32zM64,204h32v1h-32zM416,204h32v1h-32zM64,205h32v1h-32zM416,205h32v1h-32zM64,206h32v1h-32zM416,206h32v1h-32zM64,207h32v1h-32zM416,207h32v1h-32zM64,208h32v1h-32zM163,208h186v1h-186zM416,208h32v1h-32zM64,209h32v1h-32zM160,209h192v1h-192zM416,209h32v1h-32zM64,210h32v1h-32zM159,210h194v1h-194zM416,210h32v1h-32zM64,211h32v1h-32zM157,211h197v1h-197zM416,211h32v1h-32zM64,212h32v1h-32zM156,212h200v1h-200zM416,212h32v1h-32zM64,213h32v1h-32zM155,213h201v1h-201zM416,213h32v1h-32zM64,214h32v1h-32zM155,214h202v1h-202zM416,214h32v1h-32zM64,215h32v1h-32zM154,215h204v1h-204zM416,215h32v1h-32zM64,216h32v1h-32zM153,216h205v1h-205zM416,216h32v1h-32zM64,217h32v1h-32zM153,217h206v1h-206zM416,217h32v1h-32zM64,218h32v1h-32zM153,218h206v1h-206zM416,218h32v1h-32zM64,219h32v1h-32zM152,219h208v1h-208zM416,219h32v1h-32zM64,220h32v1h-32zM152,220h208v1h-208zM416,220h32v1h-32zM64,221h32v1h-32zM152,221h208v1h-208zM416,221h32v1h-32zM64,222h32v1h-32zM152,222h208v1h-208zM416,222h32v1h-32zM64,223h32v1h-32zM152,223h208v1h-208zM416,223h32v1h-32zM64,224h32v1h-32zM152,224h208v1h-208zM416,224h32v1h-32zM64,225h32v1h-32zM152,225h208v1h-208zM416,225h32v1h-32zM64,226h32v1h-32zM152,226h208v1h-208zM416,226h32v1h-32zM64,227h32v1h-32zM152,227h208v1h-208zM416,227h32v1h-32zM64,228h32v1h-32zM152,228h208v1h-208zM416,228h32v1h-32zM64,229h32v1h-32zM153,229h206v1h-206zM416,229h32v1h-32zM64,230h32v1h-32zM153,230h206v1h-206zM416,230h32v1h-32zM64,231h32v1h-32zM153,231h206v1h-206zM416,231h32v1h-32zM64,232h32v1h-32zM154,232h204v1h-204zM416,232h32v1h-32zM64,233h32v1h-32zM155,233h202v1h-202zM416,233h32v1h-32zM64,234h32v1h-32zM156,234h200v1h-200zM416,234h32v1h-32zM64,235h32v1h-32zM156,235h200v1h-200zM416,235h32v1h-32zM64,236h32v1h-32zM158,236h196v1h-196zM416,236h32v1h-32zM64,237h32v1h-32zM159,237h194v1h-194zM416,237h32v1h-32zM64,238h32v1h-32zM161,238h191v1h-191zM416,238h32v1h-32zM64,239h32v1h-32zM163,239h186v1h-186zM416,239h32v1h-32zM64,240h32v1h-32zM416,240h32v1h-32zM64,241h32v1h-32zM416,241h32v1h-32zM64,242h32v1h-32zM416,242h32v1h-32zM64,243h32v1h-32zM416,243h32v1h-32zM64,244h32v1h-32zM416,244h32v1h-32zM64,245h32v1h-32zM416,245h32v1h-32zM64,246h32v1h-32zM416,246h32v1h-32zM64,247h32v1h-32zM416,247h32v1h-32zM64,248h32v1h-32zM416,248h32v1h-32zM64,249h32v1h-32zM416,249h32v1h-32zM64,250h32v1h-32zM416,250h32v1h-32zM64,251h32v1h-32zM416,251h32v1h-32zM64,252h32v1h-32zM416,252h32v1h-32zM64,253h32v1h-32zM416,253h32v1h-32zM64,254h32v1h-32zM416,254h32v1h-32zM64,255h32v1h-32zM416,255h32v1h-32zM64,256h32v1h-32zM416,256h32v1h-32zM64,257h32v1h-32zM416,257h32v1h-32zM64,258h32v1h-32zM416,258h32v1h-32zM64,259h32v1h-32zM416,259h32v1h-32zM64,260h32v1h-32zM416,260h32v1h-32zM64,261h32v1h-32zM416,261h32v1h-32zM64,262h32v1h-32zM416,262h32v1h-32zM64,263h32v1h-32zM416,263h32v1h-32zM64,264h32v1h-32zM416,264h32v1h-32zM64,265h32v1h-32zM416,265h32v1h-32zM64,266h32v1h-32zM416,266h32v1h-32zM64,267h32v1h-32zM416,267h32v1h-32zM64,268h32v1h-32zM416,268h32v1h-32zM64,269h32v1h-32zM416,269h32v1h-32zM64,270h32v1h-32zM416,270h32v1h-32zM64,271h32v1h-32zM416,271h32v1h-32zM64,272h32v1h-32zM416,272h32v1h-32zM64,273h32v1h-32zM416,273h32v1h-32zM64,274h32v1h-32zM416,274h32v1h-32zM64,275h32v1h-32zM416,275h32v1h-32zM64,276h32v1h-32zM416,276h32v1h-32zM64,277h32v1h-32zM416,277h32v1h-32zM64,278h32v1h-32zM416,278h32v1h-32zM64,279h32v1h-32zM416,279h32v1h-32zM64,280h32v1h-32zM416,280h32v1h-32zM64,281h32v1h-32zM416,281h32v1h-32zM64,282h32v1h-32zM416,282h32v1h-32zM64,283h32v1h-32zM416,283h32v1h-32zM64,284h32v1h-32zM416,284h32v1h-32zM64,285h32v1h-32zM416,285h32v1h-32zM64,286h32v1h-32zM416,286h32v1h-32zM64,287h32v1h-32zM416,287h32v1h-32zM64,288h32v1h-32zM163,288h186v1h-186zM416,288h32v1h-32zM64,289h32v1h-32zM160,289h192v1h-192zM416,289h32v1h-32zM64,290h32v1h-32zM159,290h194v1h-194zM416,290h32v1h-32zM64,291h32v1h-32zM157,291h197v1h-197zM416,291h32v1h-32zM64,292h32v1h-32zM156,292h200v1h-200zM416,292h32v1h-32zM64,293h32v1h-32zM155,293h201v1h-201zM416,293h32v1h-32zM64,294h32v1h-32zM155,294h202v1h-202zM416,294h32v1h-32zM64,295h32v1h-32zM154,295h204v1h-204zM416,295h32v1h-32zM64,296h32v1h-32zM153,296h205v1h-205zM416,296h32v1h-32zM64,297h32v1h-32zM153,297h206v1h-206zM416,297h32v1h-32zM64,298h32v1h-32zM153,298h206v1h-206zM416,298h32v1h-32zM64,299h32v1h-32zM152,299h208v1h-208zM416,299h32v1h-32zM64,300h32v1h-32zM152,300h208v1h-208zM416,300h32v1h-32zM64,301h32v1h-32zM152,301h208v1h-208zM416,301h32v1h-32zM64,302h32v1h-32zM152,302h208v1h-208zM416,302h32v1h-32zM64,303h32v1h-32zM152,303h208v1h-208zM416,303h32v1h-32zM64,304h32v1h-32zM152,304h208v1h-208zM416,304h32v1h-32zM64,305h32v1h-32zM152,305h208v1h-208zM416,305h32v1h-32zM64,306h32v1h-32zM152,306h208v1h-208zM416,306h32v1h-32zM64,307h32v1h-32zM152,307h208v1h-208zM416,307h32v1h-32zM64,308h32v1h-32zM152,308h208v1h-208zM416,308h32v1h-32zM64,309h32v1h-32zM153,309h206v1h-206zM416,309h32v1h-32zM64,310h32v1h-32zM153,310h206v1h-206zM416,310h32v1h-32zM64,311h32v1h-32zM153,311h206v1h-206zM416,311h32v1h-32zM64,312h32v1h-32zM154,312h204v1h-204zM416,312h32v1h-32zM64,313h32v1h-32zM155,313h202v1h-202zM416,313h32v1h-32zM64,314h32v1h-32zM156,314h200v1h-200zM416,314h32v1h-32zM64,315h32v1h-32zM156,315h200v1h-200zM416,315h32v1h-32zM64,316h32v1h-32zM158,316h196v1h-196zM416,316h32v1h-32zM64,317h32v1h-32zM159,317h194v1h-194zM416,317h32v1h-32zM64,318h32v1h-32zM161,318h191v1h-191zM416,318h32v1h-32zM64,319h32v1h-32zM163,319h186v1h-186zM416,319h32v1h-32zM64,320h32v1h-32zM416,320h32v1h-32zM64,321h32v1h-32zM416,321h32v1h-32zM64,322h32v1h-32zM416,322h32v1h-32zM64,323h32v1h-32zM416,323h32v1h-32zM64,324h32v1h-32zM416,324h32v1h-32zM64,325h32v1h-32zM416,325h32v1h-32zM64,326h32v1h-32zM416,326h32v1h-32zM64,327h32v1h-32zM416,327h32v1h-32zM64,328h32v1h-32zM416,328h32v1h-32zM64,329h32v1h-32zM416,329h32v1h-32zM64,330h32v1h-32zM416,330h32v1h-32zM64,331h32v1h-32zM416,331h32v1h-32zM64,332h32v1h-32zM416,332h32v1h-32zM64,333h32v1h-32zM416,333h32v1h-32zM64,334h32v1h-32zM416,334h32v1h-32zM64,335h32v1h-32zM416,335h32v1h-32zM64,336h32v1h-32zM416,336h32v1h-32zM64,337h32v1h-32zM416,337h32v1h-32zM64,338h32v1h-32zM416,338h32v1h-32zM64,339h32v1h-32zM416,339h32v1h-32zM64,340h32v1h-32zM416,340h32v1h-32zM64,341h32v1h-32zM416,341h32v1h-32zM64,342h32v1h-32zM416,342h32v1h-32zM64,343h32v1h-32zM416,343h32v1h-32zM64,344h32v1h-32zM416,344h32v1h-32zM64,345h32v1h-32zM416,345h32v1h-32zM64,346h32v1h-32zM416,346h32v1h-32zM64,347h32v1h-32zM416,347h32v1h-32zM64,348h32v1h-32zM416,348h32v1h-32zM64,349h32v1h-32zM416,349h32v1h-32zM64,350h32v1h-32zM416,350h32v1h-32zM64,351h32v1h-32zM416,351h32v1h-32zM64,352h32v1h-32zM416,352h32v1h-32zM64,353h32v1h-32zM416,353h32v1h-32zM64,354h32v1h-32zM416,354h32v1h-32zM64,355h32v1h-32zM416,355h32v1h-32zM64,356h32v1h-32zM416,356h32v1h-32zM64,357h32v1h-32zM416,357h32v1h-32zM64,358h32v1h-32zM416,358h32v1h-32zM64,359h32v1h-32zM416,359h32v1h-32zM64,360h32v1h-32zM416,360h32v1h-32zM64,361h32v1h-32zM416,361h32v1h-32zM64,362h32v1h-32zM416,362h32v1h-32zM64,363h32v1h-32zM416,363h32v1h-32zM64,364h32v1h-32zM416,364h32v1h-32zM64,365h32v1h-32zM416,365h32v1h-32zM64,366h32v1h-32zM416,366h32v1h-32zM64,367h32v1h-32zM416,367h32v1h-32zM64,368h32v1h-32zM416,368h32v1h-32zM64,369h32v1h-32zM416,369h32v1h-32zM64,370h32v1h-32zM416,370h32v1h-32zM64,371h32v1h-32zM416,371h32v1h-32zM64,372h32v1h-32zM416,372h32v1h-32zM64,373h32v1h-32zM416,373h32v1h-32zM64,374h32v1h-32zM416,374h32v1h-32zM64,375h32v1h-32zM416,375h32v1h-32zM64,376h32v1h-32zM416,376h32v1h-32zM64,377h32v1h-32zM416,377h32v1h-32zM64,378h32v1h-32zM416,378h32v1h-32zM64,379h32v1h-32zM416,379h32v1h-32zM64,380h32v1h-32zM416,380h32v1h-32zM64,381h32v1h-32zM416,381h32v1h-32zM64,382h32v1h-32zM416,382h32v1h-32zM64,383h32v1h-32zM416,383h32v1h-32zM64,384h32v1h-32zM416,384h32v1h-32zM64,385h32v1h-32zM416,385h32v1h-32zM64,386h32v1h-32zM416,386h32v1h-32zM64,387h32v1h-32zM416,387h32v1h-32zM64,388h32v1h-32zM416,388h32v1h-32zM64,389h32v1h-32zM416,389h32v1h-32zM64,390h32v1h-32zM416,390h32v1h-32zM64,391h32v1h-32zM165,391h6v1h-6zM341,391h6v1h-6zM416,391h32v1h-32zM64,392h32v1h-32zM161,392h14v1h-14zM337,392h14v1h-14zM416,392h32v1h-32zM64,393h32v1h-32zM160,393h16v1h-16zM336,393h16v1h-16zM416,393h32v1h-32zM64,394h32v1h-32zM158,394h20v1h-20zM334,394h20v1h-20zM416,394h32v1h-32zM64,395h32v1h-32zM157,395h22v1h-22zM333,395h22v1h-22zM416,395h32v1h-32zM64,396h32v1h-32zM156,396h24v1h-24zM332,396h24v1h-24zM416,396h32v1h-32zM64,397h32v1h-32zM155,397h26v1h-26zM331,397h26v1h-26zM416,397h32v1h-32zM64,398h32v1h-32zM154,398h28v1h-28zM330,398h28v1h-28zM416,398h32v1h-32zM64,399h32v1h-32zM153,399h30v1h-30zM329,399h30v1h-30zM416,399h32v1h-32zM64,400h32v1h-32zM152,400h32v1h-32zM328,400h32v1h-32zM416,400h32v1h-32zM64,401h32v1h-32zM151,401h34v1h-34zM327,401h34v1h-34zM416,401h32v1h-32zM64,402h32v1h-32zM150,402h36v1h-36zM326,402h36v1h-36zM416,402h32v1h-32zM64,403h32v1h-32zM149,403h38v1h-38zM325,403h38v1h-38zM416,403h32v1h-32zM64,404h32v1h-32zM148,404h40v1h-40zM324,404h40v1h-40zM416,404h32v1h-32zM64,405h32v1h-32zM147,405h42v1h-42zM323,405h42v1h-42zM416,405h32v1h-32zM64,406h32v1h-32zM145,406h46v1h-46zM321,406h46v1h-46zM416,406h32v1h-32zM64,407h32v1h-32zM144,407h48v1h-48zM320,407h48v1h-48zM416,407h32v1h-32zM64,408h32v1h-32zM143,408h50v1h-50zM319,408h50v1h-50zM416,408h32v1h-32zM64,409h32v1h-32zM142,409h52v1h-52zM318,409h52v1h-52zM416,409h32v1h-32zM64,410h32v1h-32zM141,410h54v1h-54zM317,410h54v1h-54zM416,410h32v1h-32zM64,411h32v1h-32zM140,411h56v1h-56zM316,411h56v1h-56zM416,411h32v1h-32zM64,412h32v1h-32zM139,412h58v1h-58zM315,412h58v1h-58zM416,412h32v1h-32zM64,413h32v1h-32zM138,413h60v1h-60zM314,413h60v1h-60zM416,413h32v1h-32zM64,414h32v1h-32zM137,414h62v1h-62zM313,414h62v1h-62zM416,414h32v1h-32zM64,415h32v1h-32zM136,415h64v1h-64zM312,415h64v1h-64zM416,415h32v1h-32zM64,416h32v1h-32zM135,416h66v1h-66zM311,416h66v1h-66zM416,416h32v1h-32zM64,417h32v1h-32zM134,417h68v1h-68zM310,417h68v1h-68zM416,417h32v1h-32zM64,418h32v1h-32zM133,418h70v1h-70zM309,418h70v1h-70zM416,418h32v1h-32zM64,419h32v1h-32zM132,419h72v1h-72zM308,419h72v1h-72zM416,419h32v1h-32zM64,420h32v1h-32zM131,420h74v1h-74zM307,420h74v1h-74zM416,420h32v1h-32zM64,421h32v1h-32zM130,421h76v1h-76zM306,421h76v1h-76zM416,421h32v1h-32zM64,422h32v1h-32zM129,422h78v1h-78zM305,422h78v1h-78zM416,422h32v1h-32zM64,423h32v1h-32zM128,423h80v1h-80zM304,423h80v1h-80zM416,423h32v1h-32zM64,424h32v1h-32zM127,424h82v1h-82zM303,424h82v1h-82zM416,424h32v1h-32zM64,425h32v1h-32zM126,425h84v1h-84zM302,425h84v1h-84zM416,425h32v1h-32zM64,426h32v1h-32zM125,426h86v1h-86zM301,426h86v1h-86zM416,426h32v1h-32zM64,427h32v1h-32zM124,427h88v1h-88zM300,427h88v1h-88zM416,427h32v1h-32zM64,428h32v1h-32zM123,428h90v1h-90zM299,428h90v1h-90zM416,428h32v1h-32zM64,429h32v1h-32zM122,429h92v1h-92zM298,429h92v1h-92zM416,429h32v1h-32zM64,430h32v1h-32zM121,430h94v1h-94zM297,430h94v1h-94zM416,430h32v1h-32zM64,431h32v1h-32zM120,431h96v1h-96zM296,431h96v1h-96zM416,431h32v1h-32zM64,432h32v1h-32zM119,432h98v1h-98zM295,432h98v1h-98zM416,432h32v1h-32zM64,433h32v1h-32zM118,433h100v1h-100zM294,433h100v1h-100zM416,433h32v1h-32zM64,434h32v1h-32zM117,434h47v1h-47zM172,434h47v1h-47zM293,434h47v1h-47zM348,434h47v1h-47zM416,434h32v1h-32zM64,435h32v1h-32zM115,435h48v1h-48zM173,435h48v1h-48zM291,435h48v1h-48zM349,435h48v1h-48zM416,435h32v1h-32zM64,436h32v1h-32zM114,436h48v1h-48zM174,436h48v1h-48zM290,436h48v1h-48zM350,436h48v1h-48zM416,436h32v1h-32zM64,437h32v1h-32zM113,437h48v1h-48zM175,437h48v1h-48zM289,437h48v1h-48zM351,437h48v1h-48zM416,437h32v1h-32zM64,438h32v1h-32zM112,438h47v1h-47zM177,438h47v1h-47zM288,438h47v1h-47zM353,438h47v1h-47zM416,438h32v1h-32zM64,439h32v1h-32zM111,439h47v1h-47zM178,439h47v1h-47zM287,439h47v1h-47zM354,439h47v1h-47zM416,439h32v1h-32zM64,440h32v1h-32zM110,440h47v1h-47zM179,440h47v1h-47zM286,440h47v1h-47zM355,440h47v1h-47zM416,440h32v1h-32zM64,441h32v1h-32zM109,441h47v1h-47zM180,441h47v1h-47zM285,441h47v1h-47zM356,441h47v1h-47zM416,441h32v1h-32zM64,442h32v1h-32zM108,442h47v1h-47zM181,442h47v1h-47zM284,442h47v1h-47zM357,442h47v1h-47zM416,442h32v1h-32zM64,443h32v1h-32zM107,443h47v1h-47zM182,443h47v1h-47zM283,443h47v1h-47zM358,443h47v1h-47zM416,443h32v1h-32zM64,444h32v1h-32zM106,444h47v1h-47zM183,444h47v1h-47zM282,444h47v1h-47zM359,444h47v1h-47zM416,444h32v1h-32zM64,445h32v1h-32zM105,445h47v1h-47zM184,445h47v1h-47zM281,445h47v1h-47zM360,445h47v1h-47zM416,445h32v1h-32zM64,446h32v1h-32zM104,446h47v1h-47zM185,446h47v1h-47zM280,446h47v1h-47zM361,446h47v1h-47zM416,446h32v1h-32zM64,447h32v1h-32zM103,447h47v1h-47zM186,447h47v1h-47zM279,447h47v1h-47zM362,447h47v1h-47zM416,447h32v1h-32zM64,448h85v1h-85zM187,448h47v1h-47zM278,448h47v1h-47zM363,448h85v1h-85zM64,449h84v1h-84zM188,449h47v1h-47zM277,449h47v1h-47zM364,449h84v1h-84zM64,450h83v1h-83zM189,450h47v1h-47zM276,450h47v1h-47zM365,450h83v1h-83zM64,451h82v1h-82zM190,451h47v1h-47zM275,451h47v1h-47zM366,451h82v1h-82zM64,452h81v1h-81zM191,452h47v1h-47zM274,452h47v1h-47zM367,452h81v1h-81zM64,453h80v1h-80zM192,453h47v1h-47zM273,453h47v1h-47zM368,453h80v1h-80zM64,454h79v1h-79zM193,454h47v1h-47zM272,454h47v1h-47zM369,454h79v1h-79zM64,455h78v1h-78zM194,455h47v1h-47zM271,455h47v1h-47zM370,455h78v1h-78zM64,456h77v1h-77zM195,456h47v1h-47zM270,456h47v1h-47zM371,456h77v1h-77zM64,457h76v1h-76zM196,457h47v1h-47zM269,457h47v1h-47zM372,457h76v1h-76zM64,458h75v1h-75zM197,458h47v1h-47zM268,458h47v1h-47zM373,458h75v1h-75zM64,459h74v1h-74zM198,459h47v1h-47zM267,459h47v1h-47zM374,459h74v1h-74zM64,460h73v1h-73zM199,460h48v1h-48zM265,460h48v1h-48zM375,460h73v1h-73zM64,461h72v1h-72zM200,461h48v1h-48zM264,461h48v1h-48zM376,461h72v1h-72zM64,462h71v1h-71zM201,462h49v1h-49zM262,462h49v1h-49zM377,462h71v1h-71zM65,463h69v1h-69zM202,463h108v1h-108zM378,463h69v1h-69zM65,464h68v1h-68zM203,464h106v1h-106zM379,464h68v1h-68zM65,465h67v1h-67zM204,465h104v1h-104zM380,465h67v1h-67zM66,466h65v1h-65zM205,466h102v1h-102zM381,466h65v1h-65zM66,467h63v1h-63zM207,467h98v1h-98zM383,467h63v1h-63zM67,468h61v1h-61zM208,468h96v1h-96zM384,468h61v1h-61zM67,469h60v1h-60zM209,469h94v1h-94zM385,469h60v1h-60zM68,470h58v1h-58zM210,470h92v1h-92zM386,470h58v1h-58zM68,471h57v1h-57zM211,471h90v1h-90zM387,471h57v1h-57zM69,472h55v1h-55zM212,472h88v1h-88zM388,472h55v1h-55zM69,473h54v1h-54zM213,473h86v1h-86zM389,473h54v1h-54zM70,474h52v1h-52zM214,474h84v1h-84zM390,474h52v1h-52zM71,475h50v1h-50zM215,475h82v1h-82zM391,475h50v1h-50zM72,476h48v1h-48zM216,476h80v1h-80zM392,476h48v1h-48zM73,477h46v1h-46zM217,477h78v1h-78zM393,477h46v1h-46zM74,478h44v1h-44zM218,478h76v1h-76zM394,478h44v1h-44zM75,479h42v1h-42zM219,479h74v1h-74zM395,479h42v1h-42zM76,480h40v1h-40zM220,480h72v1h-72zM396,480h40v1h-40zM78,481h36v1h-36zM221,481h70v1h-70zM398,481h36v1h-36zM79,482h34v1h-34zM222,482h68v1h-68zM399,482h34v1h-34zM81,483h30v1h-30zM223,483h66v1h-66zM401,483h30v1h-30zM83,484h26v1h-26zM224,484h64v1h-64zM403,484h26v1h-26zM86,485h20v1h-20zM225,485h62v1h-62zM406,485h20v1h-20zM89,486h14v1h-14zM227,486h58v1h-58zM409,486h14v1h-14zM228,487h56v1h-56zM230,488h52v1h-52zM231,489h50v1h-50zM233,490h46v1h-46zM235,491h42v1h-42zM237,492h38v1h-38zM240,493h32v1h-32zM243,494h26v1h-26zM247,495h18v1h-18z"/></svg>