<?xml version="1.0" encoding="UTF-8"?>
<svg xmlns="http://www.w3.org/2000/svg" viewBox="0 0 512 512" width="512" height="512"><path fill="#000" d="M168,42h6v1h-6zM164,43h14v1h-14zM161,44h19v1h-19zM159,45h23v1h-23zM158,46h25v1h-25zM157,47h28v1h-28zM155,48h31v1h-31zM154,49h33v1h-33zM153,50h35v1h-35zM152,51h36v1h-36zM150,52h39v1h-39zM149,53h41v1h-41zM148,54h42v1h-42zM147,55h44v1h-44zM145,56h46v1h-46zM144,57h47v1h-47zM143,58h49v1h-49zM142,59h50v1h-50zM140,60h52v1h-52zM139,61h53v1h-53zM138,62h54v1h-54zM137,63h55v1h-55zM135,64h57v1h-57zM134,65h58v1h-58zM133,66h59v1h-59zM132,67h60v1h-60zM130,68h62v1h-62zM129,69h63v1h-63zM128,70h63v1h-63zM127,71h64v1h-64zM125,72h66v1h-66zM124,73h66v1h-66zM123,74h67v1h-67zM122,75h67v1h-67zM120,76h68v1h-68zM119,77h69v1h-69zM118,78h69v1h-69zM117,79h69v1h-69zM115,80h70v1h-70zM114,81h70v1h-70zM113,82h69v1h-69zM112,83h69v1h-69zM110,84h70v1h-70zM109,85h70v1h-70zM108,86h69v1h-69zM107,87h69v1h-69zM105,88h70v1h-70zM104,89h70v1h-70zM103,90h69v1h-69zM102,91h69v1h-69zM100,92h70v1h-70zM99,93h70v1h-70zM98,94h69v1h-69zM97,95h69v1h-69zM95,96h70v1h-70zM94,97h70v1h-70zM93,98h69v1h-69zM92,99h69v1h-69zM90,100h70v1h-70zM89,101h70v1h-70zM88,102h69v1h-69zM87,103h69v1h-69zM85,104h70v1h-70zM84,105h70v1h-70zM83,106h69v1h-69zM82,107h69v1h-69zM80,108h70v1h-70zM79,109h70v1h-70zM78,110h69v1h-69zM77,111h69v1h-69zM75,112h70v1h-70zM74,113h70v1h-70zM73,114h69v1h-69zM72,115h69v1h-69zM70,116h70v1h-70zM69,117h70v1h-70zM68,118h69v1h-69zM67,119h69v1h-69zM65,120h70v1h-70zM64,121h70v1h-70zM63,122h69v1h-69zM62,123h69v1h-69zM60,124h71v1h-71zM59,125h72v1h-72zM58,126h73v1h-73zM57,127h74v1h-74zM55,128h399v1h-399zM54,129h403v1h-403zM53,130h406v1h-406zM52,131h408v1h-408zM50,132h412v1h-412zM49,133h414v1h-414zM48,134h416v1h-416zM47,135h418v1h-418zM47,136h418v1h-418zM46,137h420v1h-420zM45,138h422v1h-422zM45,139h422v1h-422zM44,140h424v1h-424zM44,141h424v1h-424zM43,142h426v1h-426zM43,143h426v1h-426zM43,144h426v1h-426zM43,145h426v1h-426zM42,146h428v1h-428zM42,147h428v1h-428zM42,148h428v1h-428zM42,149h428v1h-428zM42,150h428v1h-428zM42,151h428v1h-428zM43,152h426v1h-426zM43,153h426v1h-426zM43,154h426v1h-426zM43,155h426v1h-426zM44,156h424v1h-424zM44,157h424v1h-424zM44,158h424v1h-424zM45,159h422v1h-422zM45,160h422v1h-422zM46,161h420v1h-420zM47,162h418v1h-418zM48,163h416v1h-416zM49,164h414v1h-414zM50,165h412v1h-412zM51,166h410v1h-410zM52,167h408v1h-408zM53,168h405v1h-405zM54,169h402v1h-402zM56,170h397v1h-397zM57,171h74v1h-74zM58,172h73v1h-73zM60,173h71v1h-71zM61,174h70v1h-70zM62,175h69v1h-69zM63,176h70v1h-70zM65,177h69v1h-69zM66,178h69v1h-69zM67,179h69v1h-69zM68,180h70v1h-70zM70,181h69v1h-69zM71,182h69v1h-69zM72,183h69v1h-69zM73,184h70v1h-70zM75,185h69v1h-69zM76,186h69v1h-69zM77,187h69v1h-69zM78,188h70v1h-70zM80,189h69v1h-69zM81,190h69v1h-69zM82,191h69v1h-69zM83,192h70v1h-70zM85,193h69v1h-69zM86,194h69v1h-69zM87,195h69v1h-69zM88,196h70v1h-70zM90,197h69v1h-69zM91,198h69v1h-69zM92,199h69v1h-69zM93,200h70v1h-70zM95,201h69v1h-69zM96,202h69v1h-69zM97,203h69v1h-69zM98,204h70v1h-70zM100,205h69v1h-69zM101,206h69v1h-69zM102,207h69v1h-69zM103,208h70v1h-70zM105,209h69v1h-69zM106,210h69v1h-69zM107,211h69v1h-69zM108,212h70v1h-70zM110,213h69v1h-69zM111,214h69v1h-69zM112,215h69v1h-69zM113,216h70v1h-70zM115,217h69v1h-69zM116,218h69v1h-69zM117,219h69v1h-69zM118,220h69v1h-69zM120,221h68v1h-68zM121,222h68v1h-68zM122,223h67v1h-67zM123,224h67v1h-67zM125,225h65v1h-65zM126,226h65v1h-65zM127,227h64v1h-64zM128,228h63v1h-63zM130,229h62v1h-62zM131,230h61v1h-61zM132,231h60v1h-60zM133,232h59v1h-59zM135,233h57v1h-57zM136,234h56v1h-56zM137,235h55v1h-55zM138,236h54v1h-54zM140,237h52v1h-52zM141,238h51v1h-51zM142,239h50v1h-50zM143,240h49v1h-49zM145,241h46v1h-46zM146,242h45v1h-45zM147,243h43v1h-43zM148,244h42v1h-42zM150,245h39v1h-39zM151,246h38v1h-38zM152,247h36v1h-36zM153,248h34v1h-34zM154,249h32v1h-32zM156,250h29v1h-29zM157,251h27v1h-27zM158,252h25v1h-25zM160,253h21v1h-21zM162,254h17v1h-17zM165,255h12v1h-12zM335,256h12v1h-12zM333,257h17v1h-17zM331,258h21v1h-21zM329,259h25v1h-25zM328,260h27v1h-27zM327,261h29v1h-29zM326,262h32v1h-32zM325,263h34v1h-34zM324,264h36v1h-36zM323,265h38v1h-38zM323,266h40v1h-40zM322,267h42v1h-42zM322,268h43v1h-43zM321,269h45v1h-45zM321,270h47v1h-47zM320,271h49v1h-49zM320,272h50v1h-50zM320,273h51v1h-51zM320,274h53v1h-53zM320,275h54v1h-54zM320,276h55v1h-55zM320,277h56v1h-56zM320,278h58v1h-58zM320,279h59v1h-59zM320,280h60v1h-60zM320,281h61v1h-61zM320,282h63v1h-63zM321,283h63v1h-63zM321,284h64v1h-64zM321,285h65v1h-65zM322,286h66v1h-66zM322,287h67v1h-67zM323,288h67v1h-67zM323,289h68v1h-68zM324,290h69v1h-69zM325,291h69v1h-69zM326,292h69v1h-69zM327,293h69v1h-69zM328,294h70v1h-70zM329,295h70v1h-70zM331,296h69v1h-69zM332,297h69v1h-69zM333,298h70v1h-70zM334,299h70v1h-70zM336,300h69v1h-69zM337,301h69v1h-69zM338,302h70v1h-70zM339,303h70v1h-70zM341,304h69v1h-69zM342,305h69v1h-69zM343,306h70v1h-70zM344,307h70v1h-70zM346,308h69v1h-69zM347,309h69v1h-69zM348,310h70v1h-70zM349,311h70v1h-70zM351,312h69v1h-69zM352,313h69v1h-69zM353,314h70v1h-70zM354,315h70v1h-70zM356,316h69v1h-69zM357,317h69v1h-69zM358,318h70v1h-70zM359,319h70v1h-70zM361,320h69v1h-69zM362,321h69v1h-69zM363,322h70v1h-70zM364,323h70v1h-70zM366,324h69v1h-69zM367,325h69v1h-69zM368,326h70v1h-70zM369,327h70v1h-70zM371,328h69v1h-69zM372,329h69v1h-69zM373,330h70v1h-70zM374,331h70v1h-70zM376,332h69v1h-69zM377,333h69v1h-69zM378,334h70v1h-70zM379,335h70v1h-70zM381,336h69v1h-69zM381,337h70v1h-70zM381,338h72v1h-72zM381,339h73v1h-73zM381,340h74v1h-74zM59,341h397v1h-397zM56,342h402v1h-402zM54,343h405v1h-405zM52,344h408v1h-408zM51,345h410v1h-410zM50,346h412v1h-412zM48,347h415v1h-415zM48,348h416v1h-416zM47,349h418v1h-418zM46,350h420v1h-420zM45,351h422v1h-422zM45,352h422v1h-422zM44,353h424v1h-424zM44,354h424v1h-424zM44,355h424v1h-424zM43,356h426v1h-426zM43,357h426v1h-426zM43,358h426v1h-426zM43,359h426v1h-426zM42,360h428v1h-428zM42,361h428v1h-428zM42,362h428v1h-428zM42,363h428v1h-428zM42,364h428v1h-428zM42,365h428v1h-428zM43,366h426v1h-426zM43,367h426v1h-426zM43,368h426v1h-426zM43,369h426v1h-426zM44,370h424v1h-424zM44,371h424v1h-424zM45,372h422v1h-422zM45,373h422v1h-422zM46,374h420v1h-420zM47,375h418v1h-418zM47,376h418v1h-418zM48,377h416v1h-416zM49,378h414v1h-414zM50,379h412v1h-412zM52,380h408v1h-408zM53,381h406v1h-406zM55,382h403v1h-403zM58,383h399v1h-399zM381,384h74v1h-74zM381,385h73v1h-73zM381,386h72v1h-72zM381,387h71v1h-71zM381,388h69v1h-69zM380,389h69v1h-69zM379,390h69v1h-69zM377,391h70v1h-70zM376,392h69v1h-69zM375,393h69v1h-69zM374,394h69v1h-69zM372,395h70v1h-70zM371,396h69v1h-69zM370,397h69v1h-69zM369,398h69v1h-69zM367,399h70v1h-70zM366,400h69v1h-69zM365,401h69v1h-69zM364,402h69v1h-69zM362,403h70v1h-70zM361,404h69v1h-69zM360,405h69v1h-69zM359,406h69v1h-69zM357,407h70v1h-70zM356,408h69v1h-69zM355,409h69v1h-69zM354,410h69v1h-69zM352,411h70v1h-70zM351,412h69v1h-69zM350,413h69v1h-69zM349,414h69v1h-69zM347,415h70v1h-70zM346,416h69v1h-69zM345,417h69v1h-69zM344,418h69v1h-69zM342,419h70v1h-70zM341,420h69v1h-69zM340,421h69v1h-69zM339,422h69v1h-69zM337,423h70v1h-70zM336,424h69v1h-69zM335,425h69v1h-69zM334,426h69v1h-69zM332,427h70v1h-70zM331,428h69v1h-69zM330,429h69v1h-69zM329,430h69v1h-69zM327,431h70v1h-70zM326,432h69v1h-69zM325,433h69v1h-69zM324,434h69v1h-69zM324,435h68v1h-68zM323,436h67v1h-67zM322,437h67v1h-67zM322,438h66v1h-66zM321,439h66v1h-66zM321,440h64v1h-64zM321,441h63v1h-63zM320,442h63v1h-63zM320,443h62v1h-62zM320,444h60v1h-60zM320,445h59v1h-59zM320,446h58v1h-58zM320,447h57v1h-57zM320,448h55v1h-55zM320,449h54v1h-54zM320,450h53v1h-53zM320,451h52v1h-52zM320,452h50v1h-50zM320,453h49v1h-49zM321,454h47v1h-47zM321,455h46v1h-46zM321,456h44v1h-44zM322,457h42v1h-42zM322,458h41v1h-41zM323,459h39v1h-39zM324,460h36v1h-36zM324,461h35v1h-35zM325,462h33v1h-33zM326,463h31v1h-31zM327,464h28v1h-28zM329,465h25v1h-25zM330,466h23v1h-23zM332,467h19v1h-19zM334,468h14v1h-14zM338,469h6v1h-6z"/></svg>