<?xml version="1.0" encoding="UTF-8"?>
<svg xmlns="http://www.w3.org/2000/svg" viewBox="0 0 512 512" width="512" height="512"><path fill="#000" d="M186,16h28v1h-28zM179,17h42v1h-42zM174,18h52v1h-52zM170,19h60v1h-60zM166,20h68v1h-68zM163,21h74v1h-74zM160,22h80v1h-80zM157,23h86v1h-86zM155,24h90v1h-90zM152,25h96v1h-96zM150,26h100v1h-100zM148,27h104v1h-104zM146,28h108v1h-108zM144,29h112v1h-112zM142,30h116v1h-116zM140,31h120v1h-120zM139,32h123v1h-123zM137,33h126v1h-126zM135,34h130v1h-130zM134,35h132v1h-132zM132,36h136v1h-136zM131,37h138v1h-138zM129,38h142v1h-142zM128,39h144v1h-144zM127,40h146v1h-146zM126,41h149v1h-149zM124,42h152v1h-152zM123,43h154v1h-154zM122,44h156v1h-156zM121,45h158v1h-158zM120,46h160v1h-160zM118,47h164v1h-164zM117,48h79v1h-79zM204,48h79v1h-79zM419,48h10v1h-10zM116,49h70v1h-70zM214,49h70v1h-70zM416,49h16v1h-16zM115,50h66v1h-66zM219,50h66v1h-66zM415,50h18v1h-18zM114,51h63v1h-63zM223,51h63v1h-63zM413,51h22v1h-22zM113,52h60v1h-60zM227,52h60v1h-60zM412,52h24v1h-24zM112,53h58v1h-58zM230,53h58v1h-58zM411,53h26v1h-26zM111,54h57v1h-57zM232,54h57v1h-57zM411,54h27v1h-27zM111,55h54v1h-54zM235,55h54v1h-54zM410,55h29v1h-29zM110,56h53v1h-53zM237,56h53v1h-53zM409,56h31v1h-31zM109,57h52v1h-52zM239,57h52v1h-52zM409,57h32v1h-32zM108,58h51v1h-51zM241,58h51v1h-51zM409,58h33v1h-33zM107,59h50v1h-50zM243,59h50v1h-50zM408,59h35v1h-35zM106,60h49v1h-49zM244,60h50v1h-50zM408,60h36v1h-36zM105,61h49v1h-49zM246,61h49v1h-49zM408,61h37v1h-37zM105,62h47v1h-47zM248,62h47v1h-47zM408,62h38v1h-38zM104,63h47v1h-47zM249,63h47v1h-47zM408,63h39v1h-39zM103,64h46v1h-46zM251,64h46v1h-46zM408,64h40v1h-40zM102,65h46v1h-46zM252,65h46v1h-46zM408,65h41v1h-41zM102,66h45v1h-45zM253,66h45v1h-45zM408,66h42v1h-42zM101,67h44v1h-44zM255,67h44v1h-44zM408,67h43v1h-43zM100,68h44v1h-44zM256,68h44v1h-44zM408,68h44v1h-44zM100,69h43v1h-43zM257,69h43v1h-43zM409,69h44v1h-44zM99,70h43v1h-43zM258,70h43v1h-43zM409,70h45v1h-45zM98,71h43v1h-43zM259,71h43v1h-43zM409,71h46v1h-46zM98,72h42v1h-42zM189,72h22v1h-22zM260,72h42v1h-42zM410,72h46v1h-46zM97,73h42v1h-42zM185,73h30v1h-30zM261,73h42v1h-42zM411,73h46v1h-46zM97,74h41v1h-41zM181,74h38v1h-38zM262,74h41v1h-41zM411,74h47v1h-47zM96,75h41v1h-41zM178,75h44v1h-44zM263,75h41v1h-41zM412,75h47v1h-47zM95,76h41v1h-41zM175,76h50v1h-50zM264,76h41v1h-41zM412,76h48v1h-48zM95,77h40v1h-40zM173,77h54v1h-54zM265,77h40v1h-40zM412,77h49v1h-49zM94,78h40v1h-40zM171,78h58v1h-58zM266,78h40v1h-40zM412,78h50v1h-50zM94,79h39v1h-39zM169,79h62v1h-62zM267,79h39v1h-39zM412,79h51v1h-51zM93,80h39v1h-39zM167,80h66v1h-66zM268,80h39v1h-39zM347,80h117v1h-117zM93,81h38v1h-38zM166,81h68v1h-68zM269,81h38v1h-38zM344,81h121v1h-121zM92,82h39v1h-39zM164,82h72v1h-72zM269,82h39v1h-39zM343,82h123v1h-123zM92,83h38v1h-38zM163,83h74v1h-74zM270,83h38v1h-38zM341,83h126v1h-126zM91,84h38v1h-38zM161,84h78v1h-78zM271,84h38v1h-38zM340,84h128v1h-128zM91,85h37v1h-37zM160,85h80v1h-80zM272,85h37v1h-37zM339,85h130v1h-130zM90,86h38v1h-38zM159,86h82v1h-82zM272,86h38v1h-38zM339,86h130v1h-130zM90,87h37v1h-37zM158,87h84v1h-84zM273,87h37v1h-37zM338,87h132v1h-132zM89,88h37v1h-37zM157,88h86v1h-86zM274,88h37v1h-37zM337,88h134v1h-134zM89,89h37v1h-37zM156,89h88v1h-88zM274,89h37v1h-37zM337,89h134v1h-134zM89,90h36v1h-36zM154,90h92v1h-92zM275,90h36v1h-36zM337,90h134v1h-134zM88,91h37v1h-37zM154,91h92v1h-92zM276,91h36v1h-36zM336,91h136v1h-136zM88,92h36v1h-36zM153,92h94v1h-94zM276,92h36v1h-36zM336,92h136v1h-136zM87,93h36v1h-36zM152,93h96v1h-96zM277,93h36v1h-36zM336,93h136v1h-136zM87,94h36v1h-36zM151,94h98v1h-98zM277,94h36v1h-36zM336,94h136v1h-136zM87,95h35v1h-35zM150,95h100v1h-100zM278,95h35v1h-35zM336,95h136v1h-136zM86,96h36v1h-36zM149,96h102v1h-102zM278,96h36v1h-36zM336,96h136v1h-136zM86,97h35v1h-35zM148,97h103v1h-103zM279,97h35v1h-35zM336,97h136v1h-136zM86,98h35v1h-35zM148,98h104v1h-104zM279,98h35v1h-35zM336,98h136v1h-136zM85,99h35v1h-35zM147,99h106v1h-106zM280,99h35v1h-35zM336,99h136v1h-136zM85,100h35v1h-35zM146,100h108v1h-108zM280,100h35v1h-35zM336,100h136v1h-136zM85,101h34v1h-34zM146,101h108v1h-108zM281,101h34v1h-34zM337,101h134v1h-134zM84,102h35v1h-35zM145,102h110v1h-110zM281,102h35v1h-35zM337,102h134v1h-134zM84,103h35v1h-35zM144,103h112v1h-112zM281,103h35v1h-35zM337,103h134v1h-134zM84,104h34v1h-34zM144,104h112v1h-112zM282,104h34v1h-34zM338,104h132v1h-132zM84,105h34v1h-34zM143,105h49v1h-49zM208,105h49v1h-49zM282,105h34v1h-34zM339,105h130v1h-130zM83,106h34v1h-34zM143,106h46v1h-46zM211,106h46v1h-46zM283,106h34v1h-34zM340,106h129v1h-129zM83,107h34v1h-34zM142,107h44v1h-44zM214,107h44v1h-44zM283,107h34v1h-34zM340,107h128v1h-128zM83,108h34v1h-34zM142,108h42v1h-42zM216,108h42v1h-42zM283,108h34v1h-34zM342,108h125v1h-125zM83,109h33v1h-33zM141,109h42v1h-42zM217,109h42v1h-42zM284,109h33v1h-33zM343,109h123v1h-123zM82,110h34v1h-34zM141,110h40v1h-40zM219,110h40v1h-40zM284,110h34v1h-34zM345,110h120v1h-120zM82,111h34v1h-34zM140,111h40v1h-40zM220,111h40v1h-40zM284,111h34v1h-34zM347,111h117v1h-117zM82,112h34v1h-34zM140,112h39v1h-39zM221,112h39v1h-39zM284,112h34v1h-34zM412,112h51v1h-51zM82,113h33v1h-33zM140,113h38v1h-38zM222,113h38v1h-38zM285,113h33v1h-33zM412,113h50v1h-50zM82,114h33v1h-33zM139,114h38v1h-38zM223,114h38v1h-38zM285,114h33v1h-33zM412,114h49v1h-49zM81,115h34v1h-34zM139,115h37v1h-37zM224,115h37v1h-37zM285,115h34v1h-34zM412,115h48v1h-48zM81,116h34v1h-34zM139,116h36v1h-36zM225,116h36v1h-36zM285,116h34v1h-34zM412,116h47v1h-47zM81,117h33v1h-33zM138,117h36v1h-36zM226,117h36v1h-36zM286,117h33v1h-33zM411,117h47v1h-47zM81,118h33v1h-33zM138,118h36v1h-36zM226,118h36v1h-36zM286,118h33v1h-33zM411,118h46v1h-46zM81,119h33v1h-33zM138,119h35v1h-35zM227,119h35v1h-35zM286,119h33v1h-33zM410,119h46v1h-46zM81,120h33v1h-33zM138,120h34v1h-34zM228,120h34v1h-34zM286,120h33v1h-33zM409,120h46v1h-46zM81,121h33v1h-33zM137,121h35v1h-35zM228,121h35v1h-35zM286,121h33v1h-33zM409,121h45v1h-45zM80,122h33v1h-33zM137,122h34v1h-34zM229,122h34v1h-34zM287,122h33v1h-33zM409,122h44v1h-44zM80,123h33v1h-33zM137,123h34v1h-34zM229,123h34v1h-34zM287,123h33v1h-33zM408,123h44v1h-44zM80,124h33v1h-33zM137,124h34v1h-34zM229,124h34v1h-34zM287,124h33v1h-33zM408,124h43v1h-43zM80,125h33v1h-33zM136,125h34v1h-34zM230,125h34v1h-34zM287,125h33v1h-33zM408,125h42v1h-42zM80,126h33v1h-33zM136,126h34v1h-34zM230,126h34v1h-34zM287,126h33v1h-33zM408,126h41v1h-41zM80,127h33v1h-33zM136,127h34v1h-34zM230,127h34v1h-34zM287,127h33v1h-33zM408,127h40v1h-40zM80,128h33v1h-33zM136,128h33v1h-33zM231,128h33v1h-33zM287,128h33v1h-33zM408,128h39v1h-39zM80,129h33v1h-33zM136,129h33v1h-33zM231,129h33v1h-33zM287,129h33v1h-33zM408,129h38v1h-38zM80,130h33v1h-33zM136,130h33v1h-33zM231,130h33v1h-33zM287,130h33v1h-33zM408,130h37v1h-37zM80,131h32v1h-32zM136,131h33v1h-33zM231,131h33v1h-33zM287,131h33v1h-33zM408,131h36v1h-36zM80,132h32v1h-32zM136,132h33v1h-33zM231,132h33v1h-33zM288,132h32v1h-32zM408,132h35v1h-35zM80,133h32v1h-32zM136,133h33v1h-33zM231,133h33v1h-33zM288,133h32v1h-32zM409,133h33v1h-33zM80,134h32v1h-32zM136,134h32v1h-32zM232,134h32v1h-32zM288,134h32v1h-32zM409,134h32v1h-32zM80,135h32v1h-32zM136,135h32v1h-32zM232,135h32v1h-32zM288,135h32v1h-32zM409,135h31v1h-31zM80,136h32v1h-32zM136,136h32v1h-32zM232,136h32v1h-32zM288,136h32v1h-32zM410,136h29v1h-29zM80,137h32v1h-32zM136,137h32v1h-32zM232,137h32v1h-32zM288,137h32v1h-32zM411,137h27v1h-27zM80,138h32v1h-32zM136,138h32v1h-32zM232,138h32v1h-32zM288,138h32v1h-32zM411,138h26v1h-26zM80,139h32v1h-32zM136,139h32v1h-32zM232,139h32v1h-32zM288,139h32v1h-32zM412,139h24v1h-24zM80,140h32v1h-32zM136,140h32v1h-32zM232,140h32v1h-32zM288,140h32v1h-32zM413,140h22v1h-22zM81,141h30v1h-30zM136,141h32v1h-32zM232,141h32v1h-32zM289,141h30v1h-30zM415,141h18v1h-18zM81,142h30v1h-30zM136,142h32v1h-32zM232,142h32v1h-32zM289,142h30v1h-30zM416,142h16v1h-16zM81,143h30v1h-30zM136,143h32v1h-32zM232,143h32v1h-32zM289,143h30v1h-30zM419,143h10v1h-10zM82,144h28v1h-28zM136,144h32v1h-32zM232,144h32v1h-32zM290,144h28v1h-28zM83,145h26v1h-26zM136,145h32v1h-32zM232,145h32v1h-32zM291,145h26v1h-26zM84,146h24v1h-24zM136,146h32v1h-32zM232,146h32v1h-32zM292,146h24v1h-24zM84,147h24v1h-24zM136,147h32v1h-32zM232,147h32v1h-32zM292,147h24v1h-24zM86,148h20v1h-20zM136,148h32v1h-32zM232,148h32v1h-32zM294,148h20v1h-20zM87,149h18v1h-18zM136,149h32v1h-32zM232,149h32v1h-32zM295,149h18v1h-18zM89,150h15v1h-15zM136,150h32v1h-32zM232,150h32v1h-32zM297,150h15v1h-15zM91,151h10v1h-10zM136,151h32v1h-32zM232,151h32v1h-32zM299,151h10v1h-10zM136,152h32v1h-32zM232,152h32v1h-32zM136,153h32v1h-32zM232,153h32v1h-32zM136,154h32v1h-32zM232,154h32v1h-32zM136,155h32v1h-32zM232,155h32v1h-32zM136,156h32v1h-32zM232,156h32v1h-32zM136,157h32v1h-32zM232,157h32v1h-32zM136,158h32v1h-32zM232,158h32v1h-32zM136,159h32v1h-32zM232,159h32v1h-32zM136,160h32v1h-32zM232,160h32v1h-32zM136,161h32v1h-32zM232,161h32v1h-32zM136,162h32v1h-32zM232,162h32v1h-32zM136,163h32v1h-32zM232,163h32v1h-32zM136,164h32v1h-32zM232,164h32v1h-32zM136,165h32v1h-32zM232,165h32v1h-32zM136,166h32v1h-32zM232,166h32v1h-32zM136,167h32v1h-32zM232,167h32v1h-32zM136,168h32v1h-32zM232,168h32v1h-32zM136,169h32v1h-32zM232,169h32v1h-32zM136,170h32v1h-32zM232,170h32v1h-32zM136,171h32v1h-32zM232,171h32v1h-32zM136,172h32v1h-32zM232,172h32v1h-32zM136,173h32v1h-32zM232,173h32v1h-32zM136,174h32v1h-32zM232,174h32v1h-32zM136,175h32v1h-32zM232,175h32v1h-32zM136,176h32v1h-32zM232,176h32v1h-32zM136,177h32v1h-32zM232,177h32v1h-32zM136,178h32v1h-32zM232,178h32v1h-32zM136,179h32v1h-32zM232,179h32v1h-32zM136,180h32v1h-32zM232,180h32v1h-32zM136,181h32v1h-32zM232,181h32v1h-32zM136,182h32v1h-32zM232,182h32v1h-32zM136,183h32v1h-32zM232,183h32v1h-32zM136,184h32v1h-32zM232,184h32v1h-32zM136,185h32v1h-32zM232,185h32v1h-32zM136,186h32v1h-32zM232,186h32v1h-32zM136,187h32v1h-32zM232,187h32v1h-32zM136,188h32v1h-32zM232,188h32v1h-32zM136,189h32v1h-32zM232,189h32v1h-32zM136,190h32v1h-32zM232,190h32v1h-32zM136,191h32v1h-32zM232,191h32v1h-32zM136,192h32v1h-32zM232,192h32v1h-32zM136,193h32v1h-32zM232,193h32v1h-32zM136,194h32v1h-32zM232,194h32v1h-32zM136,195h32v1h-32zM232,195h32v1h-32zM136,196h32v1h-32zM232,196h32v1h-32zM136,197h32v1h-32zM232,197h32v1h-32zM136,198h32v1h-32zM232,198h32v1h-32zM136,199h32v1h-32zM232,199h32v1h-32zM136,200h32v1h-32zM232,200h32v1h-32zM136,201h32v1h-32zM232,201h32v1h-32zM136,202h32v1h-32zM232,202h32v1h-32zM136,203h32v1h-32zM232,203h32v1h-32zM136,204h32v1h-32zM232,204h32v1h-32zM136,205h32v1h-32zM232,205h32v1h-32zM136,206h32v1h-32zM232,206h32v1h-32zM136,207h32v1h-32zM232,207h32v1h-32zM136,208h32v1h-32zM232,208h32v1h-32zM136,209h32v1h-32zM232,209h32v1h-32zM136,210h32v1h-32zM232,210h32v1h-32zM136,211h32v1h-32zM232,211h32v1h-32zM136,212h32v1h-32zM232,212h32v1h-32zM136,213h32v1h-32zM232,213h32v1h-32zM136,214h32v1h-32zM232,214h32v1h-32zM136,215h32v1h-32zM232,215h32v1h-32zM136,216h32v1h-32zM232,216h32v1h-32zM136,217h32v1h-32zM232,217h32v1h-32zM136,218h32v1h-32zM232,218h32v1h-32zM136,219h32v1h-32zM232,219h32v1h-32zM136,220h32v1h-32zM232,220h34v1h-34zM136,221h32v1h-32zM232,221h42v1h-42zM136,222h32v1h-32zM232,222h49v1h-49zM136,223h32v1h-32zM232,223h57v1h-57zM136,224h32v1h-32zM232,224h64v1h-64zM136,225h32v1h-32zM232,225h72v1h-72zM136,226h32v1h-32zM232,226h79v1h-79zM136,227h32v1h-32zM232,227h87v1h-87zM136,228h32v1h-32zM232,228h94v1h-94zM136,229h32v1h-32zM232,229h102v1h-102zM136,230h32v1h-32zM232,230h109v1h-109zM136,231h32v1h-32zM232,231h117v1h-117zM136,232h32v1h-32zM232,232h124v1h-124zM136,233h32v1h-32zM232,233h129v1h-129zM136,234h32v1h-32zM232,234h133v1h-133zM136,235h32v1h-32zM232,235h137v1h-137zM136,236h32v1h-32zM232,236h140v1h-140zM136,237h32v1h-32zM232,237h142v1h-142zM136,238h32v1h-32zM232,238h144v1h-144zM136,239h32v1h-32zM232,239h147v1h-147zM136,240h32v1h-32zM233,240h148v1h-148zM136,241h32v1h-32zM233,241h150v1h-150zM136,242h32v1h-32zM234,242h150v1h-150zM136,243h32v1h-32zM234,243h152v1h-152zM136,244h32v1h-32zM235,244h153v1h-153zM136,245h32v1h-32zM236,245h153v1h-153zM136,246h32v1h-32zM237,246h154v1h-154zM136,247h32v1h-32zM238,247h154v1h-154zM136,248h32v1h-32zM239,248h154v1h-154zM136,249h32v1h-32zM241,249h153v1h-153zM136,250h32v1h-32zM244,250h152v1h-152zM136,251h32v1h-32zM250,251h147v1h-147zM136,252h32v1h-32zM258,252h140v1h-140zM136,253h32v1h-32zM265,253h134v1h-134zM136,254h32v1h-32zM273,254h127v1h-127zM136,255h32v1h-32zM280,255h121v1h-121zM136,256h32v1h-32zM288,256h114v1h-114zM136,257h32v1h-32zM295,257h108v1h-108zM136,258h32v1h-32zM303,258h101v1h-101zM136,259h32v1h-32zM310,259h95v1h-95zM136,260h32v1h-32zM318,260h88v1h-88zM136,261h32v1h-32zM325,261h81v1h-81zM136,262h32v1h-32zM333,262h74v1h-74zM136,263h32v1h-32zM340,263h68v1h-68zM136,264h32v1h-32zM348,264h61v1h-61zM136,265h32v1h-32zM354,265h56v1h-56zM136,266h32v1h-32zM358,266h52v1h-52zM136,267h32v1h-32zM361,267h50v1h-50zM136,268h32v1h-32zM363,268h49v1h-49zM136,269h32v1h-32zM365,269h47v1h-47zM136,270h32v1h-32zM367,270h46v1h-46zM136,271h32v1h-32zM369,271h44v1h-44zM136,272h32v1h-32zM371,272h43v1h-43zM136,273h32v1h-32zM372,273h43v1h-43zM136,274h32v1h-32zM373,274h42v1h-42zM136,275h32v1h-32zM375,275h41v1h-41zM136,276h32v1h-32zM376,276h40v1h-40zM136,277h32v1h-32zM377,277h40v1h-40zM136,278h32v1h-32zM378,278h39v1h-39zM136,279h32v1h-32zM379,279h38v1h-38zM136,280h32v1h-32zM380,280h38v1h-38zM136,281h32v1h-32zM381,281h37v1h-37zM136,282h32v1h-32zM381,282h38v1h-38zM136,283h32v1h-32zM382,283h37v1h-37zM136,284h32v1h-32zM383,284h36v1h-36zM136,285h32v1h-32zM384,285h36v1h-36zM136,286h32v1h-32zM384,286h36v1h-36zM136,287h32v1h-32zM385,287h36v1h-36zM136,288h32v1h-32zM385,288h36v1h-36zM136,289h32v1h-32zM386,289h35v1h-35zM136,290h32v1h-32zM386,290h35v1h-35zM136,291h32v1h-32zM387,291h35v1h-35zM136,292h32v1h-32zM387,292h35v1h-35zM136,293h32v1h-32zM388,293h34v1h-34zM136,294h32v1h-32zM388,294h34v1h-34zM136,295h32v1h-32zM389,295h34v1h-34zM136,296h32v1h-32zM389,296h34v1h-34zM136,297h32v1h-32zM389,297h34v1h-34zM136,298h32v1h-32zM390,298h33v1h-33zM136,299h32v1h-32zM390,299h33v1h-33zM136,300h32v1h-32zM390,300h34v1h-34zM136,301h32v1h-32zM390,301h34v1h-34zM136,302h32v1h-32zM391,302h33v1h-33zM136,303h32v1h-32zM391,303h33v1h-33zM136,304h32v1h-32zM391,304h33v1h-33zM136,305h32v1h-32zM391,305h33v1h-33zM136,306h32v1h-32zM391,306h33v1h-33zM136,307h32v1h-32zM391,307h33v1h-33zM136,308h32v1h-32zM391,308h33v1h-33zM136,309h32v1h-32zM391,309h33v1h-33zM136,310h32v1h-32zM392,310h32v1h-32zM136,311h32v1h-32zM392,311h32v1h-32zM136,312h32v1h-32zM392,312h32v1h-32zM136,313h32v1h-32zM392,313h32v1h-32zM136,314h32v1h-32zM392,314h32v1h-32zM136,315h32v1h-32zM392,315h32v1h-32zM136,316h32v1h-32zM392,316h32v1h-32zM136,317h32v1h-32zM392,317h32v1h-32zM136,318h32v1h-32zM392,318h32v1h-32zM136,319h32v1h-32zM392,319h32v1h-32zM136,320h32v1h-32zM392,320h32v1h-32zM136,321h32v1h-32zM392,321h32v1h-32zM136,322h32v1h-32zM392,322h32v1h-32zM136,323h32v1h-32zM392,323h32v1h-32zM136,324h32v1h-32zM392,324h32v1h-32zM136,325h32v1h-32zM392,325h32v1h-32zM136,326h32v1h-32zM392,326h32v1h-32zM136,327h32v1h-32zM392,327h32v1h-32zM136,328h32v1h-32zM392,328h32v1h-32zM136,329h32v1h-32zM392,329h32v1h-32zM136,330h32v1h-32zM392,330h32v1h-32zM136,331h32v1h-32zM392,331h32v1h-32zM136,332h32v1h-32zM392,332h32v1h-32zM136,333h32v1h-32zM392,333h32v1h-32zM97,334h14v1h-14zM136,334h32v1h-32zM392,334h32v1h-32zM90,335h27v1h-27zM136,335h32v1h-32zM392,335h32v1h-32zM87,336h34v1h-34zM136,336h32v1h-32zM392,336h32v1h-32zM83,337h42v1h-42zM136,337h32v1h-32zM392,337h32v1h-32zM81,338h48v1h-48zM136,338h32v1h-32zM392,338h32v1h-32zM78,339h90v1h-90zM392,339h32v1h-32zM76,340h92v1h-92zM392,340h32v1h-32zM74,341h94v1h-94zM392,341h32v1h-32zM72,342h96v1h-96zM392,342h32v1h-32zM71,343h97v1h-97zM392,343h32v1h-32zM69,344h99v1h-99zM392,344h32v1h-32zM67,345h101v1h-101zM392,345h32v1h-32zM66,346h102v1h-102zM392,346h32v1h-32zM65,347h103v1h-103zM392,347h32v1h-32zM64,348h104v1h-104zM392,348h32v1h-32zM62,349h106v1h-106zM392,349h32v1h-32zM61,350h107v1h-107zM392,350h32v1h-32zM60,351h108v1h-108zM392,351h32v1h-32zM59,352h109v1h-109zM392,352h32v1h-32zM58,353h110v1h-110zM392,353h32v1h-32zM57,354h111v1h-111zM392,354h32v1h-32zM56,355h112v1h-112zM392,355h32v1h-32zM55,356h113v1h-113zM392,356h32v1h-32zM54,357h114v1h-114zM392,357h32v1h-32zM54,358h114v1h-114zM392,358h32v1h-32zM53,359h115v1h-115zM392,359h32v1h-32zM52,360h116v1h-116zM392,360h32v1h-32zM51,361h117v1h-117zM392,361h32v1h-32zM51,362h117v1h-117zM392,362h32v1h-32zM50,363h118v1h-118zM392,363h32v1h-32zM49,364h119v1h-119zM392,364h32v1h-32zM49,365h119v1h-119zM392,365h32v1h-32zM48,366h120v1h-120zM392,366h32v1h-32zM48,367h50v1h-50zM110,367h57v1h-57zM392,367h32v1h-32zM47,368h47v1h-47zM114,368h53v1h-53zM392,368h32v1h-32zM46,369h45v1h-45zM118,369h48v1h-48zM392,369h32v1h-32zM46,370h43v1h-43zM122,370h44v1h-44zM392,370h32v1h-32zM46,371h41v1h-41zM126,371h39v1h-39zM392,371h32v1h-32zM45,372h41v1h-41zM129,372h35v1h-35zM392,372h32v1h-32zM45,373h40v1h-40zM133,373h30v1h-30zM392,373h32v1h-32zM44,374h39v1h-39zM137,374h25v1h-25zM392,374h32v1h-32zM44,375h38v1h-38zM141,375h20v1h-20zM392,375h32v1h-32zM43,376h38v1h-38zM144,376h15v1h-15zM392,376h32v1h-32zM43,377h37v1h-37zM148,377h8v1h-8zM392,377h32v1h-32zM43,378h36v1h-36zM392,378h32v1h-32zM42,379h37v1h-37zM392,379h32v1h-32zM42,380h36v1h-36zM392,380h32v1h-32zM42,381h35v1h-35zM392,381h32v1h-32zM42,382h35v1h-35zM392,382h32v1h-32zM41,383h35v1h-35zM392,383h32v1h-32zM41,384h35v1h-35zM392,384h32v1h-32zM41,385h34v1h-34zM392,385h32v1h-32zM41,386h34v1h-34zM392,386h32v1h-32zM41,387h33v1h-33zM392,387h32v1h-32zM40,388h34v1h-34zM392,388h32v1h-32zM40,389h34v1h-34zM392,389h32v1h-32zM40,390h33v1h-33zM392,390h32v1h-32zM40,391h33v1h-33zM392,391h32v1h-32zM40,392h33v1h-33zM392,392h32v1h-32zM40,393h33v1h-33zM392,393h32v1h-32zM40,394h33v1h-33zM392,394h32v1h-32zM40,395h33v1h-33zM392,395h32v1h-32zM40,396h32v1h-32zM392,396h32v1h-32zM40,397h32v1h-32zM392,397h32v1h-32zM40,398h32v1h-32zM392,398h32v1h-32zM40,399h32v1h-32zM392,399h32v1h-32zM40,400h32v1h-32zM392,400h32v1h-32zM40,401h32v1h-32zM392,401h32v1h-32zM40,402h32v1h-32zM392,402h32v1h-32zM40,403h32v1h-32zM392,403h32v1h-32zM40,404h32v1h-32zM392,404h32v1h-32zM40,405h32v1h-32zM392,405h32v1h-32zM40,406h32v1h-32zM392,406h32v1h-32zM40,407h33v1h-33zM392,407h32v1h-32zM40,408h34v1h-34zM392,408h32v1h-32zM40,409h36v1h-36zM392,409h32v1h-32zM40,410h37v1h-37zM392,410h32v1h-32zM40,411h39v1h-39zM392,411h32v1h-32zM40,412h40v1h-40zM392,412h32v1h-32zM40,413h42v1h-42zM392,413h32v1h-32zM40,414h43v1h-43zM392,414h32v1h-32zM40,415h45v1h-45zM392,415h32v1h-32zM40,416h46v1h-46zM392,416h32v1h-32zM40,417h48v1h-48zM392,417h32v1h-32zM40,418h49v1h-49zM392,418h32v1h-32zM40,419h51v1h-51zM392,419h32v1h-32zM40,420h52v1h-52zM392,420h32v1h-32zM41,421h53v1h-53zM392,421h32v1h-32zM41,422h54v1h-54zM392,422h32v1h-32zM41,423h56v1h-56zM392,423h32v1h-32zM42,424h56v1h-56zM392,424h32v1h-32zM43,425h57v1h-57zM392,425h32v1h-32zM43,426h58v1h-58zM392,426h32v1h-32zM44,427h59v1h-59zM392,427h32v1h-32zM45,428h59v1h-59zM392,428h32v1h-32zM47,429h59v1h-59zM392,429h32v1h-32zM48,430h59v1h-59zM392,430h32v1h-32zM50,431h59v1h-59zM392,431h32v1h-32zM51,432h59v1h-59zM392,432h32v1h-32zM53,433h59v1h-59zM392,433h32v1h-32zM54,434h59v1h-59zM392,434h32v1h-32zM56,435h59v1h-59zM392,435h32v1h-32zM57,436h59v1h-59zM392,436h32v1h-32zM59,437h59v1h-59zM392,437h32v1h-32zM60,438h59v1h-59zM392,438h32v1h-32zM62,439h59v1h-59zM392,439h32v1h-32zM63,440h59v1h-59zM392,440h32v1h-32zM65,441h59v1h-59zM392,441h32v1h-32zM66,442h59v1h-59zM392,442h32v1h-32zM68,443h59v1h-59zM392,443h32v1h-32zM69,444h59v1h-59zM392,444h32v1h-32zM71,445h59v1h-59zM392,445h32v1h-32zM72,446h59v1h-59zM392,446h32v1h-32zM74,447h59v1h-59zM392,447h32v1h-32zM75,448h59v1h-59zM392,448h32v1h-32zM77,449h59v1h-59zM392,449h32v1h-32zM78,450h59v1h-59zM391,450h33v1h-33zM80,451h59v1h-59zM391,451h33v1h-33zM81,452h59v1h-59zM391,452h33v1h-33zM83,453h59v1h-59zM391,453h33v1h-33zM84,454h59v1h-59zM390,454h34v1h-34zM86,455h59v1h-59zM390,455h34v1h-34zM87,456h59v1h-59zM389,456h35v1h-35zM89,457h59v1h-59zM388,457h35v1h-35zM90,458h59v1h-59zM388,458h35v1h-35zM92,459h59v1h-59zM387,459h36v1h-36zM93,460h59v1h-59zM385,460h38v1h-38zM95,461h59v1h-59zM384,461h38v1h-38zM96,462h60v1h-60zM382,462h40v1h-40zM98,463h62v1h-62zM378,463h44v1h-44zM99,464h322v1h-322zM101,465h320v1h-320zM102,466h319v1h-319zM104,467h316v1h-316zM105,468h315v1h-315zM107,469h312v1h-312zM108,470h311v1h-311zM110,471h308v1h-308zM111,472h307v1h-307zM113,473h304v1h-304zM114,474h302v1h-302zM116,475h300v1h-300zM117,476h298v1h-298zM119,477h295v1h-295zM120,478h294v1h-294zM122,479h291v1h-291zM123,480h289v1h-289zM125,481h286v1h-286zM126,482h284v1h-284zM128,483h281v1h-281zM129,484h279v1h-279zM131,485h276v1h-276zM132,486h273v1h-273zM134,487h270v1h-270zM135,488h267v1h-267zM137,489h264v1h-264zM139,490h260v1h-260zM141,491h256v1h-256zM143,492h252v1h-252zM145,493h247v1h-247zM148,494h241v1h-241zM153,495h232v1h-232z"/></svg>