<?xml version="1.0" encoding="UTF-8"?>
<svg xmlns="http://www.w3.org/2000/svg" viewBox="0 0 512 512" width="512" height="512"><path fill="#000" d="M69,16h374v1h-374zM65,17h382v1h-382zM61,18h390v1h-390zM58,19h396v1h-396zM55,20h402v1h-402zM53,21h406v1h-406zM51,22h410v1h-410zM49,23h414v1h-414zM47,24h418v1h-418zM46,25h420v1h-420zM44,26h424v1h-424zM43,27h426v1h-426zM41,28h430v1h-430zM40,29h432v1h-432zM39,30h434v1h-434zM38,31h436v1h-436zM37,32h438v1h-438zM36,33h440v1h-440zM34,34h444v1h-444zM34,35h444v1h-444zM33,36h446v1h-446zM32,37h448v1h-448zM31,38h450v1h-450zM30,39h452v1h-452zM29,40h454v1h-454zM28,41h455v1h-455zM28,42h456v1h-456zM27,43h458v1h-458zM26,44h460v1h-460zM26,45h460v1h-460zM25,46h462v1h-462zM24,47h464v1h-464zM24,48h54v1h-54zM434,48h54v1h-54zM23,49h49v1h-49zM440,49h49v1h-49zM23,50h46v1h-46zM443,50h46v1h-46zM22,51h44v1h-44zM446,51h44v1h-44zM22,52h42v1h-42zM448,52h42v1h-42zM21,53h42v1h-42zM449,53h42v1h-42zM21,54h40v1h-40zM451,54h40v1h-40zM20,55h40v1h-40zM452,55h40v1h-40zM20,56h39v1h-39zM453,56h39v1h-39zM20,57h38v1h-38zM454,57h38v1h-38zM19,58h38v1h-38zM455,58h38v1h-38zM19,59h37v1h-37zM456,59h37v1h-37zM19,60h36v1h-36zM457,60h36v1h-36zM18,61h36v1h-36zM458,61h36v1h-36zM18,62h36v1h-36zM458,62h36v1h-36zM18,63h35v1h-35zM459,63h35v1h-35zM18,64h34v1h-34zM460,64h34v1h-34zM17,65h35v1h-35zM460,65h35v1h-35zM17,66h34v1h-34zM461,66h34v1h-34zM17,67h34v1h-34zM461,67h34v1h-34zM17,68h34v1h-34zM461,68h34v1h-34zM16,69h34v1h-34zM462,69h34v1h-34zM16,70h34v1h-34zM462,70h34v1h-34zM16,71h34v1h-34zM462,71h34v1h-34zM16,72h33v1h-33zM463,72h33v1h-33zM16,73h33v1h-33zM463,73h33v1h-33zM16,74h33v1h-33zM463,74h33v1h-33zM16,75h33v1h-33zM463,75h33v1h-33zM16,76h33v1h-33zM463,76h33v1h-33zM16,77h33v1h-33zM463,77h33v1h-33zM16,78h32v1h-32zM464,78h32v1h-32zM16,79h32v1h-32zM464,79h32v1h-32zM16,80h32v1h-32zM464,80h32v1h-32zM16,81h32v1h-32zM464,81h32v1h-32zM16,82h32v1h-32zM464,82h32v1h-32zM16,83h32v1h-32zM464,83h32v1h-32zM16,84h32v1h-32zM464,84h32v1h-32zM16,85h32v1h-32zM464,85h32v1h-32zM16,86h32v1h-32zM464,86h32v1h-32zM16,87h32v1h-32zM464,87h32v1h-32zM16,88h32v1h-32zM464,88h32v1h-32zM16,89h32v1h-32zM464,89h32v1h-32zM16,90h32v1h-32zM464,90h32v1h-32zM16,91h32v1h-32zM464,91h32v1h-32zM16,92h32v1h-32zM464,92h32v1h-32zM16,93h32v1h-32zM464,93h32v1h-32zM16,94h32v1h-32zM464,94h32v1h-32zM16,95h32v1h-32zM464,95h32v1h-32zM16,96h32v1h-32zM464,96h32v1h-32zM16,97h32v1h-32zM464,97h32v1h-32zM16,98h32v1h-32zM464,98h32v1h-32zM16,99h32v1h-32zM464,99h32v1h-32zM16,100h32v1h-32zM464,100h32v1h-32zM16,101h32v1h-32zM464,101h32v1h-32zM16,102h32v1h-32zM464,102h32v1h-32zM16,103h32v1h-32zM464,103h32v1h-32zM16,104h32v1h-32zM464,104h32v1h-32zM16,105h32v1h-32zM464,105h32v1h-32zM16,106h32v1h-32zM464,106h32v1h-32zM16,107h32v1h-32zM464,107h32v1h-32zM16,108h32v1h-32zM464,108h32v1h-32zM16,109h32v1h-32zM464,109h32v1h-32zM16,110h32v1h-32zM464,110h32v1h-32zM16,111h32v1h-32zM464,111h32v1h-32zM16,112h32v1h-32zM464,112h32v1h-32zM16,113h32v1h-32zM464,113h32v1h-32zM16,114h32v1h-32zM464,114h32v1h-32zM16,115h32v1h-32zM464,115h32v1h-32zM16,116h32v1h-32zM464,116h32v1h-32zM16,117h32v1h-32zM464,117h32v1h-32zM16,118h32v1h-32zM464,118h32v1h-32zM16,119h32v1h-32zM464,119h32v1h-32zM16,120h480v1h-480zM16,121h480v1h-480zM16,122h480v1h-480zM16,123h480v1h-480zM16,124h480v1h-480zM16,125h480v1h-480zM16,126h480v1h-480zM16,127h480v1h-480zM16,128h480v1h-480zM16,129h480v1h-480zM16,130h480v1h-480zM16,131h480v1h-480zM16,132h480v1h-480zM16,133h480v1h-480zM16,134h480v1h-480zM16,135h480v1h-480zM16,136h480v1h-480zM16,137h480v1h-480zM16,138h480v1h-480zM16,139h480v1h-480zM16,140h480v1h-480zM16,141h480v1h-480zM16,142h480v1h-480zM16,143h480v1h-480zM16,144h480v1h-480zM16,145h480v1h-480zM16,146h480v1h-480zM16,147h480v1h-480zM16,148h480v1h-480zM16,149h480v1h-480zM16,150h480v1h-480zM16,151h480v1h-480zM16,152h32v1h-32zM216,152h32v1h-32zM360,152h32v1h-32zM464,152h32v1h-32zM16,153h32v1h-32zM216,153h32v1h-32zM360,153h32v1h-32zM464,153h32v1h-32zM16,154h32v1h-32zM216,154h32v1h-32zM360,154h32v1h-32zM464,154h32v1h-32zM16,155h32v1h-32zM216,155h32v1h-32zM360,155h32v1h-32zM464,155h32v1h-32zM16,156h32v1h-32zM216,156h32v1h-32zM360,156h32v1h-32zM464,156h32v1h-32zM16,157h32v1h-32zM216,157h32v1h-32zM360,157h32v1h-32zM464,157h32v1h-32zM16,158h32v1h-32zM216,158h32v1h-32zM360,158h32v1h-32zM464,158h32v1h-32zM16,159h32v1h-32zM216,159h32v1h-32zM360,159h32v1h-32zM464,159h32v1h-32zM16,160h32v1h-32zM216,160h32v1h-32zM360,160h32v1h-32zM464,160h32v1h-32zM16,161h32v1h-32zM216,161h32v1h-32zM360,161h32v1h-32zM464,161h32v1h-32zM16,162h32v1h-32zM216,162h32v1h-32zM360,162h32v1h-32zM464,162h32v1h-32zM16,163h32v1h-32zM216,163h32v1h-32zM360,163h32v1h-32zM464,163h32v1h-32zM16,164h32v1h-32zM216,164h32v1h-32zM360,164h32v1h-32zM464,164h32v1h-32zM16,165h32v1h-32zM216,165h32v1h-32zM360,165h32v1h-32zM464,165h32v1h-32zM16,166h32v1h-32zM216,166h32v1h-32zM360,166h32v1h-32zM464,166h32v1h-32zM16,167h32v1h-32zM216,167h32v1h-32zM360,167h32v1h-32zM464,167h32v1h-32zM16,168h32v1h-32zM216,168h32v1h-32zM360,168h32v1h-32zM464,168h32v1h-32zM16,169h32v1h-32zM216,169h32v1h-32zM360,169h32v1h-32zM464,169h32v1h-32zM16,170h32v1h-32zM216,170h32v1h-32zM360,170h32v1h-32zM464,170h32v1h-32zM16,171h32v1h-32zM216,171h32v1h-32zM360,171h32v1h-32zM464,171h32v1h-32zM16,172h32v1h-32zM216,172h32v1h-32zM360,172h32v1h-32zM464,172h32v1h-32zM16,173h32v1h-32zM216,173h32v1h-32zM360,173h32v1h-32zM464,173h32v1h-32zM16,174h32v1h-32zM216,174h32v1h-32zM360,174h32v1h-32zM464,174h32v1h-32zM16,175h32v1h-32zM216,175h32v1h-32zM360,175h32v1h-32zM464,175h32v1h-32zM16,176h32v1h-32zM216,176h32v1h-32zM360,176h32v1h-32zM464,176h32v1h-32zM16,177h32v1h-32zM216,177h32v1h-32zM360,177h32v1h-32zM464,177h32v1h-32zM16,178h32v1h-32zM216,178h32v1h-32zM360,178h32v1h-32zM464,178h32v1h-32zM16,179h32v1h-32zM216,179h32v1h-32zM360,179h32v1h-32zM464,179h32v1h-32zM16,180h32v1h-32zM216,180h32v1h-32zM360,180h32v1h-32zM464,180h32v1h-32zM16,181h32v1h-32zM216,181h32v1h-32zM360,181h32v1h-32zM464,181h32v1h-32zM16,182h32v1h-32zM216,182h32v1h-32zM360,182h32v1h-32zM464,182h32v1h-32zM16,183h32v1h-32zM216,183h32v1h-32zM360,183h32v1h-32zM464,183h32v1h-32zM16,184h32v1h-32zM216,184h32v1h-32zM360,184h32v1h-32zM464,184h32v1h-32zM16,185h32v1h-32zM216,185h32v1h-32zM360,185h32v1h-32zM464,185h32v1h-32zM16,186h32v1h-32zM216,186h32v1h-32zM360,186h32v1h-32zM464,186h32v1h-32zM16,187h32v1h-32zM216,187h32v1h-32zM360,187h32v1h-32zM464,187h32v1h-32zM16,188h32v1h-32zM216,188h32v1h-32zM360,188h32v1h-32zM464,188h32v1h-32zM16,189h32v1h-32zM216,189h32v1h-32zM360,189h32v1h-32zM464,189h32v1h-32zM16,190h32v1h-32zM216,190h32v1h-32zM360,190h32v1h-32zM464,190h32v1h-32zM16,191h32v1h-32zM216,191h32v1h-32zM360,191h32v1h-32zM464,191h32v1h-32zM16,192h32v1h-32zM216,192h32v1h-32zM360,192h32v1h-32zM464,192h32v1h-32zM16,193h32v1h-32zM216,193h32v1h-32zM360,193h32v1h-32zM464,193h32v1h-32zM16,194h32v1h-32zM216,194h32v1h-32zM360,194h32v1h-32zM464,194h32v1h-32zM16,195h32v1h-32zM216,195h32v1h-32zM360,195h32v1h-32zM464,195h32v1h-32zM16,196h32v1h-32zM216,196h32v1h-32zM360,196h32v1h-32zM464,196h32v1h-32zM16,197h32v1h-32zM216,197h32v1h-32zM360,197h32v1h-32zM464,197h32v1h-32zM16,198h32v1h-32zM216,198h32v1h-32zM360,198h32v1h-32zM464,198h32v1h-32zM16,199h32v1h-32zM216,199h32v1h-32zM360,199h32v1h-32zM464,199h32v1h-32zM16,200h32v1h-32zM216,200h32v1h-32zM360,200h32v1h-32zM464,200h32v1h-32zM16,201h32v1h-32zM216,201h32v1h-32zM360,201h32v1h-32zM464,201h32v1h-32zM16,202h32v1h-32zM216,202h32v1h-32zM360,202h32v1h-32zM464,202h32v1h-32zM16,203h32v1h-32zM216,203h32v1h-32zM360,203h32v1h-32zM464,203h32v1h-32zM16,204h32v1h-32zM216,204h32v1h-32zM360,204h32v1h-32zM464,204h32v1h-32zM16,205h32v1h-32zM216,205h32v1h-32zM360,205h32v1h-32zM464,205h32v1h-32zM16,206h32v1h-32zM216,206h32v1h-32zM360,206h32v1h-32zM464,206h32v1h-32zM16,207h32v1h-32zM216,207h32v1h-32zM360,207h32v1h-32zM464,207h32v1h-32zM16,208h32v1h-32zM216,208h32v1h-32zM360,208h32v1h-32zM464,208h32v1h-32zM16,209h32v1h-32zM216,209h32v1h-32zM360,209h32v1h-32zM464,209h32v1h-32zM16,210h32v1h-32zM216,210h32v1h-32zM360,210h32v1h-32zM464,210h32v1h-32zM16,211h32v1h-32zM216,211h32v1h-32zM360,211h32v1h-32zM464,211h32v1h-32zM16,212h32v1h-32zM216,212h32v1h-32zM360,212h32v1h-32zM464,212h32v1h-32zM16,213h32v1h-32zM216,213h32v1h-32zM360,213h32v1h-32zM464,213h32v1h-32zM16,214h32v1h-32zM216,214h32v1h-32zM360,214h32v1h-32zM464,214h32v1h-32zM16,215h32v1h-32zM216,215h32v1h-32zM360,215h32v1h-32zM464,215h32v1h-32zM16,216h32v1h-32zM216,216h32v1h-32zM360,216h32v1h-32zM464,216h32v1h-32zM16,217h32v1h-32zM216,217h32v1h-32zM360,217h32v1h-32zM464,217h32v1h-32zM16,218h32v1h-32zM216,218h32v1h-32zM360,218h32v1h-32zM464,218h32v1h-32zM16,219h32v1h-32zM216,219h32v1h-32zM360,219h32v1h-32zM464,219h32v1h-32zM16,220h32v1h-32zM216,220h32v1h-32zM360,220h32v1h-32zM464,220h32v1h-32zM16,221h32v1h-32zM216,221h32v1h-32zM360,221h32v1h-32zM464,221h32v1h-32zM16,222h32v1h-32zM216,222h32v1h-32zM360,222h32v1h-32zM464,222h32v1h-32zM16,223h32v1h-32zM216,223h32v1h-32zM360,223h32v1h-32zM464,223h32v1h-32zM16,224h32v1h-32zM216,224h32v1h-32zM360,224h32v1h-32zM464,224h32v1h-32zM16,225h32v1h-32zM216,225h32v1h-32zM360,225h32v1h-32zM464,225h32v1h-32zM16,226h32v1h-32zM216,226h32v1h-32zM360,226h32v1h-32zM464,226h32v1h-32zM16,227h32v1h-32zM216,227h32v1h-32zM360,227h32v1h-32zM464,227h32v1h-32zM16,228h32v1h-32zM216,228h32v1h-32zM360,228h32v1h-32zM464,228h32v1h-32zM16,229h32v1h-32zM216,229h32v1h-32zM360,229h32v1h-32zM464,229h32v1h-32zM16,230h32v1h-32zM216,230h32v1h-32zM360,230h32v1h-32zM464,230h32v1h-32zM16,231h32v1h-32zM216,231h32v1h-32zM360,231h32v1h-32zM464,231h32v1h-32zM16,232h32v1h-32zM216,232h32v1h-32zM360,232h32v1h-32zM464,232h32v1h-32zM16,233h32v1h-32zM216,233h32v1h-32zM360,233h32v1h-32zM464,233h32v1h-32zM16,234h32v1h-32zM216,234h32v1h-32zM360,234h32v1h-32zM464,234h32v1h-32zM16,235h32v1h-32zM216,235h32v1h-32zM360,235h32v1h-32zM464,235h32v1h-32zM16,236h32v1h-32zM216,236h32v1h-32zM360,236h32v1h-32zM464,236h32v1h-32zM16,237h32v1h-32zM216,237h32v1h-32zM360,237h32v1h-32zM464,237h32v1h-32zM16,238h32v1h-32zM216,238h32v1h-32zM360,238h32v1h-32zM464,238h32v1h-32zM16,239h32v1h-32zM216,239h32v1h-32zM360,239h32v1h-32zM464,239h32v1h-32zM16,240h32v1h-32zM216,240h32v1h-32zM360,240h32v1h-32zM464,240h32v1h-32zM16,241h32v1h-32zM216,241h32v1h-32zM360,241h32v1h-32zM464,241h32v1h-32zM16,242h32v1h-32zM216,242h32v1h-32zM360,242h32v1h-32zM464,242h32v1h-32zM16,243h32v1h-32zM216,243h32v1h-32zM360,243h32v1h-32zM464,243h32v1h-32zM16,244h32v1h-32zM216,244h32v1h-32zM360,244h32v1h-32zM464,244h32v1h-32zM16,245h32v1h-32zM216,245h32v1h-32zM360,245h32v1h-32zM464,245h32v1h-32zM16,246h32v1h-32zM216,246h32v1h-32zM360,246h32v1h-32zM464,246h32v1h-32zM16,247h32v1h-32zM216,247h32v1h-32zM360,247h32v1h-32zM464,247h32v1h-32zM16,248h32v1h-32zM216,248h32v1h-32zM360,248h32v1h-32zM464,248h32v1h-32zM16,249h32v1h-32zM216,249h32v1h-32zM360,249h32v1h-32zM464,249h32v1h-32zM16,250h32v1h-32zM216,250h32v1h-32zM360,250h32v1h-32zM464,250h32v1h-32zM16,251h32v1h-32zM216,251h32v1h-32zM360,251h32v1h-32zM464,251h32v1h-32zM16,252h32v1h-32zM216,252h32v1h-32zM360,252h32v1h-32zM464,252h32v1h-32zM16,253h32v1h-32zM216,253h32v1h-32zM360,253h32v1h-32zM464,253h32v1h-32zM16,254h32v1h-32zM216,254h32v1h-32zM360,254h32v1h-32zM464,254h32v1h-32zM16,255h32v1h-32zM216,255h32v1h-32zM360,255h32v1h-32zM464,255h32v1h-32zM16,256h32v1h-32zM216,256h32v1h-32zM360,256h32v1h-32zM464,256h32v1h-32zM16,257h32v1h-32zM216,257h32v1h-32zM360,257h32v1h-32zM464,257h32v1h-32zM16,258h32v1h-32zM216,258h32v1h-32zM360,258h32v1h-32zM464,258h32v1h-32zM16,259h32v1h-32zM216,259h32v1h-32zM360,259h32v1h-32zM464,259h32v1h-32zM16,260h32v1h-32zM216,260h32v1h-32zM360,260h32v1h-32zM464,260h32v1h-32zM16,261h32v1h-32zM216,261h32v1h-32zM360,261h32v1h-32zM464,261h32v1h-32zM16,262h32v1h-32zM216,262h32v1h-32zM360,262h32v1h-32zM464,262h32v1h-32zM16,263h32v1h-32zM216,263h32v1h-32zM360,263h32v1h-32zM464,263h32v1h-32zM16,264h32v1h-32zM216,264h32v1h-32zM360,264h32v1h-32zM464,264h32v1h-32zM16,265h32v1h-32zM216,265h32v1h-32zM360,265h32v1h-32zM464,265h32v1h-32zM16,266h32v1h-32zM216,266h32v1h-32zM360,266h32v1h-32zM464,266h32v1h-32zM16,267h32v1h-32zM216,267h32v1h-32zM360,267h32v1h-32zM464,267h32v1h-32zM16,268h32v1h-32zM216,268h32v1h-32zM360,268h32v1h-32zM464,268h32v1h-32zM16,269h32v1h-32zM216,269h32v1h-32zM360,269h32v1h-32zM464,269h32v1h-32zM16,270h32v1h-32zM216,270h32v1h-32zM360,270h32v1h-32zM464,270h32v1h-32zM16,271h32v1h-32zM216,271h32v1h-32zM360,271h32v1h-32zM464,271h32v1h-32zM16,272h32v1h-32zM216,272h32v1h-32zM360,272h32v1h-32zM464,272h32v1h-32zM16,273h32v1h-32zM216,273h32v1h-32zM360,273h32v1h-32zM464,273h32v1h-32zM16,274h32v1h-32zM216,274h32v1h-32zM360,274h32v1h-32zM464,274h32v1h-32zM16,275h32v1h-32zM216,275h32v1h-32zM360,275h32v1h-32zM464,275h32v1h-32zM16,276h32v1h-32zM216,276h32v1h-32zM360,276h32v1h-32zM464,276h32v1h-32zM16,277h32v1h-32zM216,277h32v1h-32zM360,277h32v1h-32zM464,277h32v1h-32zM16,278h32v1h-32zM216,278h32v1h-32zM360,278h32v1h-32zM464,278h32v1h-32zM16,279h32v1h-32zM216,279h32v1h-32zM360,279h32v1h-32zM464,279h32v1h-32zM16,280h32v1h-32zM216,280h32v1h-32zM360,280h32v1h-32zM464,280h32v1h-32zM16,281h32v1h-32zM216,281h32v1h-32zM360,281h32v1h-32zM464,281h32v1h-32zM16,282h32v1h-32zM216,282h32v1h-32zM360,282h32v1h-32zM464,282h32v1h-32zM16,283h32v1h-32zM216,283h32v1h-32zM360,283h32v1h-32zM464,283h32v1h-32zM16,284h32v1h-32zM216,284h32v1h-32zM360,284h32v1h-32zM464,284h32v1h-32zM16,285h32v1h-32zM216,285h32v1h-32zM360,285h32v1h-32zM464,285h32v1h-32zM16,286h32v1h-32zM216,286h32v1h-32zM360,286h32v1h-32zM464,286h32v1h-32zM16,287h32v1h-32zM216,287h32v1h-32zM360,287h32v1h-32zM464,287h32v1h-32zM16,288h480v1h-480zM16,289h480v1h-480zM16,290h480v1h-480zM16,291h480v1h-480zM16,292h480v1h-480zM16,293h480v1h-480zM16,294h480v1h-480zM16,295h480v1h-480zM16,296h480v1h-480zM16,297h480v1h-480zM16,298h480v1h-480zM16,299h480v1h-480zM16,300h480v1h-480zM16,301h480v1h-480zM16,302h480v1h-480zM16,303h480v1h-480zM16,304h480v1h-480zM16,305h480v1h-480zM16,306h480v1h-480zM16,307h480v1h-480zM16,308h480v1h-480zM16,309h480v1h-480zM16,310h480v1h-480zM16,311h480v1h-480zM16,312h480v1h-480zM16,313h480v1h-480zM16,314h480v1h-480zM16,315h480v1h-480zM16,316h480v1h-480zM16,317h480v1h-480zM16,318h480v1h-480zM16,319h480v1h-480zM16,320h32v1h-32zM216,320h32v1h-32zM360,320h32v1h-32zM464,320h32v1h-32zM16,321h32v1h-32zM216,321h32v1h-32zM360,321h32v1h-32zM464,321h32v1h-32zM16,322h32v1h-32zM216,322h32v1h-32zM360,322h32v1h-32zM464,322h32v1h-32zM16,323h32v1h-32zM216,323h32v1h-32zM360,323h32v1h-32zM464,323h32v1h-32zM16,324h32v1h-32zM216,324h32v1h-32zM360,324h32v1h-32zM464,324h32v1h-32zM16,325h32v1h-32zM216,325h32v1h-32zM360,325h32v1h-32zM464,325h32v1h-32zM16,326h32v1h-32zM216,326h32v1h-32zM360,326h32v1h-32zM464,326h32v1h-32zM16,327h32v1h-32zM216,327h32v1h-32zM360,327h32v1h-32zM464,327h32v1h-32zM16,328h32v1h-32zM216,328h32v1h-32zM360,328h32v1h-32zM464,328h32v1h-32zM16,329h32v1h-32zM216,329h32v1h-32zM360,329h32v1h-32zM464,329h32v1h-32zM16,330h32v1h-32zM216,330h32v1h-32zM360,330h32v1h-32zM464,330h32v1h-32zM16,331h32v1h-32zM216,331h32v1h-32zM360,331h32v1h-32zM464,331h32v1h-32zM16,332h32v1h-32zM216,332h32v1h-32zM360,332h32v1h-32zM464,332h32v1h-32zM16,333h32v1h-32zM216,333h32v1h-32zM360,333h32v1h-32zM464,333h32v1h-32zM16,334h32v1h-32zM216,334h32v1h-32zM360,334h32v1h-32zM464,334h32v1h-32zM16,335h32v1h-32zM216,335h32v1h-32zM360,335h32v1h-32zM464,335h32v1h-32zM16,336h32v1h-32zM216,336h32v1h-32zM360,336h32v1h-32zM464,336h32v1h-32zM16,337h32v1h-32zM216,337h32v1h-32zM360,337h32v1h-32zM464,337h32v1h-32zM16,338h32v1h-32zM216,338h32v1h-32zM360,338h32v1h-32zM464,338h32v1h-32zM16,339h32v1h-32zM216,339h32v1h-32zM360,339h32v1h-32zM464,339h32v1h-32zM16,340h32v1h-32zM216,340h32v1h-32zM360,340h32v1h-32zM464,340h32v1h-32zM16,341h32v1h-32zM216,341h32v1h-32zM360,341h32v1h-32zM464,341h32v1h-32zM16,342h32v1h-32zM216,342h32v1h-32zM360,342h32v1h-32zM464,342h32v1h-32zM16,343h32v1h-32zM216,343h32v1h-32zM360,343h32v1h-32zM464,343h32v1h-32zM16,344h32v1h-32zM216,344h32v1h-32zM360,344h32v1h-32zM464,344h32v1h-32zM16,345h32v1h-32zM216,345h32v1h-32zM360,345h32v1h-32zM464,345h32v1h-32zM16,346h32v1h-32zM216,346h32v1h-32zM360,346h32v1h-32zM464,346h32v1h-32zM16,347h32v1h-32zM216,347h32v1h-32zM360,347h32v1h-32zM464,347h32v1h-32zM16,348h32v1h-32zM216,348h32v1h-32zM360,348h32v1h-32zM464,348h32v1h-32zM16,349h32v1h-32zM216,349h32v1h-32zM360,349h32v1h-32zM464,349h32v1h-32zM16,350h32v1h-32zM216,350h32v1h-32zM360,350h32v1h-32zM464,350h32v1h-32zM16,351h32v1h-32zM216,351h32v1h-32zM360,351h32v1h-32zM464,351h32v1h-32zM16,352h32v1h-32zM216,352h32v1h-32zM360,352h32v1h-32zM464,352h32v1h-32zM16,353h32v1h-32zM216,353h32v1h-32zM360,353h32v1h-32zM464,353h32v1h-32zM16,354h32v1h-32zM216,354h32v1h-32zM360,354h32v1h-32zM464,354h32v1h-32zM16,355h32v1h-32zM216,355h32v1h-32zM360,355h32v1h-32zM464,355h32v1h-32zM16,356h32v1h-32zM216,356h32v1h-32zM360,356h32v1h-32zM464,356h32v1h-32zM16,357h32v1h-32zM216,357h32v1h-32zM360,357h32v1h-32zM464,357h32v1h-32zM16,358h32v1h-32zM216,358h32v1h-32zM360,358h32v1h-32zM464,358h32v1h-32zM16,359h32v1h-32zM216,359h32v1h-32zM360,359h32v1h-32zM464,359h32v1h-32zM16,360h32v1h-32zM216,360h32v1h-32zM360,360h32v1h-32zM464,360h32v1h-32zM16,361h32v1h-32zM216,361h32v1h-32zM360,361h32v1h-32zM464,361h32v1h-32zM16,362h32v1h-32zM216,362h32v1h-32zM360,362h32v1h-32zM464,362h32v1h-32zM16,363h32v1h-32zM216,363h32v1h-32zM360,363h32v1h-32zM464,363h32v1h-32zM16,364h32v1h-32zM216,364h32v1h-32zM360,364h32v1h-32zM464,364h32v1h-32zM16,365h32v1h-32zM216,365h32v1h-32zM360,365h32v1h-32zM464,365h32v1h-32zM16,366h32v1h-32zM216,366h32v1h-32zM360,366h32v1h-32zM464,366h32v1h-32zM16,367h32v1h-32zM216,367h32v1h-32zM360,367h32v1h-32zM464,367h32v1h-32zM16,368h32v1h-32zM216,368h32v1h-32zM360,368h32v1h-32zM464,368h32v1h-32zM16,369h32v1h-32zM216,369h32v1h-32zM360,369h32v1h-32zM464,369h32v1h-32zM16,370h32v1h-32zM216,370h32v1h-32zM360,370h32v1h-32zM464,370h32v1h-32zM16,371h32v1h-32zM216,371h32v1h-32zM360,371h32v1h-32zM464,371h32v1h-32zM16,372h32v1h-32zM216,372h32v1h-32zM360,372h32v1h-32zM464,372h32v1h-32zM16,373h32v1h-32zM216,373h32v1h-32zM360,373h32v1h-32zM464,373h32v1h-32zM16,374h32v1h-32zM216,374h32v1h-32zM360,374h32v1h-32zM464,374h32v1h-32zM16,375h32v1h-32zM216,375h32v1h-32zM360,375h32v1h-32zM464,375h32v1h-32zM16,376h32v1h-32zM216,376h32v1h-32zM360,376h32v1h-32zM464,376h32v1h-32zM16,377h32v1h-32zM216,377h32v1h-32zM360,377h32v1h-32zM464,377h32v1h-32zM16,378h32v1h-32zM216,378h32v1h-32zM360,378h32v1h-32zM464,378h32v1h-32zM16,379h32v1h-32zM216,379h32v1h-32zM360,379h32v1h-32zM464,379h32v1h-32zM16,380h32v1h-32zM216,380h32v1h-32zM360,380h32v1h-32zM464,380h32v1h-32zM16,381h32v1h-32zM216,381h32v1h-32zM360,381h32v1h-32zM464,381h32v1h-32zM16,382h32v1h-32zM216,382h32v1h-32zM360,382h32v1h-32zM464,382h32v1h-32zM16,383h32v1h-32zM216,383h32v1h-32zM360,383h32v1h-32zM464,383h32v1h-32zM16,384h32v1h-32zM216,384h32v1h-32zM360,384h32v1h-32zM464,384h32v1h-32zM16,385h32v1h-32zM216,385h32v1h-32zM360,385h32v1h-32zM464,385h32v1h-32zM16,386h32v1h-32zM216,386h32v1h-32zM360,386h32v1h-32zM464,386h32v1h-32zM16,387h32v1h-32zM216,387h32v1h-32zM360,387h32v1h-32zM464,387h32v1h-32zM16,388h32v1h-32zM216,388h32v1h-32zM360,388h32v1h-32zM464,388h32v1h-32zM16,389h32v1h-32zM216,389h32v1h-32zM360,389h32v1h-32zM464,389h32v1h-32zM16,390h32v1h-32zM216,390h32v1h-32zM360,390h32v1h-32zM464,390h32v1h-32zM16,391h32v1h-32zM216,391h32v1h-32zM360,391h32v1h-32zM464,391h32v1h-32zM16,392h32v1h-32zM216,392h32v1h-32zM360,392h32v1h-32zM464,392h32v1h-32zM16,393h32v1h-32zM216,393h32v1h-32zM360,393h32v1h-32zM464,393h32v1h-32zM16,394h32v1h-32zM216,394h32v1h-32zM360,394h32v1h-32zM464,394h32v1h-32zM16,395h32v1h-32zM216,395h32v1h-32zM360,395h32v1h-32zM464,395h32v1h-32zM16,396h32v1h-32zM216,396h32v1h-32zM360,396h32v1h-32zM464,396h32v1h-32zM16,397h32v1h-32zM216,397h32v1h-32zM360,397h32v1h-32zM464,397h32v1h-32zM16,398h32v1h-32zM216,398h32v1h-32zM360,398h32v1h-32zM464,398h32v1h-32zM16,399h32v1h-32zM216,399h32v1h-32zM360,399h32v1h-32zM464,399h32v1h-32zM16,400h32v1h-32zM216,400h32v1h-32zM360,400h32v1h-32zM464,400h32v1h-32zM16,401h32v1h-32zM216,401h32v1h-32zM360,401h32v1h-32zM464,401h32v1h-32zM16,402h32v1h-32zM216,402h32v1h-32zM360,402h32v1h-32zM464,402h32v1h-32zM16,403h32v1h-32zM216,403h32v1h-32zM360,403h32v1h-32zM464,403h32v1h-32zM16,404h32v1h-32zM216,404h32v1h-32zM360,404h32v1h-32zM464,404h32v1h-32zM16,405h32v1h-32zM216,405h32v1h-32zM360,405h32v1h-32zM464,405h32v1h-32zM16,406h32v1h-32zM216,406h32v1h-32zM360,406h32v1h-32zM464,406h32v1h-32zM16,407h32v1h-32zM216,407h32v1h-32zM360,407h32v1h-32zM464,407h32v1h-32zM16,408h32v1h-32zM216,408h32v1h-32zM360,408h32v1h-32zM464,408h32v1h-32zM16,409h32v1h-32zM216,409h32v1h-32zM360,409h32v1h-32zM464,409h32v1h-32zM16,410h32v1h-32zM216,410h32v1h-32zM360,410h32v1h-32zM464,410h32v1h-32zM16,411h32v1h-32zM216,411h32v1h-32zM360,411h32v1h-32zM464,411h32v1h-32zM16,412h32v1h-32zM216,412h32v1h-32zM360,412h32v1h-32zM464,412h32v1h-32zM16,413h32v1h-32zM216,413h32v1h-32zM360,413h32v1h-32zM464,413h32v1h-32zM16,414h32v1h-32zM216,414h32v1h-32zM360,414h32v1h-32zM464,414h32v1h-32zM16,415h32v1h-32zM216,415h32v1h-32zM360,415h32v1h-32zM464,415h32v1h-32zM16,416h32v1h-32zM216,416h32v1h-32zM360,416h32v1h-32zM464,416h32v1h-32zM16,417h32v1h-32zM216,417h32v1h-32zM360,417h32v1h-32zM464,417h32v1h-32zM16,418h32v1h-32zM216,418h32v1h-32zM360,418h32v1h-32zM464,418h32v1h-32zM16,419h32v1h-32zM216,419h32v1h-32zM360,419h32v1h-32zM464,419h32v1h-32zM16,420h32v1h-32zM216,420h32v1h-32zM360,420h32v1h-32zM464,420h32v1h-32zM16,421h32v1h-32zM216,421h32v1h-32zM360,421h32v1h-32zM464,421h32v1h-32zM16,422h32v1h-32zM216,422h32v1h-32zM360,422h32v1h-32zM464,422h32v1h-32zM16,423h32v1h-32zM216,423h32v1h-32zM360,423h32v1h-32zM464,423h32v1h-32zM16,424h32v1h-32zM216,424h32v1h-32zM360,424h32v1h-32zM464,424h32v1h-32zM16,425h32v1h-32zM216,425h32v1h-32zM360,425h32v1h-32zM464,425h32v1h-32zM16,426h32v1h-32zM216,426h32v1h-32zM360,426h32v1h-32zM464,426h32v1h-32zM16,427h32v1h-32zM216,427h32v1h-32zM360,427h32v1h-32zM464,427h32v1h-32zM16,428h32v1h-32zM216,428h32v1h-32zM360,428h32v1h-32zM464,428h32v1h-32zM16,429h32v1h-32zM216,429h32v1h-32zM360,429h32v1h-32zM464,429h32v1h-32zM16,430h32v1h-32zM216,430h32v1h-32zM360,430h32v1h-32zM464,430h32v1h-32zM16,431h32v1h-32zM216,431h32v1h-32zM360,431h32v1h-32zM464,431h32v1h-32zM16,432h32v1h-32zM216,432h32v1h-32zM360,432h32v1h-32zM464,432h32v1h-32zM16,433h32v1h-32zM216,433h32v1h-32zM360,433h32v1h-32zM464,433h32v1h-32zM16,434h33v1h-33zM216,434h32v1h-32zM360,434h32v1h-32zM463,434h33v1h-33zM16,435h33v1h-33zM216,435h32v1h-32zM360,435h32v1h-32zM463,435h33v1h-33zM16,436h33v1h-33zM216,436h32v1h-32zM360,436h32v1h-32zM463,436h33v1h-33zM16,437h33v1h-33zM216,437h32v1h-32zM360,437h32v1h-32zM463,437h33v1h-33zM16,438h33v1h-33zM216,438h32v1h-32zM360,438h32v1h-32zM463,438h33v1h-33zM16,439h33v1h-33zM216,439h32v1h-32zM360,439h32v1h-32zM463,439h33v1h-33zM16,440h34v1h-34zM216,440h32v1h-32zM360,440h32v1h-32zM462,440h34v1h-34zM16,441h34v1h-34zM216,441h32v1h-32zM360,441h32v1h-32zM462,441h34v1h-34zM16,442h34v1h-34zM216,442h32v1h-32zM360,442h32v1h-32zM462,442h33v1h-33zM17,443h34v1h-34zM216,443h32v1h-32zM360,443h32v1h-32zM461,443h34v1h-34zM17,444h34v1h-34zM216,444h32v1h-32zM360,444h32v1h-32zM461,444h34v1h-34zM17,445h34v1h-34zM216,445h32v1h-32zM360,445h32v1h-32zM461,445h34v1h-34zM17,446h35v1h-35zM216,446h32v1h-32zM360,446h32v1h-32zM460,446h35v1h-35zM18,447h34v1h-34zM216,447h32v1h-32zM360,447h32v1h-32zM460,447h34v1h-34zM18,448h35v1h-35zM216,448h32v1h-32zM360,448h32v1h-32zM459,448h35v1h-35zM18,449h36v1h-36zM216,449h32v1h-32zM360,449h32v1h-32zM458,449h36v1h-36zM18,450h36v1h-36zM216,450h32v1h-32zM360,450h32v1h-32zM458,450h36v1h-36zM19,451h36v1h-36zM216,451h32v1h-32zM360,451h32v1h-32zM457,451h36v1h-36zM19,452h37v1h-37zM216,452h32v1h-32zM360,452h32v1h-32zM456,452h37v1h-37zM19,453h38v1h-38zM216,453h32v1h-32zM360,453h32v1h-32zM455,453h38v1h-38zM20,454h38v1h-38zM216,454h32v1h-32zM360,454h32v1h-32zM454,454h38v1h-38zM20,455h39v1h-39zM216,455h32v1h-32zM360,455h32v1h-32zM453,455h39v1h-39zM20,456h40v1h-40zM216,456h32v1h-32zM360,456h32v1h-32zM452,456h40v1h-40zM21,457h40v1h-40zM216,457h32v1h-32zM360,457h32v1h-32zM451,457h40v1h-40zM21,458h42v1h-42zM216,458h32v1h-32zM360,458h32v1h-32zM449,458h42v1h-42zM22,459h42v1h-42zM216,459h32v1h-32zM360,459h32v1h-32zM448,459h42v1h-42zM22,460h44v1h-44zM216,460h32v1h-32zM360,460h32v1h-32zM446,460h44v1h-44zM23,461h46v1h-46zM216,461h32v1h-32zM360,461h32v1h-32zM443,461h46v1h-46zM23,462h49v1h-49zM216,462h32v1h-32zM360,462h32v1h-32zM440,462h49v1h-49zM24,463h54v1h-54zM216,463h32v1h-32zM360,463h32v1h-32zM434,463h54v1h-54zM24,464h463v1h-463zM25,465h462v1h-462zM26,466h460v1h-460zM26,467h460v1h-460zM27,468h458v1h-458zM28,469h456v1h-456zM28,470h455v1h-455zM29,471h454v1h-454zM30,472h452v1h-452zM31,473h450v1h-450zM32,474h448v1h-448zM33,475h446v1h-446zM34,476h444v1h-444zM34,477h444v1h-444zM36,478h440v1h-440zM37,479h438v1h-438zM38,480h436v1h-436zM39,481h434v1h-434zM40,482h432v1h-432zM42,483h429v1h-429zM43,484h426v1h-426zM44,485h424v1h-424zM46,486h420v1h-420zM48,487h417v1h-417zM49,488h414v1h-414zM51,489h410v1h-410zM53,490h406v1h-406zM56,491h401v1h-401zM58,492h396v1h-396zM61,493h390v1h-390zM65,494h382v1h-382zM69,495h374v1h-374z"/></svg>