<?xml version="1.0" encoding="UTF-8"?>
<svg xmlns="http://www.w3.org/2000/svg" viewBox="0 0 512 512" width="512" height="512"><path fill="#000" d="M144,16h224v1h-224zM137,17h238v1h-238zM131,18h250v1h-250zM127,19h258v1h-258zM123,20h266v1h-266zM119,21h274v1h-274zM116,22h280v1h-280zM113,23h286v1h-286zM110,24h292v1h-292zM108,25h297v1h-297zM105,26h302v1h-302zM103,27h306v1h-306zM100,28h312v1h-312zM98,29h316v1h-316zM96,30h320v1h-320zM94,31h324v1h-324zM92,32h328v1h-328zM90,33h332v1h-332zM89,34h334v1h-334zM87,35h338v1h-338zM85,36h342v1h-342zM84,37h344v1h-344zM82,38h348v1h-348zM81,39h351v1h-351zM79,40h354v1h-354zM78,41h356v1h-356zM76,42h360v1h-360zM75,43h362v1h-362zM73,44h366v1h-366zM72,45h368v1h-368zM71,46h370v1h-370zM70,47h372v1h-372zM68,48h88v1h-88zM356,48h88v1h-88zM67,49h77v1h-77zM368,49h77v1h-77zM66,50h72v1h-72zM374,50h72v1h-72zM65,51h69v1h-69zM378,51h69v1h-69zM64,52h66v1h-66zM382,52h66v1h-66zM63,53h63v1h-63zM386,53h63v1h-63zM61,54h62v1h-62zM388,54h62v1h-62zM60,55h61v1h-61zM391,55h61v1h-61zM59,56h59v1h-59zM394,56h59v1h-59zM58,57h58v1h-58zM396,57h58v1h-58zM57,58h57v1h-57zM398,58h57v1h-57zM56,59h55v1h-55zM401,59h55v1h-55zM55,60h54v1h-54zM403,60h54v1h-54zM54,61h53v1h-53zM405,61h52v1h-52zM54,62h52v1h-52zM406,62h52v1h-52zM53,63h51v1h-51zM408,63h51v1h-51zM52,64h50v1h-50zM410,64h50v1h-50zM51,65h50v1h-50zM411,65h50v1h-50zM50,66h49v1h-49zM413,66h49v1h-49zM49,67h48v1h-48zM415,67h48v1h-48zM48,68h48v1h-48zM416,68h48v1h-48zM48,69h47v1h-47zM417,69h47v1h-47zM47,70h46v1h-46zM419,70h46v1h-46zM46,71h46v1h-46zM420,71h46v1h-46zM45,72h46v1h-46zM421,72h46v1h-46zM44,73h45v1h-45zM423,73h45v1h-45zM44,74h44v1h-44zM424,74h44v1h-44zM43,75h44v1h-44zM425,75h44v1h-44zM42,76h44v1h-44zM426,76h44v1h-44zM42,77h43v1h-43zM427,77h43v1h-43zM41,78h43v1h-43zM428,78h43v1h-43zM40,79h43v1h-43zM429,79h43v1h-43zM40,80h42v1h-42zM430,80h42v1h-42zM39,81h42v1h-42zM431,81h42v1h-42zM38,82h42v1h-42zM432,82h42v1h-42zM38,83h41v1h-41zM433,83h41v1h-41zM37,84h41v1h-41zM434,84h41v1h-41zM36,85h41v1h-41zM435,85h41v1h-41zM36,86h40v1h-40zM436,86h40v1h-40zM35,87h40v1h-40zM437,87h40v1h-40zM35,88h39v1h-39zM438,88h39v1h-39zM34,89h39v1h-39zM439,89h39v1h-39zM33,90h40v1h-40zM439,90h40v1h-40zM33,91h39v1h-39zM440,91h39v1h-39zM32,92h39v1h-39zM441,92h39v1h-39zM32,93h38v1h-38zM442,93h38v1h-38zM31,94h39v1h-39zM442,94h39v1h-39zM31,95h38v1h-38zM443,95h38v1h-38zM30,96h38v1h-38zM444,96h38v1h-38zM30,97h37v1h-37zM445,97h37v1h-37zM29,98h38v1h-38zM445,98h38v1h-38zM29,99h37v1h-37zM446,99h37v1h-37zM28,100h38v1h-38zM446,100h38v1h-38zM28,101h37v1h-37zM447,101h37v1h-37zM28,102h36v1h-36zM448,102h36v1h-36zM27,103h37v1h-37zM448,103h37v1h-37zM27,104h36v1h-36zM449,104h36v1h-36zM26,105h37v1h-37zM449,105h37v1h-37zM26,106h36v1h-36zM450,106h36v1h-36zM26,107h35v1h-35zM451,107h35v1h-35zM25,108h36v1h-36zM451,108h36v1h-36zM25,109h35v1h-35zM452,109h35v1h-35zM24,110h36v1h-36zM452,110h36v1h-36zM24,111h35v1h-35zM453,111h35v1h-35zM24,112h35v1h-35zM453,112h35v1h-35zM23,113h36v1h-36zM453,113h36v1h-36zM23,114h35v1h-35zM454,114h35v1h-35zM23,115h35v1h-35zM454,115h35v1h-35zM22,116h35v1h-35zM455,116h35v1h-35zM22,117h35v1h-35zM455,117h35v1h-35zM22,118h34v1h-34zM456,118h34v1h-34zM21,119h35v1h-35zM456,119h35v1h-35zM21,120h35v1h-35zM456,120h35v1h-35zM21,121h34v1h-34zM457,121h34v1h-34zM21,122h34v1h-34zM457,122h34v1h-34zM20,123h35v1h-35zM458,123h34v1h-34zM20,124h34v1h-34zM458,124h34v1h-34zM20,125h34v1h-34zM458,125h34v1h-34zM20,126h33v1h-33zM459,126h33v1h-33zM19,127h34v1h-34zM459,127h34v1h-34zM19,128h34v1h-34zM459,128h34v1h-34zM19,129h34v1h-34zM459,129h34v1h-34zM19,130h33v1h-33zM460,130h33v1h-33zM18,131h34v1h-34zM460,131h34v1h-34zM18,132h34v1h-34zM460,132h34v1h-34zM18,133h34v1h-34zM460,133h34v1h-34zM18,134h33v1h-33zM461,134h33v1h-33zM18,135h33v1h-33zM461,135h33v1h-33zM18,136h33v1h-33zM126,136h178v1h-178zM461,136h33v1h-33zM17,137h34v1h-34zM122,137h185v1h-185zM461,137h34v1h-34zM17,138h33v1h-33zM120,138h190v1h-190zM462,138h33v1h-33zM17,139h33v1h-33zM117,139h195v1h-195zM462,139h33v1h-33zM17,140h33v1h-33zM115,140h199v1h-199zM462,140h33v1h-33zM17,141h33v1h-33zM114,141h202v1h-202zM462,141h33v1h-33zM17,142h33v1h-33zM112,142h206v1h-206zM462,142h33v1h-33zM17,143h33v1h-33zM111,143h208v1h-208zM462,143h33v1h-33zM16,144h33v1h-33zM110,144h210v1h-210zM463,144h33v1h-33zM16,145h33v1h-33zM108,145h213v1h-213zM463,145h33v1h-33zM16,146h33v1h-33zM107,146h215v1h-215zM463,146h33v1h-33zM16,147h33v1h-33zM106,147h217v1h-217zM463,147h33v1h-33zM16,148h33v1h-33zM105,148h219v1h-219zM463,148h33v1h-33zM16,149h33v1h-33zM105,149h220v1h-220zM463,149h33v1h-33zM16,150h33v1h-33zM104,150h222v1h-222zM463,150h33v1h-33zM16,151h33v1h-33zM103,151h224v1h-224zM463,151h33v1h-33zM16,152h33v1h-33zM102,152h225v1h-225zM463,152h33v1h-33zM16,153h33v1h-33zM102,153h226v1h-226zM463,153h33v1h-33zM16,154h33v1h-33zM101,154h228v1h-228zM463,154h33v1h-33zM16,155h32v1h-32zM100,155h229v1h-229zM463,155h33v1h-33zM16,156h32v1h-32zM100,156h230v1h-230zM464,156h32v1h-32zM16,157h32v1h-32zM99,157h231v1h-231zM464,157h32v1h-32zM16,158h32v1h-32zM99,158h232v1h-232zM464,158h32v1h-32zM16,159h32v1h-32zM99,159h232v1h-232zM464,159h32v1h-32zM16,160h32v1h-32zM98,160h234v1h-234zM464,160h32v1h-32zM16,161h32v1h-32zM98,161h234v1h-234zM464,161h32v1h-32zM16,162h32v1h-32zM97,162h235v1h-235zM464,162h32v1h-32zM16,163h32v1h-32zM97,163h236v1h-236zM464,163h32v1h-32zM16,164h32v1h-32zM97,164h236v1h-236zM464,164h32v1h-32zM16,165h32v1h-32zM97,165h236v1h-236zM464,165h32v1h-32zM16,166h32v1h-32zM96,166h237v1h-237zM464,166h32v1h-32zM16,167h32v1h-32zM96,167h237v1h-237zM464,167h32v1h-32zM16,168h32v1h-32zM96,168h37v1h-37zM198,168h33v1h-33zM297,168h37v1h-37zM464,168h32v1h-32zM16,169h32v1h-32zM96,169h35v1h-35zM198,169h33v1h-33zM299,169h35v1h-35zM464,169h32v1h-32zM16,170h32v1h-32zM96,170h34v1h-34zM198,170h33v1h-33zM300,170h34v1h-34zM464,170h32v1h-32zM16,171h32v1h-32zM96,171h33v1h-33zM198,171h33v1h-33zM301,171h33v1h-33zM464,171h32v1h-32zM16,172h32v1h-32zM96,172h33v1h-33zM198,172h33v1h-33zM301,172h33v1h-33zM464,172h32v1h-32zM16,173h32v1h-32zM96,173h32v1h-32zM198,173h33v1h-33zM301,173h33v1h-33zM464,173h32v1h-32zM16,174h32v1h-32zM96,174h32v1h-32zM198,174h33v1h-33zM301,174h33v1h-33zM464,174h32v1h-32zM16,175h32v1h-32zM96,175h32v1h-32zM198,175h33v1h-33zM301,175h33v1h-33zM464,175h32v1h-32zM16,176h32v1h-32zM96,176h32v1h-32zM198,176h33v1h-33zM301,176h33v1h-33zM464,176h32v1h-32zM16,177h32v1h-32zM96,177h32v1h-32zM198,177h33v1h-33zM301,177h33v1h-33zM464,177h32v1h-32zM16,178h32v1h-32zM96,178h32v1h-32zM198,178h33v1h-33zM301,178h33v1h-33zM464,178h32v1h-32zM16,179h32v1h-32zM96,179h32v1h-32zM198,179h33v1h-33zM301,179h33v1h-33zM464,179h32v1h-32zM16,180h32v1h-32zM96,180h32v1h-32zM198,180h33v1h-33zM301,180h33v1h-33zM464,180h32v1h-32zM16,181h32v1h-32zM96,181h32v1h-32zM198,181h33v1h-33zM301,181h33v1h-33zM464,181h32v1h-32zM16,182h32v1h-32zM96,182h32v1h-32zM198,182h33v1h-33zM301,182h33v1h-33zM464,182h32v1h-32zM16,183h32v1h-32zM96,183h32v1h-32zM198,183h33v1h-33zM301,183h33v1h-33zM464,183h32v1h-32zM16,184h32v1h-32zM96,184h32v1h-32zM198,184h33v1h-33zM302,184h32v1h-32zM464,184h32v1h-32zM16,185h32v1h-32zM96,185h32v1h-32zM198,185h33v1h-33zM302,185h32v1h-32zM464,185h32v1h-32zM16,186h32v1h-32zM96,186h32v1h-32zM198,186h33v1h-33zM302,186h31v1h-31zM464,186h32v1h-32zM16,187h32v1h-32zM97,187h30v1h-30zM198,187h33v1h-33zM302,187h31v1h-31zM464,187h32v1h-32zM16,188h32v1h-32zM97,188h30v1h-30zM198,188h33v1h-33zM303,188h30v1h-30zM464,188h32v1h-32zM16,189h32v1h-32zM98,189h28v1h-28zM198,189h33v1h-33zM303,189h29v1h-29zM464,189h32v1h-32zM16,190h32v1h-32zM98,190h28v1h-28zM198,190h33v1h-33zM304,190h27v1h-27zM464,190h32v1h-32zM16,191h32v1h-32zM99,191h26v1h-26zM198,191h33v1h-33zM305,191h26v1h-26zM464,191h32v1h-32zM16,192h32v1h-32zM100,192h24v1h-24zM198,192h33v1h-33zM305,192h25v1h-25zM464,192h32v1h-32zM16,193h32v1h-32zM101,193h22v1h-22zM198,193h33v1h-33zM306,193h23v1h-23zM464,193h32v1h-32zM16,194h32v1h-32zM102,194h20v1h-20zM198,194h33v1h-33zM308,194h20v1h-20zM464,194h32v1h-32zM16,195h32v1h-32zM103,195h18v1h-18zM198,195h33v1h-33zM309,195h17v1h-17zM464,195h32v1h-32zM16,196h32v1h-32zM105,196h14v1h-14zM198,196h33v1h-33zM311,196h14v1h-14zM464,196h32v1h-32zM16,197h32v1h-32zM108,197h8v1h-8zM198,197h33v1h-33zM313,197h9v1h-9zM464,197h32v1h-32zM16,198h32v1h-32zM198,198h33v1h-33zM464,198h32v1h-32zM16,199h32v1h-32zM198,199h33v1h-33zM464,199h32v1h-32zM16,200h32v1h-32zM198,200h33v1h-33zM464,200h32v1h-32zM16,201h32v1h-32zM198,201h33v1h-33zM464,201h32v1h-32zM16,202h32v1h-32zM198,202h33v1h-33zM464,202h32v1h-32zM16,203h32v1h-32zM198,203h33v1h-33zM464,203h32v1h-32zM16,204h32v1h-32zM198,204h33v1h-33zM464,204h32v1h-32zM16,205h32v1h-32zM198,205h33v1h-33zM464,205h32v1h-32zM16,206h32v1h-32zM198,206h33v1h-33zM464,206h32v1h-32zM16,207h32v1h-32zM198,207h33v1h-33zM464,207h32v1h-32zM16,208h32v1h-32zM198,208h33v1h-33zM464,208h32v1h-32zM16,209h32v1h-32zM198,209h33v1h-33zM464,209h32v1h-32zM16,210h32v1h-32zM198,210h33v1h-33zM464,210h32v1h-32zM16,211h32v1h-32zM198,211h33v1h-33zM464,211h32v1h-32zM16,212h32v1h-32zM198,212h33v1h-33zM464,212h32v1h-32zM16,213h32v1h-32zM198,213h33v1h-33zM464,213h32v1h-32zM16,214h32v1h-32zM198,214h33v1h-33zM464,214h32v1h-32zM16,215h32v1h-32zM198,215h33v1h-33zM464,215h32v1h-32zM16,216h32v1h-32zM198,216h33v1h-33zM464,216h32v1h-32zM16,217h32v1h-32zM198,217h33v1h-33zM464,217h32v1h-32zM16,218h32v1h-32zM198,218h33v1h-33zM464,218h32v1h-32zM16,219h32v1h-32zM198,219h33v1h-33zM464,219h32v1h-32zM16,220h32v1h-32zM198,220h33v1h-33zM464,220h32v1h-32zM16,221h32v1h-32zM198,221h33v1h-33zM464,221h32v1h-32zM16,222h32v1h-32zM198,222h33v1h-33zM464,222h32v1h-32zM16,223h32v1h-32zM198,223h33v1h-33zM464,223h32v1h-32zM16,224h32v1h-32zM198,224h33v1h-33zM464,224h32v1h-32zM16,225h32v1h-32zM198,225h33v1h-33zM464,225h32v1h-32zM16,226h32v1h-32zM198,226h33v1h-33zM464,226h32v1h-32zM16,227h32v1h-32zM198,227h33v1h-33zM464,227h32v1h-32zM16,228h32v1h-32zM198,228h33v1h-33zM464,228h32v1h-32zM16,229h32v1h-32zM198,229h33v1h-33zM295,229h97v1h-97zM464,229h32v1h-32zM16,230h32v1h-32zM198,230h33v1h-33zM291,230h105v1h-105zM464,230h32v1h-32zM16,231h32v1h-32zM198,231h33v1h-33zM288,231h111v1h-111zM464,231h32v1h-32zM16,232h32v1h-32zM198,232h33v1h-33zM286,232h115v1h-115zM464,232h32v1h-32zM16,233h32v1h-32zM198,233h33v1h-33zM284,233h119v1h-119zM464,233h32v1h-32zM16,234h32v1h-32zM198,234h33v1h-33zM283,234h121v1h-121zM464,234h32v1h-32zM16,235h32v1h-32zM198,235h33v1h-33zM281,235h125v1h-125zM464,235h32v1h-32zM16,236h32v1h-32zM198,236h33v1h-33zM280,236h127v1h-127zM464,236h32v1h-32zM16,237h32v1h-32zM198,237h33v1h-33zM279,237h129v1h-129zM464,237h32v1h-32zM16,238h32v1h-32zM198,238h33v1h-33zM278,238h131v1h-131zM464,238h32v1h-32zM16,239h32v1h-32zM198,239h33v1h-33zM277,239h133v1h-133zM464,239h32v1h-32zM16,240h32v1h-32zM198,240h33v1h-33zM276,240h135v1h-135zM464,240h32v1h-32zM16,241h32v1h-32zM198,241h33v1h-33zM276,241h135v1h-135zM464,241h32v1h-32zM16,242h32v1h-32zM198,242h33v1h-33zM275,242h137v1h-137zM464,242h32v1h-32zM16,243h32v1h-32zM198,243h33v1h-33zM274,243h138v1h-138zM464,243h32v1h-32zM16,244h32v1h-32zM198,244h33v1h-33zM274,244h139v1h-139zM464,244h32v1h-32zM16,245h32v1h-32zM198,245h33v1h-33zM273,245h141v1h-141zM464,245h32v1h-32zM16,246h32v1h-32zM198,246h33v1h-33zM273,246h141v1h-141zM464,246h32v1h-32zM16,247h32v1h-32zM198,247h33v1h-33zM272,247h142v1h-142zM464,247h32v1h-32zM16,248h32v1h-32zM198,248h33v1h-33zM272,248h143v1h-143zM464,248h32v1h-32zM16,249h32v1h-32zM198,249h33v1h-33zM272,249h143v1h-143zM464,249h32v1h-32zM16,250h32v1h-32zM198,250h33v1h-33zM271,250h144v1h-144zM464,250h32v1h-32zM16,251h32v1h-32zM198,251h33v1h-33zM271,251h145v1h-145zM464,251h32v1h-32zM16,252h32v1h-32zM198,252h33v1h-33zM271,252h145v1h-145zM464,252h32v1h-32zM16,253h32v1h-32zM198,253h33v1h-33zM271,253h145v1h-145zM464,253h32v1h-32zM16,254h32v1h-32zM198,254h33v1h-33zM271,254h145v1h-145zM464,254h32v1h-32zM16,255h32v1h-32zM198,255h33v1h-33zM271,255h145v1h-145zM464,255h32v1h-32zM16,256h32v1h-32zM198,256h33v1h-33zM271,256h145v1h-145zM464,256h32v1h-32zM16,257h32v1h-32zM198,257h33v1h-33zM270,257h146v1h-146zM464,257h32v1h-32zM16,258h32v1h-32zM198,258h33v1h-33zM270,258h146v1h-146zM464,258h32v1h-32zM16,259h32v1h-32zM198,259h33v1h-33zM270,259h146v1h-146zM464,259h32v1h-32zM16,260h32v1h-32zM198,260h33v1h-33zM270,260h146v1h-146zM464,260h32v1h-32zM16,261h32v1h-32zM198,261h33v1h-33zM270,261h146v1h-146zM464,261h32v1h-32zM16,262h32v1h-32zM198,262h33v1h-33zM270,262h33v1h-33zM327,262h33v1h-33zM384,262h32v1h-32zM464,262h32v1h-32zM16,263h32v1h-32zM198,263h33v1h-33zM271,263h32v1h-32zM327,263h33v1h-33zM384,263h32v1h-32zM464,263h32v1h-32zM16,264h32v1h-32zM198,264h33v1h-33zM271,264h32v1h-32zM327,264h33v1h-33zM384,264h32v1h-32zM464,264h32v1h-32zM16,265h32v1h-32zM198,265h33v1h-33zM271,265h32v1h-32zM327,265h33v1h-33zM384,265h32v1h-32zM464,265h32v1h-32zM16,266h32v1h-32zM198,266h33v1h-33zM271,266h32v1h-32zM327,266h33v1h-33zM384,266h32v1h-32zM464,266h32v1h-32zM16,267h32v1h-32zM198,267h33v1h-33zM271,267h31v1h-31zM327,267h33v1h-33zM385,267h30v1h-30zM464,267h32v1h-32zM16,268h32v1h-32zM198,268h33v1h-33zM272,268h30v1h-30zM327,268h33v1h-33zM385,268h30v1h-30zM464,268h32v1h-32zM16,269h32v1h-32zM198,269h33v1h-33zM272,269h29v1h-29zM327,269h33v1h-33zM385,269h29v1h-29zM464,269h32v1h-32zM16,270h32v1h-32zM198,270h33v1h-33zM273,270h28v1h-28zM327,270h33v1h-33zM386,270h28v1h-28zM464,270h32v1h-32zM16,271h32v1h-32zM198,271h33v1h-33zM274,271h26v1h-26zM327,271h33v1h-33zM387,271h26v1h-26zM464,271h32v1h-32zM16,272h32v1h-32zM198,272h33v1h-33zM274,272h25v1h-25zM327,272h33v1h-33zM388,272h24v1h-24zM464,272h32v1h-32zM16,273h32v1h-32zM198,273h33v1h-33zM275,273h23v1h-23zM327,273h33v1h-33zM388,273h24v1h-24zM464,273h32v1h-32zM16,274h32v1h-32zM198,274h33v1h-33zM277,274h20v1h-20zM327,274h33v1h-33zM390,274h20v1h-20zM464,274h32v1h-32zM16,275h32v1h-32zM198,275h33v1h-33zM278,275h18v1h-18zM327,275h33v1h-33zM391,275h18v1h-18zM464,275h32v1h-32zM16,276h32v1h-32zM198,276h33v1h-33zM280,276h14v1h-14zM327,276h33v1h-33zM393,276h14v1h-14zM464,276h32v1h-32zM16,277h32v1h-32zM198,277h33v1h-33zM282,277h10v1h-10zM327,277h33v1h-33zM395,277h10v1h-10zM464,277h32v1h-32zM16,278h32v1h-32zM198,278h33v1h-33zM327,278h33v1h-33zM464,278h32v1h-32zM16,279h32v1h-32zM198,279h33v1h-33zM327,279h33v1h-33zM464,279h32v1h-32zM16,280h32v1h-32zM198,280h33v1h-33zM327,280h33v1h-33zM464,280h32v1h-32zM16,281h32v1h-32zM198,281h33v1h-33zM327,281h33v1h-33zM464,281h32v1h-32zM16,282h32v1h-32zM198,282h33v1h-33zM327,282h33v1h-33zM464,282h32v1h-32zM16,283h32v1h-32zM198,283h33v1h-33zM327,283h33v1h-33zM464,283h32v1h-32zM16,284h32v1h-32zM198,284h33v1h-33zM327,284h33v1h-33zM464,284h32v1h-32zM16,285h32v1h-32zM198,285h33v1h-33zM327,285h33v1h-33zM464,285h32v1h-32zM16,286h32v1h-32zM198,286h33v1h-33zM327,286h33v1h-33zM464,286h32v1h-32zM16,287h32v1h-32zM198,287h33v1h-33zM327,287h33v1h-33zM464,287h32v1h-32zM16,288h32v1h-32zM198,288h33v1h-33zM327,288h33v1h-33zM464,288h32v1h-32zM16,289h32v1h-32zM198,289h33v1h-33zM327,289h33v1h-33zM464,289h32v1h-32zM16,290h32v1h-32zM198,290h33v1h-33zM327,290h33v1h-33zM464,290h32v1h-32zM16,291h32v1h-32zM198,291h33v1h-33zM327,291h33v1h-33zM464,291h32v1h-32zM16,292h32v1h-32zM198,292h33v1h-33zM327,292h33v1h-33zM464,292h32v1h-32zM16,293h32v1h-32zM198,293h33v1h-33zM327,293h33v1h-33zM464,293h32v1h-32zM16,294h32v1h-32zM198,294h33v1h-33zM327,294h33v1h-33zM464,294h32v1h-32zM16,295h32v1h-32zM198,295h33v1h-33zM327,295h33v1h-33zM464,295h32v1h-32zM16,296h32v1h-32zM198,296h33v1h-33zM327,296h33v1h-33zM464,296h32v1h-32zM16,297h32v1h-32zM198,297h33v1h-33zM327,297h33v1h-33zM464,297h32v1h-32zM16,298h32v1h-32zM198,298h33v1h-33zM327,298h33v1h-33zM464,298h32v1h-32zM16,299h32v1h-32zM198,299h33v1h-33zM327,299h33v1h-33zM464,299h32v1h-32zM16,300h32v1h-32zM198,300h33v1h-33zM327,300h33v1h-33zM464,300h32v1h-32zM16,301h32v1h-32zM198,301h33v1h-33zM327,301h33v1h-33zM464,301h32v1h-32zM16,302h32v1h-32zM198,302h33v1h-33zM327,302h33v1h-33zM464,302h32v1h-32zM16,303h32v1h-32zM198,303h33v1h-33zM327,303h33v1h-33zM464,303h32v1h-32zM16,304h32v1h-32zM198,304h33v1h-33zM327,304h33v1h-33zM464,304h32v1h-32zM16,305h32v1h-32zM198,305h33v1h-33zM327,305h33v1h-33zM464,305h32v1h-32zM16,306h32v1h-32zM198,306h33v1h-33zM327,306h33v1h-33zM464,306h32v1h-32zM16,307h32v1h-32zM198,307h33v1h-33zM327,307h33v1h-33zM464,307h32v1h-32zM16,308h32v1h-32zM198,308h33v1h-33zM327,308h33v1h-33zM464,308h32v1h-32zM16,309h32v1h-32zM198,309h33v1h-33zM327,309h33v1h-33zM464,309h32v1h-32zM16,310h32v1h-32zM198,310h33v1h-33zM327,310h33v1h-33zM464,310h32v1h-32zM16,311h32v1h-32zM198,311h33v1h-33zM327,311h33v1h-33zM464,311h32v1h-32zM16,312h32v1h-32zM198,312h33v1h-33zM327,312h33v1h-33zM464,312h32v1h-32zM16,313h32v1h-32zM198,313h33v1h-33zM327,313h33v1h-33zM464,313h32v1h-32zM16,314h32v1h-32zM198,314h33v1h-33zM327,314h33v1h-33zM464,314h32v1h-32zM16,315h32v1h-32zM198,315h33v1h-33zM327,315h33v1h-33zM464,315h32v1h-32zM16,316h32v1h-32zM198,316h33v1h-33zM327,316h33v1h-33zM464,316h32v1h-32zM16,317h32v1h-32zM198,317h33v1h-33zM327,317h33v1h-33zM464,317h32v1h-32zM16,318h32v1h-32zM198,318h33v1h-33zM327,318h33v1h-33zM464,318h32v1h-32zM16,319h32v1h-32zM198,319h33v1h-33zM327,319h33v1h-33zM464,319h32v1h-32zM16,320h32v1h-32zM198,320h33v1h-33zM327,320h33v1h-33zM464,320h32v1h-32zM16,321h32v1h-32zM198,321h33v1h-33zM327,321h33v1h-33zM464,321h32v1h-32zM16,322h32v1h-32zM198,322h33v1h-33zM327,322h33v1h-33zM464,322h32v1h-32zM16,323h32v1h-32zM198,323h33v1h-33zM327,323h33v1h-33zM464,323h32v1h-32zM16,324h32v1h-32zM198,324h33v1h-33zM327,324h33v1h-33zM464,324h32v1h-32zM16,325h32v1h-32zM198,325h33v1h-33zM327,325h33v1h-33zM464,325h32v1h-32zM16,326h32v1h-32zM198,326h33v1h-33zM327,326h33v1h-33zM464,326h32v1h-32zM16,327h32v1h-32zM198,327h33v1h-33zM327,327h33v1h-33zM464,327h32v1h-32zM16,328h32v1h-32zM198,328h33v1h-33zM327,328h33v1h-33zM464,328h32v1h-32zM16,329h32v1h-32zM198,329h33v1h-33zM327,329h33v1h-33zM464,329h32v1h-32zM16,330h32v1h-32zM198,330h33v1h-33zM327,330h33v1h-33zM464,330h32v1h-32zM16,331h32v1h-32zM198,331h33v1h-33zM327,331h33v1h-33zM464,331h32v1h-32zM16,332h32v1h-32zM198,332h33v1h-33zM327,332h33v1h-33zM464,332h32v1h-32zM16,333h32v1h-32zM198,333h33v1h-33zM327,333h33v1h-33zM464,333h32v1h-32zM16,334h32v1h-32zM198,334h33v1h-33zM327,334h33v1h-33zM464,334h32v1h-32zM16,335h32v1h-32zM198,335h33v1h-33zM327,335h33v1h-33zM464,335h32v1h-32zM16,336h32v1h-32zM198,336h33v1h-33zM327,336h33v1h-33zM464,336h32v1h-32zM16,337h32v1h-32zM198,337h33v1h-33zM327,337h33v1h-33zM464,337h32v1h-32zM16,338h32v1h-32zM198,338h33v1h-33zM327,338h33v1h-33zM464,338h32v1h-32zM16,339h32v1h-32zM198,339h33v1h-33zM327,339h33v1h-33zM464,339h32v1h-32zM16,340h32v1h-32zM198,340h33v1h-33zM327,340h33v1h-33zM464,340h32v1h-32zM16,341h32v1h-32zM198,341h33v1h-33zM327,341h33v1h-33zM464,341h32v1h-32zM16,342h32v1h-32zM198,342h33v1h-33zM327,342h33v1h-33zM464,342h32v1h-32zM16,343h32v1h-32zM198,343h33v1h-33zM327,343h33v1h-33zM464,343h32v1h-32zM16,344h32v1h-32zM169,344h91v1h-91zM316,344h55v1h-55zM464,344h32v1h-32zM16,345h32v1h-32zM167,345h96v1h-96zM314,345h59v1h-59zM464,345h32v1h-32zM16,346h32v1h-32zM165,346h99v1h-99zM312,346h63v1h-63zM464,346h32v1h-32zM16,347h32v1h-32zM164,347h102v1h-102zM311,347h65v1h-65zM464,347h32v1h-32zM16,348h32v1h-32zM163,348h104v1h-104zM310,348h67v1h-67zM464,348h32v1h-32zM16,349h32v1h-32zM162,349h106v1h-106zM309,349h69v1h-69zM464,349h32v1h-32zM16,350h32v1h-32zM161,350h108v1h-108zM308,350h71v1h-71zM464,350h32v1h-32zM16,351h32v1h-32zM160,351h109v1h-109zM307,351h73v1h-73zM464,351h32v1h-32zM16,352h32v1h-32zM160,352h110v1h-110zM307,352h73v1h-73zM464,352h32v1h-32zM16,353h32v1h-32zM159,353h111v1h-111zM306,353h75v1h-75zM464,353h32v1h-32zM16,354h32v1h-32zM159,354h112v1h-112zM306,354h75v1h-75zM464,354h32v1h-32zM16,355h32v1h-32zM159,355h112v1h-112zM305,355h76v1h-76zM464,355h32v1h-32zM16,356h32v1h-32zM158,356h113v1h-113zM305,356h77v1h-77zM463,356h33v1h-33zM16,357h33v1h-33zM158,357h113v1h-113zM305,357h77v1h-77zM463,357h33v1h-33zM16,358h33v1h-33zM158,358h114v1h-114zM305,358h77v1h-77zM463,358h33v1h-33zM16,359h33v1h-33zM158,359h114v1h-114zM305,359h77v1h-77zM463,359h33v1h-33zM16,360h33v1h-33zM158,360h114v1h-114zM305,360h77v1h-77zM463,360h33v1h-33zM16,361h33v1h-33zM158,361h114v1h-114zM305,361h77v1h-77zM463,361h33v1h-33zM16,362h33v1h-33zM158,362h113v1h-113zM305,362h77v1h-77zM463,362h33v1h-33zM16,363h33v1h-33zM158,363h113v1h-113zM305,363h77v1h-77zM463,363h33v1h-33zM16,364h33v1h-33zM159,364h112v1h-112zM305,364h76v1h-76zM463,364h33v1h-33zM16,365h33v1h-33zM159,365h112v1h-112zM306,365h75v1h-75zM463,365h33v1h-33zM16,366h33v1h-33zM159,366h111v1h-111zM306,366h75v1h-75zM463,366h33v1h-33zM16,367h33v1h-33zM160,367h110v1h-110zM307,367h73v1h-73zM463,367h33v1h-33zM17,368h33v1h-33zM160,368h109v1h-109zM307,368h73v1h-73zM462,368h33v1h-33zM17,369h33v1h-33zM161,369h108v1h-108zM308,369h71v1h-71zM462,369h33v1h-33zM17,370h33v1h-33zM162,370h106v1h-106zM309,370h69v1h-69zM462,370h33v1h-33zM17,371h33v1h-33zM163,371h104v1h-104zM310,371h67v1h-67zM462,371h33v1h-33zM17,372h33v1h-33zM164,372h102v1h-102zM311,372h65v1h-65zM462,372h33v1h-33zM17,373h33v1h-33zM165,373h99v1h-99zM312,373h63v1h-63zM462,373h33v1h-33zM17,374h34v1h-34zM167,374h96v1h-96zM314,374h59v1h-59zM461,374h34v1h-34zM18,375h33v1h-33zM169,375h91v1h-91zM316,375h55v1h-55zM461,375h33v1h-33zM18,376h33v1h-33zM461,376h33v1h-33zM18,377h33v1h-33zM461,377h33v1h-33zM18,378h34v1h-34zM460,378h34v1h-34zM18,379h34v1h-34zM460,379h34v1h-34zM18,380h34v1h-34zM460,380h34v1h-34zM19,381h33v1h-33zM460,381h33v1h-33zM19,382h34v1h-34zM459,382h34v1h-34zM19,383h34v1h-34zM459,383h34v1h-34zM19,384h34v1h-34zM459,384h34v1h-34zM20,385h33v1h-33zM458,385h34v1h-34zM20,386h34v1h-34zM458,386h34v1h-34zM20,387h34v1h-34zM458,387h34v1h-34zM20,388h35v1h-35zM457,388h35v1h-35zM21,389h34v1h-34zM457,389h34v1h-34zM21,390h34v1h-34zM457,390h34v1h-34zM21,391h35v1h-35zM456,391h35v1h-35zM21,392h35v1h-35zM456,392h35v1h-35zM22,393h34v1h-34zM456,393h34v1h-34zM22,394h35v1h-35zM455,394h35v1h-35zM22,395h35v1h-35zM455,395h35v1h-35zM23,396h35v1h-35zM454,396h35v1h-35zM23,397h35v1h-35zM454,397h35v1h-35zM23,398h36v1h-36zM453,398h36v1h-36zM24,399h35v1h-35zM453,399h35v1h-35zM24,400h35v1h-35zM453,400h35v1h-35zM24,401h36v1h-36zM452,401h36v1h-36zM25,402h35v1h-35zM452,402h35v1h-35zM25,403h36v1h-36zM451,403h36v1h-36zM26,404h35v1h-35zM451,404h35v1h-35zM26,405h36v1h-36zM450,405h36v1h-36zM26,406h37v1h-37zM449,406h37v1h-37zM27,407h36v1h-36zM449,407h36v1h-36zM27,408h37v1h-37zM448,408h37v1h-37zM28,409h36v1h-36zM448,409h36v1h-36zM28,410h37v1h-37zM447,410h37v1h-37zM28,411h38v1h-38zM446,411h38v1h-38zM29,412h37v1h-37zM446,412h37v1h-37zM29,413h38v1h-38zM445,413h38v1h-38zM30,414h37v1h-37zM444,414h38v1h-38zM30,415h38v1h-38zM444,415h38v1h-38zM31,416h38v1h-38zM443,416h38v1h-38zM31,417h39v1h-39zM442,417h39v1h-39zM32,418h38v1h-38zM442,418h38v1h-38zM32,419h39v1h-39zM441,419h39v1h-39zM33,420h39v1h-39zM440,420h39v1h-39zM33,421h40v1h-40zM439,421h40v1h-40zM34,422h39v1h-39zM439,422h39v1h-39zM35,423h39v1h-39zM438,423h39v1h-39zM35,424h40v1h-40zM437,424h40v1h-40zM36,425h40v1h-40zM436,425h40v1h-40zM36,426h41v1h-41zM435,426h41v1h-41zM37,427h41v1h-41zM434,427h41v1h-41zM38,428h41v1h-41zM433,428h41v1h-41zM38,429h42v1h-42zM432,429h42v1h-42zM39,430h42v1h-42zM431,430h42v1h-42zM40,431h42v1h-42zM430,431h42v1h-42zM40,432h43v1h-43zM429,432h43v1h-43zM41,433h43v1h-43zM428,433h43v1h-43zM42,434h43v1h-43zM427,434h43v1h-43zM42,435h44v1h-44zM426,435h44v1h-44zM43,436h44v1h-44zM425,436h44v1h-44zM44,437h44v1h-44zM424,437h44v1h-44zM44,438h45v1h-45zM423,438h45v1h-45zM45,439h46v1h-46zM421,439h46v1h-46zM46,440h46v1h-46zM420,440h46v1h-46zM47,441h46v1h-46zM419,441h46v1h-46zM48,442h47v1h-47zM417,442h47v1h-47zM48,443h48v1h-48zM416,443h48v1h-48zM49,444h48v1h-48zM414,444h49v1h-49zM50,445h49v1h-49zM413,445h49v1h-49zM51,446h50v1h-50zM411,446h50v1h-50zM52,447h50v1h-50zM410,447h50v1h-50zM53,448h51v1h-51zM408,448h51v1h-51zM54,449h52v1h-52zM406,449h52v1h-52zM55,450h52v1h-52zM405,450h52v1h-52zM55,451h54v1h-54zM403,451h54v1h-54zM56,452h55v1h-55zM401,452h55v1h-55zM57,453h57v1h-57zM398,453h57v1h-57zM58,454h58v1h-58zM396,454h58v1h-58zM59,455h59v1h-59zM394,455h59v1h-59zM60,456h61v1h-61zM391,456h61v1h-61zM62,457h62v1h-62zM388,457h62v1h-62zM63,458h63v1h-63zM385,458h64v1h-64zM64,459h66v1h-66zM382,459h66v1h-66zM65,460h69v1h-69zM378,460h69v1h-69zM66,461h72v1h-72zM374,461h72v1h-72zM67,462h77v1h-77zM368,462h77v1h-77zM68,463h88v1h-88zM356,463h88v1h-88zM70,464h372v1h-372zM71,465h370v1h-370zM72,466h368v1h-368zM73,467h366v1h-366zM75,468h362v1h-362zM76,469h360v1h-360zM78,470h356v1h-356zM79,471h354v1h-354zM81,472h350v1h-350zM82,473h348v1h-348zM84,474h344v1h-344zM85,475h342v1h-342zM87,476h338v1h-338zM89,477h334v1h-334zM90,478h332v1h-332zM92,479h328v1h-328zM94,480h324v1h-324zM96,481h320v1h-320zM98,482h316v1h-316zM100,483h312v1h-312zM103,484h306v1h-306zM105,485h302v1h-302zM108,486h296v1h-296zM110,487h292v1h-292zM113,488h286v1h-286zM116,489h280v1h-280zM119,490h274v1h-274zM123,491h266v1h-266zM127,492h258v1h-258zM131,493h250v1h-250zM137,494h238v1h-238zM144,495h224v1h-224z"/></svg>