<?xml version="1.0" encoding="UTF-8"?>
<svg xmlns="http://www.w3.org/2000/svg" viewBox="0 0 512 512" width="512" height="512"><path fill="#000" d="M104,42h6v1h-6zM402,42h6v1h-6zM100,43h14v1h-14zM398,43h14v1h-14zM97,44h19v1h-19zM396,44h19v1h-19zM95,45h23v1h-23zM394,45h23v1h-23zM94,46h25v1h-25zM393,46h25v1h-25zM93,47h28v1h-28zM391,47h28v1h-28zM91,48h31v1h-31zM390,48h31v1h-31zM91,49h32v1h-32zM389,49h32v1h-32zM90,50h34v1h-34zM388,50h34v1h-34zM89,51h35v1h-35zM388,51h35v1h-35zM88,52h37v1h-37zM387,52h37v1h-37zM88,53h38v1h-38zM386,53h38v1h-38zM87,54h39v1h-39zM386,54h39v1h-39zM87,55h40v1h-40zM385,55h40v1h-40zM86,56h41v1h-41zM385,56h41v1h-41zM86,57h41v1h-41zM385,57h41v1h-41zM86,58h42v1h-42zM384,58h42v1h-42zM85,59h43v1h-43zM384,59h43v1h-43zM85,60h43v1h-43zM384,60h43v1h-43zM85,61h43v1h-43zM384,61h43v1h-43zM85,62h43v1h-43zM384,62h43v1h-43zM85,63h43v1h-43zM384,63h43v1h-43zM85,64h43v1h-43zM384,64h43v1h-43zM85,65h43v1h-43zM384,65h43v1h-43zM85,66h43v1h-43zM384,66h43v1h-43zM85,67h43v1h-43zM384,67h43v1h-43zM85,68h43v1h-43zM384,68h43v1h-43zM85,69h43v1h-43zM384,69h43v1h-43zM85,70h43v1h-43zM384,70h43v1h-43zM85,71h43v1h-43zM384,71h43v1h-43zM85,72h43v1h-43zM384,72h43v1h-43zM85,73h43v1h-43zM384,73h43v1h-43zM85,74h43v1h-43zM384,74h43v1h-43zM85,75h43v1h-43zM384,75h43v1h-43zM85,76h43v1h-43zM384,76h43v1h-43zM85,77h43v1h-43zM384,77h43v1h-43zM85,78h43v1h-43zM384,78h43v1h-43zM85,79h43v1h-43zM384,79h43v1h-43zM85,80h43v1h-43zM384,80h43v1h-43zM85,81h43v1h-43zM384,81h43v1h-43zM85,82h43v1h-43zM384,82h43v1h-43zM85,83h43v1h-43zM384,83h43v1h-43zM85,84h43v1h-43zM384,84h43v1h-43zM85,85h43v1h-43zM384,85h43v1h-43zM85,86h43v1h-43zM384,86h43v1h-43zM85,87h43v1h-43zM384,87h43v1h-43zM85,88h43v1h-43zM384,88h43v1h-43zM85,89h43v1h-43zM384,89h43v1h-43zM85,90h43v1h-43zM384,90h43v1h-43zM85,91h43v1h-43zM384,91h43v1h-43zM85,92h43v1h-43zM384,92h43v1h-43zM85,93h43v1h-43zM384,93h43v1h-43zM85,94h43v1h-43zM384,94h43v1h-43zM85,95h43v1h-43zM384,95h43v1h-43zM85,96h43v1h-43zM384,96h43v1h-43zM85,97h43v1h-43zM384,97h43v1h-43zM85,98h43v1h-43zM384,98h43v1h-43zM85,99h43v1h-43zM384,99h43v1h-43zM85,100h43v1h-43zM384,100h43v1h-43zM85,101h43v1h-43zM384,101h43v1h-43zM85,102h43v1h-43zM384,102h43v1h-43zM85,103h43v1h-43zM384,103h43v1h-43zM85,104h43v1h-43zM384,104h43v1h-43zM85,105h43v1h-43zM384,105h43v1h-43zM85,106h43v1h-43zM384,106h43v1h-43zM85,107h43v1h-43zM384,107h43v1h-43zM85,108h43v1h-43zM384,108h43v1h-43zM85,109h43v1h-43zM384,109h43v1h-43zM85,110h43v1h-43zM384,110h43v1h-43zM85,111h43v1h-43zM384,111h43v1h-43zM85,112h43v1h-43zM384,112h43v1h-43zM85,113h43v1h-43zM384,113h43v1h-43zM85,114h43v1h-43zM384,114h43v1h-43zM85,115h43v1h-43zM384,115h43v1h-43zM85,116h43v1h-43zM384,116h43v1h-43zM85,117h43v1h-43zM384,117h43v1h-43zM85,118h43v1h-43zM384,118h43v1h-43zM85,119h43v1h-43zM384,119h43v1h-43zM85,120h43v1h-43zM384,120h43v1h-43zM85,121h43v1h-43zM384,121h43v1h-43zM85,122h43v1h-43zM384,122h43v1h-43zM85,123h43v1h-43zM384,123h43v1h-43zM85,124h43v1h-43zM384,124h43v1h-43zM85,125h43v1h-43zM384,125h43v1h-43zM85,126h43v1h-43zM384,126h43v1h-43zM85,127h43v1h-43zM384,127h43v1h-43zM85,128h43v1h-43zM384,128h43v1h-43zM85,129h43v1h-43zM384,129h43v1h-43zM85,130h43v1h-43zM384,130h43v1h-43zM85,131h43v1h-43zM384,131h43v1h-43zM85,132h43v1h-43zM384,132h43v1h-43zM85,133h43v1h-43zM384,133h43v1h-43zM85,134h43v1h-43zM384,134h43v1h-43zM85,135h43v1h-43zM384,135h43v1h-43zM85,136h43v1h-43zM384,136h43v1h-43zM85,137h43v1h-43zM384,137h43v1h-43zM85,138h43v1h-43zM384,138h43v1h-43zM85,139h43v1h-43zM384,139h43v1h-43zM85,140h43v1h-43zM384,140h43v1h-43zM85,141h43v1h-43zM384,141h43v1h-43zM85,142h43v1h-43zM384,142h43v1h-43zM85,143h43v1h-43zM384,143h43v1h-43zM85,144h43v1h-43zM384,144h43v1h-43zM85,145h43v1h-43zM384,145h43v1h-43zM85,146h43v1h-43zM384,146h43v1h-43zM85,147h43v1h-43zM384,147h43v1h-43zM85,148h43v1h-43zM384,148h43v1h-43zM85,149h43v1h-43zM384,149h43v1h-43zM85,150h43v1h-43zM384,150h43v1h-43zM85,151h43v1h-43zM384,151h43v1h-43zM85,152h43v1h-43zM384,152h43v1h-43zM85,153h43v1h-43zM384,153h43v1h-43zM85,154h43v1h-43zM384,154h43v1h-43zM85,155h43v1h-43zM384,155h43v1h-43zM85,156h43v1h-43zM384,156h43v1h-43zM85,157h43v1h-43zM384,157h43v1h-43zM85,158h43v1h-43zM384,158h43v1h-43zM85,159h43v1h-43zM384,159h43v1h-43zM85,160h43v1h-43zM384,160h43v1h-43zM85,161h43v1h-43zM384,161h43v1h-43zM85,162h43v1h-43zM384,162h43v1h-43zM85,163h43v1h-43zM384,163h43v1h-43zM85,164h43v1h-43zM384,164h43v1h-43zM85,165h43v1h-43zM384,165h43v1h-43zM85,166h43v1h-43zM384,166h43v1h-43zM85,167h43v1h-43zM384,167h43v1h-43zM85,168h43v1h-43zM384,168h43v1h-43zM85,169h43v1h-43zM384,169h43v1h-43zM85,170h43v1h-43zM384,170h43v1h-43zM85,171h43v1h-43zM384,171h43v1h-43zM85,172h43v1h-43zM384,172h43v1h-43zM85,173h43v1h-43zM384,173h43v1h-43zM85,174h43v1h-43zM384,174h43v1h-43zM85,175h43v1h-43zM384,175h43v1h-43zM85,176h43v1h-43zM384,176h43v1h-43zM85,177h43v1h-43zM384,177h43v1h-43zM85,178h43v1h-43zM384,178h43v1h-43zM85,179h43v1h-43zM384,179h43v1h-43zM85,180h43v1h-43zM384,180h43v1h-43zM85,181h43v1h-43zM384,181h43v1h-43zM85,182h43v1h-43zM384,182h43v1h-43zM85,183h43v1h-43zM384,183h43v1h-43zM85,184h43v1h-43zM384,184h43v1h-43zM85,185h43v1h-43zM384,185h43v1h-43zM85,186h43v1h-43zM384,186h43v1h-43zM85,187h43v1h-43zM384,187h43v1h-43zM85,188h43v1h-43zM384,188h43v1h-43zM85,189h43v1h-43zM384,189h43v1h-43zM85,190h43v1h-43zM384,190h43v1h-43zM85,191h43v1h-43zM384,191h43v1h-43zM85,192h43v1h-43zM384,192h43v1h-43zM85,193h43v1h-43zM384,193h43v1h-43zM85,194h43v1h-43zM384,194h43v1h-43zM85,195h43v1h-43zM384,195h43v1h-43zM85,196h43v1h-43zM384,196h43v1h-43zM85,197h43v1h-43zM384,197h43v1h-43zM85,198h43v1h-43zM384,198h43v1h-43zM85,199h43v1h-43zM384,199h43v1h-43zM85,200h43v1h-43zM384,200h43v1h-43zM85,201h43v1h-43zM384,201h43v1h-43zM85,202h43v1h-43zM384,202h43v1h-43zM85,203h43v1h-43zM384,203h43v1h-43zM85,204h43v1h-43zM384,204h43v1h-43zM85,205h43v1h-43zM384,205h43v1h-43zM85,206h43v1h-43zM384,206h43v1h-43zM85,207h43v1h-43zM384,207h43v1h-43zM85,208h43v1h-43zM384,208h43v1h-43zM85,209h43v1h-43zM384,209h43v1h-43zM85,210h43v1h-43zM384,210h43v1h-43zM85,211h43v1h-43zM384,211h43v1h-43zM85,212h43v1h-43zM384,212h43v1h-43zM85,213h43v1h-43zM384,213h43v1h-43zM85,214h43v1h-43zM384,214h43v1h-43zM85,215h43v1h-43zM384,215h43v1h-43zM85,216h43v1h-43zM384,216h43v1h-43zM85,217h43v1h-43zM384,217h43v1h-43zM85,218h43v1h-43zM384,218h43v1h-43zM85,219h43v1h-43zM384,219h43v1h-43zM85,220h43v1h-43zM384,220h43v1h-43zM85,221h43v1h-43zM384,221h43v1h-43zM85,222h43v1h-43zM384,222h43v1h-43zM85,223h43v1h-43zM384,223h43v1h-43zM85,224h43v1h-43zM384,224h43v1h-43zM85,225h43v1h-43zM384,225h43v1h-43zM85,226h43v1h-43zM384,226h43v1h-43zM85,227h43v1h-43zM384,227h43v1h-43zM85,228h43v1h-43zM384,228h43v1h-43zM85,229h43v1h-43zM384,229h43v1h-43zM85,230h43v1h-43zM384,230h43v1h-43zM85,231h43v1h-43zM384,231h43v1h-43zM85,232h43v1h-43zM384,232h43v1h-43zM85,233h43v1h-43zM384,233h43v1h-43zM85,234h43v1h-43zM384,234h43v1h-43zM85,235h43v1h-43zM384,235h43v1h-43zM85,236h43v1h-43zM384,236h43v1h-43zM85,237h43v1h-43zM384,237h43v1h-43zM85,238h43v1h-43zM384,238h43v1h-43zM85,239h44v1h-44zM383,239h44v1h-44zM85,240h44v1h-44zM383,240h44v1h-44zM85,241h44v1h-44zM383,241h44v1h-44zM85,242h44v1h-44zM383,242h44v1h-44zM85,243h44v1h-44zM383,243h44v1h-44zM85,244h44v1h-44zM383,244h44v1h-44zM85,245h44v1h-44zM383,245h44v1h-44zM85,246h44v1h-44zM383,246h44v1h-44zM85,247h44v1h-44zM383,247h44v1h-44zM86,248h43v1h-43zM383,248h43v1h-43zM86,249h43v1h-43zM383,249h43v1h-43zM86,250h43v1h-43zM383,250h43v1h-43zM86,251h44v1h-44zM382,251h44v1h-44zM86,252h44v1h-44zM382,252h44v1h-44zM86,253h44v1h-44zM382,253h44v1h-44zM86,254h44v1h-44zM382,254h44v1h-44zM86,255h44v1h-44zM382,255h44v1h-44zM86,256h44v1h-44zM382,256h44v1h-44zM87,257h43v1h-43zM382,257h43v1h-43zM87,258h44v1h-44zM381,258h44v1h-44zM87,259h44v1h-44zM381,259h44v1h-44zM87,260h44v1h-44zM381,260h44v1h-44zM87,261h44v1h-44zM381,261h44v1h-44zM87,262h44v1h-44zM381,262h44v1h-44zM87,263h45v1h-45zM380,263h45v1h-45zM88,264h44v1h-44zM380,264h44v1h-44zM88,265h44v1h-44zM380,265h44v1h-44zM88,266h44v1h-44zM380,266h44v1h-44zM88,267h45v1h-45zM379,267h45v1h-45zM88,268h45v1h-45zM379,268h45v1h-45zM89,269h44v1h-44zM379,269h44v1h-44zM89,270h45v1h-45zM378,270h45v1h-45zM89,271h45v1h-45zM378,271h45v1h-45zM89,272h45v1h-45zM378,272h45v1h-45zM89,273h45v1h-45zM378,273h45v1h-45zM90,274h45v1h-45zM377,274h45v1h-45zM90,275h45v1h-45zM377,275h45v1h-45zM90,276h45v1h-45zM377,276h45v1h-45zM90,277h46v1h-46zM376,277h46v1h-46zM91,278h45v1h-45zM376,278h45v1h-45zM91,279h45v1h-45zM376,279h45v1h-45zM91,280h46v1h-46zM375,280h46v1h-46zM92,281h45v1h-45zM375,281h45v1h-45zM92,282h46v1h-46zM374,282h46v1h-46zM92,283h46v1h-46zM374,283h46v1h-46zM92,284h46v1h-46zM374,284h46v1h-46zM93,285h46v1h-46zM373,285h46v1h-46zM93,286h46v1h-46zM373,286h46v1h-46zM93,287h47v1h-47zM372,287h47v1h-47zM94,288h46v1h-46zM372,288h46v1h-46zM94,289h47v1h-47zM371,289h47v1h-47zM94,290h47v1h-47zM371,290h47v1h-47zM95,291h47v1h-47zM370,291h47v1h-47zM95,292h47v1h-47zM370,292h47v1h-47zM95,293h48v1h-48zM369,293h48v1h-48zM96,294h47v1h-47zM369,294h47v1h-47zM96,295h48v1h-48zM368,295h48v1h-48zM97,296h47v1h-47zM368,296h47v1h-47zM97,297h48v1h-48zM367,297h48v1h-48zM97,298h49v1h-49zM367,298h48v1h-48zM98,299h48v1h-48zM366,299h48v1h-48zM98,300h49v1h-49zM365,300h49v1h-49zM99,301h48v1h-48zM365,301h48v1h-48zM99,302h49v1h-49zM364,302h49v1h-49zM99,303h50v1h-50zM363,303h50v1h-50zM100,304h49v1h-49zM363,304h49v1h-49zM100,305h50v1h-50zM362,305h50v1h-50zM101,306h49v1h-49zM361,306h50v1h-50zM101,307h50v1h-50zM361,307h50v1h-50zM102,308h50v1h-50zM360,308h50v1h-50zM102,309h51v1h-51zM359,309h51v1h-51zM103,310h50v1h-50zM359,310h50v1h-50zM103,311h51v1h-51zM358,311h51v1h-51zM104,312h51v1h-51zM357,312h51v1h-51zM104,313h52v1h-52zM356,313h52v1h-52zM105,314h51v1h-51zM356,314h51v1h-51zM105,315h52v1h-52zM355,315h52v1h-52zM106,316h52v1h-52zM354,316h52v1h-52zM106,317h53v1h-53zM353,317h53v1h-53zM107,318h53v1h-53zM352,318h53v1h-53zM108,319h53v1h-53zM351,319h53v1h-53zM108,320h54v1h-54zM350,320h54v1h-54zM109,321h54v1h-54zM350,321h53v1h-53zM109,322h54v1h-54zM349,322h54v1h-54zM110,323h54v1h-54zM348,323h54v1h-54zM110,324h55v1h-55zM347,324h55v1h-55zM111,325h55v1h-55zM346,325h55v1h-55zM112,326h55v1h-55zM345,326h55v1h-55zM112,327h56v1h-56zM344,327h56v1h-56zM113,328h57v1h-57zM342,328h57v1h-57zM114,329h57v1h-57zM341,329h57v1h-57zM114,330h58v1h-58zM340,330h58v1h-58zM115,331h58v1h-58zM339,331h58v1h-58zM116,332h58v1h-58zM338,332h58v1h-58zM116,333h59v1h-59zM337,333h59v1h-59zM117,334h60v1h-60zM335,334h60v1h-60zM118,335h60v1h-60zM334,335h60v1h-60zM119,336h60v1h-60zM333,336h60v1h-60zM119,337h61v1h-61zM332,337h61v1h-61zM120,338h62v1h-62zM330,338h62v1h-62zM121,339h62v1h-62zM329,339h62v1h-62zM122,340h63v1h-63zM327,340h63v1h-63zM122,341h64v1h-64zM326,341h64v1h-64zM123,342h65v1h-65zM324,342h65v1h-65zM124,343h65v1h-65zM323,343h65v1h-65zM125,344h66v1h-66zM321,344h66v1h-66zM126,345h67v1h-67zM319,345h67v1h-67zM127,346h68v1h-68zM318,346h67v1h-67zM128,347h68v1h-68zM316,347h68v1h-68zM128,348h70v1h-70zM314,348h70v1h-70zM129,349h71v1h-71zM312,349h71v1h-71zM130,350h72v1h-72zM310,350h72v1h-72zM131,351h74v1h-74zM307,351h74v1h-74zM132,352h75v1h-75zM305,352h75v1h-75zM133,353h77v1h-77zM303,353h76v1h-76zM134,354h78v1h-78zM300,354h78v1h-78zM135,355h80v1h-80zM297,355h80v1h-80zM136,356h82v1h-82zM294,356h82v1h-82zM137,357h84v1h-84zM291,357h84v1h-84zM138,358h87v1h-87zM287,358h87v1h-87zM139,359h91v1h-91zM283,359h90v1h-90zM140,360h95v1h-95zM277,360h95v1h-95zM141,361h101v1h-101zM270,361h101v1h-101zM142,362h228v1h-228zM144,363h224v1h-224zM145,364h222v1h-222zM146,365h220v1h-220zM147,366h218v1h-218zM148,367h216v1h-216zM150,368h212v1h-212zM151,369h210v1h-210zM152,370h208v1h-208zM153,371h206v1h-206zM155,372h202v1h-202zM156,373h200v1h-200zM158,374h196v1h-196zM159,375h194v1h-194zM160,376h192v1h-192zM162,377h188v1h-188zM164,378h184v1h-184zM165,379h182v1h-182zM167,380h178v1h-178zM168,381h176v1h-176zM170,382h172v1h-172zM172,383h168v1h-168zM174,384h164v1h-164zM175,385h162v1h-162zM177,386h158v1h-158zM179,387h154v1h-154zM181,388h150v1h-150zM183,389h146v1h-146zM186,390h140v1h-140zM188,391h136v1h-136zM190,392h132v1h-132zM193,393h126v1h-126zM195,394h122v1h-122zM198,395h116v1h-116zM201,396h110v1h-110zM204,397h104v1h-104zM207,398h98v1h-98zM210,399h92v1h-92zM214,400h84v1h-84zM218,401h76v1h-76zM223,402h66v1h-66zM229,403h54v1h-54zM236,404h40v1h-40zM247,405h18v1h-18zM82,426h348v1h-348zM78,427h356v1h-356zM76,428h360v1h-360zM74,429h364v1h-364zM73,430h366v1h-366zM71,431h370v1h-370zM70,432h372v1h-372zM69,433h374v1h-374zM68,434h376v1h-376zM68,435h376v1h-376zM67,436h378v1h-378zM66,437h380v1h-380zM66,438h380v1h-380zM65,439h382v1h-382zM65,440h382v1h-382zM65,441h382v1h-382zM64,442h384v1h-384zM64,443h384v1h-384zM64,444h384v1h-384zM64,445h384v1h-384zM64,446h384v1h-384zM64,447h384v1h-384zM64,448h384v1h-384zM64,449h384v1h-384zM64,450h384v1h-384zM64,451h384v1h-384zM64,452h384v1h-384zM64,453h384v1h-384zM65,454h382v1h-382zM65,455h382v1h-382zM65,456h382v1h-382zM66,457h380v1h-380zM66,458h380v1h-380zM67,459h378v1h-378zM68,460h376v1h-376zM68,461h376v1h-376zM69,462h374v1h-374zM70,463h372v1h-372zM71,464h370v1h-370zM73,465h366v1h-366zM74,466h364v1h-364zM76,467h360v1h-360zM78,468h356v1h-356zM82,469h348v1h-348z"/></svg>