<?xml version="1.0" encoding="UTF-8"?>
<svg xmlns="http://www.w3.org/2000/svg" viewBox="0 0 512 512" width="512" height="512"><path fill="#000" d="M214,42h18v1h-18zM202,43h42v1h-42zM195,44h56v1h-56zM189,45h68v1h-68zM185,46h77v1h-77zM180,47h86v1h-86zM176,48h94v1h-94zM173,49h101v1h-101zM169,50h108v1h-108zM166,51h114v1h-114zM163,52h120v1h-120zM160,53h126v1h-126zM158,54h130v1h-130zM155,55h136v1h-136zM153,56h140v1h-140zM151,57h145v1h-145zM148,58h150v1h-150zM146,59h154v1h-154zM144,60h158v1h-158zM142,61h162v1h-162zM140,62h166v1h-166zM138,63h170v1h-170zM136,64h174v1h-174zM135,65h177v1h-177zM133,66h180v1h-180zM131,67h184v1h-184zM129,68h188v1h-188zM128,69h190v1h-190zM126,70h194v1h-194zM125,71h197v1h-197zM123,72h200v1h-200zM122,73h203v1h-203zM120,74h206v1h-206zM119,75h208v1h-208zM117,76h212v1h-212zM116,77h214v1h-214zM115,78h217v1h-217zM113,79h220v1h-220zM112,80h222v1h-222zM111,81h224v1h-224zM109,82h228v1h-228zM108,83h230v1h-230zM107,84h232v1h-232zM106,85h234v1h-234zM105,86h104v1h-104zM238,86h103v1h-103zM104,87h97v1h-97zM245,87h98v1h-98zM102,88h94v1h-94zM251,88h93v1h-93zM101,89h90v1h-90zM255,89h90v1h-90zM100,90h87v1h-87zM259,90h87v1h-87zM99,91h84v1h-84zM263,91h84v1h-84zM98,92h82v1h-82zM266,92h82v1h-82zM97,93h80v1h-80zM269,93h80v1h-80zM96,94h79v1h-79zM272,94h78v1h-78zM95,95h77v1h-77zM274,95h77v1h-77zM94,96h76v1h-76zM276,96h76v1h-76zM93,97h74v1h-74zM279,97h74v1h-74zM92,98h73v1h-73zM281,98h73v1h-73zM91,99h72v1h-72zM283,99h72v1h-72zM90,100h71v1h-71zM285,100h71v1h-71zM89,101h70v1h-70zM287,101h70v1h-70zM88,102h69v1h-69zM289,102h69v1h-69zM88,103h67v1h-67zM291,103h68v1h-68zM87,104h67v1h-67zM292,104h67v1h-67zM86,105h66v1h-66zM294,105h66v1h-66zM85,106h65v1h-65zM296,106h65v1h-65zM84,107h65v1h-65zM297,107h65v1h-65zM83,108h64v1h-64zM299,108h64v1h-64zM82,109h64v1h-64zM300,109h64v1h-64zM82,110h62v1h-62zM302,110h62v1h-62zM81,111h62v1h-62zM303,111h62v1h-62zM80,112h62v1h-62zM305,112h61v1h-61zM79,113h61v1h-61zM306,113h61v1h-61zM79,114h60v1h-60zM307,114h61v1h-61zM78,115h60v1h-60zM308,115h60v1h-60zM77,116h59v1h-59zM310,116h59v1h-59zM76,117h59v1h-59zM311,117h59v1h-59zM76,118h58v1h-58zM312,118h59v1h-59zM75,119h58v1h-58zM313,119h58v1h-58zM74,120h58v1h-58zM314,120h58v1h-58zM74,121h57v1h-57zM316,121h57v1h-57zM73,122h57v1h-57zM317,122h56v1h-56zM72,123h56v1h-56zM318,123h56v1h-56zM72,124h55v1h-55zM319,124h56v1h-56zM71,125h55v1h-55zM320,125h55v1h-55zM70,126h55v1h-55zM321,126h55v1h-55zM70,127h54v1h-54zM214,127h12v1h-12zM322,127h55v1h-55zM69,128h54v1h-54zM212,128h17v1h-17zM323,128h54v1h-54zM68,129h55v1h-55zM210,129h21v1h-21zM324,129h54v1h-54zM68,130h54v1h-54zM208,130h25v1h-25zM325,130h53v1h-53zM67,131h54v1h-54zM207,131h27v1h-27zM325,131h54v1h-54zM67,132h53v1h-53zM206,132h29v1h-29zM326,132h54v1h-54zM66,133h53v1h-53zM205,133h31v1h-31zM327,133h53v1h-53zM65,134h53v1h-53zM204,134h33v1h-33zM328,134h53v1h-53zM65,135h52v1h-52zM203,135h35v1h-35zM329,135h52v1h-52zM64,136h52v1h-52zM202,136h37v1h-37zM330,136h52v1h-52zM64,137h52v1h-52zM202,137h37v1h-37zM331,137h51v1h-51zM63,138h52v1h-52zM201,138h39v1h-39zM331,138h52v1h-52zM63,139h51v1h-51zM201,139h39v1h-39zM332,139h51v1h-51zM62,140h51v1h-51zM200,140h41v1h-41zM333,140h51v1h-51zM62,141h51v1h-51zM200,141h41v1h-41zM334,141h50v1h-50zM61,142h51v1h-51zM199,142h42v1h-42zM334,142h51v1h-51zM61,143h50v1h-50zM199,143h42v1h-42zM335,143h50v1h-50zM60,144h50v1h-50zM199,144h43v1h-43zM336,144h50v1h-50zM60,145h50v1h-50zM199,145h43v1h-43zM336,145h50v1h-50zM59,146h50v1h-50zM199,146h43v1h-43zM337,146h50v1h-50zM59,147h49v1h-49zM199,147h43v1h-43zM338,147h49v1h-49zM58,148h50v1h-50zM199,148h43v1h-43zM338,148h50v1h-50zM58,149h49v1h-49zM199,149h43v1h-43zM339,149h49v1h-49zM57,150h49v1h-49zM199,150h43v1h-43zM340,150h49v1h-49zM57,151h49v1h-49zM199,151h43v1h-43zM340,151h49v1h-49zM57,152h48v1h-48zM199,152h43v1h-43zM341,152h48v1h-48zM56,153h49v1h-49zM199,153h43v1h-43zM342,153h48v1h-48zM56,154h48v1h-48zM199,154h43v1h-43zM342,154h48v1h-48zM55,155h48v1h-48zM199,155h43v1h-43zM343,155h48v1h-48zM55,156h48v1h-48zM199,156h43v1h-43zM343,156h48v1h-48zM55,157h47v1h-47zM199,157h43v1h-43zM344,157h48v1h-48zM54,158h48v1h-48zM199,158h43v1h-43zM344,158h48v1h-48zM54,159h47v1h-47zM199,159h43v1h-43zM345,159h47v1h-47zM53,160h48v1h-48zM199,160h43v1h-43zM345,160h48v1h-48zM53,161h47v1h-47zM199,161h43v1h-43zM346,161h47v1h-47zM53,162h47v1h-47zM199,162h43v1h-43zM346,162h47v1h-47zM52,163h47v1h-47zM199,163h43v1h-43zM347,163h47v1h-47zM52,164h47v1h-47zM199,164h43v1h-43zM347,164h47v1h-47zM52,165h46v1h-46zM199,165h43v1h-43zM348,165h46v1h-46zM51,166h47v1h-47zM199,166h43v1h-43zM348,166h47v1h-47zM51,167h46v1h-46zM199,167h43v1h-43zM349,167h46v1h-46zM51,168h46v1h-46zM199,168h43v1h-43zM349,168h46v1h-46zM50,169h47v1h-47zM199,169h43v1h-43zM350,169h46v1h-46zM50,170h46v1h-46zM199,170h43v1h-43zM350,170h46v1h-46zM50,171h46v1h-46zM199,171h43v1h-43zM350,171h46v1h-46zM49,172h46v1h-46zM199,172h43v1h-43zM351,172h46v1h-46zM49,173h46v1h-46zM199,173h43v1h-43zM351,173h46v1h-46zM49,174h46v1h-46zM199,174h43v1h-43zM352,174h45v1h-45zM49,175h45v1h-45zM199,175h43v1h-43zM352,175h45v1h-45zM48,176h46v1h-46zM199,176h43v1h-43zM352,176h46v1h-46zM48,177h45v1h-45zM199,177h43v1h-43zM353,177h45v1h-45zM48,178h45v1h-45zM199,178h43v1h-43zM353,178h45v1h-45zM48,179h45v1h-45zM199,179h43v1h-43zM353,179h45v1h-45zM47,180h45v1h-45zM199,180h43v1h-43zM354,180h45v1h-45zM47,181h45v1h-45zM199,181h43v1h-43zM354,181h45v1h-45zM47,182h45v1h-45zM199,182h43v1h-43zM354,182h45v1h-45zM47,183h44v1h-44zM199,183h43v1h-43zM355,183h44v1h-44zM46,184h45v1h-45zM199,184h43v1h-43zM355,184h45v1h-45zM46,185h45v1h-45zM199,185h43v1h-43zM355,185h45v1h-45zM46,186h45v1h-45zM199,186h43v1h-43zM355,186h45v1h-45zM46,187h44v1h-44zM199,187h43v1h-43zM356,187h44v1h-44zM46,188h44v1h-44zM199,188h43v1h-43zM356,188h44v1h-44zM45,189h45v1h-45zM199,189h43v1h-43zM356,189h45v1h-45zM45,190h45v1h-45zM199,190h43v1h-43zM356,190h45v1h-45zM45,191h44v1h-44zM199,191h43v1h-43zM357,191h44v1h-44zM45,192h44v1h-44zM199,192h43v1h-43zM357,192h44v1h-44zM45,193h44v1h-44zM199,193h43v1h-43zM357,193h44v1h-44zM45,194h44v1h-44zM199,194h43v1h-43zM357,194h45v1h-45zM44,195h45v1h-45zM199,195h43v1h-43zM358,195h44v1h-44zM44,196h44v1h-44zM199,196h43v1h-43zM358,196h44v1h-44zM44,197h44v1h-44zM199,197h43v1h-43zM358,197h44v1h-44zM44,198h44v1h-44zM199,198h43v1h-43zM358,198h44v1h-44zM44,199h44v1h-44zM142,199h156v1h-156zM358,199h44v1h-44zM44,200h44v1h-44zM140,200h161v1h-161zM359,200h43v1h-43zM44,201h43v1h-43zM138,201h165v1h-165zM359,201h43v1h-43zM43,202h44v1h-44zM136,202h169v1h-169zM359,202h44v1h-44zM43,203h44v1h-44zM135,203h171v1h-171zM359,203h44v1h-44zM43,204h44v1h-44zM134,204h173v1h-173zM359,204h44v1h-44zM43,205h44v1h-44zM133,205h175v1h-175zM359,205h44v1h-44zM43,206h44v1h-44zM132,206h177v1h-177zM359,206h44v1h-44zM43,207h44v1h-44zM131,207h179v1h-179zM359,207h44v1h-44zM43,208h44v1h-44zM130,208h181v1h-181zM360,208h43v1h-43zM43,209h43v1h-43zM130,209h181v1h-181zM360,209h43v1h-43zM43,210h43v1h-43zM129,210h183v1h-183zM360,210h43v1h-43zM43,211h43v1h-43zM129,211h183v1h-183zM360,211h43v1h-43zM43,212h43v1h-43zM128,212h185v1h-185zM360,212h44v1h-44zM43,213h43v1h-43zM128,213h185v1h-185zM360,213h44v1h-44zM42,214h44v1h-44zM127,214h186v1h-186zM360,214h44v1h-44zM42,215h44v1h-44zM127,215h186v1h-186zM360,215h44v1h-44zM42,216h44v1h-44zM127,216h187v1h-187zM360,216h44v1h-44zM42,217h44v1h-44zM127,217h187v1h-187zM360,217h44v1h-44zM42,218h44v1h-44zM127,218h187v1h-187zM360,218h44v1h-44zM42,219h44v1h-44zM127,219h187v1h-187zM360,219h44v1h-44zM42,220h44v1h-44zM127,220h187v1h-187zM360,220h44v1h-44zM42,221h44v1h-44zM127,221h187v1h-187zM360,221h44v1h-44zM42,222h44v1h-44zM127,222h187v1h-187zM360,222h44v1h-44zM42,223h44v1h-44zM127,223h187v1h-187zM360,223h44v1h-44zM42,224h44v1h-44zM127,224h187v1h-187zM360,224h44v1h-44zM42,225h44v1h-44zM127,225h186v1h-186zM360,225h44v1h-44zM42,226h44v1h-44zM128,226h185v1h-185zM360,226h44v1h-44zM42,227h44v1h-44zM128,227h185v1h-185zM360,227h44v1h-44zM42,228h44v1h-44zM128,228h184v1h-184zM360,228h44v1h-44zM42,229h44v1h-44zM129,229h183v1h-183zM360,229h44v1h-44zM42,230h44v1h-44zM129,230h183v1h-183zM360,230h44v1h-44zM42,231h44v1h-44zM130,231h181v1h-181zM360,231h44v1h-44zM43,232h43v1h-43zM130,232h180v1h-180zM360,232h44v1h-44zM43,233h43v1h-43zM131,233h179v1h-179zM360,233h43v1h-43zM43,234h43v1h-43zM132,234h177v1h-177zM360,234h43v1h-43zM43,235h43v1h-43zM133,235h175v1h-175zM360,235h43v1h-43zM43,236h43v1h-43zM134,236h173v1h-173zM360,236h43v1h-43zM43,237h43v1h-43zM135,237h171v1h-171zM360,237h43v1h-43zM43,238h44v1h-44zM136,238h168v1h-168zM359,238h44v1h-44zM43,239h44v1h-44zM138,239h165v1h-165zM359,239h44v1h-44zM43,240h44v1h-44zM140,240h160v1h-160zM359,240h44v1h-44zM43,241h44v1h-44zM144,241h153v1h-153zM359,241h44v1h-44zM43,242h44v1h-44zM199,242h43v1h-43zM359,242h44v1h-44zM43,243h44v1h-44zM199,243h43v1h-43zM359,243h44v1h-44zM44,244h43v1h-43zM199,244h43v1h-43zM359,244h44v1h-44zM44,245h44v1h-44zM199,245h43v1h-43zM359,245h43v1h-43zM44,246h44v1h-44zM199,246h43v1h-43zM358,246h44v1h-44zM44,247h44v1h-44zM199,247h43v1h-43zM358,247h44v1h-44zM44,248h44v1h-44zM199,248h43v1h-43zM358,248h44v1h-44zM44,249h44v1h-44zM199,249h43v1h-43zM358,249h44v1h-44zM44,250h44v1h-44zM199,250h43v1h-43zM358,250h44v1h-44zM45,251h44v1h-44zM199,251h43v1h-43zM357,251h45v1h-45zM45,252h44v1h-44zM199,252h43v1h-43zM357,252h44v1h-44zM45,253h44v1h-44zM199,253h43v1h-43zM357,253h44v1h-44zM45,254h44v1h-44zM199,254h43v1h-43zM357,254h44v1h-44zM45,255h45v1h-45zM199,255h43v1h-43zM357,255h44v1h-44zM45,256h45v1h-45zM199,256h43v1h-43zM356,256h45v1h-45zM46,257h44v1h-44zM199,257h43v1h-43zM356,257h44v1h-44zM46,258h44v1h-44zM199,258h43v1h-43zM356,258h44v1h-44zM46,259h45v1h-45zM199,259h43v1h-43zM355,259h45v1h-45zM46,260h45v1h-45zM199,260h43v1h-43zM355,260h45v1h-45zM46,261h45v1h-45zM199,261h43v1h-43zM355,261h45v1h-45zM47,262h44v1h-44zM199,262h43v1h-43zM355,262h44v1h-44zM47,263h45v1h-45zM199,263h43v1h-43zM354,263h45v1h-45zM47,264h45v1h-45zM199,264h43v1h-43zM354,264h45v1h-45zM47,265h45v1h-45zM199,265h43v1h-43zM354,265h45v1h-45zM48,266h45v1h-45zM199,266h43v1h-43zM353,266h46v1h-46zM48,267h45v1h-45zM199,267h43v1h-43zM353,267h45v1h-45zM48,268h45v1h-45zM199,268h43v1h-43zM353,268h45v1h-45zM48,269h46v1h-46zM199,269h43v1h-43zM352,269h46v1h-46zM49,270h45v1h-45zM199,270h43v1h-43zM352,270h45v1h-45zM49,271h46v1h-46zM199,271h43v1h-43zM352,271h45v1h-45zM49,272h46v1h-46zM199,272h43v1h-43zM351,272h46v1h-46zM49,273h46v1h-46zM199,273h43v1h-43zM351,273h46v1h-46zM50,274h46v1h-46zM199,274h43v1h-43zM350,274h46v1h-46zM50,275h46v1h-46zM199,275h43v1h-43zM350,275h46v1h-46zM50,276h47v1h-47zM199,276h43v1h-43zM350,276h46v1h-46zM51,277h46v1h-46zM199,277h43v1h-43zM349,277h46v1h-46zM51,278h46v1h-46zM199,278h43v1h-43zM349,278h46v1h-46zM51,279h47v1h-47zM199,279h43v1h-43zM348,279h47v1h-47zM52,280h46v1h-46zM199,280h43v1h-43zM348,280h46v1h-46zM52,281h47v1h-47zM199,281h43v1h-43zM347,281h47v1h-47zM52,282h47v1h-47zM199,282h43v1h-43zM347,282h47v1h-47zM53,283h47v1h-47zM199,283h43v1h-43zM346,283h47v1h-47zM53,284h47v1h-47zM199,284h43v1h-43zM346,284h47v1h-47zM53,285h48v1h-48zM199,285h43v1h-43zM345,285h48v1h-48zM54,286h47v1h-47zM199,286h43v1h-43zM345,286h47v1h-47zM54,287h48v1h-48zM199,287h43v1h-43zM344,287h48v1h-48zM55,288h47v1h-47zM199,288h43v1h-43zM344,288h48v1h-48zM55,289h48v1h-48zM199,289h43v1h-43zM343,289h48v1h-48zM55,290h48v1h-48zM199,290h43v1h-43zM343,290h48v1h-48zM56,291h48v1h-48zM199,291h43v1h-43zM342,291h48v1h-48zM56,292h49v1h-49zM199,292h43v1h-43zM342,292h48v1h-48zM57,293h48v1h-48zM199,293h43v1h-43zM341,293h49v1h-49zM57,294h49v1h-49zM199,294h43v1h-43zM340,294h49v1h-49zM57,295h49v1h-49zM199,295h43v1h-43zM340,295h49v1h-49zM58,296h49v1h-49zM199,296h43v1h-43zM339,296h49v1h-49zM58,297h50v1h-50zM199,297h42v1h-42zM338,297h50v1h-50zM59,298h49v1h-49zM200,298h41v1h-41zM338,298h49v1h-49zM59,299h50v1h-50zM200,299h41v1h-41zM337,299h50v1h-50zM60,300h50v1h-50zM200,300h40v1h-40zM336,300h50v1h-50zM60,301h50v1h-50zM201,301h39v1h-39zM336,301h50v1h-50zM61,302h50v1h-50zM201,302h39v1h-39zM335,302h50v1h-50zM61,303h51v1h-51zM202,303h37v1h-37zM334,303h51v1h-51zM62,304h50v1h-50zM202,304h36v1h-36zM334,304h50v1h-50zM62,305h51v1h-51zM203,305h35v1h-35zM333,305h51v1h-51zM63,306h51v1h-51zM204,306h33v1h-33zM332,306h51v1h-51zM63,307h52v1h-52zM205,307h31v1h-31zM331,307h52v1h-52zM64,308h52v1h-52zM206,308h29v1h-29zM331,308h51v1h-51zM64,309h52v1h-52zM207,309h27v1h-27zM330,309h52v1h-52zM65,310h52v1h-52zM208,310h24v1h-24zM329,310h52v1h-52zM65,311h53v1h-53zM210,311h21v1h-21zM328,311h53v1h-53zM66,312h53v1h-53zM212,312h16v1h-16zM327,312h53v1h-53zM67,313h53v1h-53zM216,313h9v1h-9zM326,313h54v1h-54zM67,314h54v1h-54zM326,314h53v1h-53zM68,315h53v1h-53zM325,315h53v1h-53zM68,316h54v1h-54zM324,316h54v1h-54zM69,317h54v1h-54zM323,317h54v1h-54zM70,318h54v1h-54zM322,318h55v1h-55zM70,319h55v1h-55zM321,319h55v1h-55zM71,320h55v1h-55zM320,320h55v1h-55zM71,321h56v1h-56zM319,321h56v1h-56zM72,322h56v1h-56zM318,322h56v1h-56zM73,323h56v1h-56zM317,323h56v1h-56zM73,324h57v1h-57zM316,324h57v1h-57zM74,325h58v1h-58zM315,325h57v1h-57zM75,326h58v1h-58zM313,326h58v1h-58zM76,327h58v1h-58zM312,327h59v1h-59zM76,328h59v1h-59zM311,328h59v1h-59zM77,329h59v1h-59zM310,329h59v1h-59zM78,330h60v1h-60zM309,330h59v1h-59zM78,331h61v1h-61zM307,331h61v1h-61zM79,332h61v1h-61zM306,332h61v1h-61zM80,333h61v1h-61zM305,333h62v1h-62zM81,334h62v1h-62zM303,334h64v1h-64zM82,335h62v1h-62zM302,335h65v1h-65zM82,336h64v1h-64zM300,336h67v1h-67zM83,337h64v1h-64zM299,337h69v1h-69zM84,338h65v1h-65zM297,338h72v1h-72zM85,339h65v1h-65zM296,339h74v1h-74zM86,340h66v1h-66zM294,340h77v1h-77zM87,341h66v1h-66zM293,341h79v1h-79zM87,342h68v1h-68zM291,342h82v1h-82zM88,343h69v1h-69zM289,343h85v1h-85zM89,344h70v1h-70zM287,344h88v1h-88zM90,345h71v1h-71zM285,345h91v1h-91zM91,346h72v1h-72zM283,346h94v1h-94zM92,347h73v1h-73zM281,347h97v1h-97zM93,348h74v1h-74zM279,348h100v1h-100zM94,349h75v1h-75zM277,349h103v1h-103zM95,350h77v1h-77zM274,350h107v1h-107zM96,351h78v1h-78zM272,351h110v1h-110zM97,352h80v1h-80zM269,352h114v1h-114zM98,353h82v1h-82zM266,353h118v1h-118zM99,354h84v1h-84zM263,354h122v1h-122zM100,355h87v1h-87zM259,355h127v1h-127zM101,356h89v1h-89zM256,356h131v1h-131zM102,357h93v1h-93zM251,357h137v1h-137zM103,358h97v1h-97zM246,358h143v1h-143zM105,359h103v1h-103zM238,359h152v1h-152zM106,360h285v1h-285zM107,361h285v1h-285zM108,362h285v1h-285zM109,363h285v1h-285zM111,364h284v1h-284zM112,365h284v1h-284zM113,366h284v1h-284zM114,367h218v1h-218zM337,367h61v1h-61zM116,368h214v1h-214zM338,368h61v1h-61zM117,369h212v1h-212zM339,369h61v1h-61zM119,370h209v1h-209zM340,370h61v1h-61zM120,371h206v1h-206zM341,371h61v1h-61zM121,372h204v1h-204zM342,372h61v1h-61zM123,373h200v1h-200zM343,373h61v1h-61zM124,374h198v1h-198zM344,374h61v1h-61zM126,375h194v1h-194zM345,375h61v1h-61zM127,376h192v1h-192zM346,376h61v1h-61zM129,377h188v1h-188zM347,377h61v1h-61zM131,378h184v1h-184zM348,378h61v1h-61zM133,379h181v1h-181zM349,379h61v1h-61zM134,380h178v1h-178zM350,380h61v1h-61zM136,381h174v1h-174zM351,381h61v1h-61zM138,382h170v1h-170zM352,382h61v1h-61zM140,383h166v1h-166zM353,383h61v1h-61zM142,384h162v1h-162zM354,384h61v1h-61zM144,385h158v1h-158zM355,385h61v1h-61zM146,386h154v1h-154zM356,386h61v1h-61zM148,387h150v1h-150zM357,387h61v1h-61zM150,388h146v1h-146zM358,388h61v1h-61zM153,389h141v1h-141zM359,389h61v1h-61zM155,390h136v1h-136zM360,390h61v1h-61zM157,391h132v1h-132zM361,391h61v1h-61zM160,392h126v1h-126zM362,392h61v1h-61zM163,393h120v1h-120zM363,393h61v1h-61zM166,394h114v1h-114zM364,394h61v1h-61zM169,395h108v1h-108zM365,395h61v1h-61zM172,396h102v1h-102zM366,396h61v1h-61zM176,397h94v1h-94zM367,397h61v1h-61zM180,398h87v1h-87zM368,398h61v1h-61zM184,399h78v1h-78zM369,399h61v1h-61zM189,400h68v1h-68zM370,400h61v1h-61zM194,401h58v1h-58zM371,401h61v1h-61zM202,402h43v1h-43zM372,402h61v1h-61zM212,403h21v1h-21zM373,403h61v1h-61zM374,404h61v1h-61zM375,405h61v1h-61zM376,406h61v1h-61zM377,407h61v1h-61zM378,408h61v1h-61zM379,409h61v1h-61zM380,410h61v1h-61zM381,411h61v1h-61zM382,412h61v1h-61zM383,413h61v1h-61zM384,414h61v1h-61zM385,415h61v1h-61zM386,416h61v1h-61zM387,417h61v1h-61zM388,418h61v1h-61zM389,419h61v1h-61zM390,420h61v1h-61zM391,421h61v1h-61zM392,422h61v1h-61zM393,423h61v1h-61zM394,424h61v1h-61zM395,425h61v1h-61zM396,426h61v1h-61zM397,427h61v1h-61zM398,428h61v1h-61zM399,429h61v1h-61zM400,430h61v1h-61zM401,431h61v1h-61zM402,432h61v1h-61zM403,433h61v1h-61zM404,434h61v1h-61zM405,435h61v1h-61zM406,436h60v1h-60zM407,437h60v1h-60zM408,438h59v1h-59zM409,439h59v1h-59zM410,440h58v1h-58zM411,441h58v1h-58zM412,442h57v1h-57zM413,443h56v1h-56zM414,444h55v1h-55zM415,445h55v1h-55zM416,446h54v1h-54zM417,447h53v1h-53zM418,448h52v1h-52zM419,449h51v1h-51zM420,450h50v1h-50zM421,451h48v1h-48zM422,452h47v1h-47zM423,453h46v1h-46zM424,454h45v1h-45zM425,455h43v1h-43zM426,456h42v1h-42zM427,457h40v1h-40zM428,458h39v1h-39zM429,459h37v1h-37zM430,460h36v1h-36zM431,461h34v1h-34zM432,462h32v1h-32zM433,463h30v1h-30zM434,464h28v1h-28zM435,465h26v1h-26zM437,466h22v1h-22zM439,467h18v1h-18zM441,468h14v1h-14zM445,469h6v1h-6z"/></svg>